<svg width="55" height="110" viewBox="0 0 55 110" fill="none" xmlns="http://www.w3.org/2000/svg">
<path d="M52.022 78.5265L48.6013 103.927C48.5489 107.362 41.0244 110.028 31.789 109.889C22.5537 109.748 15.1093 106.856 15.1616 103.423L11.1943 76.3111L52.022 78.5265Z" fill="#AA6B28"/>
<path d="M52.022 78.5265L51.9182 78.5136L48.4985 103.913L48.4965 103.925C48.4817 105.516 46.7303 107.001 43.8294 108.067C40.9354 109.135 36.9276 109.789 32.4799 109.788C32.2506 109.788 32.0223 109.788 31.791 109.784C27.2 109.714 23.0518 108.961 20.063 107.804C17.0662 106.648 15.2575 105.082 15.2664 103.458V103.424L15.2654 103.407L11.3179 76.4212L52.0161 78.6337L52.022 78.5265L52.027 78.4233L11.2002 76.2068L11.1162 76.2396L11.0905 76.3269L15.0579 103.438L15.1616 103.423L15.0579 103.42L15.0559 103.458C15.0668 105.253 16.9714 106.83 19.9859 108.001C23.0093 109.17 27.1753 109.925 31.7871 109.994C32.0183 109.999 32.2486 110 32.4789 110C36.9474 110 40.976 109.344 43.9016 108.266C46.8212 107.185 48.6705 105.687 48.706 103.928L48.6013 103.927L48.705 103.942L52.1258 78.5424L52.1011 78.46L52.027 78.4233L52.022 78.5265Z" fill="#2E1010"/>
<path d="M52.022 78.5265L48.6013 103.927C48.5489 107.362 41.0244 110.028 31.789 109.889C22.5537 109.748 15.1093 106.856 15.1616 103.423L11.1943 76.3111L52.022 78.5265Z" fill="#F9A84C"/>
<path d="M52.022 78.5265L51.9182 78.5136L48.4985 103.913L48.4965 103.925C48.4817 105.516 46.7303 107.001 43.8294 108.067C40.9354 109.135 36.9276 109.789 32.4799 109.788C32.2506 109.788 32.0223 109.788 31.791 109.784C27.2 109.714 23.0518 108.961 20.063 107.804C17.0662 106.648 15.2575 105.082 15.2664 103.458V103.424L15.2654 103.407L11.3179 76.4212L52.0161 78.6337L52.022 78.5265L52.027 78.4233L11.2002 76.2068L11.1162 76.2396L11.0905 76.3269L15.0579 103.438L15.1616 103.423L15.0579 103.42L15.0559 103.458C15.0668 105.253 16.9714 106.83 19.9859 108.001C23.0093 109.17 27.1753 109.925 31.7871 109.994C32.0183 109.999 32.2486 110 32.4789 110C36.9474 110 40.976 109.344 43.9016 108.266C46.8212 107.185 48.6705 105.687 48.706 103.928L48.6013 103.927L48.705 103.942L52.1258 78.5424L52.1011 78.46L52.027 78.4233L52.022 78.5265Z" fill="#7C4317"/>
<path d="M15.7477 83.4516L18.2454 101.302C18.2454 101.302 19.3148 106.909 26.1711 108.399C26.9529 108.57 27.7258 108.649 28.4829 108.649C34.3608 108.649 39.2493 103.782 39.6634 98.0762C40.1635 91.1927 40.1635 85.3474 40.1635 85.3474C40.1635 85.3474 36.044 86.0174 30.7374 86.0174C25.9903 86.0174 20.2962 85.4825 15.7477 83.4516Z" fill="#FAB76A"/>
<path d="M51.689 80.2119C50.5237 81.2521 48.8701 82.1752 46.8548 82.9454C45.1687 83.5886 43.2225 84.1246 41.0877 84.5246C41.6491 84.5871 42.3706 84.6378 43.2324 84.6378C44.3621 84.6378 45.731 84.5514 47.3016 84.2943C47.3016 84.2943 47.431 84.1782 47.5902 84.1782C47.8432 84.1782 48.1743 84.467 48.1941 85.9599C48.2287 88.3986 45.9445 103.168 45.9445 103.168C45.9445 103.168 45.5037 106.973 40.2209 108.4C38.4536 108.877 35.5903 109.265 32.3811 109.265C26.098 109.265 18.4855 107.786 15.1478 102.616L15.2634 103.408L15.2644 103.425V103.459C15.2546 105.083 17.0633 106.649 20.061 107.805C23.0498 108.962 27.199 109.715 31.789 109.785C32.0203 109.789 32.2486 109.789 32.4779 109.789C36.9256 109.79 40.9345 109.136 43.8274 108.068C46.7283 107.002 48.4797 105.517 48.4945 103.926L48.4965 103.914L51.689 80.2119Z" fill="#DE9342"/>
<path d="M51.8095 80.1027C51.77 80.1394 51.7295 80.1761 51.6899 80.2109L48.4985 103.913L48.4965 103.925C48.4817 105.516 46.7303 107.001 43.8294 108.067C40.9354 109.135 36.9276 109.789 32.4799 109.788C32.2506 109.788 32.0223 109.788 31.791 109.784C27.2 109.714 23.0518 108.961 20.063 107.804C17.0662 106.648 15.2575 105.082 15.2664 103.458V103.424L15.2654 103.407L15.1498 102.615C15.1033 102.541 15.0559 102.466 15.0104 102.393L15.1616 103.422C15.1093 106.855 22.5547 109.747 31.789 109.888C32.0193 109.893 32.2496 109.894 32.4789 109.894C41.395 109.894 48.5509 107.274 48.6013 103.926L51.8095 80.1027Z" fill="#6F3B14"/>
<path d="M10.2514 71.5259L14.196 71.6797C18.1021 69.4544 24.57 67.9993 31.8958 67.9993C40.0696 67.9993 47.179 69.8097 50.8488 72.4807C52.3729 72.0003 53.9207 71.506 53.9207 71.506L53.468 77.0356C52.9205 81.6005 43.4736 85.2363 31.8958 85.2363C20.1855 85.2363 10.6596 81.5191 10.3127 76.8778L10.2504 76.8103V71.7432L10.2534 71.7581L10.2514 71.5259Z" fill="#F9A72B"/>
<path d="M10.2514 71.5259L10.2455 71.6331L14.193 71.7839L14.2494 71.77C18.1297 69.5586 24.5848 68.1025 31.8958 68.1035C40.0518 68.1025 47.1503 69.9159 50.7866 72.5651L50.8795 72.58C52.4045 72.1006 53.9513 71.6043 53.9513 71.6043L53.9207 71.505L53.8159 71.4941L53.3642 77.0257L53.469 77.0347V76.9304L53.3642 77.0257C53.1063 79.2342 50.6472 81.2769 46.7817 82.7489C42.9201 84.2219 37.6738 85.1301 31.8958 85.1301C26.0525 85.1301 20.7539 84.201 16.8814 82.6993C13.003 81.1965 10.5776 79.1151 10.4184 76.8709L10.3908 76.8064L10.3572 76.7686V71.7432H10.2514L10.1486 71.7681L10.1526 71.782L10.2682 71.8633L10.3611 71.7561L10.3572 71.5269L10.2514 71.5259L10.1466 71.5269L10.1496 71.7591L10.2544 71.7561L10.3572 71.7333L10.3532 71.7184L10.2386 71.637L10.1457 71.7413V76.8083L10.1733 76.8788L10.2346 76.9473L10.3127 76.8758L10.2079 76.8838C10.3947 79.2808 12.9062 81.3772 16.8063 82.8928C20.7094 84.4085 26.0298 85.3395 31.8968 85.3395C37.6965 85.3395 42.9626 84.4293 46.8568 82.9444C50.746 81.4586 53.2842 79.4029 53.5728 77.0475L53.469 77.0347L53.47 77.1399L53.5748 77.0426L54.0264 71.511L53.9869 71.4197L53.8901 71.4018C53.8871 71.4018 52.3423 71.8971 50.8172 72.3775L50.8498 72.4787L50.9121 72.3914C47.2086 69.7005 40.0874 67.8921 31.8978 67.8921C24.5561 67.8921 18.0773 69.3472 14.1466 71.5864L14.198 71.6787L14.2039 71.5725L10.2583 71.4207L10.1802 71.4504L10.1486 71.5259H10.2514Z" fill="#7C4317"/>
<path d="M10.2514 71.5259C10.2514 76.317 20.0274 80.2 32.0865 80.2C44.1447 80.2 53.9217 76.317 53.9217 71.5259C53.9217 66.7357 44.1447 62.8528 32.0865 62.8528C20.0264 62.8518 10.2514 66.7357 10.2514 71.5259Z" fill="#F9A84C"/>
<path d="M10.2514 71.5259H10.1457C10.1536 74.0023 12.6443 76.181 16.6076 77.7572C20.5759 79.3344 26.0456 80.3062 32.0856 80.3062C38.1265 80.3062 43.5952 79.3344 47.5625 77.7572C51.5249 76.181 54.0176 74.0023 54.0245 71.5259C54.0176 69.0504 51.5249 66.8707 47.5625 65.2955C43.5942 63.7193 38.1265 62.7475 32.0856 62.7475C26.0456 62.7475 20.575 63.7193 16.6076 65.2955C12.6443 66.8707 10.1536 69.0504 10.1457 71.5259H10.2514H10.3572C10.3483 69.2122 12.7461 67.0523 16.6857 65.491C20.6194 63.9267 26.0683 62.957 32.0865 62.957C38.1047 62.957 43.5527 63.9267 47.4874 65.491C51.427 67.0523 53.8238 69.2122 53.8159 71.5259C53.8238 73.8405 51.427 76.0004 47.4874 77.5617C43.5527 79.125 38.1047 80.0948 32.0865 80.0948C26.0683 80.0948 20.6194 79.125 16.6857 77.5617C12.7461 76.0004 10.3483 73.8405 10.3572 71.5259H10.2514Z" fill="#7C4317"/>
<path d="M10.9423 71.3601C10.9423 75.6877 20.3872 79.1975 32.0391 79.1975C43.691 79.1975 53.134 75.6877 53.134 71.3601C53.134 67.0315 43.691 63.5208 32.0391 63.5208C20.3872 63.5208 10.9423 67.0305 10.9423 71.3601Z" fill="#C7883C"/>
<path d="M10.9423 71.3601H10.8375C10.8474 73.6113 13.257 75.5756 17.085 77.0019C20.9189 78.4262 26.2018 79.3027 32.0381 79.3027C37.8745 79.3027 43.1583 78.4252 46.9912 77.0019C50.8192 75.5766 53.2278 73.6113 53.2377 71.3601C53.2269 69.108 50.8192 67.1437 46.9912 65.7173C43.1583 64.293 37.8745 63.4156 32.0381 63.4156C26.2018 63.4156 20.9189 64.294 17.085 65.7173C13.257 67.1437 10.8464 69.108 10.8375 71.3601H10.9423H11.048C11.0382 69.2807 13.35 67.3273 17.1591 65.9178C20.9614 64.5044 26.2235 63.627 32.0401 63.627C37.8557 63.627 43.1198 64.5044 46.92 65.9178C50.7292 67.3273 53.0401 69.2817 53.0302 71.3601C53.041 73.4366 50.7292 75.39 46.92 76.8014C43.1198 78.2148 37.8557 79.0932 32.0401 79.0932C26.2235 79.0932 20.9614 78.2148 17.1591 76.8014C13.35 75.39 11.0391 73.4356 11.048 71.3601H10.9423Z" fill="#7C4317"/>
<path d="M45.6006 70.1998C45.6006 70.1998 45.992 69.1963 42.59 67.9605C39.189 66.7228 38.4092 68.9035 38.4092 68.9035C38.4092 68.9035 38.5189 67.9665 36.6914 66.7883C34.8619 65.6101 32.1557 67.5139 32.1557 67.5139C29.1896 66.1491 26.9618 69.2082 26.9618 69.2082C24.2438 66.4896 19.6311 69.1626 19.6311 69.1626C14.9531 68.1491 13.8066 71.9834 13.8066 71.9834C12.6561 71.9388 11.8051 72.3269 11.1726 72.8629C13.4765 76.2773 21.6404 78.9513 31.4204 79.1905C41.993 79.4456 50.8142 76.7676 52.4332 73.0356C51.2432 71.8217 49.0767 71.4534 49.0767 71.4534C48.0201 69.9129 45.6006 70.1998 45.6006 70.1998Z" fill="#584521"/>
<path d="M45.7024 70.2266C46.0384 69.0693 43.2502 68.171 42.6295 67.9268C41.3328 67.4226 39.2532 67.1814 38.4349 68.6325C38.3153 68.8439 38.3499 68.8281 38.4062 68.8122C38.4497 68.8003 38.5041 68.7893 38.5129 68.8767C38.4754 68.5243 38.3172 68.2702 38.1314 67.9774C37.6106 67.1546 36.6459 66.6176 35.7307 66.3923C34.9074 66.1908 33.9734 66.5382 33.2242 66.8399C32.8347 66.9968 32.4661 67.2181 32.1142 67.4414C32.2605 67.3491 30.8026 67.1318 30.9707 67.1377C29.9171 67.097 29.0631 67.363 28.1716 67.9337C27.7782 68.1849 27.4412 68.5273 27.1219 68.8658C26.6979 69.3154 26.6505 68.7486 26.1079 68.4975C24.1272 67.5764 22.0417 67.9715 20.1025 68.839C19.6014 69.0633 19.1606 69.0176 18.6872 68.974C18.3996 68.9482 18.1011 68.9184 17.7709 68.9531C16.7114 69.0573 15.8308 69.364 14.9966 70.039C14.455 70.4747 14.0557 71.114 13.7809 71.7472C13.6741 71.9954 11.5541 72.4738 11.0777 72.8271L11.0807 72.8619C12.7945 75.2232 15.7883 76.3756 18.4559 77.251C22.6328 78.6178 27.0913 79.1012 31.4619 79.2382C36.0302 79.3821 40.6666 78.9444 45.0787 77.7354C47.7463 77.0059 51.2294 75.7473 52.534 73.0624L52.5133 73.0247C51.3806 72.038 49.9039 71.8653 48.8009 71.0316C47.8481 70.311 46.7244 70.04 45.5363 70.1502C45.4296 70.1621 45.6124 70.2514 45.6658 70.2455C47.0278 70.1174 48.0616 71.2738 49.3524 71.5527C50.4831 71.7978 52.8562 72.3914 51.8392 73.8396C51.4774 74.3567 50.9714 74.7636 50.4802 75.1468C47.176 77.7156 42.3379 78.4203 38.3291 78.8729C32.8021 79.4992 27.1042 79.1687 21.6671 78.0173C19.3217 77.52 17.0188 76.7776 14.8651 75.7155C14.0369 75.3076 13.265 74.7974 12.5385 74.2296C12.239 73.9825 11.9603 73.7165 11.7033 73.4276C10.6527 72.308 13.7453 72.0361 13.8471 72.0321L13.9064 72.0112C14.703 69.5248 17.2866 68.7973 19.6479 69.2112C19.8732 69.2489 20.3605 68.8846 20.5532 68.8003C22.6021 67.8831 25.0355 67.6151 26.8818 69.2201L27.0557 69.2449C27.3394 68.8737 27.6774 68.5611 28.0303 68.2563C29.4476 67.0365 30.2274 67.5159 32.1972 67.5635C32.5422 67.5725 33.0631 67.0831 33.3882 66.9263C34.9429 66.1878 38.3617 66.7576 38.3084 68.8767L38.511 68.9303C38.8184 68.166 39.5745 67.8057 40.3385 67.6548C39.7929 67.763 46.0305 68.3377 45.4988 70.173L45.7024 70.2266Z" fill="#403215"/>
<path d="M19.9108 69.898C19.9108 69.898 16.1421 69.239 15.4157 71.244C14.6892 73.25 12.2519 72.1661 13.8165 73.9001C15.3821 75.6321 17.8075 75.7185 18.9016 74.7815C19.9948 73.8435 20.3842 72.5165 22.5576 72.6991C24.7311 72.8847 23.381 71.1427 22.0951 71.1229C20.8112 71.102 23.207 69.4762 24.2438 69.3591C25.2836 69.241 22.0269 68.0876 19.9108 69.898Z" fill="#6C562B"/>
<path d="M29.324 71.8842C29.324 71.8842 28.4711 70.8469 25.924 70.7864C23.379 70.7249 24.8309 71.7581 24.7103 72.2485C24.5917 72.7388 26.2828 73.7125 26.2828 73.7125C26.2828 73.7125 27.0024 72.0073 29.324 71.8842Z" fill="#6C562B"/>
<path d="M28.2042 69.5248C27.9443 69.509 29.7728 67.5198 31.6398 68.1392C32.4849 68.4191 33.2765 68.2107 34.0277 68.0032C34.937 67.7511 35.787 67.501 36.6064 68.1104C38.1018 69.2281 37.4386 70.1502 37.4386 70.1502C37.4386 70.1502 32.7122 70.1005 32.2595 72.1691C32.2595 72.1691 30.8422 69.6995 28.2042 69.5248Z" fill="#6C562B"/>
<path d="M40.715 71.8594C40.6686 71.8713 40.2871 71.8018 39.7267 71.7343C38.1799 71.5487 35.2602 71.3611 34.2293 72.8172C34.2293 72.8172 33.6482 73.244 34.768 74.1681C35.8898 75.0912 36.7052 75.3622 36.6756 76.5086C36.6756 76.5086 38.1848 73.1894 44.0765 74.6326C49.9682 76.0778 50.6373 73.5358 49.4394 72.8142C48.2435 72.0916 45.8625 73.0991 45.8625 73.0991C45.8625 73.0991 44.9522 70.8698 40.715 71.8594Z" fill="#6C562B"/>
<path d="M44.1536 69.9834C44.1536 69.9834 42.8687 68.4469 41.1104 68.8003C39.3521 69.1516 44.6438 71.5745 44.1536 69.9834Z" fill="#775E30"/>
<path d="M33.6936 75.8356C33.6936 75.8356 31.7663 74.3011 29.2489 75.0326C29.2489 75.0326 29.0335 77.52 28.4533 77.4793C27.8701 77.4426 26.944 73.8485 23.891 74.1453C20.8379 74.4381 19.4868 75.6967 20.746 76.7319C22.0061 77.7642 28.0164 79.0238 31.6635 78.7161C35.3096 78.4114 34.598 76.7984 33.6936 75.8356Z" fill="#6C562B"/>
<path d="M41.6925 75.7701C41.6925 75.7701 39.1653 75.4584 38.0207 76.9711C36.8792 78.4858 42.1373 78.1841 44.0132 77.2967C45.8902 76.4113 41.9782 75.791 41.6925 75.7701Z" fill="#6C562B"/>
<path d="M33.2637 64.1927C23.7773 64.1927 16.7638 66.8002 16.7638 66.8002C15.4107 67.5317 16.662 68.566 18.5616 68.566C19.4057 68.566 20.3773 68.3625 21.3034 67.8355C22.0733 67.4007 22.784 67.2538 23.4343 67.2538C24.0896 67.2538 24.6876 67.4037 25.2193 67.5516C25.7511 67.7005 26.2206 67.8494 26.6238 67.8494C26.9836 67.8494 27.2939 67.7313 27.5479 67.3868C28.0658 66.6871 29.0513 66.5005 29.9467 66.5005C30.9647 66.5005 31.8731 66.7387 31.8731 66.7387C31.8731 66.7387 32.0796 65.8285 34.8392 65.8285C34.9795 65.8285 35.1278 65.8305 35.282 65.8354C38.4596 65.9357 38.8638 67.4672 38.8638 67.4672C39.1208 66.4935 41.3911 66.5491 41.739 65.6856C42.0889 64.82 40.7684 64.7605 40.7684 64.7605C38.1601 64.3545 35.6348 64.1927 33.2637 64.1927Z" fill="#D09C5D"/>
<path d="M19.9661 70.6415C19.8871 70.4886 18.876 69.8474 17.003 70.569C15.129 71.2906 16.1777 72.2723 17.6108 72.044C19.044 71.8157 20.2379 71.1725 19.9661 70.6415Z" fill="#7C6232"/>
<path d="M27.2346 71.2291C27.2346 71.2291 25.9438 70.9809 26.1701 71.505C26.3945 72.0271 28.5254 71.4733 27.2346 71.2291Z" fill="#7C6232"/>
<path d="M37.0235 69.497C37.0235 69.497 36.5263 67.9238 34.9133 68.16C33.3013 68.3933 36.9503 70.4459 37.0235 69.497Z" fill="#7C6232"/>
<path d="M45.2576 73.0842C45.2576 73.0842 42.1897 71.4941 42.1887 73.0118C42.1857 74.5264 46.4081 74.179 45.2576 73.0842Z" fill="#7C6232"/>
<path d="M37.0225 77.7066C36.9553 77.7126 36.8881 77.7186 36.8199 77.7256C36.8515 77.7346 36.8861 77.7396 36.9227 77.7396C36.9434 77.7396 36.9632 77.7376 36.9849 77.7366C36.9938 77.7346 37.0047 77.7246 37.0225 77.7066Z" fill="#463618"/>
<path d="M53.133 74.7984C52.0883 79.5786 43.2591 83.4526 43.2591 83.4526C43.2591 83.4526 48.3245 81.7782 50.2983 80.5841C52.2731 79.388 52.8928 77.1776 52.8928 77.1776L53.133 74.7984Z" fill="#DE9225"/>
<path d="M18.7593 71.2172C18.7593 71.2172 17.3805 69.9268 15.8802 71.376C14.3808 72.8271 15.1478 74.1165 16.7243 73.9626C18.3017 73.8058 20.3407 72.4857 18.7593 71.2172Z" fill="#584521"/>
<path d="M18.8512 71.1973C18.2908 70.6871 17.4774 70.5402 16.7638 70.7457C15.7744 71.0296 14.3907 72.5383 15.2289 73.5656C15.896 74.3825 17.3667 73.9636 18.1485 73.6132C18.6526 73.385 19.1497 73.0286 19.3731 72.5075C19.5975 71.9884 19.2199 71.5159 18.8512 71.1973L18.6674 71.239C19.5115 71.9686 19.2377 72.7696 18.3887 73.3373C17.5753 73.8822 15.9405 74.3636 15.299 73.3631C14.7011 72.4281 16.0215 71.2082 16.7381 70.8698C17.3707 70.572 18.1653 70.7804 18.6674 71.239L18.8512 71.1973Z" fill="#403215"/>
<path d="M19.0756 71.7413C19.046 71.8475 18.9886 71.9934 18.8789 72.1482C18.9797 72.1542 19.0825 72.177 19.1794 72.2117C19.1863 72.0579 19.1527 71.9001 19.0756 71.7413Z" fill="#54401D"/>
<path d="M19.1112 71.5695C19.1112 71.5695 19.1062 71.637 19.0766 71.7423C19.1537 71.9001 19.1863 72.0579 19.1804 72.2137C19.2308 72.2316 19.2802 72.2534 19.3257 72.2782C19.3514 72.05 19.2881 71.8107 19.1112 71.5695Z" fill="#3D2E12"/>
<path d="M15.1537 72.7438C15.133 72.9542 15.1725 73.1646 15.299 73.3631C15.5698 73.785 16.0196 73.9448 16.5118 73.9448C16.9249 73.9448 17.3667 73.8306 17.7561 73.6698C17.596 73.4127 17.6395 73.111 17.7887 72.843C17.7116 72.8649 17.6296 72.8837 17.5446 72.9006C17.5446 72.9006 16.8537 73.2768 16.2232 73.2768C16.064 73.2768 15.9089 73.251 15.7695 73.1914C15.4077 73.0336 15.2071 72.9115 15.1537 72.7438Z" fill="#54401D"/>
<path d="M15.3346 72.0549C14.6981 73.1279 15.3119 73.9755 16.4732 73.9755C16.5543 73.9755 16.6393 73.9726 16.7243 73.9636C17.0682 73.9299 17.4339 73.8396 17.7789 73.7066C17.7709 73.6956 17.762 73.6837 17.7551 73.6698C17.3657 73.8306 16.9239 73.9448 16.5108 73.9448C16.0195 73.9448 15.5698 73.785 15.298 73.3631C15.1715 73.1646 15.132 72.9542 15.1527 72.7438C15.1033 72.5909 15.1735 72.3993 15.3573 72.1155L15.3346 72.0549Z" fill="#3D2E12"/>
<path d="M17.5239 71.0266C16.6333 71.0266 15.9306 71.9328 15.9306 71.9328C15.7922 72.1194 15.7369 72.2544 15.7369 72.3467C15.7369 72.4777 15.8505 72.5274 16.0136 72.5274C16.3378 72.5274 16.8508 72.3368 17.0494 72.2068C17.3272 72.0241 18.3353 71.7095 18.3333 71.3988C18.3333 71.2986 18.2276 71.2003 17.9647 71.106C17.8144 71.0514 17.6662 71.0266 17.5239 71.0266Z" fill="#654E21"/>
<path d="M19.4838 72.4678C19.4838 72.4678 18.785 71.7869 18.104 72.5691C17.427 73.3502 17.8283 74.0351 18.5824 73.9408C19.3355 73.8505 20.2784 73.1358 19.4838 72.4678Z" fill="#584521"/>
<path d="M19.5757 72.4519C19.3276 72.2207 18.9214 72.0807 18.5883 72.178C18.0012 72.3447 17.3301 73.1974 17.8273 73.7691C18.5063 74.5423 20.5977 73.4098 19.5757 72.4519L19.3909 72.4827C20.3338 73.3691 18.4233 74.4033 17.9281 73.6152C17.6612 73.1944 18.1198 72.6296 18.4213 72.3844C18.7228 72.1393 19.1319 72.2415 19.3909 72.4827L19.5757 72.4519Z" fill="#403215"/>
<path d="M46.9803 73.6837C46.9803 73.6837 45.6045 72.3964 44.1032 73.8455C42.6018 75.2957 43.3728 76.587 44.9473 76.4302C46.5247 76.2763 48.5617 74.9552 46.9803 73.6837Z" fill="#584521"/>
<path d="M47.0614 73.6817C46.5385 73.2063 45.7903 73.0217 45.1074 73.1596C44.0646 73.3711 42.5969 74.9592 43.4588 76.0143C44.1378 76.8431 45.5778 76.4599 46.3745 76.1016C46.8785 75.8753 47.3698 75.521 47.5931 75.0009C47.8155 74.4788 47.4281 73.9994 47.0614 73.6817C47.0199 73.648 46.8182 73.6182 46.9003 73.6897C48.9146 75.4306 44.3048 77.4763 43.4706 75.7642C43.0328 74.8639 44.1516 73.8098 44.8257 73.4266C45.479 73.0524 46.3517 73.1904 46.9003 73.6897C46.9408 73.7244 47.1424 73.7572 47.0614 73.6817Z" fill="#403215"/>
<path d="M46.0018 75.3145C45.9277 75.3354 45.8486 75.3532 45.7666 75.3691C45.7666 75.3691 45.0748 75.7453 44.4442 75.7453C44.3957 75.7453 44.3473 75.7423 44.2999 75.7384C44.1032 75.8068 43.8699 75.8733 43.5873 75.9498C43.8413 76.2724 44.2663 76.4093 44.7427 76.4093C45.143 76.4093 45.5798 76.3121 45.9821 76.1483C45.7824 75.8962 45.8378 75.5875 46.0018 75.3145ZM47.3035 74.188C47.2759 74.2951 47.2185 74.45 47.1019 74.6138C47.2047 74.6237 47.3045 74.6485 47.4034 74.6862C47.4152 74.5234 47.3856 74.3557 47.3035 74.188Z" fill="#54401D"/>
<path d="M43.5863 75.9498C43.5616 75.9577 43.5368 75.9647 43.5112 75.9706C43.7444 76.2664 44.1605 76.4431 44.6923 76.4431C44.7743 76.4431 44.8593 76.4391 44.9473 76.4302C45.2912 76.3964 45.6579 76.3061 46.0038 76.1741C46.0038 76.1741 46.0028 76.1721 46.0009 76.1711C45.993 76.1632 45.987 76.1552 45.9801 76.1483C45.5778 76.3121 45.141 76.4093 44.7407 76.4093C44.2653 76.4093 43.8403 76.2724 43.5863 75.9498ZM47.3312 74.0401C47.3312 74.0401 47.3273 74.0976 47.3035 74.1879C47.3856 74.3557 47.4152 74.5234 47.4034 74.6862C47.4528 74.7051 47.5002 74.7269 47.5467 74.7517C47.5724 74.5224 47.5121 74.2822 47.3312 74.0401Z" fill="#3D2E12"/>
<path d="M45.7468 73.4951C45.5986 73.4951 45.4543 73.5209 45.3179 73.5636C45.6935 73.7413 45.8872 73.9934 45.6658 74.4014C45.645 74.4381 45.6263 74.4738 45.6065 74.5085C46.0058 74.3279 46.5553 74.0966 46.5534 73.8664C46.5524 73.7661 46.4496 73.6688 46.1857 73.5725C46.0364 73.5189 45.8872 73.4951 45.7468 73.4951Z" fill="#654E21"/>
<path d="M47.7038 74.9363C47.7038 74.9363 47.006 74.2535 46.326 75.0376C45.647 75.8187 46.0523 76.5036 46.8044 76.4113C47.5575 76.318 48.4995 75.6034 47.7038 74.9363Z" fill="#584521"/>
<path d="M47.7977 74.9304C47.5556 74.7031 47.1444 74.5433 46.8133 74.6376C46.3083 74.7825 45.5245 75.6272 46.0018 76.1711C46.7303 77.0059 48.8266 75.8942 47.7977 74.9304L47.6119 74.9453C48.5647 75.8386 46.6305 76.859 46.1501 76.0967C45.9366 75.7572 46.2213 75.3195 46.4259 75.0644C46.7313 74.6862 47.2581 74.6118 47.6119 74.9453L47.7977 74.9304Z" fill="#403215"/>
<path d="M11.1953 75.0962C11.1953 75.0962 11.2022 77.3334 11.4187 77.8406C11.6341 78.3458 12.2499 79.1975 12.2499 79.1975C17.7907 83.4487 26.4775 84.2943 32.5946 84.2943C36.5145 84.2943 39.3807 83.9469 39.6881 83.9281C40.4739 83.8814 40.1635 80.5355 40.1635 80.5355C37.0057 80.8521 34.177 80.991 31.6438 80.991C15.0529 80.991 11.1953 75.0962 11.1953 75.0962Z" fill="#FAB64F"/>
<path d="M26.2828 73.7115C26.2828 73.7115 24.5917 72.7388 24.7103 72.2475C24.826 71.771 23.459 70.7824 25.7145 70.7824C25.7807 70.7824 25.8509 70.7824 25.924 70.7854C28.4711 70.8469 29.324 71.8832 29.324 71.8832C27.0024 72.0073 26.2828 73.7115 26.2828 73.7115ZM26.2858 73.9269C26.5675 73.9269 26.8383 73.7264 26.8383 73.7264C27.5568 72.714 30.4024 73.1656 30.177 72.1194C29.9517 71.0752 25.8064 69.7571 25.8064 69.7571C25.9715 69.7452 26.1356 69.7402 26.2947 69.7402C30.3361 69.7402 32.4038 73.106 32.4038 73.106C33.1995 71.5368 35.5419 71.1219 36.6064 71.1219C37.2449 71.1219 37.4228 71.2698 36.5263 71.4097C34.1384 71.777 33.2795 73.7691 33.2795 73.7691C35.1248 74.3061 36.5105 76.5582 35.8997 76.5582C35.7129 76.5582 35.3373 76.3458 34.7295 75.8068C33.4179 74.6445 31.3996 74.314 29.8647 74.314C28.3703 74.314 27.3364 74.6257 27.8622 74.7895C28.9307 75.121 28.5511 77.1021 28.5511 77.1021C28.2398 75.1319 25.1798 73.8763 25.1798 73.8763C24.5077 73.7284 23.9167 73.6639 23.3918 73.6639C22.185 73.6639 21.3508 74.0043 20.7825 74.4192C20.401 74.7954 20.0215 75.2768 19.6587 75.8833C19.6587 75.8833 19.8999 75.0614 20.7825 74.4192C21.7531 73.4624 22.7553 73.1686 23.6271 73.1686C24.9129 73.1686 25.9092 73.8078 26.0812 73.8862C26.1504 73.915 26.2186 73.9269 26.2858 73.9269ZM28.9109 68.7397C28.4197 68.7427 27.8998 68.7933 27.3661 68.8817C27.2583 68.9998 27.1536 69.1179 27.0567 69.2449L26.8828 69.2201C26.8027 69.1506 26.7207 69.0841 26.6386 69.0216C25.0533 69.363 23.4225 69.9437 22.1761 70.3725C21.6948 70.7626 21.5011 71.1149 22.0951 71.1239C23.3157 71.1417 24.5947 72.715 22.8601 72.715C22.7672 72.715 22.6673 72.709 22.5567 72.7001C22.4193 72.6892 22.2888 72.6832 22.1653 72.6832C20.3298 72.6832 19.9246 73.9031 18.8997 74.7815C18.7099 74.9453 18.4776 75.0773 18.2187 75.1746C18.4213 75.3512 18.6842 75.5259 19.0054 75.6986C19.6538 76.048 20.0926 76.2823 20.5028 76.4937C19.6993 75.512 21.0672 74.4172 23.89 74.1453C24.0115 74.1334 24.1282 74.1284 24.2428 74.1284C27.0152 74.1284 27.8919 77.4456 28.4523 77.4803C28.4563 77.4823 28.4602 77.4823 28.4661 77.4823C29.0374 77.4823 29.2479 75.0336 29.2479 75.0336C29.7332 74.8917 30.1958 74.8361 30.6277 74.8361C32.4364 74.8361 33.6936 75.8366 33.6936 75.8366C34.4438 76.6346 35.0596 77.8793 33.1757 78.456C33.6165 78.3697 34.0751 78.2565 34.5515 78.1453C35.2642 77.9756 36.0163 77.8089 36.8199 77.7265C36.0954 77.5488 36.982 75.3969 40.1349 74.7855C40.6706 74.6803 41.1796 74.6366 41.654 74.6366C42.252 74.6366 42.8005 74.7051 43.2848 74.8113C43.3234 74.7051 43.3718 74.5969 43.4301 74.4917C42.6434 74.3378 41.9446 74.2713 41.3209 74.2713C37.6936 74.2713 36.6746 76.5106 36.6746 76.5106C36.7042 75.3642 35.8888 75.0922 34.767 74.1701C33.6472 73.245 34.2284 72.8192 34.2284 72.8192C34.9123 71.8534 36.4255 71.6112 37.8191 71.6112C38.5268 71.6112 39.2028 71.6738 39.7257 71.7363C40.2466 71.7988 40.6132 71.8623 40.6992 71.8623C40.7052 71.8623 40.7111 71.8623 40.7141 71.8614C41.0135 71.7919 41.2952 71.7373 41.5631 71.6976C40.1952 71.2569 38.0672 70.8728 37.7835 70.1392C37.7341 70.0082 37.658 69.904 37.5641 69.8176C37.5246 70.0291 37.4366 70.1541 37.4366 70.1541C37.4366 70.1541 37.4257 70.1541 37.4079 70.1541C37.0156 70.1541 32.6904 70.1998 32.2575 72.173C32.2575 72.173 30.8402 69.7025 28.2022 69.5278C28.0886 69.5179 28.3831 69.1228 28.9109 68.7397Z" fill="#3C2C13"/>
<path d="M27.0458 68.9382C26.944 68.9582 26.8403 68.9782 26.7365 69.0012C26.7394 69.0032 26.7414 69.0052 26.7434 69.0062C26.776 69.0252 26.8086 69.0352 26.8442 69.0352C26.9025 69.0352 26.9678 69.0062 27.0458 68.9382Z" fill="#875723"/>
<path d="M23.0182 77.6888C23.0548 77.7066 23.0933 77.7225 23.1329 77.7424C23.8554 78.0729 24.7746 78.2307 25.7471 78.3091C24.7587 78.1324 23.8198 77.919 23.0182 77.6888ZM26.7365 69.0008C26.7375 69.0037 26.7404 69.0047 26.7434 69.0057C26.7414 69.0047 26.7394 69.0027 26.7365 69.0008Z" fill="#3C2C13"/>
<path d="M27.3651 68.8817C27.2603 68.9015 27.1526 68.9194 27.0458 68.9392C26.9678 69.0057 26.9025 69.0355 26.8442 69.0355C26.8096 69.0355 26.777 69.0246 26.7434 69.0067C26.7404 69.0057 26.7365 69.0047 26.7325 69.0018C26.7029 69.0087 26.6703 69.0156 26.6376 69.0226C26.7197 69.0851 26.8017 69.1516 26.8818 69.2211L27.0557 69.2459C27.1526 69.1179 27.2574 68.9998 27.3651 68.8817Z" fill="#2B200C"/>
<path d="M22.1761 70.3725C21.8253 70.4946 21.503 70.6038 21.2233 70.6921C19.2011 71.3303 21.2461 71.7512 19.722 72.6177C20.2023 73.3085 19.2476 74.0232 18.4727 74.0232C18.2553 74.0232 18.0507 73.9686 17.8984 73.8386C17.594 74.2912 17.7186 74.7388 18.2197 75.1756C18.4786 75.0773 18.7099 74.9463 18.9007 74.7825C19.9256 73.9041 20.3308 72.6842 22.1662 72.6842C22.2898 72.6842 22.4203 72.6902 22.5576 72.7011C22.6673 72.71 22.7682 72.716 22.8611 72.716C24.5957 72.716 23.3167 71.1427 22.0961 71.1249C21.5011 71.1149 21.6948 70.7616 22.1761 70.3725Z" fill="#493719"/>
<path d="M26.7454 71.7224C26.4785 71.7224 26.2373 71.6618 26.1701 71.505C26.0545 71.236 26.3401 71.1695 26.6446 71.1695C26.9312 71.1695 27.2346 71.2291 27.2346 71.2291C28.136 71.3998 27.368 71.7224 26.7454 71.7224ZM25.7145 70.7834C23.46 70.7834 24.8269 71.771 24.7103 72.2485C24.5917 72.7388 26.2828 73.7125 26.2828 73.7125C26.2828 73.7125 27.0024 72.0083 29.324 71.8852C29.324 71.8852 28.4711 70.8479 25.924 70.7874C25.8509 70.7834 25.7817 70.7834 25.7145 70.7834Z" fill="#493719"/>
<path d="M28.9366 68.7397C28.9277 68.7397 28.9198 68.7397 28.9109 68.7397C28.3841 69.1228 28.0886 69.5179 28.2042 69.5248C30.8422 69.6995 32.2595 72.1701 32.2595 72.1701C32.6914 70.1968 37.0175 70.1512 37.4099 70.1512C37.4287 70.1512 37.4386 70.1512 37.4386 70.1512C37.4386 70.1512 37.5265 70.0261 37.5661 69.8147C37.4218 69.6787 37.229 69.5923 37.0175 69.5397C36.9869 69.6846 36.8554 69.7452 36.6696 69.7452C36.4364 69.7452 36.1152 69.6509 35.791 69.507C35.3828 69.5576 35.0764 69.642 35.0764 69.642C33.9042 69.2697 32.982 69.8256 30.4577 68.9601C30.008 68.8052 29.4911 68.7397 28.9366 68.7397Z" fill="#493719"/>
<path d="M37.8201 71.6092C36.4265 71.6092 34.9133 71.8514 34.2293 72.8172C34.2293 72.8172 33.6482 73.244 34.768 74.1681C35.8898 75.0912 36.7052 75.3622 36.6756 76.5086C36.6756 76.5086 37.6946 74.2693 41.3219 74.2693C41.9456 74.2693 42.6443 74.3349 43.4311 74.4897C43.522 74.3269 43.6367 74.1681 43.7652 74.0212C42.9666 73.9686 42.1877 73.6629 42.1877 73.0118C42.1887 72.6127 42.3973 72.4291 42.7096 72.3735C42.6493 72.1105 42.1857 71.8971 41.5641 71.6946C41.2962 71.7343 41.0135 71.7889 40.715 71.8584C40.7121 71.8594 40.7061 71.8594 40.7002 71.8594C40.6142 71.8594 40.2475 71.7968 39.7267 71.7333C39.2048 71.6708 38.5278 71.6092 37.8201 71.6092Z" fill="#493719"/>
<path d="M24.2448 74.1284C24.1301 74.1284 24.0135 74.1343 23.8919 74.1453C21.0701 74.4182 19.7022 75.512 20.5048 76.4937C21.167 76.8322 21.7541 77.1051 23.0182 77.6878C23.8208 77.918 24.7597 78.1314 25.7481 78.3081C27.6715 78.46 29.8074 78.2962 31.0754 78.5424C31.3136 78.59 31.5588 78.6089 31.8088 78.6089C32.2457 78.6089 32.7013 78.5463 33.1767 78.454C35.0606 77.8773 34.4448 76.6327 33.6946 75.8346C33.6946 75.8346 32.4384 74.8341 30.6287 74.8341C30.1968 74.8341 29.7352 74.8907 29.2489 75.0316C29.2489 75.0316 29.0384 77.4803 28.4671 77.4803C28.4612 77.4803 28.4572 77.4803 28.4533 77.4783C27.8939 77.4456 27.0172 74.1284 24.2448 74.1284Z" fill="#493719"/>
<path d="M26.6456 71.1695C26.3401 71.1695 26.0545 71.235 26.1711 71.505C26.2383 71.6618 26.4795 71.7224 26.7464 71.7224C27.369 71.7224 28.137 71.3998 27.2356 71.2291C27.2356 71.2291 26.9322 71.1695 26.6456 71.1695Z" fill="#543F1C"/>
<path d="M36.3672 69.4693C36.1666 69.4693 35.9689 69.4851 35.791 69.506C36.1152 69.6509 36.4354 69.7442 36.6696 69.7442C36.8554 69.7442 36.9859 69.6846 37.0175 69.5387C36.812 69.4881 36.5876 69.4693 36.3672 69.4693Z" fill="#543F1C"/>
<path d="M42.7096 72.3735C42.3973 72.4291 42.1887 72.6117 42.1877 73.0117C42.1877 73.6629 42.9666 73.9696 43.7652 74.0212C44.0162 73.7363 44.3216 73.4941 44.628 73.3363C43.7197 73.111 42.6098 72.9909 42.7116 72.4837C42.7175 72.446 42.7165 72.4093 42.7096 72.3735Z" fill="#543F1C"/>
<path d="M20.7835 74.4182C19.9009 75.0604 19.6597 75.8823 19.6597 75.8823C20.0225 75.2758 20.402 74.7944 20.7835 74.4182ZM26.2947 69.7402C26.1356 69.7402 25.9715 69.7452 25.8064 69.7571C25.8064 69.7571 29.9517 71.0752 30.177 72.1194C30.4024 73.1656 27.5568 72.715 26.8383 73.7264C26.8383 73.7264 26.5685 73.9269 26.2858 73.9269C26.2186 73.9269 26.1494 73.915 26.0822 73.8852C25.9092 73.8068 24.9129 73.1676 23.628 73.1676C22.7563 73.1676 21.7541 73.4614 20.7835 74.4182C21.3508 74.0033 22.186 73.6629 23.3928 73.6629C23.9167 73.6629 24.5087 73.7264 25.1808 73.8753C25.1808 73.8753 28.2408 75.1309 28.5521 77.1012C28.5521 77.1012 28.9317 75.12 27.8632 74.7885C27.3384 74.6247 28.3722 74.313 29.8657 74.313C31.4006 74.313 33.4189 74.6435 34.7304 75.8058C35.3373 76.3448 35.7129 76.5572 35.9007 76.5572C36.5105 76.5572 35.1258 74.3051 33.2805 73.7681C33.2805 73.7681 34.1394 71.776 36.5273 71.4087C37.4238 71.2688 37.2468 71.1209 36.6074 71.1209C35.5429 71.1209 33.2004 71.5358 32.4048 73.1051C32.4038 73.1051 30.3361 69.7402 26.2947 69.7402Z" fill="#2F230E"/>
<path d="M42.25 75.3711C38.4438 75.3711 37.2795 77.4456 37.0225 77.7076C37.2706 77.6878 37.5216 77.6768 37.7786 77.6768C37.8418 77.6768 37.9061 77.6778 37.9703 77.6798C37.9921 77.6798 38.0138 77.6808 38.0356 77.6808C37.8211 77.5131 37.7895 77.2798 38.0207 76.9721C38.8292 75.9011 40.3325 75.7443 41.142 75.7443C41.4761 75.7443 41.6925 75.7711 41.6925 75.7711C41.8062 75.779 42.503 75.8833 43.1771 76.0629C43.269 76.0371 43.357 76.0133 43.441 75.9905C43.2996 75.8098 43.2265 75.6133 43.2057 75.4118C42.8707 75.383 42.5514 75.3711 42.25 75.3711Z" fill="#3C2C13"/>
<path d="M41.143 75.7433C40.3335 75.7433 38.8302 75.9001 38.0217 76.9711C37.7904 77.2788 37.8221 77.5121 38.0365 77.6798C38.0978 77.6798 38.1561 77.6818 38.2145 77.6818C40.7467 77.6818 40.8603 76.7339 42.7125 76.1939C42.8786 76.1453 43.0338 76.1026 43.1791 76.0619C42.505 75.8823 41.8082 75.7781 41.6945 75.7701C41.6925 75.7701 41.4761 75.7433 41.143 75.7433Z" fill="#493719"/>
<path d="M41.654 74.6356C41.1796 74.6356 40.6706 74.6793 40.1349 74.7845C36.982 75.3959 36.0944 77.5478 36.8199 77.7255C36.8881 77.7185 36.9553 77.7126 37.0225 77.7066C37.2795 77.4446 38.4438 75.3701 42.25 75.3701C42.5524 75.3701 42.8707 75.383 43.2057 75.4098C43.185 75.2113 43.2166 75.0088 43.2858 74.8083C42.8005 74.7041 42.253 74.6356 41.654 74.6356Z" fill="#2F230E"/>
<path d="M19.5678 72.7021C19.5075 72.7328 19.4433 72.7626 19.3761 72.7944C18.7119 73.1001 18.2582 73.4038 18.0002 73.7065C18.1248 73.8396 18.3037 73.8941 18.4974 73.8941C19.123 73.8941 19.9058 73.3016 19.5678 72.7021Z" fill="#3C2C13"/>
<path d="M19.723 72.6177C19.6736 72.6445 19.6232 72.6743 19.5688 72.7021C19.9068 73.3016 19.124 73.8942 18.4984 73.8942C18.3047 73.8942 18.1258 73.8386 18.0012 73.7066C17.9617 73.7512 17.9291 73.7949 17.8994 73.8386C18.0516 73.9696 18.2562 74.0232 18.4737 74.0232C19.2476 74.0232 20.2033 73.3095 19.723 72.6177Z" fill="#2B200C"/>
<path d="M44.8721 73.4008C44.8563 73.4088 44.8415 73.4177 44.8257 73.4257C44.286 73.7343 43.4538 74.4758 43.3787 75.2212C43.436 75.384 43.6367 75.5071 43.9895 75.6599C44.0864 75.7016 44.1902 75.7254 44.2989 75.7374C44.887 75.5269 45.1805 75.2699 45.6065 74.5086C45.4652 74.5701 45.3426 74.6267 45.2695 74.6743C45.0728 74.8033 44.5578 74.9969 44.2356 74.9969C44.0716 74.9969 43.9569 74.9473 43.9569 74.8163C43.9569 74.722 44.0142 74.589 44.1516 74.4024C44.1516 74.4024 44.6389 73.7731 45.3179 73.5626C45.1884 73.5011 45.0362 73.4475 44.8721 73.4008Z" fill="#3C2C13"/>
<path d="M44.628 73.3363C44.3216 73.4941 44.0162 73.7363 43.7652 74.0212C43.6367 74.1671 43.522 74.3269 43.4311 74.4897C43.3718 74.5949 43.3243 74.7031 43.2858 74.8093C43.2166 75.0088 43.185 75.2113 43.2057 75.4108C43.2265 75.6123 43.3006 75.8088 43.441 75.9895C43.4637 75.9815 43.4874 75.9766 43.5111 75.9706C43.2334 75.6202 43.2107 75.1051 43.5576 74.5244L43.5803 74.585C43.3935 74.8758 43.3214 75.0664 43.3787 75.2222C43.4538 74.4758 44.286 73.7353 44.8257 73.4266C44.8415 73.4187 44.8563 73.4098 44.8721 73.4018C44.7931 73.378 44.712 73.3572 44.628 73.3363Z" fill="#2B200C"/>
<path d="M43.3787 75.2212C43.3589 75.4048 43.3846 75.5865 43.4706 75.7632C43.5042 75.8307 43.5428 75.8942 43.5863 75.9498C43.8689 75.8733 44.1012 75.8068 44.2989 75.7384C44.1911 75.7264 44.0864 75.7026 43.9895 75.6609C43.6367 75.5071 43.436 75.384 43.3787 75.2212Z" fill="#392911"/>
<path d="M43.5576 74.5244C43.2107 75.1051 43.2334 75.6202 43.5112 75.9706C43.5369 75.9637 43.5616 75.9567 43.5863 75.9498C43.5428 75.8942 43.5042 75.8316 43.4706 75.7632C43.3846 75.5865 43.3599 75.4048 43.3787 75.2212C43.3214 75.0664 43.3935 74.8748 43.5803 74.584L43.5576 74.5244Z" fill="#291D0A"/>
<path d="M45.3179 73.5636C44.6389 73.774 44.1516 74.4033 44.1516 74.4033C44.0132 74.5899 43.9569 74.7229 43.9569 74.8172C43.9569 74.9483 44.0716 74.9979 44.2356 74.9979C44.5578 74.9979 45.0728 74.8043 45.2695 74.6753C45.3426 74.6277 45.4652 74.5711 45.6065 74.5095C45.6263 74.4748 45.6451 74.4391 45.6658 74.4023C45.8872 73.9934 45.6935 73.7413 45.3179 73.5636Z" fill="#453213"/>
<path d="M32.1488 27.3752C32.0826 28.2338 32.0431 29.135 32.0431 30.0869C32.0431 30.0869 32.1014 29.0139 32.1488 27.3752Z" fill="#93AF2A"/>
<path d="M31.7129 38.6866C31.3502 36.761 30.8906 36.6786 30.5042 37.1263C31.028 41.166 31.4935 46.1388 31.4935 51.0292C31.4935 62.158 31.3838 74.1691 31.3838 74.1691L31.9936 74.1979C32.9079 63.1813 32.3999 42.3273 31.7129 38.6866Z" fill="#B4C04F"/>
<path d="M37.5285 13.8891C37.5285 13.8891 32.9029 17.7036 32.1488 27.3752C32.1014 29.013 32.0431 30.0869 32.0431 30.0869C32.0431 29.135 32.0826 28.2338 32.1488 27.3752C32.2852 22.731 32.3188 13.5248 30.6149 11.2439L30.177 11.6846C30.177 11.6846 31.9324 16.313 31.1654 29.8676C31.1654 29.8676 31.0547 32.9515 30.6149 30.4184C30.177 27.8834 28.7498 26.2308 28.7498 26.2308L29.0789 28.3231C29.0789 28.3231 29.839 31.9639 30.5042 37.1243C30.8906 36.6766 31.3492 36.761 31.7129 38.6826C32.3989 42.3254 32.9079 63.1823 31.9936 74.1959L33.6877 74.2793L33.579 52.6779C33.579 52.6779 33.6877 47.1681 33.2489 42.099C32.811 37.029 31.0537 20.9413 38.2975 14.3258C38.2985 14.3288 38.6256 13.0067 37.5285 13.8891Z" fill="#93AF2A"/>
<path d="M37.2429 12.164C37.0462 12.8062 37.3921 13.2568 37.3921 13.2568L38.6157 14.4092C40.9424 15.375 42.843 13.5477 43.9203 11.8712C41.8477 12.5233 39.4845 12.5839 37.2429 12.164Z" fill="#FFF465"/>
<path d="M44.8345 9.98532C44.7815 10.0528 44.7525 10.1332 44.7525 10.2355C44.7865 10.1441 44.8115 10.0608 44.8345 9.98532Z" fill="#FFF465"/>
<path d="M44.882 9.61907C44.718 9.0404 44.3068 8.79324 44.3068 7.96544C44.3068 7.13962 43.0713 8.71086 39.615 10.1977C39.1485 10.3982 38.7778 10.5997 38.4695 10.7973C40.4393 11.1794 42.6019 10.7466 44.5628 10.7C44.6399 10.5302 44.7031 10.3754 44.7525 10.2345C44.7525 10.1322 44.7812 10.0518 44.8336 9.98433C44.88 9.8146 44.8988 9.68259 44.882 9.61907Z" fill="#FFF465"/>
<path d="M38.4685 10.7972C37.7054 11.2886 37.3645 11.764 37.2429 12.164C39.4845 12.5839 41.8477 12.5233 43.9213 11.8712C44.1882 11.4543 44.4007 11.0533 44.5618 10.7C42.6009 10.7466 40.4393 11.1794 38.4685 10.7972Z" fill="#FFDF63"/>
<path d="M38.4912 14.713L38.4339 14.6891L37.1658 13.4961L37.3921 13.2559L37.1332 13.4583C37.1104 13.4276 36.8505 13.096 36.8475 12.5571C36.8456 11.7789 37.4178 10.7695 39.4825 9.89202C40.8613 9.29846 41.8784 8.69399 42.6068 8.23343C43.3678 7.77685 43.6979 7.45128 44.1615 7.40364C44.2841 7.39371 44.4709 7.47709 44.548 7.61208C44.625 7.74211 44.633 7.85327 44.6339 7.96345C44.627 8.65726 44.968 8.80416 45.1993 9.53073L45.2161 9.67961C45.1934 10.2394 44.6764 11.4335 43.7741 12.6553C42.8717 13.8444 41.5621 14.9948 39.9085 15.0018C39.4509 15.0038 38.9735 14.9135 38.4912 14.713ZM39.9085 14.3447C41.225 14.3517 42.4052 13.376 43.2492 12.2573C44.0824 11.1834 44.5697 9.89699 44.5598 9.68755C44.459 9.29152 44.0449 8.95801 43.9836 8.15006L43.8403 8.23244C43.6228 8.36346 43.3273 8.55999 42.9557 8.79324C42.2134 9.26372 41.1618 9.88904 39.7425 10.4985C37.7726 11.3551 37.5078 12.1382 37.5058 12.5561C37.5058 12.7099 37.5443 12.841 37.5839 12.9293L37.6392 13.0325L38.7966 14.1244C39.1841 14.2762 39.5547 14.3447 39.9085 14.3447Z" fill="#F3D244"/>
<path d="M31.2197 21.9885C31.2197 21.9885 32.81 17.4147 28.4207 16.037C28.4207 16.037 27.8178 15.8723 28.4207 16.5343C29.0246 17.1954 27.9265 21.9885 31.2197 21.9885Z" fill="#B9CB33"/>
<path d="M28.815 20.5225C28.475 19.5885 28.4543 18.4887 28.4039 17.6798C28.3841 17.1497 28.2942 16.7239 28.2398 16.7011C28.0303 16.4599 27.9215 16.3318 27.9047 16.1105C27.8978 15.9944 27.9887 15.8554 28.0777 15.8197C28.1647 15.774 28.2309 15.772 28.2872 15.77C28.3979 15.772 28.475 15.7978 28.4948 15.8008C31.1515 16.6227 31.7624 18.6545 31.7456 20.1413C31.7456 21.2252 31.456 22.054 31.452 22.0689L31.3947 22.2367H31.2197H31.1851C29.8716 22.2367 29.1382 21.4495 28.815 20.5225ZM28.6045 16.3666C28.8496 16.6743 28.8496 17.0941 28.8961 17.649C28.9297 18.1979 28.9544 18.848 29.0562 19.4674C29.2766 20.6724 29.6927 21.6431 31.0349 21.7344C31.112 21.4525 31.2533 20.855 31.2533 20.1413C31.2375 18.8093 30.8086 17.1666 28.5966 16.3586L28.6045 16.3666Z" fill="#86A33D"/>
<path d="M31.0527 74.4837L31.0547 74.1651C31.0547 74.1443 31.1634 62.154 31.1634 51.0263C31.1634 45.4837 30.5635 39.8211 29.9596 35.5481C29.3586 31.273 28.7587 28.3995 28.7567 28.3916L29.0769 28.3241L28.7537 28.3757L28.2487 25.1499L28.9979 26.0144C29.0176 26.0372 30.2936 27.5132 30.8343 29.8497C30.9707 27.4189 31.029 25.2799 31.026 23.4059C31.029 19.117 30.7335 16.2058 30.4409 14.3695C30.1483 12.5333 29.8676 11.8047 29.8676 11.8017L29.7915 11.6022L30.6465 10.7397L30.8758 11.0444C32.22 12.9065 32.4858 18.1701 32.5274 22.7558C34.0742 16.3279 37.2785 13.6608 37.321 13.632C37.6224 13.3968 37.8359 13.2638 38.1097 13.2539C38.3202 13.242 38.5278 13.4008 38.589 13.5536C38.6602 13.7025 38.6691 13.8365 38.6701 13.9586C38.6691 14.1948 38.6167 14.3953 38.6147 14.4092L38.591 14.5055L38.5169 14.574C34.085 18.5949 33.0631 26.4442 33.07 32.9773C33.07 36.8166 33.412 40.1923 33.576 42.0712C33.8676 45.4708 33.917 49.054 33.917 51.0679C33.917 52.0665 33.9042 52.6779 33.9042 52.6779L34.0188 74.6257L31.0527 74.4837ZM33.3576 73.9319L33.2499 52.6729C33.2499 52.6729 33.2617 52.0694 33.2607 51.0689C33.2617 49.0669 33.2133 45.4936 32.9207 42.1308C32.7596 40.2568 32.4147 36.8543 32.4147 32.9773C32.4226 26.4243 33.3724 18.4827 37.994 14.1631L38.0148 13.9586V13.9526C37.9486 13.9884 37.8557 14.0499 37.7381 14.1432C37.739 14.1482 37.4228 14.4013 36.9236 14.9909C36.4215 15.5815 35.7514 16.4916 35.0774 17.7621C33.9556 19.8793 32.8278 22.9999 32.4809 27.3246C32.4335 29.003 32.3732 30.1038 32.3732 30.1058L31.7159 30.0869V30.0671C31.7159 29.0894 31.7554 28.1593 31.8236 27.2779C31.8543 26.2208 31.879 24.9325 31.877 23.5459C31.8978 19.1458 31.5874 13.6807 30.5615 11.766L30.5556 11.772C30.8106 12.5968 31.6892 15.9705 31.6892 23.4049C31.6892 25.2938 31.6299 27.4437 31.4955 29.8785C31.4846 29.9093 31.4767 31.0199 31.284 31.4884C31.2464 31.551 31.198 31.7177 30.9213 31.7465C30.4982 31.6492 30.5684 31.4547 30.4755 31.2939C30.4152 31.1083 30.3589 30.8512 30.2926 30.474C30.095 29.3345 29.6897 28.3757 29.3122 27.6789L29.4031 28.2596C29.4506 28.4859 31.8236 39.9551 31.8236 51.0263C31.8236 61.0949 31.7357 71.8832 31.7169 73.8535L33.3576 73.9319Z" fill="#86A33D"/>
<path d="M39.9441 19.0684C32.5699 19.245 31.0972 25.8367 30.8026 28.468C30.9756 28.2318 31.1634 27.9985 31.3848 27.7762C31.3848 27.7762 34.5674 20.8332 44.2238 24.1404C50.3102 26.2238 53.474 34.481 54.2953 41.434C54.5414 41.8995 54.6481 42.2122 54.6481 42.2122C55.087 26.2318 49.1617 18.848 39.9441 19.0684Z" fill="#CCD84E"/>
<path d="M54.0047 41.5869L53.976 41.5323L53.9681 41.4707C53.1666 34.5714 49.9801 26.4253 44.116 24.4521C42.2875 23.8238 40.7061 23.5746 39.3452 23.5746C35.0675 23.5776 32.9029 26.0283 32.0717 27.2521C31.7969 27.6591 31.6843 27.9132 31.6843 27.9132L31.6586 27.9678L31.6171 28.0075C31.4105 28.2159 31.2316 28.4373 31.0656 28.6626L30.3332 29.6651L30.4745 28.4293C30.7532 25.7752 32.3069 18.9294 39.9322 18.7378C40.0677 18.7339 40.205 18.7309 40.3395 18.7309C44.7624 18.7249 48.4738 20.5066 51.0257 24.1434C53.5817 27.7752 55 33.2195 55 40.5754C55 41.1134 54.9911 41.6613 54.9792 42.2191L54.3388 42.3184C54.3368 42.3184 54.2399 42.0335 54.0047 41.5869ZM44.3295 23.8248C50.0492 25.8129 53.1676 32.877 54.3249 39.4012C54.0027 25.6511 48.5578 19.4088 40.3395 19.3929C40.21 19.3929 40.0825 19.3949 39.955 19.3989L39.9431 19.0703L39.95 19.3989C33.8666 19.5388 31.963 24.1831 31.3463 27.1578C32.0826 25.9608 34.4418 22.9186 39.3452 22.9146C40.7872 22.9146 42.4417 23.1786 44.3295 23.8248Z" fill="#9FB73B"/>
<path d="M44.2238 24.1394C34.5664 20.8322 31.3848 27.7752 31.3848 27.7752C31.1634 27.9985 30.9756 28.2308 30.8026 28.467C30.7285 29.1231 30.7265 29.537 30.7265 29.537C31.2771 38.4632 38.847 38.3551 45.7597 37.3615C51.0791 36.5982 53.4749 39.8796 54.2963 41.433C53.474 34.48 50.3102 26.2228 44.2238 24.1394Z" fill="#CCD84E"/>
<path d="M47.2927 37.5799C46.8261 37.5799 46.331 37.6136 45.8052 37.689C44.0182 37.9431 42.1857 38.1426 40.4264 38.1426C35.3709 38.1883 30.7819 36.3739 30.3974 29.537C30.3974 29.5271 30.3984 29.1003 30.4745 28.4283L30.4844 28.34L30.5358 28.2705C30.7068 28.0402 30.8916 27.809 31.109 27.5827C31.365 27.0655 33.6215 22.9195 39.3461 22.9146C40.7882 22.9146 42.4427 23.1796 44.3305 23.8248L44.2248 24.1394L44.118 24.4511C42.2895 23.8238 40.7091 23.5756 39.3471 23.5756C35.0695 23.5766 32.9049 26.0283 32.0737 27.2511C31.7989 27.6581 31.6843 27.9112 31.6843 27.9112L31.6606 27.9668L31.619 28.0045C31.4342 28.1941 31.2711 28.3906 31.1189 28.5931C31.0616 29.1539 31.0567 29.5023 31.0567 29.5192C31.4886 35.9669 35.4658 37.4369 40.4284 37.4816C42.1373 37.4816 43.9431 37.287 45.7142 37.0339C46.2707 36.9555 46.7965 36.9188 47.2956 36.9188C50.6255 36.9168 52.6487 38.5734 53.7665 40.0067C52.7089 33.4637 49.5728 26.2873 44.118 24.4511L44.2248 24.1394L44.3305 23.8248C50.6423 26.0174 53.7833 34.3887 54.6234 41.3953L54.0067 41.5859C53.2812 40.2429 51.3875 37.5809 47.2927 37.5799Z" fill="#9FB73B"/>
<path d="M37.9723 24.7101C37.0847 24.7101 36.3879 24.8213 35.6645 25.1568C33.4851 26.1712 31.2207 28.1325 31.96 31.274C32.4997 33.5589 35.2454 35.7287 37.3101 36.2329C38.4329 36.5059 39.7998 36.6766 41.1084 36.6766C41.8873 36.6766 42.6443 36.6171 43.3184 36.4801C44.6458 36.2131 45.8061 36.1148 46.8123 36.1148C48.3235 36.1148 49.4868 36.3411 50.3388 36.5654C51.1898 36.7908 51.7324 37.0171 52.0023 37.0171C52.2286 37.0171 52.2632 36.8563 52.1248 36.3977C51.5476 34.4969 50.4782 32.2656 49.6549 31.6046L49.4641 31.5291C49.1093 31.5291 48.712 32.2448 47.9746 32.9604C47.2393 33.6761 46.161 34.3877 44.4412 34.3877C44.1664 34.3877 43.8759 34.3709 43.5655 34.3312C41.4296 34.0582 38.8935 33.547 37.1559 32.1902C34.1858 29.8715 36.2733 26.2397 38.9547 24.7429C38.6009 24.7231 38.2747 24.7101 37.9723 24.7101Z" fill="#C1D047"/>
<path d="M40.8247 20.186C37.9664 20.186 35.9106 21.2729 35.9106 21.2729C34.3529 22.4739 34.1987 22.8104 34.512 22.8104C34.9133 22.8104 36.0746 22.2645 36.0746 22.2645C37.6165 21.793 39.0259 21.5925 40.3118 21.5925C44.03 21.5925 46.7145 23.2689 48.5182 24.9464C50.323 26.6238 51.2501 28.3003 51.4527 28.3003L51.4656 28.2973C51.8777 28.1325 50.067 24.992 50.067 24.992C46.9784 21.1677 43.5398 20.186 40.8247 20.186Z" fill="#C1CF41"/>
<path d="M27.4323 7.46418C24.7835 5.92173 21.0187 6.52918 18.6348 8.2771C15.8347 10.3307 13.6198 13.6102 9.90745 14.0112C8.88745 14.1224 5.69797 14.4062 4.25495 13.7908C6.85239 15.8117 14.1594 20.8619 19.3128 18.186C25.6779 14.8807 28.6411 10.3625 31.2731 14.44L31.2939 14.3189C31.195 13.3501 31.0003 12.434 30.8115 11.8613C30.2739 10.2374 28.9168 8.32872 27.4323 7.46418Z" fill="#CCD84E"/>
<path d="M4.05233 14.0519L4.38343 13.4881C4.98239 13.7472 6.05477 13.8464 7.09355 13.8435C8.23117 13.8435 9.34507 13.7402 9.87088 13.6817C13.3934 13.3184 15.5787 10.1302 18.4401 8.00911C19.9444 6.90835 21.9468 6.25126 23.9216 6.24729C25.2094 6.25027 26.4894 6.53315 27.5974 7.17833L27.4333 7.46319L27.2682 7.74905C26.2789 7.17435 25.1136 6.90834 23.9216 6.90834C22.0931 6.90735 20.2053 7.5297 18.8295 8.54312C16.0907 10.5302 13.8451 13.8971 9.94303 14.3387C9.40338 14.3983 8.27169 14.5025 7.09355 14.5035C6.61913 14.5005 6.1378 14.4857 5.68117 14.441C8.13727 16.181 12.2914 18.6306 15.9919 18.6197C17.1068 18.6197 18.1772 18.4023 19.1616 17.8932C23.7002 15.5586 26.4192 12.5442 28.8901 12.4906C29.5899 12.4856 30.2393 12.7665 30.8283 13.3501C30.7335 12.7963 30.6119 12.306 30.4992 11.9655C29.9942 10.4191 28.6529 8.54708 27.2682 7.74905L27.4333 7.46319L27.5974 7.17833C29.1817 8.10936 30.5516 10.0538 31.1229 11.7571C31.3235 12.3615 31.5202 13.2896 31.621 14.2852L31.624 14.3249L31.619 14.3695L31.5973 14.4966L31.45 15.3214L30.9974 14.6216C30.2749 13.5169 29.6265 13.1586 28.8901 13.1516C26.9658 13.096 24.054 16.0708 19.464 18.4808C18.3729 19.0455 17.1908 19.2818 15.9919 19.2818C11.2437 19.2679 6.1546 15.6767 4.05233 14.0519Z" fill="#9FB73B"/>
<path d="M21.2896 0.333542C8.68978 0.554886 11.729 13.9507 3.33477 13.0097L3.46623 13.1546C3.62535 13.2896 3.89221 13.509 4.25594 13.7918C5.69896 14.4072 8.88844 14.1234 9.90844 14.0122C13.6208 13.6112 15.8357 10.3317 18.6358 8.2781C21.0197 6.52918 24.7854 5.92272 27.4333 7.46518C28.9178 8.32971 30.2749 10.2384 30.8135 11.8633C31.0023 12.435 31.198 13.3511 31.2958 14.3209C31.5083 12.9759 33.2508 0.125102 21.2896 0.333542Z" fill="#CCD84E"/>
<path d="M4.12448 14.0966L4.08495 14.0787L4.05233 14.0519C3.68564 13.768 3.41681 13.5447 3.22012 13.376L3.08867 13.23L2.50849 12.5878L3.36739 12.6812C3.64117 12.7119 3.90012 12.7258 4.1482 12.7258C7.59861 12.7417 8.77181 9.82254 10.6408 6.6076C12.4743 3.43136 15.0677 0.096314 21.2787 0.00400471C21.3765 0.00301213 21.4764 3.28078e-05 21.5722 3.28078e-05C25.9843 -0.00890035 28.6114 1.80751 30.0594 4.1609C31.5123 6.50834 31.8296 9.34114 31.8325 11.4434C31.8306 12.9045 31.6754 14.0152 31.6171 14.3705L30.9657 14.3517C30.8718 13.4057 30.6781 12.5045 30.4972 11.9665C29.9932 10.4201 28.6519 8.54609 27.2672 7.74905C26.2779 7.17336 25.1126 6.90934 23.9196 6.90934C22.0931 6.90835 20.2053 7.53069 18.8285 8.54311C16.0878 10.5322 13.8432 13.899 9.94205 14.3407C9.4014 14.3983 8.27071 14.5025 7.09257 14.5025C6.01326 14.5005 4.9053 14.4241 4.12448 14.0966ZM7.09355 13.8425C8.23216 13.8425 9.34507 13.7382 9.87088 13.6817C13.3934 13.3194 15.5797 10.1302 18.4411 8.0101C19.9444 6.90834 21.9458 6.25027 23.9206 6.25027C25.2085 6.25027 26.4894 6.53116 27.5983 7.17733C29.1797 8.10936 30.5516 10.0548 31.1219 11.7571L31.1674 11.898C31.1713 11.7511 31.1743 11.5992 31.1733 11.4424C31.1347 7.33217 29.9744 0.671013 21.5722 0.660095C21.4813 0.660095 21.3874 0.660093 21.2975 0.664063L21.2876 0.33354L21.2935 0.664063C15.3346 0.785157 13.0544 3.81251 11.2101 6.9411C9.4192 10.0032 8.11652 13.3035 4.26977 13.3849L4.41901 13.503C5.02686 13.7521 6.07751 13.8454 7.09355 13.8425Z" fill="#9FB73B"/>
<path d="M21.1532 1.45515C18.9471 1.45515 15.2536 2.04275 12.9487 5.57036C9.49234 10.8588 9.49234 11.6032 8.42193 12.2633C8.27565 12.3546 8.23216 12.4012 8.27466 12.4012C8.53954 12.4012 12.1471 10.5461 14.3472 5.98227C16.2469 2.04573 20.1055 1.54249 21.9557 1.54249C22.5912 1.54249 22.9896 1.60105 22.9896 1.60105C22.9896 1.60105 22.2572 1.45515 21.1532 1.45515Z" fill="#DCE83C"/>
<path d="M21.59 8.21358C21.59 8.21358 20.0254 8.38033 17.7225 10.6116C15.4166 12.8429 14.1011 13.5864 13.0317 13.8345C12.8736 13.8703 12.833 13.8921 12.8884 13.8921C13.2017 13.8921 16.662 13.2102 18.6289 11.0255C20.9318 8.46172 21.59 8.21358 21.59 8.21358Z" fill="#DCE83C"/>
<path d="M23.7299 7.47113C23.7299 7.47113 26.1978 8.13219 25.9517 10.694C25.754 12.7417 23.295 14.5254 23.3266 14.5254C23.3266 14.5254 23.4986 14.4132 23.8939 14.165C25.4417 13.1933 27.3938 12.172 28.8773 12.172C29.2885 12.172 29.6621 12.2494 29.9843 12.428C29.9843 12.428 29.162 7.55352 23.7299 7.47113Z" fill="#BDCD44"/>
<path d="M24.6342 1.43629C24.6342 1.43629 26.4459 2.84078 23.4828 4.32964C20.5196 5.81651 19.6143 6.97386 19.6143 6.97386C19.6143 6.97386 21.5712 5.7788 24.0303 5.7788C26.0555 5.7788 28.4187 6.58774 30.3134 9.53469C30.3134 9.53469 30.5615 3.83236 24.6342 1.43629Z" fill="#BDCD44"/>
<path d="M19.3533 21.9617C14.5963 23.4952 9.87681 29.5579 4.4457 27.7722C2.24855 27.0516 1.81465 25.4496 0.792675 23.7374C0.524826 23.5717 0.354826 23.3444 0.330116 23.0357C0.331105 23.0486 1.54285 38.1337 12.1807 37.1421C22.8255 36.1506 23.2633 27.004 29.7392 29.2065L29.7975 29.2819C29.7154 28.2953 29.5573 27.3484 29.3043 26.5325C28.0006 22.329 23.211 20.716 19.3533 21.9617Z" fill="#CCD84E"/>
<path d="M1.80971 30.2437C0.287616 26.6467 0.00395349 23.0972 0 23.0545L0.656281 23.0089V23.0168H0.658257L0.660234 23.0387C0.685932 23.2163 0.769942 23.3275 0.964652 23.4565L1.03285 23.4982L1.07436 23.5657C2.13291 25.3494 2.50454 26.7876 4.54849 27.4586C5.19884 27.673 5.8403 27.7683 6.46989 27.7683C10.8484 27.804 14.9689 23.0615 19.2515 21.6461C20.1341 21.3622 21.0622 21.2203 21.9873 21.2203C25.2608 21.2163 28.5472 22.99 29.6186 26.4362C29.8815 27.2819 30.0416 28.2517 30.1256 29.2551L30.1997 30.1316L29.5682 29.5202L29.5395 29.4894C28.9139 29.2839 28.3574 29.1976 27.8484 29.1976C25.6483 29.1817 24.1558 30.9217 22.0022 32.9158C19.8614 34.891 17.0494 37.027 12.2104 37.4717C11.8625 37.5024 11.5254 37.5183 11.1943 37.5183C6.14373 37.5173 3.31994 33.8299 1.80971 30.2437ZM0.980467 25.1886C1.23646 26.4988 1.67826 28.2467 2.41657 29.9877C3.90506 33.4756 6.51239 36.8592 11.1933 36.8592C11.5027 36.8592 11.82 36.8414 12.1501 36.8136C16.8182 36.3729 19.4423 34.3679 21.5594 32.4284C23.6646 30.5048 25.2539 28.5514 27.8484 28.5335C28.3386 28.5335 28.8585 28.606 29.415 28.7608C29.325 27.9926 29.1857 27.264 28.991 26.6318C28.0263 23.5161 25.0404 21.8833 21.9873 21.8803C21.1294 21.8783 20.2696 22.0094 19.4541 22.2744L19.3523 21.9607L19.4522 22.2744C15.4236 23.5389 11.2882 28.3926 6.4689 28.4273C5.77012 28.4273 5.06047 28.3221 4.34291 28.0869C2.28709 27.4109 1.64861 25.9777 0.859885 24.5275C0.895467 24.733 0.935001 24.9543 0.980467 25.1886Z" fill="#9FB73B"/>
<path d="M25.6038 17.4584C20.9664 13.5576 12.2341 14.5879 9.1899 20.1165C8.32112 21.6917 7.27146 23.1796 5.50227 23.7682C4.76593 24.0124 1.92041 24.4412 0.792675 23.7384C1.81465 25.4516 2.24954 27.0536 4.4457 27.7732C9.87681 29.5589 14.5963 23.4952 19.3533 21.9627C23.211 20.717 28.0006 22.33 29.3033 26.5335C29.5563 27.3484 29.7145 28.2953 29.7965 29.2829C29.9398 29.4199 30.2877 29.4626 30.2877 26.5633C30.2877 22.993 28.2497 19.6828 25.6038 17.4584Z" fill="#CCD84E"/>
<path d="M29.5672 29.5182L29.4772 29.4308L29.4683 29.3087C29.3863 28.34 29.2331 27.4149 28.989 26.6328C28.0243 23.5161 25.0404 21.8863 21.9873 21.8793C21.1294 21.8793 20.2696 22.0103 19.4532 22.2754C15.4246 23.5399 11.2902 28.3936 6.46989 28.4283C5.7721 28.4283 5.06146 28.3231 4.3439 28.0879C1.99256 27.3166 1.49739 25.5509 0.510001 23.9072L0.964652 23.4555C1.31552 23.6818 2.02221 23.793 2.76349 23.79C3.84181 23.791 5.02094 23.5796 5.39751 23.4516C7.0382 22.9086 8.04141 21.5151 8.90129 19.9557C10.799 16.5165 14.7663 14.7864 18.6486 14.7834C21.2698 14.7864 23.8732 15.5735 25.8163 17.2033L25.6038 17.4584L25.3913 17.7115C23.5974 16.2018 21.1383 15.4465 18.6486 15.4465C14.9482 15.4465 11.2161 17.108 9.47652 20.2753C8.59884 21.8664 7.50472 23.4466 5.60408 24.0818C5.10594 24.2417 3.93076 24.4491 2.76349 24.4521C2.33058 24.4501 1.90361 24.4223 1.51122 24.3469C2.28117 25.7643 2.81192 26.8898 4.5475 27.4596C5.19983 27.675 5.83931 27.7683 6.4689 27.7703C10.8454 27.802 14.9669 23.0615 19.2505 21.6461C20.1341 21.3622 21.0612 21.2203 21.9864 21.2203C25.2589 21.2163 28.5452 22.99 29.6176 26.4342C29.7441 26.8472 29.8479 27.2889 29.9309 27.7504C29.9477 27.4258 29.9576 27.0338 29.9576 26.5613C29.9606 23.122 27.9828 19.8862 25.3913 17.7115L25.6038 17.4584L25.8163 17.2033C28.5146 19.4763 30.6119 22.862 30.6149 26.5613C30.6139 27.7504 30.5565 28.4541 30.4725 28.8909C30.3776 29.2919 30.3164 29.5996 29.8943 29.6601C29.7233 29.6561 29.6265 29.5738 29.5672 29.5182Z" fill="#9FB73B"/>
<path d="M3.56605 30.6954C3.6214 30.8145 3.68762 30.9316 3.76076 31.0507C3.6303 30.8274 3.56605 30.6954 3.56605 30.6954ZM25.1294 22.9255C25.1294 22.9255 26.774 24.4144 24.7993 25.5707C23.1012 26.5653 21.4003 27.5281 19.8584 28.7628C17.6148 30.5604 16.2034 33.0517 13.3677 34.0959C12.4624 34.4304 11.4819 34.6001 10.5005 34.6001C9.0535 34.6001 7.60257 34.2319 6.38292 33.4805C5.51611 32.9475 4.35774 32.0036 3.76175 31.0517C4.45756 32.2408 7.0135 36.0086 11.5343 36.0086C11.9613 36.0086 12.4051 35.9749 12.8676 35.9024C20.6758 34.6786 21.25 27.8 27.8563 27.8C27.9344 27.8 28.0125 27.802 28.0925 27.803C28.0925 27.803 28.6678 25.0744 25.1294 22.9255Z" fill="#BDCD44"/>
<path d="M16.1579 16.4797C16.1579 16.4797 13.3589 16.4797 10.9739 19.123C8.586 21.7682 8.83309 23.6689 6.44716 24.331C5.74344 24.5265 5.67722 24.6913 6.00832 24.6913C6.80594 24.6913 9.89559 23.7394 12.0433 19.9518C12.0433 19.9518 13.2768 17.1408 16.1579 16.4797Z" fill="#DCE83C"/>
<path d="M21.7314 22.7994C21.1848 22.7994 20.5562 22.8749 19.8614 23.0913C19.8614 23.0913 16.8172 24.4144 13.1118 27.0596C10.9027 28.6368 8.51583 29.3921 6.60234 29.3921C5.30757 29.3921 4.23024 29.0477 3.56605 28.3807C3.39012 28.203 3.27646 28.1296 3.2221 28.1296C3.06297 28.1296 3.42966 28.7886 4.27274 29.4467C5.11582 30.1068 6.4353 30.7658 8.18176 30.7658C9.62577 30.7658 11.3594 30.3152 13.3579 29.0437C20.7331 24.3449 19.7813 23.2521 23.4531 23.2521C23.5944 23.2521 23.7387 23.2531 23.8929 23.258C23.8929 23.258 23.0657 22.7994 21.7314 22.7994Z" fill="#DCE83C"/>
<path d="M19.5184 15.8981L19.2861 15.9011C19.2861 15.9011 22.4964 16.314 23.6478 18.1324C24.8003 19.9518 22.0022 18.2981 17.1463 21.522C15.8673 22.3697 15.3771 22.6744 15.4226 22.6744C15.4819 22.6744 16.409 22.1831 17.6919 21.6927C18.9758 21.2014 20.6165 20.7111 22.104 20.7111C22.4074 20.7111 22.7039 20.7319 22.9905 20.7766C26.4558 21.3245 28.3495 23.5012 28.7211 23.5012C28.7992 23.5012 28.8111 23.4059 28.7518 23.1736C28.4246 21.8704 25.2154 15.8981 19.5184 15.8981Z" fill="#BDCD44"/>
<path d="M37.5285 13.8891C37.5285 13.8891 36.1023 12.6216 37.4732 10.8032C37.4732 10.8032 36.8703 12.5114 37.8586 13.1189C37.8586 13.1189 39.0111 13.9447 40.3266 12.3476C40.3266 12.3476 39.8897 13.8345 38.4616 13.9437C38.4616 13.9437 41.6975 14.6613 42.9606 13.6132C42.9606 13.6132 41.1499 15.8703 37.8586 14.44L37.5285 13.8891Z" fill="#B9CB33"/>
<path d="M37.7924 14.5909L37.7163 14.5254L37.3991 13.9933C37.2854 13.8832 36.7181 13.2995 36.7151 12.3754C36.7121 11.8881 36.8782 11.3154 37.3447 10.703L37.5523 10.6563L37.6303 10.8578C37.6303 10.8578 37.4554 11.3541 37.4564 11.8851C37.4584 12.3238 37.5691 12.7457 37.9545 12.9819C37.9565 12.9789 38.0217 13.0266 38.1403 13.0732C38.256 13.1189 38.4191 13.1645 38.6227 13.1645C39.022 13.1616 39.5745 12.9968 40.2011 12.2385L40.4057 12.1998L40.4857 12.3933C40.4818 12.3993 40.1803 13.4474 39.2275 13.906C39.6288 13.9626 40.1556 14.0162 40.7002 14.0162C41.5275 14.0191 42.3844 13.8812 42.8578 13.4832L43.0802 13.4951L43.0911 13.7164C43.0773 13.7323 41.9989 15.0762 39.9757 15.0792H39.9659C39.3264 15.0802 38.5979 14.9412 37.7924 14.5909ZM39.9728 14.7497C40.801 14.7507 41.4553 14.5085 41.9298 14.2365C41.5334 14.3189 41.1104 14.3457 40.6982 14.3477C39.5191 14.3477 38.4319 14.1065 38.426 14.1035C38.3459 14.0866 38.2906 14.0132 38.2975 13.9318C38.3024 13.8494 38.3657 13.7859 38.4487 13.7789C38.9953 13.7432 39.3867 13.4732 39.6565 13.1755C39.276 13.4157 38.9202 13.497 38.6207 13.4961C38.1038 13.4951 37.7776 13.2628 37.7717 13.2588C37.2567 12.9412 37.1253 12.3705 37.1263 11.8861L37.1273 11.8067C37.066 12.0102 37.0432 12.2007 37.0423 12.3754C37.0363 13.2281 37.6363 13.7641 37.6363 13.7641L37.5295 13.8881L37.6699 13.8038L37.9723 14.308C38.7235 14.6286 39.3906 14.7497 39.9728 14.7497Z" fill="#8EAB3E"/>
</svg>
