<svg width="51" height="101" viewBox="0 0 51 101" fill="none" xmlns="http://www.w3.org/2000/svg">
<path d="M28.2811 41.0139C28.0828 41.0139 27.9299 41.3388 27.9408 42.0796C27.9615 43.5079 28.4617 45.8087 28.4745 45.9335C28.7093 48.3779 28.9412 50.8184 29.0625 53.2688C29.1227 54.5039 29.1592 55.744 29.1128 56.9811C29.03 59.165 29.2588 60.0832 29.5499 60.0832C29.9258 60.0832 30.4013 58.544 30.4398 56.2174C30.4773 53.6155 30.2494 51.0096 29.8883 48.4324C29.692 47.025 29.4778 45.6205 29.3614 44.2051C29.2993 43.4395 29.1345 42.6303 28.9037 41.9033C28.7271 41.3407 28.4794 41.0139 28.2811 41.0139Z" fill="#B0C94F"/>
<path d="M30.6331 47.2845C30.6331 47.2845 33.876 34.4571 48.8305 35.1741C48.8305 35.1741 51.515 34.7671 49.2725 37.2977C47.031 39.8303 43.9637 52.9251 30.6331 47.2845Z" fill="#8EAE2E"/>
<path d="M30.6331 47.2845L30.8176 47.331L30.8275 47.2993C30.9183 46.9586 31.7845 43.9585 34.2943 41.0555C35.5482 39.6035 37.2116 38.1742 39.3979 37.1075C41.5812 36.0428 44.2883 35.3366 47.6358 35.3366C48.0245 35.3366 48.4191 35.3465 48.8246 35.3653H48.8433L48.8611 35.3643L48.866 35.3623C48.8937 35.3584 49.0318 35.3415 49.2025 35.3415C49.386 35.3415 49.6069 35.3643 49.7569 35.4327L49.9217 35.5515C49.9562 35.5991 49.9779 35.6525 49.9789 35.7407C49.9799 35.8536 49.9355 36.0299 49.8043 36.2696C49.673 36.5073 49.456 36.8064 49.1324 37.1709C48.8868 37.4512 48.6421 37.8335 48.3797 38.2931C47.9219 39.0954 47.4098 40.1334 46.7844 41.2427C45.8501 42.9067 44.6632 44.7241 43.0462 46.1177C41.4282 47.5123 39.3929 48.4889 36.7203 48.4909C34.9997 48.4909 33.0128 48.0838 30.7081 47.1082L30.6331 47.2845L30.5602 47.4588C32.9033 48.4502 34.9385 48.8702 36.7183 48.8702C38.8247 48.8722 40.5709 48.2789 42.0192 47.3568C44.1897 45.9751 45.6962 43.8654 46.8367 41.9152C47.4059 40.9406 47.8834 40.0036 48.3037 39.2152C48.725 38.4288 49.09 37.7909 49.4146 37.4245C49.752 37.0451 49.9828 36.7262 50.1338 36.4518C50.2828 36.1795 50.3558 35.9487 50.3558 35.7407C50.3577 35.5792 50.3074 35.4327 50.2206 35.3207C50.0933 35.1533 49.9079 35.0692 49.7283 35.0206C49.5458 34.9721 49.3583 34.9602 49.2015 34.9602C48.9775 34.9602 48.8118 34.985 48.8049 34.986L48.8315 35.1732L48.8404 34.983C48.431 34.9642 48.0294 34.9562 47.6348 34.9562C44.1236 34.9562 41.2882 35.7209 39.0161 36.8718C35.6055 38.5992 33.4646 41.1912 32.1781 43.3444C30.8897 45.5017 30.4546 47.2251 30.4506 47.2369L30.4102 47.3954L30.5602 47.4588L30.6331 47.2845Z" fill="#369626"/>
<path d="M31.0505 46.6734C31.0505 46.6734 41.9807 38.5714 49.531 36.1705C49.531 36.1705 50.9122 35.3019 47.6506 35.8675C44.389 36.4291 37.8381 34.8879 31.0505 46.6734Z" fill="#A4B526"/>
<path d="M2.38356 19.1931C1.49169 18.478 0.955016 17.6658 1.18291 17.3835C1.40983 17.0973 2.31746 17.444 3.20933 18.1561C4.09823 18.8732 4.63592 19.6844 4.40506 19.9706C4.18012 20.2559 3.27246 19.9102 2.38356 19.1931Z" fill="#F9A4A9"/>
<path d="M6.49757 5.62184C6.29039 5.62184 6.09407 5.63967 5.9155 5.67632C5.73594 5.71296 5.62642 5.79715 5.54848 5.92591C5.46956 6.05566 5.4301 6.24187 5.4301 6.46472C5.4301 6.851 5.54454 7.35217 5.72705 7.89395C5.90562 8.43772 6.15424 9.02208 6.41568 9.5807C6.6495 10.0819 6.89518 10.5603 7.11617 10.9743C7.28685 11.0555 7.46639 11.1308 7.64989 11.2031C7.56998 10.7286 7.52756 10.3166 7.52756 9.96698C7.52756 9.53712 7.58775 9.19343 7.7239 8.92304C7.85709 8.65561 8.07216 8.46644 8.35333 8.36541C8.54078 8.29707 8.75881 8.26538 9.00348 8.26538C9.45731 8.26538 10.0127 8.37036 10.6856 8.56647C10.8691 8.61699 11.0506 8.66849 11.2331 8.71603C11.1769 8.16831 11.1128 7.64931 10.9934 7.16795C10.7014 6.98669 10.3965 6.81633 10.0847 6.66083C8.84758 6.03585 7.51079 5.62184 6.49757 5.62184Z" fill="#CB393D"/>
<path d="M6.49758 5.43266C6.27757 5.43266 6.07038 5.45148 5.87898 5.48912C5.65601 5.5327 5.48732 5.65552 5.38274 5.82786C5.28113 6.00416 5.2397 6.21909 5.2397 6.46571C5.2397 6.94906 5.39756 7.55422 5.62743 8.19406C5.94708 9.08547 6.41372 10.0482 6.82118 10.8277C6.91786 10.8792 7.01653 10.9277 7.11617 10.9753C6.89518 10.5613 6.6495 10.0829 6.41568 9.58169C6.15325 9.02308 5.90464 8.43871 5.72706 7.89494C5.54454 7.35316 5.4301 6.851 5.4301 6.46571C5.4301 6.24286 5.46956 6.05665 5.54849 5.9269C5.62643 5.79814 5.73595 5.71395 5.9155 5.67731C6.09407 5.64066 6.2904 5.62283 6.49758 5.62283C7.51079 5.62283 8.84759 6.03684 10.0847 6.6638C10.3955 6.81832 10.7014 6.98967 10.9934 7.17092L10.9539 7.02136L10.9194 6.9035C10.6767 6.75889 10.4251 6.62121 10.1696 6.49245C8.91368 5.85658 7.5611 5.43366 6.49758 5.43266Z" fill="#FF442A"/>
<path d="M2.98044 8.06035H2.97451L2.90448 8.07719L2.85023 8.13761C2.81471 8.20099 2.78806 8.32678 2.78806 8.512C2.78806 8.89729 2.89462 9.53811 3.13929 10.5008C3.42737 11.6359 3.79931 12.5778 4.2186 13.3662C4.69906 13.5851 5.17162 13.7694 5.59881 13.8625C6.41964 14.0427 7.348 14.0308 8.33754 14.0685C8.04255 13.0354 7.82254 12.1589 7.6864 11.4249C7.32728 11.2843 6.98396 11.1357 6.66727 10.9574C5.71227 10.4236 4.6744 9.33012 3.89106 8.6467C3.6306 8.41989 3.39874 8.23863 3.21721 8.14058C3.11954 8.08808 3.03668 8.06035 2.98044 8.06035Z" fill="#D83D40"/>
<path d="M2.96762 7.86919L2.80681 7.91376C2.72986 7.9613 2.67656 8.04054 2.64697 8.13958C2.61441 8.23863 2.6006 8.35947 2.6006 8.512C2.6006 8.92799 2.7121 9.57674 2.95578 10.5474C3.22315 11.5903 3.5576 12.4778 3.93941 13.2345C4.03313 13.2791 4.12587 13.3227 4.21959 13.3662C3.8003 12.5778 3.42833 11.6359 3.14025 10.5008C2.89558 9.53811 2.78905 8.89729 2.78905 8.512C2.78905 8.32777 2.81469 8.20198 2.85119 8.1376L2.90547 8.07719L2.9755 8.06035H2.98144C3.03767 8.06035 3.12055 8.08808 3.22019 8.14058C3.40172 8.23863 3.63355 8.41889 3.89401 8.6467C4.67735 9.33111 5.71522 10.4236 6.67022 10.9574C6.98691 11.1357 7.33026 11.2843 7.68937 11.4249L7.6509 11.2041C7.46739 11.1318 7.28782 11.0565 7.11714 10.9753C7.0175 10.9267 6.91886 10.8782 6.82218 10.8277L6.76199 10.792C6.06646 10.4067 5.29493 9.68173 4.62012 9.05378C4.28172 8.74079 3.96605 8.44762 3.69276 8.23467C3.55563 8.1277 3.42834 8.03856 3.31094 7.97418C3.19057 7.91079 3.08501 7.87117 2.9755 7.87117H2.96762V7.86919Z" fill="#FF442A"/>
<path d="M0.791231 12.0103H0.785299C0.686642 12.0103 0.630414 12.0351 0.594897 12.0717C0.558394 12.1113 0.528803 12.1816 0.527817 12.3064C0.527817 12.4996 0.599823 12.8096 0.772473 13.2424C0.940191 13.6762 1.20461 14.2368 1.57852 14.948C1.87548 15.5066 2.17837 16.0147 2.48519 16.4743C2.56708 16.4872 2.64993 16.5 2.73379 16.5129C3.08797 16.5723 3.453 16.6288 3.8131 16.6714C3.57139 16.3287 3.37902 16.0355 3.23695 15.7839C2.99228 15.3571 2.87486 15.055 2.87289 14.8232C2.8719 14.6786 2.92715 14.5538 3.03074 14.4815C3.13335 14.4112 3.26358 14.3864 3.41354 14.3864C3.67202 14.3864 4.00449 14.4597 4.38728 14.5706C4.77106 14.6776 5.20417 14.8232 5.65504 14.9698C6.5617 15.263 7.54334 15.5641 8.33358 15.5987C8.41547 15.6017 8.49935 15.6027 8.58321 15.6027C8.66115 15.6027 8.74006 15.6017 8.81998 15.5987C8.74105 15.3947 8.66903 15.1827 8.60293 14.9609C8.5319 14.7192 8.46186 14.4864 8.39576 14.2586C7.38846 14.218 6.4295 14.2329 5.5623 14.0447C4.91906 13.906 4.20479 13.5792 3.51419 13.2345C2.82358 12.8839 2.15764 12.5095 1.62588 12.2678C1.27367 12.1093 0.976707 12.0103 0.791231 12.0103Z" fill="#D83D40"/>
<path d="M0.7853 11.8201C0.660005 11.8201 0.540652 11.8528 0.456793 11.94C0.372934 12.0301 0.338379 12.1539 0.338379 12.3064C0.338379 12.5442 0.420274 12.8661 0.594898 13.3128C0.766562 13.7575 1.03491 14.321 1.41178 15.0361C1.68013 15.5433 1.9534 16.0068 2.23063 16.4327C2.31449 16.4466 2.39837 16.4604 2.48519 16.4743C2.17837 16.0147 1.87548 15.5066 1.57852 14.948C1.20362 14.2368 0.940192 13.6772 0.772474 13.2424C0.599824 12.8086 0.527818 12.4996 0.527818 12.3064C0.528804 12.1816 0.558395 12.1113 0.594898 12.0717C0.630415 12.036 0.687629 12.0103 0.7853 12.0103H0.791231C0.977694 12.0103 1.27367 12.1093 1.62588 12.2688C2.15765 12.5105 2.82359 12.8849 3.51419 13.2355C4.20479 13.5812 4.91906 13.908 5.56231 14.0457C6.4295 14.2329 7.38846 14.219 8.39576 14.2596L8.33952 14.0675C7.34998 14.0298 6.42161 14.0417 5.60078 13.8615C5.17261 13.7684 4.70101 13.5841 4.22055 13.3652C4.12584 13.3217 4.0331 13.2781 3.94036 13.2335C3.59704 13.0661 3.25272 12.8878 2.92419 12.7145C2.48319 12.4827 2.06688 12.2599 1.70284 12.0965C1.33978 11.9321 1.02898 11.8211 0.7853 11.8201Z" fill="#FF442A"/>
<path d="M1.13061 17.5519L1.1839 17.3835C1.23816 17.3132 1.32989 17.2835 1.45222 17.2835C1.84192 17.2835 2.53056 17.6133 3.21031 18.1571C3.9611 18.7613 4.46031 19.4348 4.4613 19.8003L4.40605 19.9716C4.35376 20.039 4.26101 20.0726 4.14065 20.0726C3.75095 20.0726 3.06232 19.7408 2.38454 19.1941C1.6308 18.5909 1.13061 17.9184 1.13061 17.5519ZM0.779403 16.4624C0.627471 16.4624 0.498234 16.4743 0.40155 16.502C0.305852 16.5278 0.247616 16.5654 0.219006 16.61L0.188446 16.7199C0.188446 16.7883 0.213112 16.8923 0.282172 17.028C0.348272 17.1587 0.454825 17.3201 0.605771 17.5113C0.90273 17.8926 1.3743 18.3948 2.05011 19.0396C5.03844 21.8832 7.56406 22.5191 9.47703 22.5191C10.5021 22.5191 11.3535 22.3368 12.0066 22.2041C11.1473 22.1358 10.1558 21.9377 9.08141 21.4474C7.63213 20.7877 6.03489 19.5923 4.39816 17.4648C4.23735 17.2558 4.0933 17.0626 3.96307 16.8814C3.54082 16.8338 3.11461 16.7685 2.7042 16.7011C1.95144 16.5803 1.25296 16.4624 0.779403 16.4624Z" fill="#FF4E45"/>
<path d="M0.779403 16.2722C0.562356 16.2722 0.378842 16.294 0.237762 16.3604L0.0641298 16.503C0.0197339 16.5654 0 16.6417 0 16.7219C0 16.8378 0.0384899 16.9656 0.112483 17.1141C0.338409 17.5588 0.898768 18.2066 1.92185 19.1822C4.92893 22.0486 7.51375 22.7112 9.46914 22.7112H9.47703C10.652 22.7112 11.6021 22.4755 12.274 22.3447C12.4822 22.3061 12.7268 22.2705 12.9942 22.2368L12.8551 22.2398C12.5897 22.2398 12.3065 22.2289 12.0066 22.2061C11.3535 22.3398 10.5021 22.521 9.47703 22.521C7.56307 22.521 5.03844 21.8852 2.05011 19.0416C1.3743 18.3968 0.902729 17.8946 0.60577 17.5133C0.454824 17.3221 0.348272 17.1607 0.282171 17.0299C0.213111 16.8942 0.188445 16.7912 0.188445 16.7219L0.219005 16.612C0.246629 16.5674 0.305851 16.5298 0.401549 16.504C0.498233 16.4763 0.62747 16.4644 0.779403 16.4644C1.25197 16.4644 1.95144 16.5823 2.7042 16.7031C3.11461 16.7694 3.5418 16.8358 3.96307 16.8834L3.81214 16.6734C3.45204 16.6308 3.08797 16.5733 2.7328 16.5149C2.64894 16.502 2.56609 16.4891 2.4842 16.4763C2.39738 16.4624 2.31353 16.4485 2.22967 16.4347C1.67324 16.3445 1.16811 16.2722 0.779403 16.2722Z" fill="#FF442A"/>
<path d="M9.04393 9.5391L8.82887 9.57476C8.46186 9.71045 8.26256 10.1829 8.26552 10.792C8.26552 11.1565 8.33952 11.5715 8.49244 11.9905C8.84761 12.98 9.51847 13.6673 10.0769 13.6673L10.2929 13.6287C10.6619 13.495 10.8592 13.0225 10.8573 12.4144C10.8563 12.0469 10.7823 11.6339 10.6303 11.212C10.2742 10.2265 9.60233 9.5391 9.04393 9.5391Z" fill="#F6ED9C"/>
<path d="M4.26202 15.368C4.09134 15.368 3.96309 15.4135 3.88811 15.5096C3.83779 15.572 3.81509 15.6512 3.81509 15.7463C3.81707 16.2594 4.51359 17.1963 5.56231 18.0382C6.50844 18.7989 7.46838 19.2605 8.01198 19.2605C8.18069 19.2605 8.30993 19.2159 8.38688 19.1208C8.43523 19.0584 8.45791 18.9762 8.45791 18.8831C8.45594 18.37 7.76041 17.434 6.71168 16.5912C5.76654 15.8315 4.80463 15.368 4.26202 15.368Z" fill="#FA6967"/>
<path d="M1.45127 17.2825C1.32992 17.2825 1.23718 17.3122 1.18291 17.3825L1.12962 17.5509C1.12962 17.9174 1.63082 18.5899 2.38259 19.1921C3.06136 19.7388 3.749 20.0707 4.13869 20.0707C4.25906 20.0707 4.35178 20.038 4.40407 19.9696L4.45931 19.7983C4.45833 19.4328 3.95911 18.7593 3.20833 18.1551C2.52957 17.6123 1.83998 17.2825 1.45127 17.2825Z" fill="#F6868C"/>
<path d="M49.0929 71.0743L45.8392 95.2296C45.7909 98.4932 38.6323 101.031 29.8468 100.899C21.0624 100.764 13.9818 98.0118 14.0301 94.7502L10.2584 68.9656L49.0929 71.0743Z" fill="#AA6B28"/>
<path d="M49.0929 71.0743L48.9933 71.0604L45.7396 95.2157V95.2286C45.7258 96.7381 44.0594 98.1495 41.301 99.1647C38.5484 100.181 34.7373 100.801 30.5059 100.801C30.2878 100.801 30.0688 100.8 29.8488 100.797C25.4803 100.732 21.5369 100.015 18.6907 98.9141C15.8404 97.8157 14.1198 96.326 14.1297 94.7839V94.7512L14.1287 94.7344L10.3748 69.0726L49.086 71.1743L49.0929 71.0743L49.0989 70.9723L10.2643 68.8646L10.1844 68.8973L10.1588 68.9785L13.9324 94.7631L14.031 94.7482L13.9314 94.7463V94.7819C13.9413 96.4865 15.7506 97.987 18.6196 99.0993C21.4955 100.212 25.4595 100.929 29.8458 100.995C30.0678 100.998 30.2888 101 30.5069 101C34.759 101 38.5889 100.377 41.372 99.3509C44.1482 98.3258 45.9073 96.8975 45.9399 95.2286L45.8402 95.2276L45.9399 95.2415L49.1936 71.0842L49.1719 71.0079L49.1008 70.9713L49.0929 71.0743Z" fill="#2E1010"/>
<path d="M49.0929 71.0743L45.8392 95.2296C45.7909 98.4932 38.6323 101.031 29.8468 100.899C21.0624 100.764 13.9818 98.0118 14.0301 94.7502L10.2584 68.9656L49.0929 71.0743Z" fill="#F9A84C"/>
<path d="M49.0929 71.0743L48.9933 71.0604L45.7396 95.2157V95.2286C45.7258 96.7381 44.0594 98.1495 41.301 99.1647C38.5484 100.181 34.7373 100.801 30.5059 100.801C30.2878 100.801 30.0688 100.8 29.8488 100.797C25.4803 100.732 21.5369 100.015 18.6907 98.9141C15.8404 97.8157 14.1198 96.326 14.1297 94.7839V94.7512L14.1287 94.7344L10.3748 69.0726L49.086 71.1743L49.0929 71.0743L49.0989 70.9723L10.2643 68.8646L10.1844 68.8973L10.1588 68.9785L13.9324 94.7631L14.031 94.7482L13.9314 94.7463V94.7819C13.9413 96.4865 15.7506 97.987 18.6196 99.0993C21.4955 100.212 25.4595 100.929 29.8458 100.995C30.0678 100.998 30.2888 101 30.5069 101C34.759 101 38.5889 100.377 41.372 99.3509C44.1482 98.3258 45.9073 96.8975 45.9399 95.2286L45.8402 95.2276L45.9399 95.2415L49.1936 71.0842L49.1719 71.0079L49.1008 70.9713L49.0929 71.0743Z" fill="#7C4317"/>
<path d="M14.5885 75.7572L16.9651 92.7326C16.9651 92.7326 17.9803 98.0643 24.5016 99.4806C25.2474 99.6421 25.9834 99.7193 26.7026 99.7193C32.2936 99.7193 36.9423 95.0919 37.3369 89.6642C37.8105 83.1203 37.8105 77.5598 37.8105 77.5598C37.8105 77.5598 33.8918 78.1977 28.8435 78.1977C24.3309 78.1967 18.9156 77.6886 14.5885 75.7572Z" fill="#FAB76A"/>
<path d="M48.7763 72.6759C47.6674 73.6644 46.0957 74.5419 44.1778 75.2758C42.5737 75.8869 40.7239 76.398 38.6945 76.7784C39.2262 76.8368 39.9139 76.8843 40.7327 76.8843C41.8051 76.8843 43.1084 76.8031 44.603 76.5585C44.603 76.5585 44.7244 76.4485 44.8763 76.4485C45.1171 76.4485 45.4318 76.7229 45.4525 78.1432C45.485 80.4619 43.3106 94.5056 43.3106 94.5056C43.3106 94.5056 42.8923 98.1247 37.8667 99.4807C36.1846 99.9353 33.4627 100.302 30.4092 100.302C24.4315 100.302 17.1911 98.8943 14.0173 93.9787L14.1268 94.7344L14.1278 94.7512V94.7839C14.1179 96.326 15.8385 97.8157 18.6887 98.9141C21.535 100.015 25.4783 100.732 29.8468 100.797C30.0669 100.8 30.2859 100.801 30.5039 100.801C34.7353 100.801 38.5465 100.181 41.299 99.1647C44.0575 98.1505 45.7238 96.7391 45.7376 95.2286V95.2157L48.7763 72.6759Z" fill="#DE9342"/>
<path d="M48.8907 72.5729C48.8542 72.6075 48.8157 72.6412 48.7772 72.6759L45.7406 95.2157V95.2286C45.7268 96.7381 44.0604 98.1495 41.302 99.1647C38.5494 100.181 34.7383 100.801 30.5069 100.801C30.2888 100.801 30.0698 100.8 29.8498 100.797C25.4813 100.732 21.5379 100.015 18.6916 98.9141C15.8414 97.8157 14.1208 96.326 14.1307 94.7839V94.7512L14.1297 94.7344L14.0202 93.9787C13.9748 93.9093 13.9314 93.839 13.888 93.7677L14.031 94.7492C13.9827 98.0108 21.0634 100.763 29.8478 100.898C30.0688 100.899 30.2888 100.901 30.5069 100.901C38.9884 100.901 45.7928 98.41 45.8402 95.2286L48.8907 72.5729Z" fill="#6F3B14"/>
<path d="M9.35864 64.4155L13.1126 64.5601C16.827 62.4444 22.9803 61.0608 29.9504 61.0608C37.7237 61.0608 44.4866 62.7832 47.9761 65.3237C49.4274 64.8661 50.9003 64.3947 50.9003 64.3947L50.4702 69.655H50.4692C49.9493 73.9952 40.9626 77.4519 29.9504 77.4519C18.81 77.4519 9.74834 73.9159 9.41783 69.5054L9.35864 69.44V64.6234L9.36162 64.6363L9.35864 64.4155Z" fill="#F9A72B"/>
<path d="M9.35865 64.4154L9.35371 64.5155L13.1086 64.6611L13.1619 64.6482C16.8517 62.5445 22.9931 61.1598 29.9504 61.1608C37.7069 61.1578 44.46 62.8852 47.918 65.4039L48.0077 65.4188C49.458 64.9612 50.9299 64.4897 50.9299 64.4897L50.9013 64.3946L50.8007 64.3857L50.3706 69.6461L50.4702 69.655V69.5549H50.4692L50.3706 69.6441C50.1249 71.7438 47.7867 73.6881 44.1078 75.0886C40.4348 76.4891 35.4447 77.3538 29.9504 77.3538C24.3901 77.3538 19.3497 76.4693 15.6658 75.0401C11.978 73.6118 9.67042 71.6319 9.51849 69.4975L9.4938 69.4381L9.4593 69.4014V64.6224H9.36063L9.26492 64.6512L9.2679 64.665L9.37936 64.7334L9.46324 64.6333L9.4593 64.4135L9.35865 64.4154L9.25803 64.4184L9.26197 64.6373L9.36163 64.6353L9.4583 64.6046L9.45436 64.5917L9.34386 64.5234L9.25902 64.6234V69.44L9.28467 69.5074L9.34483 69.5728L9.41784 69.5054L9.31821 69.5133C9.49481 71.7914 11.8843 73.7862 15.5938 75.2283C19.3083 76.6694 24.3674 77.5539 29.9495 77.5539C35.4654 77.5539 40.4752 76.6892 44.1778 75.2768C47.8785 73.8624 50.2926 71.9083 50.5689 69.6678L50.4682 69.656V69.758H50.4692L50.5699 69.6649L51 64.4045L50.9615 64.3164L50.8698 64.2996C50.8668 64.3006 49.3968 64.771 47.9485 65.2276L47.9762 65.3247L48.0363 65.2425C44.5143 62.6841 37.7385 60.9637 29.9504 60.9617C22.9665 60.9627 16.8024 62.3464 13.0642 64.4749L13.1136 64.562L13.1185 64.462L9.36259 64.3174L9.28762 64.3451L9.25902 64.4184L9.35865 64.4154Z" fill="#7C4317"/>
<path d="M9.35864 64.4154C9.35864 68.9725 18.6581 72.664 30.13 72.664C41.5999 72.664 50.9003 68.9715 50.9003 64.4154C50.9003 59.8593 41.5999 56.1669 30.13 56.1669C18.6581 56.1669 9.35864 59.8603 9.35864 64.4154Z" fill="#F9A84C"/>
<path d="M9.35865 64.4154H9.25803C9.26592 66.7698 11.6357 68.8418 15.4034 70.3414C19.179 71.8399 24.3832 72.763 30.129 72.763C35.8738 72.763 41.0761 71.8389 44.8517 70.3414C48.6204 68.8408 50.9911 66.7708 50.998 64.4154C50.9901 62.0611 48.6204 59.9891 44.8517 58.4895C41.0761 56.991 35.8738 56.0669 30.129 56.0669C24.3832 56.0669 19.179 56.992 15.4034 58.4895C11.6357 59.9901 9.26493 62.0611 9.25803 64.4154H9.35865H9.45731C9.44942 62.2146 11.7294 60.1634 15.4784 58.6767C19.2214 57.1891 24.4049 56.2669 30.13 56.2669C35.8541 56.2669 41.0366 57.1901 44.7797 58.6767C48.5277 60.1634 50.8066 62.2146 50.8007 64.4154C50.8076 66.6172 48.5277 68.6685 44.7797 70.1542C41.0366 71.6408 35.8541 72.5639 30.13 72.5639C24.4049 72.5639 19.2214 71.6408 15.4784 70.1542C11.7294 68.6685 9.4504 66.6172 9.45731 64.4154H9.35865Z" fill="#7C4317"/>
<path d="M10.0167 64.256C10.0167 68.3733 19.0005 71.7102 30.0836 71.7102C41.1668 71.7102 50.1496 68.3733 50.1496 64.256C50.1496 60.1406 41.1668 56.8048 30.0836 56.8048C19.0005 56.8048 10.0167 60.1406 10.0167 64.256Z" fill="#C7883C"/>
<path d="M10.0167 64.256H9.91606C9.9279 66.3974 12.2187 68.2674 15.8592 69.6213C19.5046 70.9772 24.5302 71.8112 30.0826 71.8112C35.6351 71.8112 40.6607 70.9772 44.3081 69.6213C47.9466 68.2674 50.2384 66.3974 50.2482 64.256C50.2374 62.1176 47.9466 60.2466 44.3081 58.8927C40.6607 57.5387 35.6351 56.7047 30.0826 56.7047C24.5302 56.7047 19.5046 57.5387 15.8592 58.8927C12.2187 60.2466 9.92691 62.1176 9.91606 64.256H10.0167H10.1153C10.1065 62.281 12.3065 60.4229 15.9282 59.0818C19.544 57.7378 24.5519 56.9048 30.0836 56.9048C35.6154 56.9048 40.6232 57.7378 44.239 59.0818C47.8617 60.4229 50.0588 62.28 50.0509 64.256C50.0598 66.233 47.8617 68.091 44.239 69.4341C40.6232 70.7762 35.6164 71.6101 30.0836 71.6101C24.5519 71.6101 19.544 70.7762 15.9282 69.4341C12.3065 68.092 10.1075 66.2339 10.1153 64.256H10.0167Z" fill="#7C4317"/>
<path d="M42.9841 63.1556C42.9841 63.1556 43.357 62.2008 40.122 61.0241C36.8851 59.8485 36.1461 61.9225 36.1461 61.9225C36.1461 61.9225 36.2487 61.0321 34.5084 59.9118C32.7701 58.7916 30.1951 60.6022 30.1951 60.6022C27.3735 59.3037 25.2543 62.2127 25.2543 62.2127C22.6695 59.6266 18.2832 62.1701 18.2832 62.1701C13.8308 61.2044 12.7406 64.8523 12.7406 64.8523C11.6485 64.8097 10.8365 65.1791 10.2357 65.6882C12.4269 68.9349 20.1922 71.4784 29.4966 71.7052C39.5548 71.9489 47.9446 69.4034 49.4866 65.8506C48.352 64.6987 46.2921 64.3451 46.2921 64.3451C45.2848 62.8802 42.9841 63.1556 42.9841 63.1556Z" fill="#584521"/>
<path d="M43.0818 63.1813C43.4004 62.0819 40.7485 61.2242 40.1566 60.9954C38.9233 60.514 36.9462 60.2833 36.1678 61.664C36.0554 61.865 36.0859 61.8502 36.1412 61.8343C36.1816 61.8224 36.2339 61.8135 36.2428 61.8967C36.2093 61.5609 36.0554 61.3193 35.8798 61.0429C35.3835 60.2595 34.467 59.7484 33.5958 59.5364C32.8135 59.3443 31.9246 59.6761 31.2133 59.9614C30.8423 60.1109 30.493 60.3189 30.1566 60.5329C30.2957 60.4467 28.9096 60.2387 29.0694 60.2466C28.0651 60.208 27.2551 60.4596 26.4057 61.0043C26.0318 61.241 25.7111 61.5669 25.4073 61.8878C25.0057 62.3177 24.9603 61.7798 24.4424 61.5401C22.559 60.6636 20.574 61.039 18.7301 61.863C18.2546 62.077 17.8343 62.0344 17.3844 61.9908C17.1112 61.967 16.828 61.9383 16.5133 61.971C15.506 62.072 14.6674 62.3622 13.8732 63.0031C13.3592 63.419 12.9784 64.0252 12.7169 64.6284C12.6143 64.8631 10.5978 65.3187 10.1449 65.6555L10.1479 65.6882C11.7787 67.9355 14.625 69.029 17.1634 69.861C21.1364 71.1634 25.3796 71.622 29.5381 71.7528C33.8819 71.8894 38.291 71.4735 42.4878 70.3245C45.0263 69.6292 48.3402 68.4318 49.5803 65.8784L49.5586 65.8437C48.4823 64.9057 47.0764 64.7433 46.0286 63.9489C45.122 63.2645 44.0535 63.006 42.9229 63.112C42.8213 63.1219 42.9959 63.2071 43.0462 63.2031C44.3416 63.0783 45.3252 64.1767 46.5535 64.4462C47.6309 64.6789 49.8871 65.2425 48.9183 66.6192C48.575 67.1075 48.0935 67.4978 47.6269 67.8622C44.4847 70.3057 39.8803 70.9753 36.0672 71.4061C30.8107 72.0004 25.3895 71.6864 20.2179 70.5919C17.9863 70.1205 15.796 69.4123 13.7469 68.404C12.9587 68.0138 12.2227 67.5304 11.536 66.9887C11.2499 66.7559 10.9845 66.5023 10.7398 66.228C9.73946 65.1623 12.6814 64.9018 12.7791 64.8988L12.8354 64.878C13.593 62.5148 16.0516 61.8224 18.299 62.2166C18.5121 62.2523 18.9758 61.9066 19.1593 61.8244C21.1088 60.9528 23.4213 60.6993 25.1784 62.2246L25.3451 62.2483C25.6125 61.8967 25.9361 61.5966 26.2715 61.3084C27.6182 60.1466 28.3601 60.6061 30.2346 60.6497C30.5621 60.6576 31.0584 60.1911 31.3682 60.0455C32.848 59.3433 36.0978 59.8841 36.0495 61.8977L36.2418 61.9502C36.5329 61.2242 37.2531 60.8805 37.9792 60.7359C37.4593 60.8379 43.3935 61.3846 42.8874 63.1308L43.0818 63.1813Z" fill="#403215"/>
<path d="M18.5496 62.8684C18.5496 62.8684 14.9624 62.2414 14.2718 64.148C13.5812 66.0566 11.2637 65.0256 12.7515 66.6747C14.2402 68.3238 16.5478 68.404 17.5877 67.5136C18.6285 66.6212 18.9975 65.3584 21.0644 65.5327C23.1332 65.709 21.8487 64.051 20.6263 64.0321C19.404 64.0143 21.682 62.4682 22.6695 62.3563C23.6561 62.2424 20.5612 61.145 18.5496 62.8684Z" fill="#6C562B"/>
<path d="M27.5037 64.7572C27.5037 64.7572 26.6898 63.7707 24.2688 63.7112C21.8477 63.6538 23.2279 64.6373 23.1155 65.1018C23.002 65.5684 24.6091 66.4934 24.6091 66.4934C24.6091 66.4934 25.2928 64.874 27.5037 64.7572Z" fill="#6C562B"/>
<path d="M26.4372 62.5128C26.1896 62.4979 27.929 60.6071 29.7038 61.1955C30.5079 61.4619 31.2616 61.2648 31.9778 61.0667C32.8411 60.829 33.6491 60.5883 34.4285 61.1687C35.8502 62.2315 35.2187 63.108 35.2187 63.108C35.2187 63.108 30.7229 63.0615 30.2918 65.0286C30.2918 65.0286 28.9451 62.6772 26.4372 62.5128Z" fill="#6C562B"/>
<path d="M38.3363 64.7324C38.2939 64.7433 37.9318 64.6769 37.3971 64.6135C35.9241 64.4362 33.1499 64.2599 32.1673 65.6446C32.1673 65.6446 31.6148 66.0497 32.6813 66.9302C33.7458 67.8068 34.5202 68.0653 34.4946 69.1558C34.4946 69.1558 35.9301 65.9982 41.5348 67.372C47.1395 68.7457 47.7749 66.328 46.6364 65.6436C45.4988 64.9543 43.2346 65.912 43.2346 65.912C43.2346 65.912 42.3665 63.7905 38.3363 64.7324Z" fill="#6C562B"/>
<path d="M41.6078 62.9506C41.6078 62.9506 40.3854 61.4877 38.7132 61.8224C37.0409 62.1582 42.0735 64.463 41.6078 62.9506Z" fill="#775E30"/>
<path d="M31.6572 68.5149C31.6572 68.5149 29.8251 67.056 27.4307 67.7503C27.4307 67.7503 27.2265 70.1165 26.673 70.0799C26.1186 70.0452 25.2386 66.6271 22.3351 66.9064C19.4316 67.1867 18.1451 68.3842 19.3438 69.3687C20.5425 70.3493 26.2616 71.5477 29.7275 71.2546C33.1953 70.9643 32.5185 69.4301 31.6572 68.5149Z" fill="#6C562B"/>
<path d="M39.2677 68.4516C39.2677 68.4516 36.8644 68.1554 35.7762 69.5946C34.688 71.0327 39.6919 70.7465 41.4746 69.9026C43.2613 69.0607 39.539 68.4714 39.2677 68.4516Z" fill="#6C562B"/>
<path d="M31.2478 57.4426C22.2256 57.4426 15.5553 59.9227 15.5553 59.9227C14.2659 60.6161 15.4567 61.6016 17.2641 61.6016C18.0671 61.6016 18.9925 61.4074 19.8745 60.9073C20.6066 60.4942 21.2824 60.3536 21.901 60.3536C22.5265 60.3536 23.0918 60.4962 23.5989 60.6359C24.106 60.7775 24.5509 60.9191 24.9347 60.9191C25.278 60.9191 25.571 60.8062 25.8137 60.4804C26.307 59.8138 27.2413 59.6355 28.0967 59.6355C29.0635 59.6365 29.9267 59.8623 29.9267 59.8623C29.9267 59.8623 30.1251 58.9967 32.7523 58.9967C32.8845 58.9967 33.0226 58.9986 33.1696 59.0046C36.1925 59.1016 36.5773 60.5566 36.5773 60.5566C36.821 59.6296 38.9815 59.6821 39.313 58.86C39.6455 58.0379 38.3896 57.9824 38.3896 57.9824C35.9074 57.5981 33.5041 57.4426 31.2478 57.4426Z" fill="#D09C5D"/>
<path d="M18.5999 63.5745C18.5269 63.4309 17.565 62.8208 15.7842 63.5062C14.0005 64.1916 14.9969 65.1256 16.3614 64.9077C17.7238 64.6908 18.8594 64.0807 18.5999 63.5745Z" fill="#7C6232"/>
<path d="M25.5148 64.1322C25.5148 64.1322 24.2875 63.8994 24.5016 64.3966C24.7157 64.8928 26.7421 64.3659 25.5148 64.1322Z" fill="#7C6232"/>
<path d="M34.8271 62.487C34.8271 62.487 34.3535 60.9904 32.8194 61.2143C31.2843 61.4381 34.758 63.3893 34.8271 62.487Z" fill="#7C6232"/>
<path d="M42.6585 65.8982C42.6585 65.8982 39.7392 64.3847 39.7383 65.8288C39.7363 67.269 43.7517 66.9362 42.6585 65.8982Z" fill="#7C6232"/>
<path d="M34.8271 70.2948C34.761 70.2988 34.6949 70.3048 34.6298 70.3128C34.6613 70.3218 34.6948 70.3248 34.7323 70.3248C34.7501 70.3248 34.7689 70.3248 34.7906 70.3218C34.7975 70.3208 34.8113 70.3108 34.8271 70.2948Z" fill="#463618"/>
<path d="M50.1496 67.5285C49.1551 72.0737 40.7574 75.7582 40.7574 75.7582C40.7574 75.7582 45.5758 74.1655 47.4523 73.0295C49.3307 71.8924 49.9226 69.7897 49.9226 69.7897L50.1496 67.5285Z" fill="#DE9225"/>
<path d="M17.4515 64.1223C17.4515 64.1223 16.1413 62.8951 14.7148 64.2738C13.2872 65.6535 14.0192 66.8797 15.5178 66.7331C17.0174 66.5845 18.956 65.3296 17.4515 64.1223Z" fill="#584521"/>
<path d="M17.5383 64.1025C17.0056 63.6191 16.2321 63.4785 15.5524 63.6726C14.6131 63.943 13.2961 65.3782 14.0932 66.3528C14.7296 67.1313 16.1285 66.7341 16.8704 66.4003C17.3489 66.1844 17.8235 65.8437 18.0346 65.3475C18.2487 64.8552 17.8905 64.4075 17.5383 64.1025L17.3647 64.1411C18.1678 64.8374 17.9073 65.599 17.0983 66.1379C16.3258 66.6569 14.772 67.1154 14.1603 66.1616C13.591 65.2742 14.846 64.1143 15.5307 63.7915C16.1295 63.5092 16.8862 63.7063 17.3637 64.1411L17.5383 64.1025Z" fill="#403215"/>
<path d="M17.7534 64.6205C17.7248 64.7225 17.6705 64.8602 17.567 65.0077C17.6627 65.0157 17.7603 65.0355 17.8521 65.0701C17.859 64.9216 17.8274 64.772 17.7534 64.6205Z" fill="#54401D"/>
<path d="M17.785 64.4561C17.785 64.4561 17.782 64.5214 17.7534 64.6205C17.8274 64.771 17.859 64.9216 17.8521 65.0692C17.8994 65.086 17.9458 65.1058 17.9902 65.1296C18.0149 64.9127 17.9547 64.6868 17.785 64.4561Z" fill="#3D2E12"/>
<path d="M14.0232 65.5743C14.0024 65.7734 14.0419 65.9744 14.1623 66.1616C14.4218 66.5647 14.8479 66.7153 15.3156 66.7153C15.7082 66.7153 16.1295 66.6093 16.4985 66.4558C16.3456 66.2092 16.388 65.9229 16.5291 65.6694C16.4561 65.6902 16.3791 65.707 16.2972 65.7238C16.2972 65.7238 15.6412 66.0794 15.0423 66.0794C14.8904 66.0794 14.7424 66.0566 14.6092 65.9982C14.2659 65.8506 14.0745 65.7318 14.0232 65.5743Z" fill="#54401D"/>
<path d="M14.1948 64.9186C13.5911 65.9378 14.1741 66.746 15.2801 66.746C15.357 66.746 15.436 66.742 15.5188 66.7341C15.8444 66.7004 16.1937 66.6153 16.5222 66.4905C16.5133 66.4786 16.5064 66.4677 16.4995 66.4558C16.1305 66.6083 15.7092 66.7153 15.3166 66.7153C14.8489 66.7153 14.4227 66.5657 14.1633 66.1616C14.0429 65.9754 14.0044 65.7734 14.0242 65.5743C13.9758 65.4277 14.0449 65.2484 14.2175 64.9761L14.1948 64.9186Z" fill="#3D2E12"/>
<path d="M16.2755 63.942C15.43 63.942 14.7621 64.8037 14.7621 64.8037C14.6309 64.98 14.5757 65.1088 14.5757 65.1969C14.5757 65.3207 14.6842 65.3683 14.842 65.3683C15.1479 65.3683 15.6372 65.186 15.8247 65.0642C16.092 64.8889 17.048 64.5898 17.046 64.2946C17.046 64.1995 16.9454 64.1054 16.6958 64.0153C16.5528 63.9638 16.4107 63.942 16.2755 63.942Z" fill="#654E21"/>
<path d="M18.1431 65.3128C18.1431 65.3128 17.4762 64.666 16.833 65.4089C16.1858 66.1507 16.5685 66.8015 17.2868 66.7123C18.0001 66.6271 18.8959 65.9457 18.1431 65.3128Z" fill="#584521"/>
<path d="M18.2299 65.295C17.9951 65.0771 17.6074 64.9443 17.2907 65.0335C16.7333 65.1949 16.092 66.0061 16.5656 66.5469C17.2118 67.2848 19.1997 66.2072 18.2299 65.295L18.0563 65.3267C18.9492 66.1676 17.1329 67.1501 16.6613 66.4033C16.4097 66.0041 16.8468 65.4663 17.1319 65.2326C17.419 64.9998 17.8087 65.0959 18.0573 65.3267L18.2299 65.295Z" fill="#403215"/>
<path d="M44.2972 66.4687C44.2972 66.4687 42.9871 65.2445 41.5595 66.6212C40.1339 68.0009 40.8649 69.2281 42.3625 69.0795C43.8631 68.9329 45.8027 67.676 44.2972 66.4687Z" fill="#584521"/>
<path d="M44.3742 66.4667C43.8769 66.0141 43.1646 65.8378 42.5155 65.9695C41.5259 66.1705 40.1279 67.679 40.9478 68.6823C41.592 69.4708 42.9624 69.1073 43.7211 68.7665C44.1995 68.5516 44.6672 68.2139 44.8793 67.7176C45.0924 67.2254 44.7224 66.7678 44.3742 66.4667C44.3367 66.434 44.1443 66.4053 44.2222 66.4736C46.1372 68.1307 41.7528 70.0749 40.9596 68.4446C40.5413 67.5879 41.6078 66.5885 42.2491 66.223C42.8716 65.8675 43.7003 65.9982 44.2222 66.4736C44.2597 66.5073 44.4521 66.536 44.3742 66.4667Z" fill="#403215"/>
<path d="M43.3659 68.0177C43.2948 68.0366 43.2218 68.0544 43.1409 68.0693C43.1409 68.0693 42.4839 68.4278 41.885 68.4278C41.8386 68.4278 41.7933 68.4248 41.7459 68.4199C41.5585 68.4862 41.3375 68.5496 41.0691 68.6229C41.3089 68.929 41.7124 69.0597 42.1672 69.0597C42.548 69.0597 42.9634 68.9666 43.3452 68.8101C43.1577 68.5724 43.209 68.2792 43.3659 68.0177ZM44.604 66.9481C44.5774 67.0501 44.5231 67.1967 44.4126 67.3522C44.5103 67.3621 44.605 67.3848 44.6987 67.4215C44.7106 67.266 44.682 67.1075 44.604 66.9481Z" fill="#54401D"/>
<path d="M41.0701 68.6229C41.0455 68.6289 41.0208 68.6368 40.9961 68.6437C41.2191 68.922 41.6147 69.0924 42.1208 69.0924C42.1998 69.0924 42.2797 69.0874 42.3635 69.0795C42.6891 69.0478 43.0403 68.9626 43.3698 68.8359C43.3679 68.8339 43.3669 68.8339 43.3669 68.8339C43.361 68.8269 43.3531 68.8161 43.3472 68.8111C42.9644 68.9676 42.549 69.0607 42.1692 69.0607C41.7134 69.0607 41.3099 68.929 41.0701 68.6229ZM44.6297 66.8054C44.6297 66.8054 44.6257 66.8599 44.604 66.9481C44.682 67.1075 44.7106 67.266 44.6988 67.4225C44.7461 67.4413 44.7915 67.4601 44.8349 67.4849C44.8606 67.265 44.8023 67.0362 44.6297 66.8054Z" fill="#3D2E12"/>
<path d="M43.1232 66.2884C42.9811 66.2884 42.846 66.3122 42.7157 66.3528C43.0729 66.5222 43.2583 66.7618 43.0472 67.1501C43.0275 67.1858 43.0097 67.2184 42.991 67.2521C43.3718 67.0808 43.8947 66.8619 43.8907 66.643C43.8907 66.5479 43.7911 66.4538 43.5405 66.3627C43.3984 66.3102 43.2593 66.2884 43.1232 66.2884Z" fill="#654E21"/>
<path d="M44.9858 67.6612C44.9858 67.6612 44.3219 67.0134 43.6767 67.7553C43.0295 68.5001 43.4142 69.1489 44.1315 69.0607C44.8457 68.9735 45.7416 68.2951 44.9858 67.6612Z" fill="#584521"/>
<path d="M45.0746 67.6532C44.8447 67.4393 44.4521 67.2858 44.1393 67.3769C43.6579 67.5146 42.914 68.3159 43.3669 68.8339C44.0604 69.6262 46.0533 68.5694 45.0746 67.6532L44.898 67.6681C45.8037 68.5179 43.9637 69.4856 43.5079 68.7616C43.3037 68.4387 43.575 68.0247 43.7704 67.781C44.0594 67.4205 44.5606 67.3512 44.898 67.6681L45.0746 67.6532Z" fill="#403215"/>
<path d="M10.2574 67.8097C10.2574 67.8097 10.2633 69.9382 10.4695 70.4196C10.6757 70.901 11.2598 71.7112 11.2598 71.7112C16.532 75.7562 24.7976 76.5585 30.6154 76.5585C34.3417 76.5585 37.0676 76.2296 37.3586 76.2108C38.1074 76.1653 37.8114 72.9839 37.8114 72.9839C34.8063 73.286 32.1169 73.4157 29.7057 73.4157C13.9275 73.4147 10.2574 67.8097 10.2574 67.8097Z" fill="#FAB64F"/>
<path d="M24.6081 66.4944C24.6081 66.4944 23.001 65.5683 23.1145 65.1028C23.223 64.6502 21.9227 63.7093 24.0714 63.7093C24.1346 63.7093 24.1997 63.7102 24.2678 63.7122C26.6888 63.7717 27.5027 64.7581 27.5027 64.7581C25.2928 64.874 24.6081 66.4944 24.6081 66.4944ZM24.6121 66.6994C24.8804 66.6994 25.1379 66.5073 25.1379 66.5073C25.8197 65.5456 28.5268 65.9754 28.3127 64.98C28.0996 63.9866 24.1543 62.7337 24.1543 62.7337C24.3132 62.7228 24.4681 62.7178 24.622 62.7178C28.4657 62.7178 30.4299 65.917 30.4299 65.917C31.1876 64.4234 33.4153 64.0312 34.4295 64.0312C35.0363 64.0312 35.2069 64.1738 34.3535 64.3045C32.0804 64.6542 31.2646 66.5479 31.2646 66.5479C33.0197 67.06 34.3368 69.2013 33.7577 69.2013C33.5791 69.2013 33.2219 68.9993 32.6438 68.4862C31.3958 67.3789 29.4769 67.0659 28.0168 67.0659C26.5961 67.0659 25.6135 67.364 26.1127 67.5176C27.1278 67.8325 26.7658 69.7154 26.7658 69.7154C26.4698 67.8434 23.5604 66.6479 23.5604 66.6479C22.9231 66.5053 22.3588 66.4459 21.8615 66.4459C20.7112 66.4459 19.916 66.7708 19.3744 67.166C19.0113 67.5245 18.6542 67.9811 18.3079 68.5566C18.3079 68.5566 18.5378 67.7781 19.3744 67.166C20.2998 66.2547 21.2528 65.9764 22.0825 65.9764C23.3059 65.9764 24.253 66.5836 24.4167 66.6588C24.4809 66.6876 24.546 66.6994 24.6121 66.6994ZM27.1101 61.767C26.6415 61.767 26.1472 61.8185 25.6381 61.9017C25.5355 62.0116 25.4379 62.1265 25.3451 62.2473L25.1784 62.2236C25.1024 62.1582 25.0255 62.0948 24.9466 62.0344C23.4381 62.3583 21.8862 62.9099 20.7033 63.32C20.2445 63.6885 20.061 64.0252 20.6263 64.0331C21.7875 64.051 23.004 65.5466 21.3525 65.5466C21.2647 65.5466 21.169 65.5426 21.0644 65.5327C20.9342 65.5228 20.8108 65.5158 20.6934 65.5158C18.9492 65.5158 18.5614 66.6777 17.5877 67.5136C17.4061 67.6681 17.1862 67.7939 16.9395 67.887C17.1319 68.0554 17.3825 68.2218 17.6883 68.3852C18.3039 68.717 18.7223 68.9418 19.1119 69.1409C18.3493 68.2069 19.6506 67.166 22.3351 66.9065C22.4485 66.8965 22.56 66.8896 22.6695 66.8896C25.3066 66.8896 26.1403 70.0462 26.674 70.0799C26.678 70.0799 26.6829 70.0809 26.6878 70.0809C27.2314 70.0809 27.4317 67.7503 27.4317 67.7503C27.8924 67.6176 28.3325 67.5641 28.7419 67.5641C30.4635 67.5641 31.6582 68.515 31.6582 68.515C32.3725 69.2736 32.9595 70.4572 31.164 71.006C31.5842 70.9238 32.0193 70.8168 32.4721 70.7098C33.1509 70.5494 33.8671 70.3899 34.6308 70.3126C33.9461 70.1363 34.7925 68.095 37.7858 67.5146C38.2959 67.4146 38.7793 67.3739 39.2321 67.3739C39.8014 67.3739 40.3213 67.4393 40.7831 67.5403C40.8196 67.4373 40.8659 67.3353 40.9222 67.2343C40.1743 67.0897 39.5104 67.0253 38.9184 67.0253C35.4674 67.0253 34.4976 69.1548 34.4976 69.1548C34.5232 68.0633 33.7488 67.8058 32.6842 66.9292C31.6178 66.0487 32.1702 65.6436 32.1702 65.6436C32.8214 64.7255 34.2618 64.4947 35.5867 64.4947C36.2606 64.4947 36.9038 64.5541 37.4001 64.6125C37.8963 64.673 38.2446 64.7314 38.3255 64.7314C38.3314 64.7314 38.3363 64.7314 38.3393 64.7314C38.6234 64.665 38.8928 64.6145 39.1453 64.5759C37.847 64.156 35.8225 63.7905 35.5512 63.0942C35.5039 62.9704 35.4319 62.8693 35.3441 62.7871C35.3066 62.9892 35.2207 63.108 35.2207 63.108C35.2207 63.108 35.2109 63.108 35.1961 63.108C34.8271 63.108 30.7062 63.1506 30.2938 65.0285C30.2938 65.0285 28.9471 62.6772 26.4392 62.5128C26.3268 62.5068 26.6079 62.1305 27.1101 61.767Z" fill="#3C2C13"/>
<path d="M25.3362 61.9552C25.2366 61.9742 25.1389 61.9952 25.0412 62.0162C25.0412 62.0162 25.0452 62.0192 25.0491 62.0232C25.0797 62.0382 25.1113 62.0482 25.1438 62.0482C25.1991 62.0482 25.2593 62.0202 25.3362 61.9552Z" fill="#875723"/>
<path d="M21.5014 70.276C21.5379 70.2928 21.5744 70.3077 21.6119 70.3265C22.2995 70.6415 23.1727 70.792 24.0961 70.8643C23.1579 70.6979 22.263 70.4949 21.5014 70.276ZM25.0412 62.0146H25.0373C25.0373 62.0146 25.0452 62.0175 25.0491 62.0215C25.0452 62.0175 25.0432 62.0156 25.0432 62.0156L25.0412 62.0146Z" fill="#3C2C13"/>
<path d="M25.6381 61.9017C25.5375 61.9185 25.4349 61.9363 25.3352 61.9552C25.2593 62.0195 25.1981 62.0473 25.1429 62.0473C25.1113 62.0473 25.0787 62.0364 25.0482 62.0225C25.0442 62.0185 25.0403 62.0166 25.0403 62.0166C25.0067 62.0215 24.9771 62.0275 24.9456 62.0344C25.0245 62.0958 25.1014 62.1582 25.1774 62.2236L25.3441 62.2473C25.4378 62.1275 25.5355 62.0126 25.6381 61.9017Z" fill="#2B200C"/>
<path d="M20.7033 63.319C20.3678 63.4349 20.063 63.5379 19.7956 63.6241C17.8728 64.2293 19.8164 64.6304 18.3681 65.4554C18.8249 66.1121 17.9172 66.7935 17.1812 66.7935C16.974 66.7935 16.7806 66.7391 16.6336 66.6163C16.3446 67.0461 16.463 67.471 16.9395 67.887C17.1862 67.7939 17.4071 67.6681 17.5877 67.5136C18.5614 66.6777 18.9492 65.5159 20.6934 65.5159C20.8108 65.5159 20.9342 65.5228 21.0644 65.5327C21.169 65.5426 21.2646 65.5466 21.3525 65.5466C23.004 65.5466 21.7866 64.05 20.6263 64.0331C20.061 64.0242 20.2455 63.6875 20.7033 63.319Z" fill="#493719"/>
<path d="M25.0482 64.6036C24.7936 64.6036 24.5657 64.5462 24.5016 64.3966C24.3911 64.1391 24.6644 64.0787 24.9544 64.0787C25.2277 64.0787 25.5148 64.1332 25.5148 64.1332C26.3741 64.2956 25.6401 64.6036 25.0482 64.6036ZM24.0714 63.7083C21.9227 63.7083 23.224 64.6492 23.1144 65.1018C23.001 65.5683 24.6081 66.4934 24.6081 66.4934C24.6081 66.4934 25.2918 64.873 27.5037 64.7562C27.5037 64.7562 26.6898 63.7697 24.2688 63.7102C24.1997 63.7093 24.1346 63.7083 24.0714 63.7083Z" fill="#493719"/>
<path d="M27.1327 61.767C27.1249 61.767 27.117 61.767 27.117 61.767C26.6069 62.1295 26.3257 62.5058 26.4372 62.5128C28.9451 62.6772 30.2918 65.0285 30.2918 65.0285C30.7042 63.1506 34.8251 63.108 35.1941 63.108C35.2099 63.108 35.2187 63.108 35.2187 63.108C35.2187 63.108 35.3046 62.9892 35.3421 62.7871C35.202 62.6594 35.0214 62.5782 34.8202 62.5266C34.7915 62.6663 34.6682 62.7228 34.4896 62.7228C34.2667 62.7228 33.9618 62.6326 33.654 62.4959C33.2663 62.5445 32.9743 62.6227 32.9743 62.6227C31.8604 62.2701 30.9824 62.798 28.5801 61.976C28.1519 61.8284 27.6625 61.767 27.1327 61.767Z" fill="#493719"/>
<path d="M35.5838 64.4947C34.2588 64.4947 32.8184 64.7255 32.1673 65.6436C32.1673 65.6436 31.6148 66.0487 32.6813 66.9292C33.7458 67.8058 34.5202 68.0643 34.4946 69.1548C34.4946 69.1548 35.4644 67.0253 38.9154 67.0253C39.5084 67.0253 40.1713 67.0887 40.9192 67.2343C41.006 67.0788 41.1155 66.9292 41.2378 66.7886C40.4782 66.7391 39.7363 66.4469 39.7363 65.8288C39.7363 65.4495 39.9355 65.2742 40.2315 65.2227C40.1753 64.9711 39.7343 64.768 39.1414 64.5769C38.8878 64.6155 38.6194 64.666 38.3353 64.7324C38.3324 64.7324 38.3274 64.7324 38.3215 64.7324C38.2406 64.7324 37.8914 64.673 37.3961 64.6135C36.9008 64.5541 36.2576 64.4947 35.5838 64.4947Z" fill="#493719"/>
<path d="M22.6695 66.8886C22.561 66.8886 22.4485 66.8956 22.3351 66.9055C19.6506 67.165 18.3493 68.2059 19.1119 69.1399C19.7414 69.4628 20.2988 69.7233 21.5014 70.276C22.2631 70.4949 23.1579 70.6979 24.0971 70.8643C25.9262 71.0099 27.9605 70.8554 29.1671 71.0892C29.393 71.1347 29.6269 71.1525 29.8626 71.1525C30.28 71.1525 30.7121 71.0931 31.1629 71.006C32.9585 70.4572 32.3715 69.2736 31.6572 68.515C31.6572 68.515 30.4625 67.5641 28.7409 67.5641C28.3315 67.5641 27.8914 67.6176 27.4307 67.7503C27.4307 67.7503 27.2304 70.0809 26.6868 70.0809C26.6819 70.0809 26.677 70.0799 26.673 70.0799C26.1403 70.0452 25.3056 66.8886 22.6695 66.8886Z" fill="#493719"/>
<path d="M24.9544 64.0777C24.6644 64.0777 24.3911 64.1391 24.5016 64.3956C24.5647 64.5452 24.7936 64.6027 25.0482 64.6027C25.6411 64.6027 26.3751 64.2956 25.5158 64.1322C25.5158 64.1322 25.2277 64.0777 24.9544 64.0777Z" fill="#543F1C"/>
<path d="M34.2026 62.4603C34.0132 62.4603 33.8237 62.4761 33.6541 62.4969C33.9619 62.6336 34.2667 62.7237 34.4897 62.7237C34.6682 62.7237 34.7916 62.6663 34.8202 62.5276C34.6258 62.4791 34.4137 62.4603 34.2026 62.4603Z" fill="#543F1C"/>
<path d="M40.2335 65.2227C39.9376 65.2752 39.7383 65.4495 39.7383 65.8288C39.7383 66.4469 40.4802 66.7391 41.2398 66.7886C41.4776 66.5182 41.7706 66.2874 42.0607 66.1379C41.1964 65.9229 40.1398 65.81 40.2355 65.3277C40.2424 65.292 40.2424 65.2563 40.2335 65.2227Z" fill="#543F1C"/>
<path d="M19.3753 67.1669C18.5377 67.779 18.3088 68.5575 18.3088 68.5575C18.6541 67.9821 19.0123 67.5255 19.3753 67.1669ZM24.6219 62.7178C24.469 62.7178 24.3132 62.7228 24.1543 62.7337C24.1543 62.7337 28.0996 63.9866 28.3127 64.98C28.5268 65.9754 25.8206 65.5456 25.1379 66.5073C25.1379 66.5073 24.8794 66.6994 24.6121 66.6994C24.546 66.6994 24.4799 66.6876 24.4177 66.6598C24.254 66.5845 23.3068 65.9774 22.0835 65.9774C21.2538 65.9774 20.2998 66.2557 19.3753 67.1669C19.917 66.7727 20.7112 66.4469 21.8625 66.4469C22.3597 66.4469 22.9231 66.5073 23.5614 66.6489C23.5614 66.6489 26.4708 67.8444 26.7668 69.7164C26.7668 69.7164 27.1288 67.8345 26.1136 67.5186C25.6134 67.365 26.5961 67.0669 28.0177 67.0669C29.4779 67.0669 31.3977 67.3789 32.6448 68.4872C33.2229 69.0003 33.58 69.2023 33.7586 69.2023C34.3377 69.2023 33.0207 67.061 31.2656 66.5489C31.2656 66.5489 32.0814 64.6551 34.3545 64.3055C35.2079 64.1738 35.0372 64.0321 34.4305 64.0321C33.4172 64.0321 31.1896 64.4244 30.4309 65.918C30.4299 65.918 28.4656 62.7178 24.6219 62.7178Z" fill="#2F230E"/>
<path d="M39.7974 68.0732C36.1826 68.0732 35.0708 70.0393 34.8271 70.2948C35.0599 70.275 35.2987 70.2641 35.5414 70.2641C35.6045 70.2641 35.6647 70.2661 35.7259 70.2671C35.7476 70.2681 35.7693 70.2681 35.79 70.2681C35.5858 70.1086 35.5562 69.8877 35.7762 69.5955C36.5447 68.5754 37.9752 68.4258 38.7438 68.4258C39.0615 68.4258 39.2677 68.4516 39.2677 68.4516C39.3762 68.4595 40.0382 68.5566 40.6795 68.7279C40.7682 68.7051 40.8521 68.6814 40.932 68.6596C40.7979 68.4882 40.7268 68.302 40.7071 68.1099C40.3874 68.0841 40.0845 68.0732 39.7974 68.0732Z" fill="#3C2C13"/>
<path d="M38.7438 68.4258C37.9752 68.4258 36.5447 68.5744 35.7761 69.5956C35.5552 69.8877 35.5857 70.1086 35.79 70.2681C35.8482 70.2701 35.9024 70.2701 35.9577 70.2701C38.3659 70.2701 38.4754 69.3687 40.2364 68.8557C40.3963 68.8081 40.5443 68.7675 40.6794 68.7289C40.0382 68.5576 39.3771 68.4605 39.2676 68.4526C39.2676 68.4526 39.0614 68.4258 38.7438 68.4258Z" fill="#493719"/>
<path d="M39.2311 67.3739C38.7783 67.3739 38.2949 67.4145 37.7848 67.5146C34.7916 68.095 33.9441 70.1363 34.6298 70.3126C34.6949 70.3047 34.761 70.2988 34.8271 70.2948C35.0708 70.0393 36.1826 68.0732 39.7974 68.0732C40.0845 68.0732 40.3874 68.0851 40.7071 68.1108C40.6873 67.9217 40.7169 67.7295 40.7821 67.5403C40.3203 67.4393 39.8004 67.3739 39.2311 67.3739Z" fill="#2F230E"/>
<path d="M18.222 65.5357C18.1648 65.5624 18.1046 65.5931 18.0385 65.6228C17.4061 65.912 16.975 66.2022 16.7303 66.4905C16.8487 66.6153 17.0194 66.6687 17.2029 66.6687C17.7978 66.6687 18.5427 66.1032 18.222 65.5357Z" fill="#3C2C13"/>
<path d="M18.3681 65.4544C18.3237 65.4812 18.2743 65.5089 18.222 65.5357C18.5427 66.1032 17.7978 66.6687 17.2029 66.6687C17.0194 66.6687 16.8497 66.6153 16.7303 66.4905C16.6938 66.5321 16.6622 66.5737 16.6336 66.6153C16.7796 66.7381 16.974 66.7926 17.1812 66.7926C17.9172 66.7926 18.8248 66.1111 18.3681 65.4544Z" fill="#2B200C"/>
<path d="M42.2915 66.1973C42.2767 66.2052 42.2629 66.2141 42.2481 66.222C41.7331 66.5152 40.9438 67.2194 40.8698 67.9296C40.9261 68.0841 41.1165 68.199 41.4539 68.3466C41.5466 68.3872 41.6443 68.411 41.7469 68.4199C42.3053 68.2228 42.5855 67.9771 42.992 67.2511C42.8578 67.3106 42.7404 67.364 42.6713 67.4096C42.4839 67.5324 41.9926 67.7157 41.6867 67.7157C41.5318 67.7157 41.4213 67.6691 41.4213 67.5443C41.4213 67.4562 41.4766 67.3274 41.6068 67.1501C41.6068 67.1501 42.0725 66.5519 42.7167 66.3528C42.5914 66.2944 42.4464 66.2438 42.2915 66.1973Z" fill="#3C2C13"/>
<path d="M42.0606 66.1378C41.7706 66.2874 41.4776 66.5182 41.2398 66.7886C41.1175 66.9302 41.008 67.0788 40.9211 67.2343C40.8649 67.3353 40.8186 67.4373 40.7821 67.5403C40.7169 67.7295 40.6873 67.9227 40.7071 68.1108C40.7268 68.302 40.7978 68.4892 40.932 68.6605C40.9537 68.6546 40.9754 68.6487 40.9961 68.6437C40.7317 68.3109 40.713 67.8206 41.0405 67.266L41.0622 67.3254C40.8837 67.6008 40.8176 67.783 40.8698 67.9296C40.9438 67.2194 41.7331 66.5152 42.2481 66.222C42.2629 66.2131 42.2767 66.2042 42.2915 66.1973C42.2175 66.1765 42.1406 66.1557 42.0606 66.1378Z" fill="#2B200C"/>
<path d="M40.8699 67.9296C40.8511 68.1029 40.8768 68.2782 40.9596 68.4446C40.9902 68.511 41.0267 68.5694 41.0701 68.6239C41.3375 68.5506 41.5585 68.4872 41.7469 68.4209C41.6453 68.4119 41.5467 68.3882 41.4539 68.3476C41.1165 68.2 40.9261 68.0841 40.8699 67.9296Z" fill="#392911"/>
<path d="M41.0405 67.266C40.713 67.8206 40.7317 68.3109 40.9961 68.6437C41.0208 68.6368 41.0455 68.6289 41.0701 68.6229C41.0267 68.5684 40.9902 68.511 40.9596 68.4436C40.8768 68.2773 40.8521 68.1019 40.8698 67.9286C40.8176 67.782 40.8846 67.5998 41.0622 67.3244L41.0405 67.266Z" fill="#291D0A"/>
<path d="M42.7157 66.3528C42.0715 66.5519 41.6058 67.1501 41.6058 67.1501C41.4756 67.3284 41.4204 67.4572 41.4204 67.5443C41.4204 67.6691 41.5299 67.7157 41.6858 67.7157C41.9926 67.7157 42.4829 67.5334 42.6704 67.4096C42.7394 67.3641 42.8568 67.3096 42.991 67.2511C43.0097 67.2184 43.0275 67.1858 43.0472 67.1491C43.2584 66.7619 43.0729 66.5222 42.7157 66.3528Z" fill="#453213"/>
<path d="M28.4509 66.4815C28.4509 66.4815 31.2142 34.6254 19.8361 22.5191L21.2015 21.1493C21.2015 21.1493 33.8208 36.4825 30.5848 66.1666C30.5848 66.1666 30.4654 67.0392 28.4509 66.4815Z" fill="#8EAE2E"/>
<path d="M28.4508 66.4815L28.6393 66.4984C28.6393 66.4944 28.9343 63.0853 28.9343 58.0726C28.9343 52.9083 28.6215 46.0494 27.3498 39.449C26.0742 32.8525 23.8435 26.5096 19.9742 22.3873L19.8351 22.5191L19.9712 22.6548L21.3347 21.282L21.2005 21.1493L21.0545 21.2701L21.0831 21.3028C21.6454 22.008 30.9261 33.9777 30.9261 56.5988C30.9261 59.5939 30.7643 62.7753 30.3954 66.1458L30.5838 66.1666L30.3964 66.1418L30.4891 66.1527L30.3964 66.1369V66.1418L30.4891 66.1527L30.3964 66.1369C30.3964 66.1369 30.3815 66.2121 30.2888 66.2944C30.1911 66.3756 30.0008 66.4756 29.6071 66.4756C29.3397 66.4756 28.9777 66.43 28.5012 66.2973L28.4508 66.4815L28.3995 66.6658C28.8987 66.8054 29.2934 66.8579 29.6061 66.8579C30.0915 66.8579 30.3954 66.7202 30.568 66.5558C30.7387 66.3894 30.7683 66.2181 30.7713 66.1923V66.1884C31.1402 62.8069 31.304 59.6088 31.304 56.5988C31.304 33.1368 21.3652 21.0482 21.3465 21.0264L21.2133 20.866L19.5707 22.5141L19.6979 22.6508C23.4864 26.677 25.7121 32.9575 26.9779 39.5213C28.2417 46.085 28.5564 52.9251 28.5564 58.0716C28.5564 60.5685 28.4834 62.6683 28.4084 64.1451C28.3719 64.881 28.3364 65.4614 28.3068 65.8576C28.294 66.0566 28.2831 66.2062 28.2762 66.3092C28.2664 66.4122 28.2624 66.4647 28.2624 66.4647L28.2486 66.6222L28.3995 66.6638L28.4508 66.4815Z" fill="#369626"/>
<path d="M27.9043 44.4201C27.9043 44.4201 20.7772 30.2724 3.47667 35.0315C3.47667 35.0315 0.233812 35.2573 3.51319 37.6305C6.79256 40.0036 13.7844 54.5089 27.9043 44.4201Z" fill="#8EAE2E"/>
<path d="M27.9043 44.4201L28.074 44.3349C28.068 44.322 26.752 41.7112 23.8771 39.0964C21.0022 36.4816 16.5587 33.8628 10.3275 33.8628C8.23098 33.8628 5.93424 34.1589 3.42736 34.8483L3.47767 35.0315L3.46484 34.8413C3.45498 34.8433 3.08799 34.8671 2.70224 34.9959C2.51084 35.0612 2.31056 35.1514 2.14777 35.293C2.0649 35.3643 1.9919 35.4475 1.93961 35.5495C1.88732 35.6496 1.85672 35.7694 1.85672 35.8942C1.85869 36.1497 1.9761 36.4211 2.2188 36.7272C2.46445 37.0352 2.8433 37.3789 3.40171 37.785C3.98181 38.202 4.72668 39.0647 5.61755 40.1165C6.95831 41.6924 8.64929 43.6931 10.7704 45.3055C12.8896 46.918 15.4468 48.1412 18.5072 48.1392C21.2666 48.1412 24.4227 47.1438 28.0158 44.5766L28.149 44.4805L28.075 44.3349L27.9043 44.4201L27.7948 44.2666C24.248 46.8001 21.1749 47.7599 18.5072 47.7599C16.535 47.7599 14.7818 47.2359 13.2122 46.4178C10.8612 45.1936 8.93047 43.3028 7.36083 41.5487C6.57552 40.6702 5.87997 39.8283 5.26237 39.1162C4.64478 38.406 4.10811 37.8276 3.62468 37.476C3.08404 37.0857 2.72786 36.7539 2.51575 36.4895C2.30068 36.222 2.23557 36.024 2.23656 35.8942L2.277 35.7258C2.32139 35.6387 2.41019 35.5545 2.53351 35.4851C2.71504 35.3802 2.95774 35.3089 3.15407 35.2712C3.25174 35.2504 3.33759 35.2405 3.39875 35.2316L3.46779 35.2227H3.48556L3.49149 35.2207L3.50925 35.2197L3.52701 35.2148C6.00332 34.5333 8.26551 34.2441 10.3275 34.2441C16.4501 34.2441 20.795 36.8084 23.6235 39.3796C25.0363 40.6643 26.0653 41.9479 26.7411 42.9106C27.0795 43.391 27.3281 43.7931 27.4939 44.0724C27.5767 44.2121 27.6379 44.323 27.6774 44.3963L27.7237 44.4805L27.7385 44.5072L27.9043 44.4201Z" fill="#369626"/>
<path d="M27.2591 43.8149C27.2591 43.8149 12.3697 37.2066 2.91829 36.3795C2.91829 36.3795 1.07633 35.7248 5.03743 35.5297C8.99853 35.3356 16.2578 31.8145 27.2591 43.8149Z" fill="#A4B526"/>
<path d="M21.0367 24.0662C21.0367 24.0662 18.7844 23.8928 17.856 23.1936C16.9306 22.4933 19.6092 22.4676 20.8631 23.5947L21.0841 24.3266L21.0367 24.0662Z" fill="#A4B526"/>
<path d="M7.7811 12.3411C7.7811 12.3411 3.92458 5.98138 5.89773 5.58222C7.87286 5.18406 11.7402 7.02136 13.1708 8.90224C14.6013 10.7811 17.4969 17.958 7.7811 12.3411Z" fill="#DB565A"/>
<path d="M7.78111 12.3411L7.86005 12.2916C7.86005 12.2916 7.82453 12.2292 7.75744 12.1173C7.52461 11.7201 6.93956 10.6999 6.41668 9.57971C6.15425 9.0211 5.90564 8.43673 5.72805 7.89296C5.54554 7.35118 5.4311 6.84902 5.4311 6.46373C5.4311 6.24088 5.47056 6.05467 5.54948 5.92492C5.62742 5.79616 5.73694 5.71197 5.9165 5.67533C6.09507 5.63868 6.29139 5.62085 6.49857 5.62085C7.51178 5.62085 8.84858 6.03486 10.0857 6.66182C11.3219 7.28581 12.4614 8.12572 13.0958 8.9577C13.4026 9.36181 13.7864 10.0244 14.0903 10.7504C14.3951 11.4755 14.6181 12.2639 14.6181 12.9116C14.6181 13.3355 14.5224 13.6961 14.3043 13.9457C14.0843 14.1972 13.738 14.3507 13.1905 14.3507C12.1635 14.3537 10.4616 13.7802 7.82747 12.2589L7.78111 12.3411L7.73179 12.4253C10.3807 13.9536 12.0954 14.5429 13.1885 14.5449C13.7706 14.5449 14.184 14.3725 14.4434 14.0724C14.7049 13.7733 14.8046 13.3652 14.8046 12.9126C14.8046 12.2232 14.5737 11.418 14.2619 10.6771C13.9531 9.93826 13.5674 9.26475 13.2438 8.84182C12.5818 7.97418 11.4245 7.12635 10.1686 6.48949C8.91371 5.85559 7.5611 5.43366 6.49659 5.43167C6.27658 5.43167 6.06941 5.45049 5.87802 5.48813C5.65505 5.53171 5.48633 5.65453 5.38175 5.82687C5.28013 6.00317 5.23871 6.2181 5.23871 6.46472C5.23871 6.94807 5.39657 7.55323 5.62644 8.19307C6.32 10.1195 7.69626 12.3887 7.69626 12.3887L7.71204 12.4114L7.7308 12.4253L7.78111 12.3411Z" fill="#FF6243"/>
<path d="M19.6822 16.709C19.6822 16.709 18.1865 12.7928 17.8442 11.0793C17.4999 9.36577 17.1141 5.74466 11.6889 3.06745C6.25884 0.388258 10.3176 4.3808 11.0447 6.99263C11.7708 9.60447 10.6777 13.3266 15.5445 16.3247C20.4093 19.3219 19.6822 16.709 19.6822 16.709Z" fill="#E45A5E"/>
<path d="M19.6822 16.709L19.771 16.6744C19.771 16.6744 19.6762 16.4307 19.5322 16.0375C19.0961 14.8579 18.1895 12.3322 17.9349 11.0624C17.7652 10.2096 17.5808 8.86064 16.756 7.38981C15.9292 5.91898 14.4582 4.32731 11.7294 2.98425C11.0921 2.6683 10.5859 2.44445 10.1854 2.29984C9.78287 2.15325 9.4928 2.08591 9.27279 2.08392C9.12974 2.08392 9.01236 2.11661 8.92752 2.1899C8.84366 2.26518 8.80911 2.37611 8.81009 2.491C8.81305 2.71881 8.92554 3.00406 9.09326 3.34379C9.34484 3.84991 9.72958 4.47291 10.0897 5.11869C10.4518 5.76348 10.7902 6.43303 10.9539 7.01938C11.314 8.30103 11.2213 9.88774 11.6514 11.5378C12.0796 13.1889 13.0435 14.8985 15.4941 16.4069C17.2739 17.5004 18.3108 17.857 18.9412 17.8609C19.2895 17.8609 19.5233 17.7421 19.6535 17.5687C19.7857 17.3984 19.8163 17.1904 19.8163 17.026C19.8163 16.8348 19.7749 16.6892 19.7739 16.6833V16.6803L19.771 16.6744L19.6822 16.709L19.5894 16.7348L19.5914 16.7378C19.5973 16.7615 19.6249 16.8814 19.6249 17.025C19.6249 17.1676 19.5963 17.332 19.5016 17.4519C19.4099 17.5717 19.252 17.6658 18.9403 17.6708C18.3818 17.6727 17.3588 17.332 15.5908 16.2455C13.1767 14.7558 12.2552 13.1038 11.832 11.4893C11.4097 9.87784 11.5025 8.29806 11.1325 6.96787C10.9066 6.14976 10.3679 5.21674 9.88844 4.38872C9.64771 3.97372 9.42277 3.58645 9.25801 3.25663C9.09522 2.92978 8.99558 2.65542 8.99854 2.491C8.99854 2.40879 9.01628 2.36224 9.0518 2.33352C9.08633 2.30182 9.15343 2.27508 9.27084 2.27508C9.44941 2.27508 9.72861 2.33748 10.1183 2.47813C10.509 2.62174 11.0112 2.84163 11.6435 3.15461C14.3438 4.48678 15.7793 6.04675 16.5892 7.4839C17.3973 8.92205 17.5758 10.2394 17.7485 11.1011C17.9221 11.9667 18.3838 13.3732 18.8002 14.5706C19.2165 15.7631 19.5914 16.7447 19.5914 16.7447L19.6822 16.709Z" fill="#FF6243"/>
<path d="M13.7844 20.6065C13.7844 20.6065 10.5475 18.4047 9.06858 17.7114C7.59167 17.0181 4.4021 15.8454 3.0505 10.5226C1.6979 5.2009 4.50174 9.63815 6.71562 10.8733C8.9285 12.1084 12.4999 12.0202 14.2501 16.9289C15.9973 21.8396 13.7844 20.6065 13.7844 20.6065Z" fill="#E45A5E"/>
<path d="M13.7844 20.6065L13.8367 20.5282C13.8367 20.5272 13.0277 19.9766 12.0332 19.3367C11.0368 18.7008 9.85787 17.9758 9.11005 17.6242C8.36617 17.2756 7.21581 16.816 6.07632 15.783C4.9388 14.7479 3.81409 13.1464 3.14125 10.5008C2.89658 9.53811 2.79004 8.89729 2.79004 8.512C2.79004 8.32777 2.81568 8.20198 2.85218 8.1376L2.90644 8.07719L2.9765 8.06035C3.03175 8.05936 3.11855 8.0861 3.22116 8.14058C3.40269 8.23863 3.63455 8.41889 3.895 8.6467C4.67834 9.33111 5.71621 10.4236 6.67122 10.9574C7.79789 11.5834 9.24028 11.8677 10.6116 12.6095C11.9859 13.3474 13.2921 14.529 14.1613 16.9626C14.6566 18.3472 14.8302 19.2387 14.8292 19.7923C14.8292 20.1657 14.7503 20.3807 14.6526 20.4975C14.553 20.6114 14.4326 20.6481 14.2975 20.6501C14.185 20.6501 14.0646 20.6184 13.9768 20.5867L13.8712 20.5421L13.8436 20.5282L13.8328 20.5243L13.7844 20.6065L13.738 20.6887C13.7469 20.6936 14.0015 20.8363 14.2945 20.8382C14.4642 20.8382 14.6556 20.7858 14.7957 20.6174C14.9348 20.452 15.0166 20.1885 15.0176 19.7913C15.0166 19.1971 14.8361 18.2948 14.3379 16.8972C13.4579 14.4221 12.1033 13.1939 10.6994 12.4402C9.29551 11.6854 7.84623 11.3982 6.761 10.7901C6.06546 10.4048 5.29397 9.67975 4.61916 9.0518C4.28076 8.73881 3.96505 8.44564 3.69177 8.23269C3.55464 8.12572 3.42738 8.03658 3.30997 7.9722C3.18961 7.90881 3.08402 7.86919 2.97451 7.86919L2.80582 7.91376C2.72887 7.9613 2.6756 8.04054 2.64601 8.13958C2.61345 8.23863 2.59964 8.35947 2.59964 8.512C2.59964 8.92799 2.71111 9.57674 2.95479 10.5474C3.63652 13.2246 4.78291 14.8668 5.94706 15.9246C7.11122 16.9804 8.29216 17.4529 9.02716 17.7975C9.75624 18.1393 10.9362 18.8653 11.9287 19.4992C12.4239 19.8171 12.8748 20.1152 13.2004 20.3321C13.5289 20.5481 13.7302 20.6837 13.7302 20.6857L13.7321 20.6887L13.7361 20.6897L13.7844 20.6065Z" fill="#FF6243"/>
<path d="M20.7398 17.756C20.7398 17.756 20.1103 13.3781 20.1735 11.5398C20.2356 9.70154 20.7398 5.8962 15.4981 1.8373C10.2544 -2.22259 13.667 2.85153 13.7943 5.70702C13.9196 8.55855 11.7708 12.1113 16.3199 16.3604C20.869 20.6105 20.7398 17.756 20.7398 17.756Z" fill="#E45A5E"/>
<path d="M20.7398 17.7559L20.8355 17.7411C20.8355 17.7391 20.799 17.4935 20.7457 17.0904C20.5859 15.885 20.2633 13.282 20.2633 11.8181C20.2633 11.7211 20.2653 11.63 20.2692 11.5448C20.282 11.1882 20.3096 10.7514 20.3096 10.2522C20.3096 9.22117 20.1833 7.91871 19.5253 6.46373C18.8663 5.00677 17.6765 3.40322 15.5563 1.76401C14.8568 1.21925 14.3083 0.839906 13.8851 0.593282C13.4589 0.346658 13.158 0.229784 12.9271 0.227803C12.7831 0.226813 12.6587 0.281288 12.5857 0.386276C12.5167 0.488294 12.492 0.619035 12.492 0.770575C12.492 1.03206 12.566 1.36485 12.6726 1.74816C12.8353 2.32361 13.08 3.01495 13.2902 3.71521C13.4993 4.41249 13.6739 5.11572 13.6986 5.70801C13.7026 5.79418 13.7045 5.8754 13.7045 5.96058C13.7065 7.23728 13.303 8.6774 13.3 10.2711C13.299 12.1311 13.8633 14.1992 16.2558 16.4307C17.2286 17.339 17.9931 17.9273 18.59 18.2888C19.1899 18.6483 19.6309 18.789 19.9624 18.789C20.1646 18.789 20.3284 18.7355 20.4537 18.6483C20.6401 18.5186 20.7339 18.3264 20.7852 18.1571C20.8335 17.9867 20.8375 17.8372 20.8375 17.7787V17.752V17.747L20.8365 17.7421L20.7398 17.7559L20.6471 17.7589V17.7629V17.7787C20.6471 17.8421 20.6382 18.058 20.5454 18.2482C20.4991 18.3423 20.4349 18.4295 20.3442 18.4928C20.2504 18.5552 20.132 18.5978 19.9604 18.5978C19.6822 18.5978 19.2698 18.476 18.6867 18.1254C18.1047 17.7748 17.3499 17.1953 16.3831 16.2901C14.0232 14.0823 13.4904 12.0905 13.4894 10.2701C13.4855 8.7091 13.89 7.2759 13.891 5.95958C13.891 5.87242 13.89 5.78527 13.8851 5.6991C13.8476 4.87008 13.5427 3.87467 13.2517 2.96147C13.1037 2.50784 12.9587 2.07105 12.8541 1.69467C12.7456 1.31731 12.6785 0.994419 12.6785 0.768595C12.6785 0.636864 12.7031 0.545741 12.7396 0.495227C12.7781 0.445704 12.8215 0.419953 12.9251 0.417972C13.0889 0.415992 13.374 0.515036 13.7874 0.756708C14.2008 0.996399 14.7444 1.37277 15.4399 1.91059C17.5403 3.53693 18.7084 5.11572 19.3507 6.54099C19.9969 7.96526 20.1192 9.23602 20.1192 10.2512C20.1192 10.7425 20.0896 11.1763 20.0768 11.5349C20.0748 11.624 20.0729 11.7201 20.0729 11.8172C20.0729 13.7991 20.6461 17.7658 20.6461 17.7688L20.7398 17.7559Z" fill="#FF6243"/>
<path d="M16.244 22.8578C16.244 22.8578 12.053 21.4959 10.2357 21.2493C8.41943 21.0017 4.59941 20.862 1.49664 14.9916C-1.60614 9.12113 2.8009 13.3504 5.58107 13.9556C8.36223 14.5578 12.2108 13.0305 15.6185 18.2472C19.0231 23.464 16.244 22.8578 16.244 22.8578Z" fill="#E45A5E"/>
<path d="M16.2439 22.8578L16.2716 22.7657C16.2716 22.7657 15.2228 22.425 13.9462 22.0535C12.6696 21.6831 11.169 21.28 10.2475 21.1552C9.33595 21.0304 7.94389 20.9343 6.39103 20.1439C4.84013 19.3536 3.12448 17.8659 1.57753 14.947C1.20263 14.2359 0.939229 13.6762 0.771511 13.2414C0.59886 12.8076 0.526824 12.4986 0.526824 12.3055C0.527811 12.1807 0.557401 12.1103 0.593904 12.0707C0.629421 12.0351 0.686666 12.0093 0.784337 12.0093C0.971786 12.0073 1.26972 12.1074 1.62489 12.2678C2.15665 12.5095 2.82259 12.8839 3.51319 13.2345C4.2038 13.5802 4.91807 13.907 5.56131 14.0447C6.97507 14.3508 8.62857 14.12 10.3442 14.4627C12.0609 14.8083 13.8436 15.7087 15.5376 18.2977C16.829 20.2707 17.2197 21.4058 17.2177 22.0218C17.2157 22.3725 17.1003 22.5468 16.9582 22.6518C16.8142 22.7548 16.6248 22.7835 16.4788 22.7835L16.3209 22.7726L16.2775 22.7647L16.2657 22.7627H16.2637L16.2439 22.8578L16.2232 22.9509C16.2292 22.9519 16.3318 22.9747 16.4788 22.9747C16.6484 22.9747 16.8744 22.9459 17.0697 22.8043C17.2641 22.6686 17.4081 22.416 17.4071 22.0228C17.4052 21.3315 16.9938 20.1826 15.6974 18.1947C13.9847 15.569 12.1398 14.6251 10.3827 14.2765C8.62857 13.9298 6.96818 14.1616 5.60078 13.8615C4.7839 13.6832 3.80523 13.179 2.92323 12.7145C2.48223 12.4827 2.06589 12.2599 1.70184 12.0965C1.33977 11.9321 1.02898 11.8211 0.7853 11.8201C0.660005 11.8201 0.540652 11.8528 0.456793 11.94C0.372934 12.0301 0.338379 12.1539 0.338379 12.3064C0.338379 12.5442 0.420274 12.8661 0.594898 13.3128C0.766562 13.7575 1.03491 14.321 1.41178 15.0361C2.97057 17.9847 4.71779 19.5061 6.30519 20.3153C7.89259 21.1225 9.32117 21.2225 10.2249 21.3454C11.1197 21.4672 12.6232 21.8654 13.8949 22.2378C14.5322 22.423 15.1123 22.6013 15.5326 22.731C15.7428 22.7974 15.9134 22.8519 16.0318 22.8875C16.1492 22.9271 16.2163 22.9489 16.2163 22.9489L16.2193 22.9509H16.2252L16.2439 22.8578Z" fill="#FF6243"/>
<path d="M18.4618 21.8555C18.4618 21.8555 14.0567 21.904 12.2582 22.2516C10.4557 22.5983 6.78961 23.6838 1.98598 19.1119C-1.42955 15.8592 0.374911 16.2336 2.71901 16.611C3.67106 16.7625 4.71384 16.915 5.53073 16.8229C8.35825 16.508 11.5222 13.8288 16.4048 17.6856C21.2873 21.5415 18.4618 21.8555 18.4618 21.8555Z" fill="#FF6E64"/>
<path d="M18.4618 21.8555V21.7604C18.4618 21.7604 17.3568 21.7732 16.0308 21.8297C14.7009 21.8842 13.152 21.9812 12.2385 22.1585C11.5587 22.2903 10.6274 22.5191 9.47703 22.5191C7.56307 22.5191 5.03844 21.8832 2.05011 19.0396C1.3743 18.3948 0.902729 17.8926 0.60577 17.5113C0.454824 17.3201 0.348272 17.1587 0.282171 17.028C0.213111 16.8923 0.188445 16.7893 0.188445 16.7199L0.219005 16.61C0.246629 16.5654 0.305851 16.5278 0.401549 16.502C0.498233 16.4743 0.62747 16.4624 0.779403 16.4624C1.25197 16.4624 1.95144 16.5803 2.7042 16.7011C3.45794 16.8229 4.27285 16.9448 4.99207 16.9448C5.18149 16.9448 5.36696 16.9368 5.5406 16.916C6.39103 16.8219 7.25921 16.5199 8.18856 16.2455C9.11495 15.9692 10.1015 15.7196 11.1828 15.7196C12.6785 15.7215 14.3626 16.194 16.3466 17.7599C17.4732 18.6513 18.1875 19.3516 18.6137 19.8943C19.0429 20.4381 19.1829 20.8254 19.181 21.0849C19.181 21.2364 19.1376 21.3483 19.0715 21.4375C18.9738 21.5712 18.8209 21.6544 18.6847 21.7019L18.516 21.7524L18.4677 21.7594L18.4539 21.7633H18.449L18.4618 21.8555L18.4706 21.9515C18.4785 21.9515 18.6897 21.9278 18.9127 21.8099C19.0231 21.7515 19.1376 21.6673 19.2244 21.5504C19.3122 21.4305 19.3714 21.275 19.3694 21.0849C19.3694 20.758 19.2027 20.3391 18.7627 19.7755C18.3237 19.2159 17.5995 18.5067 16.4639 17.6084C14.4563 16.0207 12.7179 15.5284 11.1818 15.5284C10.0719 15.5284 9.06661 15.7869 8.13331 16.0603C7.201 16.3386 6.34072 16.6357 5.51989 16.7279C5.35316 16.7467 5.17656 16.7536 4.99207 16.7536C4.2916 16.7536 3.48852 16.6338 2.7328 16.5119C1.97807 16.3921 1.28157 16.2713 0.779403 16.2713C0.562356 16.2713 0.378842 16.293 0.237762 16.3594L0.0641298 16.502C0.0197339 16.5644 0 16.6407 0 16.7209C0 16.8368 0.0384899 16.9646 0.112483 17.1131C0.338409 17.5579 0.898768 18.2056 1.92185 19.1812C4.93287 22.0496 7.51966 22.7132 9.47703 22.7102C10.652 22.7102 11.6021 22.4745 12.274 22.3438C13.1619 22.1734 14.7138 22.0753 16.0378 22.0179C16.6988 21.9941 17.3065 21.9743 17.7445 21.9654C18.1865 21.9545 18.4608 21.9525 18.4608 21.9525H18.4647L18.4697 21.9505L18.4618 21.8555Z" fill="#FF6243"/>
<path d="M22.3716 18.3928C22.3716 18.3928 22.3025 13.9724 22.6005 12.1549C22.8964 10.3404 23.884 6.63112 19.2027 1.93238C14.5224 -2.76833 17.2572 2.70296 17.0174 5.54855C16.7777 8.39413 14.1948 11.6399 18.1609 16.4386C22.1279 21.2394 22.3716 18.3928 22.3716 18.3928Z" fill="#FF6E64"/>
<path d="M22.3716 18.3928L22.4643 18.3908C22.4643 18.3908 22.4623 18.2849 22.4614 18.0947C22.4594 17.9095 22.4574 17.6401 22.4574 17.3172C22.4574 15.8919 22.49 13.4068 22.6952 12.1717C22.7968 11.5388 22.9882 10.6633 22.9882 9.59061C22.9892 7.5978 22.3262 4.92951 19.2698 1.86503C18.6108 1.2044 18.0987 0.741852 17.6982 0.442734C17.4989 0.293174 17.3253 0.183234 17.1773 0.111921C17.0283 0.0366459 16.901 0 16.7846 0C16.7057 0 16.6317 0.0198111 16.5735 0.0584389C16.4798 0.116876 16.4235 0.214931 16.389 0.326853C16.3564 0.437784 16.3446 0.568523 16.3446 0.722044C16.3446 1.23708 16.4926 1.97596 16.6435 2.77824C16.7895 3.57655 16.9385 4.43527 16.9385 5.16128C16.9385 5.29202 16.9326 5.4188 16.9217 5.53963C16.8556 6.3419 16.5972 7.18776 16.3505 8.10096C16.1049 9.01317 15.875 9.98976 15.875 11.0624C15.875 12.6541 16.386 14.4419 18.0888 16.501C19.0004 17.6014 19.7157 18.3037 20.285 18.7335C20.8523 19.1634 21.2735 19.3238 21.602 19.3258C21.7944 19.3258 21.9523 19.2664 22.0717 19.1773C22.2542 19.0396 22.3479 18.8445 22.4012 18.689C22.4544 18.5315 22.4643 18.4067 22.4643 18.4017V18.3958V18.3908L22.3716 18.3928L22.2739 18.3839V18.3908C22.2709 18.4304 22.2423 18.6275 22.1427 18.8029C22.0943 18.894 22.0283 18.9762 21.9405 19.0356C21.8536 19.095 21.7471 19.1347 21.6011 19.1376C21.3386 19.1376 20.9489 18.999 20.3974 18.583C19.8489 18.166 19.1396 17.4737 18.2349 16.3802C16.5557 14.3468 16.0664 12.6105 16.0664 11.0624C16.0664 10.0175 16.2903 9.05774 16.534 8.14949C16.7777 7.24025 17.0411 6.38945 17.1121 5.55647C17.122 5.43068 17.1279 5.29697 17.1279 5.16227C17.1279 4.41051 16.978 3.54386 16.829 2.74357C16.68 1.94031 16.534 1.20044 16.534 0.723034C16.534 0.536828 16.5587 0.390243 16.5991 0.306054L16.6741 0.218892L16.7836 0.191159C16.8566 0.191159 16.9612 0.215919 17.0944 0.28327C17.4989 0.478391 18.154 1.01225 19.1356 1.99974C22.1604 5.03945 22.7958 7.64138 22.7978 9.59061C22.7978 10.6405 22.6093 11.5022 22.5048 12.141C22.2996 13.4049 22.27 15.887 22.267 17.3182C22.267 17.9639 22.2739 18.3938 22.2739 18.3958L22.3716 18.3928Z" fill="#FF6243"/>
<path d="M16.8537 20.6322C16.8537 20.6322 10.4409 20.7768 8.69371 14.9351C6.94451 9.09043 7.16353 7.64832 10.6619 8.6576C14.1574 9.66886 17.8017 9.81148 18.3868 13.2028C18.9669 16.5932 23.4864 22.3655 16.8537 20.6322Z" fill="#F2E55F"/>
<path d="M16.8537 20.6322L16.8517 20.5391H16.8122C16.5458 20.5391 14.9427 20.5065 13.2083 19.7834C11.4709 19.0604 9.61023 17.6609 8.7825 14.9074C8.09683 12.6155 7.71601 11 7.71897 9.96698C7.71601 9.41827 7.82453 9.04189 8.02875 8.80715C8.13135 8.69028 8.25565 8.60213 8.41943 8.54468C8.58024 8.48526 8.77261 8.45654 9.00445 8.45654C9.42868 8.45654 9.96933 8.55756 10.6343 8.74971C12.3924 9.25682 14.1741 9.54604 15.581 10.1264C16.2844 10.4167 16.8911 10.7772 17.3568 11.2704C17.8225 11.7627 18.15 12.3877 18.2941 13.2196C18.4667 14.2309 18.9817 15.4363 19.4493 16.5912C19.917 17.7451 20.3363 18.8554 20.3353 19.6398C20.3353 20.0221 20.2396 20.3183 20.0176 20.5243C19.7966 20.7283 19.4296 20.8561 18.8604 20.8561C18.3602 20.8561 17.71 20.757 16.8793 20.5411L16.8675 20.5372L16.8527 20.5391L16.8537 20.6322L16.831 20.7273C17.6715 20.9452 18.3345 21.0462 18.8594 21.0462C19.4543 21.0462 19.8736 20.9135 20.1459 20.6649C20.4172 20.4124 20.5257 20.0518 20.5237 19.6408C20.5227 18.793 20.0916 17.6807 19.624 16.5199C19.1563 15.365 18.6492 14.1665 18.4795 13.188C18.3335 12.3253 17.9843 11.6577 17.4949 11.1387C16.757 10.3602 15.7053 9.90954 14.5165 9.55594C13.3266 9.20136 11.9938 8.94483 10.6866 8.56846C10.0137 8.37334 9.45828 8.26736 9.00445 8.26736C8.75978 8.26736 8.54175 8.29806 8.3543 8.36739C8.07313 8.46842 7.85806 8.6576 7.72487 8.92502C7.58773 9.19542 7.52856 9.5391 7.52856 9.96896C7.52856 11.0446 7.9153 12.664 8.60393 14.9638C9.44449 17.7797 11.3663 19.2288 13.1353 19.9627C14.9091 20.6986 16.531 20.7303 16.8132 20.7303H16.8586L16.8537 20.6322Z" fill="#DBB303"/>
<path d="M22.5107 21.0522C22.5107 21.0522 21.8773 16.6763 21.9404 14.8371C22.0036 12.9988 22.5107 9.19442 17.267 5.13355C12.0243 1.07663 15.4359 6.14877 15.5622 9.00228C15.6895 11.8568 13.5407 15.4076 18.0888 19.6566C22.6369 23.9057 22.5107 21.0522 22.5107 21.0522Z" fill="#FF6E64"/>
<path d="M22.5107 21.0522L22.6024 21.0383C22.6024 21.0383 22.5679 20.7907 22.5146 20.3876C22.3538 19.1842 22.0332 16.5803 22.0332 15.1164C22.0332 15.0193 22.0341 14.9262 22.0361 14.841C22.0499 14.4855 22.0785 14.0497 22.0785 13.5505C22.0785 12.5194 21.9533 11.2169 21.2932 9.76097C20.6342 8.30499 19.4444 6.70144 17.3262 5.06025C16.6258 4.51847 16.0792 4.13714 15.654 3.89151C15.2278 3.64489 14.9249 3.529 14.695 3.52702C14.5529 3.52306 14.4296 3.57853 14.3556 3.68351C14.2846 3.78652 14.2609 3.91627 14.2599 4.06682C14.2609 4.3283 14.3349 4.66209 14.4425 5.04639C14.6052 5.62184 14.8489 6.31318 15.0581 7.00947C15.2682 7.70775 15.4428 8.41295 15.4685 9.00723C15.4705 9.08944 15.4734 9.17263 15.4734 9.25781C15.4744 10.5355 15.0709 11.9766 15.0709 13.5693C15.0679 15.4294 15.6313 17.4955 18.0247 19.728C18.9984 20.6372 19.7611 21.2265 20.3599 21.5851C20.9598 21.9466 21.3998 22.0862 21.7313 22.0862C21.9345 22.0862 22.0983 22.0347 22.2226 21.9456C22.409 21.8158 22.5028 21.6247 22.5531 21.4533C22.6014 21.284 22.6054 21.1334 22.6054 21.076V21.0482V21.0453L22.6034 21.0393L22.5107 21.0522L22.415 21.0581V21.0611V21.076C22.415 21.1384 22.4071 21.3563 22.3134 21.5464C22.269 21.6405 22.2029 21.7267 22.1131 21.7911C22.0203 21.8535 21.899 21.8961 21.7293 21.8961C21.4501 21.8961 21.0387 21.7732 20.4576 21.4226C19.8735 21.07 19.1198 20.4926 18.152 19.5873C15.7921 17.3786 15.2593 15.3888 15.2574 13.5683C15.2554 12.0073 15.6579 10.5731 15.6589 9.25682C15.6589 9.17065 15.6579 9.08349 15.655 8.99732C15.6165 8.16732 15.3126 7.17092 15.0216 6.25871C14.8746 5.80408 14.7305 5.37026 14.623 4.9929C14.5164 4.61653 14.4474 4.29066 14.4474 4.06484C14.4474 3.93608 14.4721 3.84397 14.5095 3.79147C14.548 3.74393 14.5924 3.71818 14.694 3.71422C14.8588 3.71422 15.1449 3.81326 15.5583 4.05494C15.9706 4.29364 16.5123 4.671 17.2108 5.20882C19.3102 6.83515 20.4773 8.41394 21.1216 9.83921C21.7658 11.2635 21.8881 12.5342 21.8881 13.5495C21.8881 14.0407 21.8595 14.4726 21.8477 14.8341C21.8437 14.9222 21.8418 15.0173 21.8418 15.1154C21.8418 17.0983 22.415 21.0631 22.4169 21.0661L22.5107 21.0522Z" fill="#FF6243"/>
<path d="M20.3313 22.6696C20.3313 22.6696 15.9726 22.0367 14.1415 22.1001C12.3095 22.1625 8.51907 22.6696 4.47411 17.4063C0.433103 12.143 5.48634 15.569 8.32768 15.6948C9.04689 15.7265 9.81444 15.6116 10.6224 15.4967C13.008 15.1629 15.7803 14.8252 18.9403 18.2333C23.1736 22.7954 20.3313 22.6696 20.3313 22.6696Z" fill="#FF6E64"/>
<path d="M20.3314 22.6696L20.3442 22.5755C20.3442 22.5755 16.392 22.0001 14.4178 22.0001C14.3182 22.0001 14.2264 22.002 14.1367 22.003C13.7785 22.0169 13.3474 22.0466 12.8561 22.0466C11.8468 22.0466 10.579 21.9228 9.16233 21.276C7.74264 20.6293 6.16907 19.4566 4.5501 17.3489C4.01143 16.6506 3.63851 16.1039 3.39878 15.6908C3.16002 15.2758 3.0594 14.9866 3.06334 14.8242C3.06334 14.7212 3.08998 14.6766 3.13931 14.638C3.18962 14.5994 3.28236 14.5776 3.4116 14.5776C3.63555 14.5776 3.95816 14.6449 4.33405 14.7529C4.89935 14.9133 5.58896 15.157 6.28943 15.3689C6.9899 15.5809 7.70318 15.7612 8.32473 15.7879C8.40858 15.7929 8.49443 15.7938 8.58224 15.7938C9.89241 15.7929 11.32 15.3888 12.8768 15.3917C14.6881 15.3927 16.6731 15.9266 18.8712 18.2967C19.7729 19.2674 20.3481 20.0231 20.6993 20.6085C21.0506 21.1948 21.1719 21.6078 21.1719 21.8872C21.1689 22.0585 21.1255 22.1793 21.0654 22.2734C20.9706 22.4101 20.8227 22.4874 20.6776 22.53C20.5346 22.5716 20.4004 22.5765 20.3531 22.5765H20.3392H20.3353L20.3314 22.6696L20.3254 22.7647H20.3521C20.431 22.7647 20.6707 22.7568 20.9026 22.6468C21.019 22.5894 21.1344 22.5052 21.2193 22.3804C21.3051 22.2556 21.3594 22.0912 21.3594 21.8872C21.3584 21.5534 21.2213 21.1146 20.8602 20.5094C20.5001 19.9082 19.917 19.1436 19.0084 18.167C16.7856 15.7641 14.7276 15.1976 12.8758 15.1986C11.2884 15.2006 9.85393 15.6067 8.58124 15.6037C8.49739 15.6037 8.41354 15.6027 8.33165 15.5997C7.5414 15.5651 6.55976 15.264 5.6531 14.9708C5.20224 14.8242 4.76814 14.6786 4.38535 14.5716C4.00157 14.4617 3.6691 14.3874 3.4116 14.3874C3.26263 14.3874 3.13141 14.4112 3.02881 14.4825C2.92522 14.5538 2.86997 14.6786 2.87095 14.8242C2.87293 15.055 2.99032 15.358 3.23499 15.7849C3.47867 16.2128 3.85951 16.7625 4.39818 17.4648C6.0349 19.5923 7.63215 20.7877 9.08143 21.4474C10.5307 22.108 11.83 22.2378 12.8551 22.2378C13.3533 22.2378 13.7874 22.2071 14.1426 22.1962C14.2284 22.1902 14.3211 22.1902 14.4168 22.1902C15.3866 22.1902 16.8665 22.3338 18.0977 22.4775C18.7124 22.5478 19.2688 22.6201 19.6694 22.6736C20.0689 22.728 20.3136 22.7637 20.3136 22.7637H20.3195H20.3245L20.3314 22.6696Z" fill="#FF6243"/>
<path d="M20.3313 22.6696C20.3313 22.6696 15.9726 22.0367 14.1415 22.1001C12.3095 22.1625 8.51907 22.6696 4.47411 17.4063C0.433103 12.143 5.48634 15.569 8.32768 15.6948C9.04689 15.7265 9.81444 15.6116 10.6224 15.4967C13.008 15.1629 15.7803 14.8252 18.9403 18.2333C23.1736 22.7954 20.3313 22.6696 20.3313 22.6696Z" fill="#FF6E64"/>
<path d="M20.3314 22.6696L20.3442 22.5755C20.3442 22.5755 16.392 22.0001 14.4178 22.0001C14.3182 22.0001 14.2264 22.002 14.1367 22.003C13.7785 22.0169 13.3474 22.0466 12.8561 22.0466C11.8468 22.0466 10.579 21.9228 9.16233 21.276C7.74264 20.6293 6.16907 19.4566 4.5501 17.3489C4.01143 16.6506 3.63851 16.1039 3.39878 15.6908C3.16002 15.2758 3.0594 14.9866 3.06334 14.8242C3.06334 14.7212 3.08998 14.6766 3.13931 14.638C3.18962 14.5994 3.28236 14.5776 3.4116 14.5776C3.63555 14.5776 3.95816 14.6449 4.33405 14.7529C4.89935 14.9133 5.58896 15.157 6.28943 15.3689C6.9899 15.5809 7.70318 15.7612 8.32473 15.7879C8.40858 15.7929 8.49443 15.7938 8.58224 15.7938C9.89241 15.7929 11.32 15.3888 12.8768 15.3917C14.6881 15.3927 16.6731 15.9266 18.8712 18.2967C19.7729 19.2674 20.3481 20.0231 20.6993 20.6085C21.0506 21.1948 21.1719 21.6078 21.1719 21.8872C21.1689 22.0585 21.1255 22.1793 21.0654 22.2734C20.9706 22.4101 20.8227 22.4874 20.6776 22.53C20.5346 22.5716 20.4004 22.5765 20.3531 22.5765H20.3392H20.3353L20.3314 22.6696L20.3254 22.7647H20.3521C20.431 22.7647 20.6707 22.7568 20.9026 22.6468C21.019 22.5894 21.1344 22.5052 21.2193 22.3804C21.3051 22.2556 21.3594 22.0912 21.3594 21.8872C21.3584 21.5534 21.2213 21.1146 20.8602 20.5094C20.5001 19.9082 19.917 19.1436 19.0084 18.167C16.7856 15.7641 14.7276 15.1976 12.8758 15.1986C11.2884 15.2006 9.85393 15.6067 8.58124 15.6037C8.49739 15.6037 8.41354 15.6027 8.33165 15.5997C7.5414 15.5651 6.55976 15.264 5.6531 14.9708C5.20224 14.8242 4.76814 14.6786 4.38535 14.5716C4.00157 14.4617 3.6691 14.3874 3.4116 14.3874C3.26263 14.3874 3.13141 14.4112 3.02881 14.4825C2.92522 14.5538 2.86997 14.6786 2.87095 14.8242C2.87293 15.055 2.99032 15.358 3.23499 15.7849C3.47867 16.2128 3.85951 16.7625 4.39818 17.4648C6.0349 19.5923 7.63215 20.7877 9.08143 21.4474C10.5307 22.108 11.83 22.2378 12.8551 22.2378C13.3533 22.2378 13.7874 22.2071 14.1426 22.1962C14.2284 22.1902 14.3211 22.1902 14.4168 22.1902C15.3866 22.1902 16.8665 22.3338 18.0977 22.4775C18.7124 22.5478 19.2688 22.6201 19.6694 22.6736C20.0689 22.728 20.3136 22.7637 20.3136 22.7637H20.3195H20.3245L20.3314 22.6696Z" fill="#FF6243"/>
<path d="M22.0746 24.0414C20.9203 25.1547 18.8228 24.1583 17.267 23.3996C12.8472 21.2434 15.4981 22.2576 17.0145 22.3873C17.7623 22.4497 17.4328 21.2424 17.2118 20.038C16.9858 18.8009 16.8724 17.5668 18.152 17.6926C20.6786 17.9461 21.8773 21.3087 22.0677 16.9299C22.0805 16.6298 22.1456 16.3307 22.2818 16.087C22.9625 18.058 23.2693 20.7917 22.7287 22.8202C22.5817 23.3728 22.3568 23.771 22.0746 24.0414Z" fill="#8EAE2E"/>
<path d="M22.0746 24.0414L21.9444 23.9037C21.7787 24.0622 21.5922 24.1721 21.388 24.2464C21.1847 24.3148 20.9608 24.3494 20.72 24.3494C20.209 24.3494 19.6299 24.2018 19.0458 23.982C18.4608 23.767 17.8767 23.4848 17.3499 23.2272C16.4452 22.7855 15.8365 22.4775 15.4597 22.2695C15.2702 22.1674 15.142 22.0892 15.064 22.0357L14.995 21.9802L14.994 21.9783L14.9743 21.9971L14.994 21.9802L14.993 21.9783L14.9733 21.9971L14.993 21.9802L14.8805 22.0654H15.0196L14.994 21.9802L14.8805 22.0654H15.0206H14.8489L14.9743 22.1813L15.0206 22.0654H14.8489L14.9743 22.1813L14.8726 22.0892L14.9022 22.2259L14.9733 22.1813L14.8716 22.0892L14.9012 22.2259L14.8934 22.1873L14.8993 22.2259H14.9012L14.8934 22.1873L14.8993 22.2259H14.9131C14.9604 22.2239 15.0808 22.2417 15.2258 22.2685C15.6737 22.3487 16.4058 22.525 16.9957 22.5735L17.0668 22.5775C17.1704 22.5775 17.266 22.5567 17.3489 22.5101C17.4791 22.4418 17.562 22.322 17.6064 22.1942C17.6518 22.0654 17.6666 21.9248 17.6666 21.7713C17.6656 21.3652 17.5581 20.8571 17.4584 20.3301C17.3568 19.8042 17.2572 19.2614 17.2572 18.8247C17.2572 18.5136 17.3095 18.265 17.415 18.1155C17.4663 18.0382 17.5305 17.9808 17.6183 17.9402C17.7051 17.8986 17.8195 17.8748 17.9725 17.8748L18.1293 17.8807C18.8525 17.9501 19.473 18.3017 19.9979 18.6464C20.2623 18.8167 20.5 18.9871 20.721 19.1178C20.943 19.2476 21.1443 19.3506 21.3663 19.3536C21.5093 19.3565 21.6563 19.2971 21.7648 19.1901C21.8467 19.1099 21.9108 19.0039 21.9661 18.8791C22.046 18.6919 22.1062 18.4473 22.1526 18.1303C22.1989 17.8134 22.2325 17.4222 22.2532 16.9388C22.266 16.6585 22.3242 16.3851 22.4426 16.1801L22.2769 16.086L22.0963 16.1465C22.5294 17.4004 22.8106 18.9752 22.8106 20.4658C22.8106 21.281 22.7267 22.0734 22.5423 22.7687C22.3992 23.2986 22.1891 23.662 21.9395 23.9027L22.0746 24.0414L22.2068 24.1791C22.5186 23.879 22.7603 23.4481 22.9132 22.8687C23.1095 22.1308 23.1954 21.3097 23.1954 20.4678C23.1954 18.9277 22.9093 17.3211 22.4614 16.0246L22.2986 15.8969L22.1161 15.9919C21.9592 16.2732 21.8941 16.6001 21.8783 16.924C21.8428 17.7659 21.7668 18.3136 21.6622 18.6246C21.609 18.7801 21.5508 18.8722 21.5054 18.9197L21.3702 18.9722C21.2814 18.9762 21.1177 18.9118 20.9194 18.79C20.6145 18.6107 20.2347 18.3205 19.7789 18.059C19.3211 17.7975 18.7874 17.5628 18.1707 17.5004L17.9764 17.4905C17.782 17.4905 17.6074 17.5252 17.4604 17.5955C17.2365 17.6985 17.0835 17.8867 16.9977 18.1026C16.9109 18.3195 16.8823 18.5612 16.8823 18.8247C16.8843 19.3149 16.9868 19.8726 17.0895 20.4015C17.193 20.9274 17.2917 21.4305 17.2897 21.7713C17.2917 21.9426 17.2641 22.0654 17.2276 22.1229L17.1723 22.1764L17.0687 22.1991L17.0313 22.1972C16.6682 22.1655 16.2213 22.0803 15.8306 22.0011C15.6343 21.9614 15.4508 21.9238 15.2959 21.8951C15.14 21.8673 15.0167 21.8475 14.9141 21.8475L14.7888 21.8644L14.696 21.9228L14.6408 22.0674L14.6753 22.1882L14.773 22.2942C14.8371 22.3447 14.921 22.4022 15.0423 22.4715C15.4005 22.6845 16.0664 23.0282 17.1852 23.5709C17.713 23.8294 18.3079 24.1147 18.9127 24.3405C19.5214 24.5663 20.138 24.7288 20.72 24.7308C20.9933 24.7308 21.2627 24.6931 21.5133 24.604C21.7658 24.5168 22.0006 24.3772 22.2058 24.1791L22.0746 24.0414Z" fill="#369626"/>
<path d="M20.6776 20.558C19.6358 18.9524 18.3878 17.9124 17.8906 18.2393C17.3953 18.5612 17.8382 20.1281 18.883 21.7346C19.9249 23.3411 21.1739 24.3801 21.6682 24.0553C22.1644 23.7294 21.7214 22.1645 20.6776 20.558Z" fill="#A4B526"/>
<path d="M9.2728 2.27409C9.1554 2.27409 9.08833 2.30083 9.0538 2.33253C9.01927 2.36125 9.00051 2.4078 9.00051 2.49001C8.99755 2.65443 9.09719 2.92878 9.25998 3.25564C9.42473 3.58546 9.64968 3.97273 9.89041 4.38773C10.3689 5.21575 10.9076 6.14778 11.1345 6.96688C11.2914 7.52847 11.3644 8.13662 11.4305 8.76952C12.0796 8.93691 12.7258 9.08449 13.3513 9.24098C13.4608 8.05144 13.7065 6.95599 13.7045 5.95959C13.7045 5.87441 13.7025 5.79319 13.6986 5.70702C13.6789 5.24547 13.5684 4.71458 13.4224 4.17478C12.8995 3.82317 12.3115 3.48047 11.6455 3.15263C11.0131 2.84063 10.511 2.61976 10.1203 2.47615C9.7296 2.33748 9.45039 2.27409 9.2728 2.27409Z" fill="#D83D40"/>
<path d="M9.27279 2.08491C9.12974 2.08491 9.01236 2.1176 8.92752 2.1909C8.84366 2.26617 8.80911 2.3771 8.81009 2.49199C8.81305 2.7198 8.92554 3.00505 9.09326 3.34478C9.34484 3.8509 9.72958 4.4739 10.0897 5.11968C10.4281 5.72188 10.7458 6.34488 10.9194 6.90251L10.9539 7.02037L10.9934 7.16993C11.1128 7.65129 11.1769 8.17128 11.2331 8.71802L11.4294 8.77051C11.3643 8.13661 11.2904 7.52946 11.1335 6.96787C10.9076 6.14976 10.3689 5.21674 9.8894 4.38872C9.64868 3.97372 9.42376 3.58645 9.259 3.25663C9.09622 2.92978 8.99657 2.65542 8.99953 2.491C8.99953 2.40879 9.01728 2.36224 9.05279 2.33352C9.08732 2.30182 9.15443 2.27508 9.27183 2.27508C9.4504 2.27508 9.72958 2.33748 10.1193 2.47813C10.51 2.62174 11.0121 2.84163 11.6445 3.15461C12.3105 3.48245 12.8975 3.82515 13.4214 4.17676C13.3957 4.08465 13.37 3.98957 13.3424 3.89745C12.86 3.58348 12.3243 3.27743 11.7284 2.98524C11.0911 2.66928 10.5849 2.44544 10.1844 2.30084C9.78188 2.15326 9.49181 2.0869 9.27279 2.08491Z" fill="#FF442A"/>
<path d="M12.93 0.418964H12.9271C12.8245 0.420945 12.7811 0.446696 12.7416 0.496219C12.7051 0.547723 12.6805 0.638846 12.6805 0.769587C12.6805 0.995411 12.7466 1.3183 12.8561 1.69567C12.9606 2.07303 13.1057 2.50883 13.2536 2.96246C13.5447 3.87566 13.8485 4.87108 13.887 5.70009C13.892 5.78626 13.893 5.87342 13.893 5.96058C13.892 6.99462 13.6434 8.10294 13.5358 9.28654C13.8703 9.3737 14.1978 9.45987 14.5155 9.55495C14.8371 9.65004 15.1489 9.75404 15.4468 9.86695C15.4636 9.66093 15.4724 9.4569 15.4724 9.25781C15.4724 9.17264 15.4695 9.08944 15.4675 9.00723C15.4419 8.41296 15.2672 7.70874 15.0571 7.00947C14.848 6.31318 14.6043 5.62184 14.4415 5.04639C14.3349 4.6611 14.26 4.32731 14.259 4.06682C14.26 3.91726 14.2826 3.78751 14.3547 3.68352C14.4257 3.58249 14.5451 3.52702 14.6822 3.52702H14.6941C14.923 3.529 15.2268 3.64489 15.653 3.89151C15.9934 4.08861 16.4107 4.37089 16.9237 4.7542C16.8862 4.18271 16.7846 3.55971 16.6761 2.9585C16.3051 2.61283 15.8947 2.26419 15.4409 1.9106C14.7454 1.37278 14.2018 0.996401 13.7884 0.75671C13.3809 0.51801 13.0938 0.418964 12.93 0.418964Z" fill="#D83D40"/>
<path d="M12.9202 0.227805C12.7791 0.227805 12.6568 0.283271 12.5857 0.386278C12.5167 0.488296 12.492 0.619037 12.492 0.770577C12.492 1.03206 12.566 1.36485 12.6726 1.74816C12.8353 2.32361 13.08 3.01495 13.2902 3.71521L13.3434 3.89647C13.371 3.98858 13.3967 4.08366 13.4224 4.17577C13.5684 4.71557 13.6799 5.24646 13.6986 5.70801C13.7026 5.79418 13.7045 5.8754 13.7045 5.96058C13.7065 6.95698 13.4608 8.05144 13.3513 9.24197L13.5368 9.28753C13.6443 8.10393 13.893 6.99561 13.8939 5.96157C13.8939 5.87441 13.8929 5.78725 13.888 5.70108C13.8505 4.87207 13.5457 3.87665 13.2546 2.96345C13.1067 2.50982 12.9616 2.07303 12.8571 1.69666C12.7485 1.31929 12.6814 0.996401 12.6814 0.770577C12.6814 0.638846 12.7061 0.547723 12.7426 0.497209C12.7811 0.447686 12.8245 0.421935 12.9281 0.419954H12.931C13.0958 0.419954 13.3819 0.518999 13.7903 0.75869C14.2037 0.998381 14.7473 1.37476 15.4428 1.91258C15.8967 2.26518 16.3071 2.61481 16.6781 2.96048L16.6455 2.78022L16.6208 2.65047C16.2952 2.35531 15.9411 2.05917 15.5583 1.76401C14.8588 1.21926 14.3103 0.839908 13.887 0.593284C13.4608 0.34666 13.1599 0.229786 12.9291 0.227805H12.9202Z" fill="#FF442A"/>
<path d="M14.4178 22.1902H14.4079C14.5401 22.2289 14.6664 22.2685 14.7897 22.3041L14.7739 22.2922L14.6812 22.1922C14.5914 22.1902 14.5026 22.1902 14.4178 22.1902Z" fill="#D83D40"/>
<path d="M14.4079 22.1902C14.3142 22.1902 14.2264 22.1902 14.1435 22.1962C14.036 22.1991 13.9196 22.2041 13.7963 22.2081L13.8939 22.2378C14.5076 22.417 15.0699 22.5884 15.4853 22.7162C15.3027 22.6191 15.1567 22.5369 15.0433 22.4695C14.9328 22.4061 14.8509 22.3527 14.7897 22.3041C14.6664 22.2695 14.5401 22.2298 14.4079 22.1902Z" fill="#FF442A"/>
<path d="M16.9464 2.10769C16.9474 1.66595 17.0391 1.36089 17.2157 1.31731L17.2601 1.31236C17.561 1.31236 17.9724 2.02945 18.2003 2.97039C18.301 3.38836 18.3464 3.78256 18.3464 4.10347C18.3454 4.54521 18.2526 4.85126 18.077 4.89187L18.0336 4.8998C17.7307 4.8998 17.3193 4.18171 17.0944 3.23979C16.9937 2.8238 16.9464 2.4286 16.9464 2.10769ZM16.7846 0.191159L16.6751 0.218892L16.6001 0.306054C16.5596 0.390242 16.535 0.536828 16.535 0.723034C16.535 1.20143 16.681 1.94031 16.83 2.74357C16.9612 3.45472 17.0954 4.2144 17.123 4.90376L17.3272 5.06025C19.4454 6.70144 20.6362 8.30499 21.2942 9.76097C21.9542 11.2169 22.0795 12.5194 22.0795 13.5505C22.0795 14.0497 22.0509 14.4845 22.0371 14.841C22.0352 14.9262 22.0341 15.0203 22.0341 15.1164C22.0341 15.4046 22.046 15.7344 22.0657 16.089L22.117 15.99L22.2798 15.8949C22.3015 14.5736 22.3597 13.0453 22.5058 12.14C22.6093 11.5002 22.7988 10.6385 22.7988 9.58962C22.7968 7.64039 22.1614 5.03846 19.1366 1.99875C18.155 1.01126 17.4999 0.477401 17.0954 0.28228C16.9612 0.21592 16.8576 0.191159 16.7846 0.191159Z" fill="#FF4E45"/>
<path d="M16.7846 0C16.7057 0 16.6317 0.0198111 16.5735 0.0584389C16.4798 0.116876 16.4235 0.214931 16.389 0.326853C16.3564 0.437784 16.3446 0.568523 16.3446 0.722044C16.3446 1.20935 16.4788 1.89673 16.6179 2.64849L16.6425 2.77824L16.6751 2.9585C16.7836 3.55872 16.8852 4.18171 16.9227 4.7542L17.12 4.90277C17.0924 4.2144 16.9582 3.45373 16.827 2.74258C16.678 1.93932 16.532 1.19945 16.532 0.722044C16.532 0.535838 16.5567 0.389249 16.5971 0.30506L16.6721 0.217902L16.7816 0.190169C16.8547 0.190169 16.9592 0.214929 17.0924 0.28228C17.4969 0.477401 18.152 1.01126 19.1336 1.99875C22.1585 5.03846 22.7938 7.64039 22.7958 9.58962C22.7958 10.6395 22.6074 11.5012 22.5028 12.14C22.3568 13.0453 22.2986 14.5736 22.2768 15.8949H22.2798H22.2966L22.4594 16.0226L22.4643 16.0395C22.485 14.6925 22.5412 13.0889 22.6932 12.1717C22.7948 11.5388 22.9862 10.6633 22.9862 9.59061C22.9872 7.5978 22.3242 4.92951 19.2678 1.86503C18.6088 1.2044 18.0968 0.741852 17.6962 0.442733C17.4969 0.293174 17.3233 0.183234 17.1753 0.111921C17.0283 0.0366459 16.901 0 16.7846 0Z" fill="#FF442A"/>
<path d="M8.26551 10.793C8.26255 10.1839 8.46185 9.71045 8.82886 9.57575L9.04392 9.54009C9.60232 9.54009 10.2742 10.2275 10.6303 11.214C10.7813 11.6359 10.8563 12.0489 10.8573 12.4164C10.8592 13.0235 10.6619 13.497 10.2929 13.6307L10.0769 13.6693C9.51846 13.6693 8.8476 12.9819 8.49243 11.9925C8.33952 11.5725 8.26551 11.1575 8.26551 10.793ZM9.00349 8.45753C8.77263 8.45753 8.57924 8.48625 8.41843 8.54567C8.25564 8.60312 8.13035 8.69028 8.02775 8.80815C7.82353 9.0419 7.71501 9.41926 7.71797 9.96797C7.71501 11.001 8.09583 12.6165 8.7815 14.9084C8.85352 15.1441 8.93145 15.3729 9.01827 15.5898C10.1805 15.5205 11.467 15.2006 12.8758 15.1996H12.8837C13.664 15.1996 14.479 15.3016 15.3294 15.5977C15.136 14.8975 15.0689 14.22 15.0689 13.5693C15.0689 12.3045 15.3235 11.1357 15.4281 10.068C14.0468 9.52623 12.3263 9.23899 10.6323 8.75169C9.96836 8.55855 9.42771 8.45753 9.00349 8.45753Z" fill="#ECD941"/>
<path d="M9.00349 8.26736C8.75882 8.26736 8.54079 8.29806 8.35334 8.36739C8.07217 8.46842 7.85709 8.6576 7.72391 8.92502C7.58677 9.19542 7.52757 9.5391 7.52757 9.96896C7.52757 10.3196 7.56999 10.7316 7.6499 11.2051L7.68838 11.4259C7.82453 12.1599 8.04454 13.0364 8.33952 14.0695L8.39576 14.2616C8.46186 14.4894 8.5319 14.7222 8.60294 14.9638C8.66805 15.1857 8.74106 15.3977 8.81998 15.6017L9.01927 15.5908C8.93245 15.3739 8.85452 15.1461 8.7825 14.9094C8.09683 12.6175 7.71601 11.002 7.71897 9.96896C7.71601 9.42025 7.82453 9.04388 8.02875 8.80914C8.13135 8.69226 8.25566 8.60411 8.41943 8.54667C8.58024 8.48724 8.77261 8.45852 9.00445 8.45852C9.42868 8.45852 9.96933 8.55954 10.6343 8.75169C12.3292 9.23899 14.0488 9.52623 15.43 10.068L15.4478 9.86794C15.1488 9.75602 14.8381 9.65103 14.5165 9.55594C14.1988 9.45987 13.8713 9.3737 13.5368 9.28753L13.3513 9.24197C12.7248 9.08647 12.0796 8.9379 11.4305 8.77051L11.2341 8.71802C11.0516 8.66948 10.8701 8.61798 10.6866 8.56846C10.0128 8.37235 9.45732 8.26736 9.00349 8.26736Z" fill="#CB9801"/>
<path d="M15.3856 5.00181C15.3876 4.82551 15.431 4.70072 15.5228 4.65318L15.6155 4.63039C15.9203 4.63039 16.457 5.20189 16.8862 6.00812C17.2049 6.60933 17.3834 7.18875 17.3815 7.55126C17.3805 7.72756 17.3361 7.85037 17.2453 7.8999L17.1516 7.92367C16.8458 7.92367 16.31 7.35217 15.8819 6.54495C15.5622 5.94374 15.3836 5.36333 15.3856 5.00181ZM14.699 3.71521H14.695C14.5934 3.71917 14.55 3.74492 14.5105 3.79246C14.474 3.84595 14.4484 3.93707 14.4484 4.06583C14.4484 4.29166 14.5164 4.61752 14.624 4.99389C14.7315 5.37126 14.8756 5.80508 15.0226 6.2597C15.3146 7.17191 15.6175 8.16831 15.6559 8.99831C15.6589 9.08448 15.6599 9.17164 15.6599 9.25781C15.6589 10.5741 15.2564 12.0073 15.2584 13.5693C15.2584 14.2468 15.3333 14.949 15.5484 15.678C16.4561 16.0296 17.4002 16.609 18.3799 17.5311C18.9077 17.6183 19.3743 17.8282 19.7778 18.06C20.2336 18.3225 20.6145 18.6127 20.9183 18.791C21.1107 18.9088 21.2715 18.9732 21.3623 18.9732H21.3692L21.5044 18.9187C21.5497 18.8712 21.6079 18.7791 21.6612 18.6236C21.7648 18.3136 21.8418 17.7649 21.8773 16.923C21.8832 16.817 21.894 16.712 21.9108 16.609C21.8684 16.0583 21.8418 15.5433 21.8418 15.1164C21.8418 15.0173 21.8437 14.9232 21.8477 14.8351C21.8595 14.4736 21.8881 14.0417 21.8881 13.5505C21.8881 12.5352 21.7658 11.2645 21.1216 9.84021C20.4773 8.41593 19.3102 6.83614 17.2108 5.20981C16.5123 4.67199 15.9706 4.29463 15.5583 4.05593C15.1478 3.81624 14.8627 3.71521 14.699 3.71521Z" fill="#FF4E45"/>
<path d="M14.6832 3.52702C14.546 3.52702 14.4267 3.58249 14.3556 3.68352C14.2846 3.78652 14.2609 3.91627 14.2599 4.06682C14.2609 4.3283 14.3349 4.66209 14.4425 5.04639C14.6052 5.62184 14.8489 6.31318 15.0581 7.00947C15.2682 7.70775 15.4428 8.41296 15.4685 9.00723C15.4705 9.08944 15.4734 9.17264 15.4734 9.25781C15.4734 9.4569 15.4635 9.66093 15.4478 9.86695L15.43 10.067C15.3244 11.1347 15.0709 12.3035 15.0709 13.5683C15.0709 14.219 15.137 14.8965 15.3314 15.5967L15.5504 15.677C15.3353 14.949 15.2603 14.2468 15.2603 13.5683C15.2583 12.0073 15.6609 10.5731 15.6619 9.25682C15.6619 9.17065 15.6609 9.08349 15.6579 8.99732C15.6194 8.16732 15.3156 7.17092 15.0245 6.25871C14.8775 5.80409 14.7335 5.37027 14.626 4.9929C14.5194 4.61653 14.4504 4.29067 14.4504 4.06484C14.4504 3.93608 14.475 3.84397 14.5125 3.79147C14.551 3.74393 14.5954 3.71818 14.697 3.71422H14.7009C14.8657 3.71422 15.1508 3.81525 15.5612 4.05494C15.9736 4.29364 16.5152 4.671 17.2137 5.20882C19.3132 6.83515 20.4803 8.41395 21.1245 9.83922C21.7687 11.2635 21.8911 12.5343 21.8911 13.5495C21.8911 14.0407 21.8625 14.4726 21.8507 14.8341C21.8467 14.9222 21.8447 15.0173 21.8447 15.1154C21.8447 15.5423 21.8714 16.0573 21.9138 16.608C21.9414 16.4268 21.9907 16.2514 22.0667 16.089C22.046 15.7344 22.0351 15.4046 22.0351 15.1164C22.0351 15.0193 22.0361 14.9262 22.0381 14.841C22.0519 14.4855 22.0805 14.0497 22.0805 13.5505C22.0805 12.5194 21.9552 11.2169 21.2952 9.76097C20.6362 8.30499 19.4464 6.70144 17.3282 5.06025L17.124 4.90376L16.9267 4.75519C16.4127 4.37188 15.9963 4.0896 15.6559 3.8925C15.2297 3.64588 14.9269 3.52999 14.697 3.52801L14.6832 3.52702Z" fill="#FF442A"/>
<path d="M3.81509 15.7463C3.81509 15.6512 3.83778 15.572 3.8881 15.5096C3.96308 15.4135 4.09133 15.368 4.26201 15.368C4.80462 15.368 5.76555 15.8315 6.71167 16.5902C7.7604 17.434 8.45593 18.37 8.4579 18.8821C8.4579 18.9762 8.43522 19.0574 8.38688 19.1198C8.30992 19.2149 8.18068 19.2595 8.01197 19.2595C7.46738 19.2595 6.50843 18.7969 5.56231 18.0372C4.51358 17.1953 3.81706 16.2584 3.81509 15.7463ZM3.41254 14.5786C3.28232 14.5786 3.18958 14.5994 3.14025 14.639C3.09092 14.6766 3.06429 14.7212 3.06429 14.8252V14.84C3.06527 15.0064 3.16689 15.2907 3.39972 15.6918C3.63945 16.1049 4.0124 16.6516 4.55107 17.3499C6.17004 19.4576 7.74263 20.6293 9.1633 21.277C10.581 21.9238 11.8478 22.0476 12.8571 22.0476C13.3484 22.0476 13.7795 22.0179 14.1376 22.004C14.2274 22.003 14.3201 22.0011 14.4188 22.0011C14.4947 22.0011 14.5717 22.0011 14.6516 22.003L14.698 21.9218L14.7907 21.8634L14.916 21.8465C15.0186 21.8465 15.142 21.8663 15.2978 21.8941C15.4527 21.9228 15.6362 21.9604 15.8326 22.0001C16.018 22.0367 16.2134 22.0763 16.4097 22.108C16.6573 22.1318 16.9109 22.1566 17.1624 22.1813L17.1743 22.1754L17.2295 22.1219C17.265 22.0635 17.2937 21.9406 17.2917 21.7703C17.2937 21.4296 17.195 20.9264 17.0914 20.4005C16.9898 19.8716 16.8862 19.3139 16.8843 18.8237C16.8843 18.5602 16.9128 18.3185 16.9997 18.1016C17.0855 17.8857 17.2384 17.6985 17.4624 17.5945C17.6094 17.5242 17.784 17.4895 17.9783 17.4895L18.0632 17.4925C16.1838 15.8008 14.4651 15.3917 12.8787 15.3907C11.3229 15.3878 9.89533 15.7919 8.58417 15.7929C8.49637 15.7929 8.41055 15.7919 8.32669 15.7869C7.70515 15.7602 6.99184 15.5799 6.29137 15.368C5.58991 15.156 4.90129 14.9123 4.33598 14.7519C3.95911 14.6459 3.6365 14.5786 3.41254 14.5786Z" fill="#FF4E45"/>
<path d="M3.41256 14.3884C3.26359 14.3884 3.13238 14.4122 3.02977 14.4835C2.92618 14.5548 2.87096 14.6796 2.87195 14.8252C2.87392 15.056 2.99131 15.359 3.23598 15.7859C3.47966 16.2138 3.86047 16.7635 4.39914 17.4657C6.03587 19.5932 7.63314 20.7887 9.08242 21.4484C10.5317 22.109 11.831 22.2388 12.8561 22.2388C13.3543 22.2388 13.7884 22.2081 14.1436 22.1972C14.2294 22.1912 14.3221 22.1912 14.4178 22.1912C14.5027 22.1912 14.5914 22.1912 14.6822 22.1942L14.6773 22.1873L14.6428 22.0664V22.0585L14.6517 22.002C14.5717 22.0001 14.4948 22.0001 14.4188 22.0001C14.3192 22.0001 14.2274 22.002 14.1376 22.003C13.7795 22.0169 13.3484 22.0466 12.8571 22.0466C11.8478 22.0466 10.58 21.9228 9.16332 21.276C7.74364 20.6293 6.17006 19.4566 4.55109 17.3489C4.01242 16.6506 3.63947 16.1039 3.39974 15.6908C3.16789 15.2897 3.06529 15.0054 3.06431 14.839V14.8242C3.06431 14.7212 3.09094 14.6766 3.14027 14.638C3.19058 14.5994 3.28332 14.5776 3.41256 14.5776C3.63652 14.5776 3.95915 14.6449 4.33504 14.7529C4.90035 14.9133 5.58996 15.157 6.29042 15.3689C6.99089 15.5809 7.70417 15.7612 8.32572 15.7879C8.40958 15.7929 8.49542 15.7938 8.58323 15.7938C9.8934 15.7929 11.321 15.3888 12.8778 15.3917C14.4632 15.3927 16.1828 15.8018 18.0622 17.4935L18.1717 17.5004L18.3819 17.5301C17.4022 16.608 16.4581 16.0286 15.5504 15.677L15.3314 15.5967C14.481 15.3006 13.6651 15.1986 12.8857 15.1986H12.8778C11.469 15.2006 10.1825 15.5195 9.02028 15.5888L8.82099 15.5997C8.74108 15.6027 8.66213 15.6037 8.58419 15.6037C8.50033 15.6037 8.41648 15.6027 8.3346 15.5997C7.54435 15.5651 6.56271 15.264 5.65605 14.9708C5.20519 14.8242 4.77109 14.6786 4.3883 14.5716C4.00353 14.4617 3.67105 14.3884 3.41256 14.3884Z" fill="#FF442A"/>
<path d="M16.4087 22.108C16.6248 22.147 16.8389 22.179 17.0322 22.197L17.0697 22.199L17.1614 22.182C16.9099 22.157 16.6563 22.133 16.4087 22.108Z" fill="#FF442A"/>
<path d="M17.6883 18.7791C17.6863 18.5176 17.7515 18.3294 17.8906 18.2393C17.9527 18.1977 18.0257 18.1769 18.1086 18.1769C18.6936 18.1769 19.766 19.1495 20.6776 20.557C21.4274 21.7118 21.8674 22.8469 21.8733 23.5105C21.8743 23.773 21.8092 23.9612 21.6682 24.0543C21.608 24.0949 21.534 24.1127 21.4511 24.1127C20.8651 24.1127 19.7956 23.1421 18.883 21.7346C18.1313 20.5797 17.6922 19.4477 17.6883 18.7791ZM22.2778 16.7061C22.267 16.7803 22.2601 16.8596 22.2581 16.9378C22.2374 17.4212 22.2038 17.8124 22.1575 18.1293C22.1101 18.4463 22.0509 18.6909 21.971 18.8781C21.9158 19.0039 21.8517 19.1089 21.7698 19.1891C21.6642 19.2941 21.5202 19.3526 21.382 19.3526H21.3702C21.1472 19.3496 20.946 19.2466 20.725 19.1168C20.504 18.9861 20.2662 18.8157 20.0018 18.6454C19.477 18.2997 18.8564 17.9491 18.1333 17.8798L17.9764 17.8738C17.8235 17.8738 17.708 17.8976 17.6222 17.9392C17.5344 17.9798 17.4703 18.0372 17.419 18.1145C17.3134 18.2631 17.2611 18.5117 17.2611 18.8237C17.2611 19.2595 17.3608 19.8022 17.4624 20.3292C17.562 20.8561 17.6696 21.3642 17.6706 21.7703C17.6696 21.9228 17.6548 22.0644 17.6104 22.1932C17.566 22.321 17.4831 22.4408 17.3529 22.5092C17.27 22.5557 17.1733 22.5765 17.0707 22.5765L16.9997 22.5725C16.5488 22.5349 16.0121 22.424 15.5869 22.3378C15.9667 22.5418 16.5399 22.8301 17.3519 23.2262C17.8787 23.4838 18.4628 23.766 19.0478 23.981C19.6319 24.2009 20.212 24.3484 20.722 24.3484C20.9627 24.3484 21.1867 24.3138 21.3899 24.2454C21.5942 24.1721 21.7806 24.0612 21.9464 23.9027C22.196 23.663 22.4071 23.2995 22.5491 22.7687C22.7327 22.0734 22.8175 21.281 22.8175 20.4658C22.8155 19.1901 22.6093 17.851 22.2778 16.7061Z" fill="#6E921B"/>
<path d="M21.3821 19.3536C21.5202 19.3536 21.6632 19.2951 21.7698 19.1901C21.8517 19.1099 21.9158 19.0039 21.971 18.8791C22.0509 18.6919 22.1111 18.4473 22.1575 18.1303C22.2038 17.8134 22.2374 17.4222 22.2581 16.9388C22.2611 16.8606 22.268 16.7813 22.2779 16.7071C22.6093 17.851 22.8155 19.1911 22.8155 20.4678C22.8155 21.283 22.7317 22.0753 22.5472 22.7706C22.4041 23.3005 22.194 23.664 21.9444 23.9047C21.7787 24.0632 21.5922 24.1731 21.388 24.2474C21.1847 24.3158 20.9608 24.3504 20.72 24.3504C20.209 24.3504 19.6299 24.2028 19.0458 23.983C18.4608 23.768 17.8767 23.4857 17.3499 23.2282C16.538 22.832 15.9648 22.5438 15.5849 22.3398C16.0101 22.426 16.5468 22.5369 16.9977 22.5745L17.0687 22.5785C17.1723 22.5785 17.268 22.5577 17.3509 22.5111C17.4811 22.4428 17.564 22.323 17.6084 22.1952C17.6538 22.0664 17.6686 21.9258 17.6686 21.7723C17.6676 21.3662 17.5601 20.8581 17.4604 20.3311C17.3588 19.8052 17.2591 19.2624 17.2591 18.8256C17.2591 18.5146 17.3114 18.266 17.417 18.1165C17.4683 18.0392 17.5324 17.9818 17.6202 17.9412C17.707 17.8996 17.8215 17.8758 17.9744 17.8758L18.1313 17.8817C18.8544 17.9511 19.475 18.3027 19.9999 18.6474C20.2643 18.8177 20.502 18.9881 20.723 19.1188C20.945 19.2486 21.1463 19.3516 21.3682 19.3545L21.3821 19.3536ZM22.2818 15.8959L22.1161 15.991L22.0647 16.09C21.9888 16.2524 21.9395 16.4287 21.9118 16.609C21.8941 16.712 21.8842 16.818 21.8783 16.923C21.8428 17.7649 21.7668 18.3126 21.6622 18.6236C21.609 18.7791 21.5508 18.8712 21.5054 18.9187L21.3702 18.9722H21.3633C21.2725 18.9722 21.1117 18.9088 20.9194 18.79C20.6145 18.6107 20.2347 18.3205 19.7789 18.059C19.3754 17.8273 18.9087 17.6173 18.3809 17.5301L18.1707 17.5004L18.0612 17.4935L17.9764 17.4905C17.782 17.4905 17.6074 17.5252 17.4604 17.5955C17.2365 17.6985 17.0835 17.8867 16.9977 18.1026C16.9109 18.3195 16.8823 18.5612 16.8823 18.8247C16.8843 19.3149 16.9868 19.8726 17.0895 20.4015C17.193 20.9274 17.2917 21.4305 17.2897 21.7713C17.2917 21.9426 17.2641 22.0654 17.2276 22.1229L17.1723 22.1764L17.1605 22.1823L17.0687 22.1991L17.0313 22.1972C16.8389 22.1793 16.6238 22.1476 16.4077 22.109C16.2114 22.0773 16.0161 22.0377 15.8306 22.0011C15.6343 21.9614 15.4508 21.9238 15.2959 21.8951C15.14 21.8673 15.0167 21.8475 14.9141 21.8475L14.7888 21.8644L14.696 21.9228L14.6497 22.004L14.6408 22.0605V22.0684L14.6753 22.1892L14.773 22.2952L14.7888 22.3071C14.8499 22.3556 14.9318 22.4091 15.0423 22.4725C15.1558 22.5399 15.3028 22.6221 15.4843 22.7191C15.872 22.9242 16.4235 23.2025 17.1852 23.5719C17.713 23.8304 18.3079 24.1157 18.9127 24.3415C19.5214 24.5673 20.138 24.7298 20.72 24.7317C20.9933 24.7317 21.2627 24.6941 21.5133 24.605C21.7658 24.5178 22.0006 24.3781 22.2058 24.1801C22.5176 23.8799 22.7593 23.4491 22.9122 22.8697C23.1086 22.1318 23.1944 21.3107 23.1944 20.4688C23.1944 18.9286 22.9083 17.3221 22.4604 16.0256L22.2976 15.8978H22.2818V15.8959Z" fill="#207716"/>
<path d="M18.1076 18.1779C18.0247 18.1779 17.9517 18.1987 17.8896 18.2403C17.7505 18.3304 17.6854 18.5186 17.6873 18.7801C17.6913 19.4486 18.1303 20.5807 18.8821 21.7356C19.7956 23.1431 20.8651 24.1137 21.4501 24.1137C21.533 24.1137 21.606 24.0959 21.6672 24.0553C21.8082 23.9622 21.8734 23.774 21.8724 23.5115C21.8665 22.8469 21.4264 21.7128 20.6767 20.558C19.7651 19.1505 18.6926 18.1779 18.1076 18.1779Z" fill="#869A16"/>
<path d="M15.6145 4.63039L15.5218 4.65318C15.43 4.70072 15.3866 4.82551 15.3846 5.00181C15.3827 5.36333 15.5612 5.94374 15.8809 6.54495C16.31 7.35118 16.8458 7.92367 17.1506 7.92367L17.2443 7.8999C17.3351 7.85037 17.3795 7.72756 17.3805 7.55125C17.3825 7.18974 17.2039 6.61032 16.8852 6.00812C16.457 5.20189 15.9203 4.63039 15.6145 4.63039Z" fill="#FA6967"/>
<path d="M17.2601 1.31236L17.2158 1.31731C17.0382 1.36089 16.9474 1.66595 16.9464 2.10769C16.9464 2.4286 16.9938 2.8238 17.0944 3.23979C17.3193 4.18072 17.7307 4.8998 18.0336 4.8998L18.077 4.89187C18.2536 4.85126 18.3454 4.54521 18.3464 4.10347C18.3464 3.78355 18.3 3.38836 18.2003 2.97038C17.9724 2.02945 17.561 1.31236 17.2601 1.31236Z" fill="#FA6967"/>
</svg>
