<svg width="45" height="116" viewBox="0 0 45 116" fill="none" xmlns="http://www.w3.org/2000/svg">
<path d="M42.9805 83.9245L39.5368 109.81C39.484 113.31 31.9025 116.029 22.6011 115.887C13.2988 115.742 5.79952 112.794 5.85238 109.296L1.85754 81.6635L42.9805 83.9245Z" fill="#AA6B28"/>
<path d="M42.9805 83.9245L42.8758 83.9085L39.4321 109.795L39.4311 109.81C39.4154 111.429 37.6515 112.94 34.7305 114.029C31.8154 115.119 27.7784 115.784 23.2981 115.784C23.068 115.784 22.8341 115.782 22.6021 115.779C17.9769 115.708 13.8009 114.943 10.7889 113.761C7.77002 112.583 5.94832 110.986 5.95713 109.334V109.3V109.282L1.97991 81.7779L42.9747 84.0319L42.9805 83.9245L42.9864 83.816L1.86342 81.5571L1.77924 81.5909L1.75378 81.6794L5.74862 109.314L5.85336 109.297L5.74764 109.296V109.334C5.75939 111.161 7.67604 112.769 10.7135 113.963C13.7579 115.154 17.9563 115.923 22.6001 115.994C22.8351 115.999 23.069 116 23.3 116C27.8029 116 31.8584 115.332 34.8049 114.231C37.7455 113.13 39.6073 111.603 39.6435 109.813L39.5388 109.811L39.6435 109.827L43.0892 83.9394L43.0657 83.8568L42.9893 83.817L42.9805 83.9245Z" fill="#2E1010"/>
<path d="M42.9805 83.9245L39.5368 109.81C39.484 113.31 31.9025 116.029 22.6011 115.887C13.2988 115.742 5.79952 112.794 5.85238 109.296L1.85754 81.6635L42.9805 83.9245Z" fill="#F9A84C"/>
<path d="M42.9805 83.9245L42.8758 83.9085L39.4321 109.795L39.4311 109.81C39.4154 111.429 37.6515 112.94 34.7305 114.029C31.8154 115.119 27.7784 115.784 23.2981 115.784C23.068 115.784 22.8341 115.782 22.6021 115.779C17.9769 115.708 13.8009 114.943 10.7889 113.761C7.77002 112.583 5.94832 110.986 5.95713 109.334V109.3V109.282L1.97991 81.7779L42.9747 84.0319L42.9805 83.9245L42.9864 83.816L1.86342 81.5571L1.77924 81.5909L1.75378 81.6794L5.74862 109.314L5.85336 109.297L5.74764 109.296V109.334C5.75939 111.161 7.67604 112.769 10.7135 113.963C13.7579 115.154 17.9563 115.923 22.6001 115.994C22.8351 115.999 23.069 116 23.3 116C27.8029 116 31.8584 115.332 34.8049 114.231C37.7455 113.13 39.6073 111.603 39.6435 109.813L39.5388 109.811L39.6435 109.827L43.0892 83.9394L43.0657 83.8568L42.9893 83.817L42.9805 83.9245Z" fill="#7C4317"/>
<path d="M6.44269 88.9416L8.96038 107.135C8.96038 107.135 10.0352 112.849 16.9422 114.369C17.7292 114.542 18.5084 114.623 19.272 114.623C25.1923 114.623 30.1141 109.663 30.5311 103.848C31.0362 96.8315 31.0362 90.8743 31.0362 90.8743C31.0362 90.8743 26.8867 91.5576 21.541 91.5576C16.7621 91.5566 11.0258 91.0116 6.44269 88.9416Z" fill="#FAB76A"/>
<path d="M42.6458 85.6423C41.4731 86.6996 39.808 87.6416 37.7787 88.4264C36.0784 89.0819 34.1206 89.6279 31.97 90.0348C32.5358 90.0984 33.2622 90.1492 34.1285 90.1492C35.2659 90.1492 36.6452 90.0606 38.228 89.799C38.228 89.799 38.3582 89.6807 38.5178 89.6807C38.7733 89.6807 39.1061 89.9751 39.1267 91.497C39.1619 93.9817 36.8605 109.034 36.8605 109.034C36.8605 109.034 36.4161 112.913 31.0949 114.368C29.3143 114.854 26.4315 115.249 23.1992 115.249C16.8707 115.249 9.20311 113.739 5.84161 108.471L5.9581 109.281V109.299V109.333C5.94832 110.985 7.771 112.583 10.7899 113.76C13.8019 114.942 17.9788 115.707 22.6031 115.778C22.8351 115.781 23.069 115.783 23.2991 115.783C27.7794 115.783 31.8163 115.118 34.7315 114.028C37.6515 112.939 39.4164 111.428 39.4321 109.809L39.4331 109.794L42.6458 85.6423Z" fill="#DE9342"/>
<path d="M42.7681 85.5299C42.728 85.5677 42.6879 85.6045 42.6458 85.6423L39.4331 109.795L39.4321 109.81C39.4164 111.429 37.6525 112.94 34.7315 114.029C31.8164 115.119 27.7795 115.784 23.2991 115.784C23.0691 115.784 22.8351 115.782 22.6031 115.779C17.9779 115.708 13.8019 114.943 10.7899 113.761C7.77102 112.583 5.94932 110.986 5.95813 109.334V109.3V109.282L5.84164 108.472C5.79367 108.399 5.74571 108.322 5.70166 108.245L5.85241 109.296C5.79955 112.794 13.2988 115.743 22.6011 115.887C22.8341 115.89 23.0681 115.892 23.3001 115.892C32.2804 115.892 39.484 113.221 39.5368 109.81L42.7681 85.5299Z" fill="#6F3B14"/>
<path d="M0.906067 76.7876L4.88132 76.9428C8.81644 74.6759 15.3309 73.1918 22.7098 73.1918C30.9422 73.1918 38.1037 75.0379 41.801 77.7594C43.3339 77.271 44.8943 76.7637 44.8943 76.7637L44.4401 82.4036H44.4381C43.888 87.0567 34.3712 90.7599 22.7098 90.7599C10.9142 90.7599 1.31916 86.9702 0.968719 82.2414L0.907045 82.1728V77.0074L0.911937 77.0253L0.906067 76.7876Z" fill="#F9A72B"/>
<path d="M0.906079 76.7876L0.902166 76.894L4.8784 77.0502L4.93517 77.0363C8.8419 74.7823 15.3446 73.2963 22.7098 73.2982C30.9256 73.2963 38.0744 75.1454 41.7383 77.845L41.8313 77.8599C43.3682 77.3725 44.9285 76.8652 44.9285 76.8652L44.8943 76.7617L44.7895 76.7548L44.3353 82.3916L44.4401 82.4016V82.2932H44.4381L44.3353 82.3887C44.0749 84.6406 41.5984 86.7235 37.7043 88.2235C33.8133 89.7254 28.5293 90.6495 22.7108 90.6495C16.8237 90.6495 11.4869 89.7046 7.58697 88.1717C3.68122 86.6409 1.23792 84.5183 1.07641 82.2325L1.05096 82.1678L1.01474 82.129V77.0054H0.909014L0.807213 77.0363L0.812105 77.0522L0.928596 77.1288L1.01865 77.0214L1.01474 76.7846L0.906079 76.7876L0.800358 76.7886L0.805257 77.0243L0.910971 77.0233L1.01278 76.9915L1.00788 76.9766L0.891396 76.901L0.800358 77.0054V82.1708L0.827766 82.2404L0.88944 82.3121L0.967752 82.2395L0.863009 82.2484C1.05096 84.6903 3.57942 86.8269 7.50867 88.3727C11.4428 89.9174 16.7993 90.8654 22.7088 90.8654C28.5518 90.8654 33.8564 89.9393 37.7778 88.4254C41.6953 86.9095 44.2502 84.8147 44.5429 82.4135L44.4371 82.4016V82.508H44.4391L44.5438 82.4105L44.999 76.7727L44.9599 76.6792L44.861 76.6613C44.861 76.6613 43.3006 77.1656 41.7667 77.654L41.799 77.7574L41.8607 77.6699C38.1302 74.9275 30.9559 73.0834 22.7078 73.0814C15.3153 73.0834 8.78611 74.5665 4.82651 76.8473L4.87937 76.9418L4.88525 76.8343L0.909014 76.6792L0.829723 76.709L0.798401 76.7876H0.906079Z" fill="#7C4317"/>
<path d="M0.906067 76.7876C0.906067 81.6705 10.7537 85.6283 22.9016 85.6283C35.0486 85.6283 44.8943 81.6705 44.8943 76.7876C44.8943 71.9047 35.0486 67.9458 22.9016 67.9458C10.7537 67.9458 0.906067 71.9047 0.906067 76.7876Z" fill="#F9A84C"/>
<path d="M0.906075 76.7876H0.800354C0.810143 79.3101 3.31805 81.5322 7.30897 83.1387C11.3067 84.7451 16.8159 85.7348 22.9016 85.7348C28.9874 85.7348 34.4946 84.7451 38.4924 83.1387C42.4833 81.5322 44.9931 79.3101 45 76.7876C44.9922 74.2631 42.4833 72.042 38.4924 70.4345C34.4946 68.8281 28.9874 67.8384 22.9016 67.8384C16.8159 67.8384 11.3067 68.8281 7.30897 70.4345C3.31805 72.042 0.809164 74.2631 0.800354 76.7876H0.906075H1.0118C1.00299 74.4282 3.4179 72.227 7.38728 70.6345C11.3498 69.041 16.8384 68.0533 22.9016 68.0533C28.9629 68.0533 34.4525 69.041 38.415 70.6345C42.3834 72.227 44.7974 74.4272 44.7895 76.7876C44.7974 79.147 42.3834 81.3462 38.415 82.9387C34.4525 84.5332 28.9639 85.5209 22.9016 85.5209C16.8394 85.5209 11.3498 84.5332 7.38728 82.9387C3.4179 81.3462 1.00397 79.148 1.0118 76.7876H0.906075Z" fill="#7C4317"/>
<path d="M1.60303 76.6165C1.60303 81.0289 11.1158 84.6058 22.8537 84.6058C34.5895 84.6058 44.1004 81.0279 44.1004 76.6165C44.1004 72.2041 34.5895 68.6302 22.8537 68.6302C11.1158 68.6302 1.60303 72.2041 1.60303 76.6165Z" fill="#C7883C"/>
<path d="M1.60304 76.6165H1.49731C1.51004 78.9122 3.93572 80.9125 7.79155 82.3668C11.6523 83.818 16.9755 84.7132 22.8546 84.7132C28.7329 84.7132 34.0541 83.818 37.9148 82.3668C41.7706 80.9125 44.1973 78.9112 44.209 76.6165C44.1973 74.3228 41.7697 72.3205 37.9148 70.8672C34.0551 69.417 28.7329 68.5228 22.8546 68.5228C16.9755 68.5228 11.6533 69.417 7.79155 70.8672C3.9367 72.3205 1.51004 74.3238 1.49731 76.6165H1.60304H1.70778C1.69799 74.4978 4.02774 72.5075 7.86301 71.0692C11.6914 69.6298 16.995 68.7366 22.8527 68.7366C28.7084 68.7366 34.011 69.6289 37.8404 71.0692C41.6757 72.5075 44.0064 74.4978 43.9947 76.6165C44.0064 78.7352 41.6757 80.7265 37.8404 82.1659C34.012 83.6042 28.7094 84.4984 22.8527 84.4984C16.995 84.4984 11.6914 83.6052 7.86301 82.1659C4.02774 80.7265 1.69799 78.7352 1.70778 76.6165H1.60304Z" fill="#7C4317"/>
<path d="M36.5141 75.4358C36.5141 75.4358 36.9086 74.4123 33.4815 73.151C30.0554 71.8897 29.2713 74.1139 29.2713 74.1139C29.2713 74.1139 29.38 73.159 27.5387 71.9574C25.6964 70.7578 22.9702 72.6974 22.9702 72.6974C19.9817 71.3069 17.7381 74.4252 17.7381 74.4252C15.0001 71.652 10.3563 74.3784 10.3563 74.3784C5.64197 73.343 4.48689 77.2531 4.48689 77.2531C3.32886 77.2093 2.47136 77.6032 1.83411 78.1503C4.15504 81.6297 12.3777 84.3551 22.2302 84.5978C32.8795 84.8604 41.7658 82.131 43.3966 78.3244C42.1955 77.091 40.0146 76.711 40.0146 76.711C38.9495 75.1414 36.5141 75.4358 36.5141 75.4358Z" fill="#584521"/>
<path d="M36.6149 75.4637C36.9546 74.285 34.1471 73.3669 33.5187 73.1192C32.2148 72.604 30.12 72.3573 29.2958 73.8364C29.1753 74.0542 29.2106 74.0363 29.2683 74.0214C29.3104 74.0094 29.3672 73.9965 29.376 74.087C29.3369 73.7279 29.1773 73.4693 28.9894 73.1719C28.4657 72.3324 27.4936 71.7833 26.5705 71.5555C25.7414 71.3496 24.8007 71.7048 24.047 72.0121C23.6564 72.1713 23.2844 72.3941 22.9291 72.6248C23.0759 72.5303 21.6066 72.3095 21.7769 72.3145C20.7139 72.2737 19.8554 72.5443 18.9558 73.1262C18.5593 73.3828 18.2206 73.7299 17.9005 74.0751C17.4737 74.5346 17.4268 73.9577 16.8786 73.7011C14.8826 72.7621 12.782 73.165 10.8291 74.0482C10.324 74.277 9.87858 74.2313 9.40284 74.1855C9.11407 74.1586 8.81257 74.1308 8.4817 74.1636C7.41374 74.271 6.52589 74.5834 5.68699 75.2717C5.14175 75.7173 4.73943 76.3678 4.46142 77.0134C4.35473 77.265 2.22075 77.7524 1.73816 78.1135L1.74109 78.1473C3.47079 80.5555 6.4838 81.7302 9.17182 82.6204C13.3791 84.014 17.8722 84.5063 22.2752 84.6456C26.873 84.7918 31.5423 84.3472 35.9884 83.1158C38.6754 82.3708 42.1857 81.0866 43.4994 78.3503L43.4779 78.3144C42.3375 77.3088 40.8495 77.1328 39.7414 76.2823C38.7792 75.5482 37.6476 75.2707 36.4504 75.3871C36.3418 75.396 36.5268 75.4895 36.5806 75.4836C37.954 75.3513 38.9946 76.529 40.2945 76.8145C41.4359 77.0651 43.8234 77.6689 42.8014 79.146C42.4363 79.6712 41.9263 80.087 41.432 80.4769C38.1038 83.0969 33.2309 83.815 29.193 84.2766C23.6251 84.9132 17.8849 84.577 12.41 83.4032C10.0469 82.8979 7.72796 82.139 5.55875 81.0578C4.72376 80.642 3.94555 80.1238 3.21628 79.5429C2.91282 79.2932 2.63188 79.0207 2.37346 78.7262C1.31528 77.5843 4.42912 77.3088 4.53386 77.3048L4.59259 77.282C5.39528 74.7495 7.99814 74.0064 10.3778 74.4282C10.6049 74.467 11.0934 74.096 11.2901 74.0094C13.3536 73.0744 15.8028 72.8009 17.6646 74.4381L17.8398 74.463C18.1247 74.085 18.4654 73.7637 18.8207 73.4554C20.2489 72.2101 21.033 72.7004 23.0182 72.7492C23.3647 72.7581 23.8894 72.2578 24.2173 72.1006C25.7855 71.3467 29.2272 71.9286 29.1753 74.088L29.378 74.1427C29.6873 73.3639 30.4499 72.9969 31.2173 72.8407C30.6681 72.9521 36.9516 73.5389 36.4171 75.4099L36.6149 75.4637Z" fill="#403215"/>
<path d="M10.6382 75.1275C10.6382 75.1275 6.84109 74.4551 6.10791 76.4991C5.37766 78.5452 2.92065 77.4401 4.49764 79.2086C6.07364 80.9732 8.51499 81.0608 9.61819 80.1059C10.7204 79.149 11.111 77.7962 13.3017 77.9832C15.4915 78.1722 14.1309 76.3947 12.8368 76.3768C11.5437 76.3559 13.9547 74.6978 15.0011 74.5794C16.0485 74.458 12.7673 73.2793 10.6382 75.1275Z" fill="#6C562B"/>
<path d="M20.1196 77.1516C20.1196 77.1516 19.2572 76.0943 16.6955 76.0316C14.1298 75.969 15.5913 77.0233 15.4729 77.5207C15.3525 78.021 17.0547 79.0137 17.0547 79.0137C17.0547 79.0137 17.7791 77.279 20.1196 77.1516Z" fill="#6C562B"/>
<path d="M18.99 74.7505C18.7287 74.7316 20.57 72.7044 22.4504 73.335C23.302 73.6215 24.0988 73.4086 24.8565 73.1978C25.7718 72.9411 26.6293 72.6845 27.4525 73.3072C28.96 74.4461 28.2894 75.3841 28.2894 75.3841C28.2894 75.3841 23.5311 75.3353 23.0739 77.4421C23.0739 77.4421 21.6467 74.9235 18.99 74.7505Z" fill="#6C562B"/>
<path d="M31.5932 77.1268C31.5452 77.1367 31.1634 77.0681 30.5967 76.9995C29.0383 76.8085 26.0977 76.6185 25.0611 78.1046C25.0611 78.1046 24.4737 78.5392 25.6034 79.4792C26.732 80.4202 27.5533 80.6977 27.5249 81.8645C27.5249 81.8645 29.0451 78.4826 34.9791 79.9537C40.9122 81.4278 41.5876 78.8367 40.3826 78.1006C39.1766 77.3655 36.7783 78.39 36.7783 78.39C36.7783 78.39 35.8601 76.1172 31.5932 77.1268Z" fill="#6C562B"/>
<path d="M35.0555 75.216C35.0555 75.216 33.7624 73.6484 31.9925 74.0084C30.2198 74.3675 35.5508 76.8373 35.0555 75.216Z" fill="#775E30"/>
<path d="M24.5188 81.1791C24.5188 81.1791 22.5796 79.6155 20.0433 80.3625C20.0433 80.3625 19.827 82.8949 19.2426 82.8562C18.6552 82.8174 17.7224 79.1549 14.6467 79.4563C11.572 79.7587 10.2104 81.0399 11.48 82.0932C12.7496 83.1466 18.805 84.4297 22.4758 84.1184C26.1467 83.8031 25.4321 82.1609 24.5188 81.1791Z" fill="#6C562B"/>
<path d="M32.5779 81.1125C32.5779 81.1125 30.0328 80.7942 28.8817 82.3359C27.7295 83.8797 33.0263 83.5714 34.9165 82.6682C36.8067 81.765 32.8638 81.1334 32.5779 81.1125Z" fill="#6C562B"/>
<path d="M24.0881 69.3116C14.5312 69.3116 7.46657 71.9713 7.46657 71.9713C6.10396 72.7153 7.36476 73.7727 9.28044 73.7727C10.1291 73.7727 11.108 73.5628 12.0409 73.0267C12.8162 72.584 13.5317 72.4339 14.1876 72.4339C14.8493 72.4339 15.4474 72.5851 15.9848 72.7372C16.5203 72.8894 16.9931 73.0406 17.3983 73.0406C17.7625 73.0406 18.0728 72.9193 18.3312 72.5691C18.853 71.8559 19.8416 71.665 20.7451 71.665C21.77 71.665 22.6843 71.9087 22.6843 71.9087C22.6843 71.9087 22.8938 70.9806 25.6738 70.9806C25.8158 70.9806 25.9646 70.9816 26.1202 70.9876C29.3182 71.092 29.7274 72.6517 29.7274 72.6517C29.9878 71.659 32.2725 71.7167 32.6259 70.8344C32.9754 69.9541 31.648 69.8924 31.648 69.8924C29.0187 69.4777 26.4756 69.3116 24.0881 69.3116Z" fill="#D09C5D"/>
<path d="M10.692 75.8864C10.6127 75.7312 9.59665 75.0777 7.7074 75.8118C5.82011 76.5459 6.87535 77.5475 8.31921 77.3148C9.76404 77.081 10.9661 76.4285 10.692 75.8864Z" fill="#7C6232"/>
<path d="M18.0141 76.4822C18.0141 76.4822 16.7141 76.2335 16.9402 76.7647C17.1673 77.2988 19.314 76.7329 18.0141 76.4822Z" fill="#7C6232"/>
<path d="M27.8744 74.7196C27.8744 74.7196 27.3722 73.1162 25.7493 73.3559C24.1243 73.5966 27.8 75.6855 27.8744 74.7196Z" fill="#7C6232"/>
<path d="M36.1665 78.3741C36.1665 78.3741 33.0772 76.7538 33.0752 78.3005C33.0752 79.8452 37.3265 79.4911 36.1665 78.3741Z" fill="#7C6232"/>
<path d="M27.8744 83.0859C27.8059 83.0929 27.7364 83.0989 27.6678 83.1069C27.7001 83.1149 27.7344 83.1189 27.7736 83.1189C27.7931 83.1189 27.8137 83.1169 27.8352 83.1149C27.845 83.1149 27.8568 83.1039 27.8744 83.0859Z" fill="#463618"/>
<path d="M44.1004 80.1238C43.0491 84.9937 34.1549 88.9406 34.1549 88.9406C34.1549 88.9406 39.2578 87.2347 41.246 86.0182C43.2341 84.7978 43.8615 82.5468 43.8615 82.5468L44.1004 80.1238Z" fill="#DE9225"/>
<path d="M9.47625 76.4733C9.47625 76.4733 8.08917 75.1563 6.57777 76.6344C5.06833 78.1125 5.84165 79.4275 7.42842 79.2693C9.01716 79.1112 11.0709 77.7663 9.47625 76.4733Z" fill="#584521"/>
<path d="M9.56922 76.4514C9.0044 75.9322 8.18606 75.782 7.46657 75.9919C6.47203 76.2813 5.07809 77.8161 5.92189 78.8645C6.59438 79.698 8.07544 79.2703 8.86344 78.9132C9.3705 78.6835 9.87169 78.3184 10.0968 77.7873C10.321 77.2571 9.94021 76.7787 9.56922 76.4514L9.38519 76.4942C10.2368 77.2372 9.96077 78.0538 9.1062 78.6327C8.2859 79.1868 6.64039 79.6791 5.99433 78.6576C5.39035 77.7057 6.71968 76.4623 7.4421 76.1162C8.0774 75.8128 8.88009 76.0257 9.38421 76.4932L9.56922 76.4514Z" fill="#403215"/>
<path d="M9.79534 77.0064C9.76597 77.1158 9.70723 77.265 9.59662 77.4222C9.69842 77.4282 9.80317 77.451 9.90106 77.4869C9.90693 77.3297 9.87365 77.1685 9.79534 77.0064Z" fill="#54401D"/>
<path d="M9.82961 76.8314C9.82961 76.8314 9.82569 76.9 9.79535 77.0064C9.87366 77.1686 9.90694 77.3297 9.90009 77.4869C9.94904 77.5067 9.99895 77.5286 10.0459 77.5525C10.0724 77.3188 10.0107 77.0761 9.82961 76.8314Z" fill="#3D2E12"/>
<path d="M5.84555 78.0299C5.82499 78.2448 5.8661 78.4587 5.99336 78.6586C6.26549 79.0903 6.71872 79.2514 7.21305 79.2514C7.62908 79.2514 8.07447 79.137 8.46603 78.9739C8.30157 78.7083 8.34856 78.403 8.49735 78.1304C8.42002 78.1523 8.33779 78.1712 8.25165 78.1891C8.25165 78.1891 7.55567 78.5711 6.92233 78.5711C6.76081 78.5711 6.60517 78.5482 6.46323 78.4855C6.10398 78.3254 5.90134 78.2 5.84555 78.0299Z" fill="#54401D"/>
<path d="M6.02667 77.3277C5.38745 78.4199 6.00317 79.2832 7.17392 79.2832C7.25614 79.2832 7.34131 79.2793 7.42843 79.2703C7.77496 79.2355 8.14302 79.144 8.48954 79.0107C8.48171 78.9968 8.47486 78.9858 8.46703 78.9729C8.07547 79.136 7.63008 79.2504 7.21405 79.2504C6.71972 79.2504 6.26649 79.0893 5.99436 78.6576C5.86612 78.4577 5.82501 78.2438 5.84655 78.029C5.79467 77.8728 5.86711 77.6778 6.05212 77.3864L6.02667 77.3277Z" fill="#3D2E12"/>
<path d="M8.2301 76.2783C7.33344 76.2793 6.62669 77.2014 6.62669 77.2014C6.48867 77.3914 6.43188 77.5286 6.43188 77.6241C6.43188 77.7574 6.54642 77.8091 6.71087 77.8091C7.03586 77.8091 7.55272 77.6122 7.75241 77.4809C8.03433 77.2969 9.04845 76.9756 9.04552 76.6563C9.04552 76.5558 8.93979 76.4544 8.67451 76.3589C8.52376 76.3022 8.37498 76.2783 8.2301 76.2783Z" fill="#654E21"/>
<path d="M10.2075 77.7474C10.2075 77.7474 9.50265 77.0541 8.81841 77.8509C8.13417 78.6466 8.54041 79.3429 9.30002 79.2494C10.0587 79.1559 11.0062 78.4268 10.2075 77.7474Z" fill="#584521"/>
<path d="M10.3005 77.7305C10.0499 77.4958 9.64071 77.3526 9.30398 77.45C8.71273 77.6211 8.03631 78.4915 8.53848 79.0714C9.22272 79.8621 11.3273 78.7073 10.3005 77.7305L10.1145 77.7643C11.064 78.6645 9.1405 79.7189 8.64029 78.9172C8.37305 78.4875 8.83411 77.9136 9.13756 77.6619C9.44004 77.4122 9.85313 77.5167 10.1145 77.7643L10.3005 77.7305Z" fill="#403215"/>
<path d="M37.9041 78.9868C37.9041 78.9868 36.517 77.6739 35.0056 79.152C33.4942 80.6291 34.2675 81.946 35.8543 81.7859C37.443 81.6267 39.4967 80.2819 37.9041 78.9868Z" fill="#584521"/>
<path d="M37.9844 78.9839C37.4577 78.5004 36.7049 78.3105 36.0178 78.4517C34.9694 78.6676 33.4873 80.2849 34.3576 81.3602C35.0389 82.2057 36.4906 81.8137 37.2942 81.4497C37.8013 81.2189 38.2956 80.8569 38.5208 80.3257C38.7459 79.7975 38.3544 79.3071 37.9844 78.9839C37.9442 78.949 37.7396 78.9182 37.8238 78.9908C39.8501 80.7663 35.2082 82.8522 34.3693 81.1065C33.9269 80.1874 35.0555 79.1142 35.7349 78.7223C36.3927 78.3413 37.2707 78.4815 37.8238 78.9908C37.8639 79.0266 38.0685 79.0595 37.9844 78.9839Z" fill="#403215"/>
<path d="M36.9173 80.649C36.842 80.6679 36.7636 80.6877 36.6795 80.7027C36.6795 80.7027 35.9845 81.0876 35.3501 81.0876C35.3012 81.0876 35.2513 81.0856 35.2043 81.0796C35.0036 81.1533 34.7706 81.2179 34.4868 81.2965C34.7413 81.6247 35.169 81.766 35.6507 81.766C36.053 81.766 36.4925 81.6665 36.8978 81.4994C36.6951 81.2418 36.7509 80.9265 36.9173 80.649ZM38.0108 80.0561C37.9833 80.0561 37.955 80.0571 37.9276 80.0601C37.7778 80.2332 37.5556 80.4072 37.2355 80.5395C37.0583 80.7952 36.8948 81.1403 37.0544 81.4268C37.6926 81.1244 38.2134 80.6489 38.3122 80.1188C38.2163 80.077 38.1145 80.0561 38.0108 80.0561ZM38.23 79.4991C38.2007 79.6085 38.1429 79.7677 38.0254 79.9328C38.1272 79.9437 38.231 79.9696 38.3289 80.0064C38.3416 79.8423 38.3113 79.6712 38.23 79.4991Z" fill="#54401D"/>
<path d="M34.4858 81.2955C34.4613 81.3025 34.4339 81.3104 34.4084 81.3174C34.6444 81.6168 35.0623 81.7978 35.5978 81.7978C35.682 81.7978 35.7662 81.7929 35.8552 81.7849C36.2018 81.7501 36.5718 81.6586 36.9193 81.5233L36.9183 81.5213C36.9095 81.5123 36.9026 81.5044 36.8978 81.4964C36.4925 81.6645 36.053 81.763 35.6507 81.763C35.1681 81.765 34.7393 81.6238 34.4858 81.2955ZM38.3132 80.1188C38.2134 80.648 37.6936 81.1244 37.0553 81.4268C37.0593 81.4318 37.0642 81.4397 37.0681 81.4447C37.07 81.4507 37.074 81.4556 37.0769 81.4606C37.7504 81.1702 38.3181 80.7146 38.4503 80.1964C38.4062 80.1645 38.3612 80.1407 38.3132 80.1188ZM38.2574 79.3479C38.2574 79.3479 38.2525 79.4066 38.23 79.4991C38.3113 79.6712 38.3416 79.8423 38.3289 80.0074C38.3788 80.0283 38.4268 80.0492 38.4718 80.074C38.5002 79.8413 38.4385 79.5966 38.2574 79.3479Z" fill="#3D2E12"/>
<path d="M36.6589 78.7949C36.5101 78.7949 36.3643 78.8197 36.2272 78.8635C36.608 79.0445 36.8009 79.3012 36.5777 79.7169C36.5571 79.7547 36.5385 79.7895 36.5189 79.8263C36.9213 79.6423 37.4753 79.4066 37.4734 79.1708C37.4734 79.0694 37.3686 78.9689 37.1033 78.8724C36.9516 78.8197 36.8038 78.7949 36.6589 78.7949Z" fill="#654E21"/>
<path d="M38.6333 80.263C38.6333 80.263 37.9295 79.5697 37.2463 80.3655C36.561 81.1622 36.9692 81.8595 37.7269 81.764C38.4836 81.6715 39.4331 80.9424 38.6333 80.263Z" fill="#584521"/>
<path d="M38.7273 80.256C38.4836 80.0263 38.0685 79.8632 37.7357 79.9577C37.2267 80.1059 36.4377 80.9682 36.9174 81.5223C37.6515 82.3708 39.762 81.2388 38.7273 80.256L38.5394 80.271C39.4987 81.1811 37.5507 82.2215 37.0681 81.4447C36.8528 81.0995 37.1386 80.6539 37.3451 80.3933C37.6525 80.0074 38.1821 79.9328 38.5394 80.271L38.7273 80.256Z" fill="#403215"/>
<path d="M1.85852 80.4231C1.85852 80.4231 1.86538 82.7049 2.08367 83.2222C2.30098 83.7384 2.91963 84.6058 2.91963 84.6058C8.49928 88.9396 17.2505 89.801 23.4116 89.801C27.3614 89.801 30.2482 89.4479 30.5575 89.427C31.3504 89.3783 31.0372 85.9695 31.0372 85.9695C27.8558 86.2908 25.0062 86.432 22.4543 86.432C5.74274 86.432 1.85852 80.4231 1.85852 80.4231Z" fill="#FAB64F"/>
<path d="M17.8222 74.1497C17.7194 74.1697 17.6166 74.1907 17.5129 74.2127C17.5158 74.2157 17.5168 74.2167 17.5197 74.2187C17.552 74.2377 17.5843 74.2477 17.6215 74.2477C17.6793 74.2477 17.7439 74.2187 17.8222 74.1497Z" fill="#875723"/>
<path d="M13.7687 83.068C13.8049 83.0849 13.8431 83.1028 13.8813 83.1207C14.6095 83.4599 15.5346 83.6201 16.5135 83.6986C15.5189 83.5196 14.5753 83.3028 13.7687 83.068ZM17.5129 74.2124H17.51C17.5139 74.2163 17.5159 74.2163 17.5198 74.2183C17.5168 74.2163 17.5159 74.2153 17.5129 74.2124ZM17.0548 79.0137C17.0548 79.0137 15.3525 78.021 15.4729 77.5207C15.5884 77.0373 14.2131 76.0286 16.4851 76.0286C16.5507 76.0286 16.6221 76.0296 16.6956 76.0316C19.2573 76.0953 20.1197 77.1516 20.1197 77.1516C17.7792 77.279 17.0548 79.0137 17.0548 79.0137ZM17.0587 79.2325C17.3426 79.2325 17.6147 79.0266 17.6147 79.0266C18.3371 77.9991 21.2043 78.4586 20.9772 77.3914C20.752 76.326 16.5751 74.9842 16.5751 74.9842C16.7435 74.9713 16.908 74.9663 17.0695 74.9663C21.1387 74.9663 23.2198 78.396 23.2198 78.396C24.0206 76.7965 26.3806 76.3718 27.4525 76.3718C28.0966 76.3718 28.2748 76.525 27.3723 76.6662C24.9662 77.0412 24.1028 79.0724 24.1028 79.0724C25.9617 79.6204 27.3566 81.9132 26.7419 81.9132C26.5539 81.9132 26.1751 81.6973 25.5613 81.1473C24.2398 79.9626 22.2077 79.6274 20.662 79.6274C19.1594 79.6274 18.1169 79.9457 18.6455 80.1108C19.7213 80.449 19.3385 82.4663 19.3385 82.4663C19.0263 80.46 15.9438 79.1788 15.9438 79.1788C15.2683 79.0266 14.6712 78.962 14.1436 78.962C12.9278 78.962 12.087 79.3081 11.5153 79.7309C11.1296 80.1158 10.7478 80.6062 10.3827 81.2239C10.3827 81.2239 10.6255 80.3854 11.5153 79.7309C12.4922 78.7561 13.5005 78.4596 14.3775 78.4596C15.6736 78.4596 16.6779 79.1092 16.8512 79.1888C16.9197 79.2216 16.9902 79.2325 17.0587 79.2325ZM19.7027 73.9478C19.2074 73.9498 18.6837 74.0025 18.1443 74.094C18.0356 74.2104 17.9319 74.3337 17.835 74.462L17.6598 74.4371C17.5785 74.3655 17.4963 74.2989 17.414 74.2342C15.8175 74.5814 14.1749 75.1722 12.92 75.6129C12.4345 76.0078 12.2397 76.3688 12.8378 76.3768C14.0663 76.3947 15.3564 77.9991 13.6072 77.9991C13.5132 77.9991 13.4133 77.9931 13.3018 77.9832C13.1628 77.9713 13.0316 77.9653 12.9073 77.9653C11.0601 77.9653 10.6519 79.2096 9.61918 80.1048C9.4283 80.27 9.19434 80.4062 8.93396 80.5047C9.13855 80.6867 9.40285 80.8618 9.72686 81.0389C10.3788 81.394 10.8222 81.6347 11.2343 81.8485C10.4268 80.8489 11.8041 79.7329 14.6458 79.4553C14.7671 79.4434 14.8866 79.4384 15.0001 79.4384C17.7939 79.4384 18.6778 82.8174 19.2416 82.8552C19.2416 82.8552 19.2504 82.8562 19.2553 82.8562C19.8299 82.8562 20.0433 80.3615 20.0433 80.3615C20.5308 80.2173 20.9978 80.1586 21.4314 80.1586C23.2531 80.1586 24.5188 81.1781 24.5188 81.1781C25.2755 81.9918 25.8951 83.259 24.0019 83.8478C24.4464 83.7593 24.9045 83.6459 25.3822 83.5325C26.0987 83.3585 26.8593 83.1884 27.6679 83.1068C26.9396 82.9218 27.8333 80.7295 31.0078 80.1058C31.5472 80.0004 32.0582 79.9557 32.5388 79.9557C33.1399 79.9557 33.6929 80.0263 34.1833 80.1357C34.2205 80.0253 34.2705 79.9149 34.3282 79.8085C33.5383 79.6513 32.8335 79.5826 32.205 79.5826C28.5508 79.5826 27.5259 81.8645 27.5259 81.8645C27.5543 80.6967 26.733 80.4202 25.6044 79.4792C24.4757 78.5392 25.0621 78.1046 25.0621 78.1046C25.7502 77.1188 27.2744 76.8702 28.6791 76.8702C29.3917 76.8702 30.074 76.9358 30.5977 76.9995C31.1224 77.0631 31.4904 77.1278 31.5785 77.1278C31.5785 77.1278 31.5903 77.1278 31.5942 77.1268C31.8957 77.0542 32.1796 77.0005 32.4488 76.9597C31.0734 76.5091 28.9277 76.1172 28.6409 75.3702C28.591 75.2379 28.5156 75.1294 28.4216 75.0419C28.3815 75.2597 28.2905 75.3851 28.2905 75.3851C28.2905 75.3851 28.2816 75.3851 28.264 75.3851C27.8754 75.3851 23.5115 75.4308 23.075 77.4431C23.075 77.4431 21.6468 74.9235 18.9901 74.7505C18.8736 74.7405 19.1721 74.3377 19.7027 73.9478Z" fill="#3C2C13"/>
<path d="M18.1442 74.094C18.0385 74.1099 17.9299 74.1308 17.8222 74.1507C17.7439 74.2183 17.6793 74.2481 17.6205 74.2481C17.5843 74.2481 17.552 74.2372 17.5187 74.2193C17.5148 74.2173 17.5129 74.2173 17.5089 74.2134C17.4776 74.2213 17.4453 74.2293 17.413 74.2342C17.4953 74.2989 17.5775 74.3655 17.6587 74.4371L17.8339 74.462C17.9318 74.3337 18.0356 74.2103 18.1442 74.094Z" fill="#2B200C"/>
<path d="M12.92 75.6119C12.5656 75.7342 12.2416 75.8476 11.9587 75.9371C9.92165 76.5867 11.9832 77.0154 10.4463 77.9007C10.9309 78.6029 9.96962 79.334 9.19042 79.334C8.97115 79.334 8.76461 79.2753 8.60995 79.143C8.30356 79.6045 8.42983 80.0601 8.93396 80.5057C9.19532 80.4063 9.4283 80.271 9.61918 80.1058C10.6529 79.2106 11.0611 77.9663 12.9073 77.9663C13.0316 77.9663 13.1637 77.9723 13.3017 77.9842C13.4124 77.9941 13.5132 78.0001 13.6072 78.0001C15.3564 78.0001 14.0663 76.3957 12.8378 76.3778C12.2397 76.3678 12.4345 76.0077 12.92 75.6119Z" fill="#493719"/>
<path d="M17.5217 76.9875C17.2525 76.9875 17.0088 76.9258 16.9412 76.7647C16.8248 76.4902 17.1135 76.4245 17.4209 76.4245C17.7097 76.4245 18.0141 76.4822 18.0141 76.4822C18.9225 76.6583 18.1463 76.9875 17.5217 76.9875ZM16.4851 76.0286C14.2131 76.0286 15.5884 77.0372 15.4729 77.5207C15.3525 78.021 17.0548 79.0137 17.0548 79.0137C17.0548 79.0137 17.7792 77.279 20.1197 77.1516C20.1197 77.1516 19.2573 76.0943 16.6956 76.0316C16.6221 76.0296 16.5507 76.0286 16.4851 76.0286Z" fill="#493719"/>
<path d="M19.7291 73.9478C19.7203 73.9478 19.7115 73.9478 19.7036 73.9478C19.1731 74.3377 18.8745 74.7405 18.99 74.7505C21.6467 74.9235 23.0749 77.4431 23.0749 77.4431C23.5105 75.4308 27.8744 75.3851 28.264 75.3851C28.2826 75.3851 28.2904 75.3851 28.2904 75.3851C28.2904 75.3851 28.3814 75.2597 28.4216 75.0419C28.2747 74.9046 28.0809 74.8161 27.8695 74.7624C27.8372 74.9106 27.707 74.9723 27.5181 74.9723C27.2831 74.9723 26.9611 74.8758 26.6351 74.7296C26.223 74.7813 25.9147 74.8659 25.9147 74.8659C24.7361 74.4869 23.8061 75.0539 21.263 74.1726C20.8059 74.0154 20.288 73.9478 19.7291 73.9478Z" fill="#493719"/>
<path d="M28.6781 76.8701C27.2724 76.8701 25.7492 77.1188 25.0611 78.1045C25.0611 78.1045 24.4737 78.5392 25.6034 79.4792C26.732 80.4202 27.5533 80.6977 27.5249 81.8645C27.5249 81.8645 28.5498 79.5826 32.204 79.5826C32.8325 79.5826 33.5372 79.6503 34.3272 79.8085C34.4202 79.6413 34.5357 79.4802 34.6659 79.331C33.8622 79.2793 33.0762 78.9659 33.0762 78.3015C33.0782 77.8957 33.2896 77.7077 33.6019 77.652C33.5412 77.3814 33.0752 77.1656 32.4478 76.9607C32.1786 77.0014 31.8947 77.0552 31.5932 77.1278C31.5893 77.1288 31.5844 77.1288 31.5844 77.1288C31.4894 77.1288 31.1214 77.0641 30.5967 77.0004C30.073 76.9348 29.3907 76.8701 28.6781 76.8701Z" fill="#493719"/>
<path d="M15.0001 79.4384C14.8865 79.4384 14.7671 79.4444 14.6457 79.4553C11.804 79.7328 10.4258 80.8489 11.2343 81.8485C11.9019 82.1947 12.4912 82.4732 13.7687 83.068C14.5753 83.3018 15.5189 83.5196 16.5144 83.6986C18.4517 83.8538 20.6042 83.6887 21.8817 83.9394C22.1225 83.9871 22.3682 84.007 22.6197 84.007C23.0622 84.007 23.5232 83.9423 24.0019 83.8478C25.8961 83.259 25.2755 81.9928 24.5188 81.1781C24.5188 81.1781 23.2531 80.1586 21.4314 80.1586C20.9977 80.1586 20.5308 80.2183 20.0433 80.3615C20.0433 80.3615 19.8299 82.8562 19.2553 82.8562C19.2504 82.8562 19.2455 82.8562 19.2455 82.8562C18.6778 82.8174 17.7948 79.4384 15.0001 79.4384Z" fill="#493719"/>
<path d="M17.4209 76.4255C17.1135 76.4255 16.8247 76.4902 16.9412 76.7657C17.0078 76.9268 17.2515 76.9885 17.5217 76.9885C18.1472 76.9885 18.9234 76.6593 18.015 76.4832C18.015 76.4832 17.7096 76.4255 17.4209 76.4255Z" fill="#543F1C"/>
<path d="M27.2137 74.6888C27.0101 74.6888 26.8123 74.7057 26.6332 74.7286C26.9591 74.8748 27.2812 74.9713 27.5161 74.9713C27.7051 74.9713 27.8353 74.9106 27.8676 74.7614C27.662 74.7107 27.4349 74.6888 27.2137 74.6888Z" fill="#543F1C"/>
<path d="M33.6008 77.651C33.2886 77.7077 33.0772 77.8947 33.0752 78.3005C33.0752 78.9649 33.8612 79.2783 34.6649 79.33C34.9165 79.0405 35.2258 78.7909 35.5341 78.6307C34.6179 78.401 33.5 78.2796 33.6018 77.7644C33.6097 77.7256 33.6097 77.6878 33.6008 77.651Z" fill="#543F1C"/>
<path d="M11.5172 79.7328C10.6274 80.3873 10.3846 81.2259 10.3846 81.2259C10.7498 80.6082 11.1315 80.1168 11.5172 79.7328ZM17.0694 74.9673C16.9079 74.9673 16.7435 74.9723 16.5751 74.9852C16.5751 74.9852 20.752 76.3271 20.9772 77.3924C21.2043 78.4587 18.3381 77.9991 17.6147 79.0276C17.6147 79.0276 17.3426 79.2335 17.0587 79.2335C16.9902 79.2335 16.9197 79.2226 16.8531 79.1917C16.6789 79.1122 15.6755 78.4626 14.3795 78.4626C13.5034 78.4626 12.4941 78.7601 11.5172 79.7338C12.0889 79.3111 12.9288 78.9649 14.1455 78.9649C14.6731 78.9649 15.2693 79.0286 15.9457 79.1818C15.9457 79.1818 19.0272 80.463 19.3405 82.4692C19.3405 82.4692 19.7232 80.452 18.6474 80.1138C18.1188 79.9487 19.1604 79.6304 20.6639 79.6304C22.2096 79.6304 24.2417 79.9656 25.5632 81.1503C26.177 81.7003 26.5558 81.9162 26.7438 81.9162C27.3585 81.9162 25.9636 79.6225 24.1047 79.0754C24.1047 79.0754 24.9681 77.0442 27.3742 76.6692C28.2767 76.528 28.0986 76.3748 27.4545 76.3748C26.3826 76.3748 24.0225 76.7995 23.2217 78.399C23.2198 78.397 21.1387 74.9673 17.0694 74.9673Z" fill="#2F230E"/>
<path d="M33.1388 80.7047C29.3065 80.7047 28.1318 82.8174 27.8744 83.0859C28.122 83.068 28.3756 83.0561 28.6311 83.0561C28.6957 83.0561 28.7613 83.0561 28.8268 83.0581C28.8494 83.0591 28.8719 83.0591 28.8944 83.0591C28.678 82.888 28.6448 82.6503 28.8797 82.3369C29.6932 81.2448 31.2065 81.0856 32.0219 81.0856C32.3587 81.0856 32.576 81.1125 32.576 81.1125C32.6905 81.1214 33.3924 81.2269 34.0717 81.4099C34.1637 81.384 34.2538 81.3591 34.337 81.3363C34.195 81.1523 34.1197 80.9533 34.1001 80.7474C33.7634 80.7186 33.4413 80.7047 33.1388 80.7047Z" fill="#3C2C13"/>
<path d="M32.0229 81.0856C31.2075 81.0856 29.6941 81.2448 28.8807 82.3369C28.6458 82.6493 28.679 82.888 28.8954 83.0591C28.9541 83.0601 29.0128 83.0611 29.0696 83.0611C31.6225 83.0611 31.738 82.0952 33.6028 81.5451C33.7712 81.4944 33.9278 81.4507 34.0737 81.4099C33.3943 81.2269 32.6925 81.1214 32.5779 81.1125C32.5779 81.1125 32.3596 81.0856 32.0229 81.0856Z" fill="#493719"/>
<path d="M32.5378 79.9557C32.0581 79.9557 31.5462 80.0004 31.0068 80.1058C27.8323 80.7295 26.9386 82.9208 27.6669 83.1068C27.7354 83.0979 27.8049 83.0919 27.8734 83.0859C28.1308 82.8174 29.3055 80.7047 33.1379 80.7047C33.4413 80.7047 33.7634 80.7186 34.1001 80.7474C34.0795 80.5445 34.1109 80.3386 34.1813 80.1357C33.6919 80.0273 33.1398 79.9557 32.5378 79.9557Z" fill="#2F230E"/>
<path d="M10.2907 77.9862C10.23 78.015 10.1664 78.0479 10.0988 78.0797C9.42925 78.391 8.97211 78.7014 8.71173 79.0117C8.83899 79.145 9.01812 79.2027 9.21488 79.2027C9.84332 79.2017 10.6323 78.5949 10.2907 77.9862Z" fill="#3C2C13"/>
<path d="M10.4463 77.9007C10.3983 77.9285 10.3455 77.9574 10.2907 77.9862C10.6323 78.5949 9.84332 79.2027 9.2139 79.2027C9.01812 79.2027 8.838 79.145 8.71075 79.0117C8.67257 79.0565 8.63929 79.0993 8.60895 79.144C8.76361 79.2773 8.97015 79.335 9.18942 79.335C9.96959 79.334 10.9309 78.6029 10.4463 77.9007Z" fill="#2B200C"/>
<path d="M35.7789 78.6984C35.7642 78.7063 35.7485 78.7143 35.7339 78.7223C35.1886 79.0366 34.3517 79.7915 34.2734 80.5525C34.3331 80.7206 34.5357 80.8429 34.892 81.0001C34.9909 81.0429 35.0956 81.0667 35.2033 81.0786C35.7946 80.8658 36.0892 80.6042 36.5199 79.8273C36.377 79.89 36.2546 79.9487 36.1793 79.9954C35.9825 80.1277 35.4647 80.3237 35.1387 80.3237C34.9742 80.3237 34.8587 80.2739 34.8587 80.1397C34.8587 80.0452 34.9165 79.9089 35.0545 79.7179C35.0545 79.7179 35.5449 79.0754 36.2272 78.8635C36.099 78.7988 35.9443 78.7471 35.7789 78.6984Z" fill="#3C2C13"/>
<path d="M35.5341 78.6307C35.2268 78.7909 34.9165 79.0405 34.6649 79.33C34.5347 79.4792 34.4192 79.6413 34.3262 79.8075C34.2685 79.9139 34.2195 80.0243 34.1813 80.1347C34.1108 80.3376 34.0795 80.5435 34.1001 80.7464C34.1197 80.9523 34.196 81.1513 34.337 81.3353C34.3614 81.3293 34.3849 81.3214 34.4065 81.3164C34.1275 80.9593 34.105 80.4331 34.4535 79.8413L34.4779 79.9039C34.289 80.2003 34.2156 80.3943 34.2714 80.5515C34.3497 79.7905 35.1876 79.0366 35.7319 78.7212C35.7466 78.7123 35.7622 78.7044 35.7769 78.6974C35.7006 78.6735 35.6193 78.6526 35.5341 78.6307Z" fill="#2B200C"/>
<path d="M34.2734 80.5525C34.2548 80.7375 34.2822 80.9265 34.3693 81.1065C34.4016 81.1751 34.4417 81.2388 34.4858 81.2955C34.7696 81.2169 35.0026 81.1532 35.2033 81.0786C35.0956 81.0667 34.9899 81.0429 34.892 81.0001C34.5357 80.8429 34.3321 80.7206 34.2734 80.5525Z" fill="#392911"/>
<path d="M34.4544 79.8423C34.1069 80.4351 34.1285 80.9603 34.4075 81.3174C34.4329 81.3094 34.4603 81.3015 34.4848 81.2955C34.4407 81.2378 34.4006 81.1751 34.3683 81.1065C34.2812 80.9265 34.2548 80.7385 34.2724 80.5525C34.2166 80.3953 34.29 80.2013 34.4789 79.9049L34.4544 79.8423Z" fill="#291D0A"/>
<path d="M36.2272 78.8645C35.545 79.0774 35.0545 79.7189 35.0545 79.7189C34.9155 79.9089 34.8588 80.0462 34.8588 80.1407C34.8588 80.2749 34.9743 80.3247 35.1387 80.3247C35.4647 80.3247 35.9825 80.1287 36.1793 79.9964C36.2537 79.9497 36.377 79.891 36.5199 79.8283C36.5395 79.7915 36.5581 79.7567 36.5787 79.7189C36.8009 79.3021 36.608 79.0445 36.2272 78.8645Z" fill="#453213"/>
<path d="M23.7709 75.0151C24.0313 75.0321 24.2868 75.0471 24.5442 75.0651C24.2878 75.0471 24.0313 75.0311 23.7709 75.0151Z" fill="#00B8D9"/>
<path d="M23.7562 75.2647L23.7846 74.7654C24.046 74.7813 24.3024 74.7972 24.5599 74.8141L24.5286 75.3125C24.2731 75.2966 24.0156 75.2796 23.7562 75.2647Z" fill="#00839B"/>
<path d="M20.5435 75.1324L20.5563 74.6321C20.7187 74.6381 20.8793 74.6401 21.0457 74.645L21.031 75.1464C20.8675 75.1394 20.709 75.1364 20.5435 75.1324Z" fill="#00839B"/>
<path d="M22.885 74.9683C23.0593 74.9753 23.2306 74.9873 23.4019 74.9943C23.2306 74.9863 23.0593 74.9743 22.885 74.9683Z" fill="#00B8D9"/>
<path d="M22.8733 75.218L22.8968 74.7177C23.07 74.7266 23.2433 74.7355 23.4136 74.7455L23.3872 75.2438C23.2149 75.2359 23.0456 75.2259 22.8733 75.218Z" fill="#00839B"/>
<path d="M20.1441 75.1225L19.962 75.1195L19.9503 75.1185L19.7907 75.1155L19.7496 75.1145L19.5998 75.1125H19.5685L19.3972 75.1105L19.4041 74.6112L19.5891 74.6122H19.593L19.7741 74.6162H19.7849C19.9082 74.6192 20.0325 74.6192 20.1568 74.6222L20.147 75.1225H20.1441Z" fill="#00839B"/>
<path d="M20.15 74.8728C20.2841 74.8758 20.4163 74.8798 20.5514 74.8828C20.4173 74.8798 20.2841 74.8758 20.15 74.8728Z" fill="#00839B"/>
<path d="M21.0378 74.8937C21.3442 74.9047 21.6516 74.9147 21.9619 74.9257C21.6516 74.9147 21.3452 74.9047 21.0378 74.8937Z" fill="#00839B"/>
<path d="M21.9629 74.9265C22.2722 74.9405 22.5796 74.9525 22.885 74.9685C22.5796 74.9525 22.2722 74.9395 21.9629 74.9265Z" fill="#00839B"/>
<path d="M22.0187 79.6324C22.004 79.714 21.9933 79.7906 21.9805 79.8642L22.0422 79.8791C22.0363 79.8084 22.0275 79.7249 22.0187 79.6324Z" fill="#E3C66C"/>
<path d="M9.99014 15.3589C9.99014 15.3589 6.87337 12.8832 5.31302 11.7263C3.75366 10.5705 3.65675 13.0871 5.73492 14.78C7.81212 16.472 9.99014 15.3589 9.99014 15.3589Z" fill="#F26339"/>
<path d="M9.99017 15.3589L10.0391 15.2943C10.0391 15.2943 6.92137 12.8185 5.36102 11.6597C5.07714 11.4508 4.83536 11.3533 4.62881 11.3523C4.54071 11.3523 4.45849 11.3702 4.38898 11.407C4.28229 11.4618 4.20398 11.5582 4.1521 11.6776C4.10217 11.7949 4.0777 11.9362 4.0777 12.0944C4.0777 12.4594 4.20691 12.92 4.47023 13.4044C4.73257 13.8878 5.13391 14.3921 5.68405 14.8417C6.59637 15.5857 7.53415 15.7986 8.29866 15.7986C9.30593 15.7986 10.0205 15.4345 10.0264 15.4305L10.139 15.3729L10.0391 15.2943L9.99017 15.3589L9.95395 15.2863C9.91773 15.3072 9.23839 15.6384 8.29866 15.6384C7.56058 15.6374 6.66685 15.4365 5.78488 14.7164C5.24943 14.2807 4.86178 13.7913 4.60923 13.3268C4.35472 12.8613 4.2353 12.4226 4.2353 12.0954C4.2353 11.9054 4.27642 11.7572 4.34102 11.6597L4.46143 11.5523L4.62881 11.5154C4.7825 11.5145 4.99981 11.593 5.26607 11.793C6.04624 12.3689 7.21405 13.278 8.18707 14.041C8.67259 14.4219 9.11309 14.7691 9.42927 15.0177C9.58883 15.1431 9.71609 15.2445 9.80516 15.3151C9.89326 15.3848 9.94123 15.4226 9.94123 15.4226L9.99017 15.3589Z" fill="#A23720"/>
<path d="M36.6022 3.04274C36.6022 3.04274 39.2559 1.11305 40.5725 0.242698C41.8891 -0.628645 41.6464 2.26989 39.8726 3.60376C38.0979 4.93564 36.6022 3.04274 36.6022 3.04274Z" fill="#F26339"/>
<path d="M36.6021 3.04273L36.6482 3.10839L36.7656 3.02184C37.2903 2.64187 39.4673 1.06928 40.6156 0.307348C40.7741 0.203901 40.9043 0.161133 40.9983 0.162128L41.1363 0.196945C41.1941 0.233749 41.2421 0.298401 41.2773 0.393891C41.3106 0.48938 41.3292 0.61372 41.3292 0.758944C41.3302 1.13493 41.2058 1.6442 40.9543 2.15049C40.7027 2.65778 40.3258 3.1611 39.8266 3.53709C39.3773 3.87529 38.9524 3.99664 38.5677 3.99664C38.0186 3.99863 37.5438 3.74798 37.2042 3.49533C37.0338 3.36801 36.8978 3.24168 36.8067 3.14718L36.702 3.0318L36.6765 3.00196L36.6687 2.99401L36.6658 2.991L36.6021 3.04273L36.5395 3.09248C36.5434 3.09745 36.7509 3.36103 37.1072 3.62661C37.4616 3.8912 37.9687 4.15877 38.5648 4.15877C38.9838 4.15877 39.4458 4.02548 39.9186 3.66938C40.4423 3.27549 40.8319 2.7503 41.0923 2.22511C41.3546 1.69892 41.4848 1.17075 41.4858 0.759946C41.4858 0.548078 41.4515 0.366047 41.3723 0.227786L41.2176 0.061682C41.154 0.0218947 41.0776 0 40.9964 0C40.8574 0 40.7027 0.0576795 40.5275 0.174057C39.206 1.04739 36.5542 2.9761 36.5542 2.9761L36.4857 3.02582L36.5385 3.09148L36.6021 3.04273Z" fill="#A23720"/>
<path d="M40.0292 3.71515C40.0292 3.71515 41.105 1.91674 40.9631 0.945928C40.8231 -0.0268721 40.8564 0.748014 39.7659 1.61438C38.6754 2.48374 38.6499 4.03843 40.0292 3.71515Z" fill="#CD371D"/>
<path d="M38.3171 5.43095C38.3171 5.43095 38.6823 2.619 40.7996 1.94759C42.9159 1.27617 40.3229 4.58746 39.7248 5.12658C39.1257 5.6647 38.3171 5.43095 38.3171 5.43095Z" fill="#F15838"/>
<path d="M38.3172 5.43096L38.3945 5.43992L38.3965 5.43397C38.4072 5.35539 38.5149 4.65711 38.8693 3.90115C39.0464 3.52416 39.2872 3.13324 39.6064 2.79803C39.9255 2.46183 40.3239 2.18333 40.8231 2.02418C41.0101 1.9645 41.1579 1.93964 41.2666 1.93964L41.4016 1.95853L41.5044 2.03214L41.5367 2.17438C41.5367 2.25495 41.5171 2.35739 41.477 2.47278C41.3419 2.88159 40.9797 3.45155 40.6078 3.95685C40.4228 4.2085 40.2329 4.44425 40.0684 4.63921C39.903 4.83317 39.76 4.98637 39.671 5.06594C39.3704 5.3365 39.0141 5.40112 38.74 5.40112C38.6206 5.40112 38.5198 5.38821 38.4483 5.37727L38.3651 5.35835L38.3436 5.35438L38.3397 5.35338L38.3377 5.3524L38.3172 5.43096L38.2956 5.50755C38.2995 5.50954 38.4816 5.56228 38.741 5.56228C39.0357 5.56228 39.438 5.49265 39.7777 5.18827C39.8893 5.08582 40.0635 4.89684 40.2632 4.65812C40.5608 4.30103 40.9171 3.82954 41.2 3.37597C41.3409 3.14918 41.4643 2.92636 41.5514 2.72245C41.6415 2.51854 41.6963 2.33353 41.6973 2.17438L41.6728 2.01723L41.5269 1.83619C41.4564 1.79541 41.3693 1.77551 41.2675 1.77551C41.1354 1.7775 40.9739 1.80734 40.7761 1.87001C40.2328 2.04209 39.8002 2.35343 39.4595 2.71947C38.9515 3.26854 38.648 3.94192 38.4689 4.47905C38.2898 5.01618 38.2389 5.41606 38.2389 5.42004L38.2281 5.48767L38.2956 5.50755L38.3172 5.43096Z" fill="#A23720"/>
<path d="M39.5868 3.02581C39.9509 2.55333 40.8897 2.19328 41.1413 2.26987C41.478 2.37331 40.7703 3.49433 40.1868 3.86534C39.9735 4.00261 39.6005 3.93595 39.4654 3.52913C39.4067 3.35705 39.4654 3.18595 39.5868 3.02581Z" fill="#CD371D"/>
<path d="M37.2286 6.69622C37.2286 6.69622 38.2574 6.8882 39.6954 5.8955C41.1363 4.89883 42.6056 3.95188 40.7722 3.36004C38.9397 2.76821 35.7064 3.75395 36.3643 5.42402C37.0221 7.09509 37.2286 6.69622 37.2286 6.69622Z" fill="#F04C37"/>
<path d="M37.2287 6.6962L37.214 6.77479C37.2179 6.77579 37.304 6.7917 37.4567 6.7917C37.8493 6.79369 38.6892 6.68824 39.7395 5.96212C40.2201 5.63189 40.7027 5.30465 41.0708 4.99033C41.2558 4.83217 41.4114 4.67898 41.523 4.5258C41.6346 4.37262 41.7071 4.21845 41.7071 4.0603L41.6483 3.82854C41.5915 3.71912 41.4937 3.62065 41.3527 3.52914C41.2117 3.43962 41.0297 3.35904 40.7957 3.28345C40.4198 3.16209 39.993 3.10738 39.5516 3.10738C38.7635 3.10738 37.9374 3.28444 37.2972 3.60473C36.9771 3.76587 36.705 3.96083 36.5092 4.19259C36.3144 4.42335 36.1959 4.69292 36.1959 4.99033C36.1959 5.13953 36.2253 5.29471 36.2899 5.45485C36.5121 6.02182 36.6854 6.35504 36.8205 6.55199C36.887 6.65046 36.9467 6.71311 37.0006 6.75588L37.1552 6.81954L37.2639 6.77877L37.2982 6.73303L37.2287 6.6962L37.1582 6.65841L37.1846 6.67134L37.1621 6.65444L37.1582 6.65841L37.1846 6.67134L37.1621 6.65444L37.1592 6.65644L37.1562 6.65741L37.0975 6.62857C37.0436 6.5868 36.9595 6.48933 36.8498 6.29636C36.7402 6.10439 36.6031 5.81691 36.4377 5.39417C36.3809 5.25193 36.3555 5.11865 36.3555 4.99133C36.3555 4.73768 36.4544 4.50889 36.6296 4.29901C36.8949 3.98668 37.3383 3.72509 37.86 3.54605C38.3808 3.36701 38.9809 3.26951 39.5516 3.26951C39.9803 3.26951 40.3914 3.32523 40.7458 3.43862C41.0483 3.53511 41.2519 3.64153 41.3782 3.74995L41.5093 3.90713L41.5475 4.0623C41.5475 4.16873 41.4966 4.29406 41.3977 4.43033C41.247 4.63623 40.9895 4.86401 40.6812 5.09876C40.3728 5.33549 40.0106 5.58019 39.6524 5.82886C38.6275 6.53708 37.8228 6.63155 37.4577 6.63155L37.2962 6.6246L37.2551 6.61962L37.2463 6.61862L37.2443 6.61765L37.1866 6.60669L37.1582 6.65941L37.2287 6.6962Z" fill="#A23720"/>
<path d="M38.5208 3.9449C38.5208 3.9449 40.043 3.50824 40.9377 4.00061C41.8343 4.49596 39.8305 5.02613 39.3098 5.38123C38.787 5.73434 37.3451 4.14782 38.5208 3.9449Z" fill="#CD371D"/>
<path d="M35.9551 6.925C35.9551 6.925 36.9663 7.30198 38.4904 6.76584C40.0155 6.22871 41.5651 5.74132 39.7776 4.86202C37.9921 3.9857 34.6727 4.13789 35.1925 5.67766C35.7133 7.21644 35.9551 6.925 35.9551 6.925Z" fill="#EE4036"/>
<path d="M35.9551 6.92499L35.9277 7.00158C35.9355 7.00257 36.2889 7.13487 36.8909 7.13487C37.3206 7.13487 37.8747 7.06822 38.5168 6.84243C39.0347 6.6594 39.5584 6.48236 39.9577 6.29038C40.1584 6.1939 40.3258 6.09444 40.4521 5.98304L40.5999 5.80497L40.6576 5.5971L40.6028 5.39217C40.549 5.29171 40.4589 5.19425 40.3287 5.09578C40.1985 4.99731 40.0282 4.89584 39.8129 4.7894C39.0875 4.43331 38.1233 4.24532 37.2531 4.24532C36.6746 4.24532 36.1371 4.32885 35.7358 4.50491C35.5342 4.59543 35.3658 4.70883 35.2464 4.85306C35.1279 4.9953 35.0584 5.17036 35.0594 5.36731C35.0594 5.47473 35.078 5.58714 35.1191 5.70252C35.31 6.26452 35.4627 6.58779 35.587 6.77379C35.6487 6.86928 35.7025 6.92897 35.7544 6.96776L35.9003 7.02544L35.9825 7.00455L36.0158 6.97472L35.9551 6.92499L35.8944 6.87327L35.914 6.89118L35.8993 6.86829L35.8934 6.87427L35.913 6.89218L35.8983 6.86929L35.9012 6.87126L35.9003 6.86729L35.8983 6.86929L35.9012 6.87126L35.9003 6.86729L35.8983 6.86929L35.8464 6.84343C35.7985 6.80861 35.7231 6.71811 35.6242 6.5321C35.5263 6.34908 35.4059 6.06858 35.265 5.6528C35.2317 5.55035 35.2141 5.45685 35.2141 5.37031C35.216 5.21116 35.2689 5.07785 35.3658 4.95949C35.5126 4.78144 35.771 4.64119 36.1019 4.54869C36.4298 4.45419 36.8273 4.40945 37.2502 4.40945C38.0979 4.40945 39.0435 4.59446 39.7404 4.93663C40.0214 5.07389 40.2152 5.20219 40.3336 5.31558L40.4599 5.47176L40.4951 5.59907L40.4589 5.72638C40.4168 5.80397 40.3278 5.88754 40.2025 5.9691C40.0155 6.09443 39.7502 6.21479 39.4477 6.33416C39.1433 6.45252 38.8036 6.5689 38.461 6.68925C37.8365 6.90908 37.3001 6.97274 36.888 6.97274C36.5982 6.97274 36.3682 6.94189 36.2135 6.91006L36.0363 6.86729L35.9913 6.85238L35.9815 6.84841H35.9796L35.9257 6.8295L35.8915 6.87227L35.9551 6.92499Z" fill="#A23720"/>
<path d="M36.33 6.17999C36.33 6.17999 35.5381 5.72441 35.7065 4.51886C35.8768 3.3133 37.771 2.02319 38.9104 0.668434C40.0478 -0.688314 40.3748 0.51626 39.1238 3.40979C37.8767 6.30532 36.33 6.17999 36.33 6.17999Z" fill="#F04C37"/>
<path d="M36.33 6.18014L36.3702 6.11151C36.3662 6.10852 36.2135 6.01801 36.0618 5.81609C35.914 5.61317 35.7632 5.30184 35.7632 4.84727C35.7632 4.7478 35.7701 4.64137 35.7848 4.52996C35.8249 4.24847 35.9688 3.95104 36.1832 3.64468C36.5052 3.18912 36.9859 2.71068 37.4939 2.22229C38.0029 1.7339 38.5364 1.23356 38.9691 0.719308C39.1247 0.535291 39.2637 0.401026 39.3812 0.314489C39.4987 0.226957 39.5936 0.191132 39.6533 0.192127L39.7258 0.213011L39.808 0.342325C39.8286 0.411953 39.8442 0.508445 39.8442 0.630792C39.8442 0.889409 39.7845 1.25744 39.6543 1.71897C39.5261 2.1815 39.3274 2.73752 39.0503 3.3781C38.4787 4.70103 37.8493 5.37941 37.3441 5.72855C36.8371 6.08066 36.4524 6.10155 36.3574 6.10155H36.3398H36.3359H36.3349L36.332 6.13139L36.3359 6.10155H36.3349L36.332 6.13139L36.3359 6.10155L36.33 6.18014L36.3251 6.26171H36.3584C36.4778 6.26171 36.8997 6.23385 37.4342 5.86284C37.9697 5.49381 38.6177 4.78757 39.1962 3.44276C39.4762 2.79721 39.6778 2.23422 39.808 1.76274C39.9402 1.29126 40.0018 0.91228 40.0038 0.62979C40.0018 0.452736 39.9803 0.312491 39.9245 0.20606L39.8139 0.076746L39.6553 0.0299988C39.5408 0.0309935 39.4223 0.0857161 39.2902 0.1822C39.1561 0.279679 39.0122 0.421917 38.8497 0.614885C38.2878 1.28729 37.5301 1.94676 36.8909 2.59032C36.5699 2.9126 36.2801 3.23387 36.055 3.54918C35.8327 3.86748 35.6751 4.1838 35.6291 4.50608C35.6125 4.62444 35.6047 4.73884 35.6047 4.84627C35.6047 5.3446 35.774 5.69673 35.9443 5.92352C36.1157 6.14732 36.286 6.24579 36.2918 6.24877L36.3075 6.2587L36.3261 6.2607L36.33 6.18014Z" fill="#A23720"/>
<path d="M37.2276 5.71048C37.2276 5.71048 38.7478 4.85704 39.9 5.5384C41.057 6.21777 38.5521 6.22076 37.4949 6.72308C36.4347 7.22738 36.7333 5.64881 37.2276 5.71048Z" fill="#CD371D"/>
<path d="M37.6368 5.1067C37.6368 5.1067 39.2216 3.57687 39.3156 1.34181C39.3156 1.34181 39.4585 0.450579 38.7224 1.54771C37.9863 2.64485 36.5268 5.35437 37.6368 5.1067Z" fill="#CD371D"/>
<path d="M35.7828 7.21246C35.7828 7.21246 34.9625 6.99959 34.9791 5.7453C34.9958 4.49398 36.6716 2.62896 37.6055 0.931031C38.5393 -0.767888 39.0043 0.330228 38.1478 3.59577C37.2903 6.8643 35.7828 7.21246 35.7828 7.21246Z" fill="#EE4036"/>
<path d="M35.7828 7.21246L35.8024 7.13487C35.8024 7.13487 35.6115 7.08115 35.4294 6.88917C35.2454 6.6972 35.0584 6.36797 35.0574 5.78409V5.74927C35.0614 5.45385 35.1641 5.11169 35.3354 4.73968C35.5929 4.17968 36.0011 3.55798 36.4328 2.91542C36.8635 2.27484 37.3196 1.6124 37.674 0.970824C37.8189 0.707233 37.951 0.51425 38.0646 0.389914L38.2163 0.257626L38.3201 0.219833L38.3827 0.245696C38.414 0.275537 38.4522 0.347143 38.4767 0.458548C38.5012 0.567963 38.5158 0.718174 38.5158 0.902191C38.5178 1.47314 38.3808 2.3783 38.0665 3.57689C37.6417 5.19922 37.0573 6.08846 36.5845 6.57287C36.3486 6.81458 36.1401 6.95583 35.9923 7.0364L35.82 7.11596L35.7769 7.13189L35.7661 7.13487H35.7632L35.7828 7.21246L35.8004 7.29202C35.8122 7.28904 36.2037 7.19454 36.699 6.68725C37.1953 6.17797 37.7905 5.26087 38.2222 3.61766C38.5384 2.41111 38.6774 1.49898 38.6774 0.903162C38.6774 0.647529 38.6529 0.447607 38.599 0.304373L38.4933 0.12731L38.322 0.0577054L38.1351 0.118355C38.046 0.175052 37.952 0.266578 37.8541 0.394892C37.7543 0.524201 37.6486 0.689319 37.537 0.892234C37.073 1.73374 36.422 2.62299 35.8826 3.46151C35.6134 3.88127 35.3697 4.2871 35.1945 4.67105C35.0183 5.05301 34.9057 5.41506 34.9018 5.74529V5.78309C34.9008 6.41173 35.1093 6.79469 35.3266 7.01154C35.543 7.23037 35.7554 7.28806 35.7661 7.29105L35.7847 7.29402L35.8024 7.29105L35.7828 7.21246Z" fill="#A23720"/>
<path d="M36.004 6.42665C36.004 6.42665 22.003 14.971 23.6896 62.6949L22.4934 62.6492C22.4934 62.6492 20.6091 16.9922 36.5963 5.10771L36.004 6.42665Z" fill="#93AF2A"/>
<path d="M36.004 6.42665L35.9619 6.35802C35.9482 6.36597 32.8227 8.28173 29.7029 15.3102C26.5842 22.3376 23.4684 34.4787 23.4684 54.9423C23.4684 57.4062 23.5144 59.9884 23.6104 62.6999L23.6906 62.6959L23.6926 62.6153L22.4974 62.5706L22.4944 62.6502L22.5737 62.6472L22.5698 62.5706C22.5571 62.2155 22.5042 60.6419 22.5042 58.2208C22.5042 52.3482 22.8135 41.4763 24.738 30.878C25.6993 25.5793 27.0668 20.3472 28.9991 15.8463C30.9315 11.3414 33.4276 7.56756 36.6472 5.17534L36.5982 5.10968L36.5268 5.07687L35.9326 6.39384L36.004 6.42665L36.0745 6.46047L36.7989 4.86004L36.5502 5.04305C33.3003 7.46113 30.7915 11.2598 28.8513 15.7797C25.9431 22.5604 24.3171 30.9645 23.4175 38.7768C22.5189 46.59 22.3447 53.8104 22.3447 58.2208C22.3447 60.991 22.4122 62.6531 22.4122 62.6551L22.4152 62.7277L23.7709 62.7794L23.767 62.6939C23.6711 59.9864 23.626 57.4052 23.626 54.9423C23.626 34.4936 26.7389 22.3764 29.8459 15.3768C31.4003 11.8755 32.9538 9.65341 34.1138 8.30959C34.6953 7.63619 35.1788 7.18161 35.5175 6.89713C35.6859 6.75389 35.818 6.65443 35.9071 6.58978L36.0079 6.51917L36.0344 6.50223L36.0422 6.49729L36.0628 6.48436L36.0735 6.46147L36.004 6.42665Z" fill="#687F05"/>
<path d="M37.0681 5.25791C37.0681 5.25791 38.466 2.91543 38.3554 0.80272C38.3554 0.80272 38.4542 -0.351118 36.7187 2.98008C34.9841 6.31426 36.3858 5.88556 37.0681 5.25791Z" fill="#CD371D"/>
<path d="M38.0088 6.93691C37.7905 7.10402 37.536 7.22438 37.4597 7.26815C36.8518 7.62027 36.1734 7.85302 35.5038 7.7267C34.6757 7.56854 34.1755 6.3411 34.523 5.14947C34.8764 3.94391 35.6575 3.25362 36.3995 2.75926C36.6726 2.57524 37.2022 2.54041 37.1004 3.20187C37.0211 3.71214 36.5542 3.87429 36.4622 4.36964C36.7754 4.34577 37.2159 3.70918 37.5556 4.10009C38.1791 4.82322 37.8444 5.53541 37.305 5.92632C37.2433 5.97208 37.1865 6.01185 37.1591 6.10436C37.4264 6.18692 38.0812 5.89548 38.2888 6.21179C38.4689 6.48433 38.2643 6.74295 38.0088 6.93691Z" fill="#93AF2A"/>
<path d="M38.0088 6.93692L37.9618 6.87227C37.857 6.95184 37.7416 7.02246 37.6427 7.07716L37.5105 7.1488L37.4205 7.19752C36.9359 7.47902 36.4063 7.67896 35.8836 7.67896C35.7613 7.67896 35.6399 7.66703 35.5195 7.64514C35.2229 7.58944 34.9674 7.38452 34.7834 7.07716C34.6003 6.76881 34.4907 6.36499 34.4907 5.93031C34.4907 5.68263 34.5259 5.42701 34.6003 5.17237C34.7736 4.57954 35.0506 4.11798 35.3756 3.74199C35.7006 3.36302 36.0745 3.07258 36.4426 2.8259C36.5307 2.76622 36.655 2.72445 36.7607 2.72445L36.9516 2.79008L37.0093 2.88458L37.0328 3.0467L37.0201 3.18895C37.0035 3.30533 36.9633 3.39984 36.9124 3.48737C36.8331 3.62066 36.7235 3.73503 36.6207 3.86633C36.5179 3.99962 36.421 4.1518 36.3838 4.35472L36.3633 4.45716L36.468 4.44824L36.6922 4.36965C36.7999 4.30897 36.9085 4.22642 37.0152 4.16375C37.12 4.09711 37.2208 4.05332 37.303 4.05432L37.3989 4.07423L37.4958 4.15379C37.7239 4.41937 37.812 4.67402 37.812 4.90876C37.812 5.09875 37.7553 5.2788 37.6554 5.43795C37.5565 5.60207 37.4185 5.74629 37.2599 5.86067H37.2609L37.163 5.94224L37.0837 6.08151L37.0612 6.1591L37.1366 6.17998L37.2873 6.20087C37.3843 6.20087 37.49 6.18496 37.5996 6.17203C37.7063 6.15611 37.8179 6.14216 37.9148 6.14216L38.1037 6.16902L38.2222 6.25757L38.277 6.42468L38.1899 6.65146C38.1331 6.72805 38.0509 6.80365 37.9618 6.87427L38.0088 6.93692L38.0567 7.00058C38.1546 6.92598 38.2467 6.84342 38.3171 6.74793C38.3866 6.65244 38.4366 6.54403 38.4366 6.42367C38.4366 6.33813 38.4111 6.2496 38.3563 6.16605L38.1595 6.01585C38.0822 5.98899 38 5.98003 37.9158 5.98003C37.8032 5.98003 37.6877 5.99595 37.5791 6.00987C37.4694 6.02479 37.3676 6.03873 37.2873 6.03774L37.1826 6.02481L37.1591 6.1034L37.2355 6.12625L37.2776 6.05264L37.351 5.98999C37.5252 5.86466 37.6799 5.7065 37.7905 5.52249C37.9011 5.33946 37.9726 5.13059 37.9726 4.90679C37.9726 4.62927 37.8649 4.33284 37.6143 4.04637L37.4665 3.92801L37.304 3.89022C37.2129 3.89221 37.1297 3.91905 37.0504 3.95685C36.932 4.01653 36.8194 4.09908 36.7147 4.16572L36.5718 4.2513L36.4572 4.28708L36.4631 4.36765L36.5405 4.38258C36.561 4.27118 36.6031 4.17868 36.6579 4.09214C36.7392 3.96084 36.8488 3.84743 36.9526 3.71215C37.0544 3.57887 37.1483 3.42072 37.1806 3.21184L37.1943 3.04573C37.1943 2.96218 37.1826 2.89054 37.1601 2.82887C37.1288 2.73438 37.0681 2.66378 36.9956 2.622C36.9242 2.57724 36.8429 2.56132 36.7627 2.56132C36.6158 2.56132 36.471 2.61304 36.3574 2.68863C35.9835 2.9383 35.5978 3.24069 35.2581 3.63359C34.9194 4.0255 34.6297 4.5089 34.4505 5.12362C34.3703 5.39417 34.334 5.66571 34.334 5.92831C34.334 6.39183 34.4486 6.82253 34.6492 7.15873C34.8489 7.49593 35.1406 7.73565 35.4911 7.80229C35.6223 7.82616 35.7544 7.83911 35.8846 7.83911C36.4484 7.83812 36.9995 7.62424 37.4998 7.33479L37.5839 7.29005C37.6985 7.22838 37.8874 7.1299 38.0567 6.9976L38.0088 6.93692Z" fill="#687F05"/>
<path d="M34.7188 6.6027C34.5847 6.18693 34.5984 5.66473 34.7873 5.18529C35.0771 4.45221 35.6722 3.81363 36.1548 3.43664C38.0519 1.95954 36.144 3.68032 36.1734 4.41141C36.2028 5.14052 36.8616 4.59642 37.2208 4.51784C37.5801 4.43826 37.906 5.04503 36.8273 6.06259C36.8273 6.06259 36.5826 6.42464 37.166 6.47239C37.7514 6.52212 38.325 6.42367 37.4753 6.88719C36.8704 7.21544 36.0931 7.55064 35.4334 7.37458C35.0878 7.28307 34.8412 6.98864 34.7188 6.6027Z" fill="#B5D334"/>
<path d="M5.51858 14.8238C5.51858 14.8238 4.39678 12.9647 4.71198 12.1918C5.02914 11.42 4.88035 12.0605 6.14996 13.1408C7.42056 14.222 7.23554 15.538 5.51858 14.8238Z" fill="#CD371D"/>
<path d="M7.46461 16.8151C7.46461 16.8151 7.39316 14.3334 4.78247 13.088C2.17276 11.8417 5.02132 15.4624 5.70947 16.1079C6.39763 16.7535 7.46461 16.8151 7.46461 16.8151Z" fill="#F15838"/>
<path d="M7.46462 16.8151L7.54489 16.8132C7.54293 16.8062 7.52433 16.1756 7.17487 15.3858C6.82443 14.595 6.13921 13.6451 4.81576 13.0135C4.62488 12.9219 4.4614 12.8563 4.32142 12.8115C4.18144 12.7688 4.06691 12.7479 3.96804 12.7479L3.82415 12.7688L3.66948 12.8881L3.6225 13.0761C3.6225 13.1776 3.64893 13.289 3.69298 13.4133C3.77129 13.6302 3.90637 13.8828 4.07181 14.1464C4.31848 14.5453 4.63369 14.974 4.92833 15.342C5.222 15.7091 5.49216 16.0124 5.65662 16.1646C6.01391 16.5018 6.4642 16.6808 6.82345 16.7803C7.18564 16.8788 7.45581 16.8937 7.45581 16.8937L7.54587 16.8997L7.54489 16.8111L7.46462 16.8151L7.46952 16.7346L7.45777 16.7336C7.401 16.7306 7.13278 16.7057 6.79996 16.6073C6.46616 16.5098 6.07265 16.3387 5.76234 16.0472C5.64683 15.9408 5.46182 15.7379 5.25234 15.4882C4.9391 15.1122 4.5681 14.6268 4.27639 14.1732C4.13152 13.9474 4.00426 13.7296 3.91812 13.5386C3.82904 13.3486 3.77814 13.1835 3.78009 13.0761L3.79184 12.9985L3.84079 12.9349L3.96804 12.91C4.04244 12.908 4.14522 12.9259 4.27444 12.9687C4.40463 13.0085 4.56321 13.0721 4.74822 13.1606C6.03545 13.7734 6.69033 14.6885 7.03098 15.4524C7.19935 15.8334 7.28842 16.1765 7.33443 16.4242C7.35793 16.5485 7.36967 16.648 7.3775 16.7157L7.38534 16.7932V16.8132L7.38631 16.8201L7.46462 16.8151Z" fill="#A23720"/>
<path d="M6.18032 14.3841C5.78191 13.8709 4.63368 13.2661 4.30086 13.2502C3.85547 13.2293 4.60334 14.398 5.29541 14.8984C5.54992 15.0834 6.03447 15.147 6.2645 14.8476C6.36141 14.7223 6.31345 14.5592 6.18032 14.3841Z" fill="#CD371D"/>
<path d="M8.67357 18.2316C8.67357 18.2316 7.33739 18.0644 5.63707 16.7644C3.9387 15.4633 2.19335 14.1941 4.61707 14.2856C7.04275 14.3771 11.0356 16.2452 9.95787 17.4388C8.88208 18.6334 8.67357 18.2316 8.67357 18.2316Z" fill="#F04C37"/>
<path d="M8.67354 18.2316L8.68528 18.151H8.68137C8.61187 18.1401 7.31876 17.9491 5.68402 16.6997C5.13584 16.281 4.58277 15.8632 4.17164 15.4982C3.96412 15.3151 3.79379 15.146 3.67633 14.9968L3.54418 14.7939L3.50208 14.6427L3.53733 14.5423C3.57355 14.4955 3.65675 14.4468 3.79673 14.415C3.93573 14.3811 4.13151 14.3622 4.38406 14.3622C4.4565 14.3622 4.53383 14.3632 4.61508 14.3672C5.67228 14.406 7.04761 14.792 8.15179 15.3122C8.7029 15.5718 9.18452 15.8652 9.52615 16.1616C9.69745 16.3079 9.83254 16.457 9.92162 16.5993C10.0136 16.7425 10.0587 16.8788 10.0587 17.0031C10.0587 17.1334 10.0127 17.2578 9.90008 17.3841C9.58097 17.7372 9.34212 17.9471 9.16592 18.0674C8.98776 18.1878 8.87812 18.2147 8.81939 18.2137L8.75185 18.1957L8.74304 18.1888L8.71857 18.2057L8.74402 18.1928L8.74304 18.1888L8.71857 18.2057L8.74402 18.1928L8.72542 18.153L8.6843 18.149L8.67354 18.2316L8.60501 18.2684L8.65983 18.328L8.82037 18.3758C8.92511 18.3758 9.06215 18.331 9.25499 18.2017C9.44588 18.0714 9.69354 17.8536 10.0175 17.4925C10.1517 17.3443 10.2202 17.1772 10.2192 17.0041C10.2192 16.838 10.1595 16.6729 10.0567 16.5137C9.87855 16.2332 9.56726 15.9557 9.17375 15.6951C8.58348 15.3042 7.80233 14.9461 6.99181 14.6785C6.17836 14.41 5.33749 14.2319 4.62291 14.2051C4.5397 14.2021 4.45943 14.2011 4.38504 14.2011C4.03754 14.2011 3.78988 14.2329 3.61955 14.3016C3.53341 14.3364 3.46587 14.3801 3.4179 14.4388L3.34546 14.6427L3.4042 14.8646C3.46685 14.9978 3.57648 15.1351 3.71842 15.2863C4.14228 15.7329 4.87155 16.278 5.59005 16.8291C7.30506 18.1391 8.6569 18.3111 8.66571 18.3131L8.67354 18.2316Z" fill="#A23720"/>
<path d="M7.4137 15.5021C7.4137 15.5021 5.5313 14.6447 4.31748 14.773C3.10366 14.8994 5.58808 15.9915 6.2038 16.4561C6.81952 16.9206 8.88594 16.0502 7.4137 15.5021Z" fill="#CD371D"/>
<path d="M10.2711 18.8324C10.2711 18.8324 8.92607 18.8234 7.05346 17.8824C5.18183 16.9434 3.27203 16.0313 5.67715 15.8692C8.08227 15.7051 12.3013 16.9017 11.4193 18.0296C10.5373 19.1546 10.2711 18.8324 10.2711 18.8324Z" fill="#EE4036"/>
<path d="M10.2711 18.8324L10.2721 18.7518H10.2672C10.1967 18.7508 8.88988 18.716 7.08971 17.8108C6.46714 17.4985 5.84163 17.1891 5.37471 16.9116C5.14271 16.7734 4.94791 16.645 4.81772 16.5277L4.67088 16.3695L4.62977 16.2601L4.63662 16.2223L4.712 16.1457C4.77856 16.1039 4.89016 16.0631 5.05069 16.0293C5.21221 15.9935 5.42169 15.9686 5.68403 15.9517C5.82988 15.9398 5.98651 15.9348 6.14803 15.9348C7.23753 15.9348 8.57958 16.1606 9.64558 16.5058C10.1771 16.6769 10.6392 16.8788 10.9622 17.0926C11.1247 17.1971 11.251 17.3075 11.3361 17.4139C11.4203 17.5203 11.4585 17.6208 11.4585 17.7173C11.4585 17.8009 11.4311 17.8854 11.3577 17.9799C11.0816 18.334 10.8663 18.5409 10.7077 18.6573C10.5491 18.7736 10.4483 18.7975 10.3944 18.7975L10.3377 18.7856L10.3288 18.7806L10.3063 18.8055L10.3337 18.7836L10.3288 18.7806L10.3063 18.8055L10.3337 18.7836L10.3093 18.7538H10.273L10.2711 18.8324L10.2094 18.8841L10.2613 18.9269L10.3935 18.9567C10.4933 18.9557 10.6235 18.9139 10.8007 18.7866C10.9769 18.6583 11.1981 18.4414 11.48 18.0784C11.5711 17.964 11.618 17.8416 11.618 17.7163C11.618 17.5731 11.5583 17.4368 11.4575 17.3125C11.2852 17.0926 10.9886 16.8927 10.6108 16.7117C10.0459 16.4381 9.29416 16.2034 8.50127 16.0393C7.70837 15.8722 6.87632 15.7727 6.14803 15.7717C5.98357 15.7717 5.82499 15.7777 5.67327 15.7886C5.26605 15.8165 4.97923 15.8642 4.78541 15.9358C4.68752 15.9716 4.61313 16.0114 4.55831 16.0641L4.49468 16.1547L4.47217 16.2611L4.54265 16.46C4.61606 16.5704 4.73941 16.6809 4.89995 16.7962C5.14075 16.9693 5.46672 17.1573 5.83478 17.3542C6.20284 17.5492 6.61202 17.7511 7.02119 17.957C8.9075 18.905 10.2642 18.9149 10.273 18.9149V18.8324L10.2114 18.8841L10.2711 18.8324Z" fill="#A23720"/>
<path d="M9.89522 18.0864C9.89522 18.0864 10.972 17.956 10.925 16.8877C10.878 15.8195 8.63931 14.1255 7.37557 12.6196C6.1128 11.1126 5.52449 12.0198 6.71579 14.8566C7.90612 17.6954 9.89522 18.0864 9.89522 18.0864Z" fill="#F04C37"/>
<path d="M9.89519 18.0863L9.90401 18.1659C9.90401 18.1659 10.1771 18.1341 10.4522 17.967C10.5902 17.8844 10.7263 17.7661 10.833 17.6009C10.9367 17.4338 11.0082 17.22 11.0062 16.9554L11.0053 16.8858C10.9915 16.5903 10.833 16.275 10.5941 15.9358C10.2319 15.4285 9.67789 14.8695 9.09838 14.2936C8.51693 13.7187 7.90805 13.1288 7.43721 12.5688C7.23164 12.3222 7.04077 12.1371 6.87044 12.0138C6.69816 11.8895 6.54545 11.8218 6.40253 11.8208L6.22046 11.8686C6.13823 11.9183 6.0795 12.0019 6.04328 12.1053C6.00706 12.2107 5.98944 12.3371 5.98944 12.4902C5.98944 12.7479 6.03936 13.0771 6.14606 13.477C6.25178 13.8778 6.41623 14.3503 6.64334 14.8904C7.24437 16.3238 8.05098 17.1444 8.70683 17.6049C9.36366 18.0654 9.8717 18.1659 9.87953 18.1669L9.89324 18.1709L9.90401 18.1679L9.89519 18.0863L9.91183 18.0078H9.90988C9.88834 18.0028 9.39694 17.8974 8.76849 17.4478C8.13907 16.9992 7.36967 16.2074 6.79017 14.8258C6.56601 14.2886 6.40547 13.8241 6.29975 13.4332C6.19697 13.0403 6.14998 12.724 6.14998 12.4882C6.149 12.3012 6.17836 12.167 6.22535 12.0894L6.30171 12.0058L6.40253 11.979C6.49161 11.979 6.6218 12.0297 6.77744 12.1441C6.93407 12.2575 7.11614 12.4336 7.31779 12.6703C7.95309 13.4322 8.83017 14.2309 9.55161 14.973C9.91282 15.346 10.2319 15.7011 10.4649 16.0273C10.6989 16.3546 10.8379 16.651 10.8476 16.8907L10.8486 16.9544C10.8476 17.1921 10.7879 17.3721 10.7018 17.5124C10.5677 17.7233 10.3651 17.8476 10.1938 17.9182C10.1066 17.9531 10.0303 17.9749 9.97448 17.9888L9.90988 18.0018L9.89226 18.0058H9.88737L9.89519 18.0863Z" fill="#A23720"/>
<path d="M8.81645 17.403C8.81645 17.403 6.9967 16.1974 5.42363 16.3964C3.85252 16.5963 7.05152 17.406 8.33483 18.1689C9.6162 18.9338 9.45566 17.5084 8.81645 17.403Z" fill="#CD371D"/>
<path d="M8.37893 16.7634C8.37893 16.7634 6.56799 14.964 6.76376 13.0562C6.76376 13.0562 6.70796 12.2595 7.49303 13.4193C8.27908 14.5791 9.76111 17.3294 8.37893 16.7634Z" fill="#CD371D"/>
<path d="M10.4492 19.1317C10.4492 19.1317 11.5289 19.2163 11.6846 18.1579C11.8383 17.0976 9.96077 14.9909 9.00734 13.2601C8.05096 11.5323 7.30701 12.3062 7.93937 15.33C8.57369 18.3529 10.4492 19.1317 10.4492 19.1317Z" fill="#EE4036"/>
<path d="M10.4493 19.1317L10.4434 19.2113L10.506 19.2133C10.6235 19.2133 10.8956 19.1964 11.1638 19.0591C11.297 18.9885 11.4291 18.889 11.5388 18.7448C11.6445 18.5966 11.7257 18.4086 11.7619 18.1679L11.7717 18.0267C11.7717 17.7302 11.6562 17.392 11.4722 17.017C11.1991 16.457 10.7694 15.8194 10.324 15.1639C9.87858 14.5094 9.41752 13.84 9.07491 13.2203C8.90556 12.913 8.74209 12.6812 8.58449 12.5231L8.35543 12.34L8.12833 12.2734C8.04414 12.2724 7.96485 12.3042 7.90024 12.3619C7.80431 12.4495 7.74069 12.5838 7.69566 12.7618C7.64867 12.9418 7.62714 13.1686 7.62714 13.4422C7.62714 13.9266 7.69958 14.5632 7.86403 15.347C8.18315 16.8738 8.81844 17.8387 9.37641 18.4206C9.93437 19.0034 10.413 19.2043 10.4209 19.2063L10.4326 19.2103L10.4454 19.2123L10.4493 19.1317L10.4796 19.0561H10.4777C10.4571 19.0472 9.99702 18.8453 9.4645 18.2803C8.93297 17.7163 8.32704 16.7863 8.01674 15.3131C7.85424 14.5373 7.78376 13.9116 7.78376 13.4422C7.78376 13.089 7.82487 12.8244 7.89242 12.6593C7.92472 12.5768 7.96387 12.5191 8.00499 12.4843L8.12637 12.4345L8.27614 12.4803C8.36424 12.531 8.46702 12.6225 8.58057 12.7588C8.69118 12.8951 8.81159 13.0761 8.93591 13.2999C9.39893 14.1374 10.0714 15.0565 10.6264 15.901C10.9035 16.3227 11.1521 16.7276 11.3293 17.0886C11.5084 17.4527 11.6122 17.775 11.6112 18.0257L11.6034 18.145C11.5721 18.3609 11.4996 18.522 11.4105 18.6443C11.2745 18.8293 11.0895 18.9318 10.9172 18.9875C10.7439 19.0422 10.5834 19.0502 10.506 19.0502H10.4669H10.4571H10.4542L10.4493 19.1317Z" fill="#A23720"/>
<path d="M10.2799 18.3987C10.2799 18.3987 26.9611 30.0882 18.0954 69.6945L19.6273 70.0407C19.6273 70.0407 28.4578 32.2377 9.70337 17.0976L10.2799 18.3987Z" fill="#93AF2A"/>
<path d="M10.2799 18.3987L10.2349 18.4653L10.2417 18.4693C10.3925 18.5777 12.9846 20.4796 15.5385 25.1307C18.0934 29.7818 20.612 37.1803 20.612 48.2889C20.612 54.2868 19.8789 61.367 18.019 69.6766L18.0014 69.7562L19.689 70.1362L19.7076 70.0605C19.7095 70.0546 21.7857 61.1601 21.7857 50.2634C21.7857 44.4793 21.2013 38.1292 19.4041 32.2457C17.6079 26.3641 14.6007 20.9461 9.75621 17.035L9.6358 17.1324L10.2182 18.4524L10.2378 18.4663L10.2799 18.3987L10.3514 18.3649L9.77676 17.0658L9.70432 17.0976L9.65539 17.1623C14.4695 21.0465 17.462 26.4317 19.2504 32.2944C21.0398 38.1551 21.6272 44.4902 21.6252 50.2634C21.6252 55.7023 21.1083 60.6409 20.5876 64.2218C20.3282 66.0122 20.0697 67.4624 19.8759 68.4671C19.7761 68.9684 19.6958 69.3573 19.641 69.6199C19.6126 69.7522 19.5891 69.8517 19.5744 69.9213L19.5519 70.0227L19.6283 70.0417L19.6469 69.9621L18.113 69.6169L18.0963 69.6955L18.1736 69.7134C20.0365 61.3919 20.7726 54.3018 20.7726 48.2899C20.7726 36.9813 18.1639 29.4924 15.5561 24.8303C12.9454 20.1702 10.3338 18.338 10.3249 18.332L10.2799 18.3987Z" fill="#687F05"/>
<path d="M9.08272 17.0737C9.08272 17.0737 7.62713 14.6517 8.06665 12.91C8.06665 12.91 8.10286 11.9084 9.85017 15.2694C11.5965 18.6304 9.86681 17.8208 9.08272 17.0737Z" fill="#CD371D"/>
<path d="M7.64377 18.1828C7.89925 18.3947 8.20858 18.5767 8.3006 18.6384C9.02497 19.1298 9.85996 19.5426 10.7321 19.653C11.8128 19.7872 12.6273 18.9139 12.3463 17.7999C12.0664 16.6739 11.1658 15.8413 10.2877 15.1858C9.9647 14.9451 9.29221 14.7452 9.32941 15.3311C9.35779 15.7876 9.93142 16.0751 9.98036 16.5207C9.58489 16.4004 9.11014 15.722 8.62265 15.9428C7.72306 16.3496 8.05196 17.0578 8.68334 17.5601C8.75871 17.6178 8.8243 17.6686 8.84486 17.7541C8.49246 17.7382 7.69662 17.2846 7.3873 17.4836C7.12104 17.6556 7.34618 17.9371 7.64377 18.1828Z" fill="#93AF2A"/>
<path d="M7.64379 18.1828L7.59288 18.2455C7.72503 18.3539 7.86795 18.4534 7.99031 18.5349C8.11071 18.6145 8.21252 18.6782 8.25559 18.705C8.98584 19.2004 9.83061 19.6221 10.7234 19.7325L10.9514 19.7464C11.3851 19.7464 11.7678 19.5873 12.0419 19.3177C12.317 19.0482 12.4824 18.6682 12.4805 18.2345C12.4805 18.0883 12.4609 17.9361 12.4237 17.78C12.2788 17.2001 11.9744 16.7007 11.5995 16.2631C11.2236 15.8254 10.7743 15.4514 10.3328 15.1212C10.2437 15.0535 10.1321 14.9929 10.0146 14.9461C9.8962 14.8984 9.7709 14.8675 9.65441 14.8675C9.54967 14.8675 9.44787 14.8924 9.36956 14.964L9.27853 15.1023L9.2472 15.2873L9.25014 15.339C9.25797 15.4693 9.30593 15.5847 9.3676 15.6911C9.46353 15.8483 9.59177 15.9856 9.69749 16.1208L9.83649 16.3238L9.90208 16.5326L9.98038 16.5227L10.0039 16.4451C9.93144 16.4242 9.84823 16.3755 9.75916 16.3138C9.62407 16.2223 9.47919 16.1009 9.32551 16.0015C9.17182 15.901 9.00541 15.8185 8.8253 15.8185L8.59037 15.8712C8.3848 15.9637 8.23601 16.0731 8.13617 16.2004C8.03632 16.3247 7.98933 16.468 7.98933 16.6102C7.98933 16.7942 8.06275 16.9753 8.17826 17.1454C8.29279 17.3164 8.45136 17.4796 8.63441 17.6238L8.72545 17.7024L8.76754 17.776L8.8439 17.7551L8.84781 17.6755C8.78908 17.6735 8.70098 17.6536 8.60211 17.6218C8.45234 17.5771 8.27712 17.5094 8.10092 17.4557C7.92472 17.399 7.74951 17.3533 7.59386 17.3533C7.5038 17.3533 7.41766 17.3702 7.34326 17.4159L7.22678 17.5303L7.18665 17.6745L7.22385 17.8297L7.37361 18.0445L7.58995 18.2465L7.64379 18.1828L7.69468 18.1202C7.59386 18.0386 7.50478 17.954 7.44214 17.8735L7.37166 17.7611L7.34914 17.6735L7.36774 17.6149L7.43332 17.5512L7.59778 17.5144C7.68 17.5144 7.78083 17.5323 7.88851 17.5611C8.05198 17.6039 8.23209 17.6686 8.39851 17.7253C8.56492 17.781 8.71762 17.8317 8.8439 17.8367L8.9506 17.8417L8.92417 17.7352L8.8439 17.591L8.73524 17.4955C8.56198 17.3582 8.41613 17.207 8.31139 17.0548C8.2086 16.9017 8.15281 16.7485 8.15281 16.6092C8.15281 16.5008 8.18413 16.3994 8.26244 16.2989C8.34173 16.1994 8.46801 16.1019 8.65497 16.0164L8.82726 15.9796C8.91438 15.9796 9.00542 16.0065 9.09939 16.0532C9.24133 16.1238 9.3862 16.2362 9.52814 16.3426C9.67106 16.4491 9.81202 16.5525 9.95885 16.5973L10.0734 16.6331L10.0597 16.5108C10.045 16.3844 9.99507 16.271 9.92949 16.1656C9.83062 16.0124 9.70238 15.8762 9.59666 15.7399L9.46647 15.536L9.40871 15.3261L9.40676 15.2853L9.42732 15.156L9.50661 15.0595L9.65343 15.0277C9.74251 15.0267 9.85117 15.0506 9.95592 15.0933C10.0616 15.1341 10.1634 15.1928 10.2388 15.2475C10.6754 15.5748 11.1149 15.9428 11.4791 16.3675C11.8442 16.7913 12.132 17.2697 12.27 17.8178C12.3052 17.962 12.3229 18.0993 12.3229 18.2326C12.3229 18.6245 12.176 18.9587 11.9323 19.2014C11.6876 19.4391 11.3469 19.5833 10.9514 19.5833L10.7429 19.5704C9.88739 19.465 9.06219 19.0571 8.34369 18.5698C8.29474 18.5369 8.19685 18.4752 8.07743 18.3967C7.958 18.3181 7.81705 18.2206 7.69371 18.1182L7.64379 18.1828Z" fill="#687F05"/>
<path d="M23.0201 80.268C23.0201 80.268 30.7347 80.9036 30.5859 71.8828C30.4351 62.859 24.7742 33.2762 42.5567 42.5337C42.5567 42.5337 36.2223 32.5938 27.7736 38.9687C19.3199 45.3447 23.0201 80.268 23.0201 80.268Z" fill="#B5D334"/>
<path d="M30.0612 47.0575C29.2517 47.2902 28.3824 47.6911 27.4642 48.3118C24.8173 51.7972 23.6916 56.683 23.8521 61.5461C24.6842 58.4367 25.6161 55.3223 26.7124 52.2109L26.7173 52.197L26.7232 52.1831C27.1441 51.073 28.1083 50.8552 29.2027 50.8552H29.2057C29.2928 50.8552 29.3809 50.8572 29.468 50.8592C29.5894 49.5174 29.7783 48.2352 30.0612 47.0575ZM30.2031 37.8955C29.4827 38.2157 28.7348 38.6564 27.9674 39.2353C24.9348 41.4733 23.4606 47.8612 22.8713 54.9324C23.6612 51.8976 24.877 49.389 26.7359 48.0164C27.9625 47.1241 29.1283 46.589 30.2188 46.3284L30.256 46.3214C30.7973 44.4335 31.6108 42.8619 32.8119 41.8145C30.5653 42.462 28.5929 43.7651 27.2763 45.9246C27.5151 43.2817 28.3932 39.9465 30.2031 37.8955Z" fill="#A4C337"/>
<path d="M25.3009 80.3744C24.0107 80.6838 23.0142 80.5992 22.9927 80.5972C22.8361 80.5843 22.7108 80.4619 22.6931 80.3018C22.6931 80.2958 21.7671 71.5545 21.8983 62.0036C22.0578 52.4477 23.1542 42.104 27.5768 38.7031C28.957 37.6587 30.2961 37.0351 31.5707 36.7317C38.3064 35.171 42.8073 42.3477 42.8318 42.3536C42.912 42.479 42.8973 42.647 42.8004 42.7574C42.6996 42.8689 42.5371 42.8997 42.4059 42.8291C39.3362 41.2296 37.0191 40.8308 35.3022 41.2445C31.2829 42.1497 30.0279 47.8383 29.9437 54.3873C29.8468 60.9075 30.8463 68.1119 30.9109 71.8748C31.0323 77.7763 27.7373 79.7935 25.3841 80.3545L25.3009 80.3744ZM25.1511 79.7269C27.3282 79.1778 30.3284 77.5783 30.257 71.8858C30.1963 68.2064 29.1929 60.9602 29.2898 54.3773C29.3995 47.8214 30.5301 41.7528 35.1524 40.595C36.8371 40.1972 38.9074 40.4916 41.474 41.6404C40.9679 41.0257 40.2357 40.23 39.3117 39.478C37.4263 37.9492 34.8049 36.6421 31.7194 37.3782C30.5409 37.6597 29.2869 38.2386 27.9674 39.2353C23.9383 42.2084 22.6579 52.5143 22.5561 62.0135C22.4386 70.5061 23.1581 78.3542 23.3157 79.9407C23.672 79.9427 24.3475 79.9179 25.1511 79.7269Z" fill="#93AF2A"/>
<path d="M29.2047 50.8562H29.2018C28.1074 50.8562 27.1422 51.074 26.7223 52.1841L26.7164 52.198L26.7115 52.2119C25.6151 55.3233 24.6832 58.4377 23.8512 61.5471C23.9452 64.3381 24.4591 67.1212 25.3528 69.6269C25.7541 66.9263 26.2739 64.2993 27.0727 61.8166C27.2352 60.4071 27.478 59.0713 27.7932 57.8299C27.8323 55.1691 28.1309 52.5511 29.4641 50.884L29.4661 50.8612C29.3799 50.8582 29.2918 50.8562 29.2047 50.8562Z" fill="#92B23A"/>
<path d="M29.2018 50.8562C28.1074 50.8562 27.1422 51.074 26.7223 52.1841C27.1432 51.073 28.1074 50.8562 29.2018 50.8562Z" fill="#8BAC3B"/>
<path d="M29.282 55.386C28.1641 58.1383 27.5083 61.7689 27.4819 65.7794C27.4075 74.3854 24.6421 78.3482 23.2981 79.7627L23.3157 79.9417H23.3519C23.7151 79.9417 24.3749 79.9119 25.1511 79.7269C27.3282 79.1778 30.3284 77.5784 30.257 71.8858C30.1992 68.3934 29.2938 61.6883 29.282 55.386Z" fill="#92B23A"/>
<path d="M29.6197 54.6131C29.5032 54.8628 29.3907 55.1194 29.282 55.386C29.2938 61.6883 30.1992 68.3934 30.256 71.8858C30.3275 77.5784 27.3272 79.1778 25.1501 79.7269C24.3739 79.9119 23.7141 79.9417 23.3509 79.9417H23.3147L23.2971 79.7627C23.1875 79.8791 23.0857 79.9795 22.9966 80.0621C23.0113 80.1964 23.0191 80.268 23.0191 80.268C23.0191 80.268 23.1356 80.2779 23.3431 80.2779C24.8065 80.2779 30.7151 79.7885 30.5849 71.8828C30.5242 68.2015 29.5483 61.1024 29.6197 54.6131ZM29.467 50.8592L29.4651 50.882L29.4827 50.8592H29.467Z" fill="#8CAA30"/>
<path d="M28.0966 47.5389C27.7119 47.7548 27.3252 47.9965 26.9249 48.2859C19.4354 53.7189 22.3985 80.1307 22.3985 80.1307C22.3985 80.1307 27.0511 76.9676 27.1539 65.7784C27.1725 63.8259 27.338 61.9608 27.6267 60.2361C26.504 63.1724 25.8412 66.3464 25.3528 69.6249C22.7832 62.4204 23.3441 52.9261 28.0966 47.5389Z" fill="#BDD631"/>
<path d="M34.0629 49.0887C28.0859 48.8728 27.7364 54.3326 27.7942 59.3349C29.283 51.8986 33.271 47.4504 38.6383 51.0213C37.4147 49.6228 35.5391 49.2269 34.0629 49.0887Z" fill="#B1D033"/>
<path d="M33.7242 49.0837C31.7077 49.0837 30.3686 49.763 29.4827 50.8592L29.4651 50.882C28.1318 52.5501 27.8333 55.1681 27.7941 57.8279C28.9179 53.4424 30.9892 50.2862 33.871 49.5611C34.2411 49.4716 34.6218 49.4248 35.0124 49.4248C35.6115 49.4248 36.2321 49.5323 36.8733 49.7511C35.9404 49.3383 34.9331 49.1682 34.0629 49.0866C33.9494 49.0856 33.8348 49.0837 33.7242 49.0837Z" fill="#A1C136"/>
<path d="M34.0629 49.0886C35.5391 49.2269 37.4146 49.6228 38.6382 51.0203C38.7802 51.1158 38.9201 51.2103 39.0631 51.3138C39.0631 51.3138 34.8959 43.7372 28.0966 47.5389C23.3441 52.9251 22.7822 62.4194 25.3528 69.6249C25.8413 66.3454 26.504 63.1724 27.6267 60.2361C27.6767 59.9307 27.7334 59.6313 27.7931 59.3349C27.7364 54.3336 28.0858 48.8728 34.0629 49.0886Z" fill="#B1D033"/>
<path d="M22.2605 80.4321C22.1577 80.3844 22.0843 80.2839 22.0735 80.1685C22.0725 80.1586 21.3296 73.5459 21.5254 66.237C21.7417 58.9271 22.7999 50.9228 26.735 48.0164C27.9615 47.1241 29.1274 46.589 30.2179 46.3284C36.0089 44.9915 39.3323 51.1437 39.347 51.1536C39.4233 51.2889 39.3939 51.461 39.2804 51.5644C39.1668 51.6669 38.9955 51.6758 38.8702 51.5853C37.0338 50.2385 35.4206 49.8764 34.0199 50.2086C30.1836 51.0651 27.5367 57.6399 27.4819 65.7794C27.384 77.0671 22.6579 80.3635 22.5806 80.4073L22.4729 80.454L22.2605 80.4321ZM27.1158 48.5565C23.5595 51.084 22.3535 59.0007 22.1802 66.2559C22.0217 72.1882 22.4847 77.6639 22.6599 79.4683C22.7274 79.4006 22.8048 79.323 22.888 79.2325C23.3089 78.7819 23.8747 78.0598 24.4493 76.9925C25.5985 74.8539 26.7741 71.3248 26.828 65.7755C26.9269 57.5335 29.4406 50.6771 33.8701 49.5631C35.1064 49.2647 36.4592 49.4567 37.8865 50.1888C37.5311 49.7421 37.075 49.2309 36.5209 48.7455C35.0545 47.4554 32.9813 46.3552 30.3686 46.9769C29.3702 47.2146 28.2836 47.707 27.1158 48.5565Z" fill="#93AF2A"/>
<path d="M18.8638 51.7454C18.6288 49.8476 18.3655 48.086 17.8849 46.4835C15.0735 42.7157 10.832 40.5483 6.12552 41.1531C3.92596 41.4355 2.3294 42.6679 0.327576 43.2429C3.41009 42.3576 7.75928 42.5456 10.3514 44.5917C11.0532 45.1477 11.6738 45.7893 12.2377 46.4855C14.9365 47.4862 17.3357 49.0459 18.8638 51.7454Z" fill="#B5D334"/>
<path d="M23.6368 70.4614C23.8296 67.6833 23.8061 64.8762 23.5017 62.107C22.9016 56.6283 21.309 51.2749 18.0963 46.7621C18.0288 46.6676 17.9563 46.5761 17.8849 46.4836C18.3655 48.086 18.6288 49.8476 18.8638 51.7454C17.3357 49.0459 14.9365 47.4862 12.2377 46.4856C13.613 48.1775 14.6174 50.2037 15.377 52.2219C17.2036 57.073 17.4855 62.2682 17.5628 67.4097C17.6323 72.1026 18.018 77.3466 21.9032 80.5236C21.7926 80.4321 23.5663 71.4442 23.6368 70.4614Z" fill="#B5D334"/>
<path d="M16.8159 49.1652C17.601 49.8864 18.2931 50.7358 18.8638 51.7454V51.7425C18.2931 50.7358 17.601 49.8864 16.8159 49.1652ZM12.2377 46.4856C12.5059 46.585 12.7721 46.6895 13.0355 46.8009C12.7721 46.6895 12.5069 46.585 12.2377 46.4856Z" fill="#A4C337"/>
<path d="M17.8849 46.4836C18.3655 48.086 18.6288 49.8476 18.8637 51.7454C18.2931 50.7358 17.601 49.8864 16.8159 49.1652C15.7098 48.1497 14.4225 47.3897 13.0364 46.8009C12.7721 46.6895 12.5069 46.584 12.2386 46.4856C13.614 48.1775 14.6183 50.2037 15.3779 52.2219C17.2045 57.073 17.4864 62.2682 17.5638 67.4097C17.6333 72.1026 18.019 77.3466 21.9042 80.5236L21.8993 80.4908C21.8993 79.896 23.5692 71.4153 23.6368 70.4634C23.718 69.2907 23.7601 68.1139 23.7601 66.9352C23.7601 65.3229 23.6779 63.7095 23.5017 62.108C23.3558 60.7762 23.1522 59.4512 22.8791 58.1422C22.7666 57.6021 22.6413 57.062 22.5042 56.5269C22.4044 56.138 22.2987 55.753 22.1861 55.3691C22.0412 54.8687 21.8817 54.3694 21.7123 53.877C21.6643 53.7388 21.6173 53.6055 21.5694 53.4692C21.309 52.7521 21.0241 52.0428 20.7109 51.3466C20.6629 51.2391 20.613 51.1317 20.5641 51.0243C19.8779 49.5432 19.0595 48.1158 18.0973 46.7641C18.0278 46.6686 17.9553 46.5771 17.8849 46.4836Z" fill="#A4C337"/>
<path d="M21.6966 80.7802C17.6715 77.4829 17.3103 72.1086 17.2349 67.4147C17.1595 62.2801 16.8727 57.1257 15.0696 52.3392C14.0104 49.5233 12.4863 46.6974 10.1487 44.8553C9.18649 44.0923 7.94722 43.591 6.61007 43.3195C4.53874 42.8977 2.2364 43.04 0.416652 43.5612C0.332467 43.587 0.245348 43.5771 0.168995 43.5323L0.0172691 43.3453L0.0123698 43.3314C-0.0121023 43.2419 0.000621485 43.1534 0.0427136 43.0778V43.0768L0.178786 42.9445L0.180743 42.9435L0.194447 42.9385L0.207173 42.9315L0.238495 42.9216C2.16494 42.3775 3.78206 41.1242 6.08538 40.8228C7.46463 40.6448 8.80864 40.6975 10.0929 40.9591C13.4045 41.6285 16.2971 43.6646 18.3616 46.5681C21.6183 51.1387 23.2237 56.5527 23.8287 62.0702C24.1351 64.8623 24.1585 67.6882 23.9628 70.4843C23.9236 71.0184 23.4919 73.344 23.0661 75.6646C22.652 77.8967 22.2419 80.1685 22.2272 80.4689L22.2301 80.4848C22.2389 80.5753 22.2135 80.6609 22.1597 80.7295C22.1039 80.7982 22.0265 80.8419 21.9384 80.8519L21.8396 80.8489L21.6966 80.7802ZM10.552 44.3291C13.0364 46.2936 14.5978 49.2289 15.6824 52.1025C17.5325 57.0163 17.8134 62.2543 17.8898 67.4027C17.9544 71.8927 18.3254 76.7786 21.6487 79.8631C21.6869 79.6234 21.7348 79.33 21.7955 78.9908C21.9463 78.1185 22.1597 76.9537 22.3789 75.7651C22.8165 73.3937 23.2805 70.8662 23.3089 70.4355C23.4998 67.6763 23.4763 64.8882 23.1757 62.1429C22.5786 56.7029 20.9997 51.4072 17.8301 46.956C15.8468 44.1719 13.0962 42.2422 9.96177 41.6086C8.74795 41.3639 7.4754 41.3122 6.16369 41.4803C5.08398 41.6156 4.14229 42.0025 3.19865 42.4292C4.36842 42.3616 5.5793 42.4302 6.73634 42.664C8.14985 42.9534 9.48211 43.4846 10.552 44.3291Z" fill="#93AF2A"/>
<path d="M16.8238 72.3682C18.3244 68.6998 19.8613 64.8086 20.3429 60.8796C20.0864 58.6834 19.4697 56.5577 18.2099 54.6738C15.9379 51.2749 11.8794 49.2796 7.78865 50.2942C6.51512 50.6095 5.32871 51.1964 4.22844 51.9066C3.82416 52.1632 3.24956 52.7958 2.79047 52.9212C12.0057 50.3837 12.6116 58.0269 12.7105 65.2443C13.2851 67.9956 14.3139 70.3878 16.8238 72.3682Z" fill="#BDD631"/>
<path d="M19.6302 76.5141C19.4168 73.4982 20.0462 70.2048 20.3135 67.1968C20.4985 65.1199 20.5826 62.9685 20.3418 60.8796C19.8602 64.8086 18.3244 68.6998 16.8227 72.3682C14.3139 70.3878 13.2851 67.9956 12.7095 65.2433C12.7486 68.114 12.7085 70.914 13.0971 72.9819C14.4597 80.2551 21.6389 80.2173 21.6389 80.2173C20.3497 80.2242 19.6919 77.3844 19.6302 76.5141Z" fill="#ACCB35"/>
<path d="M12.7741 73.0436C12.1838 69.8676 12.5695 65.1319 12.2034 61.0189C11.8285 56.878 10.7439 53.5478 7.40687 52.8834C6.23123 52.6446 4.74626 52.7252 2.87756 53.2414C2.7924 53.2643 2.7043 53.2524 2.62697 53.2076L2.60641 53.1967L2.59858 53.1907L2.47426 53.0057L2.46546 52.9729V52.9689L2.46448 52.958L2.48894 52.7859L2.50461 52.7541L2.51832 52.7332L2.62795 52.6297L2.7043 52.5979C3.00286 52.5372 3.59606 51.9294 4.05027 51.6241C5.17207 50.9009 6.3898 50.2962 7.70739 49.968C9.09545 49.6248 10.4825 49.6158 11.8001 49.8814C14.5018 50.4295 16.905 52.1334 18.48 54.4868C21.0065 58.2775 21.0153 62.9476 20.6375 67.2237C20.3683 70.2585 19.7447 73.538 19.9542 76.4892C19.9797 76.8572 20.1412 77.7087 20.4329 78.4567C20.7138 79.2196 21.1632 79.8273 21.5263 79.8731L21.6105 79.8811H21.6369V79.884H21.6389C21.819 79.884 21.9658 80.0322 21.9649 80.2163C21.9649 80.3993 21.818 80.5475 21.6389 80.5495H21.634H21.636H21.6105C21.4725 80.5475 20.8548 80.5316 19.9983 80.3565L19.9464 80.3456C17.6871 79.891 13.75 78.2746 12.7741 73.0436ZM12.8553 60.9602C13.2234 65.1478 12.8485 69.9024 13.4182 72.9213C14.3452 77.8459 17.9857 79.2584 20.1265 79.705L20.3575 79.7498C20.1402 79.4364 19.9699 79.0684 19.8231 78.7004C19.503 77.8698 19.3365 76.9994 19.3023 76.5379C19.0869 73.4584 19.7222 70.1511 19.9865 67.166C20.3644 62.9227 20.3233 58.4228 17.9358 54.8598C16.4547 52.6427 14.1896 51.0432 11.6719 50.5349C10.4453 50.2852 9.1581 50.2952 7.86205 50.6165C6.63551 50.9188 5.4814 51.4888 4.40071 52.1851L4.31751 52.2388C5.54601 52.0379 6.60907 52.0428 7.53216 52.2288C11.3479 53.0146 12.4961 56.7974 12.8553 60.9602Z" fill="#93AF2A"/>
<path d="M11.8951 18.9597C12.1251 18.6513 12.1819 18.2097 12.0057 17.7442C11.7394 17.0359 11.0689 16.3049 10.5051 15.8344C8.29083 13.9823 10.4845 16.0443 10.3435 16.647C10.2065 17.2518 9.43906 16.5824 8.99073 16.4004C8.54142 16.2173 8.04219 16.6262 9.27657 17.8277C9.27657 17.8277 9.53891 18.2117 8.78615 18.0645C8.03143 17.9173 7.31488 17.6517 8.33292 18.3121C9.05925 18.7836 10.0058 19.3148 10.8741 19.3804C11.3273 19.4133 11.6846 19.2442 11.8951 18.9597Z" fill="#B5D334"/>
<path d="M21.0888 44.1988C21.0888 44.1988 19.5147 27.3498 12.548 20.3532C12.548 20.3532 20.5915 28.3724 21.0888 44.1988Z" fill="#B5D334"/>
<path d="M24.6421 32.754C24.6421 32.754 27.9419 13.9833 34.0531 8.00522C34.0531 8.00522 27.0041 14.8427 24.6421 32.754Z" fill="#B5D334"/>
</svg>
