<svg width="73" height="120" viewBox="0 0 73 120" fill="none" xmlns="http://www.w3.org/2000/svg">
<path d="M57.764 91.7556L54.6678 114.551C54.6219 117.632 47.8134 120.027 39.4568 119.902C31.1012 119.776 24.3666 117.178 24.4126 114.099L20.824 89.7657L57.764 91.7556Z" fill="#AA6B28"/>
<path d="M57.764 91.7556L57.6681 91.7427L54.574 114.538L54.573 114.549C54.561 115.975 52.973 117.309 50.3503 118.265C47.7335 119.224 44.107 119.81 40.0851 119.81C39.8753 119.81 39.6676 119.81 39.4588 119.806C35.305 119.744 31.5537 119.069 28.8471 118.03C26.1354 116.992 24.4985 115.586 24.5075 114.131V114.101V114.085L20.9359 89.8652L57.756 91.8481L57.764 91.7556L57.769 91.6601L20.8311 89.6702L20.7561 89.701L20.7322 89.7786L24.3227 114.112L24.4156 114.098L24.3197 114.096V114.13C24.3297 115.739 26.0515 117.155 28.7811 118.206C31.5147 119.256 35.285 119.932 39.4578 119.995C39.6676 119.998 39.8773 120 40.087 120C44.128 120 47.7725 119.411 50.4202 118.443C53.0609 117.474 54.7318 116.13 54.7657 114.553L54.6699 114.551L54.7657 114.563L57.8599 91.7675L57.8389 91.6949L57.772 91.6611L57.764 91.7556Z" fill="#2E1010"/>
<path d="M57.764 91.7556L54.6678 114.551C54.6219 117.632 47.8134 120.027 39.4568 119.902C31.1012 119.776 24.3666 117.178 24.4126 114.099L20.824 89.7657L57.764 91.7556Z" fill="#F9A84C"/>
<path d="M57.764 91.7556L57.6681 91.7427L54.574 114.538L54.573 114.549C54.561 115.975 52.973 117.309 50.3503 118.265C47.7335 119.224 44.107 119.81 40.0851 119.81C39.8753 119.81 39.6676 119.81 39.4588 119.806C35.305 119.744 31.5537 119.069 28.8471 118.03C26.1354 116.992 24.4985 115.586 24.5075 114.131V114.101V114.085L20.9359 89.8652L57.756 91.8481L57.764 91.7556L57.769 91.6601L20.8311 89.6702L20.7561 89.701L20.7322 89.7786L24.3227 114.112L24.4156 114.098L24.3197 114.096V114.13C24.3297 115.739 26.0515 117.155 28.7811 118.206C31.5147 119.256 35.285 119.932 39.4578 119.995C39.6676 119.998 39.8773 120 40.087 120C44.128 120 47.7725 119.411 50.4202 118.443C53.0609 117.474 54.7318 116.13 54.7657 114.553L54.6699 114.551L54.7657 114.563L57.8599 91.7675L57.8389 91.6949L57.772 91.6611L57.764 91.7556Z" fill="#7C4317"/>
<path d="M24.9449 96.1731L27.2061 112.195C27.2061 112.195 28.1719 117.226 34.3752 118.564C35.0823 118.717 35.7824 118.79 36.4686 118.79C41.7859 118.79 46.2074 114.421 46.582 109.301C47.0354 103.123 47.0354 97.8775 47.0354 97.8775C47.0354 97.8775 43.31 98.4784 38.509 98.4784C34.2144 98.4784 29.0628 97.9968 24.9449 96.1731Z" fill="#FAB76A"/>
<path d="M57.4614 93.2679C56.4077 94.1992 54.9136 95.029 53.0899 95.7204C51.5638 96.2985 49.805 96.779 47.8734 97.1392C48.3827 97.1949 49.0329 97.2387 49.8129 97.2387C50.8317 97.2387 52.0711 97.1631 53.4924 96.9323C53.4924 96.9323 53.6092 96.8278 53.754 96.8278C53.9827 96.8278 54.2814 97.0875 54.3014 98.4267C54.3313 100.615 52.2649 113.87 52.2649 113.87C52.2649 113.87 51.8644 117.287 47.0874 118.566C45.4873 118.996 42.8986 119.341 39.9942 119.341C34.3103 119.341 27.4219 118.013 24.4036 113.373L24.5085 114.087V114.103V114.133C24.4995 115.588 26.1365 116.994 28.8481 118.032C31.5547 119.071 35.306 119.747 39.4599 119.808C39.6686 119.812 39.8763 119.812 40.0861 119.812C44.1081 119.812 47.7345 119.226 50.3513 118.267C52.974 117.311 54.562 115.976 54.574 114.551L54.575 114.54L57.4614 93.2679Z" fill="#DE9342"/>
<path d="M57.5712 93.1684C57.5353 93.2012 57.5003 93.2341 57.4614 93.2679L54.575 114.539L54.574 114.55C54.562 115.976 52.974 117.31 50.3512 118.266C47.7345 119.225 44.108 119.811 40.086 119.811C39.8763 119.811 39.6686 119.811 39.4598 119.807C35.306 119.745 31.5547 119.07 28.848 118.031C26.1364 116.993 24.4995 115.587 24.5085 114.132V114.102V114.086L24.4036 113.372C24.3616 113.307 24.3187 113.24 24.2787 113.175L24.4146 114.1C24.3676 117.179 31.1022 119.777 39.4588 119.903C39.6696 119.905 39.8773 119.906 40.087 119.906C48.153 119.906 54.6249 117.555 54.6699 114.552L57.5712 93.1684Z" fill="#6F3B14"/>
<path d="M19.9701 85.4725L23.5417 85.6098C27.0743 83.613 32.926 82.3066 39.5537 82.3066C46.9475 82.3066 53.3815 83.9314 56.7013 86.3292C58.0786 85.8974 59.4809 85.4526 59.4809 85.4526L59.0714 90.4164C58.576 94.5136 50.0257 97.776 39.5537 97.776C28.9599 97.776 20.3417 94.4389 20.028 90.2761L19.9691 90.2134V85.6665L19.9751 85.6795L19.9701 85.4725Z" fill="#F9A72B"/>
<path d="M19.9701 85.4725L19.9661 85.5671L23.5377 85.7053L23.5876 85.6914C27.0992 83.7085 32.938 82.3991 39.5537 82.4001C46.9335 82.3991 53.3555 84.0279 56.6444 86.4048L56.7283 86.4197C58.1076 85.9869 59.5098 85.5412 59.5098 85.5412L59.4809 85.4516L59.385 85.4437L58.9755 90.4064L59.0714 90.4154V90.3199L58.9755 90.4025C58.7438 92.3864 56.5176 94.2211 53.0199 95.5424C49.5263 96.8646 44.7802 97.6805 39.5537 97.6805C34.2673 97.6805 29.4713 96.8457 25.9676 95.4966C22.46 94.1494 20.2658 92.2809 20.1219 90.2681L20.098 90.2104L20.065 90.1766V85.6656H19.9691L19.8792 85.6924L19.8832 85.7053L19.9881 85.771L20.069 85.6755L20.064 85.4686L19.9701 85.4725L19.8752 85.4745L19.8802 85.6805L19.9761 85.6795L20.066 85.6506L20.062 85.6387L19.9571 85.574L19.8762 85.6675V90.2144L19.9002 90.2781L19.9591 90.3408L20.029 90.2771L19.9332 90.2831C20.101 92.4341 22.3731 94.3156 25.9007 95.6766C29.4343 97.0357 34.2473 97.8715 39.5547 97.8715C44.8012 97.8715 49.5662 97.0557 53.0898 95.7214C56.6075 94.3872 58.9046 92.5426 59.1653 90.4293L59.0724 90.4174V90.5119L59.1673 90.4244L59.5767 85.4616L59.5408 85.379L59.4539 85.3641C59.4489 85.3651 58.0517 85.8078 56.6724 86.2396L56.7023 86.3302L56.7583 86.2526C53.4074 83.8359 46.9635 82.2141 39.5547 82.2131C32.914 82.2141 27.0513 83.5204 23.4957 85.5292L23.5427 85.6118L23.5457 85.5173L19.9751 85.379L19.9062 85.4069L19.8772 85.4755L19.9701 85.4725Z" fill="#7C4317"/>
<path d="M19.9701 85.4725C19.9701 89.7717 28.8151 93.2569 39.7255 93.2569C50.6369 93.2569 59.4808 89.7717 59.4808 85.4725C59.4808 81.1724 50.6369 77.6871 39.7255 77.6871C28.8161 77.6871 19.9701 81.1724 19.9701 85.4725Z" fill="#F9A84C"/>
<path d="M19.9701 85.4725H19.8752C19.8832 87.6942 22.1374 89.6503 25.721 91.0651C29.3115 92.4799 34.2603 93.3515 39.7255 93.3515C45.1907 93.3515 50.1395 92.4799 53.729 91.0651C57.3146 89.6503 59.5698 87.6952 59.5758 85.4725C59.5688 83.2498 57.3136 81.2938 53.729 79.88C50.1395 78.4651 45.1907 77.5926 39.7255 77.5926C34.2613 77.5926 29.3105 78.4651 25.721 79.88C22.1374 81.2938 19.8832 83.2498 19.8752 85.4725H19.9701H20.066C20.058 83.3951 22.2273 81.4579 25.7909 80.0551C29.3514 78.6512 34.2813 77.7826 39.7255 77.7826C45.1697 77.7826 50.1006 78.6512 53.6591 80.0551C57.2237 81.4579 59.393 83.3951 59.385 85.4725C59.393 87.549 57.2237 89.4861 53.6591 90.889C50.0996 92.2909 45.1697 93.1615 39.7255 93.1615C34.2813 93.1615 29.3514 92.2909 25.7909 90.889C22.2273 89.4861 20.058 87.549 20.066 85.4725H19.9701Z" fill="#7C4317"/>
<path d="M20.5983 85.3213C20.5983 89.2056 29.1427 92.3565 39.6835 92.3565C50.2254 92.3565 58.7668 89.2056 58.7668 85.3213C58.7668 81.437 50.2244 78.288 39.6835 78.288C29.1427 78.288 20.5983 81.437 20.5983 85.3213Z" fill="#C7883C"/>
<path d="M20.5983 85.3213H20.5034C20.5124 87.341 22.6917 89.106 26.1534 90.3845C29.622 91.6631 34.4021 92.451 39.6835 92.451C44.9619 92.451 49.743 91.6631 53.2116 90.3845C56.6733 89.106 58.8526 87.341 58.8616 85.3213C58.8526 83.3016 56.6733 81.5375 53.2116 80.258C49.743 78.9815 44.9619 78.1935 39.6835 78.1935C34.4021 78.1935 29.622 78.9815 26.1534 80.258C22.6917 81.5375 20.5124 83.3016 20.5034 85.3213H20.5983H20.6932C20.6842 83.4558 22.7756 81.7027 26.2203 80.4371C29.658 79.1696 34.4231 78.3836 39.6835 78.3836C44.9439 78.3836 49.706 79.1696 53.1457 80.4371C56.5914 81.7037 58.6818 83.4558 58.6728 85.3213C58.6818 87.1868 56.5914 88.9399 53.1457 90.2065C49.707 91.475 44.9439 92.262 39.6835 92.262C34.4221 92.262 29.658 91.475 26.2203 90.2065C22.7756 88.9399 20.6842 87.1868 20.6932 85.3213H20.5983Z" fill="#7C4317"/>
<path d="M51.9542 84.2816C51.9542 84.2816 52.3088 83.3822 49.2306 82.2718C46.1515 81.1605 45.4493 83.1185 45.4493 83.1185C45.4493 83.1185 45.5462 82.2778 43.8913 81.2201C42.2363 80.1645 39.7894 81.8708 39.7894 81.8708C37.1047 80.6471 35.0892 83.3931 35.0892 83.3931C32.6313 80.9525 28.4595 83.3503 28.4595 83.3503C24.2238 82.4399 23.1871 85.8834 23.1871 85.8834C22.1484 85.8437 21.3763 86.1909 20.8051 86.6724C22.8895 89.7349 30.2753 92.1367 39.1252 92.3506C48.6903 92.5804 56.6703 90.1766 58.1355 86.8267C57.0559 85.7392 55.0983 85.4059 55.0983 85.4059C54.1405 84.0229 51.9542 84.2816 51.9542 84.2816Z" fill="#584521"/>
<path d="M52.0461 84.3065C52.3497 83.2667 49.8259 82.4608 49.2636 82.2439C48.0921 81.7893 46.2094 81.5723 45.4693 82.8757C45.3624 83.0658 45.3934 83.0508 45.4453 83.0369C45.4843 83.025 45.5332 83.015 45.5422 83.0946C45.5103 82.7772 45.3644 82.5494 45.1957 82.2867C44.7242 81.5495 43.8513 81.0679 43.0244 80.8649C42.2793 80.6829 41.4343 80.9943 40.7562 81.2659C40.4056 81.4062 40.0711 81.6042 39.7534 81.8062C39.8843 81.7216 38.5659 81.5286 38.7177 81.5355C37.7639 81.4987 36.9929 81.7365 36.1849 82.2499C35.8283 82.4758 35.5237 82.7822 35.2361 83.0837C34.8525 83.4896 34.8096 82.9832 34.3192 82.7553C32.5264 81.9295 30.6398 82.2847 28.886 83.0618C28.4336 83.2618 28.034 83.223 27.6056 83.1812C27.3459 83.1573 27.0763 83.1324 26.7786 83.1623C25.8188 83.2588 25.0218 83.5324 24.2668 84.1373C23.7784 84.5283 23.4148 85.1024 23.1651 85.6715C23.0692 85.8934 21.1516 86.3222 20.7192 86.6406L20.7222 86.6704C22.2752 88.7897 24.9829 89.8244 27.3959 90.6094C31.1741 91.8372 35.2091 92.27 39.1642 92.3944C43.296 92.5237 47.4908 92.1307 51.4818 91.0452C53.8968 90.3895 57.0479 89.2603 58.2294 86.8495L58.2094 86.8167C57.1857 85.9322 55.8474 85.779 54.8506 85.0308C53.9887 84.3831 52.972 84.1383 51.8953 84.2398C51.7974 84.2497 51.9652 84.3293 52.0132 84.3254C53.2446 84.2089 54.1805 85.2447 55.35 85.4984C56.3717 85.7183 58.519 86.2506 57.5992 87.549C57.2716 88.0116 56.8142 88.3778 56.3687 88.722C53.3815 91.0283 49.0039 91.6611 45.3764 92.068C40.3767 92.6282 35.2211 92.3336 30.3032 91.2979C28.1809 90.8542 26.0965 90.1866 24.1489 89.2324C23.3998 88.8673 22.6987 88.4116 22.0435 87.8982C21.7729 87.6793 21.5212 87.4375 21.2875 87.1779C20.3377 86.174 23.1352 85.9302 23.226 85.9272L23.281 85.9073C24.0021 83.6776 26.3392 83.023 28.4765 83.3941C28.6803 83.4299 29.1207 83.1016 29.2945 83.025C31.1492 82.2032 33.3504 81.9644 35.0193 83.403L35.1781 83.4259C35.4328 83.0926 35.7404 82.8101 36.059 82.5384C37.3405 81.442 38.0446 81.8738 39.8273 81.9146C40.14 81.9236 40.6104 81.4828 40.904 81.3445C42.3142 80.6809 45.4044 81.1943 45.3575 83.0956L45.5422 83.1444C45.8189 82.4588 46.504 82.1335 47.1932 81.9982C46.6998 82.0967 52.3438 82.6101 51.8634 84.2597L52.0461 84.3065Z" fill="#403215"/>
<path d="M28.7103 84.0119C28.7103 84.0119 25.3005 83.419 24.6443 85.2198C23.9872 87.0197 21.7809 86.0456 23.1981 87.6037C24.6144 89.1568 26.8086 89.2354 27.7974 88.3937C28.7872 87.5509 29.1387 86.361 31.1043 86.5252C33.0728 86.6913 31.8494 85.1263 30.6878 85.1084C29.5243 85.0914 31.6915 83.6329 32.6304 83.5264C33.5722 83.42 30.6249 82.3842 28.7103 84.0119Z" fill="#6C562B"/>
<path d="M37.2296 85.7929C37.2296 85.7929 36.4556 84.8626 34.1524 84.8069C31.8483 84.7502 33.1627 85.6805 33.0548 86.1192C32.9459 86.559 34.476 87.4326 34.476 87.4326C34.476 87.4326 35.1262 85.9043 37.2296 85.7929Z" fill="#6C562B"/>
<path d="M36.2149 83.6767C35.9792 83.6617 37.6341 81.8758 39.322 82.433C40.0861 82.6837 40.8032 82.4967 41.4813 82.3106C42.3033 82.0857 43.0743 81.8599 43.8154 82.4081C45.1687 83.412 44.5665 84.2378 44.5665 84.2378C44.5665 84.2378 40.2928 84.195 39.8813 86.0506C39.8813 86.0506 38.5999 83.8319 36.2149 83.6767Z" fill="#6C562B"/>
<path d="M47.5338 85.771C47.4908 85.781 47.1473 85.7193 46.6389 85.6596C45.2386 85.4924 42.5989 85.3253 41.6661 86.6316C41.6661 86.6316 41.1387 87.0147 42.1535 87.8455C43.1682 88.6713 43.9033 88.917 43.8793 89.9448C43.8793 89.9448 45.2436 86.9659 50.574 88.2633C55.9053 89.5598 56.5106 87.2774 55.4259 86.6307C54.3443 85.981 52.19 86.8853 52.19 86.8853C52.19 86.8853 51.367 84.8805 47.5338 85.771Z" fill="#6C562B"/>
<path d="M50.6429 84.0886C50.6429 84.0886 49.4814 82.7086 47.8913 83.025C46.3003 83.3414 51.0884 85.5163 50.6429 84.0886Z" fill="#775E30"/>
<path d="M41.1807 89.3389C41.1807 89.3389 39.4379 87.9629 37.1607 88.6195C37.1607 88.6195 36.9669 90.8512 36.4396 90.8164C35.9133 90.7836 35.0743 87.5569 32.3117 87.8216C29.5502 88.0863 28.3287 89.2155 29.4673 90.1448C30.6069 91.0721 36.0461 92.2013 39.345 91.9247C42.6439 91.6511 41.9987 90.2045 41.1807 89.3389Z" fill="#6C562B"/>
<path d="M48.4177 89.2812C48.4177 89.2812 46.1315 89.0006 45.0968 90.3597C44.0621 91.7178 48.8192 91.4452 50.519 90.6502C52.2179 89.8562 48.6774 89.2981 48.4177 89.2812Z" fill="#6C562B"/>
<path d="M40.7881 78.89C32.2078 78.89 25.8647 81.2321 25.8647 81.2321C24.6393 81.8868 25.7709 82.817 27.4907 82.817C28.2548 82.817 29.1337 82.634 29.9716 82.1624C30.6677 81.7703 31.3109 81.64 31.9002 81.64C32.4945 81.64 33.0338 81.7733 33.5162 81.9066C33.9966 82.04 34.4201 82.1743 34.7856 82.1743C35.1122 82.1743 35.3899 82.0678 35.6206 81.7594C36.091 81.1306 36.9789 80.9624 37.7919 80.9624C38.7117 80.9634 39.5327 81.1774 39.5327 81.1774C39.5327 81.1774 39.7215 80.3605 42.2203 80.3605C42.3472 80.3605 42.479 80.3625 42.6169 80.3675C45.4913 80.459 45.8578 81.831 45.8578 81.831C46.0895 80.9585 48.144 81.0082 48.4596 80.2332C48.7752 79.4581 47.5807 79.4044 47.5807 79.4044C45.2196 79.0372 42.9364 78.89 40.7881 78.89Z" fill="#D09C5D"/>
<path d="M28.7612 84.6776C28.6912 84.5423 27.7754 83.9662 26.0815 84.6139C24.3856 85.2606 25.3314 86.1411 26.6298 85.9362C27.9262 85.7322 29.0058 85.1561 28.7612 84.6776Z" fill="#7C6232"/>
<path d="M35.3359 85.2029C35.3359 85.2029 34.1713 84.984 34.3731 85.4516C34.5768 85.9222 36.5044 85.4248 35.3359 85.2029Z" fill="#7C6232"/>
<path d="M44.1939 83.6518C44.1939 83.6518 43.7425 82.239 42.2843 82.4519C40.8271 82.6628 44.127 84.5034 44.1939 83.6518Z" fill="#7C6232"/>
<path d="M51.6416 86.8714C51.6416 86.8714 48.8661 85.4427 48.8661 86.8048C48.8651 88.1648 52.6833 87.8514 51.6416 86.8714Z" fill="#7C6232"/>
<path d="M44.1921 91.0203C44.1311 91.0243 44.0711 91.0303 44.0101 91.0373C44.0371 91.0423 44.0691 91.0473 44.1021 91.0473C44.1201 91.0473 44.1391 91.0463 44.1581 91.0433C44.1671 91.0413 44.1791 91.0343 44.1921 91.0203Z" fill="#463618"/>
<path d="M58.7677 88.4106C57.8239 92.6998 49.8348 96.1731 49.8348 96.1731C49.8348 96.1731 54.4181 94.6718 56.2039 93.6012C57.9897 92.5277 58.553 90.5437 58.553 90.5437L58.7677 88.4106Z" fill="#DE9225"/>
<path d="M27.6705 85.1949C27.6705 85.1949 26.4241 84.0368 25.0658 85.3372C23.7105 86.6396 24.4046 87.7977 25.8298 87.6594C27.256 87.5181 29.0997 86.3341 27.6705 85.1949Z" fill="#584521"/>
<path d="M27.7514 85.176C27.244 84.7184 26.51 84.586 25.8638 84.7721C24.9679 85.0268 23.7164 86.3789 24.4735 87.3012C25.0778 88.0345 26.4091 87.6594 27.1152 87.345C27.5716 87.141 28.0221 86.8207 28.2238 86.352C28.4266 85.8874 28.085 85.4626 27.7514 85.176L27.5866 85.2128C28.3517 85.8695 28.102 86.5888 27.3329 87.0982C26.5988 87.5868 25.1197 88.0196 24.5394 87.1192C23.9951 86.2804 25.1916 85.187 25.8418 84.8825C26.4131 84.6159 27.1322 84.8019 27.5866 85.2128L27.7514 85.176Z" fill="#403215"/>
<path d="M27.9574 85.6646C27.9284 85.7621 27.8764 85.8914 27.7774 86.0287C27.8694 86.0367 27.9614 86.0566 28.0484 86.0874C28.0564 85.9491 28.0274 85.8078 27.9574 85.6646Z" fill="#54401D"/>
<path d="M27.9852 85.5113C27.9852 85.5113 27.9822 85.572 27.9572 85.6646C28.0272 85.8068 28.0571 85.9491 28.0491 86.0874C28.0951 86.1043 28.1402 86.1232 28.1812 86.1451C28.2052 85.9412 28.1482 85.7263 27.9852 85.5113Z" fill="#3D2E12"/>
<path d="M24.4066 86.564C24.3876 86.755 24.4245 86.9431 24.5404 87.1192C24.7871 87.5002 25.1926 87.6415 25.637 87.6415C26.0106 87.6415 26.4101 87.541 26.7616 87.3977C26.6158 87.1659 26.6568 86.8933 26.7896 86.6545C26.7207 86.6724 26.6468 86.6903 26.5699 86.7053C26.5699 86.7053 25.9447 87.0416 25.3774 87.0416C25.2316 87.0416 25.0907 87.0206 24.9649 86.9659C24.6373 86.8256 24.4555 86.7152 24.4066 86.564Z" fill="#54401D"/>
<path d="M24.5724 85.9471C23.9951 86.9102 24.5494 87.6714 25.6021 87.6714C25.676 87.6714 25.7509 87.6674 25.8288 87.6594C26.1414 87.6286 26.472 87.548 26.7846 87.4306C26.7766 87.4186 26.7676 87.4087 26.7616 87.3987C26.4101 87.543 26.0106 87.6425 25.637 87.6425C25.1936 87.6425 24.7871 87.5002 24.5404 87.1201C24.4255 86.944 24.3886 86.756 24.4066 86.565C24.3626 86.4277 24.4265 86.2575 24.5923 86.0028L24.5724 85.9471Z" fill="#3D2E12"/>
<path d="M26.5499 85.0248C25.7449 85.0248 25.1107 85.8377 25.1107 85.8377C24.9859 86.0048 24.934 86.1252 24.934 86.2088C24.934 86.3262 25.0378 86.37 25.1846 86.37C25.4773 86.37 25.9437 86.1968 26.1215 86.0824C26.3752 85.9182 27.285 85.6367 27.284 85.3571C27.282 85.2685 27.1881 85.179 26.9504 85.0945C26.8136 85.0457 26.6788 85.0248 26.5499 85.0248Z" fill="#654E21"/>
<path d="M28.3256 86.3182C28.3256 86.3182 27.6924 85.7073 27.0782 86.4088C26.463 87.1092 26.8295 87.7231 27.5117 87.6395C28.1908 87.5589 29.0427 86.9162 28.3256 86.3182Z" fill="#584521"/>
<path d="M28.4076 86.3023C28.1829 86.0944 27.8163 85.971 27.5137 86.0556C26.9833 86.2058 26.3751 86.9719 26.8265 87.4853C27.4428 88.1798 29.3314 87.1609 28.4076 86.3023L28.2408 86.3312C29.0927 87.1241 27.3659 88.0554 26.9174 87.347C26.6787 86.9699 27.0922 86.4625 27.3629 86.2426C27.6355 86.0227 28.0081 86.1143 28.2408 86.3312L28.4076 86.3023Z" fill="#403215"/>
<path d="M53.2017 87.4097C53.2017 87.4097 51.9552 86.2516 50.5999 87.5549C49.2426 88.8553 49.9357 90.0144 51.3629 89.8751C52.7902 89.7349 54.6329 88.5499 53.2017 87.4097Z" fill="#584521"/>
<path d="M53.2756 87.4067C52.8012 86.9779 52.125 86.8127 51.5068 86.9361C50.5669 87.1251 49.2366 88.5499 50.0176 89.4981C50.6289 90.2423 51.9312 89.898 52.6563 89.5767C53.1118 89.3737 53.5552 89.0563 53.758 88.5867C53.9587 88.123 53.6062 87.6913 53.2756 87.4067C53.2376 87.3749 53.0548 87.348 53.1308 87.4127C54.9515 88.9757 50.7797 90.8144 50.0256 89.2752C49.6291 88.4663 50.6429 87.5211 51.2531 87.1759C51.8454 86.8406 52.6354 86.9649 53.1318 87.4127C53.1667 87.4445 53.3475 87.4734 53.2756 87.4067Z" fill="#403215"/>
<path d="M53.4943 87.8614C53.4244 88.128 53.1497 88.721 52.103 88.919C52.103 88.919 51.4768 89.2573 50.9065 89.2573C50.8636 89.2573 50.8206 89.2553 50.7767 89.2513C50.5969 89.314 50.3872 89.3717 50.1315 89.4413C50.3612 89.7309 50.7447 89.8553 51.1762 89.8553C52.3957 89.8563 53.9867 88.8723 53.4943 87.8614Z" fill="#54401D"/>
<path d="M53.5183 87.7271C53.5183 87.7271 53.5163 87.7788 53.4943 87.8614C53.9867 88.8723 52.3957 89.8562 51.1772 89.8562C50.7458 89.8562 50.3623 89.7319 50.1325 89.4423C50.1096 89.4483 50.0856 89.4543 50.0626 89.4622C50.2754 89.7269 50.6509 89.8861 51.1313 89.8861C51.2072 89.8861 51.2821 89.8821 51.362 89.8751C52.6564 89.7468 54.2944 88.7628 53.5183 87.7271Z" fill="#3D2E12"/>
<path d="M52.0841 87.2396C51.9502 87.2396 51.8194 87.2624 51.6985 87.3002C52.0361 87.4604 52.2119 87.6873 52.0112 88.0534C51.9932 88.0862 51.9752 88.1171 51.9582 88.1499C52.3188 87.9897 52.8132 87.7828 52.8152 87.5758C52.8152 87.4853 52.7213 87.3958 52.4816 87.3082C52.3477 87.2604 52.2139 87.2396 52.0841 87.2396Z" fill="#654E21"/>
<path d="M53.8578 88.534C53.8578 88.534 53.2256 87.9231 52.6104 88.6235C51.9962 89.325 52.3617 89.9388 53.0439 89.8562C53.723 89.7737 54.5749 89.1309 53.8578 88.534Z" fill="#584521"/>
<path d="M53.9417 88.528C53.722 88.324 53.3475 88.1798 53.0508 88.2644C52.5924 88.3957 51.8843 89.1528 52.3167 89.6414C52.9739 90.3886 54.8716 89.3916 53.9417 88.528L53.7739 88.5409C54.6339 89.3409 52.884 90.2572 52.4496 89.5737C52.2578 89.2692 52.5145 88.8762 52.6993 88.6474C52.9739 88.3071 53.4523 88.2425 53.7739 88.5409L53.9417 88.528Z" fill="#403215"/>
<path d="M20.826 88.6763C20.826 88.6763 20.832 90.684 21.0278 91.1387C21.2216 91.5924 21.7799 92.3585 21.7799 92.3585C26.7926 96.1731 34.6508 96.9333 40.1859 96.9333C43.7345 96.9333 46.3263 96.6209 46.6039 96.6039C47.315 96.5622 47.0354 93.5584 47.0354 93.5584C44.1769 93.843 41.6171 93.9663 39.325 93.9663C24.3157 93.9654 20.826 88.6763 20.826 88.6763Z" fill="#FAB64F"/>
<path d="M34.476 87.4335C34.476 87.4335 32.9459 86.56 33.0548 86.1202C33.1597 85.6924 31.9222 84.8059 33.9607 84.8059C34.0216 84.8059 34.0855 84.8059 34.1514 84.8079C36.4546 84.8646 37.2286 85.7939 37.2286 85.7939C35.1262 85.9043 34.476 87.4335 34.476 87.4335ZM34.478 87.6256C34.7337 87.6256 34.9794 87.4445 34.9794 87.4445C35.6286 86.5381 38.2044 86.943 37.9986 86.0048C37.7959 85.0666 34.0446 83.8846 34.0446 83.8846C34.1944 83.8737 34.3432 83.8687 34.487 83.8687C38.1425 83.8687 40.0121 86.8893 40.0121 86.8893C40.7332 85.4795 42.8516 85.1084 43.8134 85.1084C44.3927 85.1084 44.5535 85.2427 43.7425 85.3671C41.5812 85.6974 40.8062 87.4853 40.8062 87.4853C42.4751 87.9668 43.7285 89.9876 43.1772 89.9876C43.0084 89.9876 42.6688 89.7975 42.1195 89.313C40.932 88.2693 39.1073 87.9728 37.72 87.9728C36.3667 87.9728 35.4309 88.2534 35.9073 88.4006C36.8721 88.6961 36.5295 90.4741 36.5295 90.4741C36.2488 88.7061 33.4803 87.5798 33.4803 87.5798C32.873 87.4455 32.3367 87.3888 31.8633 87.3888C30.7726 87.3888 30.0166 87.6952 29.5032 88.0653C29.1557 88.4046 28.8141 88.8354 28.4845 89.3807C28.4845 89.3807 28.7032 88.6424 29.5032 88.0653C30.3821 87.2097 31.288 86.946 32.076 86.946C33.2376 86.946 34.1395 87.5191 34.2983 87.5888C34.3552 87.6156 34.4171 87.6256 34.478 87.6256ZM36.8541 82.9712C36.4116 82.9732 35.9382 83.021 35.4558 83.0986C35.3579 83.2021 35.265 83.3115 35.1782 83.4249L35.0194 83.4021C34.9464 83.3394 34.8725 83.2807 34.7976 83.223C33.3634 83.5294 31.8883 84.0497 30.7627 84.4358C30.3262 84.785 30.1504 85.1024 30.6898 85.1094C31.7924 85.1263 32.9519 86.5391 31.3799 86.5391C31.297 86.5391 31.2061 86.5341 31.1062 86.5262C30.9834 86.5152 30.8655 86.5103 30.7527 86.5103C29.0927 86.5103 28.7262 87.6057 27.7984 88.3947C27.6256 88.5419 27.4168 88.6613 27.1821 88.7479C27.3659 88.9051 27.6036 89.0633 27.8952 89.2185C28.4795 89.5319 28.878 89.7428 29.2496 89.9319C28.5235 89.0503 29.7609 88.0664 32.3117 87.8226C32.4216 87.8116 32.5275 87.8067 32.6313 87.8067C35.1402 87.8067 35.9332 90.7845 36.4396 90.8164C36.4456 90.8164 36.4476 90.8164 36.4526 90.8164C36.9699 90.8164 37.1607 88.6195 37.1607 88.6195C37.5991 88.4932 38.0166 88.4414 38.4081 88.4414C40.0441 88.4414 41.1807 89.3379 41.1807 89.3379C41.8598 90.0562 42.4171 91.1726 40.7123 91.6899C41.1088 91.6123 41.5242 91.5108 41.9547 91.4103C42.5999 91.2601 43.2831 91.1079 44.0112 91.0362C43.352 90.877 44.156 88.9439 47.0084 88.3957C47.4908 88.3011 47.9522 88.2613 48.3827 88.2613C48.924 88.2613 49.4204 88.325 49.8599 88.4195C49.8928 88.322 49.9378 88.2255 49.9917 88.131C49.2806 87.9927 48.6464 87.933 48.0831 87.933C44.8012 87.933 43.8803 89.9438 43.8803 89.9438C43.9043 88.916 43.1692 88.6703 42.1545 87.8445C41.1387 87.0137 41.6671 86.6307 41.6671 86.6307C42.2863 85.7641 43.6546 85.5461 44.916 85.5461C45.5562 85.5461 46.1695 85.6019 46.6409 85.6586C47.1133 85.7143 47.4439 85.77 47.5208 85.77H47.5358C47.8054 85.7063 48.0621 85.6586 48.3038 85.6237C47.0683 85.2278 45.1407 84.8815 44.8851 84.2239C44.8391 84.1075 44.7712 84.012 44.6853 83.9344C44.6514 84.1264 44.5694 84.2378 44.5694 84.2378C44.5694 84.2378 44.5615 84.2378 44.5445 84.2378C44.1949 84.2378 40.2778 84.2786 39.8843 86.0506C39.8843 86.0506 38.6029 83.8319 36.2179 83.6767C36.111 83.6697 36.3767 83.3165 36.8541 82.9712Z" fill="#3C2C13"/>
<path d="M35.1665 83.1493C35.0735 83.1683 34.9795 83.1863 34.8865 83.2063C34.8905 83.2083 34.8915 83.2103 34.8945 83.2133C34.9245 83.2293 34.9525 83.2363 34.9845 83.2363C35.0365 83.2363 35.0955 83.2103 35.1665 83.1493Z" fill="#875723"/>
<path d="M31.5217 91.0034C31.5557 91.0183 31.5896 91.0333 31.6256 91.0502C32.2798 91.3477 33.1098 91.4899 33.9887 91.5586C33.0948 91.4004 32.2458 91.2094 31.5217 91.0034ZM34.8865 83.206H34.8825C34.8875 83.209 34.8915 83.21 34.8945 83.213C34.8915 83.21 34.8905 83.207 34.8865 83.206Z" fill="#3C2C13"/>
<path d="M35.4556 83.0986C35.3596 83.1155 35.2626 83.1314 35.1666 83.1493C35.0956 83.211 35.0366 83.2359 34.9836 83.2359C34.9516 83.2359 34.9236 83.2279 34.8936 83.213C34.8906 83.21 34.8866 83.209 34.8816 83.206C34.8536 83.211 34.8256 83.218 34.7956 83.224C34.8696 83.2817 34.9436 83.3394 35.0176 83.403L35.1766 83.4259C35.2646 83.3115 35.3586 83.2031 35.4556 83.0986Z" fill="#2B200C"/>
<path d="M30.7617 84.4358C30.4431 84.5442 30.1525 84.6437 29.8998 84.7233C28.0691 85.2944 29.9197 85.6735 28.5415 86.4525C28.9749 87.0714 28.111 87.7151 27.4119 87.7151C27.2141 87.7151 27.0303 87.6634 26.8915 87.548C26.6149 87.9529 26.7287 88.3569 27.1812 88.7479C27.4159 88.6603 27.6246 88.5419 27.7974 88.3947C28.7252 87.6057 29.0918 86.5103 30.7517 86.5103C30.8636 86.5103 30.9814 86.5152 31.1053 86.5262C31.2061 86.5341 31.296 86.5391 31.3789 86.5391C32.95 86.5391 31.7914 85.1263 30.6888 85.1094C30.1495 85.1024 30.3262 84.785 30.7617 84.4358Z" fill="#493719"/>
<path d="M34.8945 85.6486C34.6528 85.6486 34.4351 85.5939 34.3742 85.4526C34.2693 85.2118 34.529 85.1521 34.8056 85.1521C35.0643 85.1521 35.337 85.2039 35.337 85.2039C36.1539 85.3581 35.4568 85.6486 34.8945 85.6486ZM33.9607 84.8049C31.9222 84.8049 33.1587 85.6924 33.0548 86.1192C32.9459 86.559 34.476 87.4326 34.476 87.4326C34.476 87.4326 35.1262 85.9033 37.2296 85.7929C37.2296 85.7929 36.4556 84.8626 34.1524 84.8069C34.0855 84.8049 34.0216 84.8049 33.9607 84.8049Z" fill="#493719"/>
<path d="M36.876 82.9712C36.869 82.9712 36.8611 82.9712 36.8541 82.9712C36.3767 83.3165 36.111 83.6697 36.2149 83.6767C38.5999 83.8309 39.8813 86.0506 39.8813 86.0506C40.2748 84.2786 44.1919 84.2378 44.5415 84.2378C44.5594 84.2378 44.5664 84.2378 44.5664 84.2378C44.5664 84.2378 44.6483 84.1274 44.6823 83.9344C44.5515 83.815 44.3777 83.7363 44.1879 83.6906C44.16 83.8219 44.0421 83.8756 43.8733 83.8756C43.6616 83.8756 43.3719 83.7911 43.0793 83.6607C42.7088 83.7065 42.4311 83.7811 42.4311 83.7811C41.3734 83.4478 40.5375 83.9463 38.2533 83.1702C37.8448 83.0309 37.3784 82.9712 36.876 82.9712Z" fill="#493719"/>
<path d="M44.915 85.5461C43.6536 85.5461 42.2853 85.7641 41.6661 86.6306C41.6661 86.6306 41.1387 87.0137 42.1535 87.8444C43.1682 88.6703 43.9033 88.916 43.8793 89.9438C43.8793 89.9438 44.8002 87.933 48.0821 87.933C48.6454 87.933 49.2796 87.9937 49.9907 88.131C50.0736 87.9848 50.1765 87.8425 50.2923 87.7112C49.5722 87.6634 48.8661 87.3898 48.8661 86.8037C48.8661 86.4486 49.0559 86.2834 49.3385 86.2326C49.2856 85.9959 48.8651 85.8038 48.3018 85.6237C48.0611 85.6586 47.8034 85.7073 47.5338 85.77H47.5188C47.4419 85.77 47.1113 85.7133 46.6389 85.6586C46.1685 85.6019 45.5552 85.5461 44.915 85.5461Z" fill="#493719"/>
<path d="M32.6313 87.8066C32.5265 87.8066 32.4216 87.8116 32.3117 87.8226C29.7599 88.0663 28.5234 89.0503 29.2495 89.9319C29.8468 90.2353 30.3771 90.4811 31.5217 91.0034C32.2468 91.2104 33.0947 91.4004 33.9886 91.5586C35.7295 91.6969 37.663 91.5496 38.8106 91.7715C39.0273 91.8143 39.2481 91.8312 39.4718 91.8312C39.8693 91.8312 40.2818 91.7735 40.7122 91.6909C42.4171 91.1736 41.8588 90.0562 41.1807 89.3389C41.1807 89.3389 40.0431 88.4424 38.4081 88.4424C38.0166 88.4424 37.6001 88.4942 37.1607 88.6205C37.1607 88.6205 36.9699 90.8173 36.4525 90.8173C36.4476 90.8173 36.4456 90.8173 36.4396 90.8173C35.9332 90.7845 35.1402 87.8066 32.6313 87.8066Z" fill="#493719"/>
<path d="M34.8046 85.1521C34.5289 85.1521 34.2693 85.2118 34.3731 85.4526C34.434 85.5949 34.6518 85.6486 34.8935 85.6486C35.4558 85.6486 36.1529 85.3581 35.3349 85.2039C35.3349 85.2039 35.0633 85.1521 34.8046 85.1521Z" fill="#543F1C"/>
<path d="M43.6017 83.6269C43.4199 83.6269 43.2401 83.6408 43.0803 83.6597C43.373 83.7901 43.6626 83.8746 43.8743 83.8746C44.0431 83.8746 44.161 83.8209 44.1889 83.6896C44.0022 83.6438 43.8004 83.6269 43.6017 83.6269Z" fill="#543F1C"/>
<path d="M49.3385 86.2337C49.0569 86.2844 48.8661 86.4496 48.8661 86.8048C48.8661 87.3908 49.5722 87.6644 50.2923 87.7121C50.52 87.4554 50.7967 87.2376 51.0723 87.0963C50.2504 86.8933 49.2476 86.7868 49.3385 86.3321C49.3465 86.2983 49.3445 86.2655 49.3385 86.2337Z" fill="#543F1C"/>
<path d="M29.5012 88.0643C28.7012 88.6414 28.4825 89.3797 28.4825 89.3797C28.8121 88.8354 29.1546 88.4036 29.5012 88.0643ZM34.488 83.8697C34.3432 83.8697 34.1954 83.8746 34.0456 83.8856C34.0456 83.8856 37.7969 85.0666 37.9996 86.0058C38.2044 86.944 35.6296 86.5391 34.9804 87.4455C34.9804 87.4455 34.7347 87.6266 34.479 87.6266C34.4181 87.6266 34.3562 87.6166 34.2972 87.5898C34.1394 87.5201 33.2376 86.947 32.075 86.947C31.287 86.947 30.3811 87.2107 29.5022 88.0663C30.0166 87.6962 30.7716 87.3898 31.8623 87.3898C32.3357 87.3898 32.872 87.4475 33.4793 87.5808C33.4793 87.5808 36.2468 88.7071 36.5285 90.4751C36.5285 90.4751 36.871 88.6971 35.9062 88.4016C35.4298 88.2544 36.3667 87.9738 37.719 87.9738C39.1072 87.9738 40.932 88.2703 42.1185 89.314C42.6688 89.7975 43.0084 89.9886 43.1762 89.9886C43.7275 89.9886 42.474 87.9688 40.8051 87.4863C40.8051 87.4863 41.5802 85.6984 43.7415 85.3681C44.5534 85.2437 44.3916 85.1094 43.8124 85.1094C42.8506 85.1094 40.7322 85.4805 40.0111 86.8903C40.0131 86.8903 38.1434 83.8697 34.488 83.8697Z" fill="#2F230E"/>
<path d="M48.923 88.923C45.4753 88.923 44.4226 90.7865 44.1929 91.0203C44.4166 91.0014 44.6433 90.9915 44.875 90.9915C44.9329 90.9915 44.9919 90.9925 45.0508 90.9935C45.0708 90.9954 45.0908 90.9955 45.1107 90.9955C44.917 90.8452 44.888 90.6353 45.0977 90.3597C45.8298 89.3976 47.1901 89.2583 47.9212 89.2583C48.2228 89.2583 48.4186 89.2812 48.4186 89.2812C48.5225 89.2891 49.1517 89.3816 49.7629 89.5428C49.8448 89.5199 49.9247 89.4991 50.0006 89.4792C49.8728 89.316 49.8059 89.1409 49.7879 88.9598C49.4823 88.9329 49.1946 88.923 48.923 88.923Z" fill="#3C2C13"/>
<path d="M47.9202 89.2583C47.1892 89.2583 45.8288 89.3986 45.0968 90.3597C44.887 90.6343 44.915 90.8442 45.1097 90.9955C45.1647 90.9965 45.2166 90.9965 45.2705 90.9965C47.5607 90.9965 47.6626 90.1468 49.3385 89.6612C49.4903 89.6175 49.6311 89.5776 49.7619 89.5428C49.1517 89.3816 48.5215 89.2891 48.4176 89.2811C48.4176 89.2811 48.2219 89.2583 47.9202 89.2583Z" fill="#493719"/>
<path d="M48.3827 88.2623C47.9522 88.2623 47.4908 88.3022 47.0084 88.3967C44.1559 88.9459 43.352 90.878 44.0111 91.0372C44.0721 91.0303 44.132 91.0243 44.1929 91.0203C44.4226 90.7865 45.4753 88.923 48.923 88.923C49.1947 88.923 49.4833 88.9339 49.7869 88.9588C49.7679 88.7817 49.7959 88.5996 49.8588 88.4205C49.4204 88.325 48.924 88.2623 48.3827 88.2623Z" fill="#2F230E"/>
<path d="M28.4006 86.5272C28.3467 86.554 28.2888 86.5829 28.2258 86.6097C27.6256 86.8843 27.2161 87.157 26.9814 87.4296C27.0952 87.547 27.2561 87.5987 27.4328 87.5987C27.9991 87.5997 28.7062 87.0654 28.4006 86.5272Z" fill="#3C2C13"/>
<path d="M28.5414 86.4525C28.4985 86.4764 28.4515 86.5023 28.4006 86.5272C28.7062 87.0644 27.9991 87.5987 27.4328 87.5987C27.256 87.5987 27.0952 87.547 26.9814 87.4296C26.9474 87.4684 26.9174 87.5082 26.8915 87.547C27.0303 87.6624 27.2131 87.7141 27.4118 87.7141C28.111 87.7151 28.9739 87.0714 28.5414 86.4525Z" fill="#2B200C"/>
<path d="M51.2941 87.153C51.2791 87.16 51.2681 87.1679 51.2531 87.1749C50.7657 87.4525 50.0127 88.1161 49.9418 88.7867C49.9947 88.9329 50.1755 89.0424 50.4971 89.1817C50.584 89.2195 50.6799 89.2414 50.7767 89.2513C51.3071 89.0643 51.5717 88.8325 51.9592 88.1489C51.8304 88.2056 51.7206 88.2554 51.6546 88.2982C51.4759 88.4126 51.0104 88.5867 50.7178 88.5867C50.571 88.5867 50.4661 88.5419 50.4661 88.4235C50.4661 88.3409 50.519 88.2206 50.6429 88.0524C50.6429 88.0524 51.0853 87.4893 51.6996 87.2993C51.5797 87.2445 51.4419 87.1958 51.2941 87.153Z" fill="#3C2C13"/>
<path d="M51.0723 87.0963C50.7967 87.2386 50.519 87.4554 50.2923 87.7121C50.1765 87.8435 50.0736 87.9847 49.9907 88.132C49.9368 88.2265 49.8918 88.323 49.8588 88.4205C49.7949 88.5996 49.767 88.7817 49.7869 88.9588C49.8049 89.1409 49.8718 89.315 49.9997 89.4782C50.0207 89.4712 50.0416 89.4662 50.0626 89.4612C49.8119 89.1468 49.7929 88.6852 50.1045 88.1628L50.1265 88.2166C49.9567 88.4773 49.8928 88.6494 49.9418 88.7867C50.0117 88.1161 50.7647 87.4525 51.2531 87.1749C51.2681 87.1669 51.2791 87.159 51.2941 87.153C51.2221 87.1341 51.1492 87.1142 51.0723 87.0963Z" fill="#2B200C"/>
<path d="M49.9418 88.7877C49.9248 88.9519 49.9488 89.116 50.0257 89.2752C50.0546 89.3359 50.0916 89.3916 50.1315 89.4424C50.3872 89.3727 50.5969 89.314 50.7767 89.2523C50.6788 89.2414 50.584 89.2205 50.4971 89.1827C50.1765 89.0434 49.9947 88.933 49.9418 88.7877Z" fill="#392911"/>
<path d="M50.1038 88.1638C49.7918 88.6852 49.8108 89.1468 50.0618 89.4622C50.0848 89.4543 50.1088 89.4483 50.1318 89.4423C50.0918 89.3916 50.0548 89.3359 50.0258 89.2752C49.9488 89.116 49.9248 88.9518 49.9418 88.7877C49.8918 88.6494 49.9568 88.4782 50.1268 88.2176L50.1038 88.1638Z" fill="#291D0A"/>
<path d="M51.6986 87.3002C51.0853 87.4893 50.6419 88.0534 50.6419 88.0534C50.518 88.2216 50.4651 88.3419 50.4651 88.4245C50.4651 88.5429 50.57 88.5877 50.7168 88.5877C51.0094 88.5877 51.4758 88.4136 51.6536 88.2991C51.7185 88.2564 51.8294 88.2056 51.9582 88.1499C51.9752 88.1181 51.9932 88.0872 52.0112 88.0534C52.2119 87.6873 52.0361 87.4604 51.6986 87.3002Z" fill="#453213"/>
<path d="M36.5175 26.7102C36.5175 26.7102 33.3055 7.94561 15.7294 3.47633C15.7294 3.47633 27.9892 11.8299 28.3567 30.685C28.3567 30.685 32.911 59.1036 36.5175 26.7102Z" fill="#096C37"/>
<path d="M15.7344 3.345C15.7344 3.345 15.8343 3.41365 16.0161 3.55095C17.2975 3.89222 18.502 4.3081 19.6346 4.78766C19.5517 4.71105 19.4718 4.63743 19.3939 4.5658C18.2463 4.0922 17.0348 3.67333 15.7344 3.345Z" fill="#84B59B"/>
<path d="M16.0161 3.55095C17.7389 4.85432 26.7976 12.3821 28.1889 27.4644C28.9949 28.6275 29.7509 29.909 30.4551 31.284C30.3512 30.7039 30.2942 30.3537 30.2942 30.3537C30.0216 16.2663 23.1132 8.0471 19.6355 4.78866C18.5029 4.3081 17.2985 3.89222 16.0161 3.55095Z" fill="#044D21"/>
<path d="M33.9976 86.2924C33.9976 86.2924 26.5749 88.2614 25.3094 76.2116C24.044 64.1629 23.3059 51.3898 12.5394 58.235C12.5394 58.235 17.8927 48.2537 27.1471 56.5088C36.4006 64.7618 29.3205 76.3459 32.9929 81.4579C36.6643 86.569 34.9944 86.5122 33.9976 86.2924Z" fill="#038B3E"/>
<path d="M15.6565 54.7447C15.5137 54.8094 15.3709 54.8771 15.2241 54.9497C13.4732 56.3734 12.5434 58.1007 12.5434 58.1007L12.6603 58.026C12.9928 57.4748 14.0166 55.9327 15.6565 54.7447Z" fill="#81C59E"/>
<path d="M18.9564 53.9707C18.0036 53.9388 16.9119 54.1806 15.6565 54.7447C14.0155 55.9327 12.9928 57.4748 12.6602 58.026C14.7766 56.7028 16.5044 56.1406 17.9187 56.1874C23.6315 56.3794 24.3057 66.4572 25.3134 76.0803C26.2373 84.8785 30.446 86.2018 32.6503 86.2764C33.4623 86.3033 34.0036 86.16 34.0036 86.16C34.1624 86.1958 34.3412 86.2267 34.512 86.2327C34.8775 86.2446 35.2091 86.1401 35.2531 85.7113C34.7337 85.5611 33.8218 85.1412 32.908 83.9741C30.6108 83.602 27.1761 81.7007 26.3521 73.8516C25.3434 64.2325 24.6643 54.1637 18.9564 53.9707Z" fill="#016B26"/>
<path d="M35.6895 85.7969C35.6895 85.7969 31.0104 85.6407 30.2044 74.8983C29.3984 64.1559 26.8745 39.8723 8.36658 48.1194C8.36658 48.1194 23.4508 32.3695 32.7781 53.1876C32.7781 53.1876 38.1375 87.542 35.6895 85.7969Z" fill="#096C37"/>
<path d="M12.3326 44.9853C12.2058 45.0221 12.076 45.0609 11.9481 45.1007C9.75784 46.5394 8.36957 47.9861 8.36957 47.9861C8.44747 47.9493 8.52538 47.9164 8.60329 47.8816C9.12464 47.3792 10.4729 46.1514 12.3326 44.9853Z" fill="#84B59B"/>
<path d="M16.813 44.3605C15.4527 44.3137 13.9626 44.5088 12.3326 44.9853C10.4729 46.1524 9.1246 47.3792 8.60425 47.8826C11.2799 46.7225 13.619 46.2459 15.6634 46.3156C27.5966 46.7165 29.5222 65.6344 30.2073 74.766C30.8915 83.8498 34.3412 85.3631 35.3899 85.6138C34.9854 85.177 34.6937 84.007 34.493 82.3822C33.1976 81.0331 31.7704 78.3089 31.3569 72.8099C30.6727 63.6773 28.7461 44.7595 16.813 44.3605Z" fill="#044D21"/>
<path d="M53.6382 0.132323C53.6382 0.132323 36.084 4.90009 33.2885 43.0442C33.2885 43.0442 33.1847 60.9591 37.715 55.5715C42.2444 50.1799 43.1323 43.7426 43.5457 41.3558C43.9622 38.9689 39.8044 18.5099 53.6382 0.132323Z" fill="#038B3E"/>
<path d="M43.302 30.8213C43.2291 33.1744 43.289 35.2399 43.3719 36.9134L43.3829 36.8935C43.297 35.2299 43.2341 33.1734 43.302 30.8213ZM53.6391 0C53.6391 0 52.2189 0.386035 50.1235 1.81577C50.0686 1.89636 50.0137 1.97795 49.9587 2.05954C51.7705 0.796956 53.1078 0.30246 53.5123 0.171127L53.6391 0Z" fill="#81C59E"/>
<path d="M53.5133 0.17213C53.1098 0.303462 51.7715 0.797943 49.9597 2.06053C37.9567 19.8551 41.7819 38.8565 41.3844 41.1518C41.3684 41.2384 41.3535 41.3319 41.3355 41.4294C41.9727 39.9469 42.6518 38.4307 43.3719 36.9144C43.289 35.2409 43.2291 33.1754 43.302 30.8223C43.5387 22.6976 45.3724 11.0777 53.5133 0.17213Z" fill="#016B26"/>
<path d="M35.287 58.0738C35.287 58.0738 52.7163 -2.30031 73 20.9167C73 20.9167 60.6873 9.23605 51.9632 34.8051C43.2381 60.3721 44.1959 56.7107 42.8266 62.5759C41.4593 68.4401 38.1814 86.2496 35.6895 85.7969C33.1956 85.3432 34.1794 61.177 35.287 58.0738Z" fill="#096C37"/>
<path d="M35.2291 83.2657C35.0673 83.5025 34.9095 83.6896 34.7507 83.815C34.9794 84.8865 35.278 85.5581 35.6615 85.6576C35.6016 85.3352 35.4428 84.4855 35.2291 83.2657ZM65.0889 16.4792C60.8032 16.334 55.1193 19.3606 50.4561 33.0231C42.9515 55.0153 42.6119 55.3835 41.7919 58.7872C43.5956 53.701 45.9038 48.2219 48.8531 42.6422C49.1837 42.0174 49.5143 41.4264 49.8449 40.8663C50.4791 39.0197 51.1832 36.9611 51.9632 34.6708C56.6264 21.0092 62.3133 17.9826 66.6 18.1259C69.3845 18.2194 71.5768 19.6511 72.5126 20.3744C71.6237 19.4123 70.7438 18.6134 69.8679 17.9567C68.7273 17.2782 67.0544 16.5439 65.0889 16.4792Z" fill="#044D21"/>
<path d="M70.7588 47.6259C70.7588 47.6259 64.7892 31.3546 52.4466 45.1644C40.108 58.9742 35.2171 84.8577 36.3677 85.4487C37.5182 86.0436 47.4928 87.8514 49.8738 81.6529C52.2599 75.4535 53.8569 33.2062 70.7588 47.6259Z" fill="#096C37"/>
<path d="M69.1558 44.3774C69.2506 44.5734 69.3295 44.7495 69.3965 44.8998C70.0866 46.032 70.5131 47.012 70.6799 47.4219L70.7638 47.4936C70.7638 47.4936 70.2324 46.0449 69.1558 44.3774Z" fill="#84B59B"/>
<path d="M54.59 57.7763C53.8609 58.5166 53.1318 59.4707 52.4247 60.6806C52.3338 60.8378 52.2429 60.994 52.154 61.1541C50.4921 69.0828 49.6801 77.0563 48.7442 79.489C47.7565 82.0589 45.4643 83.2508 43.0374 83.7254C42.0286 85.0726 40.8731 85.8586 39.4738 85.8118C38.7867 85.7889 38.0436 85.567 37.2266 85.1133C37.0798 85.2526 36.938 85.373 36.8071 85.4785C37.5442 85.6974 38.9614 85.9581 40.6144 86.0148C44.0141 86.1292 48.4027 85.3641 49.8798 81.5216C51.0304 78.5268 51.9972 67.1387 54.59 57.7763ZM63.412 42.4821C59.5248 42.3497 56.8162 46.1604 54.8476 51.4037C55.5927 51.0495 56.3478 50.8356 57.1088 50.7868C58.9565 46.9633 61.3555 44.4083 64.5495 44.5167C66.3323 44.5754 68.3598 45.4639 70.6809 47.4229C70.5141 47.013 70.0876 46.033 69.3975 44.9008C69.5523 45.25 69.6282 45.4589 69.6282 45.4589C67.2751 43.4531 65.2147 42.5418 63.412 42.4821Z" fill="#044D21"/>
<path d="M72.3648 39.739C72.3648 39.739 60.4676 20.6809 48.8541 42.6422C37.2425 64.6046 35.5467 85.0517 35.6895 85.7969C35.8313 86.5401 38.2333 84.7731 40.7192 80.4252C43.2091 76.0743 51.336 23.7005 72.3648 39.739Z" fill="#038B3E"/>
<path d="M68.7024 35.4757C70.5051 37.0964 71.7476 38.8177 72.186 39.4694L72.3698 39.6057C72.3698 39.6057 71.1254 37.6158 69.0519 35.6627C68.9341 35.598 68.8182 35.5364 68.7024 35.4757Z" fill="#81C59E"/>
<path d="M38.4941 79.8223C37.8788 80.7147 37.2966 81.44 36.7772 81.9972C36.4756 83.3822 36.121 84.6348 35.7145 85.7302C35.7435 85.7929 35.8024 85.8248 35.8843 85.8287C36.125 85.8367 36.5675 85.582 37.1398 85.0616C37.0579 85.0139 36.974 84.9651 36.8881 84.9134C36.8881 84.9134 36.8991 84.8726 36.921 84.799L36.8921 84.7821C36.8921 84.7821 37.0759 84.1383 37.4184 83.0299L37.4524 83.0409C37.7141 82.1952 38.0656 81.1008 38.4941 79.8223ZM63.9943 34.1494C51.8424 33.7425 45.2237 58.1206 41.8599 70.7573C43.1283 67.673 44.5935 64.4564 46.2045 61.5272C50.0607 49.4984 56.0202 36.2657 64.997 36.5681C67.2073 36.6427 69.5983 37.5352 72.1871 39.4694C71.7486 38.8187 70.5052 37.0964 68.7034 35.4757C67.0475 34.62 65.4794 34.1992 63.9943 34.1494Z" fill="#016B26"/>
<path d="M35.6895 85.7969C35.6895 85.7969 32.1369 67.2034 32.7142 60.0189C33.2915 52.8315 26.2023 10.2937 0 33.4291C0 33.4291 5.32536 14.3968 21.1506 21.2092C36.9749 28.0206 41.1997 71.2051 35.6895 85.7969Z" fill="#0EA34A"/>
<path d="M1.53011 29.4782C0.470433 31.6382 0.00500488 33.2977 0.00500488 33.2977L0.0539399 33.254C0.194764 32.7963 0.624227 31.4929 1.40326 29.8642C1.43522 29.7607 1.47818 29.6304 1.53011 29.4782Z" fill="#86D1A4"/>
<path d="M32.7413 59.5045C32.7343 59.6418 32.7283 59.7692 32.7203 59.8846C32.6963 60.1831 32.6783 60.4995 32.6683 60.8328C32.6783 60.5492 32.6943 60.2766 32.7153 60.0189C32.7263 59.8637 32.7353 59.6936 32.7413 59.5045Z" fill="#045823"/>
<path d="M15.7954 23.3314C11.7914 23.1971 7.00434 25.1243 1.31543 30.1468C1.31543 30.1468 1.3444 30.0453 1.40232 29.8632C0.624295 31.4929 0.193833 32.7953 0.053009 33.253C5.71895 28.2613 10.492 26.3471 14.484 26.4794C28.6234 26.956 32.9869 53.1309 32.7403 59.5035C32.7343 59.6916 32.7253 59.8617 32.7143 60.0179C32.6943 60.2756 32.6773 60.5482 32.6673 60.8318C32.4266 68.5754 35.6916 85.6626 35.6916 85.6626C36.135 84.4845 36.5166 83.1175 36.8332 81.6032C36.138 77.7965 33.5263 62.9719 34.0286 56.7366C34.4811 51.1112 30.2354 23.8159 15.7954 23.3314Z" fill="#07852F"/>
<path d="M65.8699 58.7315C65.8699 58.7315 58.4592 50.354 52.4247 60.6805C46.3892 71.0071 45.4064 90.1856 36.8881 84.9124C36.8881 84.9124 52.2609 30.9347 65.8699 58.7315Z" fill="#0EA34A"/>
<path d="M63.7086 55.0034C64.3858 55.9665 65.0569 57.1037 65.7251 58.4419C65.823 58.5424 65.8709 58.5971 65.8709 58.5971C65.2257 57.2759 64.5715 56.1406 63.9194 55.1735C63.8534 55.1178 63.7815 55.0601 63.7086 55.0034Z" fill="#86D1A4"/>
<path d="M37.419 83.0299C37.076 84.1373 36.892 84.782 36.892 84.782L36.921 84.799C36.992 84.5572 37.173 83.9423 37.453 83.0409L37.419 83.0299Z" fill="#005718"/>
<path d="M58.7658 52.9707C56.5026 52.8951 53.9198 54.0642 51.5458 58.1245C46.1865 67.2999 44.8092 83.4607 38.5959 83.2508C38.2324 83.2379 37.8519 83.1702 37.4524 83.0409C37.1727 83.9413 36.9919 84.5562 36.921 84.799C37.8589 85.374 38.7058 85.6526 39.4788 85.6805C45.6951 85.8884 47.0674 69.7256 52.4297 60.5482C54.8007 56.4899 57.3865 55.3208 59.6497 55.3954C62.6689 55.4989 65.1169 57.8151 65.7261 58.4429C65.0579 57.1047 64.3868 55.9675 63.7096 55.0044C62.583 54.1189 60.8032 53.0384 58.7658 52.9707Z" fill="#07852F"/>
</svg>
