<svg width="57" height="91" viewBox="0 0 57 91" fill="none" xmlns="http://www.w3.org/2000/svg">
<path d="M30.0618 27.1176C26.9778 24.1447 21.5584 23.1178 17.4567 24.0239C15.1951 24.5239 12.8278 25.5348 10.8452 26.7344C6.1246 29.5945 2.14156 33.6642 1.23949 42.0311C0.33942 50.398 -0.625447 56.1493 1.48369 53.4638C3.59383 50.7792 5.59632 48.0907 10.7167 47.5239C14.7466 47.0758 18.6798 45.6547 22.3648 44.0071C26.5562 42.1329 31.6944 39.0263 32.3902 34.0095C32.7959 31.0915 31.8011 28.7942 30.0618 27.1176Z" fill="#8BC541"/>
<path d="M0.655392 54.3479C0.519832 54.3459 0.398224 54.2871 0.302535 54.1793C-0.254653 53.5416 0.017455 50.911 0.634448 45.496C0.759043 44.4023 0.893612 43.2327 1.02419 42.0082C2.00201 32.9247 6.72764 28.9748 10.7336 26.5488C12.8497 25.2684 15.22 24.2954 17.4109 23.8124C18.4655 23.5788 19.5988 23.4711 20.7799 23.492C24.4978 23.5539 28.0254 24.8502 30.2143 26.9629C32.1609 28.8411 32.9872 31.2871 32.6065 34.0424C32.0453 38.0772 28.7261 41.4034 22.4535 44.2087C17.9192 46.2355 14.1973 47.3572 10.7396 47.7414C5.82656 48.2863 3.86893 50.7792 1.79667 53.4198L1.65513 53.6005C1.24447 54.1224 0.936477 54.3539 0.655392 54.3479ZM20.772 23.9261C19.6257 23.9062 18.5253 24.011 17.5046 24.2375C15.3596 24.7115 13.0351 25.6646 10.9589 26.922C6.79442 29.4429 2.40868 33.2151 1.45777 42.0541C1.3262 43.2806 1.19164 44.4502 1.06705 45.5449C0.588603 49.7453 0.173948 53.3719 0.630464 53.8919L0.663361 53.9138C0.695258 53.9138 0.874674 53.8889 1.31424 53.329L1.45679 53.1464C3.49316 50.5527 5.59732 47.8702 10.6937 47.3053C14.1047 46.9271 17.7867 45.8154 22.2781 43.8065C28.4011 41.0681 31.6396 37.8537 32.1769 33.9776C32.5387 31.3679 31.7552 29.0497 29.9132 27.2723C27.8001 25.2375 24.3842 23.986 20.772 23.9261Z" fill="#66913E"/>
<path d="M15.517 24.7954C13.9721 25.3163 12.4052 26.0448 10.9589 26.922C6.79442 29.4429 2.40868 33.2151 1.45778 42.0541C1.3262 43.2806 1.19164 44.4502 1.06705 45.5449C0.588605 49.7453 0.17395 53.3719 0.630465 53.8919L0.663363 53.9138C0.695259 53.9138 0.87966 53.8849 1.31425 53.329L1.45679 53.1464C3.49317 50.5527 5.59732 47.8702 10.6937 47.3053C14.1047 46.9271 17.7867 45.8154 22.2781 43.8065C28.2546 41.134 31.4841 38.0054 32.134 34.254C32.142 33.8319 32.149 33.4048 32.1549 32.9756C31.7742 32.0445 31.6735 31.1304 31.8489 30.2482C31.4642 29.1455 30.8153 28.1445 29.9132 27.2733C29.5853 26.9579 29.2275 26.6605 28.8427 26.3841C28.3025 26.2893 27.6905 26.0668 27.0147 25.7165C27.52 26.0528 27.9357 26.3641 28.2805 26.5907C28.2805 26.5907 5.74285 30.7841 2.91305 48.2983C2.8054 48.9729 2.93099 49.2793 3.15327 49.2793C3.42937 49.2793 3.85399 48.7983 4.15002 47.956C4.15002 47.956 8.77498 31.4877 29.051 28.1984L29.065 28.1974C29.9681 28.1974 34.1893 39.9214 15.4493 44.1538C9.69898 45.4521 6.926 46.6946 3.6048 50.2683C1.98507 52.0097 1.13683 52.9887 0.752079 52.9887C0.347395 52.9887 0.455033 51.9079 0.718178 49.4939C1.2325 44.7865 1.41591 31.6364 12.7082 26.0019C13.7 25.5089 14.6349 25.1097 15.517 24.7954ZM24.5566 24.4391C24.6683 24.48 24.7789 24.5239 24.8856 24.5678L24.7171 24.481L24.5566 24.4391Z" fill="#59A11B"/>
<path d="M28.8407 26.3861C29.2255 26.6615 29.5833 26.9589 29.9112 27.2753C30.8133 28.1465 31.4632 29.1475 31.8469 30.2502C31.8719 30.1215 31.9038 29.9947 31.9426 29.867C31.521 28.8161 30.8721 27.9 30.0618 27.1186C29.8126 26.8781 29.5474 26.6496 29.2693 26.435C29.1328 26.429 28.9882 26.4121 28.8407 26.3861ZM20.5088 23.7056C19.4493 23.7056 18.4176 23.8114 17.4557 24.0239C15.1941 24.5239 12.8268 25.5348 10.8443 26.7344C6.12361 29.5945 2.14055 33.6642 1.23849 42.0311C0.490917 48.9829 -0.302497 54.1304 0.661368 54.1304C0.858726 54.1304 1.12686 53.9178 1.4827 53.4638C3.59284 50.7792 5.59531 48.0907 10.7157 47.5239C14.7456 47.0758 18.6788 45.6547 22.3638 44.0071C26.1913 42.2966 30.8083 39.5562 32.1111 35.2749C32.1171 34.9376 32.125 34.5983 32.131 34.256C31.4821 38.0083 28.2516 41.137 22.2751 43.8085C17.7837 45.8174 14.1017 46.9291 10.6907 47.3073C5.59532 47.8712 3.49017 50.5547 1.45379 53.1484L1.31125 53.331C0.876661 53.8869 0.693265 53.9158 0.661368 53.9158H0.660364L0.627482 53.8939C0.171963 53.3739 0.585606 49.7473 1.06405 45.5469C1.18865 44.4522 1.32322 43.2826 1.45479 42.0561C2.4057 33.2171 6.79143 29.4449 10.9559 26.924C12.4022 26.0468 13.9691 25.3193 15.5141 24.7974C17.5584 24.0648 19.3127 23.7834 20.8118 23.7834C22.287 23.7834 23.522 24.0559 24.5537 24.4401L24.7141 24.482C24.4251 24.3353 24.129 24.1896 23.825 24.0489C22.7296 23.8194 21.6063 23.7056 20.5088 23.7056Z" fill="#417719"/>
<path d="M20.5537 24.4551C18.5163 24.4551 15.7333 24.9091 13.081 26.2733C7.97159 28.902 7.24795 33.4756 9.00424 33.4756C9.40693 33.4756 9.94318 33.2341 10.5871 32.6683C17.2943 26.8442 22.4714 25.8372 22.4714 25.8372C24.7361 25.3083 23.3456 24.4551 20.5537 24.4551Z" fill="#AED77A"/>
<path d="M26.9688 29.1285C26.609 29.1285 26.1724 29.1914 25.6541 29.3271C25.6541 29.3271 15.2519 32.0136 11.1094 38.2998C9.4428 40.8286 10.1355 41.7916 11.9048 41.7916C13.3042 41.7916 15.3795 41.1878 17.4916 40.2767C17.5195 40.0272 17.6342 39.6919 17.8684 39.2378L17.8943 39.1889C17.8475 39.2927 17.8026 39.4075 17.7607 39.5302C17.6591 39.8226 17.6053 40.0552 17.5843 40.2358C17.8315 40.13 18.0797 40.0172 18.3269 39.9025L18.309 39.7069C18.297 39.176 19.4054 37.9644 19.217 37.8726L19.1881 37.8666L19.1253 37.8776C19.1253 37.8776 18.8014 37.9385 18.4346 38.3327C18.7874 37.8696 19.1333 37.5832 19.3695 37.5832L19.4742 37.6062L19.4782 37.6082C19.7662 37.7599 19.6666 38.5383 19.2708 39.4414C20.5128 38.8107 21.7039 38.1031 22.7097 37.3786C27.4632 33.9536 30.1106 29.1285 26.9688 29.1285Z" fill="#A2D167"/>
<path d="M3.52604 48.3831L3.48219 48.3781C3.36358 48.3502 3.29181 48.2344 3.31872 48.1177C7.17717 31.1484 29.1696 26.8741 29.3899 26.8332C29.5105 26.8132 29.6232 26.8901 29.6441 27.0068C29.666 27.1256 29.5883 27.2394 29.4707 27.2613C29.2514 27.3012 7.53701 31.5266 3.74036 48.2125C3.71942 48.3153 3.62671 48.3841 3.52604 48.3831Z" fill="#66913E"/>
<path d="M32.7241 23.6198C32.7241 23.6198 30.7954 15.4225 22.1036 15.0603C13.4129 14.696 11.0934 16.9434 7.06653 23.6248C5.48966 25.6127 6.86618 24.46 9.42486 23.3064C11.0147 22.5909 13.059 21.8753 15.1403 21.9103C20.5736 22.0001 23.5918 23.5759 26.8243 25.3712C30.0558 27.1675 31.1672 25.7704 30.8632 24.3503C30.7376 23.7555 31.3207 24.1666 31.9237 24.5788C32.76 25.1476 33.6351 25.7195 32.7241 23.6198Z" fill="#A0CC51"/>
<path d="M30.9728 24.3143L30.7874 24.2026C26.8851 17.149 17.6361 16.9075 17.5444 16.9055C17.4238 16.9035 17.3281 16.8037 17.3291 16.6849C17.3321 16.5642 17.4308 16.4684 17.5514 16.4704C17.6471 16.4714 27.1432 16.7139 31.1671 23.991C31.2259 24.0958 31.1871 24.2285 31.0824 24.2874L30.9728 24.3143Z" fill="#66913E"/>
<path d="M20.4042 15.2389C13.081 15.2389 10.928 17.639 7.25393 23.7375C7.02168 24.0309 6.87216 24.2335 6.77647 24.3722C6.98081 24.2774 7.25392 24.1367 7.52205 23.999C9.09095 23.1876 11.9915 21.6917 14.9948 21.6917H15.1433C20.4141 21.7805 23.3536 23.1936 26.9289 25.1806C27.8898 25.7155 28.7101 25.9909 29.361 26.0019H29.3989C29.8564 26.0019 30.2133 25.8612 30.4345 25.5937C30.6718 25.3043 30.7505 24.8672 30.6508 24.3952C30.6279 24.2854 30.606 24.1297 30.6738 24.004C27.534 18.5691 21.1836 17.2917 18.6359 16.9953C21.6581 17.5791 27.5489 19.2527 29.9312 23.6816C30.283 24.461 30.0189 25.2744 28.9773 25.2744C28.3583 25.2744 27.4652 24.986 26.2631 24.2375C24.134 22.9112 20.0613 21.2676 15.6985 21.2676C13.4418 21.2666 11.1064 21.7067 8.92648 22.8583L8.88662 22.8683C8.39521 22.8683 11.1682 17.0672 16.2507 16.0872C17.7229 15.8037 19.1293 15.662 20.448 15.662C23.7882 15.662 26.596 16.5702 28.6424 18.3984C31.1592 20.6478 32.3393 23.7764 31.7034 23.7764C31.6177 23.7764 31.4991 23.7196 31.3466 23.5958C30.1754 22.6537 26.8651 16.9314 19.2021 16.632C22.0957 17.0492 28.0573 18.5401 31.0834 23.8473C31.3037 23.8982 31.5868 24.0868 31.9965 24.3662L32.1639 24.48C32.1559 23.8363 32.146 23.1946 32.131 22.5509C31.2279 20.3055 28.5606 15.5473 22.0927 15.2778C21.5026 15.2519 20.9384 15.2389 20.4042 15.2389Z" fill="#64A31A"/>
<path d="M31.0854 23.8473L31.1671 23.992L31.1931 24.1177C31.3924 24.2135 31.6566 24.3942 31.9237 24.5778C32.0064 24.6347 32.0881 24.6896 32.1689 24.7435C32.1679 24.6556 32.1669 24.5668 32.1649 24.479L31.9974 24.3652C31.5888 24.0868 31.3057 23.8982 31.0854 23.8473ZM20.4181 15.0223C13.0899 15.0223 10.8193 17.3975 7.06652 23.6248C6.44554 24.4081 6.28308 24.7035 6.47047 24.7035C6.75753 24.7035 7.87389 24.005 9.42485 23.3064C10.9768 22.6078 12.9634 21.9083 14.9947 21.9083L15.1403 21.9103C20.5736 22.0001 23.5918 23.5759 26.8243 25.3712C27.9157 25.9779 28.7649 26.2214 29.4009 26.2214C30.6438 26.2214 31.0635 25.2903 30.8631 24.3503L30.8502 24.2754L30.7874 24.2046L30.6757 24.006C30.608 24.1317 30.6289 24.2864 30.6528 24.3972C30.7535 24.8702 30.6737 25.3063 30.4365 25.5957C30.2152 25.8642 29.8584 26.0039 29.4009 26.0039H29.364H29.363C28.7121 25.9919 27.8908 25.7175 26.9309 25.1826C23.3555 23.1956 20.4161 21.7825 15.1452 21.6937H14.9967C11.9935 21.6937 9.09293 23.1896 7.52403 24.001C7.25491 24.1387 6.98279 24.2794 6.77846 24.3742C6.87414 24.2355 7.02267 24.0329 7.25591 23.7395C10.931 17.642 13.0839 15.2409 20.4061 15.2409C20.9404 15.2409 21.5046 15.2549 22.0956 15.2798C28.5636 15.5503 31.2309 20.3075 32.134 22.5529C32.129 22.3484 32.125 22.1468 32.12 21.9432C31.0366 19.5241 28.2755 15.3197 22.1046 15.0623C21.5135 15.0353 20.9524 15.0223 20.4181 15.0223Z" fill="#407414"/>
<path d="M18.5761 16.6201C18.1724 16.6201 17.7578 16.634 17.3312 16.665L17.3292 16.6859L17.3501 16.7807C17.6691 16.8246 18.1096 16.8925 18.6379 16.9953C21.1856 17.2927 27.536 18.5691 30.6758 24.004L30.7874 24.2026L30.8502 24.2734C30.8313 24.1137 30.8771 24.0499 30.9698 24.0499C31.0296 24.0499 31.1044 24.0748 31.1931 24.1167L31.1672 23.991L31.0854 23.8463C28.0593 18.5391 22.0977 17.0472 19.2041 16.631C18.9977 16.6221 18.7884 16.6201 18.5761 16.6201Z" fill="#407414"/>
<path d="M22.3977 18.8994C21.1039 18.9004 22.1076 20.0411 23.6466 21.1797C25.1856 22.3204 27.2629 23.4591 28.1191 23.4591C28.5556 23.4591 28.6753 23.1627 28.2437 22.4192C26.918 20.1319 22.5552 18.9044 22.5552 18.9044L22.3977 18.8994Z" fill="#BDDB86"/>
<path d="M46.2999 23.7405C46.0268 23.7405 45.7597 23.8044 45.5165 23.968C44.8148 24.4351 44.6732 24.9421 44.8317 25.4201C45.0769 26.1546 46.0348 26.8272 46.7794 27.1934C47.7094 27.6515 48.6064 28.1226 49.5055 28.6435C49.7836 28.8052 50.2461 29.0676 50.6249 29.0676C50.8581 29.0676 51.0615 28.9678 51.1701 28.6834C51.4123 28.0377 50.1624 26.5368 49.8135 26.0837C49.1148 25.1746 48.1918 24.2874 47.0934 23.8952C46.8362 23.8024 46.5651 23.7405 46.2999 23.7405Z" fill="#A2D167"/>
<path d="M53.4497 60.0313L50.0737 85.0252C50.0228 88.4033 42.596 91.0299 33.4806 90.8922C24.3663 90.7525 17.0182 87.9053 17.071 84.5282L13.1547 57.8498L53.4497 60.0313Z" fill="#AA6B28"/>
<path d="M53.4497 60.0313L53.348 60.0183L49.972 85.0112L49.971 85.0242C49.956 86.586 48.2277 88.049 45.364 89.0989C42.5093 90.1497 38.5521 90.7934 34.1614 90.7924C33.9361 90.7924 33.7099 90.7914 33.4826 90.7884C28.9523 90.7186 24.8587 89.9771 21.9073 88.8394C18.9489 87.7017 17.1647 86.1609 17.1747 84.5642V84.5312L17.1737 84.5133L13.2773 57.9596L53.4447 60.1361L53.4497 60.0313L53.4566 59.9275L13.1607 57.744L13.078 57.7779L13.0521 57.8637L16.9683 84.5432L17.072 84.5262L16.9673 84.5252V84.5622C16.9773 86.3266 18.8572 87.8804 21.8335 89.032C24.8158 90.1817 28.9284 90.9242 33.4796 90.994C33.7089 90.998 33.9361 91 34.1624 91C38.5741 91 42.5491 90.3553 45.4377 89.2925C48.3194 88.2307 50.1454 86.7557 50.1793 85.0262L50.0756 85.0242L50.1793 85.0382L53.5543 60.0453L53.5334 59.9655L53.4596 59.9275L53.4497 60.0313Z" fill="#2E1010"/>
<path d="M53.4497 60.0313L50.0737 85.0252C50.0228 88.4033 42.596 91.0299 33.4806 90.8922C24.3663 90.7525 17.0182 87.9053 17.071 84.5282L13.1547 57.8498L53.4497 60.0313Z" fill="#F9A84C"/>
<path d="M53.4497 60.0313L53.348 60.0183L49.972 85.0112L49.971 85.0242C49.956 86.586 48.2277 88.049 45.364 89.0989C42.5093 90.1497 38.5521 90.7934 34.1614 90.7924C33.9361 90.7924 33.7099 90.7914 33.4826 90.7884C28.9523 90.7186 24.8587 89.9771 21.9073 88.8394C18.9489 87.7017 17.1647 86.1609 17.1747 84.5642V84.5312L17.1737 84.5133L13.2773 57.9596L53.4447 60.1361L53.4497 60.0313L53.4566 59.9275L13.1607 57.744L13.078 57.7779L13.0521 57.8637L16.9683 84.5432L17.072 84.5262L16.9673 84.5252V84.5622C16.9773 86.3266 18.8572 87.8804 21.8335 89.032C24.8158 90.1817 28.9284 90.9242 33.4796 90.994C33.7089 90.998 33.9361 91 34.1624 91C38.5741 91 42.5491 90.3553 45.4377 89.2925C48.3194 88.2307 50.1454 86.7557 50.1793 85.0262L50.0756 85.0242L50.1793 85.0382L53.5543 60.0453L53.5334 59.9655L53.4596 59.9275L53.4497 60.0313Z" fill="#7C4317"/>
<path d="M17.6491 64.8764L20.1161 82.4425C20.1161 82.4425 21.1697 87.9582 27.9356 89.4252C28.7071 89.5929 29.4726 89.6717 30.2192 89.6717C36.0194 89.6717 40.8437 84.8825 41.2533 79.268C41.7457 72.4948 41.7457 66.7416 41.7457 66.7416C41.7457 66.7416 37.68 67.4013 32.442 67.4013C27.7592 67.4013 22.1385 66.8743 17.6491 64.8764Z" fill="#FAB76A"/>
<path d="M53.1217 61.6899C51.9735 62.7108 50.3408 63.62 48.3513 64.3784C46.6867 65.0121 44.7679 65.5381 42.6598 65.9323C43.215 65.9941 43.9266 66.042 44.7759 66.042C45.8893 66.042 47.2419 65.9572 48.7918 65.7037C48.7918 65.7037 48.9194 65.5909 49.0769 65.5909C49.3261 65.5909 49.653 65.8744 49.673 67.3444C49.7079 69.7435 47.4522 84.2767 47.4522 84.2767C47.4522 84.2767 47.0156 88.0221 41.8036 89.4252C40.0582 89.8963 37.2334 90.2765 34.0657 90.2765C27.8649 90.2765 20.3523 88.8185 17.057 83.7339L17.1717 84.5133L17.1727 84.5312V84.5642C17.1627 86.1609 18.9469 87.7027 21.9053 88.8394C24.8567 89.9781 28.9503 90.7186 33.4806 90.7884C33.7079 90.7914 33.9341 90.7924 34.1594 90.7924C38.5501 90.7934 42.5073 90.1487 45.362 89.0989C48.2257 88.049 49.955 86.586 49.969 85.0242L49.97 85.0113L53.1217 61.6899Z" fill="#DE9342"/>
<path d="M53.2413 61.5811C53.2015 61.6171 53.1626 61.653 53.1217 61.6889L49.972 85.0102L49.971 85.0232C49.956 86.585 48.2277 88.048 45.364 89.0979C42.5092 90.1487 38.5521 90.7924 34.1614 90.7914C33.9361 90.7914 33.7099 90.7904 33.4826 90.7874C28.9523 90.7176 24.8587 89.9761 21.9073 88.8384C18.9489 87.7007 17.1647 86.1599 17.1747 84.5632V84.5302L17.1736 84.5123L17.059 83.7329C17.0132 83.661 16.9673 83.5872 16.9215 83.5143L17.071 84.5272C17.0182 87.9043 24.3663 90.7515 33.4806 90.8912C33.7099 90.8952 33.9351 90.8972 34.1614 90.8972C42.9638 90.8972 50.0248 88.3185 50.0747 85.0242L53.2413 61.5811Z" fill="#6F3B14"/>
<path d="M12.2228 53.1414L16.1181 53.2921C19.9726 51.1036 26.3558 49.6695 33.5863 49.6695C41.653 49.6695 48.6702 51.4519 52.2924 54.0795C53.7975 53.6075 55.3246 53.1194 55.3246 53.1194L54.879 58.5613H54.877C54.3368 63.0531 45.0131 66.6298 33.5873 66.6298C22.0289 66.6298 12.6264 62.9723 12.2846 58.4076L12.2238 58.3398V53.355L12.2287 53.3699L12.2228 53.1414Z" fill="#F9A72B"/>
<path d="M12.2228 53.1414L12.2188 53.2452L16.1141 53.3949L16.1689 53.3809C19.9995 51.2054 26.3698 49.7723 33.5873 49.7723C41.6361 49.7703 48.6433 51.5566 52.2316 54.1623L52.3233 54.1783C53.8294 53.7062 55.3575 53.2182 55.3575 53.2182L55.3256 53.1185L55.2229 53.1095L54.7764 58.5523L54.879 58.5603V58.4565H54.877L54.7754 58.5483C54.5192 60.7239 52.0941 62.7348 48.2775 64.1828C44.4659 65.6329 39.2877 66.527 33.5863 66.527C27.819 66.527 22.588 65.6129 18.7675 64.1339C14.9389 62.657 12.5447 60.6081 12.3882 58.3997L12.3613 58.3368L12.3274 58.2999V53.355H12.2238L12.1231 53.3839L12.1281 53.3989L12.2437 53.4727L12.3314 53.3659L12.3274 53.1394L12.2228 53.1414L12.1191 53.1444L12.1221 53.3709L12.2267 53.3699L12.3264 53.34L12.3214 53.325L12.2078 53.2522L12.1191 53.356V58.3408L12.145 58.4096L12.2078 58.4775L12.2836 58.4086L12.1799 58.4156C12.3643 60.7728 14.8422 62.8366 18.6917 64.3295C22.5452 65.8205 27.7961 66.7356 33.5853 66.7356C39.3077 66.7356 44.5058 65.8404 48.3503 64.3794C52.1888 62.9164 54.6946 60.8935 54.9787 58.5763L54.875 58.5633V58.6671H54.877L54.9817 58.5723L55.4273 53.1304L55.3874 53.0406L55.2907 53.0216C55.2887 53.0226 53.7637 53.5096 52.2595 53.9817L52.2904 54.0815L52.3522 53.9967C48.6971 51.3491 41.667 49.5687 33.5853 49.5677C26.3408 49.5677 19.9446 50.9998 16.0653 53.2033L16.1171 53.2941L16.1211 53.1903L12.2267 53.0396L12.149 53.0695L12.1191 53.1444L12.2228 53.1414Z" fill="#7C4317"/>
<path d="M12.2228 53.1414C12.2228 57.8568 21.8724 61.6779 33.7747 61.6779C45.675 61.6779 55.3246 57.8568 55.3246 53.1414C55.3246 48.426 45.675 44.6059 33.7747 44.6059C21.8724 44.6059 12.2228 48.427 12.2228 53.1414Z" fill="#F9A84C"/>
<path d="M12.2228 53.1414H12.1191C12.1261 55.5784 14.5861 57.723 18.4974 59.2749C22.4136 60.8257 27.8121 61.7817 33.7737 61.7817C39.7343 61.7817 45.1327 60.8257 49.05 59.2749C52.9603 57.723 55.4203 55.5794 55.4273 53.1414C55.4193 50.7054 52.9593 48.5598 49.05 47.0079C45.1327 45.4571 39.7343 44.5021 33.7737 44.5021C27.8111 44.5021 22.4126 45.4571 18.4974 47.0079C14.5851 48.5598 12.1251 50.7044 12.1191 53.1414H12.2228H12.3264C12.3185 50.8651 14.6828 48.7394 18.5731 47.2025C22.4565 45.6637 27.835 44.7096 33.7747 44.7096C39.7143 44.7096 45.0919 45.6637 48.9752 47.2025C52.8636 48.7404 55.2279 50.8651 55.2229 53.1414C55.2289 55.4197 52.8646 57.5434 48.9752 59.0813C45.0919 60.6191 39.7143 61.5742 33.7747 61.5742C27.835 61.5742 22.4565 60.6191 18.5731 59.0813C14.6838 57.5434 12.3195 55.4197 12.3264 53.1414H12.2228Z" fill="#7C4317"/>
<path d="M12.9065 52.9767C12.9065 57.236 22.2282 60.69 33.7278 60.69C45.2274 60.69 54.5481 57.236 54.5481 52.9767C54.5481 48.7184 45.2274 45.2655 33.7278 45.2655C22.2272 45.2665 12.9065 48.7194 12.9065 52.9767Z" fill="#C7883C"/>
<path d="M12.9065 52.9767H12.8029C12.8138 55.1912 15.1911 57.1263 18.9688 58.5284C22.7525 59.9285 27.9675 60.7948 33.7278 60.7948C39.4891 60.7948 44.7031 59.9295 48.4858 58.5284C52.2635 57.1263 54.6418 55.1902 54.6518 52.9767C54.6418 50.7623 52.2635 48.8302 48.4858 47.4261C44.7031 46.0259 39.4901 45.1607 33.7278 45.1607C27.9685 45.1607 22.7525 46.025 18.9688 47.4261C15.1921 48.8292 12.8138 50.7623 12.8029 52.9767H12.9065H13.0102C13.0002 50.9319 15.2818 49.0098 19.0416 47.6217C22.7924 46.2315 27.9895 45.3693 33.7278 45.3693C39.4662 45.3693 44.6642 46.2315 48.415 47.6217C52.1708 49.0108 54.4544 50.9319 54.4444 52.9767C54.4544 55.0216 52.1718 56.9446 48.415 58.3338C44.6633 59.7239 39.4662 60.5872 33.7278 60.5872C27.9895 60.5872 22.7914 59.7239 19.0416 58.3338C15.2828 56.9446 13.0002 55.0216 13.0102 52.9767H12.9065Z" fill="#7C4317"/>
<path d="M47.1113 51.8371C47.1113 51.8371 47.501 50.8511 44.1419 49.6326C40.7849 48.4151 40.0154 50.5627 40.0154 50.5627C40.0154 50.5627 40.122 49.6396 38.3179 48.4799C36.5128 47.3223 33.8414 49.1955 33.8414 49.1955C30.913 47.8522 28.7161 50.8631 28.7161 50.8631C26.0328 48.1865 21.4806 50.8182 21.4806 50.8182C16.8617 49.8182 15.7303 53.5925 15.7303 53.5925C14.596 53.5506 13.7558 53.9308 13.1318 54.4587C15.4054 57.8178 23.4622 60.4495 33.1168 60.682C43.5509 60.9355 52.2586 58.2999 53.8554 54.6274C52.6782 53.4348 50.5421 53.0695 50.5421 53.0695C49.5005 51.5526 47.1113 51.8371 47.1113 51.8371Z" fill="#584521"/>
<path d="M47.213 51.863C47.5439 50.7253 44.7918 49.8402 44.1778 49.6006C42.899 49.1027 40.8467 48.8652 40.0383 50.2932C39.9217 50.5018 39.9556 50.4858 40.0104 50.4709C40.0533 50.4589 40.1081 50.4479 40.117 50.5337C40.0812 50.1874 39.9227 49.938 39.7413 49.6505C39.2259 48.8392 38.274 48.3113 37.371 48.0897C36.5596 47.8921 35.6366 48.2354 34.898 48.5308C34.5153 48.6845 34.1494 48.9011 33.8026 49.1226C33.9461 49.0308 32.5068 48.8172 32.6733 48.8232C31.6316 48.7843 30.7904 49.0468 29.9102 49.6076C29.5225 49.8541 29.1886 50.1914 28.8756 50.5238C28.458 50.9659 28.4121 50.412 27.8749 50.1615C25.9202 49.2563 23.8619 49.6456 21.9471 50.4988C21.4537 50.7194 21.0172 50.6744 20.5507 50.6305C20.2676 50.6036 19.9736 50.5767 19.6466 50.6096C18.602 50.7144 17.7328 51.0158 16.9095 51.6794C16.3763 52.1095 15.9795 52.7372 15.7084 53.361C15.6038 53.6055 13.5126 54.0745 13.0401 54.4238L13.0431 54.4567C14.7366 56.781 17.69 57.9156 20.3224 58.7749C24.445 60.1221 28.8477 60.5972 33.1617 60.7309C37.668 60.8716 42.2441 60.4425 46.599 59.2529C49.2324 58.5334 52.6702 57.2939 53.959 54.6523L53.9371 54.6174C52.8187 53.6464 51.3615 53.4767 50.274 52.6564C49.3341 51.9468 48.2237 51.6794 47.0515 51.7912C46.9448 51.8011 47.1272 51.89 47.1791 51.884C48.5237 51.7572 49.5434 52.8929 50.8172 53.1693C51.9346 53.4099 54.276 53.9947 53.2723 55.4198C52.9154 55.9277 52.4161 56.3289 51.9306 56.7051C48.6712 59.2339 43.8958 59.9275 39.9376 60.3726C34.4834 60.9874 28.8597 60.663 23.4941 59.5303C21.1776 59.0423 18.905 58.3098 16.7789 57.265C15.9636 56.8628 15.2001 56.3628 14.4844 55.801C14.1884 55.5605 13.9143 55.298 13.6591 55.0136C12.6225 53.9118 15.6755 53.6434 15.7762 53.6394L15.834 53.6184C16.6215 51.1714 19.1712 50.4549 21.5026 50.8621C21.7239 50.9 22.2043 50.5417 22.3967 50.4569C24.4181 49.5567 26.8183 49.2933 28.6414 50.8711L28.8138 50.897C29.0929 50.5317 29.4268 50.2214 29.7757 49.922C31.1741 48.7204 31.9426 49.1945 33.8873 49.2394C34.2282 49.2484 34.7415 48.7664 35.0635 48.6147C36.5995 47.8872 39.9705 48.449 39.9197 50.5337L40.12 50.5866C40.423 49.8352 41.1696 49.4799 41.9232 49.3302C41.3829 49.436 47.5429 50.0018 47.0156 51.8091L47.213 51.863Z" fill="#403215"/>
<path d="M21.7588 51.5397C21.7588 51.5397 18.0379 50.891 17.3202 52.865C16.6045 54.8389 14.1974 53.7711 15.7423 55.4776C17.2873 57.1841 19.6805 57.268 20.761 56.3459C21.8405 55.4227 22.2242 54.1154 24.3703 54.296C26.5153 54.4787 25.1816 52.7632 23.9138 52.7442C22.6449 52.7263 25.0102 51.1255 26.0329 51.0088C27.0585 50.893 23.845 49.7563 21.7588 51.5397Z" fill="#6C562B"/>
<path d="M31.0495 53.4947C31.0495 53.4947 30.2043 52.4748 27.6934 52.4129C25.1816 52.352 26.613 53.3699 26.4963 53.851C26.3797 54.333 28.0463 55.292 28.0463 55.292C28.0463 55.292 28.756 53.6164 31.0495 53.4947Z" fill="#6C562B"/>
<path d="M29.9431 51.1734C29.685 51.1575 31.4891 49.2005 33.3321 49.8102C34.1674 50.0857 34.9479 49.8821 35.6904 49.6775C36.5865 49.43 37.4258 49.1825 38.2342 49.7823C39.7113 50.883 39.0535 51.7892 39.0535 51.7892C39.0535 51.7892 34.3897 51.7413 33.9441 53.7751C33.9441 53.7751 32.5457 51.3431 29.9431 51.1734Z" fill="#6C562B"/>
<path d="M42.291 53.4677C42.2451 53.4797 41.8693 53.4118 41.3151 53.346C39.7881 53.1624 36.9085 52.9797 35.8908 54.4108C35.8908 54.4108 35.3157 54.8309 36.4221 55.7401C37.5295 56.6482 38.3319 56.9157 38.3039 58.0444C38.3039 58.0444 39.7941 54.7791 45.6082 56.1992C51.4243 57.6202 52.0841 55.1204 50.902 54.4098C49.7208 53.6983 47.3715 54.6882 47.3715 54.6882C47.3715 54.6882 46.4724 52.4957 42.291 53.4677Z" fill="#6C562B"/>
<path d="M45.6839 51.6245C45.6839 51.6245 44.416 50.1126 42.6807 50.4609C40.9453 50.8052 46.1693 53.1893 45.6839 51.6245Z" fill="#775E30"/>
<path d="M35.3595 57.3817C35.3595 57.3817 33.4587 55.8728 30.9748 56.5933C30.9748 56.5933 30.7625 59.0393 30.1893 59.0004C29.6152 58.9635 28.7012 55.4277 25.686 55.7191C22.6738 56.0075 21.3401 57.247 22.5841 58.2649C23.827 59.2808 29.7597 60.5203 33.358 60.2189C36.9553 59.9175 36.2526 58.3308 35.3595 57.3817Z" fill="#6C562B"/>
<path d="M43.2548 57.3179C43.2548 57.3179 40.7619 57.0105 39.6326 58.5014C38.5043 59.9904 43.6954 59.692 45.5474 58.8208C47.3984 57.9496 43.5379 57.3368 43.2548 57.3179Z" fill="#6C562B"/>
<path d="M34.9339 45.9252C25.5723 45.9252 18.6508 48.4919 18.6508 48.4919C17.3152 49.2114 18.5502 50.2294 20.4261 50.2294C21.2584 50.2294 22.2172 50.0288 23.1333 49.5098C23.8928 49.0817 24.5925 48.939 25.2354 48.939C25.8833 48.939 26.4704 49.0857 26.9967 49.2314C27.521 49.3771 27.9845 49.5238 28.3832 49.5238C28.738 49.5238 29.044 49.407 29.2952 49.0687C29.8066 48.3791 30.7764 48.1955 31.6615 48.1955C32.6653 48.1955 33.5623 48.431 33.5623 48.431C33.5623 48.431 33.7667 47.5359 36.4908 47.5359C36.6304 47.5359 36.7749 47.5379 36.9284 47.5428C40.0642 47.6426 40.4639 49.1486 40.4639 49.1486C40.7181 48.1895 42.9568 48.2464 43.3037 47.3942C43.6495 46.5439 42.3448 46.486 42.3448 46.486C39.7692 46.0858 37.2753 45.9252 34.9339 45.9252Z" fill="#D09C5D"/>
<path d="M21.8116 52.2722C21.7338 52.1225 20.7371 51.4928 18.8871 52.2003C17.0381 52.9089 18.0717 53.8759 19.4871 53.6504C20.9025 53.4248 22.0807 52.7951 21.8116 52.2722Z" fill="#7C6232"/>
<path d="M28.9852 52.848C28.9852 52.848 27.7124 52.6065 27.9337 53.1205C28.1559 53.6344 30.2591 53.0895 28.9852 52.848Z" fill="#7C6232"/>
<path d="M38.6478 51.1455C38.6478 51.1455 38.1564 49.5957 36.5646 49.8292C34.9738 50.0607 38.5751 52.0786 38.6478 51.1455Z" fill="#7C6232"/>
<path d="M46.7724 54.6743C46.7724 54.6743 43.7452 53.1115 43.7442 54.6034C43.7442 56.0954 47.9097 55.7511 46.7724 54.6743Z" fill="#7C6232"/>
<path d="M38.6475 59.225C38.5805 59.23 38.5135 59.237 38.4455 59.243C38.4775 59.251 38.5125 59.255 38.5495 59.255C38.5695 59.255 38.5885 59.254 38.6105 59.252C38.6195 59.25 38.6305 59.242 38.6475 59.225Z" fill="#463618"/>
<path d="M54.5471 56.3628C53.5155 61.0662 44.8018 64.8764 44.8018 64.8764C44.8018 64.8764 49.8025 63.2308 51.7492 62.0542C53.6979 60.8786 54.3109 58.704 54.3109 58.704L54.5471 56.3628Z" fill="#DE9225"/>
<path d="M20.7102 52.8171C20.157 52.3151 19.3576 52.1724 18.6518 52.374C17.676 52.6524 16.3095 54.1364 17.1368 55.1473C17.7956 55.9517 19.2469 55.5395 20.0194 55.1942C20.5158 54.9717 21.0072 54.6204 21.2285 54.1074C21.4478 53.5945 21.075 53.1314 20.7102 52.8171L20.5307 52.858C21.364 53.5775 21.0929 54.3649 20.2566 54.9238C19.4542 55.4587 17.8405 55.9327 17.2075 54.9467C16.6155 54.0286 17.9182 52.828 18.6279 52.4947C19.2499 52.2023 20.0353 52.4079 20.5307 52.858L20.7102 52.8171Z" fill="#403215"/>
<path d="M20.9331 53.354C20.9041 53.459 20.8461 53.603 20.7381 53.754C20.8391 53.761 20.9411 53.783 21.0371 53.817C21.0441 53.666 21.0101 53.509 20.9331 53.354Z" fill="#54401D"/>
<path d="M20.9664 53.1843C20.9664 53.1843 20.9634 53.2502 20.9334 53.354C21.0104 53.5087 21.0434 53.6653 21.0374 53.817C21.0864 53.837 21.1354 53.8569 21.1814 53.8799C21.2064 53.6564 21.1424 53.4208 20.9664 53.1843Z" fill="#3D2E12"/>
<path d="M21.3371 54.0695C21.3371 54.0695 20.6464 53.3989 19.9765 54.1683C19.3057 54.9367 19.7044 55.6094 20.45 55.5185C21.1906 55.4287 22.1196 54.7252 21.3371 54.0695Z" fill="#584521"/>
<path d="M21.4268 54.0525C21.1826 53.824 20.7809 53.6883 20.451 53.7811C19.8719 53.9478 19.208 54.787 19.7004 55.3469C20.3723 56.1093 22.4345 54.9956 21.4268 54.0525L21.2444 54.0855C22.1744 54.9547 20.2885 55.9716 19.8001 55.1972C19.538 54.7831 19.9905 54.2282 20.2865 53.9867C20.5846 53.7442 20.9892 53.846 21.2444 54.0855L21.4268 54.0525Z" fill="#403215"/>
<path d="M48.4749 55.2661C48.4749 55.2661 47.1143 53.9977 45.6341 55.4247C44.1539 56.8508 44.9115 58.1212 46.4664 57.9675C48.0243 57.8149 50.0358 56.5155 48.4749 55.2661Z" fill="#584521"/>
<path d="M48.5546 55.2621C48.0383 54.794 47.2997 54.6124 46.6249 54.7481C45.5972 54.9547 44.1479 56.5165 44.9992 57.5554C45.668 58.3707 47.0884 57.9935 47.8758 57.6412C48.3742 57.4177 48.8586 57.0714 49.0779 56.5574C49.2982 56.0475 48.9164 55.5754 48.5546 55.2621C48.5147 55.2281 48.3154 55.1982 48.3961 55.2691C50.3817 56.9836 45.8344 58.9984 45.0101 57.3119C44.5775 56.4247 45.6849 55.3898 46.3498 55.0096C46.9937 54.6423 47.8549 54.7781 48.3961 55.2691C48.433 55.305 48.6343 55.3359 48.5546 55.2621Z" fill="#403215"/>
<path d="M48.7938 55.761C48.7151 56.0554 48.417 56.7051 47.2758 56.9227C47.2758 56.9227 46.594 57.2929 45.972 57.2929C45.9232 57.2929 45.8763 57.2899 45.8275 57.2849C45.6321 57.3538 45.4028 57.4187 45.1257 57.4945C45.3729 57.8109 45.7946 57.9466 46.265 57.9466C47.5947 57.9476 49.3311 56.8708 48.7938 55.761Z" fill="#54401D"/>
<path d="M48.8207 55.6153C48.8207 55.6153 48.8177 55.6722 48.7938 55.762C49.3321 56.8708 47.5957 57.9476 46.267 57.9476C45.7956 57.9476 45.3749 57.8119 45.1277 57.4955C45.1008 57.5015 45.0769 57.5095 45.051 57.5165C45.2822 57.8069 45.6939 57.9815 46.2172 57.9815C46.2979 57.9815 46.3827 57.9775 46.4684 57.9685C47.8798 57.8288 49.664 56.748 48.8207 55.6153Z" fill="#3D2E12"/>
<path d="M47.2558 55.0804C47.1083 55.0804 46.9668 55.1044 46.8332 55.1463C47.203 55.322 47.3944 55.5694 47.1771 55.9716C47.1561 56.0076 47.1382 56.0415 47.1193 56.0754C47.514 55.8988 48.0552 55.6722 48.0542 55.4447C48.0522 55.3469 47.9496 55.2501 47.6904 55.1563C47.5429 55.1034 47.3974 55.0804 47.2558 55.0804Z" fill="#654E21"/>
<path d="M49.1895 56.4986C49.1895 56.4986 48.5008 55.8289 47.831 56.5983C47.1601 57.3678 47.5598 58.0394 48.3024 57.9496C49.043 57.8578 49.974 57.1542 49.1895 56.4986Z" fill="#584521"/>
<path d="M49.2812 56.4916C49.042 56.267 48.6353 56.1123 48.3094 56.2041C47.812 56.3478 47.0395 57.1791 47.508 57.715C48.2297 58.5344 50.2959 57.4396 49.2812 56.4916L49.0978 56.5055C50.0368 57.3837 48.128 58.3897 47.6545 57.6392C47.4452 57.3059 47.7263 56.8758 47.9257 56.6243C48.2267 56.252 48.746 56.1782 49.0978 56.5055L49.2812 56.4916Z" fill="#403215"/>
<path d="M13.1557 56.6542C13.1557 56.6542 13.1637 58.8557 13.377 59.3537C13.5893 59.8527 14.1973 60.691 14.1973 60.691C19.6646 64.8744 28.2377 65.7057 34.275 65.7057C38.1454 65.7057 40.9733 65.3644 41.2753 65.3464C42.0518 65.2985 41.7457 62.0073 41.7457 62.0073C38.6279 62.3186 35.836 62.4524 33.3351 62.4524C16.9623 62.4524 13.1557 56.6542 13.1557 56.6542Z" fill="#FAB64F"/>
<path d="M28.0453 55.292C28.0453 55.292 26.3787 54.333 26.4953 53.851C26.608 53.3839 25.2614 52.4099 27.4861 52.4099C27.5509 52.4099 27.6207 52.4109 27.6925 52.4129C30.2043 52.4738 31.0485 53.4947 31.0485 53.4947C28.756 53.6164 28.0453 55.292 28.0453 55.292ZM28.0493 55.5046C28.3274 55.5046 28.5955 55.305 28.5955 55.305C29.3042 54.311 32.1121 54.7541 31.8908 53.7252C31.6685 52.6973 27.5768 51.401 27.5768 51.401C27.7403 51.39 27.9008 51.385 28.0582 51.385C32.0463 51.385 34.0866 54.6962 34.0866 54.6962C34.8721 53.1494 37.1846 52.7422 38.2332 52.7422C38.8651 52.7422 39.0405 52.8899 38.1564 53.0256C35.7981 53.3869 34.9518 55.3469 34.9518 55.3469C36.7729 55.8758 38.1405 58.0923 37.5394 58.0923C37.354 58.0923 36.9822 57.8827 36.3842 57.3528C35.0894 56.2091 33.0959 55.8828 31.5818 55.8828C30.1076 55.8828 29.0889 56.1902 29.6072 56.3518C30.6618 56.6762 30.288 58.6252 30.288 58.6252C29.979 56.6872 26.9598 55.4517 26.9598 55.4517C26.298 55.306 25.7119 55.2421 25.1966 55.2421C24.0044 55.2421 23.1811 55.5774 22.6199 55.9846C22.2422 56.3558 21.8694 56.8289 21.5115 57.4256C21.5115 57.4256 21.7488 56.6173 22.6199 55.9846C23.5788 55.0435 24.5676 54.7561 25.4258 54.7561C26.6947 54.7561 27.6795 55.3858 27.8499 55.4617C27.9137 55.4926 27.9825 55.5046 28.0493 55.5046ZM30.6399 50.401C30.1564 50.402 29.6421 50.4539 29.1158 50.5417C29.0092 50.6555 28.9065 50.7732 28.8108 50.898L28.6384 50.872C28.5596 50.8042 28.4809 50.7393 28.3992 50.6774C26.8332 51.0128 25.2225 51.5846 23.9945 52.0067C23.519 52.3889 23.3276 52.7362 23.9147 52.7452C25.1198 52.7632 26.3827 54.31 24.6693 54.31C24.5786 54.31 24.4799 54.306 24.3713 54.296C24.2347 54.2851 24.1061 54.2791 23.9835 54.2791C22.1744 54.2791 21.7727 55.4806 20.762 56.3449C20.5736 56.5045 20.3463 56.6343 20.0892 56.7321C20.2885 56.9057 20.5487 57.0784 20.8657 57.248C21.5056 57.5913 21.9392 57.8228 22.3448 58.0294C21.5504 57.0644 22.902 55.9856 25.686 55.7191C25.8046 55.7062 25.9192 55.7002 26.0338 55.7002C28.7719 55.7002 29.6371 58.9645 30.1893 59.0004C30.1933 59.0014 30.1973 59.0014 30.2033 59.0014C30.7655 59.0014 30.9748 56.5933 30.9748 56.5933C31.4522 56.4536 31.9097 56.3977 32.3353 56.3977C34.1215 56.3977 35.3595 57.3817 35.3595 57.3817C36.0991 58.1681 36.7091 59.3906 34.8512 59.9585C35.2867 59.8746 35.7373 59.7639 36.2068 59.6521C36.9095 59.4874 37.653 59.3218 38.4445 59.2419C37.7298 59.0663 38.6059 56.9486 41.7168 56.3469C42.2461 56.2441 42.7475 56.2011 43.216 56.2011C43.806 56.2011 44.3483 56.27 44.8267 56.3738C44.8646 56.268 44.9114 56.1622 44.9693 56.0594C44.1958 55.9077 43.503 55.8419 42.888 55.8419C39.3077 55.8419 38.3019 58.0454 38.3019 58.0454C38.3299 56.9167 37.5285 56.6502 36.4201 55.7411C35.3137 54.8319 35.8888 54.4118 35.8888 54.4118C36.5626 53.4627 38.0567 53.2232 39.4323 53.2232C40.131 53.2232 40.7978 53.2861 41.3141 53.347C41.8295 53.4089 42.1893 53.4707 42.275 53.4707C42.283 53.4707 42.287 53.4707 42.29 53.4687C42.585 53.4009 42.8631 53.348 43.1273 53.3091C41.7796 52.8739 39.6775 52.4967 39.3984 51.7752C39.3495 51.6465 39.2738 51.5427 39.1821 51.4578C39.1422 51.6684 39.0535 51.7902 39.0535 51.7902C39.0535 51.7902 39.0445 51.7902 39.0276 51.7902C38.6458 51.7902 34.3697 51.8331 33.9441 53.7761C33.9441 53.7761 32.5447 51.3441 29.9421 51.1744C29.8285 51.1664 30.1196 50.7772 30.6399 50.401Z" fill="#3C2C13"/>
<path d="M28.7999 50.5956C28.6989 50.6156 28.5978 50.6356 28.4948 50.6566C28.4978 50.6596 28.4998 50.6606 28.5028 50.6626C28.5338 50.6806 28.5668 50.6896 28.6018 50.6896C28.6588 50.6896 28.7239 50.6626 28.7999 50.5956Z" fill="#875723"/>
<path d="M24.8258 59.205C24.8627 59.222 24.8995 59.2379 24.9374 59.2559C25.6511 59.5822 26.5571 59.7379 27.518 59.8138C26.5422 59.6431 25.6172 59.4325 24.8258 59.205ZM28.4948 50.6565C28.4948 50.6565 28.4939 50.6575 28.4919 50.6575C28.4949 50.6595 28.4978 50.6615 28.5028 50.6625C28.4998 50.6605 28.4978 50.6595 28.4948 50.6565Z" fill="#3C2C13"/>
<path d="M29.1148 50.5417C29.0092 50.5587 28.9045 50.5767 28.7989 50.5967C28.7231 50.6627 28.6583 50.6907 28.6015 50.6907C28.5666 50.6907 28.5347 50.6807 28.5028 50.6637C28.4978 50.6627 28.4948 50.6607 28.4919 50.6587C28.461 50.6657 28.431 50.6717 28.3981 50.6787C28.4799 50.7417 28.5586 50.8057 28.6374 50.8737L28.8098 50.8997C28.9055 50.7737 29.0082 50.6557 29.1148 50.5417Z" fill="#2B200C"/>
<path d="M23.9945 52.0067C23.6476 52.1265 23.3306 52.2343 23.0535 52.3211C21.057 52.9498 23.0755 53.363 21.5733 54.2162C22.0478 54.8948 21.1039 55.6004 20.3404 55.6004C20.1261 55.6004 19.9247 55.5435 19.7742 55.4158C19.4732 55.8608 19.5958 56.3019 20.0902 56.7321C20.3473 56.6343 20.5746 56.5045 20.763 56.3449C21.7747 55.4806 22.1754 54.2791 23.9845 54.2791C24.1071 54.2791 24.2357 54.2851 24.3722 54.296C24.4799 54.306 24.5796 54.31 24.6703 54.31C26.3837 54.31 25.1208 52.7632 23.9157 52.7452C23.3276 52.7362 23.519 52.3879 23.9945 52.0067Z" fill="#493719"/>
<path d="M28.5028 53.336C28.2387 53.336 28.0024 53.2761 27.9347 53.1214C27.82 52.855 28.1041 52.7921 28.4041 52.7921C28.6872 52.7921 28.9862 52.849 28.9862 52.849C29.8763 53.0177 29.1158 53.336 28.5028 53.336ZM27.4861 52.4099C25.2614 52.4099 26.608 53.3849 26.4953 53.851C26.3787 54.333 28.0453 55.292 28.0453 55.292C28.0453 55.292 28.756 53.6154 31.0495 53.4937C31.0495 53.4937 30.2043 52.4738 27.6934 52.4119C27.6207 52.4109 27.5519 52.4099 27.4861 52.4099Z" fill="#493719"/>
<path d="M30.6678 50.4C30.6578 50.4 30.6488 50.401 30.6399 50.401C30.1206 50.7772 29.8295 51.1664 29.9441 51.1724C32.5457 51.3431 33.9461 53.7741 33.9461 53.7741C34.3717 51.8311 38.6478 51.7882 39.0296 51.7882C39.0475 51.7882 39.0555 51.7882 39.0555 51.7882C39.0555 51.7882 39.1442 51.6664 39.1841 51.4558C39.0395 51.3231 38.8511 51.2383 38.6428 51.1854C38.6119 51.3301 38.4824 51.389 38.298 51.389C38.0687 51.389 37.7517 51.2962 37.4338 51.1545C37.0301 51.2044 36.7271 51.2862 36.7271 51.2862C35.5708 50.9209 34.6608 51.4678 32.1689 50.6156C31.7223 50.4659 31.215 50.4 30.6678 50.4Z" fill="#493719"/>
<path d="M39.4343 53.2222C38.0587 53.2222 36.5646 53.4617 35.8908 54.4108C35.8908 54.4108 35.3157 54.831 36.4221 55.7401C37.5295 56.6482 38.3319 56.9157 38.3039 58.0444C38.3039 58.0444 39.3097 55.8409 42.89 55.8409C43.505 55.8409 44.1968 55.9058 44.9713 56.0584C45.062 55.8978 45.1746 55.7411 45.3022 55.5974C44.5137 55.5455 43.7442 55.2441 43.7442 54.6034C43.7442 54.2122 43.9516 54.0316 44.2596 53.9767C44.2008 53.7162 43.7442 53.5067 43.1283 53.3081C42.8641 53.347 42.586 53.3999 42.291 53.4677C42.288 53.4697 42.284 53.4697 42.276 53.4697C42.1903 53.4697 41.8305 53.4069 41.3151 53.346C40.7998 53.2851 40.133 53.2222 39.4343 53.2222Z" fill="#493719"/>
<path d="M26.0338 55.7012C25.9202 55.7012 25.8046 55.7072 25.686 55.7201C22.902 55.9876 21.5514 57.0664 22.3448 58.0304C22.9977 58.3637 23.5748 58.6332 24.8248 59.206C25.6172 59.4335 26.5422 59.6431 27.517 59.8148C29.4148 59.9655 31.524 59.8048 32.7749 60.0473C33.0092 60.0932 33.2514 60.1122 33.4976 60.1122C33.9321 60.1122 34.3827 60.0493 34.8502 59.9585C36.7071 59.3906 36.0981 58.1681 35.3585 57.3817C35.3585 57.3817 34.1205 56.3977 32.3344 56.3977C31.9087 56.3977 31.4512 56.4546 30.9738 56.5933C30.9738 56.5933 30.7644 59.0014 30.2023 59.0014C30.1963 59.0014 30.1923 59.0014 30.1883 59.0004C29.6371 58.9645 28.7719 55.7012 26.0338 55.7012Z" fill="#493719"/>
<path d="M28.4031 52.7921C28.1031 52.7921 27.819 52.855 27.9337 53.1214C28.0014 53.2761 28.2387 53.336 28.5018 53.336C29.1148 53.336 29.8753 53.0187 28.9842 52.849C28.9842 52.849 28.6872 52.7921 28.4031 52.7921Z" fill="#543F1C"/>
<path d="M37.9999 51.1175C37.8046 51.1175 37.6082 51.1335 37.4328 51.1555C37.7507 51.2985 38.0677 51.3905 38.297 51.3905C38.4814 51.3905 38.61 51.3315 38.6419 51.1865C38.4395 51.1365 38.2182 51.1175 37.9999 51.1175Z" fill="#543F1C"/>
<path d="M44.2596 53.9767C43.9516 54.0316 43.7442 54.2122 43.7442 54.6034C43.7442 55.2451 44.5127 55.5455 45.3022 55.5974C45.5494 55.316 45.8524 55.0774 46.1534 54.9218C45.2563 54.6992 44.1619 54.5825 44.2596 54.0835C44.2665 54.0466 44.2665 54.0116 44.2596 53.9767Z" fill="#543F1C"/>
<path d="M22.6189 55.9866C21.7478 56.6203 21.5105 57.4276 21.5105 57.4276C21.8684 56.8309 22.2412 56.3578 22.6189 55.9866ZM28.0582 51.385C27.9008 51.385 27.7403 51.39 27.5768 51.401C27.5768 51.401 31.6685 52.6973 31.8908 53.7252C32.1131 54.7541 29.3042 54.311 28.5955 55.305C28.5955 55.305 28.3274 55.5046 28.0493 55.5046C27.9825 55.5046 27.9137 55.4916 27.8489 55.4627C27.6785 55.3868 26.6947 54.7571 25.4248 54.7571C24.5666 54.7571 23.5768 55.0455 22.6189 55.9866C23.1801 55.5794 24.0034 55.2431 25.1956 55.2431C25.7109 55.2431 26.297 55.306 26.9588 55.4527C26.9588 55.4527 29.978 56.6872 30.287 58.6262C30.287 58.6262 30.6608 56.6772 29.6062 56.3528C29.0879 56.1912 30.1076 55.8838 31.5808 55.8838C33.0959 55.8838 35.0894 56.2091 36.3832 57.3538C36.9822 57.8837 37.354 58.0933 37.5384 58.0933C38.1405 58.0933 36.7719 55.8768 34.9508 55.3479C34.9508 55.3479 35.7971 53.3879 38.1554 53.0266C39.0395 52.8909 38.8641 52.7432 38.2322 52.7432C37.1836 52.7432 34.8711 53.1504 34.0857 54.6972C34.0867 54.6972 32.0463 51.385 28.0582 51.385Z" fill="#2F230E"/>
<path d="M43.806 56.9247C40.0483 56.9247 38.898 58.9665 38.6458 59.225C38.89 59.204 39.1382 59.194 39.3914 59.194C39.4542 59.194 39.517 59.195 39.5798 59.196C39.6017 59.197 39.6246 59.197 39.6446 59.197C39.4333 59.0324 39.4024 58.8028 39.6306 58.5014C40.431 57.4456 41.9142 57.2919 42.7116 57.2919C43.0395 57.2919 43.2528 57.3179 43.2528 57.3179C43.3655 57.3259 44.0552 57.4286 44.7201 57.6053C44.8098 57.5803 44.8985 57.5554 44.9802 57.5344C44.8407 57.3558 44.7689 57.1642 44.748 56.9656C44.418 56.9376 44.1031 56.9247 43.806 56.9247Z" fill="#3C2C13"/>
<path d="M42.7136 57.2909C41.9162 57.2909 40.433 57.4446 39.6326 58.5004C39.4044 58.8028 39.4353 59.0314 39.6466 59.196C39.7064 59.198 39.7632 59.198 39.819 59.198C42.3209 59.198 42.4325 58.2649 44.2596 57.734C44.426 57.6861 44.5795 57.6442 44.7221 57.6043C44.0572 57.4276 43.3685 57.3249 43.2548 57.3169C43.2548 57.3169 43.0415 57.2909 42.7136 57.2909Z" fill="#493719"/>
<path d="M43.217 56.2011C42.7485 56.2011 42.2471 56.2451 41.7178 56.3469C38.607 56.9496 37.7308 59.0673 38.4455 59.2419C38.5133 59.2359 38.58 59.229 38.6468 59.224C38.899 58.9655 40.0493 56.9237 43.807 56.9237C44.1041 56.9237 44.4181 56.9366 44.749 56.9636C44.728 56.769 44.7609 56.5694 44.8277 56.3718C44.3493 56.27 43.806 56.2011 43.217 56.2011Z" fill="#2F230E"/>
<path d="M21.4189 54.298C21.36 54.328 21.2973 54.3589 21.2305 54.3898C20.5756 54.6892 20.1271 54.9896 19.8719 55.287C19.9965 55.4168 20.1729 55.4726 20.3633 55.4726C20.9803 55.4726 21.7528 54.8868 21.4189 54.298Z" fill="#3C2C13"/>
<path d="M21.5724 54.2162C21.5245 54.2432 21.4727 54.2711 21.4189 54.298C21.7528 54.8868 20.9813 55.4726 20.3623 55.4726C20.1719 55.4726 19.9955 55.4168 19.8709 55.287C19.834 55.3299 19.8011 55.3728 19.7722 55.4158C19.9227 55.5435 20.1251 55.6004 20.3384 55.6004C21.1029 55.6004 22.0468 54.8948 21.5724 54.2162Z" fill="#2B200C"/>
<path d="M46.3926 54.9866C46.3777 54.9946 46.3627 55.0026 46.3488 55.0096C45.8135 55.315 44.9952 56.0425 44.9174 56.777C44.9762 56.9377 45.1736 57.0574 45.5225 57.2101C45.6191 57.252 45.7208 57.275 45.8275 57.2859C46.4076 57.0814 46.6956 56.8269 47.1193 56.0754C46.9787 56.1383 46.8581 56.1942 46.7843 56.2401C46.591 56.3678 46.0836 56.5564 45.7647 56.5564C45.6032 56.5564 45.4906 56.5085 45.4906 56.3788C45.4906 56.287 45.5474 56.1553 45.6829 55.9726C45.6829 55.9726 46.1634 55.3529 46.8332 55.1463C46.7056 55.0844 46.5551 55.0325 46.3926 54.9866Z" fill="#3C2C13"/>
<path d="M46.1524 54.9218C45.8514 55.0774 45.5494 55.316 45.3012 55.5974C45.1736 55.7411 45.061 55.8978 44.9702 56.0584C44.9114 56.1622 44.8656 56.267 44.8277 56.3728C44.7609 56.5704 44.728 56.769 44.749 56.9646C44.7699 57.1632 44.8427 57.3558 44.9812 57.5334C45.0031 57.5274 45.0271 57.5215 45.049 57.5145C44.7749 57.1692 44.7549 56.6622 45.0948 56.0904L45.1178 56.1512C44.9324 56.4367 44.8626 56.6253 44.9174 56.776C44.9942 56.0425 45.8125 55.314 46.3488 55.0086C46.3627 55.0006 46.3777 54.9926 46.3926 54.9856C46.3159 54.9627 46.2341 54.9417 46.1524 54.9218Z" fill="#2B200C"/>
<path d="M44.9184 56.777C44.8995 56.9566 44.9254 57.1362 45.0101 57.3119C45.043 57.3787 45.0819 57.4396 45.1267 57.4955C45.4038 57.4197 45.6331 57.3548 45.8285 57.2859C45.7218 57.275 45.6201 57.252 45.5235 57.2101C45.1746 57.0574 44.9762 56.9376 44.9184 56.777Z" fill="#392911"/>
<path d="M45.0957 56.0914C44.7547 56.6632 44.7747 57.1702 45.0497 57.5155C45.0757 57.5085 45.0997 57.5005 45.1267 57.4945C45.0817 57.4386 45.0427 57.3787 45.0097 57.3109C44.9247 57.1352 44.8997 56.9556 44.9177 56.776C44.8627 56.6253 44.9337 56.4367 45.1187 56.1512L45.0957 56.0914Z" fill="#291D0A"/>
<path d="M46.8342 55.1463C46.1644 55.3529 45.6839 55.9726 45.6839 55.9726C45.5474 56.1562 45.4916 56.287 45.4916 56.3788C45.4916 56.5085 45.6042 56.5564 45.7657 56.5564C46.0846 56.5564 46.592 56.3678 46.7854 56.2401C46.8591 56.1942 46.9797 56.1383 47.1203 56.0754C47.1382 56.0425 47.1571 56.0085 47.1781 55.9716C47.3944 55.5694 47.204 55.3219 46.8342 55.1463Z" fill="#453213"/>
<path d="M29.3551 26.436C28.6304 26.424 27.7433 26.1296 26.7176 25.5608C23.7632 23.9181 20.7082 22.2196 15.1383 22.1268C12.1909 22.0779 9.28333 23.5779 7.72241 24.3852C6.97683 24.7694 6.66584 24.9251 6.4635 24.9221C6.34887 24.9201 6.25219 24.8612 6.20634 24.7664C6.11564 24.5758 6.20335 24.3642 6.8961 23.49C10.8333 16.9504 13.2026 14.4705 22.1136 14.8427C30.8681 15.209 32.9165 23.485 32.9344 23.5689C33.4148 24.6616 33.372 24.981 33.2514 25.1596C33.1796 25.2674 33.061 25.3263 32.9195 25.3243C32.6204 25.3183 32.1998 25.0309 31.7532 24.7255C31.5429 24.5818 31.2479 24.3802 31.0745 24.3024L31.0755 24.3054C31.204 24.9081 31.0934 25.479 30.7705 25.8692C30.5532 26.1366 30.1295 26.449 29.3551 26.436ZM15.1443 21.6917C20.4151 21.7805 23.3546 23.1936 26.9299 25.1806C27.8908 25.7155 28.7111 25.9909 29.362 26.0019H29.363C29.8385 26.0089 30.2093 25.8682 30.4355 25.5937C30.6728 25.3043 30.7515 24.8672 30.6518 24.3952C30.6239 24.2684 30.601 24.0838 30.7106 23.9511C30.7744 23.8742 30.8701 23.8323 30.9798 23.8343C31.214 23.8393 31.52 24.0389 31.9995 24.3662C32.3015 24.5728 32.7091 24.8503 32.8955 24.8842C32.9015 24.7914 32.8726 24.504 32.5257 23.7056C32.4948 23.5888 30.5163 15.6281 22.0947 15.2778C13.389 14.9086 11.1981 17.1929 7.25393 23.7375C7.02168 24.0309 6.87217 24.2335 6.77648 24.3722C6.98081 24.2774 7.25393 24.1367 7.52205 23.999C9.11786 23.1737 12.0892 21.6408 15.1443 21.6917Z" fill="#66913E"/>
<path d="M31.5888 52.5526C31.5888 52.5526 34.286 14.72 29.9541 0.713592C29.3351 -1.25538 34.7136 2.10075 33.667 19.2796C35.1631 14.2988 41.6351 4.39306 47.6117 4.49286C48.8078 4.51382 30.297 12.6941 35.1083 37.1551C36.6832 46.979 37.3341 53.5186 35.838 51.9708C35.1163 51.2233 34.1465 51.7902 33.3122 52.355C32.4191 52.9618 31.6835 53.5685 31.5888 52.5526Z" fill="#8BC541"/>
<path d="M31.9516 53.315C31.7184 53.3121 31.4293 53.1793 31.3725 52.5736C31.3974 52.1594 34.0179 14.5852 29.7458 0.778451C29.6581 0.50002 29.668 0.285465 29.7737 0.142757C29.97 -0.121702 30.3917 -0.0229036 30.8532 0.47408C31.2399 0.894221 34.4993 4.82618 33.9591 17.7997C36.1529 12.3378 42.1454 4.18349 47.6137 4.27531C47.806 4.2783 47.8609 4.40903 47.8738 4.44895C47.9376 4.65752 47.809 4.74934 47.0914 5.2573C34.0059 14.5124 33.4677 27.6904 35.3206 37.1142C37.3092 49.5098 37.0311 51.7123 36.5686 52.2482C36.446 52.3909 36.3064 52.4189 36.2127 52.4159C36.0433 52.4129 35.8699 52.3181 35.6825 52.1235C35.4961 51.9319 35.2878 51.8361 35.0406 51.8311C34.4694 51.8211 33.8016 52.2822 33.2125 52.6883C32.6992 53.0416 32.2955 53.321 31.9516 53.315ZM30.1206 0.441143C30.1225 0.482059 30.1305 0.54992 30.1614 0.650714C34.4565 14.5333 31.832 52.1913 31.8051 52.5686C31.826 52.7622 31.8778 52.8799 31.9566 52.8799C32.1609 52.8839 32.5696 52.6035 32.9643 52.3301C33.6072 51.887 34.3368 51.384 35.0455 51.397C35.4084 51.403 35.7283 51.5447 35.9934 51.8211C36.147 51.9778 36.2167 51.9818 36.2197 51.9818C36.5138 51.863 36.9763 50.1835 34.892 37.191C33.0161 27.6485 33.5644 14.2918 46.8412 4.90302C46.9249 4.84215 47.0086 4.78426 47.0854 4.72838C41.4607 5.18544 35.3934 14.2888 33.8743 19.3445C33.8415 19.4503 33.7368 19.5161 33.6282 19.4962C33.5195 19.4772 33.4418 19.3804 33.4487 19.2687C34.301 5.28026 30.921 1.19161 30.5322 0.770471C30.3349 0.55591 30.1923 0.470084 30.1206 0.441143Z" fill="#66913E"/>
<path d="M32.5736 33.8249C32.4101 43.3824 31.8938 51.2762 31.815 52.4289C32.459 52.3949 33.0989 52.1684 33.9571 51.6804C34.3249 51.4708 34.6907 51.368 35.0724 51.368H35.1093C35.5469 51.376 35.9586 51.5137 36.3872 51.6714C36.5975 50.8012 36.5756 47.6895 34.891 37.19C34.8372 36.9176 34.7874 36.6391 34.7365 36.3587L34.589 36.226C34.9279 39.0921 35.3156 41.4064 35.7014 43.8594C36.2247 47.1946 36.3373 50.7802 35.6506 50.7802L35.5868 50.7702C34.8292 50.5397 35.2668 47.1726 34.6129 43.9502C34.4913 43.3534 34.4136 43.1009 34.3637 43.1009C34.1465 43.0989 34.4844 47.974 34.1873 49.8741C33.984 51.1724 33.375 51.6395 32.8786 51.6395C32.4809 51.6395 32.1519 51.3411 32.1579 50.9289C32.6663 46.5838 32.761 37.6601 32.761 37.6601C32.8218 37.1401 32.8218 35.8817 32.8028 34.1911C32.7221 34.0704 32.6453 33.9466 32.5736 33.8249ZM30.1205 0.441145C30.1225 0.482061 30.1305 0.549922 30.1614 0.650716C32.1001 6.91591 32.6294 18.0282 32.6244 28.3671L32.7231 28.2174C32.6992 25.6596 32.6972 22.9402 32.7769 20.5171C32.9783 14.4495 31.4303 4.16553 31.7174 4.16553C31.7443 4.16553 31.7861 4.25535 31.8489 4.44696C32.5736 6.68937 33.3879 9.96967 33.366 14.4874C33.3481 18.0871 33.2524 20.3365 33.6381 20.3365C33.7368 20.3365 33.8664 20.1918 34.0368 19.8854C37.3261 10.7501 43.2309 6.71432 43.831 6.71432C43.9386 6.71432 43.8748 6.84206 43.5997 7.09354C39.1482 11.2271 36.7031 15.4614 35.3934 19.3425C35.5599 19.115 35.7383 18.8924 35.9267 18.6749C37.7418 13.7609 41.1028 8.96173 46.8422 4.90103C46.9259 4.84015 47.0096 4.78227 47.0864 4.72638C41.4617 5.18345 35.3944 14.2868 33.8753 19.3425C33.8474 19.4373 33.7627 19.4982 33.667 19.4982L33.6291 19.4942C33.5205 19.4752 33.4428 19.3784 33.4497 19.2667C34.302 5.27825 30.9219 1.18962 30.5332 0.768479C30.3348 0.555913 30.1923 0.470086 30.1205 0.441145Z" fill="#4C9811"/>
<path d="M34.7375 36.3587C34.7884 36.6391 34.8392 36.9176 34.892 37.19C36.5765 47.6895 36.5985 50.8012 36.3882 51.6714L36.5427 51.7293L36.5656 51.7383C36.9623 50.1505 36.2985 44.5939 35.1073 37.1571C35.0685 36.9665 35.0336 36.7759 34.9987 36.5872C34.91 36.5104 34.8232 36.4346 34.7375 36.3587ZM32.3742 33.4576C32.2137 43.2377 31.6715 51.3541 31.5977 52.4319L31.6436 52.4329L31.816 52.4289C31.8948 51.2772 32.4111 43.3834 32.5746 33.8249C32.5108 33.7151 32.451 33.6053 32.3931 33.4966L32.3742 33.4576ZM30.0767 0.212616C29.9112 0.212616 29.8524 0.39125 29.9541 0.713591C31.9197 7.06461 32.438 18.3166 32.4191 28.7183C32.4839 28.5966 32.5516 28.4808 32.6244 28.3671C32.6294 18.0282 32.1011 6.91591 30.1614 0.650716C30.1305 0.549922 30.1225 0.482061 30.1205 0.441145C30.1923 0.470086 30.3348 0.555913 30.5332 0.769476C30.9219 1.19062 34.302 5.28025 33.4497 19.2677C33.4427 19.3784 33.5195 19.4762 33.6291 19.4952L33.667 19.4992C33.7627 19.4992 33.8474 19.4373 33.8753 19.3435C35.3934 14.2888 41.4617 5.18445 47.0864 4.72738C47.0096 4.78327 46.9259 4.84115 46.8422 4.90203C41.1028 8.96173 37.7418 13.7619 35.9267 18.6759C36.0453 18.5381 36.1689 18.4054 36.2975 18.2737C40.2018 8.26216 48.421 4.50883 47.6127 4.49386L47.522 4.49286C41.5693 4.49286 35.1562 14.3248 33.668 19.2806C34.5422 4.912 30.9229 0.212616 30.0767 0.212616Z" fill="#387010"/>
<path d="M38.3418 25.7813C38.3418 25.7813 33.5604 25.5917 32.1858 29.8131C30.8103 34.0365 36.6064 38.5951 43.203 40.6659C49.7995 42.7347 53.9899 45.6348 53.5952 49.7643C53.2015 53.8949 56.2077 43.061 55.0604 40.2108C53.9122 37.3627 55.8269 39.8965 56.0213 41.3156C56.103 41.9104 55.6645 36.8707 54.0069 31.829C51.7203 24.8702 47.1103 17.9114 38.3418 25.7813Z" fill="#8BC541"/>
<path d="M53.6281 50.911L53.4437 50.8251C53.364 50.7353 53.2992 50.5856 53.3789 49.7443C53.7298 46.1008 50.282 43.1159 43.1362 40.8735C38.1056 39.2937 33.8883 36.3986 32.3932 33.4956C31.7283 32.2032 31.5898 30.9418 31.9805 29.7462C33.2913 25.7145 37.5584 25.5598 38.2611 25.5628C40.8955 23.2136 43.3465 22.041 45.5504 22.0779C48.2217 22.1228 50.5232 23.9152 52.3941 27.404C55.0176 32.3 56.1529 39.6859 56.2237 41.2068L56.2386 41.2856L56.2267 41.2597C56.2316 41.3834 56.2267 41.4603 56.2117 41.4812C56.1698 41.5461 56.0961 41.593 56.0173 41.582C55.8977 41.575 55.827 41.4952 55.806 41.3465C55.7263 40.7627 55.3475 40.0192 55.0475 39.5552C55.0973 39.7029 55.1671 39.8925 55.2638 40.131C56.1878 42.4253 54.4953 49.8701 53.8912 50.7503C53.8145 50.8571 53.7278 50.912 53.6281 50.911ZM38.3308 25.9989C37.8245 25.9889 33.6461 26.0338 32.3922 29.882C32.0403 30.9637 32.1699 32.1124 32.7799 33.298C34.2242 36.1022 38.3398 38.9125 43.2668 40.4583C50.6289 42.7676 54.1753 45.9022 53.8135 49.7743C54.4444 47.7374 55.6166 42.1748 54.8601 40.2937C54.4016 39.159 54.4484 38.9414 54.5362 38.8147C54.588 38.7398 54.6667 38.6979 54.7574 38.7009C54.9777 38.7039 55.2987 39.0971 55.5897 39.6041C54.886 34.9446 52.3662 22.6278 45.5424 22.514C43.4372 22.4791 41.063 23.6327 38.4883 25.944L38.3348 26.0009H38.3308V25.9989Z" fill="#66913E"/>
<path d="M50.8073 42.0171C50.9687 37.8038 47.4711 33.9097 44.8676 30.9548C43.6645 29.5916 42.2172 28.4609 41.0371 27.0777C39.811 25.6426 41.7188 23.8064 44.2556 23.1587C44.6084 23.0679 44.9762 23.022 45.355 23.022C50.1125 23.022 56.4071 30.2582 53.8683 46.504C53.8683 46.504 51.5628 41.2946 44.8576 39.2777C38.1504 37.2609 31.9556 33.9456 33.4936 29.6724C34.1973 28.0687 35.5369 26.9569 37.1278 26.9569C37.2135 26.9569 37.3012 26.9609 37.3879 26.9679C37.8384 27.0018 38.3079 27.1236 38.7854 27.3491C40.1828 28.0048 41.4387 29.0756 42.6687 30.0027C45.1377 31.8629 47.1272 34.281 48.6543 36.9675C49.5603 38.5692 50.2032 40.2827 50.8073 42.0171ZM45.4467 22.512C43.3645 22.512 41.0241 23.6657 38.4873 25.943L38.3528 26.0009L38.3328 25.9999H38.3308L38.2641 25.9989C37.5314 25.9989 33.6012 26.1725 32.3922 29.883C32.0403 30.9647 32.1699 32.1134 32.7799 33.299C34.2242 36.1032 38.3398 38.9135 43.2668 40.4593C50.6289 42.7686 54.1753 45.9032 53.8135 49.7753C54.4444 47.7384 55.6166 42.1758 54.8601 40.2947C54.4016 39.16 54.4484 38.9424 54.5361 38.8157C54.586 38.7418 54.6657 38.7019 54.7524 38.7019H54.7574C54.9777 38.7049 55.2987 39.0981 55.5897 39.6051C54.886 34.9456 52.3662 22.6288 45.5424 22.515L45.4467 22.512Z" fill="#59A11B"/>
<path d="M38.3528 25.9999L38.4873 25.942C41.0251 23.6657 43.3655 22.511 45.4467 22.511L45.5414 22.512C52.3652 22.6258 54.885 34.9426 55.5887 39.6021C55.2977 39.0951 54.9767 38.7019 54.7564 38.6989H54.7514C54.6647 38.6989 54.585 38.7389 54.5351 38.8127C54.4474 38.9394 54.4006 39.158 54.8591 40.2917C55.6156 42.1728 54.4434 47.7355 53.8125 49.7723C54.1743 45.9002 50.6279 42.7656 43.2658 40.4563C38.3398 38.9105 34.2242 36.1002 32.7789 33.296C32.1699 32.1104 32.0403 30.9617 32.3912 29.88C33.6002 26.1695 37.5295 25.9959 38.2631 25.9959L38.3299 25.9969H38.3318L38.3528 25.9999ZM45.4457 22.2945C43.4522 22.2945 41.1028 23.3024 38.3418 25.7813L38.2491 25.7793C37.5793 25.7793 33.4487 25.938 32.1858 29.8131C30.8103 34.0365 36.6064 38.5951 43.203 40.6659C49.7995 42.7347 53.9899 45.6348 53.5952 49.7643C53.5344 50.412 53.5563 50.6934 53.6321 50.6934C54.0418 50.6934 56.0293 42.6139 55.0604 40.2108C54.6807 39.2688 54.6348 38.9155 54.7514 38.9155C54.9887 38.9155 55.8907 40.3655 56.0203 41.3156L56.0293 41.3635C56.0492 41.3635 55.5728 36.5962 54.0059 31.829C52.44 27.0627 49.7826 22.2945 45.4457 22.2945Z" fill="#417719"/>
<path d="M51.1073 42.5401C51.0076 42.5381 50.9199 42.4682 50.898 42.3664C49.0261 33.3848 38.3279 26.0338 38.2192 25.962C38.1195 25.8941 38.0926 25.7584 38.1604 25.6586C38.2282 25.5588 38.3628 25.5338 38.4634 25.5997C38.5721 25.6746 49.4168 33.1213 51.3236 42.2776C51.3475 42.3944 51.2728 42.5101 51.1552 42.5351L51.1073 42.5401Z" fill="#66913E"/>
<path d="M37.971 28.1196C37.7238 28.1196 37.4726 28.1585 37.2095 28.2453C37.2015 28.2483 34.8292 29.0337 37.6232 31.2432C38.3657 31.831 43.9406 35.6591 45.7427 35.6591C46.0029 35.6591 46.1823 35.5793 46.2611 35.3987C46.4903 34.8598 45.8295 33.9317 45.5314 33.6133C44.8576 32.8998 44.2297 32.1433 43.5449 31.4448C42.3837 30.2652 40.5935 28.907 39.0196 28.3281C38.6568 28.1964 38.3179 28.1196 37.971 28.1196Z" fill="#A2D167"/>
<path d="M33.0032 26.454C33.0032 26.454 33.5992 16.8835 41.8793 15.7169C46.7744 15.5812 50.6558 17.4963 53.5404 20.5929C56.424 23.6896 57.054 24.8971 56.6891 27.2863C56.6891 27.2863 52.8456 23.0848 48.9503 22.04C45.052 20.9951 43.3266 20.096 40.2576 21.6767C37.1876 23.2585 33.1806 28.7423 33.0032 26.454Z" fill="#ADD268"/>
<path d="M33.3859 27.2224C33.1836 27.2194 32.8377 27.1176 32.7859 26.4709C32.7919 26.3432 33.4886 16.6799 41.8494 15.5024C42.1375 15.4934 42.3986 15.4914 42.6578 15.4954C46.9947 15.5682 50.7086 17.2328 53.6989 20.4452C56.5326 23.487 57.2962 24.7574 56.9044 27.3192C56.8925 27.402 56.8337 27.4699 56.7529 27.4938C56.6722 27.5188 56.5875 27.4958 56.5297 27.433C56.4918 27.3921 52.6832 23.2665 48.8945 22.2506C48.3393 22.1029 47.829 21.9572 47.3505 21.8204C45.8594 21.3943 44.6812 21.058 43.5519 21.039C42.4933 21.0211 41.5105 21.2775 40.3583 21.8723C39.1013 22.519 37.672 23.8453 36.4121 25.0159C34.8851 26.431 33.993 27.2314 33.3859 27.2224ZM42.6488 15.9315C42.3976 15.9255 42.1434 15.9275 41.8843 15.9345C33.9022 17.0612 33.2245 26.3731 33.2195 26.4669C33.2474 26.7843 33.353 26.7863 33.3939 26.7863C33.8544 26.7953 35.0027 25.7265 36.1141 24.6956C37.3949 23.507 38.8472 22.1577 40.1589 21.4821C41.3769 20.8554 42.4245 20.585 43.5578 20.6019C44.746 20.6229 45.9481 20.9652 47.4681 21.4003C47.9436 21.537 48.4529 21.6807 49.0051 21.8294C52.3144 22.7176 55.5259 25.7793 56.5317 26.8052C56.734 24.8323 56.0731 23.6307 53.3799 20.7406C50.4734 17.619 46.8631 16.0003 42.6488 15.9315Z" fill="#759F46"/>
<path d="M33.9541 23.9281C34.6279 22.3174 35.2818 20.6428 36.4809 19.3395C36.9593 18.8166 37.4796 18.3216 38.0617 17.9144C39.0306 17.2368 40.1739 16.658 41.3371 16.4235C41.8534 16.3197 42.3777 16.2738 42.904 16.2738C44.117 16.2738 45.3381 16.5123 46.4953 16.8167C47.2628 17.0203 48.0193 17.2887 48.735 17.632C51.199 18.8176 53.1586 20.8245 54.6677 23.0769C55.1023 23.7225 55.6635 24.5129 55.8309 25.2923C55.8499 25.3851 55.8708 25.6945 55.7642 25.6945L55.6296 25.5967C54.28 23.978 51.7402 22.0849 50.5122 21.7386C49.2862 21.3913 49.4278 21.6109 45.353 20.4532C44.8307 20.3075 44.3064 20.2397 43.7881 20.2397C40.2526 20.2397 36.9005 23.3353 35.4203 24.8602C34.6169 25.6875 34.2302 26.0109 34.1056 26.0109C33.969 26.0109 34.1614 25.6107 34.4764 25.0628C35.1193 23.9391 35.8918 22.8583 36.753 21.8923C37.8684 20.6418 39.0585 19.607 40.5795 18.8964C41.5444 18.4483 42.605 18.1829 43.6665 18.1829C44.2008 18.1829 44.733 18.2497 45.2563 18.3934C44.8676 17.5991 44.2586 17.4813 43.4372 17.4813H43.4004C41.373 17.4893 39.6266 18.125 38.0388 19.3824C36.428 20.6598 35.1901 22.3015 33.9541 23.9281ZM42.3617 15.9275C42.2043 15.9275 42.0468 15.9295 41.8843 15.9345C33.9023 17.0612 33.2245 26.3731 33.2195 26.4669C33.2474 26.7843 33.3531 26.7863 33.3939 26.7863H33.3969C33.8624 26.7863 35.0067 25.7245 36.1151 24.6956C37.3959 23.507 38.8482 22.1577 40.1599 21.4821C41.3381 20.8754 42.3568 20.6019 43.4492 20.6019H43.5589C44.747 20.6229 45.9491 20.9652 47.4691 21.4003C47.9446 21.537 48.4539 21.6807 49.0061 21.8294C52.3154 22.7176 55.5269 25.7793 56.5327 26.8052C56.735 24.8323 56.0741 23.6307 53.3809 20.7406C50.4744 17.619 46.8641 16.0003 42.6498 15.9315C42.5541 15.9285 42.4594 15.9275 42.3617 15.9275Z" fill="#75AD2A"/>
<path d="M33.3969 26.7863H33.3939C33.353 26.7863 33.2484 26.7843 33.2195 26.4669C33.2255 26.3731 33.9033 17.0612 41.8843 15.9345C42.0458 15.9295 42.2033 15.9275 42.3617 15.9275C42.4594 15.9275 42.5531 15.9285 42.6488 15.9315C46.8621 16.0003 50.4734 17.619 53.3799 20.7406C56.0732 23.6307 56.734 24.8333 56.5317 26.8052C55.5259 25.7793 52.3154 22.7166 49.0051 21.8294C48.4529 21.6817 47.9426 21.537 47.4681 21.4003C45.9491 20.9652 44.747 20.6239 43.5579 20.6019H43.4482C42.3558 20.6019 41.3371 20.8744 40.1589 21.4821C38.8472 22.1577 37.3949 23.506 36.1141 24.6956C35.0067 25.7245 33.8624 26.7863 33.3969 26.7863ZM42.3657 15.7109C42.2043 15.7109 42.0428 15.7129 41.8793 15.7169C33.5983 16.8835 33.0032 26.454 33.0032 26.454C33.0331 26.8392 33.1716 27.0048 33.3969 27.0048C34.5053 27.0048 37.7049 22.992 40.2586 21.6767C41.4577 21.06 42.4505 20.8205 43.4482 20.8205C45.0061 20.8205 46.575 21.4033 48.9513 22.041C52.8456 23.0859 56.6901 27.2873 56.6901 27.2873C57.055 24.8971 56.424 23.6906 53.5414 20.5939C50.7525 17.6001 47.0316 15.7109 42.3657 15.7109Z" fill="#4F831D"/>
<path d="M33.1746 27.0368L33.0939 27.0188C32.9832 26.9719 32.9314 26.8432 32.9802 26.7334C33.0271 26.6206 37.8973 15.4794 45.1357 17.9593C45.2483 17.9982 45.3111 18.122 45.2703 18.2348C45.2324 18.3485 45.1088 18.4104 44.9952 18.3705C38.1285 16.0233 33.4258 26.7943 33.3799 26.904C33.3421 26.9879 33.2603 27.0388 33.1746 27.0368Z" fill="#66913E"/>
<path d="M33.2713 44.9791L33.1268 45.0689C33.1268 45.0689 32.3902 50.1196 33.0381 50.2922L33.065 50.2952C33.357 50.2952 33.5574 48.9659 33.6092 47.6377C33.662 46.3074 33.5683 44.9791 33.2713 44.9791Z" fill="#A2D167"/>
<path d="M35.4452 46.0748L35.3296 46.1417C35.3296 46.1417 35.0715 49.2084 35.5898 49.2643L35.6017 49.2653C35.834 49.2653 35.9107 48.467 35.8709 47.6706C35.832 46.8742 35.6755 46.0748 35.4452 46.0748Z" fill="#A2D167"/>
<path d="M42.8741 18.7188C42.6598 18.7188 42.4106 18.7487 42.1494 18.8116C41.4467 18.9783 40.9264 19.3156 40.9852 19.5631C41.0221 19.7197 41.2802 19.8036 41.6371 19.8036C41.8514 19.8036 42.1006 19.7736 42.3617 19.7107C43.0635 19.5451 43.5838 19.2078 43.5249 18.9593C43.4881 18.8036 43.2299 18.7188 42.8741 18.7188Z" fill="#BDDB86"/>
</svg>
