<svg width="52" height="107" viewBox="0 0 52 107" fill="none" xmlns="http://www.w3.org/2000/svg">
<path d="M5.30823 74.7286L8.81667 100.773C8.87032 104.294 16.5907 107.03 26.0678 106.887C35.5418 106.742 43.1807 103.774 43.1271 100.257L47.1979 72.4529L5.30823 74.7286Z" fill="#AA6B28"/>
<path d="M5.30819 74.7286L5.41451 74.7126L8.92196 100.758L8.92394 100.771C8.93984 102.403 10.7363 103.925 13.7132 105.019C16.6811 106.113 20.7956 106.784 25.3593 106.784C25.5928 106.784 25.8293 106.783 26.0657 106.779C30.7764 106.708 35.0311 105.935 38.0994 104.748C41.1746 103.563 43.0297 101.956 43.0187 100.293V100.26L43.0197 100.241L47.0707 72.5686L5.31316 74.8353L5.30819 74.7286L5.30124 74.6199L47.1919 72.3462L47.2773 72.3801L47.3042 72.4709L43.2343 100.273L43.127 100.257L43.2343 100.255L43.2353 100.293C43.2244 102.132 41.271 103.751 38.1759 104.951C35.0768 106.149 30.8003 106.923 26.0677 106.995C25.8312 106.999 25.5948 107 25.3583 107C20.7728 107 16.6403 106.328 13.6386 105.223C10.6419 104.115 8.7451 102.58 8.70833 100.776L8.81564 100.774L8.70833 100.789L5.19989 74.7445L5.22374 74.6608L5.29925 74.6209L5.30819 74.7286Z" fill="#2E1010"/>
<path d="M5.30823 74.7286L8.81667 100.773C8.87032 104.294 16.5907 107.03 26.0678 106.887C35.5418 106.742 43.1807 103.774 43.1271 100.257L47.1979 72.4529L5.30823 74.7286Z" fill="#F9A84C"/>
<path d="M5.30819 74.7286L5.41451 74.7126L8.92196 100.758L8.92394 100.771C8.93984 102.403 10.7363 103.925 13.7132 105.019C16.6811 106.113 20.7956 106.784 25.3593 106.784C25.5928 106.784 25.8293 106.783 26.0657 106.779C30.7764 106.708 35.0311 105.935 38.0994 104.748C41.1746 103.563 43.0297 101.956 43.0187 100.293V100.26L43.0197 100.241L47.0707 72.5686L5.31316 74.8353L5.30819 74.7286L5.30124 74.6199L47.1919 72.3462L47.2773 72.3801L47.3042 72.4709L43.2343 100.273L43.127 100.257L43.2343 100.255L43.2353 100.293C43.2244 102.132 41.271 103.751 38.1759 104.951C35.0768 106.149 30.8003 106.923 26.0677 106.995C25.8312 106.999 25.5948 107 25.3583 107C20.7728 107 16.6403 106.328 13.6386 105.223C10.6419 104.115 8.7451 102.58 8.70833 100.776L8.81564 100.774L8.70833 100.789L5.19989 74.7445L5.22374 74.6608L5.29925 74.6209L5.30819 74.7286Z" fill="#7C4317"/>
<path d="M42.5269 79.7776L39.9634 98.0818C39.9634 98.0818 38.8664 103.83 31.8327 105.359C31.0288 105.532 30.2359 105.615 29.4589 105.615C23.4277 105.615 18.4139 100.624 17.9867 94.7729C17.475 87.7145 17.475 81.7192 17.475 81.7192C17.475 81.7192 21.7028 82.4063 27.1478 82.4063C32.0175 82.4073 37.8589 81.8588 42.5269 79.7776Z" fill="#FAB76A"/>
<path d="M5.65002 76.4558C6.84435 77.5208 8.53945 78.4682 10.6091 79.257C12.338 79.9182 14.3342 80.4667 16.5221 80.8765C15.9458 80.9404 15.2076 80.9912 14.3233 80.9912C13.1657 80.9912 11.7617 80.9034 10.1501 80.6392C10.1501 80.6392 10.0179 80.5215 9.854 80.5215C9.59367 80.5215 9.25485 80.8177 9.23299 82.3484C9.19722 84.8505 11.5421 99.9935 11.5421 99.9935C11.5421 99.9935 11.9942 103.897 17.4134 105.36C19.2277 105.849 22.1638 106.245 25.4577 106.245C31.9042 106.245 39.717 104.726 43.139 99.427L43.0197 100.241L43.0188 100.26V100.293C43.0297 101.956 41.1746 103.563 38.0994 104.748C35.0311 105.935 30.7765 106.708 26.0658 106.779C25.8293 106.783 25.5928 106.784 25.3593 106.784C20.7956 106.784 16.6821 106.113 13.7132 105.019C10.7363 103.925 8.93888 102.403 8.92397 100.771L8.92199 100.758L5.65002 76.4558Z" fill="#DE9342"/>
<path d="M5.52582 76.3431C5.56556 76.38 5.60729 76.4189 5.65002 76.4558L8.92198 100.758L8.92397 100.771C8.93987 102.403 10.7363 103.925 13.7132 105.019C16.6811 106.113 20.7956 106.784 25.3593 106.784C25.5928 106.784 25.8293 106.783 26.0658 106.779C30.7765 106.708 35.0311 105.935 38.0994 104.748C41.1746 103.563 43.0297 101.956 43.0188 100.293V100.26L43.0197 100.241L43.139 99.427C43.1867 99.3522 43.2354 99.2764 43.2811 99.1997L43.1271 100.257C43.1807 103.774 35.5418 106.743 26.0677 106.887C25.8303 106.89 25.5948 106.893 25.3593 106.893C16.2091 106.893 8.86733 104.207 8.81666 100.773L5.52582 76.3431Z" fill="#6F3B14"/>
<path d="M48.1657 67.5475L44.1167 67.7051C40.1104 65.4224 33.4741 63.9306 25.9574 63.9306C17.5734 63.9306 10.2773 65.7874 6.51247 68.5258C4.94753 68.0352 3.35974 67.5266 3.35974 67.5266L3.82276 73.1968H3.82475C4.38515 77.8768 14.0798 81.6045 25.9574 81.6045C37.9742 81.6045 47.7464 77.7931 48.1021 73.0353L48.1657 72.9635V67.7699L48.1617 67.7849L48.1657 67.5475Z" fill="#F9A72B"/>
<path d="M48.1656 67.5475L48.1706 67.6552L44.1217 67.8118L44.063 67.7978C40.0816 65.5311 33.4582 64.0373 25.9565 64.0373C17.5883 64.0353 10.3051 65.8961 6.57407 68.6126L6.47868 68.6285C4.91375 68.1369 3.32496 67.6283 3.32496 67.6283L3.35775 67.5266L3.46605 67.5166L3.92908 73.1869L3.82077 73.1968V73.0881H3.82276L3.93007 73.1829C4.19536 75.4496 6.71715 77.5458 10.6846 79.0566C14.6462 80.5674 20.0276 81.4978 25.9565 81.4978C31.9519 81.4978 37.3889 80.5454 41.3624 79.0037C45.3398 77.462 47.8308 75.3279 47.9938 73.0273L48.0216 72.9635L48.0583 72.9236V67.7709H48.1647L48.269 67.8008L48.264 67.8158L48.1438 67.8936L48.0524 67.7829L48.0573 67.5465L48.1656 67.5475L48.274 67.5505L48.27 67.7869L48.1617 67.7849L48.0583 67.7549L48.0623 67.739L48.1815 67.6632L48.274 67.7699V72.9635L48.2461 73.0363L48.1825 73.1081L48.1021 73.0353L48.2084 73.0423C48.0176 75.4994 45.4412 77.6495 41.4399 79.2052C37.4337 80.7608 31.9757 81.7142 25.9565 81.7142C20.0067 81.7142 14.6025 80.7808 10.6091 79.257C6.61779 77.7342 4.01254 75.6251 3.71744 73.2108L3.82375 73.1978V73.3045H3.82177L3.71545 73.2058L3.25143 67.5336L3.29217 67.4398L3.39153 67.4209C3.39551 67.4209 4.97932 67.9295 6.54426 68.4211L6.51247 68.5238L6.44888 68.4361C10.2484 65.6757 17.5565 63.8209 25.9584 63.8199C33.49 63.8209 40.1383 65.3127 44.1713 67.6083L44.1177 67.7031L44.1137 67.5944L48.1627 67.4378L48.2422 67.4687L48.2749 67.5485L48.1656 67.5475Z" fill="#7C4317"/>
<path d="M48.1656 67.5475C48.1656 72.4619 38.1351 76.4428 25.7617 76.4428C13.3892 76.4428 3.35873 72.4619 3.35873 67.5475C3.35873 62.6362 13.3892 58.6532 25.7617 58.6532C38.1361 58.6532 48.1656 62.6362 48.1656 67.5475Z" fill="#F9A84C"/>
<path d="M48.1657 67.5475H48.275C48.266 70.0875 45.7095 72.3223 41.6446 73.9388C37.5718 75.5543 31.9599 76.5505 25.7627 76.5505C19.5646 76.5505 13.9526 75.5543 9.88182 73.9388C5.81695 72.3223 3.26039 70.0875 3.25244 67.5475C3.26039 65.0086 5.81695 62.7748 9.88182 61.1573C13.9536 59.5418 19.5646 58.5455 25.7627 58.5455C31.9599 58.5455 37.5728 59.5418 41.6446 61.1573C45.7095 62.7748 48.266 65.0086 48.275 67.5475H48.1657H48.0594C48.0663 65.1751 45.6081 62.9613 41.5651 61.3587C37.5281 59.7572 31.938 58.7619 25.7627 58.7619C19.5884 58.7619 13.9974 59.7572 9.96131 61.3587C5.9183 62.9613 3.45911 65.1751 3.46905 67.5475C3.45911 69.9229 5.9183 72.1348 9.96131 73.7374C13.9983 75.3399 19.5884 76.3351 25.7627 76.3351C31.938 76.3351 37.5291 75.3409 41.5651 73.7374C45.6081 72.1348 48.0663 69.9229 48.0594 67.5475H48.1657Z" fill="#7C4317"/>
<path d="M47.4562 67.377C47.4562 71.8157 37.7665 75.4157 25.8124 75.4157C13.8563 75.4157 4.16855 71.8167 4.16855 67.377C4.16855 62.9393 13.8563 59.3403 25.8124 59.3403C37.7665 59.3403 47.4562 62.9383 47.4562 67.377Z" fill="#C7883C"/>
<path d="M47.4562 67.377H47.5635C47.5526 69.6846 45.0815 71.701 41.1547 73.1619C37.221 74.6229 31.7999 75.5234 25.8124 75.5234C19.8239 75.5234 14.4027 74.6229 10.47 73.1619C6.54425 71.701 4.07115 69.6856 4.06122 67.377C4.07115 65.0694 6.54425 63.054 10.47 61.5921C14.4017 60.1331 19.8229 59.2326 25.8124 59.2326C31.7999 59.2326 37.221 60.1331 41.1547 61.5921C45.0815 63.054 47.5526 65.0684 47.5635 67.377H47.4562H47.3489C47.3598 65.2459 44.9861 63.2435 41.0792 61.7955C37.1783 60.3475 31.778 59.448 25.8124 59.448C19.8447 59.448 14.4435 60.3465 10.5445 61.7955C6.63765 63.2425 4.2659 65.2459 4.27584 67.377C4.26491 69.5081 6.63765 71.5115 10.5445 72.9585C14.4445 74.4075 19.8447 75.307 25.8124 75.307C31.778 75.307 37.1783 74.4075 41.0792 72.9585C44.9861 71.5115 47.3588 69.5081 47.3489 67.377H47.4562Z" fill="#7C4317"/>
<path d="M11.8968 66.1883C11.8968 66.1883 11.4944 65.1602 14.985 63.8907C18.4765 62.6222 19.2734 64.858 19.2734 64.858C19.2734 64.858 19.1631 63.8977 21.0391 62.689C22.914 61.4824 25.6912 63.434 25.6912 63.434C28.7346 62.0348 31.0199 65.1721 31.0199 65.1721C33.81 62.3829 38.5405 65.1253 38.5405 65.1253C43.3427 64.0841 44.5191 68.0162 44.5191 68.0162C45.6975 67.9724 46.5719 68.3693 47.2217 68.9187C44.8559 72.419 36.4798 75.1624 26.4443 75.4047C15.5961 75.669 6.54724 72.9226 4.88593 69.0942C6.10906 67.8507 8.33078 67.4707 8.33078 67.4707C9.41481 65.8911 11.8968 66.1883 11.8968 66.1883Z" fill="#584521"/>
<path d="M11.7925 66.2162C11.4487 65.0305 14.3073 64.1081 14.9472 63.8588C16.2757 63.3402 18.409 63.0929 19.2496 64.5798C19.3718 64.7982 19.336 64.7812 19.2784 64.7653C19.2347 64.7513 19.178 64.7403 19.1681 64.8311C19.2068 64.4691 19.3708 64.2078 19.5616 63.9086C20.0971 63.065 21.0858 62.5145 22.0267 62.2841C22.8703 62.0767 23.8281 62.4347 24.5972 62.7429C24.9946 62.9044 25.3742 63.1298 25.7349 63.3602C25.5868 63.2644 27.0812 63.043 26.9103 63.048C27.9924 63.0081 28.8667 63.2784 29.7838 63.8638C30.1863 64.122 30.533 64.4731 30.8599 64.8181C31.2941 65.2808 31.3408 64.7024 31.8992 64.4431C33.9322 63.4978 36.0714 63.9037 38.0596 64.7922C38.5743 65.0215 39.0294 64.9767 39.5133 64.9298C39.8084 64.9029 40.1144 64.874 40.4522 64.9099C41.5402 65.0176 42.4434 65.3327 43.2989 66.0228C43.8544 66.4715 44.2647 67.1267 44.5469 67.7759C44.6572 68.0302 46.8322 68.5188 47.3211 68.8818L47.3181 68.9167C45.5574 71.339 42.4872 72.5207 39.7508 73.4172C35.4653 74.8213 30.8887 75.316 26.4036 75.4556C21.7167 75.6032 16.9613 75.1544 12.4334 73.9168C9.696 73.1669 6.12198 71.8755 4.78458 69.1222L4.80644 69.0843C5.96797 68.0731 7.48223 67.8966 8.61296 67.0409C9.59266 66.302 10.7453 66.0228 11.9644 66.1394C12.0757 66.1494 11.8859 66.2422 11.8323 66.2372C10.4352 66.1045 9.37407 67.2883 8.04859 67.5755C6.88805 67.8278 4.4537 68.4361 5.49699 69.9229C5.86761 70.4505 6.38727 70.8693 6.89103 71.2612C10.2802 73.8969 15.2453 74.6179 19.3579 75.0836C25.0294 75.7238 30.8768 75.3868 36.454 74.205C38.8605 73.6955 41.2233 72.9346 43.4341 71.8456C44.2826 71.4268 45.0765 70.9062 45.8187 70.3208C46.1278 70.0695 46.4129 69.7963 46.6772 69.5001C47.7553 68.3513 44.5827 68.0721 44.4774 68.0691L44.4158 68.0471C43.598 65.4982 40.9471 64.7493 38.5227 65.1741C38.2931 65.214 37.7933 64.841 37.5936 64.7523C35.4911 63.8139 32.9962 63.5387 31.1014 65.1851L30.9215 65.212C30.6324 64.8301 30.2836 64.508 29.9229 64.1958C28.4673 62.9423 27.6694 63.437 25.6464 63.4858C25.2937 63.4948 24.7582 62.9922 24.4243 62.8336C22.8276 62.0757 19.3221 62.6611 19.3758 64.8321L19.1681 64.8869C18.8531 64.1051 18.0751 63.7341 17.2931 63.5776C17.8516 63.6892 11.4547 64.2786 11.9992 66.1624L11.7925 66.2162Z" fill="#403215"/>
<path d="M38.2554 65.8792C38.2554 65.8792 42.1205 65.202 42.8667 67.2593C43.6119 69.3176 46.1158 68.2047 44.5082 69.9828C42.9025 71.7598 40.4125 71.8476 39.2897 70.8873C38.1679 69.9259 37.7705 68.5627 35.5398 68.7512C33.3082 68.9407 34.6943 67.1536 36.0138 67.1337C37.3323 67.1137 34.8741 65.4464 33.809 65.3247C32.7428 65.204 36.0843 64.0203 38.2554 65.8792Z" fill="#6C562B"/>
<path d="M28.5945 67.9155C28.5945 67.9155 29.4728 66.8524 32.084 66.7876C34.6963 66.7248 33.2078 67.7859 33.329 68.2875C33.4513 68.7901 31.7174 69.7893 31.7174 69.7893C31.7174 69.7893 30.9801 68.0421 28.5945 67.9155Z" fill="#6C562B"/>
<path d="M29.7451 65.4972C30.0133 65.4803 28.1374 63.4399 26.2227 64.0752C25.3533 64.3634 24.5415 64.15 23.7695 63.9366C22.8375 63.6793 21.9641 63.421 21.1255 64.0472C19.5913 65.1921 20.273 66.1375 20.273 66.1375C20.273 66.1375 25.1198 66.0886 25.5868 68.2077C25.5868 68.2077 27.0395 65.6737 29.7451 65.4972Z" fill="#6C562B"/>
<path d="M16.9086 67.8886C16.9563 67.9006 17.3478 67.8297 17.9221 67.7609C19.5119 67.5705 22.5036 67.379 23.5618 68.8709C23.5618 68.8709 24.16 69.3096 23.0094 70.257C21.8588 71.2034 21.0232 71.4826 21.052 72.6564C21.052 72.6564 19.5029 69.2528 13.4578 70.7337C7.41366 72.2146 6.72609 69.6088 7.95518 68.8679C9.18229 68.1279 11.6246 69.1601 11.6246 69.1601C11.6246 69.1601 12.5606 66.8744 16.9086 67.8886Z" fill="#6C562B"/>
<path d="M13.3823 65.9679C13.3823 65.9679 14.6998 64.3923 16.5023 64.7533C18.3086 65.1143 12.8776 67.5984 13.3823 65.9679Z" fill="#775E30"/>
<path d="M24.1133 71.9673C24.1133 71.9673 26.0896 70.3936 28.673 71.1445C28.673 71.1445 28.8936 73.6935 29.4897 73.6546C30.0869 73.6157 31.0378 69.9319 34.1686 70.2331C37.3025 70.5352 38.6896 71.8256 37.3969 72.8867C36.1032 73.9448 29.9359 75.2362 26.1959 74.9221C22.4559 74.6089 23.1853 72.9545 24.1133 71.9673Z" fill="#6C562B"/>
<path d="M15.9061 71.9014C15.9061 71.9014 18.4994 71.5793 19.6728 73.132C20.8463 74.6847 15.449 74.3726 13.5264 73.4661C11.5988 72.5576 15.612 71.9194 15.9061 71.9014Z" fill="#6C562B"/>
<path d="M24.5554 60.0274C34.2879 60.0274 41.4836 62.701 41.4836 62.701C42.8717 63.4519 41.5879 64.5139 39.6385 64.5139C38.773 64.5139 37.7764 64.3035 36.8245 63.765C36.0346 63.3183 35.3063 63.1677 34.6396 63.1677C33.9649 63.1677 33.3549 63.3193 32.8074 63.4728C32.2619 63.6244 31.782 63.778 31.3686 63.778C30.997 63.778 30.6811 63.6563 30.4197 63.3033C29.8872 62.5843 28.8786 62.3938 27.9586 62.3938C26.9153 62.3938 25.9842 62.6391 25.9842 62.6391C25.9842 62.6391 25.7696 61.7058 22.9408 61.7058C22.7958 61.7058 22.6437 61.7077 22.4857 61.7127C19.2267 61.8164 18.8104 63.3871 18.8104 63.3871C18.5461 62.3878 16.219 62.4457 15.8593 61.5582C15.5007 60.6726 16.8559 60.6128 16.8559 60.6128C19.5317 60.1949 22.1221 60.0274 24.5554 60.0274Z" fill="#D09C5D"/>
<path d="M38.1967 66.64C38.2782 66.4845 39.3155 65.8283 41.2382 66.5662C43.1608 67.3052 42.0867 68.3114 40.6152 68.0781C39.1436 67.8427 37.9175 67.1875 38.1967 66.64Z" fill="#7C6232"/>
<path d="M30.7397 67.2424C30.7397 67.2424 32.0622 66.9901 31.8327 67.5266C31.6032 68.0621 29.4162 67.4927 30.7397 67.2424Z" fill="#7C6232"/>
<path d="M20.6972 65.4673C20.6972 65.4673 21.208 63.8548 22.8613 64.0961C24.5157 64.3374 20.7708 66.4406 20.6972 65.4673Z" fill="#7C6232"/>
<path d="M12.2486 69.1461C12.2486 69.1461 15.3963 67.5146 15.3983 69.0703C15.3993 70.626 11.0682 70.267 12.2486 69.1461Z" fill="#7C6232"/>
<path d="M20.6963 73.8859C20.7668 73.8919 20.8374 73.8989 20.9059 73.9049C20.8741 73.9139 20.8384 73.9199 20.7986 73.9199C20.7778 73.9199 20.7579 73.9179 20.736 73.9139C20.7271 73.9129 20.7142 73.9039 20.6963 73.8859Z" fill="#463618"/>
<path d="M4.16754 70.9052C5.23965 75.8046 14.2994 79.7776 14.2994 79.7776C14.2994 79.7776 9.10181 78.0603 7.07485 76.8367C5.05086 75.6101 4.41296 73.3444 4.41296 73.3444L4.16754 70.9052Z" fill="#DE9225"/>
<path d="M39.4368 67.2324C39.4368 67.2324 40.8497 65.9071 42.3888 67.395C43.9289 68.8808 43.142 70.2042 41.5214 70.0456C39.9048 69.885 37.8142 68.5338 39.4368 67.2324Z" fill="#584521"/>
<path d="M39.3434 67.2115C39.9177 66.6879 40.7513 66.5363 41.4836 66.7478C42.4981 67.039 43.92 68.5847 43.0585 69.6377C42.3729 70.4764 40.8646 70.0456 40.0628 69.6876C39.5461 69.4552 39.0344 69.0873 38.8058 68.5547C38.5763 68.0202 38.9648 67.5386 39.3434 67.2115L39.5302 67.2534C38.6638 68.0023 38.9459 68.823 39.8173 69.4054C40.65 69.9638 42.3272 70.4575 42.985 69.4303C43.6 68.473 42.2457 67.2214 41.5095 66.8744C40.8626 66.5693 40.0439 66.7827 39.5302 67.2534L39.3434 67.2115Z" fill="#403215"/>
<path d="M39.1108 67.7699C39.1426 67.8786 39.2013 68.0282 39.3135 68.1867C39.2102 68.1937 39.1049 68.2157 39.0055 68.2516C38.9986 68.093 39.0324 67.9305 39.1108 67.7699Z" fill="#54401D"/>
<path d="M39.0761 67.5934C39.0761 67.5934 39.0811 67.6622 39.1109 67.7699C39.0324 67.9305 38.9986 68.093 39.0066 68.2516C38.9539 68.2715 38.9032 68.2915 38.8565 68.3164C38.8297 68.085 38.8933 67.8397 39.0761 67.5934Z" fill="#3D2E12"/>
<path d="M43.136 68.7961C43.1568 69.0145 43.1151 69.2289 42.985 69.4313C42.7067 69.8661 42.2457 70.0286 41.7429 70.0286C41.3177 70.0286 40.8646 69.913 40.4662 69.7484C40.6321 69.4832 40.5854 69.175 40.4344 68.9018C40.5129 68.9227 40.5963 68.9427 40.6838 68.9596C40.6838 68.9596 41.3922 69.3435 42.038 69.3435C42.202 69.3435 42.362 69.3196 42.505 69.2568C42.8737 69.0942 43.0793 68.9676 43.136 68.7961Z" fill="#54401D"/>
<path d="M42.9492 68.092C43.602 69.191 42.974 70.0596 41.7817 70.0596C41.6982 70.0596 41.6108 70.0556 41.5204 70.0466C41.1687 70.0117 40.7951 69.9209 40.4403 69.7853C40.4493 69.7723 40.4582 69.7594 40.4642 69.7474C40.8626 69.912 41.3157 70.0276 41.741 70.0276C42.2437 70.0276 42.7048 69.8651 42.983 69.4303C43.1141 69.2279 43.1559 69.0135 43.134 68.7951C43.1857 68.6395 43.1112 68.444 42.9244 68.1518L42.9492 68.092Z" fill="#3D2E12"/>
<path d="M40.7056 67.0359C41.6187 67.0359 42.3391 67.9664 42.3391 67.9664C42.4802 68.1568 42.5388 68.2944 42.5388 68.3912C42.5388 68.5258 42.4216 68.5767 42.2537 68.5767C41.9228 68.5767 41.3952 68.3792 41.1925 68.2476C40.9053 68.0601 39.873 67.738 39.876 67.4179C39.876 67.3162 39.9823 67.2144 40.2535 67.1167C40.4065 67.0599 40.5586 67.0359 40.7056 67.0359Z" fill="#654E21"/>
<path d="M38.6926 68.5138C38.6926 68.5138 39.4099 67.8158 40.1065 68.6176C40.804 69.4173 40.3896 70.1194 39.6166 70.0237C38.8466 69.9309 37.8788 69.1989 38.6926 68.5138Z" fill="#584521"/>
<path d="M38.5992 68.4979C38.8525 68.2605 39.2708 68.1179 39.6126 68.2167C40.2138 68.3892 40.9053 69.2638 40.3926 69.8481C39.6951 70.6399 37.5519 69.4792 38.5992 68.4979L38.787 68.5308C37.8222 69.4363 39.7806 70.4973 40.2903 69.6916C40.5606 69.2588 40.0916 68.6814 39.7826 68.4301C39.4745 68.1768 39.0532 68.2825 38.787 68.5308L38.5992 68.4979Z" fill="#403215"/>
<path d="M10.48 69.7614C10.48 69.7614 11.8949 68.4391 13.434 69.9279C14.9721 71.4138 14.1851 72.7361 12.5685 72.5766C10.949 72.417 8.85641 71.0638 10.48 69.7614Z" fill="#584521"/>
<path d="M10.3985 69.7584C10.935 69.2707 11.7011 69.0803 12.4026 69.2219C13.4717 69.4383 14.979 71.0668 14.0937 72.1488C13.3992 72.9994 11.9217 72.6055 11.101 72.2385C10.5853 72.0062 10.0805 71.6422 9.85199 71.1086C9.62247 70.5771 10.0219 70.0835 10.3985 69.7584C10.4392 69.7235 10.6459 69.6916 10.5614 69.7664C8.49671 71.5504 13.2253 73.6516 14.0828 71.8945C14.5329 70.969 13.3823 69.89 12.6907 69.4961C12.0201 69.1122 11.1258 69.2528 10.5614 69.7664C10.5217 69.8033 10.314 69.8342 10.3985 69.7584Z" fill="#403215"/>
<path d="M11.4855 71.4327C11.6544 71.714 11.7101 72.0321 11.5064 72.2874C11.9197 72.4549 12.3668 72.5546 12.7762 72.5546C13.2661 72.5546 13.7033 72.414 13.9616 72.0829C13.6725 72.0041 13.436 71.9373 13.2313 71.8645C13.1816 71.8695 13.1309 71.8725 13.0813 71.8725C12.4354 71.8725 11.7289 71.4866 11.7289 71.4866C11.6435 71.4716 11.562 71.4537 11.4855 71.4327ZM10.3707 70.8364C10.2664 70.8364 10.16 70.8563 10.0627 70.9002C10.164 71.4317 10.6946 71.9114 11.3444 72.2146C11.5074 71.9284 11.3404 71.5803 11.1616 71.323C10.8337 71.1884 10.6091 71.0139 10.4561 70.8394C10.4283 70.8374 10.4005 70.8364 10.3707 70.8364ZM10.1491 70.277C10.0656 70.4495 10.0348 70.622 10.0478 70.7905C10.1481 70.7506 10.2514 70.7257 10.3548 70.7147C10.2365 70.5452 10.1789 70.3876 10.1491 70.277Z" fill="#54401D"/>
<path d="M13.9625 72.0839C13.7032 72.415 13.267 72.5556 12.7772 72.5556C12.3678 72.5556 11.9207 72.4549 11.5073 72.2884C11.4994 72.2964 11.4924 72.3043 11.4865 72.3123C11.4845 72.3123 11.4835 72.3153 11.4835 72.3153C11.8382 72.4519 12.2138 72.5437 12.5685 72.5776C12.6579 72.5875 12.7454 72.5905 12.8288 72.5905C13.3743 72.5905 13.8016 72.409 14.041 72.1069C14.0132 72.0989 13.9884 72.0909 13.9625 72.0839ZM10.0626 70.9012C10.0149 70.9222 9.96922 70.9481 9.92352 70.978C10.0596 71.4986 10.6369 71.9563 11.3225 72.2505C11.3245 72.2445 11.3295 72.2385 11.3325 72.2335C11.3364 72.2265 11.3404 72.2206 11.3444 72.2146C10.6946 71.9124 10.164 71.4327 10.0626 70.9012ZM10.1212 70.1244C9.93643 70.3737 9.87284 70.619 9.89967 70.8544C9.94836 70.8304 9.99705 70.8075 10.0467 70.7895C10.0328 70.621 10.0646 70.4485 10.1481 70.276C10.1232 70.1832 10.1212 70.1244 10.1212 70.1244Z" fill="#3D2E12"/>
<path d="M11.7478 69.5689C11.8998 69.5689 12.0469 69.5929 12.186 69.6367C11.8014 69.8202 11.6027 70.0775 11.8303 70.4963C11.8511 70.5332 11.871 70.5711 11.8919 70.606C11.4805 70.4206 10.9161 70.1832 10.9191 69.9479C10.9191 69.8452 11.0244 69.7434 11.2967 69.6467C11.4497 69.5919 11.6027 69.5689 11.7478 69.5689Z" fill="#654E21"/>
<path d="M9.73775 71.0458C9.73775 71.0458 10.4561 70.3468 11.1507 71.1495C11.8482 71.9503 11.4348 72.6514 10.6598 72.5576C9.88878 72.4609 8.921 71.7299 9.73775 71.0458Z" fill="#584521"/>
<path d="M9.64235 71.0378C9.89075 70.8065 10.314 70.6419 10.6519 70.7377C11.1725 70.8863 11.9744 71.7529 11.4865 72.3113C10.7373 73.1669 8.58614 72.0271 9.64235 71.0378L9.83213 71.0528C8.85541 71.9683 10.8397 73.0164 11.3325 72.2345C11.5531 71.8865 11.2599 71.4377 11.0503 71.1765C10.7373 70.7875 10.1978 70.7118 9.83213 71.0528L9.64235 71.0378Z" fill="#403215"/>
<path d="M47.1979 71.2084C47.1979 71.2084 47.1899 73.504 46.9703 74.0235C46.7458 74.5411 46.1168 75.4147 46.1168 75.4147C40.4314 79.7736 31.5207 80.6402 25.243 80.6402C21.2199 80.6402 18.2788 80.2852 17.9648 80.2642C17.157 80.2164 17.477 76.7859 17.477 76.7859C20.7181 77.11 23.6205 77.2516 26.2198 77.2516C43.2393 77.2516 47.1979 71.2084 47.1979 71.2084Z" fill="#FAB64F"/>
<path d="M30.9344 64.8949C31.0408 64.9159 31.1451 64.9359 31.2514 64.9589C31.2484 64.9609 31.2454 64.9629 31.2425 64.9659C31.2107 64.9849 31.1769 64.9939 31.1401 64.9939C31.0805 64.9939 31.0149 64.9649 30.9344 64.8949Z" fill="#875723"/>
<path d="M35.0669 73.867C34.2422 74.1033 33.2774 74.3227 32.2619 74.5042C33.2625 74.4244 34.2074 74.2619 34.9506 73.9208C34.9894 73.9019 35.0281 73.8839 35.0669 73.867ZM31.2514 64.9587C31.2484 64.9607 31.2454 64.9627 31.2425 64.9657C31.2474 64.9627 31.2494 64.9617 31.2554 64.9587H31.2514ZM31.7174 69.7893C31.7174 69.7893 30.9802 68.0422 28.5945 67.9155C28.5945 67.9155 29.4728 66.8525 32.0841 66.7876C32.1596 66.7866 32.2301 66.7856 32.2997 66.7856C34.6128 66.7856 33.2118 67.8008 33.329 68.2875C33.4513 68.7901 31.7174 69.7893 31.7174 69.7893ZM31.7144 70.0097C31.784 70.0097 31.8555 69.9977 31.9221 69.9668C32.1 69.887 33.1224 69.2309 34.4419 69.2309C35.3332 69.2309 36.3625 69.531 37.3591 70.5123C38.2653 71.1715 38.5137 72.0141 38.5137 72.0141C38.1401 71.3928 37.7516 70.8992 37.3591 70.5123C36.7759 70.0865 35.9194 69.7384 34.6814 69.7384C34.1458 69.7384 33.5377 69.8043 32.8491 69.9568C32.8491 69.9568 29.7093 71.2443 29.3904 73.2647C29.3904 73.2647 29.0009 71.2323 30.0968 70.8932C30.6364 70.7267 29.5752 70.4066 28.042 70.4066C26.4672 70.4066 24.3965 70.7447 23.0521 71.9373C22.4291 72.4898 22.0446 72.7072 21.8509 72.7072C21.2259 72.7072 22.6477 70.3986 24.5396 69.8491C24.5396 69.8491 23.6602 67.8058 21.21 67.4269C20.2909 67.2843 20.4717 67.1327 21.1285 67.1327C22.2205 67.1327 24.624 67.5565 25.4398 69.168C25.4398 69.168 27.5621 65.7166 31.7075 65.7166C31.8714 65.7166 32.0383 65.7226 32.2092 65.7336C32.2092 65.7336 27.9556 67.0838 27.7241 68.1558C27.4946 69.2279 30.4118 68.7662 31.1491 69.8023C31.1471 69.8023 31.4243 70.0097 31.7144 70.0097ZM29.0208 64.6915C29.5623 65.0854 29.8653 65.4893 29.7451 65.4972C27.0385 65.6737 25.5868 68.2087 25.5868 68.2087C25.1407 66.1833 20.6973 66.1384 20.3028 66.1384C20.2829 66.1384 20.274 66.1384 20.274 66.1384C20.274 66.1384 20.1816 66.0108 20.1408 65.7924C20.0445 65.8802 19.967 65.9909 19.9153 66.1225C19.6242 66.8744 17.4412 67.2673 16.0392 67.722C16.3125 67.7619 16.6026 67.8188 16.9096 67.8896C16.9126 67.8906 16.9186 67.8906 16.9255 67.8906C17.0149 67.8906 17.3905 67.8268 17.9241 67.7619C18.4587 67.6981 19.1542 67.6333 19.8805 67.6333C21.3103 67.6333 22.8623 67.8826 23.5638 68.8718C23.5638 68.8718 24.162 69.3106 23.0114 70.258C21.8608 71.2044 21.0252 71.4836 21.054 72.6573C21.054 72.6573 20.0077 70.3617 16.2866 70.3617C15.6477 70.3617 14.9303 70.4285 14.1235 70.5891C14.1841 70.6958 14.2338 70.8055 14.2716 70.9162C14.7714 70.8085 15.3318 70.7357 15.9458 70.7357C16.4337 70.7357 16.9563 70.7816 17.5048 70.8873C20.738 71.5155 21.6491 73.7224 20.9049 73.9039C21.7286 73.9886 22.5017 74.1612 23.233 74.3327C23.7198 74.4474 24.1868 74.5611 24.6389 74.6518C22.7123 74.0585 23.3442 72.785 24.1133 71.9673C24.1133 71.9673 25.402 70.9421 27.2571 70.9421C27.6992 70.9421 28.1752 70.9999 28.673 71.1445C28.673 71.1445 28.8896 73.6556 29.4768 73.6556C29.4768 73.6556 29.4858 73.6556 29.4907 73.6546C30.064 73.6177 30.9643 70.2161 33.81 70.2161C33.9262 70.2161 34.0474 70.2221 34.1696 70.2341C37.066 70.5133 38.47 71.6352 37.6463 72.6424C38.0676 72.427 38.5177 72.1857 39.1814 71.8287C39.5113 71.6511 39.7816 71.4726 39.9902 71.2901C39.7229 71.1904 39.4855 71.0558 39.2897 70.8883C38.2395 69.9868 37.8241 68.7342 35.9422 68.7342C35.8141 68.7342 35.6799 68.7402 35.5398 68.7532C35.4266 68.7632 35.3242 68.7681 35.2288 68.7681C33.4473 68.7681 34.7598 67.1556 36.0128 67.1357C36.6219 67.1277 36.4241 66.7657 35.9303 66.3678C34.6525 65.927 32.9783 65.3297 31.3537 64.9817C31.2693 65.0455 31.1858 65.1133 31.1024 65.1851L30.9225 65.212C30.8242 65.0804 30.7178 64.9567 30.6075 64.8391C30.0591 64.7463 29.5245 64.6935 29.0208 64.6915Z" fill="#3C2C13"/>
<path d="M30.6075 64.838C30.7158 64.857 30.8261 64.8749 30.9344 64.8959C31.0149 64.9647 31.0805 64.9946 31.1411 64.9946C31.1769 64.9946 31.2107 64.9846 31.2435 64.9667C31.2484 64.9637 31.2504 64.9627 31.2564 64.9597C31.2882 64.9667 31.32 64.9747 31.3547 64.9807C31.2703 65.0445 31.1868 65.1123 31.1034 65.1841L30.9235 65.211C30.8242 65.0794 30.7178 64.9557 30.6075 64.838Z" fill="#2B200C"/>
<path d="M35.9303 66.3658C36.291 66.4895 36.6199 66.6031 36.908 66.6929C38.9837 67.3461 36.8832 67.7779 38.4491 68.6684C37.9553 69.3745 38.935 70.1094 39.7289 70.1094C39.9535 70.1094 40.1621 70.0496 40.3191 69.9179C40.6301 70.3817 40.5029 70.8414 39.9902 71.2891C39.7229 71.1894 39.4855 71.0548 39.2897 70.8873C38.2395 69.9858 37.8241 68.7332 35.9422 68.7332C35.8141 68.7332 35.6799 68.7392 35.5398 68.7522C35.4266 68.7622 35.3242 68.7671 35.2288 68.7671C33.4473 68.7671 34.7598 67.1546 36.0128 67.1347C36.6219 67.1267 36.4241 66.7637 35.9303 66.3658Z" fill="#493719"/>
<path d="M31.2425 67.749C30.6036 67.749 29.8136 67.4179 30.7397 67.2424C30.7397 67.2424 31.0487 67.1825 31.3438 67.1825C31.6558 67.1825 31.9499 67.2494 31.8317 67.5266C31.7641 67.6871 31.5177 67.749 31.2425 67.749ZM32.2997 66.7856C32.2311 66.7856 32.1596 66.7866 32.084 66.7876C29.4728 66.8515 28.5945 67.9155 28.5945 67.9155C30.9791 68.0422 31.7174 69.7893 31.7174 69.7893C31.7174 69.7893 33.4513 68.7901 33.329 68.2875C33.2118 67.7998 34.6128 66.7856 32.2997 66.7856Z" fill="#493719"/>
<path d="M28.9929 64.6915C29.0029 64.6915 29.0128 64.6915 29.0207 64.6915C29.5623 65.0854 29.8653 65.4893 29.7451 65.4972C27.0385 65.6737 25.5868 68.2087 25.5868 68.2087C25.1407 66.1833 20.6973 66.1384 20.3028 66.1384C20.2829 66.1384 20.274 66.1384 20.274 66.1384C20.274 66.1384 20.1816 66.0108 20.1408 65.7924C20.2909 65.6528 20.4876 65.566 20.7042 65.5112C20.735 65.6598 20.8692 65.7236 21.0609 65.7236C21.2994 65.7236 21.6283 65.6249 21.9582 65.4773C22.3794 65.5301 22.6944 65.6149 22.6944 65.6149C23.8957 65.235 24.8426 65.8054 27.433 64.9178C27.895 64.7593 28.4236 64.6915 28.9929 64.6915Z" fill="#493719"/>
<path d="M19.8795 67.6333C21.3093 67.6333 22.8613 67.8826 23.5628 68.8718C23.5628 68.8718 24.161 69.3106 23.0104 70.258C21.8598 71.2044 21.0242 71.4836 21.053 72.6573C21.053 72.6573 20.0067 70.3617 16.2856 70.3617C15.6467 70.3617 14.9293 70.4285 14.1225 70.5891C14.0291 70.4195 13.9109 70.258 13.7787 70.1074C14.5975 70.0536 15.3973 69.7404 15.3973 69.0713C15.3973 68.6644 15.1797 68.476 14.8618 68.4201C14.9244 68.1479 15.3993 67.9295 16.0382 67.723C16.3115 67.7629 16.6016 67.8198 16.9086 67.8906C16.9116 67.8916 16.9176 67.8916 16.9245 67.8916C17.0139 67.8916 17.3895 67.8277 17.9231 67.7629C18.4577 67.6971 19.1532 67.6333 19.8795 67.6333Z" fill="#493719"/>
<path d="M33.809 70.2151C33.9252 70.2151 34.0464 70.2211 34.1686 70.2331C37.065 70.5123 38.469 71.6342 37.6453 72.6414C36.9657 72.9894 36.3665 73.2706 35.0659 73.867C34.2412 74.1033 33.2764 74.3227 32.2609 74.5042C30.2896 74.6598 28.0987 74.4923 26.8 74.7446C26.5546 74.7934 26.3042 74.8124 26.0479 74.8124C25.5958 74.8124 25.1268 74.7485 24.6389 74.6528C22.7123 74.0595 23.3442 72.786 24.1133 71.9683C24.1133 71.9683 25.402 70.9431 27.2571 70.9431C27.6992 70.9431 28.1752 71.001 28.673 71.1455C28.673 71.1455 28.8896 73.6566 29.4768 73.6566C29.4768 73.6566 29.4857 73.6566 29.4907 73.6556C30.064 73.6177 30.9642 70.2151 33.809 70.2151Z" fill="#493719"/>
<path d="M31.3448 67.1825C31.6568 67.1825 31.9509 67.2493 31.8327 67.5266C31.7641 67.6871 31.5177 67.749 31.2425 67.749C30.6036 67.749 29.8137 67.4179 30.7397 67.2424C30.7397 67.2424 31.0497 67.1825 31.3448 67.1825Z" fill="#543F1C"/>
<path d="M21.37 65.4384C21.5746 65.4384 21.7763 65.4554 21.9592 65.4764C21.6293 65.6244 21.3004 65.7234 21.0619 65.7234C20.8702 65.7234 20.736 65.6594 20.7052 65.5104C20.9139 65.4584 21.1444 65.4384 21.37 65.4384Z" fill="#543F1C"/>
<path d="M14.8628 68.4191C15.1807 68.4759 15.3983 68.6634 15.3983 69.0703C15.3983 69.7394 14.5985 70.0526 13.7797 70.1064C13.5224 69.8142 13.2074 69.5659 12.8944 69.4024C13.8264 69.172 14.9651 69.0513 14.8608 68.5308C14.8538 68.4919 14.8538 68.455 14.8628 68.4191Z" fill="#543F1C"/>
<path d="M37.3581 70.5123C37.7516 70.8992 38.1391 71.3928 38.5127 72.0141C38.5127 72.0141 38.2653 71.1715 37.3581 70.5123ZM31.7045 65.7176C27.5591 65.7176 25.4368 69.169 25.4368 69.169C24.621 67.5575 22.2175 67.1337 21.1255 67.1337C20.4687 67.1337 20.2879 67.2852 21.207 67.4279C23.6582 67.8068 24.5366 69.8501 24.5366 69.8501C22.6447 70.3996 21.2229 72.7082 21.8479 72.7082C22.0416 72.7082 22.4261 72.4898 23.0491 71.9383C24.3945 70.7457 26.4652 70.4076 28.0391 70.4076C29.5722 70.4076 30.6334 70.7277 30.0938 70.8942C28.9979 71.2333 29.3874 73.2657 29.3874 73.2657C29.7063 71.2453 32.8461 69.9578 32.8461 69.9578C33.5337 69.8053 34.1428 69.7394 34.6784 69.7394C35.9164 69.7394 36.7729 70.0885 37.3561 70.5133C36.3596 69.532 35.3312 69.2319 34.4389 69.2319C33.1194 69.2319 32.097 69.888 31.9191 69.9678C31.8525 69.9987 31.781 70.0107 31.7114 70.0107C31.4213 70.0107 31.1441 69.8033 31.1441 69.8033C30.4068 68.7671 27.4886 69.2289 27.7191 68.1568C27.9496 67.0858 32.2043 65.7346 32.2043 65.7346C32.0354 65.7236 31.8684 65.7176 31.7045 65.7176Z" fill="#2F230E"/>
<path d="M15.3328 71.4906C19.2396 71.4906 20.436 73.6177 20.6953 73.8859C20.4429 73.867 20.1856 73.855 19.9223 73.855C19.8577 73.855 19.7911 73.856 19.7265 73.858C19.7037 73.858 19.6798 73.858 19.6589 73.859C19.8775 73.6855 19.9103 73.4481 19.6729 73.132C18.8432 72.0341 17.3011 71.8725 16.4705 71.8725C16.1277 71.8725 15.9061 71.9004 15.9061 71.9004C15.7888 71.9084 15.0734 72.0131 14.3829 72.1986C14.2885 72.1727 14.2 72.1468 14.1126 72.1248C14.2577 71.9393 14.3352 71.7389 14.3551 71.5315C14.6988 71.5025 15.0247 71.4906 15.3328 71.4906Z" fill="#3C2C13"/>
<path d="M16.4705 71.8725C17.3011 71.8725 18.8432 72.0341 19.6729 73.132C19.9103 73.4471 19.8775 73.6855 19.6589 73.859C19.5973 73.859 19.5377 73.86 19.4781 73.86C16.8788 73.86 16.7626 72.8877 14.8618 72.3352C14.6899 72.2854 14.5309 72.2395 14.3829 72.1996C15.0734 72.0141 15.7888 71.9094 15.9061 71.9014C15.9061 71.9014 16.1277 71.8725 16.4705 71.8725Z" fill="#493719"/>
<path d="M15.9468 70.7357C16.4347 70.7357 16.9573 70.7816 17.5058 70.8873C20.739 71.5155 21.6501 73.7224 20.9059 73.9039C20.8374 73.8979 20.7668 73.8909 20.6963 73.8849C20.436 73.6167 19.2396 71.4896 15.3338 71.4896C15.0247 71.4896 14.6988 71.5025 14.3551 71.5315C14.3769 71.328 14.3451 71.1206 14.2726 70.9152C14.7714 70.8075 15.3328 70.7357 15.9468 70.7357Z" fill="#2F230E"/>
<path d="M38.6071 68.7552C38.6687 68.7861 38.7343 68.818 38.8038 68.8499C39.4855 69.1621 39.9495 69.4752 40.2158 69.7863C40.0866 69.9209 39.9048 69.9788 39.7051 69.9788C39.0632 69.9778 38.2613 69.3685 38.6071 68.7552Z" fill="#3C2C13"/>
<path d="M38.4491 68.6694C38.4978 68.6963 38.5525 68.7263 38.6071 68.7552C38.2603 69.3685 39.0632 69.9788 39.7051 69.9788C39.9038 69.9788 40.0866 69.9199 40.2158 69.7863C40.2545 69.8302 40.2873 69.8751 40.3191 69.9199C40.1621 70.0526 39.9535 70.1114 39.7289 70.1114C38.935 70.1104 37.9553 69.3755 38.4491 68.6694Z" fill="#2B200C"/>
<path d="M12.6441 69.4692C12.659 69.4782 12.6749 69.4871 12.6898 69.4951C13.2462 69.8112 14.0977 70.5711 14.1772 71.336C14.1166 71.5025 13.9109 71.6282 13.5482 71.7858C13.4489 71.8296 13.3426 71.8546 13.2313 71.8655C12.6292 71.6511 12.3281 71.3869 11.8909 70.606C12.035 70.6699 12.1602 70.7287 12.2347 70.7766C12.4374 70.9092 12.964 71.1056 13.2959 71.1056C13.4638 71.1056 13.581 71.0548 13.582 70.9202C13.582 70.8244 13.5244 70.6888 13.3823 70.4953C13.3823 70.4953 12.8815 69.8511 12.186 69.6357C12.3191 69.5729 12.4761 69.5181 12.6441 69.4692Z" fill="#3C2C13"/>
<path d="M12.8944 69.4024C13.2064 69.5659 13.5224 69.8142 13.7798 70.1064C13.9119 70.257 14.0301 70.4186 14.1235 70.5881C14.1842 70.6948 14.2338 70.8045 14.2716 70.9152C14.3441 71.1206 14.3759 71.328 14.3541 71.5315C14.3332 71.7389 14.2557 71.9383 14.1116 72.1248C14.0878 72.1178 14.0649 72.1109 14.0401 72.1049C14.3252 71.7459 14.3471 71.2163 13.9924 70.622L13.9695 70.6848C14.1613 70.982 14.2358 71.1784 14.1782 71.336C14.0987 70.5711 13.2462 69.8122 12.6908 69.4951C12.6759 69.4861 12.66 69.4772 12.6451 69.4692C12.7245 69.4473 12.809 69.4243 12.8944 69.4024Z" fill="#2B200C"/>
<path d="M14.1772 71.336C14.1961 71.5235 14.1692 71.712 14.0818 71.8945C14.048 71.9623 14.0073 72.0271 13.9616 72.0839C13.6724 72.0052 13.4359 71.9383 13.2313 71.8655C13.3425 71.8546 13.4499 71.8296 13.5482 71.7858C13.9119 71.6282 14.1176 71.5026 14.1772 71.336Z" fill="#392911"/>
<path d="M13.9924 70.623C14.3461 71.2183 14.3252 71.7469 14.0401 72.1059C14.0142 72.0989 13.9884 72.0909 13.9626 72.0849C14.0083 72.0271 14.049 71.9633 14.0828 71.8955C14.1702 71.713 14.197 71.5255 14.1782 71.337C14.2358 71.1794 14.1613 70.983 13.9695 70.6858L13.9924 70.623Z" fill="#291D0A"/>
<path d="M12.186 69.6367C12.8815 69.8521 13.3823 70.4963 13.3823 70.4963C13.5254 70.6888 13.582 70.8254 13.582 70.9212C13.581 71.0558 13.4638 71.1067 13.2959 71.1067C12.964 71.1067 12.4374 70.9102 12.2347 70.7776C12.1602 70.7297 12.035 70.6719 11.8909 70.607C11.87 70.5721 11.8502 70.5342 11.8293 70.4973C11.6027 70.0785 11.8025 69.8202 12.186 69.6367Z" fill="#453213"/>
<path d="M33.8755 3.58312C33.8755 3.58312 39.3295 18.1935 32.24 41.8698L15.3934 40.6562C15.3934 40.6562 16.3323 21.5113 7.03311 6.31153C7.03311 6.31153 18.0036 14.6614 20.0623 36.8867C20.0623 36.8867 15.2622 12.8225 20.3763 3.3328C20.3763 3.3328 17.0477 18.399 22.7729 35.3719L24.3786 34.9849C24.3786 34.9849 24.159 10.5049 25.4775 6.01935C25.4775 6.01935 29.7113 22.3819 28.0917 34.8244C28.0917 34.8244 35.5796 14.2525 33.8755 3.58312Z" fill="#739A3D"/>
<path d="M32.2391 42.2428L32.2132 42.2408L15.3675 41.0271C15.1639 41.0122 15.0128 40.8407 15.0208 40.6372C15.0208 40.6352 15.0476 40.1077 15.0476 39.1424C15.0506 34.3597 14.3908 19.0392 6.71319 6.506C6.62178 6.35342 6.65059 6.15597 6.78175 6.03331C6.9139 5.91364 7.11361 5.90466 7.2557 6.01336C7.30141 6.04428 14.0093 11.176 17.9539 23.9934C17.7681 21.7018 17.6469 19.2805 17.6469 16.8862C17.6519 11.6587 18.2192 6.56183 20.0484 3.1513C20.1369 2.98975 20.3326 2.91596 20.5045 2.98078C20.6794 3.0446 20.7778 3.22908 20.737 3.41158C20.735 3.42255 19.7841 7.72162 19.7841 14.3522C19.7841 19.9736 20.4727 27.2474 23.0134 34.9261L24.002 34.6887C23.9971 34.1333 23.9901 32.8349 23.9901 31.0738C23.9961 23.9476 24.1004 9.4229 25.1179 5.91264C25.1655 5.75209 25.3146 5.64239 25.4805 5.64538C25.6474 5.64837 25.7925 5.76106 25.8333 5.9246C25.8372 5.94056 28.827 17.4825 28.83 28.6096C28.83 29.6607 28.8032 30.7078 28.7445 31.7439C29.301 30.0367 30.0243 27.7041 30.7496 25.0455C32.255 19.5298 33.7573 12.622 33.7533 7.13126C33.7563 5.88073 33.6778 4.704 33.5059 3.64095C33.4771 3.45247 33.5934 3.26898 33.7772 3.21912C33.962 3.17025 34.1538 3.26997 34.2193 3.44848C34.2322 3.48338 36.2473 8.89436 36.2493 18.4498C36.2493 24.6576 35.3987 32.6145 32.5928 41.9745C32.5501 42.1341 32.402 42.2428 32.2391 42.2428ZM34.4985 7.44638C34.3813 18.6682 28.4425 34.9301 28.4405 34.951C28.3749 35.1315 28.1871 35.2312 28.0043 35.1854C27.8185 35.1405 27.6993 34.964 27.7251 34.7745C27.9804 32.798 28.0897 30.7128 28.0897 28.6106C28.0897 20.1401 26.3251 11.3855 25.5163 7.79741C24.8406 12.8344 24.7294 24.874 24.7373 31.0748C24.7353 33.4472 24.7502 34.9749 24.7502 34.9789C24.7502 35.1544 24.633 35.303 24.4651 35.3439L22.8604 35.7329C22.6736 35.7767 22.4838 35.673 22.4222 35.4895C19.7593 27.5954 19.0449 20.1172 19.0449 14.3542C19.0449 11.2249 19.2565 8.60218 19.4801 6.69248C18.6892 9.61337 18.3891 13.2124 18.3931 16.8882C18.3921 20.9878 18.7568 25.1742 19.1751 28.6445C19.7225 31.1426 20.1577 33.874 20.434 36.8517C20.4519 37.0482 20.3118 37.2247 20.119 37.2536C19.9233 37.2825 19.7394 37.1519 19.6977 36.9584C19.6977 36.9505 19.0151 33.532 18.4388 28.7562C16.9514 21.993 14.6353 16.9869 12.4612 13.4587C11.0334 11.1441 9.6662 9.46578 8.63185 8.35187C15.2195 20.6168 15.7888 34.5751 15.7908 39.1424C15.7908 39.654 15.7829 40.0489 15.7759 40.3091L31.9698 41.4739C34.6853 32.3084 35.509 24.527 35.509 18.4508C35.509 13.726 35.0102 10.0332 34.5134 7.52516L34.4985 7.44638Z" fill="#68913E"/>
<path d="M23.8629 68.9616C23.8629 68.9616 19.3132 54.7969 12.3499 61.2271C12.3499 61.2271 10.4909 63.3701 10.1213 65.6079C10.2962 64.5538 12.1651 63.0031 12.9779 62.4786C16.1773 60.4173 18.9883 66.8415 20.7817 68.5557C21.2547 69.0055 22.1499 70.0017 22.8842 69.9808C23.2836 69.9688 24.0388 69.5071 23.8629 68.9616Z" fill="#739A3D"/>
<path d="M22.8951 70.3527L22.8733 70.3487V70.3507L22.8395 70.3487C21.8181 70.2859 20.9973 69.2368 20.5274 68.824C19.6848 68.0093 18.7398 66.4007 17.6469 64.9856C16.5648 63.5586 15.3477 62.4208 14.2606 62.4467C13.9149 62.4467 13.5651 62.5444 13.1816 62.7897C12.4493 63.2275 10.7313 64.7483 10.5108 65.5531L10.4899 65.6677L10.4571 65.7695L10.3389 65.9091C10.2594 65.9679 10.16 65.9889 10.0626 65.9729C9.96526 65.9569 9.87882 65.9031 9.82119 65.8213L9.78045 65.7475L9.7576 65.5441C10.165 63.1577 12.0588 61.0077 12.0717 60.9818C13.4369 59.7163 14.7356 59.1778 15.9567 59.1778C18.6614 59.2037 20.6734 61.6918 22.0655 64.0682C23.4208 66.4047 24.1779 68.7183 24.2176 68.8409C24.2514 68.9377 24.2633 69.0334 24.2633 69.1222C24.1838 69.9489 23.4347 70.2969 22.8951 70.3527ZM22.8852 69.6048H22.9031C22.9865 69.5938 23.1723 69.527 23.2995 69.4233C23.4585 69.3106 23.5271 69.177 23.5201 69.1222L23.5132 69.0843L23.8639 68.9596L23.5122 69.0743C23.5092 69.0693 22.766 66.7557 21.4216 64.4431C20.0812 62.1146 18.1397 59.8958 15.9557 59.9227C14.9582 59.9247 13.8483 60.3505 12.6043 61.4973C12.6122 61.4933 12.1761 61.9989 11.6912 62.7748C11.6037 62.9154 11.5133 63.064 11.4239 63.2195C11.9276 62.7718 12.4344 62.3978 12.7792 62.1625C13.2621 61.8473 13.7688 61.6968 14.2606 61.6978C15.8395 61.7227 17.1073 63.0839 18.2341 64.5249C19.3499 65.9809 20.3346 67.6153 21.0401 68.2825C21.4981 68.7562 22.4361 69.6537 22.8643 69.6028H22.8693H22.8852V69.6048Z" fill="#68913E"/>
<path d="M29.5305 68.8649C29.5305 68.8649 30.532 54.0141 38.8396 58.5645C38.8396 58.5645 41.1577 60.1949 42.0549 62.2742C41.6317 61.2949 39.4467 60.2438 38.5286 59.9297C34.9288 58.7071 33.7483 65.6239 32.4219 67.7211C32.0721 68.2725 31.4432 69.4582 30.7258 69.6148C30.3353 69.7016 29.4907 69.4363 29.5305 68.8649Z" fill="#739A3D"/>
<path d="M30.5638 70.0027C30.0501 69.9848 29.2294 69.7534 29.1589 68.8998L29.1599 68.8629H29.5305L29.1599 68.8389C29.1628 68.821 29.3487 66.0118 30.2568 63.1667C31.156 60.3505 32.7975 57.3508 35.9005 57.3239C36.8375 57.3239 37.8738 57.6061 39.0185 58.2354C39.0731 58.2803 41.427 59.9087 42.3968 62.1246L42.4266 62.2492L42.3958 62.4258C42.358 62.5115 42.2895 62.5783 42.205 62.6142L41.9566 62.6312L41.9516 62.6302L41.9486 62.6292L41.9218 62.6202C41.8264 62.5833 41.7549 62.5125 41.7171 62.4218L41.6784 62.334C41.2909 61.605 39.2341 60.53 38.4114 60.2817C38.155 60.1959 37.9245 60.158 37.7089 60.158C36.5166 60.1271 35.5329 61.4505 34.7489 63.1836C33.96 64.8989 33.3986 66.8634 32.7369 67.9205C32.3712 68.444 31.8198 69.7005 30.8083 69.9788C30.7198 69.9967 30.6413 70.0027 30.5638 70.0027ZM37.7218 59.4121C38.0209 59.4121 38.3299 59.469 38.6489 59.5777C39.0403 59.7223 39.6236 59.9626 40.2198 60.2747C40.0975 60.1451 39.9733 60.0224 39.8541 59.9077C39.1814 59.2595 38.628 58.8716 38.628 58.8686C37.5986 58.3072 36.6875 58.0688 35.9015 58.0688C33.3877 58.0419 31.8446 60.6257 30.9633 63.3941C30.1207 66.0297 29.92 68.6774 29.9031 68.8758L29.9021 68.8988C29.9021 68.9576 29.9369 69.0304 30.0829 69.1222C30.2201 69.2069 30.4327 69.2588 30.5648 69.2568L30.6503 69.2488C31.0676 69.2139 31.777 68.1 32.1109 67.5196C32.6713 66.646 33.2675 64.6416 34.0753 62.8735C34.887 61.1214 35.9353 59.443 37.7099 59.4121H37.7218Z" fill="#68913E"/>
<path d="M10.9718 1.93069C12.02 3.68083 12.7941 6.12506 13.4429 7.58899C18.3672 18.7041 18.7786 30.2391 19.2019 42.4741C19.3559 46.8739 19.5755 51.2757 20.0107 55.6446C20.3197 58.7659 20.6774 61.96 21.5209 64.9537C21.8598 66.1674 22.3774 68.2526 23.6006 68.7592C23.7456 68.818 24.0437 68.829 24.3885 68.7941C23.1375 65.1113 22.6974 57.0945 21.8151 39.7337C20.6744 17.3479 13.8393 5.82987 10.9718 1.93069Z" fill="#B5D334"/>
<path d="M24.0249 69.185C23.8162 69.182 23.6413 69.173 23.4615 69.1032C21.9621 68.4211 21.5279 66.2541 21.1643 65.0534C20.3098 62.0209 19.9511 58.8048 19.6411 55.6795C19.2059 51.2986 18.9863 46.8899 18.8333 42.4861C18.411 30.2491 17.9927 18.7699 13.1041 7.73857C12.4433 6.24272 11.6693 3.81645 10.6548 2.12216C10.5515 1.95263 10.6002 1.73125 10.7661 1.62056C10.9301 1.50987 11.1526 1.54876 11.2699 1.71031C14.1792 5.66234 21.043 17.2591 22.1857 39.7138C23.0621 57.0636 23.5191 65.1083 24.7393 68.6734C24.7751 68.7801 24.7601 68.9018 24.6985 68.9975C24.6359 69.0932 24.5306 69.1541 24.4174 69.165C24.2832 69.176 24.1511 69.185 24.0249 69.185ZM13.428 6.58477C13.5512 6.89591 13.6675 7.18212 13.7817 7.43641C18.7418 18.6353 19.1492 30.2281 19.5735 42.4632C19.7265 46.857 19.9451 51.2518 20.3793 55.6077C20.6873 58.725 21.045 61.9012 21.8797 64.853C22.1927 66.0796 22.7968 68.0791 23.7427 68.4131C23.7417 68.4151 23.7993 68.4281 23.8878 68.4361C22.7213 64.4571 22.297 56.4234 21.4455 39.7537C20.5939 23.085 16.5827 12.4854 13.428 6.58477Z" fill="#739A3D"/>
<path d="M26.2555 67.8397C26.2555 67.8397 30.8719 17.2831 9.70694 0.373018C10.171 0.742991 10.5893 1.29247 10.9718 1.93169C13.8404 5.83087 20.6754 17.3489 21.8151 39.7357C22.6974 57.0955 23.1376 65.1123 24.3885 68.7961C25.1725 68.7123 26.2059 68.3852 26.2555 67.8397Z" fill="#93AF2A"/>
<path d="M24.4282 69.165C24.8545 69.1202 25.3324 69.0135 25.7478 68.832C26.1432 68.6485 26.5576 68.3942 26.6251 67.8716L26.2555 67.8397L25.8869 67.8048C25.8998 67.8337 25.7756 68.0122 25.4487 68.1509C25.2202 68.2526 24.927 68.3323 24.6459 68.3822C23.4962 64.6775 23.0412 56.6059 22.1867 39.7148C21.1762 19.8779 15.7014 8.51441 12.4483 3.42853C24.3468 16.236 26.328 41.4181 26.3111 56.207C26.3111 63.1607 25.8859 67.7928 25.8859 67.8048L26.2555 67.8397L26.6241 67.8716C26.6261 67.8637 27.0524 63.1916 27.0524 56.207C27.0335 40.1975 24.8625 12.0486 9.93643 0.0808304C9.85992 0.0190021 9.75956 -0.00992058 9.66318 0.00304343C9.56581 0.014013 9.47539 0.0648793 9.41677 0.141666C9.36013 0.207483 9.33231 0.292239 9.3343 0.378999L9.33529 0.415899C9.34722 0.514625 9.3969 0.603378 9.4744 0.665207C9.88476 0.991301 10.2842 1.50587 10.6747 2.15208C13.5005 5.9984 20.3058 17.4357 21.4454 39.7537C22.3327 57.1225 22.756 65.1173 24.0368 68.9147C24.0884 69.0653 24.2285 69.166 24.3885 69.166L24.4282 69.165Z" fill="#739A3D"/>
<path d="M50.1489 12.1274C48.8572 13.5504 47.7354 15.6297 46.8799 16.8503C40.3926 26.1255 38.306 36.3721 36.1082 47.2429C35.3163 51.152 34.4608 55.0552 33.3956 58.8985C32.6335 61.6449 31.8148 64.4511 30.5489 67.013C30.0342 68.0501 29.2175 69.8432 27.9347 70.1334C27.7817 70.1693 27.4866 70.1403 27.1518 70.0635C28.9234 66.9412 30.5261 59.8389 33.9232 44.4517C38.306 24.6107 46.7448 15.2288 50.1489 12.1274Z" fill="#B5D334"/>
<path d="M27.7738 70.5203C27.5681 70.5183 27.3306 70.4824 27.0703 70.4235C26.955 70.3986 26.8576 70.3198 26.8119 70.2121C26.7643 70.1034 26.7702 69.9798 26.8288 69.8761C28.5448 66.8724 30.1703 59.7482 33.5615 44.3699C37.9573 24.4552 46.4447 14.9974 49.8975 11.8522C50.0446 11.7175 50.2701 11.7215 50.4112 11.8641C50.5513 12.0047 50.5563 12.2291 50.4231 12.3787C49.1732 13.7519 48.0573 15.8132 47.184 17.0667C40.7503 26.2612 38.6717 36.4449 36.4718 47.3167C35.6819 51.2308 34.8224 55.141 33.7543 58.9983C32.9912 61.7486 32.1695 64.5758 30.8798 67.1776C30.3502 68.1957 29.5821 70.0965 28.0162 70.4973C27.9307 70.5163 27.8552 70.5203 27.7738 70.5203ZM46.9077 16.1452C42.9422 21.0267 37.5141 29.921 34.2849 44.5334C31.0378 59.2187 29.452 66.3379 27.7251 69.7744L27.7738 69.7773L27.8542 69.7714C28.8548 69.5909 29.7183 67.9045 30.2131 66.8445C31.465 64.3255 32.2778 61.5422 33.0379 58.7978C34.0981 54.9675 34.9546 51.0733 35.7435 47.1701C37.9444 36.3033 40.0339 25.9919 46.5759 16.6369C46.6812 16.4853 46.7925 16.3208 46.9077 16.1452Z" fill="#739A3D"/>
<path d="M25.4408 68.9616C25.4408 68.9616 28.2278 23.2046 51.6264 10.9018C51.1127 11.172 50.6189 11.6068 50.1479 12.1284C46.7438 15.2288 38.3051 24.6117 33.9222 44.4517C30.5251 59.8389 28.9224 66.9412 27.1508 70.0635C26.3867 69.884 25.4129 69.4582 25.4408 68.9616Z" fill="#93AF2A"/>
<path d="M27.1518 70.4345L27.0673 70.4235C26.6629 70.3298 26.2108 70.1742 25.8332 69.9628C25.4745 69.7484 25.1 69.4911 25.0711 68.9825V68.9736V68.9596H25.0731L25.0711 68.9367C25.1069 68.9087 27.7738 23.0999 51.4555 10.5697C51.6373 10.475 51.8619 10.5468 51.9573 10.7273L52 10.9058C51.997 11.0384 51.9245 11.1651 51.8003 11.2299C51.3452 11.4702 50.8762 11.8751 50.4231 12.3767C47.0429 15.4611 38.6538 24.7643 34.2849 44.5304C30.8808 59.9237 29.2999 67.004 27.4747 70.243C27.4071 70.3647 27.2829 70.4345 27.1518 70.4345ZM48.2998 13.4248C38.9102 20.3216 33.34 33.0752 30.1177 44.6461C28.3133 51.1121 27.2362 57.2013 26.6092 61.6718C25.9902 66.1165 25.8173 68.9476 25.8124 68.9825L25.876 69.0793C26.03 69.2638 26.5099 69.4921 26.966 69.6278C28.6322 66.4875 30.2598 59.3393 33.5606 44.3729C37.381 27.0679 44.2876 17.659 48.2998 13.4248Z" fill="#739A3D"/>
<path d="M38.7224 2.93291C37.7089 4.702 36.9816 7.16017 36.3606 8.63607C31.6499 19.843 31.4571 31.3859 31.2693 43.6269C31.1998 48.0287 31.0646 52.4335 30.7139 56.8103C30.4635 59.9377 30.1674 63.1398 29.3814 66.1474C29.0655 67.367 28.5856 69.4592 27.3734 69.9927C27.2283 70.0546 26.9322 70.0705 26.5854 70.0416C27.7658 66.3379 28.053 58.3112 28.6034 40.9384C29.3149 18.5326 35.9313 6.88694 38.7224 2.93291Z" fill="#B5D334"/>
<path d="M26.8974 70.4265C26.7881 70.4265 26.6768 70.4186 26.5655 70.4146C26.4503 70.4056 26.3459 70.3458 26.2804 70.249C26.2158 70.1563 26.1989 70.0366 26.2327 69.9279C27.3843 66.3399 27.6883 58.2892 28.2338 40.9244C28.9452 18.4508 35.5885 6.72438 38.4213 2.71651C38.5346 2.55296 38.7581 2.51008 38.9241 2.61678C39.091 2.72448 39.1446 2.94288 39.0443 3.11739C38.0626 4.82964 37.3343 7.27087 36.7033 8.77968C32.0274 19.9008 31.8287 31.3869 31.6419 43.6309C31.5704 48.0347 31.4372 52.4494 31.0835 56.8383C30.8331 59.9686 30.537 63.1896 29.7411 66.2402C29.3993 67.4448 29.0078 69.6218 27.5224 70.3318C27.3247 70.4126 27.1329 70.4235 26.8974 70.4265ZM36.3526 7.63984C33.3122 13.6023 29.5056 24.2756 28.977 40.9494C28.4435 57.633 28.1722 65.6717 27.0822 69.6726C27.1687 69.6627 27.2273 69.6517 27.2283 69.6477C28.1652 69.2957 28.7286 67.2852 29.0227 66.0527C29.7977 63.0849 30.0948 59.9037 30.3432 56.7804C30.694 52.4155 30.8281 48.0187 30.8977 43.62C31.0885 31.3819 31.2743 19.7841 36.0187 8.49047C36.1251 8.23618 36.2373 7.94998 36.3526 7.63984Z" fill="#739A3D"/>
<path d="M24.7005 69.1232C24.7005 69.1232 19.1194 18.6632 39.9584 1.34931C39.5004 1.72926 39.093 2.28571 38.7214 2.93291C35.9303 6.88694 29.3139 18.5336 28.6034 40.9374C28.052 58.3112 27.7658 66.3379 26.5854 70.0406C25.8014 69.9748 24.7621 69.6686 24.7005 69.1232Z" fill="#93AF2A"/>
<path d="M26.5864 70.4146L26.5556 70.4126C26.1294 70.3747 25.6475 70.2799 25.2291 70.1044C24.8297 69.9299 24.4124 69.6806 24.3319 69.16C24.3319 69.1511 23.6523 62.9982 23.6523 54.2485C23.6682 37.9168 25.9783 12.5193 39.7239 1.06111C39.8819 0.927481 40.1164 0.951417 40.2466 1.11097C40.3052 1.17978 40.331 1.26355 40.331 1.34732C40.333 1.45402 40.2873 1.56172 40.1969 1.63451C39.7925 1.97158 39.402 2.49114 39.0463 3.1174C36.2731 7.04549 29.6855 18.6134 28.9751 40.9474C28.4206 58.3301 28.1504 66.3309 26.9401 70.1533C26.8905 70.3089 26.7464 70.4146 26.5864 70.4146ZM37.2767 4.45668C26.4404 16.583 24.3796 39.2431 24.3945 54.2494C24.3935 62.9613 25.0712 69.0653 25.0712 69.0813C25.0592 69.1092 25.1864 69.2867 25.5153 69.4183C25.7468 69.5161 26.0399 69.5909 26.3231 69.6347C27.4022 65.9101 27.7022 57.8325 28.2328 40.9254C28.8608 21.0975 34.1061 9.63331 37.2767 4.45668Z" fill="#739A3D"/>
<path d="M0.371948 48.4605C1.13305 46.5927 5.97393 35.688 9.63638 32.8379C9.95831 33.4273 11.0006 35.3838 12.0677 37.8719C6.9745 39.7168 0.371948 48.4605 0.371948 48.4605Z" fill="#88A23C"/>
<path d="M0.372943 48.8315L0.189124 48.7826C0.0251784 48.6879 -0.0423872 48.4904 0.0271656 48.3179C0.821061 46.4112 5.59139 35.5484 9.40884 32.5427C9.49728 32.4759 9.60757 32.451 9.71388 32.4739C9.8202 32.4958 9.91161 32.5627 9.96427 32.6594C10.2882 33.2577 11.3355 35.2213 12.4086 37.7253C12.4513 37.8191 12.4503 37.9268 12.4086 38.0205C12.3678 38.1142 12.2913 38.189 12.1959 38.2239C9.76555 39.0955 6.84533 41.7143 4.5789 44.1166C2.3075 46.5139 0.673013 48.6799 0.668045 48.6849C0.595512 48.7796 0.486215 48.8315 0.372943 48.8315ZM11.5749 37.6665C10.7423 35.7618 9.94837 34.2091 9.5241 33.4133C6.8801 35.7708 3.57138 42.3006 1.82858 46.0722C4.06222 43.4375 8.05058 39.1504 11.5749 37.6665Z" fill="#739A3D"/>
<path d="M12.7653 31.8965C15.6398 31.8357 18.0145 33.3614 18.0145 33.3614C26.3698 52.1872 24.2355 68.4959 24.2355 68.4959C23.9275 69.4213 23.4277 69.7674 22.8206 69.5071C22.1341 61.2819 19.5725 37.2736 12.7653 31.8965Z" fill="#B5D334"/>
<path d="M23.1992 69.9628C23.0194 69.9628 22.8455 69.9219 22.6776 69.8521C22.5494 69.7973 22.4629 69.6746 22.452 69.537C22.1072 65.4344 21.2984 57.3847 19.7265 49.7091C18.1705 42.0344 15.7789 34.7177 12.5368 32.1907C12.4145 32.093 12.3629 31.9284 12.4145 31.7798C12.4632 31.6312 12.6013 31.5295 12.7583 31.5245L12.9372 31.5235C15.8644 31.5275 18.1864 33.0333 18.2162 33.0473L18.3544 33.2109C23.9146 45.7301 24.8536 57.1364 24.8536 63.431C24.8536 66.649 24.6081 68.5318 24.6071 68.5438L24.5893 68.6136C24.3379 69.3884 23.8808 69.9548 23.1992 69.9628ZM23.8709 68.4131C23.9037 68.1499 24.1094 66.3618 24.1094 63.431C24.1094 57.2292 23.1833 45.9724 17.7204 33.6197C17.5336 33.508 17.0627 33.2428 16.387 32.9755C15.6845 32.6953 14.7744 32.4171 13.7668 32.3114C16.8947 35.5504 18.9694 42.4013 20.4499 49.5585C22.0009 57.1285 22.8117 65.0245 23.1664 69.2189L23.1962 69.2199C23.384 69.2269 23.6414 69.0603 23.8709 68.4131Z" fill="#739A3D"/>
<path d="M10.6787 32.2425C11.3861 32.0112 12.0886 31.9115 12.7653 31.8965C19.5735 37.2736 22.135 61.2819 22.8206 69.5071C21.4147 68.9048 19.4433 65.0006 18.0145 57.3119C15.9707 46.3165 12.1651 37.835 12.1651 37.835L12.0678 37.8719C11.0006 35.3838 9.95831 33.4273 9.63638 32.8379C9.99706 32.5587 10.3458 32.3512 10.6787 32.2425Z" fill="#93AF2A"/>
<path d="M23.0382 69.8092C23.1435 69.7334 23.2012 69.6048 23.1902 69.4752C22.8445 65.3536 22.0327 57.285 20.4508 49.5585C18.8531 41.8269 16.5589 34.4514 12.9938 31.6043C12.9262 31.5495 12.8448 31.5225 12.7563 31.5235C12.0499 31.5395 11.3086 31.6442 10.5644 31.8875L10.6777 32.2415L10.792 32.5956C11.4159 32.3931 12.0379 32.2944 12.6381 32.2725C15.8286 34.8732 18.1844 42.1181 19.7225 49.7061C21.1961 56.9041 22.0029 64.4262 22.3794 68.7193C21.2179 67.4598 19.5407 63.6862 18.3792 57.2411C16.3264 46.1958 12.5099 37.6954 12.502 37.6804C12.4632 37.5907 12.3937 37.5259 12.3102 37.49C11.405 35.4087 10.5376 33.7274 10.1193 32.9456C10.3597 32.7801 10.5883 32.6614 10.7929 32.5946L10.6787 32.2406L10.5654 31.8865C10.1739 32.0152 9.79436 32.2435 9.40984 32.5407C9.26775 32.6514 9.22602 32.8538 9.31246 33.0144C9.63042 33.5978 10.6668 35.5464 11.7289 38.0165C11.7677 38.1112 11.8392 38.1781 11.9257 38.215C12.1959 38.8442 12.9998 40.7549 13.9735 43.5701C15.1748 47.0514 16.6324 51.903 17.6479 57.3778C19.1264 65.1143 20.9685 69.0334 22.6745 69.8481L22.8226 69.878L23.0382 69.8092Z" fill="#739A3D"/>
</svg>
