<svg width="55" height="105" viewBox="0 0 55 105" fill="none" xmlns="http://www.w3.org/2000/svg">
<path d="M10.1346 72.2677L13.7004 98.6847C13.7543 102.254 21.6007 105.03 31.2299 104.884C40.8592 104.738 48.6197 101.728 48.5668 98.1597L52.7016 69.9607L10.1346 72.2677Z" fill="#AA6B28"/>
<path d="M10.1346 72.2677L10.2424 72.2527L13.8082 98.6697L13.8102 98.6827C13.8242 100.335 15.652 101.879 18.6758 102.989C21.6915 104.099 25.8693 104.78 30.5072 104.78C30.7458 104.78 30.9874 104.778 31.2279 104.775C36.0146 104.703 40.3381 103.918 43.4567 102.715C46.5813 101.513 48.468 99.8837 48.456 98.1967V98.1627L48.458 98.1437L52.5729 70.0777L10.1406 72.3777L10.1346 72.2677L10.1286 72.1577L52.6957 69.8517L52.7825 69.8877L52.8105 69.9767L48.6746 98.1757L48.5678 98.1597L48.6766 98.1557V98.1957C48.6657 100.061 46.6811 101.703 43.5356 102.92C40.387 104.136 36.0416 104.92 31.2329 104.993C30.9904 104.996 30.7478 104.998 30.5082 104.998C25.8493 104.998 21.6506 104.317 18.5999 103.195C15.5562 102.072 13.6295 100.513 13.5916 98.6857L13.7004 98.6837L13.5916 98.6987L10.0248 72.2807L10.0497 72.1957L10.1276 72.1567L10.1346 72.2677Z" fill="#2E1010"/>
<path d="M10.1346 72.2677L13.7004 98.6847C13.7543 102.254 21.6007 105.03 31.2299 104.884C40.8592 104.738 48.6197 101.728 48.5668 98.1597L52.7016 69.9607L10.1346 72.2677Z" fill="#F9A84C"/>
<path d="M10.1346 72.2677L10.2424 72.2527L13.8082 98.6697L13.8102 98.6827C13.8242 100.335 15.652 101.879 18.6758 102.989C21.6915 104.099 25.8693 104.78 30.5072 104.78C30.7458 104.78 30.9874 104.778 31.2279 104.775C36.0146 104.703 40.3381 103.918 43.4567 102.715C46.5813 101.513 48.468 99.8837 48.456 98.1967V98.1627L48.458 98.1437L52.5729 70.0777L10.1406 72.3777L10.1346 72.2677L10.1286 72.1577L52.6957 69.8517L52.7825 69.8877L52.8105 69.9767L48.6746 98.1757L48.5678 98.1597L48.6766 98.1557V98.1957C48.6657 100.061 46.6811 101.703 43.5356 102.92C40.387 104.136 36.0416 104.92 31.2329 104.993C30.9904 104.996 30.7478 104.998 30.5082 104.998C25.8493 104.998 21.6506 104.317 18.5999 103.195C15.5562 102.072 13.6295 100.513 13.5916 98.6857L13.7004 98.6837L13.5916 98.6987L10.0248 72.2807L10.0497 72.1957L10.1276 72.1567L10.1346 72.2677Z" fill="#7C4317"/>
<path d="M47.9539 77.3897L45.3494 95.9527C45.3494 95.9527 44.2364 101.785 37.0878 103.334C36.2742 103.512 35.4656 103.595 34.677 103.595C28.5496 103.595 23.4535 98.5317 23.0212 92.5987C22.5001 85.4407 22.5001 79.3607 22.5001 79.3607C22.5001 79.3607 26.7967 80.0587 32.329 80.0587C37.2745 80.0587 43.2101 79.5007 47.9539 77.3897Z" fill="#FAB76A"/>
<path d="M10.482 74.0207C11.6959 75.1007 13.4189 76.0607 15.5202 76.8617C17.2802 77.5307 19.3067 78.0887 21.5338 78.5047C20.9468 78.5677 20.1961 78.6207 19.2967 78.6207C18.1207 78.6207 16.6942 78.5307 15.056 78.2637C15.056 78.2637 14.9213 78.1437 14.7546 78.1437C14.489 78.1437 14.1476 78.4457 14.1247 79.9977C14.0877 82.5337 16.4706 97.8927 16.4706 97.8927C16.4706 97.8927 16.9308 101.853 22.4382 103.335C24.282 103.833 27.2658 104.233 30.612 104.233C37.1637 104.233 45.0999 102.694 48.5788 97.3177L48.458 98.1437L48.456 98.1627V98.1967C48.468 99.8847 46.5813 101.513 43.4567 102.715C40.3381 103.918 36.0146 104.702 31.228 104.775C30.9884 104.778 30.7468 104.78 30.5072 104.78C25.8693 104.78 21.6915 104.099 18.6758 102.989C15.652 101.88 13.8242 100.336 13.8102 98.6827L13.8082 98.6697L10.482 74.0207Z" fill="#DE9342"/>
<path d="M10.3562 73.9057C10.3971 73.9437 10.4391 73.9817 10.482 74.0207L13.8082 98.6687L13.8102 98.6817C13.8242 100.334 15.652 101.878 18.6758 102.988C21.6915 104.098 25.8693 104.779 30.5072 104.779C30.7458 104.779 30.9874 104.777 31.2279 104.774C36.0146 104.702 40.3381 103.917 43.4567 102.714C46.5813 101.512 48.468 99.8827 48.456 98.1957V98.1617L48.458 98.1427L48.5788 97.3167C48.6277 97.2417 48.6766 97.1657 48.7236 97.0877L48.5678 98.1587C48.6207 101.726 40.8592 104.737 31.2309 104.883C30.9894 104.886 30.7478 104.888 30.5082 104.888C21.2113 104.888 13.7553 102.163 13.7014 98.6837L10.3562 73.9057Z" fill="#6F3B14"/>
<path d="M53.6869 64.9857L49.571 65.1427C45.5001 62.8297 38.7558 61.3147 31.1191 61.3147C22.5969 61.3147 15.1848 63.2007 11.3584 65.9777C9.76919 65.4777 8.15399 64.9617 8.15399 64.9617L8.62717 70.7137C9.19718 75.4617 19.0471 79.2417 31.1191 79.2417C43.3279 79.2417 53.2616 75.3757 53.622 70.5517L53.6879 70.4797V65.2097L53.6829 65.2247L53.6869 64.9857Z" fill="#F9A72B"/>
<path d="M53.6869 64.9857L53.6909 65.0947L49.576 65.2527L49.5181 65.2387C45.4732 62.9387 38.7409 61.4237 31.1181 61.4237C22.6149 61.4227 15.2127 63.3117 11.4233 66.0667L11.3235 66.0837C9.73525 65.5827 8.12106 65.0667 8.12106 65.0667L8.153 64.9627L8.26281 64.9537L8.73499 70.7057L8.62618 70.7147V70.6057L8.73499 70.7027C9.00452 73.0007 11.5671 75.1277 15.5981 76.6577C19.6241 78.1897 25.0946 79.1347 31.1181 79.1347C37.2115 79.1347 42.7359 78.1687 46.7729 76.6057C50.8169 75.0427 53.3455 72.8777 53.5122 70.5447L53.5402 70.4797L53.5771 70.4397V65.2117H53.6859L53.7897 65.2437L53.7837 65.2587L53.6629 65.3337L53.5711 65.2247L53.5761 64.9857H53.6869L53.7957 64.9877L53.7907 65.2257L53.6819 65.2247L53.5781 65.1917L53.5821 65.1767L53.7029 65.1017L53.7967 65.2097V70.4797L53.7688 70.5527L53.7039 70.6257L53.623 70.5517L53.7318 70.5587C53.5372 73.0497 50.9197 75.2327 46.8538 76.8087C42.7828 78.3837 37.2355 79.3527 31.1191 79.3527C25.0726 79.3527 19.5801 78.4067 15.5212 76.8617C11.4672 75.3157 8.82084 73.1767 8.51737 70.7287L8.62618 70.7147V70.8237L8.51537 70.7227L8.04419 64.9707L8.08612 64.8737L8.18794 64.8557C8.19094 64.8567 9.80214 65.3727 11.3924 65.8707L11.3584 65.9757L11.2925 65.8897C15.1538 63.0897 22.5809 61.2077 31.1181 61.2057C38.7708 61.2077 45.5261 62.7217 49.625 65.0487L49.5701 65.1437L49.5671 65.0347L53.6809 64.8767L53.7618 64.9087L53.7947 64.9887L53.6869 64.9857Z" fill="#7C4317"/>
<path d="M53.6869 64.9857C53.6869 69.9667 43.4936 74.0067 30.9195 74.0067C18.3463 74.0067 8.15302 69.9677 8.15302 64.9857C8.15302 60.0027 18.3463 55.9637 30.9195 55.9637C43.4936 55.9637 53.6869 60.0027 53.6869 64.9857Z" fill="#F9A84C"/>
<path d="M53.6869 64.9857H53.7957C53.7867 67.5607 51.1902 69.8267 47.0574 71.4657C42.9196 73.1047 37.2195 74.1147 30.9195 74.1147C24.6214 74.1147 18.9193 73.1037 14.7815 71.4657C10.6517 69.8257 8.05317 67.5607 8.04419 64.9857C8.05317 62.4107 10.6517 60.1427 14.7815 58.5037C18.9203 56.8637 24.6214 55.8547 30.9195 55.8547C37.2195 55.8547 42.9196 56.8647 47.0574 58.5037C51.1902 60.1437 53.7867 62.4107 53.7957 64.9857H53.6869H53.5781C53.5851 62.5777 51.0874 60.3337 46.9796 58.7077C42.8777 57.0817 37.1956 56.0737 30.9205 56.0737C24.6464 56.0737 18.9662 57.0817 14.8643 58.7077C10.7545 60.3337 8.25682 62.5777 8.26481 64.9857C8.25682 67.3927 10.7545 69.6367 14.8643 71.2617C18.9662 72.8877 24.6464 73.8957 30.9205 73.8957C37.1956 73.8957 42.8777 72.8877 46.9796 71.2617C51.0874 69.6367 53.5851 67.3927 53.5781 64.9857H53.6869Z" fill="#7C4317"/>
<path d="M52.9642 64.8117C52.9642 69.3147 43.1173 72.9647 30.9694 72.9647C18.8225 72.9647 8.97656 69.3147 8.97656 64.8117C8.97656 60.3097 18.8225 56.6627 30.9694 56.6627C43.1173 56.6617 52.9642 60.3097 52.9642 64.8117Z" fill="#C7883C"/>
<path d="M52.9642 64.8117H53.073C53.062 67.1527 50.5504 69.1977 46.5603 70.6787C42.5633 72.1607 37.0548 73.0747 30.9694 73.0747C24.885 73.0747 19.3765 72.1617 15.3795 70.6787C11.3894 69.1967 8.87778 67.1527 8.8678 64.8117C8.87878 62.4717 11.3904 60.4277 15.3795 58.9457C19.3765 57.4657 24.886 56.5517 30.9694 56.5517C37.0548 56.5517 42.5633 57.4647 46.5603 58.9457C50.5504 60.4277 53.063 62.4717 53.073 64.8117H52.9642H52.8554C52.8654 62.6507 50.4546 60.6197 46.4855 59.1507C42.5213 57.6827 37.0319 56.7717 30.9694 56.7717C24.9069 56.7717 19.4185 57.6827 15.4544 59.1507C11.4862 60.6197 9.07544 62.6507 9.08642 64.8117C9.07544 66.9727 11.4862 69.0047 15.4544 70.4727C19.4185 71.9427 24.9069 72.8547 30.9694 72.8547C37.0319 72.8547 42.5213 71.9427 46.4855 70.4727C50.4546 69.0047 52.8654 66.9727 52.8554 64.8117H52.9642Z" fill="#7C4317"/>
<path d="M16.83 63.6067C16.83 63.6067 16.4207 62.5627 19.9695 61.2757C23.5163 59.9897 24.3269 62.2577 24.3269 62.2577C24.3269 62.2577 24.2151 61.2827 26.1198 60.0577C28.0275 58.8337 30.8486 60.8147 30.8486 60.8147C33.9402 59.3947 36.2642 62.5767 36.2642 62.5767C39.0973 59.7477 43.9039 62.5297 43.9039 62.5297C48.7855 61.4727 49.9804 65.4627 49.9804 65.4627C51.1763 65.4167 52.0668 65.8207 52.7266 66.3777C50.3228 69.9277 41.8126 72.7097 31.6143 72.9577C20.5914 73.2237 11.3934 70.4397 9.70734 66.5567C10.9492 65.2967 13.2073 64.9097 13.2073 64.9097C14.3073 63.3077 16.83 63.6067 16.83 63.6067Z" fill="#584521"/>
<path d="M16.7241 63.6347C16.3737 62.4307 19.2797 61.4957 19.9295 61.2437C21.2802 60.7177 23.4474 60.4667 24.3009 61.9747C24.4267 62.1957 24.3898 62.1787 24.3319 62.1617C24.286 62.1497 24.2281 62.1367 24.2201 62.2277C24.257 61.8627 24.4247 61.5977 24.6174 61.2957C25.1625 60.4387 26.1667 59.8787 27.1211 59.6457C27.9776 59.4367 28.9529 59.7977 29.7335 60.1117C30.1388 60.2747 30.5241 60.5037 30.8905 60.7367C30.7388 60.6417 32.2581 60.4157 32.0834 60.4227C33.1835 60.3817 34.071 60.6567 35.0014 61.2517C35.4117 61.5127 35.764 61.8667 36.0965 62.2187C36.5357 62.6877 36.5846 62.0997 37.1526 61.8367C39.218 60.8787 41.3923 61.2907 43.4148 62.1907C43.9358 62.4237 44.397 62.3767 44.8912 62.3317C45.1897 62.3037 45.5001 62.2747 45.8445 62.3107C46.9496 62.4197 47.868 62.7387 48.7375 63.4397C49.3005 63.8937 49.7188 64.5567 50.0063 65.2167C50.1171 65.4737 52.3273 65.9707 52.8244 66.3397L52.8214 66.3747C51.0325 68.8327 47.9109 70.0277 45.1308 70.9377C40.7783 72.3617 36.1274 72.8647 31.5703 73.0067C26.8076 73.1557 21.974 72.7007 17.372 71.4437C14.5908 70.6827 10.9591 69.3737 9.59949 66.5827L9.62245 66.5437C10.8034 65.5187 12.3427 65.3397 13.4917 64.4707C14.486 63.7227 15.657 63.4397 16.8958 63.5567C17.0086 63.5677 16.817 63.6597 16.761 63.6557C15.3405 63.5207 14.2634 64.7217 12.9157 65.0147C11.7368 65.2687 9.26307 65.8857 10.3232 67.3917C10.6996 67.9297 11.2267 68.3527 11.7398 68.7507C15.1828 71.4227 20.229 72.1557 24.4078 72.6277C30.1698 73.2757 36.1124 72.9347 41.7796 71.7367C44.2263 71.2187 46.6262 70.4467 48.8713 69.3407C49.7338 68.9167 50.5414 68.3887 51.2971 67.7947C51.6105 67.5387 51.9 67.2637 52.1685 66.9627C53.2636 65.7987 50.0402 65.5147 49.9324 65.5107L49.8715 65.4877C49.04 62.9037 46.3477 62.1457 43.8829 62.5767C43.6503 62.6167 43.1412 62.2387 42.9396 62.1487C40.8033 61.1937 38.2687 60.9167 36.344 62.5847L36.1604 62.6107C35.8669 62.2247 35.5125 61.8977 35.1451 61.5837C33.6667 60.3127 32.8551 60.8137 30.8007 60.8627C30.4413 60.8717 29.8982 60.3617 29.5578 60.2007C27.9356 59.4317 24.3748 60.0247 24.4267 62.2277L24.2161 62.2847C23.8967 61.4897 23.107 61.1147 22.3114 60.9557C22.8784 61.0677 16.3787 61.6657 16.9318 63.5767L16.7241 63.6347Z" fill="#403215"/>
<path d="M43.6134 63.2927C43.6134 63.2927 47.5436 62.6067 48.3003 64.6927C49.057 66.7797 51.5996 65.6507 49.9684 67.4547C48.3352 69.2587 45.8066 69.3467 44.6656 68.3727C43.5256 67.3957 43.1203 66.0167 40.8552 66.2057C38.5882 66.3977 39.9957 64.5877 41.3344 64.5647C42.6751 64.5447 40.1784 62.8537 39.0963 62.7317C38.0132 62.6087 41.4073 61.4067 43.6134 63.2927Z" fill="#6C562B"/>
<path d="M33.7985 65.3577C33.7985 65.3577 34.6909 64.2787 37.3443 64.2137C39.9987 64.1507 38.4863 65.2257 38.6101 65.7347C38.7329 66.2447 36.972 67.2577 36.972 67.2577C36.972 67.2577 36.2213 65.4847 33.7985 65.3577Z" fill="#6C562B"/>
<path d="M34.9675 62.9047C35.239 62.8877 33.3313 60.8197 31.3867 61.4637C30.5042 61.7547 29.6786 61.5397 28.896 61.3227C27.9486 61.0607 27.0612 60.8007 26.2097 61.4347C24.6494 62.5967 25.3422 63.5547 25.3422 63.5547C25.3422 63.5547 30.2696 63.5047 30.7408 65.6557C30.7408 65.6557 32.2182 63.0847 34.9675 62.9047Z" fill="#6C562B"/>
<path d="M21.9241 65.3317C21.972 65.3417 22.3683 65.2707 22.9523 65.2007C24.5665 65.0077 27.6082 64.8137 28.6854 66.3287C28.6854 66.3287 29.2913 66.7727 28.1213 67.7337C26.9544 68.6937 26.1038 68.9757 26.1348 70.1677C26.1348 70.1677 24.5615 66.7157 18.4172 68.2177C12.2749 69.7197 11.5771 67.0777 12.8269 66.3277C14.0737 65.5737 16.5544 66.6217 16.5544 66.6217C16.5544 66.6217 17.5048 64.3017 21.9241 65.3317Z" fill="#6C562B"/>
<path d="M18.3393 63.3827C18.3393 63.3827 19.678 61.7827 21.5118 62.1507C23.3456 62.5177 17.8272 65.0357 18.3393 63.3827Z" fill="#775E30"/>
<path d="M29.2434 69.4667C29.2434 69.4667 31.2529 67.8727 33.8783 68.6327C33.8783 68.6327 34.1019 71.2187 34.7069 71.1797C35.3148 71.1397 36.2811 67.4027 39.4636 67.7077C42.6481 68.0147 44.0576 69.3237 42.7429 70.3997C41.4292 71.4747 35.1621 72.7837 31.3617 72.4637C27.5583 72.1457 28.302 70.4707 29.2434 69.4667Z" fill="#6C562B"/>
<path d="M20.9039 69.3987C20.9039 69.3987 23.5393 69.0737 24.7312 70.6477C25.9232 72.2227 20.4397 71.9087 18.4841 70.9867C16.5265 70.0667 20.6064 69.4207 20.9039 69.3987Z" fill="#6C562B"/>
<path d="M29.6936 57.3577C39.5834 57.3577 46.8957 60.0707 46.8957 60.0707C48.3073 60.8307 47.0015 61.9067 45.021 61.9067C44.1405 61.9067 43.1283 61.6957 42.1609 61.1487C41.3583 60.6947 40.6186 60.5437 39.9408 60.5437C39.255 60.5437 38.6341 60.6977 38.079 60.8537C37.525 61.0077 37.0348 61.1627 36.6156 61.1627C36.2382 61.1627 35.9168 61.0397 35.6502 60.6827C35.1102 59.9527 34.086 59.7587 33.1496 59.7607C32.0904 59.7607 31.1431 60.0077 31.1431 60.0077C31.1431 60.0077 30.9275 59.0607 28.0465 59.0607C27.9017 59.0607 27.746 59.0617 27.5872 59.0687C24.276 59.1737 23.8527 60.7667 23.8527 60.7667C23.5852 59.7527 21.2183 59.8097 20.8539 58.9117C20.4906 58.0137 21.8682 57.9527 21.8682 57.9527C24.5895 57.5267 27.2219 57.3577 29.6936 57.3577Z" fill="#D09C5D"/>
<path d="M43.5555 64.0657C43.6384 63.9077 44.6916 63.2417 46.6462 63.9897C48.5988 64.7397 47.5067 65.7607 46.0103 65.5227C44.5169 65.2857 43.272 64.6197 43.5555 64.0657Z" fill="#7C6232"/>
<path d="M35.9767 64.6747C35.9767 64.6747 37.3233 64.4197 37.0877 64.9647C36.8541 65.5077 34.632 64.9297 35.9767 64.6747Z" fill="#7C6232"/>
<path d="M25.7714 62.8757C25.7714 62.8757 26.2915 61.2377 27.9726 61.4847C29.6537 61.7297 25.8483 63.8627 25.7714 62.8757Z" fill="#7C6232"/>
<path d="M17.1873 66.6067C17.1873 66.6067 20.3878 64.9537 20.3878 66.5297C20.3878 68.1057 15.9884 67.7447 17.1873 66.6067Z" fill="#7C6232"/>
<path d="M25.7744 71.4147C25.8434 71.4207 25.9134 71.4267 25.9834 71.4337C25.9504 71.4427 25.9154 71.4457 25.8784 71.4457C25.8574 71.4457 25.8354 71.4457 25.8134 71.4427C25.8024 71.4407 25.7904 71.4327 25.7744 71.4147Z" fill="#463618"/>
<path d="M8.97656 68.3907C10.0657 73.3617 19.2727 77.3897 19.2727 77.3897C19.2727 77.3897 13.9899 75.6477 11.9324 74.4057C9.87301 73.1627 9.22613 70.8657 9.22613 70.8657L8.97656 68.3907Z" fill="#DE9225"/>
<path d="M44.8153 64.6637C44.8153 64.6637 46.2508 63.3207 47.8181 64.8297C49.3784 66.3397 48.5798 67.6807 46.9357 67.5197C45.2915 67.3557 43.1662 65.9857 44.8153 64.6637Z" fill="#584521"/>
<path d="M44.7195 64.6427C45.3045 64.1127 46.151 63.9597 46.8957 64.1727C47.9269 64.4687 49.3704 66.0377 48.4959 67.1047C47.8002 67.9547 46.2658 67.5207 45.4512 67.1557C44.9271 66.9207 44.406 66.5487 44.1754 66.0087C43.9409 65.4657 44.3362 64.9747 44.7195 64.6427L44.9102 64.6867C44.0297 65.4467 44.3162 66.2787 45.2027 66.8697C46.0502 67.4367 47.7532 67.9377 48.4221 66.8947C49.046 65.9217 47.6704 64.6557 46.9217 64.3037C46.2638 63.9937 45.4343 64.2097 44.9102 64.6867L44.7195 64.6427Z" fill="#403215"/>
<path d="M44.4851 65.2107C44.5161 65.3207 44.5781 65.4727 44.6921 65.6327C44.5861 65.6407 44.4791 65.6627 44.3771 65.7007C44.3711 65.5387 44.4051 65.3747 44.4851 65.2107Z" fill="#54401D"/>
<path d="M44.4514 65.0307C44.4514 65.0307 44.4544 65.0997 44.4854 65.2107C44.4054 65.3747 44.3714 65.5387 44.3774 65.7007C44.3244 65.7197 44.2734 65.7417 44.2274 65.7657C44.1984 65.5297 44.2634 65.2807 44.4514 65.0307Z" fill="#3D2E12"/>
<path d="M48.5738 66.2517C48.5958 66.4717 48.5528 66.6897 48.4221 66.8947C48.1386 67.3357 47.6684 67.4997 47.1593 67.4997C46.727 67.4997 46.2648 67.3837 45.8615 67.2167C46.0282 66.9467 45.9823 66.6337 45.8276 66.3567C45.9074 66.3777 45.9913 66.3987 46.0821 66.4157C46.0821 66.4157 46.8019 66.8057 47.4577 66.8057C47.6245 66.8057 47.7872 66.7817 47.9339 66.7177C48.3073 66.5537 48.5179 66.4257 48.5738 66.2517Z" fill="#54401D"/>
<path d="M48.3841 65.5367C49.048 66.6517 48.4091 67.5317 47.1972 67.5317C47.1134 67.5317 47.0255 67.5287 46.9357 67.5197C46.5763 67.4847 46.1959 67.3907 45.8356 67.2527C45.8436 67.2407 45.8525 67.2277 45.8605 67.2157C46.2638 67.3827 46.726 67.4987 47.1583 67.4987C47.6674 67.4987 48.1366 67.3347 48.4211 66.8937C48.5528 66.6897 48.5958 66.4707 48.5728 66.2507C48.6267 66.0917 48.5509 65.8947 48.3602 65.5977L48.3841 65.5367Z" fill="#3D2E12"/>
<path d="M46.1041 64.4677C47.0315 64.4677 47.7642 65.4097 47.7642 65.4097C47.9059 65.6037 47.9658 65.7437 47.9658 65.8397C47.9658 65.9767 47.848 66.0287 47.6783 66.0287C47.3419 66.0287 46.8058 65.8277 46.5982 65.6947C46.3077 65.5047 45.2565 65.1767 45.2595 64.8537C45.2595 64.7497 45.3683 64.6467 45.6439 64.5477C45.8006 64.4907 45.9553 64.4677 46.1041 64.4677Z" fill="#654E21"/>
<path d="M44.0586 65.9647C44.0586 65.9647 44.7874 65.2577 45.4961 66.0697C46.2039 66.8827 45.7836 67.5937 44.997 67.4967C44.2144 67.4027 43.2321 66.6587 44.0586 65.9647Z" fill="#584521"/>
<path d="M43.9628 65.9487C44.2203 65.7077 44.6456 65.5617 44.994 65.6617C45.6049 65.8377 46.3047 66.7247 45.7856 67.3167C45.0789 68.1227 42.8986 66.9447 43.9628 65.9487L44.1545 65.9827C43.1742 66.8997 45.1637 67.9757 45.6798 67.1587C45.9563 66.7217 45.4792 66.1347 45.1657 65.8787C44.8532 65.6247 44.425 65.7327 44.1545 65.9827L43.9628 65.9487Z" fill="#403215"/>
<path d="M15.3904 67.2307C15.3904 67.2307 16.827 65.8887 18.3902 67.3997C19.9545 68.9057 19.1549 70.2477 17.5118 70.0857C15.8666 69.9247 13.7403 68.5517 15.3904 67.2307Z" fill="#584521"/>
<path d="M15.3056 67.2277C15.8526 66.7337 16.6313 66.5417 17.343 66.6847C18.4292 66.9047 19.9605 68.5537 19.0611 69.6527C18.3553 70.5147 16.8539 70.1157 16.0223 69.7437C15.4972 69.5097 14.9841 69.1407 14.7515 68.5977C14.5189 68.0577 14.9262 67.5587 15.3056 67.2277C15.3485 67.1927 15.5591 67.1617 15.4733 67.2347C13.3739 69.0467 18.1806 71.1737 19.0491 69.3927C19.5073 68.4567 18.3383 67.3627 17.6355 66.9607C16.9557 66.5727 16.0463 66.7157 15.4733 67.2337C15.4314 67.2707 15.2217 67.3047 15.3056 67.2277Z" fill="#403215"/>
<path d="M16.4116 68.9257C16.5843 69.2097 16.6412 69.5307 16.4356 69.7917C16.8529 69.9637 17.3091 70.0637 17.7254 70.0637C18.2235 70.0637 18.6657 69.9207 18.9293 69.5847C18.6348 69.5047 18.3932 69.4387 18.1876 69.3647C18.1376 69.3687 18.0877 69.3717 18.0358 69.3717C17.379 69.3717 16.6592 68.9797 16.6592 68.9797C16.5714 68.9647 16.4885 68.9457 16.4116 68.9257ZM15.054 67.7537C14.9701 67.9277 14.9382 68.1017 14.9502 68.2717C15.053 68.2327 15.1588 68.2067 15.2646 68.1977C15.1438 68.0257 15.084 67.8647 15.054 67.7537Z" fill="#54401D"/>
<path d="M18.9283 69.5857C18.6647 69.9217 18.2225 70.0647 17.7244 70.0647C17.3081 70.0647 16.8519 69.9637 16.4346 69.7927C16.4266 69.8017 16.4196 69.8097 16.4136 69.8187C16.4117 69.8207 16.4117 69.8207 16.4117 69.8207C16.772 69.9587 17.1524 70.0517 17.5127 70.0877C17.6046 70.0967 17.6914 70.1017 17.7773 70.1017C18.3313 70.1017 18.7656 69.9167 19.0091 69.6097C18.9812 69.6007 18.9552 69.5937 18.9283 69.5857ZM15.0251 67.5987C14.8374 67.8517 14.7735 68.1017 14.8004 68.3397C14.8494 68.3157 14.9003 68.2917 14.9492 68.2727C14.9362 68.1017 14.9692 67.9277 15.053 67.7547C15.0291 67.6587 15.0251 67.5987 15.0251 67.5987Z" fill="#3D2E12"/>
<path d="M16.6802 67.0347C16.835 67.0347 16.9827 67.0607 17.1225 67.1037C16.7321 67.2887 16.5315 67.5517 16.7621 67.9757C16.783 68.0137 16.804 68.0507 16.824 68.0857C16.4067 67.8997 15.8347 67.6597 15.8357 67.4197C15.8357 67.3157 15.9445 67.2127 16.22 67.1147C16.3768 67.0597 16.5315 67.0347 16.6802 67.0347Z" fill="#654E21"/>
<path d="M14.6357 68.5337C14.6357 68.5337 15.3635 67.8247 16.0732 68.6377C16.781 69.4507 16.3597 70.1617 15.5741 70.0677C14.7915 69.9697 13.8062 69.2287 14.6357 68.5337Z" fill="#584521"/>
<path d="M14.5379 68.5257C14.7915 68.2887 15.2228 68.1237 15.5652 68.2227C16.0913 68.3727 16.9088 69.2487 16.4137 69.8177C15.651 70.6847 13.4658 69.5267 14.5379 68.5257L14.7316 68.5407C13.7393 69.4697 15.7548 70.5317 16.257 69.7377C16.4806 69.3847 16.1821 68.9297 15.9695 68.6667C15.652 68.2727 15.102 68.1937 14.7316 68.5407L14.5379 68.5257Z" fill="#403215"/>
<path d="M52.7006 68.6967C52.7006 68.6967 52.6937 71.0237 52.469 71.5507C52.2424 72.0767 51.6026 72.9637 51.6026 72.9637C45.8246 77.3867 36.7653 78.2647 30.3864 78.2647C26.3015 78.2647 23.3157 77.9037 22.9962 77.8837C22.1767 77.8337 22.4991 74.3547 22.4991 74.3547C25.7944 74.6847 28.7423 74.8277 31.3847 74.8277C48.6786 74.8277 52.7006 68.6967 52.7006 68.6967Z" fill="#FAB64F"/>
<path d="M36.1773 62.2967C36.2833 62.3167 36.3903 62.3367 36.4983 62.3597C36.4943 62.3627 36.4923 62.3647 36.4883 62.3667C36.4553 62.3847 36.4223 62.3947 36.3843 62.3947C36.3243 62.3937 36.2583 62.3657 36.1773 62.2967Z" fill="#875723"/>
<path d="M40.372 71.3957C39.5395 71.6337 38.5642 71.8557 37.537 72.0377C38.5492 71.9577 39.5035 71.7927 40.2572 71.4487C40.2962 71.4317 40.3341 71.4137 40.372 71.3957ZM36.4978 62.3587C36.4938 62.3617 36.4918 62.3637 36.4878 62.3657C36.4878 62.3657 36.4958 62.3617 36.5008 62.3597L36.4978 62.3587ZM36.9719 67.2587C36.9719 67.2587 36.2212 65.4857 33.7984 65.3587C33.7984 65.3587 34.6909 64.2797 37.3443 64.2147C37.4192 64.2127 37.491 64.2127 37.5599 64.2127C39.9138 64.2127 38.4893 65.2407 38.6101 65.7357C38.7319 66.2457 36.9719 67.2587 36.9719 67.2587ZM36.9679 67.4817C37.0378 67.4817 37.1107 67.4687 37.1806 67.4387C37.3603 67.3567 38.3995 66.6917 39.7401 66.6917C40.6466 66.6917 41.6927 66.9967 42.705 67.9917C43.6254 68.6607 43.8759 69.5147 43.8759 69.5147C43.4986 68.8837 43.1063 68.3847 42.705 67.9917C42.112 67.5607 41.2425 67.2067 39.9817 67.2067C39.4367 67.2067 38.8197 67.2737 38.1209 67.4287C38.1209 67.4287 34.9305 68.7347 34.6051 70.7837C34.6051 70.7837 34.2107 68.7227 35.3238 68.3797C35.8718 68.2097 34.7947 67.8847 33.2374 67.8847C31.6362 67.8847 29.5309 68.2287 28.1632 69.4387C27.5313 69.9997 27.14 70.2187 26.9444 70.2187C26.3075 70.2187 27.753 67.8767 29.6756 67.3197C29.6756 67.3197 28.7812 65.2477 26.2905 64.8647C25.3551 64.7217 25.5418 64.5657 26.2096 64.5657C27.3177 64.5657 29.7615 64.9957 30.59 66.6297C30.59 66.6297 32.7453 63.1297 36.96 63.1297C37.1257 63.1297 37.2954 63.1357 37.4681 63.1477C37.4681 63.1477 33.1456 64.5157 32.911 65.6037C32.6774 66.6917 35.6422 66.2217 36.3909 67.2727C36.3909 67.2707 36.6735 67.4817 36.9679 67.4817ZM34.2307 62.0887C34.7807 62.4867 35.0872 62.8977 34.9664 62.9047C32.2172 63.0847 30.7398 65.6557 30.7398 65.6557C30.2895 63.6007 25.7714 63.5547 25.3701 63.5547C25.3501 63.5547 25.3411 63.5547 25.3411 63.5547C25.3411 63.5547 25.2473 63.4247 25.2064 63.2027C25.1085 63.2927 25.0307 63.4037 24.9778 63.5387C24.6823 64.3007 22.4631 64.6997 21.0396 65.1607C21.3171 65.2017 21.6116 65.2567 21.9251 65.3307H21.94C22.0289 65.3307 22.4102 65.2657 22.9543 65.1997C23.4993 65.1357 24.2041 65.0697 24.9418 65.0697C26.3953 65.0697 27.9736 65.3227 28.6873 66.3277C28.6873 66.3277 29.2933 66.7717 28.1233 67.7327C26.9563 68.6927 26.1058 68.9747 26.1368 70.1667C26.1368 70.1667 25.0746 67.8377 21.2922 67.8377C20.6423 67.8377 19.9126 67.9057 19.094 68.0667C19.1549 68.1757 19.2058 68.2877 19.2447 68.4007C19.7509 68.2907 20.3219 68.2167 20.9458 68.2167C21.4429 68.2167 21.971 68.2627 22.531 68.3717C25.8193 69.0087 26.7447 71.2517 25.984 71.4317C26.8216 71.5167 27.6082 71.6917 28.3499 71.8667C28.851 71.9837 29.3302 72.1017 29.7914 72.1917C27.8188 71.5927 28.4617 70.2987 29.2444 69.4647C29.2444 69.4647 30.5551 68.4257 32.4398 68.4257C32.89 68.4257 33.3742 68.4847 33.8783 68.6307C33.8783 68.6307 34.0989 71.1787 34.6929 71.1787C34.6999 71.1787 34.7039 71.1777 34.7039 71.1777C35.2909 71.1397 36.2063 67.6897 39.0963 67.6897C39.215 67.6897 39.3378 67.6957 39.4626 67.7067C42.4055 67.9897 43.831 69.1297 42.9955 70.1507C43.4217 69.9317 43.8799 69.6877 44.5558 69.3247C44.8902 69.1447 45.1647 68.9637 45.3753 68.7797C45.1038 68.6767 44.8622 68.5397 44.6646 68.3717C43.5974 67.4567 43.1732 66.1867 41.2615 66.1867C41.1317 66.1867 40.9949 66.1927 40.8542 66.2047C40.7394 66.2157 40.6336 66.2197 40.5387 66.2197C38.7289 66.2197 40.0636 64.5847 41.3344 64.5647C41.9553 64.5557 41.7526 64.1897 41.2515 63.7867C39.9538 63.3397 38.2517 62.7347 36.5986 62.3807C36.5127 62.4467 36.4289 62.5147 36.346 62.5867L36.1623 62.6127C36.0615 62.4807 35.9557 62.3567 35.8439 62.2367C35.2869 62.1447 34.7418 62.0907 34.2307 62.0887Z" fill="#3C2C13"/>
<path d="M35.8449 62.2367C35.9557 62.2567 36.0665 62.2747 36.1773 62.2967C36.2582 62.3657 36.3241 62.3947 36.385 62.3947C36.4219 62.3947 36.4549 62.3847 36.4888 62.3667C36.4888 62.3667 36.4968 62.3627 36.5018 62.3607C36.5337 62.3687 36.5677 62.3747 36.6006 62.3807C36.5147 62.4467 36.4309 62.5147 36.348 62.5867L36.1644 62.6127C36.0625 62.4807 35.9567 62.3567 35.8449 62.2367Z" fill="#2B200C"/>
<path d="M41.2525 63.7867C41.6189 63.9117 41.9533 64.0257 42.2458 64.1177C44.3551 64.7827 42.2228 65.2197 43.8111 66.1217C43.3089 66.8397 44.3042 67.5837 45.1128 67.5837C45.3404 67.5837 45.551 67.5247 45.7108 67.3907C46.0282 67.8617 45.8984 68.3277 45.3773 68.7817C45.1058 68.6787 44.8642 68.5417 44.6666 68.3737C43.5994 67.4587 43.1752 66.1887 41.2635 66.1887C41.1337 66.1887 40.997 66.1947 40.8562 66.2067C40.7414 66.2177 40.6356 66.2217 40.5407 66.2217C38.7309 66.2217 40.0656 64.5867 41.3364 64.5667C41.9563 64.5567 41.7536 64.1897 41.2525 63.7867Z" fill="#493719"/>
<path d="M36.4898 65.1887C35.8419 65.1887 35.0363 64.8527 35.9767 64.6737C35.9767 64.6737 36.2922 64.6137 36.5896 64.6137C36.9081 64.6137 37.2086 64.6817 37.0878 64.9637C37.0169 65.1277 36.7683 65.1887 36.4898 65.1887ZM37.559 64.2127C37.4911 64.2127 37.4182 64.2127 37.3433 64.2147C34.6899 64.2787 33.7975 65.3587 33.7975 65.3587C36.2203 65.4857 36.971 67.2587 36.971 67.2587C36.971 67.2587 38.7319 66.2457 38.6091 65.7357C38.4883 65.2407 39.9139 64.2127 37.559 64.2127Z" fill="#493719"/>
<path d="M34.2018 62.0887C34.2108 62.0887 34.2208 62.0887 34.2307 62.0887C34.7808 62.4867 35.0873 62.8977 34.9665 62.9047C32.2172 63.0847 30.7398 65.6557 30.7398 65.6557C30.2896 63.6007 25.7714 63.5547 25.3701 63.5547C25.3502 63.5547 25.3412 63.5547 25.3412 63.5547C25.3412 63.5547 25.2473 63.4247 25.2064 63.2027C25.3582 63.0627 25.5568 62.9737 25.7774 62.9197C25.8104 63.0707 25.9461 63.1337 26.1408 63.1337C26.3834 63.1337 26.7188 63.0347 27.0552 62.8847C27.4825 62.9387 27.8009 63.0237 27.8009 63.0237C29.0218 62.6377 29.9831 63.2167 32.6165 62.3167C33.0867 62.1577 33.6228 62.0887 34.2018 62.0887Z" fill="#493719"/>
<path d="M24.9408 65.0707C26.3943 65.0707 27.9726 65.3237 28.6863 66.3287C28.6863 66.3287 29.2923 66.7727 28.1223 67.7337C26.9553 68.6937 26.1048 68.9757 26.1358 70.1677C26.1358 70.1677 25.0736 67.8387 21.2912 67.8387C20.6413 67.8387 19.9116 67.9067 19.093 68.0677C18.9972 67.8967 18.8784 67.7327 18.7436 67.5797C19.5761 67.5277 20.3877 67.2067 20.3877 66.5297C20.3877 66.1167 20.1671 65.9257 19.8447 65.8687C19.9046 65.5937 20.3877 65.3707 21.0386 65.1617C21.3161 65.2027 21.6106 65.2577 21.9241 65.3317H21.939C22.0279 65.3317 22.4092 65.2667 22.9533 65.2007C23.4973 65.1367 24.2031 65.0707 24.9408 65.0707Z" fill="#493719"/>
<path d="M39.0962 67.6907C39.215 67.6907 39.3378 67.6967 39.4626 67.7077C42.4055 67.9907 43.831 69.1307 42.9955 70.1517C42.3057 70.5047 41.6927 70.7887 40.371 71.3957C39.5385 71.6337 38.5632 71.8557 37.5359 72.0377C35.5284 72.1977 33.2983 72.0277 31.9746 72.2847C31.725 72.3337 31.4705 72.3537 31.2109 72.3537C30.7547 72.3537 30.2815 72.2887 29.7894 72.1927C27.8168 71.5937 28.4597 70.2997 29.2424 69.4657C29.2424 69.4657 30.5531 68.4267 32.4378 68.4267C32.888 68.4267 33.3722 68.4857 33.8763 68.6317C33.8763 68.6317 34.0969 71.1797 34.6909 71.1797C34.6979 71.1797 34.7019 71.1787 34.7019 71.1787C35.2908 71.1417 36.2063 67.6907 39.0962 67.6907Z" fill="#493719"/>
<path d="M36.5906 64.6147C36.9091 64.6147 37.2096 64.6827 37.0888 64.9647C37.0179 65.1277 36.7693 65.1897 36.4898 65.1897C35.8419 65.1897 35.0363 64.8537 35.9767 64.6747C35.9767 64.6747 36.2932 64.6147 36.5906 64.6147Z" fill="#543F1C"/>
<path d="M26.4542 62.8477C26.6628 62.8477 26.8695 62.8637 27.0562 62.8857C26.7197 63.0357 26.3843 63.1347 26.1417 63.1347C25.9471 63.1347 25.8113 63.0717 25.7784 62.9207C25.992 62.8667 26.2246 62.8477 26.4542 62.8477Z" fill="#543F1C"/>
<path d="M19.8447 65.8687C20.1671 65.9257 20.3877 66.1167 20.3877 66.5297C20.3877 67.2067 19.5762 67.5277 18.7436 67.5797C18.4811 67.2827 18.1606 67.0317 17.8422 66.8677C18.7905 66.6337 19.9485 66.5097 19.8437 65.9807C19.8357 65.9427 19.8357 65.9047 19.8447 65.8687Z" fill="#543F1C"/>
<path d="M42.705 67.9917C43.1053 68.3857 43.4986 68.8847 43.876 69.5147C43.876 69.5147 43.6254 68.6607 42.705 67.9917ZM36.96 63.1287C32.7453 63.1287 30.5901 66.6287 30.5901 66.6287C29.7615 64.9947 27.3187 64.5647 26.2097 64.5647C25.5418 64.5647 25.3561 64.7197 26.2905 64.8637C28.7812 65.2467 29.6756 67.3187 29.6756 67.3187C27.752 67.8767 26.3075 70.2177 26.9444 70.2177C27.139 70.2177 27.5314 69.9977 28.1633 69.4377C29.5309 68.2277 31.6362 67.8837 33.2375 67.8837C34.7948 67.8837 35.8719 68.2087 35.3238 68.3787C34.2118 68.7227 34.6051 70.7827 34.6051 70.7827C34.9305 68.7327 38.121 67.4277 38.121 67.4277C38.8198 67.2737 39.4367 67.2057 39.9817 67.2057C41.2425 67.2057 42.112 67.5607 42.705 67.9907C41.6928 66.9957 40.6466 66.6907 39.7402 66.6907C38.3985 66.6907 37.3593 67.3557 37.1806 67.4377C37.1107 67.4677 37.0379 67.4807 36.968 67.4807C36.6735 67.4807 36.391 67.2697 36.391 67.2697C35.6423 66.2187 32.6764 66.6887 32.911 65.6007C33.1456 64.5127 37.4681 63.1447 37.4681 63.1447C37.2954 63.1347 37.1257 63.1287 36.96 63.1287Z" fill="#2F230E"/>
<path d="M20.3229 68.9837C24.298 68.9837 25.5109 71.1477 25.7744 71.4147C25.5159 71.3937 25.2523 71.3827 24.9828 71.3827C24.9189 71.3827 24.852 71.3827 24.7861 71.3837C24.7652 71.3857 24.7402 71.3857 24.7172 71.3857C24.9418 71.2107 24.9748 70.9687 24.7322 70.6487C23.8887 69.5347 22.3234 69.3727 21.4799 69.3727C21.1285 69.3727 20.9049 69.3997 20.9049 69.3997C20.7851 69.4087 20.0593 69.5167 19.3586 69.7037C19.2617 69.6777 19.1699 69.6527 19.082 69.6287C19.2298 69.4407 19.3086 69.2357 19.3286 69.0277C19.677 68.9967 20.0084 68.9837 20.3229 68.9837Z" fill="#3C2C13"/>
<path d="M21.4789 69.3717C22.3224 69.3717 23.8877 69.5337 24.7312 70.6477C24.9738 70.9677 24.9408 71.2107 24.7162 71.3847C24.6533 71.3857 24.5924 71.3857 24.5316 71.3857C21.8911 71.3857 21.7723 70.3997 19.8427 69.8397C19.668 69.7887 19.5053 69.7427 19.3575 69.7017C20.0583 69.5157 20.7841 69.4067 20.9039 69.3977C20.9039 69.3977 21.1275 69.3717 21.4789 69.3717Z" fill="#493719"/>
<path d="M20.9448 68.2187C21.442 68.2187 21.97 68.2647 22.5301 68.3737C25.8184 69.0107 26.7438 71.2537 25.9831 71.4337C25.9132 71.4267 25.8433 71.4207 25.7744 71.4147C25.5109 71.1477 24.298 68.9837 20.3229 68.9837C20.0084 68.9837 19.678 68.9967 19.3276 69.0267C19.3486 68.8207 19.3156 68.6087 19.2438 68.4017C19.7499 68.2917 20.3209 68.2187 20.9448 68.2187Z" fill="#2F230E"/>
<path d="M43.9718 66.2087C44.0347 66.2397 44.1006 66.2727 44.1715 66.3057C44.8633 66.6217 45.3364 66.9387 45.607 67.2537C45.4762 67.3907 45.2905 67.4487 45.0869 67.4487C44.436 67.4487 43.6194 66.8307 43.9718 66.2087Z" fill="#3C2C13"/>
<path d="M43.8111 66.1217C43.862 66.1507 43.9149 66.1797 43.9718 66.2087C43.6184 66.8307 44.436 67.4487 45.0869 67.4487C45.2895 67.4487 45.4762 67.3897 45.607 67.2537C45.6459 67.2997 45.6808 67.3447 45.7108 67.3907C45.5521 67.5257 45.3404 67.5837 45.1128 67.5837C44.3042 67.5837 43.309 66.8397 43.8111 66.1217Z" fill="#2B200C"/>
<path d="M17.5896 66.9357C17.6056 66.9437 17.6216 66.9527 17.6365 66.9607C18.2006 67.2827 19.0671 68.0527 19.1479 68.8277C19.087 68.9967 18.8784 69.1247 18.51 69.2847C18.4092 69.3277 18.2994 69.3537 18.1876 69.3657C17.5746 69.1477 17.2692 68.8797 16.825 68.0867C16.9717 68.1527 17.0985 68.2117 17.1763 68.2607C17.382 68.3947 17.9181 68.5947 18.2555 68.5947C18.4252 68.5947 18.544 68.5437 18.544 68.4067C18.544 68.3087 18.4851 68.1707 18.3423 67.9757C18.3423 67.9757 17.8322 67.3217 17.1244 67.1037C17.2592 67.0387 17.4179 66.9837 17.5896 66.9357Z" fill="#3C2C13"/>
<path d="M17.8412 66.8677C18.1596 67.0317 18.4811 67.2827 18.7426 67.5797C18.8774 67.7327 18.9962 67.8967 19.092 68.0677C19.1529 68.1767 19.2038 68.2887 19.2427 68.4017C19.3146 68.6087 19.3466 68.8207 19.3266 69.0267C19.3056 69.2347 19.2278 69.4387 19.08 69.6277C19.0571 69.6217 19.0311 69.6147 19.0082 69.6077C19.2977 69.2447 19.3206 68.7087 18.9602 68.1037L18.9363 68.1667C19.1309 68.4687 19.2048 68.6677 19.1469 68.8277C19.0661 68.0527 18.2006 67.2827 17.6355 66.9607C17.6206 66.9517 17.6046 66.9427 17.5886 66.9357C17.6705 66.9117 17.7563 66.8897 17.8412 66.8677Z" fill="#2B200C"/>
<path d="M19.1469 68.8277C19.1659 69.0167 19.1399 69.2087 19.0491 69.3917C19.0151 69.4627 18.9742 69.5267 18.9283 69.5847C18.6338 69.5047 18.3922 69.4387 18.1866 69.3647C18.2984 69.3527 18.4092 69.3267 18.509 69.2837C18.8784 69.1247 19.087 68.9967 19.1469 68.8277Z" fill="#392911"/>
<path d="M18.9613 68.1047C19.3213 68.7087 19.2993 69.2457 19.0093 69.6087C18.9823 69.6017 18.9553 69.5937 18.9293 69.5867C18.9753 69.5277 19.0163 69.4647 19.0503 69.3937C19.1413 69.2097 19.1673 69.0187 19.1483 68.8297C19.2063 68.6697 19.1323 68.4707 18.9373 68.1687L18.9613 68.1047Z" fill="#291D0A"/>
<path d="M17.1234 67.1047C17.8312 67.3227 18.3413 67.9767 18.3413 67.9767C18.4851 68.1707 18.543 68.3097 18.543 68.4077C18.543 68.5447 18.4242 68.5957 18.2545 68.5957C17.917 68.5957 17.381 68.3957 17.1753 68.2617C17.0985 68.2127 16.9717 68.1547 16.8239 68.0877C16.804 68.0527 16.784 68.0157 16.762 67.9777C16.5324 67.5527 16.7331 67.2897 17.1234 67.1047Z" fill="#453213"/>
<path d="M32.2042 66.8337L33.0987 66.2727C33.2874 66.1537 33.4091 65.9457 33.4191 65.7197C33.5778 61.9957 34.2417 58.6547 35.1481 55.7347C37.1896 49.1647 40.4749 44.7247 41.9713 42.9367C42.4694 42.3397 42.7559 42.0517 42.7579 42.0507L42.7559 42.0517C43.0234 41.7827 43.0224 41.3477 42.7529 41.0797C42.4854 40.8117 42.0501 40.8127 41.7816 41.0837C41.7357 41.1317 36.6615 46.2557 33.8394 55.3267C33.2494 57.2217 32.7603 59.2857 32.4358 61.5127C32.0854 52.2407 30.3235 31.7537 21.4319 21.6177C21.1844 21.3347 20.7491 21.3087 20.4666 21.5607C20.1821 21.8107 20.1572 22.2467 20.4077 22.5297C28.7492 31.8967 30.6869 51.8537 31.0562 61.1927C31.186 64.3087 31.1551 66.2357 31.1541 66.2387C31.1511 66.4907 31.2838 66.7237 31.5044 66.8477L31.6392 66.9067C31.8259 66.9667 32.0325 66.9407 32.2042 66.8337Z" fill="#7F8836"/>
<path d="M31.4206 66.9987C31.1471 66.8467 30.9784 66.5537 30.9834 66.2327C30.9844 66.2187 31.0153 64.3277 30.8835 61.2007C30.5551 52.8177 28.863 32.2847 20.279 22.6437C20.1282 22.4717 20.0533 22.2527 20.0663 22.0217C20.0793 21.7947 20.1811 21.5837 20.3528 21.4327C20.6972 21.1277 21.2583 21.1597 21.5627 21.5037C29.8024 30.9017 31.9926 48.9247 32.5357 59.8687C32.8282 58.3147 33.2085 56.7767 33.6757 55.2767C36.389 46.5557 41.1247 41.5157 41.6638 40.9617C41.9853 40.6367 42.5513 40.6307 42.8747 40.9557C43.0354 41.1187 43.1273 41.3337 43.1293 41.5647C43.1293 41.7827 43.0474 41.9877 42.9007 42.1447L42.8917 42.1557L42.8827 42.1667L42.8727 42.1767C42.8238 42.2257 42.5493 42.5087 42.103 43.0447C40.7494 44.6627 37.3763 49.1437 35.3108 55.7857C34.3136 58.9917 33.7366 62.3387 33.5878 65.7267C33.5769 66.0107 33.4271 66.2677 33.1875 66.4157L32.2951 66.9757C32.0834 67.1107 31.8249 67.1447 31.5863 67.0707L31.4206 66.9987ZM41.9004 41.2107C41.3753 41.7507 36.6934 46.7357 34.0041 55.3797C33.3802 57.3817 32.91 59.4547 32.6065 61.5387L32.2651 61.5187C31.8618 50.8677 29.9022 31.5357 21.3052 21.7327C21.1235 21.5267 20.7851 21.5077 20.5794 21.6887C20.4776 21.7817 20.4177 21.9067 20.4077 22.0437C20.3987 22.1797 20.4447 22.3137 20.5355 22.4147C29.1915 32.1387 30.8935 52.7667 31.2259 61.1857C31.3517 64.1687 31.3318 66.2387 31.3248 66.2417C31.3238 66.4327 31.4226 66.6067 31.5873 66.7007C31.763 66.7987 31.9567 66.7857 32.1124 66.6877L33.0068 66.1267C33.1496 66.0377 33.2384 65.8817 33.2444 65.7127C33.3922 62.2937 33.9772 58.9187 34.9834 55.6847C37.0658 48.9827 40.4709 44.4577 41.8385 42.8267C42.3356 42.2307 42.6221 41.9427 42.6321 41.9297C42.732 41.8327 42.7829 41.7037 42.7829 41.5667C42.7829 41.4287 42.728 41.2987 42.6311 41.2007L42.4225 41.0747C42.2408 41.0177 42.0412 41.0677 41.9004 41.2107Z" fill="#6B7130"/>
<path d="M32.0065 66.5407L32.899 65.9797L32.9809 65.8407C33.1416 62.0707 33.8134 58.6837 34.7358 55.7237C36.1144 51.2857 38.0501 47.8107 39.6383 45.4457C41.2295 43.0787 42.4644 41.8357 42.4674 41.8317V41.5897L42.2238 41.5917C42.2118 41.6017 37.1925 46.6687 34.4084 55.6227C33.484 58.5837 32.8122 61.9687 32.6404 65.7357L32.0894 66.0827C32.0994 62.7837 31.9437 34.3647 21.1244 22.1047L20.8839 22.0887L20.8689 22.3317C26.538 28.7367 29.2743 39.7577 30.571 49.1737C31.8718 58.5897 31.746 66.3737 31.744 66.3927L31.8319 66.5447L31.8658 66.5587L32.0065 66.5407Z" fill="#B3C835"/>
<path d="M11.6709 32.7677C10.6836 33.1507 10.5858 33.6597 11.6819 34.2697C12.778 34.8807 12.9267 35.0797 12.179 34.6947C11.4303 34.3117 10.3831 33.9247 10.3831 33.9247C8.89374 34.4787 9.94291 38.6117 14.7206 41.2427C19.4973 43.8727 26.4652 42.4487 24.0694 40.6227C21.6755 38.7977 10.9312 34.1847 14.7086 35.6027C18.4871 37.0227 24.5585 40.2057 26.024 40.2127C27.3567 40.2187 25.8004 37.5667 25.5109 37.0907C28.8081 40.1207 29.7156 43.2557 29.7156 43.2557C28.7922 45.9347 16.9537 45.0267 12.2749 40.1487C7.59799 35.2717 10.2763 33.5897 10.2763 33.5897C10.2763 33.5897 10.6467 32.8877 11.7927 32.4367C11.8656 32.5837 11.8436 32.7017 11.6709 32.7677Z" fill="#B3CD30"/>
<path d="M19.9815 33.5647C22.3284 34.5617 24.1253 35.8177 25.5109 37.0917C25.8004 37.5687 27.3567 40.2197 26.024 40.2137C24.5585 40.2067 18.4871 37.0237 14.7086 35.6037C10.9312 34.1857 21.6745 38.7977 24.0694 40.6237C26.4642 42.4497 19.4973 43.8737 14.7206 41.2437C9.94291 38.6117 8.89373 34.4787 10.3831 33.9257C10.3831 33.9257 11.4303 34.3127 12.179 34.6957C12.9267 35.0807 12.778 34.8817 11.6819 34.2707C10.5858 33.6607 10.6836 33.1517 11.6709 32.7687C11.8436 32.7027 11.8656 32.5837 11.7927 32.4397C13.1673 31.8997 15.66 31.7247 19.9815 33.5647Z" fill="#C4D92E"/>
<path d="M18.4641 43.9217C16.0043 43.1537 13.6694 41.9717 12.0911 40.3287C9.30698 37.4287 9.03345 35.5647 9.37186 34.4687C9.56453 33.8507 9.93788 33.5227 10.0816 33.4137C10.3422 32.9997 12.154 30.6917 17.8202 32.4827C18.515 32.7017 19.2657 32.9787 20.0823 33.3277C28.1103 36.7437 29.9541 43.1467 29.9621 43.1847L29.9841 43.2607L29.9581 43.3397C29.5249 44.4577 27.8947 44.8887 25.7784 44.9827C23.6531 45.0617 20.9907 44.7127 18.4641 43.9217ZM29.445 43.2497C29.3372 42.9167 28.849 41.5387 27.6122 39.8257C26.1926 37.8547 23.7968 35.4667 19.8806 33.8007C19.078 33.4587 18.3413 33.1877 17.6665 32.9777C14.6876 32.0477 12.8878 32.2727 11.8426 32.6957C11.3225 32.9057 10.9841 33.1697 10.7764 33.3747C10.5698 33.5837 10.5109 33.7147 10.5059 33.7107L10.473 33.7747L10.4141 33.8107C10.4141 33.8107 10.3372 33.8607 10.2174 33.9907C10.0986 34.1237 9.95585 34.3307 9.86401 34.6247C9.60546 35.4547 9.73224 37.1207 12.4635 39.9757C13.9489 41.5257 16.212 42.6837 18.6188 43.4337C21.0875 44.2047 23.705 44.5457 25.7604 44.4697C27.7469 44.4157 29.1715 43.8967 29.445 43.2497Z" fill="#9DB23A"/>
<path d="M17.7853 33.3827C19.703 33.9827 21.1734 34.7897 21.1734 34.7897C23.0741 35.7677 25.5897 38.1997 25.0557 38.0317C24.9059 37.9857 24.5116 37.7317 23.7939 37.1797C23.125 36.6667 22.553 36.3697 22.0519 36.2127C21.1614 35.9367 20.4966 36.1017 19.9076 36.2927C19.3166 36.4817 18.8055 36.6967 18.2205 36.5147C18.1147 36.4827 18.0069 36.4367 17.8951 36.3747C16.21 35.4427 12.4196 34.3517 11.641 33.9727C10.8603 33.5947 11.5312 33.3077 11.5312 33.3077C13.35 32.3717 15.8067 32.7667 17.7853 33.3827Z" fill="#C3D647"/>
<path d="M11.0909 34.8697C11.3066 34.9357 11.5671 35.0867 11.8566 35.2997C13.2452 36.3177 16.6972 37.4857 16.6972 37.4857C20.3718 38.9587 20.9458 39.7277 18.8814 39.0857C18.6807 39.0227 18.4541 38.9447 18.2016 38.8547C18.0658 38.8047 17.932 38.7597 17.8013 38.7197C15.2557 37.9257 14.0877 38.7767 13.7273 39.3907C13.6285 39.5597 13.4199 39.5897 13.1563 39.5077C12.4026 39.2727 11.1928 38.1217 10.7316 36.6127C10.2733 35.1227 10.5119 34.6887 11.0909 34.8697Z" fill="#C3D647"/>
<path d="M27.8907 42.7647L28.0025 42.7297L27.9846 42.5857C27.9267 42.5407 22.1936 38.1847 11.2716 34.0657L11.1398 34.1257L11.1997 34.2587C22.0938 38.3687 27.8039 42.7057 27.8608 42.7487L27.8907 42.7647Z" fill="#9DB23A"/>
<path d="M44.5498 37.9917C44.5648 38.0037 47.0794 36.0487 47.287 35.9287C49.0121 34.9447 51.2042 34.2457 53.1559 35.0007C55.5896 35.9417 54.808 39.1227 52.6228 39.6007C49.8067 40.2187 46.9367 39.5387 44.5498 37.9917Z" fill="#F6CA14"/>
<path d="M44.3641 38.2817L44.5258 37.9357L44.3711 37.7017C44.442 37.6527 44.8583 37.3337 45.3434 36.9627C46.4954 36.0807 46.9976 35.6997 47.1173 35.6317C48.6796 34.7397 51.0755 33.8327 53.2806 34.6827C54.4416 35.1317 55.0815 36.1027 54.9917 37.2787C54.8918 38.5697 53.9485 39.6637 52.6957 39.9377C50.9507 40.3187 49.0899 40.2277 47.311 39.6737C46.2878 39.3547 45.2935 38.8847 44.3641 38.2817ZM47.4578 36.2287C47.332 36.3047 46.3866 37.0277 45.7607 37.5087C45.5081 37.6997 45.3125 37.8517 45.1588 37.9657C45.9134 38.4117 46.7041 38.7647 47.5157 39.0187C49.1808 39.5377 50.9207 39.6237 52.5499 39.2657C53.6181 39.0317 54.243 38.0637 54.3069 37.2267C54.3727 36.3547 53.9096 35.6627 53.0341 35.3227C52.9452 35.2877 52.8564 35.2587 52.7695 35.2317C50.8658 34.6357 48.8284 35.4457 47.4578 36.2287Z" fill="#E9A022"/>
<path d="M44.6686 38.1127C44.6686 38.1127 50.7061 40.5917 51.7663 44.7397C52.8264 48.8877 47.9419 49.7397 46.2449 45.8907C44.5498 42.0417 43.9029 37.4157 44.6686 38.1127Z" fill="#F6CA14"/>
<path d="M45.9324 46.0307C44.5388 42.8647 43.6144 38.5087 44.1984 37.8517C44.3641 37.6667 44.6257 37.6437 44.8493 37.8147C45.4762 38.0807 51.0475 40.5417 52.0997 44.6547C52.4561 46.0467 52.2145 47.2307 51.4219 47.9847C50.6971 48.6737 49.628 48.8837 48.5589 48.5507C47.4258 48.1967 46.4944 47.3027 45.9324 46.0307ZM46.5603 45.7537C47.0385 46.8417 47.8221 47.6007 48.7645 47.8967C49.5911 48.1547 50.4076 48.0017 50.9487 47.4887C51.5526 46.9117 51.7263 45.9667 51.4339 44.8257C50.5214 41.2507 45.614 38.9107 44.6896 38.4967C44.6287 39.4387 45.2356 42.7487 46.5603 45.7537Z" fill="#E9A022"/>
<path d="M44.4051 38.6027C45.3874 41.4027 46.4615 45.8847 43.6454 48.0487C43.1812 48.4037 42.6361 48.5787 42.0512 48.5287C39.2091 48.2757 39.0394 45.3737 39.9867 43.2227C40.9411 41.0617 43.9718 37.3687 44.4051 38.6027Z" fill="#F6CA14"/>
<path d="M39.4476 47.1807C38.9545 46.0917 39.0403 44.5217 39.6742 43.0827C40.4239 41.3847 43.0783 37.6627 44.2962 38.0427C44.438 38.0867 44.6286 38.1997 44.7295 38.4867C46.4095 43.2767 46.1171 46.5837 43.856 48.3197C43.3129 48.7367 42.679 48.9277 42.0232 48.8707C41.7317 48.8457 41.4562 48.7907 41.2036 48.7117C40.394 48.4607 39.789 47.9297 39.4476 47.1807ZM40.3012 43.3607C39.7431 44.6247 39.6553 45.9787 40.0726 46.8947C40.3321 47.4717 40.7813 47.8607 41.4062 48.0557V48.0577C41.6129 48.1197 41.8405 48.1647 42.0831 48.1847C42.5632 48.2277 43.0344 48.0847 43.4367 47.7747C45.4362 46.2407 45.6519 43.1917 44.0956 38.6997C43.5825 38.6267 41.2275 41.2627 40.3012 43.3607Z" fill="#E9A022"/>
<path d="M43.2571 38.5657C40.1075 38.7687 35.208 38.5827 33.8035 35.0647C33.5709 34.4867 33.5489 33.8757 33.7695 33.2897C34.8477 30.4387 37.8684 31.1017 39.7981 32.6957C41.7387 34.3007 44.6437 38.4757 43.2571 38.5657Z" fill="#F6CA14"/>
<path d="M33.486 35.1927C33.2155 34.5187 33.2045 33.8187 33.4511 33.1687C34.1528 31.3097 35.776 30.5737 37.7925 31.2027C38.5682 31.4437 39.3368 31.8697 40.0167 32.4327C41.5769 33.7197 44.3082 37.2357 43.9209 38.4357C43.831 38.7157 43.5974 38.8877 43.279 38.9087C40.8812 39.0627 38.8696 38.8937 37.3034 38.4057C35.3827 37.8067 34.0969 36.7247 33.486 35.1927ZM34.0929 33.4117C33.9053 33.9067 33.9153 34.4187 34.1219 34.9377C35.1132 37.4207 38.2128 38.5367 43.267 38.2297C43.5166 37.7377 41.5041 34.5507 39.5804 32.9597C38.9765 32.4617 38.2697 32.0687 37.5889 31.8577C36.6166 31.5557 34.8696 31.3547 34.0929 33.4117Z" fill="#E9A022"/>
<path d="M43.4797 39.1167C41.4552 41.5437 37.9423 44.9697 34.4324 43.5637C33.8534 43.3317 33.3972 42.9297 33.1247 42.3637C31.807 39.6177 34.3705 37.8817 36.8502 37.5817C39.3469 37.2777 44.3711 38.0507 43.4797 39.1167Z" fill="#F6CA14"/>
<path d="M34.3026 43.8847C33.6317 43.6137 33.1156 43.1407 32.8171 42.5137C32.308 41.4547 32.295 40.4257 32.7812 39.5387C33.5628 38.1087 35.3757 37.4137 36.8112 37.2397C38.4024 37.0487 41.0229 37.2827 42.5353 37.7537C43.3558 38.0117 43.7911 38.3077 43.9009 38.6857C43.9658 38.9067 43.9119 39.1377 43.7432 39.3377C40.4439 43.2887 37.3942 44.8637 34.6729 44.0157C34.5501 43.9777 34.4293 43.9327 34.3026 43.8847ZM36.8931 37.9227C35.2998 38.1147 33.9202 38.8787 33.3812 39.8697C33.0008 40.5627 33.0188 41.3507 33.4331 42.2167C33.6617 42.6917 34.04 43.0377 34.5591 43.2467C34.6649 43.2867 34.7717 43.3267 34.8776 43.3587C37.3063 44.1167 40.1125 42.6147 43.243 38.8787C43.243 38.8787 43.1472 38.6657 42.3306 38.4097C40.8951 37.9627 38.4044 37.7377 36.8931 37.9227Z" fill="#E9A022"/>
<path d="M44.7694 37.9797C44.7694 37.9797 49.7418 33.3847 47.6065 28.8657C45.4682 24.3457 38.4733 27.7737 42.5533 35.9257C42.5533 35.9257 43.7881 38.9097 44.7694 37.9797Z" fill="#F6CA14"/>
<path d="M42.2468 36.0787C40.5847 32.7587 40.5288 29.6677 42.101 27.8127C43.0454 26.7007 44.425 26.2547 45.7038 26.6557C46.6402 26.9467 47.4248 27.6797 47.9169 28.7187C50.1351 33.4107 45.2116 38.0347 45.007 38.2287C44.7395 38.4777 44.413 38.5597 44.0836 38.4577C43.1502 38.1667 42.3816 36.4057 42.2468 36.0787ZM42.6241 28.2577C41.2365 29.8957 41.3234 32.7037 42.8687 35.7937C43.1792 36.5407 43.823 37.6587 44.2872 37.8027C44.3651 37.8277 44.433 37.8227 44.5368 37.7257C44.5837 37.6817 49.2985 33.2487 47.296 29.0127C46.8827 28.1367 46.2608 27.5497 45.4981 27.3097C44.4879 26.9957 43.3858 27.3577 42.6241 28.2577Z" fill="#E9A022"/>
<path d="M45.2596 27.6357C46.2159 27.9347 46.8897 28.7157 47.2351 29.6607C47.3909 30.0877 47.4498 30.5567 47.4498 31.0107C47.4458 33.8197 45.586 36.4447 44.7245 36.7677C44.6546 36.7967 44.5728 36.7947 44.4859 36.7677C43.5436 36.4727 41.9014 33.1227 42.5433 30.2257C42.7459 29.3137 43.1582 28.0577 44.0906 27.6517C44.3661 27.5327 44.7535 27.5137 45.045 27.5787L45.1038 27.5917L45.2596 27.6357Z" fill="#FDDE45"/>
<path d="M47.4138 36.6697C47.4148 36.6677 50.4685 34.3557 52.7505 35.5767C53.5122 35.9857 53.9884 36.9597 53.7528 37.7877C53.2537 39.5537 50.9287 39.1707 49.633 38.7187C49.2726 38.5937 48.9102 38.4547 48.5638 38.2987C48.1835 38.1277 47.0654 37.6917 47.0904 37.1357C47.0984 36.9557 47.28 36.7727 47.4138 36.6697Z" fill="#FFE352"/>
<path d="M49.1118 42.0857C49.1118 42.0857 51.4957 43.8487 51.0924 46.3917C50.6921 48.9347 48.1256 48.0427 47.5855 45.8357C47.0444 43.6287 45.7477 39.2367 49.1118 42.0857Z" fill="#FFE352"/>
<path d="M43.9059 40.0997C43.9059 40.0997 44.1096 39.9327 44.4629 41.1897C44.7464 42.1957 44.8672 43.3017 44.8563 44.3457C44.8443 45.3287 44.6316 46.9597 43.6923 47.5307C42.9326 47.9917 41.9543 47.7267 41.3923 47.0967C40.6016 46.2067 41.1796 44.9357 41.5929 44.0037C41.7307 43.6947 41.8834 43.3967 42.0571 43.1077C42.5553 42.2687 43.7112 39.8897 43.9059 40.0997Z" fill="#FFE352"/>
<path d="M40.6646 35.3687C40.1744 34.6587 39.6264 33.8697 38.9386 33.3347C38.1869 32.7477 37.1956 32.1847 36.2103 32.2717C35.0693 32.3747 34.058 33.3757 34.5612 34.6047C35.1731 36.1017 36.3081 35.9157 37.9483 35.8417C38.7699 35.8047 39.6533 36.0977 40.4539 36.0007C40.9441 35.9427 40.8712 35.6677 40.6646 35.3687Z" fill="#FFE352"/>
<path d="M40.5597 39.4547C41.4412 39.7297 40.8093 40.2147 40.2922 40.7127C39.3997 41.5707 38.4394 42.3087 37.3234 42.8667C36.7254 43.1657 35.9447 43.2697 35.2969 43.0657C34.7768 42.9037 34.3405 42.5447 34.1489 41.9317C33.9422 41.2687 34.5032 40.2687 35.1202 39.9747C36.2961 39.4147 37.6168 39.1897 38.9086 39.2457C39.7132 39.2797 40.2373 39.3547 40.5597 39.4547Z" fill="#FDDE45"/>
<path d="M15.627 13.4977C15.627 13.4977 21.6406 6.29069 26.6489 8.66369C31.6552 11.0377 27.2458 19.7327 16.1062 15.7157L15.627 13.4977Z" fill="#F6CA14"/>
<path d="M15.9884 16.0397L15.8097 15.9747L15.2567 13.4097L15.3635 13.2797C15.5951 13.0027 21.0785 6.5157 26.1028 8.0857C26.3374 8.1577 26.57 8.24772 26.7936 8.35572C28.7283 9.27272 29.5149 11.2057 28.7542 13.1627C27.5673 16.2117 23.099 18.2827 16.8589 16.3357C16.5754 16.2447 16.2849 16.1467 15.9884 16.0397ZM15.9994 13.5957L16.3997 15.4567C23.3276 17.8897 27.2209 15.2127 28.1153 12.9107C28.7492 11.2837 28.1153 9.7397 26.5011 8.9747C26.3065 8.8797 26.1038 8.80271 25.8992 8.73871C21.6735 7.41971 16.784 12.7057 15.9994 13.5957Z" fill="#E9A022"/>
<path d="M16.2709 16.4077C16.2709 16.4077 23.3436 22.7087 21.0146 27.5067C18.6847 32.3027 12.3737 28.3137 13.0944 22.6987C13.8171 17.0837 14.9522 15.2597 16.2709 16.4077Z" fill="#F6CA14"/>
<path d="M12.756 22.6527C13.2581 18.7447 13.9689 16.5427 14.9262 15.9277C15.4084 15.6157 15.9644 15.6847 16.5005 16.1497C16.796 16.4157 23.7369 22.6817 21.3231 27.6577C20.3858 29.5877 18.7077 30.3917 16.8329 29.8057C14.471 29.0697 12.3008 26.1917 12.756 22.6527ZM15.2966 16.5077C14.8643 16.7837 14.0508 17.9627 13.4368 22.7417C13.0325 25.8807 14.9911 28.5127 17.0366 29.1497C18.5819 29.6327 19.9186 28.9767 20.7072 27.3547C22.8954 22.8487 16.1132 16.7257 16.0483 16.6667C15.9195 16.5567 15.7987 16.4807 15.6879 16.4477C15.5492 16.4037 15.4284 16.4227 15.2966 16.5077Z" fill="#E9A022"/>
<path d="M12.5763 14.8787C12.5763 14.8787 6.419 8.67672 2.16639 12.0067C-2.08523 15.3357 1.94877 20.7357 5.65832 20.0947C9.37088 19.4567 12.5763 14.8787 12.5763 14.8787Z" fill="#F6CA14"/>
<path d="M0.0730453 16.1847C-0.234421 14.5067 0.435417 12.9267 1.95677 11.7357C3.36633 10.6317 5.10331 10.3897 7.1218 11.0207C10.1426 11.9617 12.7121 14.5267 12.8209 14.6367L13.0216 14.8397L12.8578 15.0757C12.7231 15.2657 9.52563 19.7767 5.71824 20.4327C5.07536 20.5427 4.41251 20.4947 3.74766 20.2867C1.92084 19.7167 0.412456 18.0307 0.0730453 16.1847ZM6.91716 11.6757C5.12627 11.1157 3.60092 11.3207 2.37704 12.2767C0.698957 13.5917 0.565189 15.0617 0.747872 16.0637C1.04036 17.6667 2.35808 19.1347 3.95031 19.6327C4.51034 19.8067 5.06537 19.8487 5.59845 19.7557C8.65115 19.2297 11.4094 15.8477 12.1191 14.9167C11.4523 14.2967 9.29902 12.4187 6.91716 11.6757Z" fill="#E9A022"/>
<path d="M15.627 13.4977C16.8759 12.9607 18.1636 11.7927 19.2418 10.9717C21.1964 9.48772 23.148 7.54372 23.111 4.89872C23.0481 0.529717 16.9827 -1.0733 14.0687 1.7717C10.7186 5.0427 14.1766 14.1237 15.627 13.4977Z" fill="#F6CA14"/>
<path d="M12.7071 9.14772C12.3268 7.55572 11.6729 3.62872 13.8311 1.52372C15.2796 0.110723 17.6066 -0.37229 19.7559 0.29771C22.0059 1.00071 23.4245 2.7607 23.4554 4.8917C23.4954 7.8277 21.1884 9.92272 19.4504 11.2437C19.2008 11.4337 18.9373 11.6437 18.6687 11.8607C17.7743 12.5737 16.7621 13.3837 15.7638 13.8147C15.6011 13.8837 15.4174 13.8907 15.2367 13.8337C14.2354 13.5237 13.2072 11.2407 12.7071 9.14772ZM14.3073 2.01771C12.9886 3.30671 12.6382 5.91272 13.3739 8.98872C13.9639 11.4577 14.9702 13.0337 15.4374 13.1797L15.4923 13.1837C16.4057 12.7897 17.381 12.0107 18.2405 11.3247C18.515 11.1047 18.7806 10.8907 19.0371 10.6967C20.7931 9.36373 22.8036 7.49773 22.7676 4.90373C22.7367 2.72273 21.0865 1.4357 19.5522 0.9557C17.6385 0.3577 15.5811 0.774711 14.3073 2.01771Z" fill="#E9A022"/>
<path d="M15.6779 15.6817C15.6779 15.6817 25.1714 14.5537 27.4225 18.5687C28.303 20.1357 27.8258 22.5527 26.4273 23.6817C22.5151 26.8397 17.936 21.0777 16.214 18.0377C16.1132 17.8597 14.9871 15.7647 15.6779 15.6817Z" fill="#F6CA14"/>
<path d="M15.8906 18.2207C15.638 17.7787 14.8424 16.2757 15.1658 15.6377C15.2577 15.4537 15.4264 15.3387 15.635 15.3137C15.8347 15.2887 20.5655 14.7437 24.1832 15.8757C25.9162 16.4167 27.1161 17.2607 27.746 18.3877C28.7153 20.1137 28.2072 22.7227 26.6599 23.9727C25.446 24.9517 24.0803 25.2137 22.6019 24.7537L22.6009 24.7517C19.9006 23.9087 17.3001 20.7067 15.8906 18.2207ZM15.8237 16.0407C15.8307 16.3667 16.194 17.2467 16.5374 17.8547C17.8791 20.2207 20.3289 23.2617 22.8215 24.0407C24.0674 24.4297 25.1705 24.2167 26.1937 23.3927C27.4585 22.3717 27.8897 20.1597 27.0991 18.7497C26.563 17.7957 25.5079 17.0677 23.9626 16.5837C20.7801 15.5927 16.5325 15.9677 15.8237 16.0407Z" fill="#E9A022"/>
<path d="M14.4111 13.6577C14.4111 13.6577 14.3363 2.93371 7.23361 2.96571C7.23361 2.96571 3.57297 2.90171 3.37731 6.70771C3.18065 10.5137 9.56456 13.9457 11.4473 14.5317C13.329 15.1187 14.4111 13.6577 14.4111 13.6577Z" fill="#F6CA14"/>
<path d="M3.03293 6.6897C3.24456 2.5997 7.1987 2.6207 7.23164 2.6207C7.91745 2.6187 8.57131 2.7127 9.17526 2.9017C14.6258 4.6027 14.7506 13.2877 14.7536 13.6557L14.7546 13.7707L14.6857 13.8627C14.2614 14.4357 13.0166 15.3817 11.3435 14.8597C9.52466 14.2917 2.8223 10.8057 3.03293 6.6897ZM8.97361 3.55771C8.43455 3.38871 7.85156 3.30671 7.22765 3.30771C7.09188 3.30671 3.89543 3.28972 3.71874 6.72672C3.54005 10.1907 9.60052 13.5977 11.5491 14.2057C12.9357 14.6397 13.8172 13.8157 14.0648 13.5377C14.0298 12.4827 13.6156 5.00671 8.97361 3.55771Z" fill="#E9A022"/>
<path d="M14.3243 16.1917C14.3243 16.1917 15.5871 26.4017 9.99582 28.0347C9.99582 28.0347 7.89148 28.8097 6.15749 26.7047C4.4265 24.5977 4.98553 20.3727 9.00155 17.6717C13.0166 14.9687 14.3972 15.2697 14.3243 16.1917Z" fill="#F6CA14"/>
<path d="M5.89496 26.9237C5.07838 25.9327 4.73597 24.5087 4.9536 23.0147C5.26605 20.8767 6.67161 18.8257 8.81189 17.3867C10.5519 16.2147 12.8708 14.8927 14.0298 15.2537C14.4531 15.3857 14.6897 15.7327 14.6697 16.1837C14.7586 16.9397 15.7938 26.7017 10.1166 28.3567C10.0747 28.3727 9.11137 28.7167 7.92244 28.3477C7.15577 28.1087 6.47296 27.6277 5.89496 26.9237ZM9.19123 17.9557C7.21467 19.2877 5.91393 21.1667 5.63242 23.1147C5.44175 24.4167 5.73124 25.6437 6.42205 26.4867C6.91718 27.0877 7.49019 27.4917 8.12708 27.6907C9.08242 27.9887 9.87205 27.7147 9.899 27.7047C15.1449 26.1737 13.9959 16.3337 13.9839 16.2357L13.9809 16.1657C13.9959 15.9967 13.935 15.9437 13.8242 15.9087C13.5706 15.8297 12.4815 15.7407 9.19123 17.9557Z" fill="#E9A022"/>
<path d="M19.2737 1.79269C22.6808 2.85469 22.0469 7.2707 18.4002 9.7777C18.4002 9.7777 16.809 11.2297 15.9215 10.9517C15.623 10.8587 15.4044 10.5697 15.3515 9.9667C15.3515 9.9667 13.8581 1.1057 18.3134 1.5967C18.6628 1.6347 18.9832 1.69969 19.2737 1.79269Z" fill="#FDDD44"/>
<path d="M23.2907 17.3107C24.5924 17.7167 26.7028 18.6357 26.559 20.2987C26.4013 22.1367 24.4407 23.1967 22.571 22.6137C22.0039 22.4377 21.4429 22.1087 20.9458 21.6057C18.8065 19.4377 16.2739 15.6487 22.3014 17.0497C22.3014 17.0497 22.7187 17.1307 23.2907 17.3107Z" fill="#FDDD44"/>
<path d="M25.7015 9.73071C25.8832 9.78671 26.0639 9.8577 26.2466 9.9487C26.2466 9.9487 27.5633 10.7187 27.1979 12.2827C26.8296 13.8477 25.1435 15.4197 21.9501 14.7207C21.6606 14.6587 21.401 14.5927 21.1694 14.5197C18.8335 13.7907 19.2557 12.6227 20.1921 11.7147C20.1921 11.7147 22.8804 8.84971 25.7015 9.73071Z" fill="#FDDD44"/>
<path d="M16.6583 21.1727C16.9258 21.2557 17.2502 21.5547 17.6675 22.1407C17.6675 22.1407 18.8764 23.8357 20.1392 24.5887C21.401 25.3437 20.1023 28.1757 18.2026 28.1217C17.9011 28.1127 17.6016 28.0627 17.3121 27.9717C15.7678 27.4907 14.52 25.9157 15.1219 23.9837C15.64 22.3087 15.9375 20.9457 16.6583 21.1727Z" fill="#FDDD44"/>
<path d="M12.4156 18.9367C12.73 19.0357 12.9546 19.3397 13.0345 19.9137C13.0345 19.9137 12.9666 28.1147 8.94061 26.9107L8.90667 26.8997C6.96005 26.2917 7.34838 24.1497 8.46844 22.2337C9.58649 20.3187 11.4383 18.6317 12.4156 18.9367Z" fill="#FDDD44"/>
<path d="M6.14849 14.0377C7.18369 14.3607 8.154 14.8807 8.76694 15.3447C9.52163 15.9157 8.46047 16.4067 7.87249 16.6867C7.87249 16.6867 6.4869 17.8727 6.17744 18.6747C5.93087 19.3137 4.9885 19.1907 4.26576 18.9657C3.97427 18.8737 3.7217 18.7677 3.56098 18.6877C2.20434 17.9987 1.22404 16.4337 1.98372 14.9667C2.73742 13.5097 4.51832 13.5277 6.14849 14.0377Z" fill="#FDDD44"/>
<path d="M8.57329 4.2647C9.16725 4.4477 9.72329 4.78168 10.1396 5.16268C12.3278 7.16568 12.7251 10.7047 12.7251 10.7047C12.796 11.3397 12.8628 12.1667 12.1121 12.3647C11.7328 12.4647 11.2836 12.4127 10.8104 12.2647C9.4847 11.8497 7.96235 10.6867 7.21665 10.0487C5.71625 8.7737 4.23283 5.39371 6.71052 4.29171C7.28652 4.03971 7.94937 4.0677 8.57329 4.2647Z" fill="#FDDD44"/>
<path d="M11.5701 14.1197C11.034 15.8397 12.0313 17.6827 13.7962 18.2337C15.5611 18.7837 17.4259 17.8347 17.9609 16.1167C18.495 14.3947 17.4998 12.5537 15.7318 12.0027C13.9699 11.4527 12.1031 12.3997 11.5701 14.1197Z" fill="#E68D1E"/>
<path d="M11.3235 14.0447C11.8995 12.1917 13.912 11.1647 15.8097 11.7587C17.7074 12.3497 18.7816 14.3397 18.2056 16.1927C17.6296 18.0457 15.6171 19.0727 13.7194 18.4787C11.8226 17.8877 10.7465 15.8967 11.3235 14.0447ZM11.8157 14.1967C11.3235 15.7807 12.2459 17.4787 13.8731 17.9877C15.5003 18.4947 17.2233 17.6207 17.7164 16.0397C18.2076 14.4557 17.2862 12.7557 15.658 12.2487C14.0298 11.7407 12.3068 12.6147 11.8157 14.1967Z" fill="#D98427"/>
<path d="M15.8407 12.6717C17.1294 13.0737 17.8342 14.4887 17.4159 15.8327C16.9987 17.1777 15.6151 17.9407 14.3273 17.5387C13.0385 17.1367 12.3348 15.7217 12.752 14.3777C13.1693 13.0337 14.5539 12.2697 15.8407 12.6717Z" fill="#EAAA5B"/>
</svg>
