<svg width="57" height="122" viewBox="0 0 57 122" fill="none" xmlns="http://www.w3.org/2000/svg">
<path d="M44.8973 91.1661L41.5122 116.051C41.4612 119.415 34.0125 122.029 24.8748 121.892C15.7351 121.755 8.36732 118.919 8.41929 115.556L4.49255 88.994L44.8973 91.1661Z" fill="#AA6B28"/>
<path d="M44.8973 91.1661L44.7943 91.1512L41.4103 116.037V116.048C41.3943 117.606 39.6603 119.062 36.7909 120.106C33.9286 121.153 29.9619 121.793 25.5614 121.793C25.3325 121.793 25.1057 121.791 24.8758 121.788C20.3324 121.721 16.2288 120.983 13.2695 119.849C10.3022 118.716 8.51323 117.18 8.52423 115.591V115.558L8.52322 115.541L4.61448 89.1033L44.8923 91.2695L44.8973 91.1661L44.9022 91.0628L4.49855 88.8907L4.4166 88.9235L4.39061 89.0079L8.31634 115.571L8.42028 115.555L8.31634 115.553V115.59C8.32633 117.348 10.2103 118.894 13.1955 120.042C16.1868 121.186 20.3104 121.925 24.8738 121.994C25.1037 121.998 25.3345 122 25.5624 122C29.9849 122 33.9695 121.356 36.8639 120.301C39.7522 119.243 41.5832 117.774 41.6201 116.052L41.5152 116.051L41.6192 116.065L45.0032 91.1791L44.9812 91.0996L44.9062 91.0628L44.8973 91.1661Z" fill="#2E1010"/>
<path d="M44.8973 91.1661L41.5122 116.051C41.4612 119.415 34.0125 122.029 24.8748 121.892C15.7351 121.755 8.36732 118.919 8.41929 115.556L4.49255 88.994L44.8973 91.1661Z" fill="#F9A84C"/>
<path d="M44.8973 91.1661L44.7943 91.1512L41.4103 116.037V116.048C41.3943 117.606 39.6603 119.062 36.7909 120.106C33.9286 121.153 29.9619 121.793 25.5614 121.793C25.3325 121.793 25.1057 121.791 24.8758 121.788C20.3324 121.721 16.2288 120.983 13.2695 119.849C10.3022 118.716 8.51323 117.18 8.52423 115.591V115.558L8.52322 115.541L4.61448 89.1033L44.8923 91.2695L44.8973 91.1661L44.9022 91.0628L4.49855 88.8907L4.4166 88.9235L4.39061 89.0079L8.31634 115.571L8.42028 115.555L8.31634 115.553V115.59C8.32633 117.348 10.2103 118.894 13.1955 120.042C16.1868 121.186 20.3104 121.925 24.8738 121.994C25.1037 121.998 25.3345 122 25.5624 122C29.9849 122 33.9695 121.356 36.8639 120.301C39.7522 119.243 41.5832 117.774 41.6201 116.052L41.5152 116.051L41.6192 116.065L45.0032 91.1791L44.9812 91.0996L44.9062 91.0628L44.8973 91.1661Z" fill="#7C4317"/>
<path d="M8.99896 95.9903L11.4725 113.479C11.4725 113.479 12.5289 118.972 19.314 120.433C20.0886 120.6 20.8531 120.678 21.6047 120.678C27.4193 120.678 32.2565 115.91 32.6653 110.319C33.16 103.575 33.16 97.8484 33.16 97.8484C33.16 97.8484 29.0864 98.5042 23.8374 98.5042C19.1401 98.5042 13.5024 97.9796 8.99896 95.9903Z" fill="#FAB76A"/>
<path d="M44.5674 92.8166C43.4141 93.8351 41.78 94.7383 39.7852 95.4935C38.1142 96.1244 36.1873 96.6491 34.0755 97.0416C34.6312 97.1012 35.3457 97.1499 36.2002 97.1499C37.3166 97.1499 38.6718 97.0664 40.2249 96.815C40.2249 96.815 40.3539 96.7008 40.5108 96.7008C40.7616 96.7008 41.0885 96.9849 41.1104 98.4466C41.1444 100.836 38.8827 115.306 38.8827 115.306C38.8827 115.306 38.445 119.036 33.219 120.432C31.47 120.901 28.6376 121.279 25.4614 121.279C19.244 121.279 11.7104 119.831 8.40729 114.764L8.52223 115.541L8.52322 115.558V115.591C8.51222 117.181 10.3012 118.717 13.2685 119.849C16.2278 120.984 20.3314 121.721 24.8748 121.788C25.1047 121.791 25.3315 121.793 25.5604 121.793C29.9609 121.793 33.9276 121.152 36.7899 120.106C39.6593 119.062 41.3933 117.606 41.4093 116.048V116.037L44.5674 92.8166Z" fill="#DE9342"/>
<path d="M44.6864 92.7093C44.6474 92.746 44.6074 92.7808 44.5674 92.8166L41.4103 116.037V116.048C41.3943 117.606 39.6603 119.062 36.7909 120.106C33.9286 121.153 29.9619 121.793 25.5614 121.793C25.3325 121.793 25.1057 121.791 24.8758 121.788C20.3324 121.721 16.2288 120.983 13.2695 119.849C10.3022 118.716 8.51323 117.18 8.52422 115.591V115.558L8.52322 115.541L8.40829 114.764C8.36132 114.694 8.31534 114.619 8.27037 114.547L8.41929 115.556C8.36732 118.919 15.7351 121.755 24.8748 121.892C25.1037 121.895 25.3325 121.897 25.5604 121.897C34.3833 121.897 41.4622 119.33 41.5122 116.051L44.6864 92.7093Z" fill="#6F3B14"/>
<path d="M3.55811 84.305L7.46285 84.455C11.3276 82.275 17.7279 80.8481 24.9777 80.8481C33.0661 80.8481 40.102 82.6238 43.7339 85.241C45.2431 84.77 46.7742 84.2851 46.7742 84.2851L46.3274 89.7025C45.7858 94.1759 36.4371 97.7361 24.9788 97.7361C13.3904 97.7361 3.96387 94.0934 3.62007 89.5485L3.55811 89.4809V84.5196L3.5621 84.5326L3.55811 84.305Z" fill="#F9A72B"/>
<path d="M3.55811 84.305L3.5551 84.4083L7.45886 84.5584L7.51581 84.5445C11.3546 82.3763 17.7419 80.9504 24.9788 80.9514C33.0511 80.9504 40.0751 82.7281 43.674 85.3235L43.7659 85.3404C45.275 84.8674 46.8061 84.3825 46.8061 84.3825L46.7752 84.2841L46.6722 84.2752L46.2255 89.6926L46.3284 89.7015V89.5982L46.2255 89.6896C45.9706 91.8557 43.537 93.8579 39.7112 95.2997C35.8904 96.7445 30.6964 97.6338 24.9797 97.6338C19.1981 97.6338 13.9531 96.7236 10.1213 95.252C6.28352 93.7794 3.88291 91.7405 3.725 89.5415L3.69902 89.4789L3.66504 89.4422V84.5196H3.5601L3.45915 84.5435L3.46316 84.5574L3.57709 84.6349L3.66704 84.5306L3.66403 84.304L3.55811 84.305L3.45416 84.307L3.45816 84.5345L3.56309 84.5326L3.66403 84.5077L3.66004 84.4928L3.54711 84.4173L3.45515 84.5206V89.4819L3.48215 89.5515L3.54411 89.619L3.62106 89.5495L3.51713 89.5574C3.70302 91.9034 6.18658 93.9593 10.0464 95.4448C13.9101 96.9293 19.1751 97.8415 24.9788 97.8415C30.7184 97.8415 35.9304 96.9502 39.7852 95.4955C43.633 94.0378 46.1445 92.0247 46.4314 89.7174L46.3274 89.7045V89.8078L46.4324 89.7114L46.8781 84.2951L46.8402 84.2046L46.7422 84.1868C46.7392 84.1878 45.2101 84.6727 43.7019 85.1426L43.7329 85.242L43.7939 85.1576C40.13 82.5204 33.0801 80.7497 24.9768 80.7468C17.7119 80.7478 11.3006 82.1736 7.41088 84.3676L7.46185 84.457L7.46584 84.3537L3.5621 84.2027L3.48513 84.2325L3.45316 84.308L3.55811 84.305Z" fill="#7C4317"/>
<path d="M3.55811 84.305C3.55811 89 13.2325 92.8047 25.1676 92.8047C37.0998 92.8047 46.7742 89 46.7742 84.305C46.7742 79.611 37.0998 75.8073 25.1676 75.8073C13.2325 75.8073 3.55811 79.611 3.55811 84.305Z" fill="#F9A84C"/>
<path d="M3.55809 84.305H3.45415C3.46314 86.7315 5.92872 88.8668 9.84946 90.412C13.7762 91.9561 19.1891 92.908 25.1676 92.908C31.1442 92.908 36.5571 91.9561 40.4848 90.412C44.4065 88.8668 46.8701 86.7325 46.8781 84.305C46.8691 81.8805 44.4055 79.7442 40.4848 78.2C36.5571 76.6559 31.1442 75.703 25.1676 75.703C19.1891 75.703 13.7762 76.6559 9.84946 78.2C5.92772 79.7442 3.46214 81.8795 3.45415 84.305H3.55809H3.66303C3.65403 82.0375 6.02666 79.924 9.92641 78.3938C13.8192 76.8606 19.211 75.9117 25.1686 75.9117C31.1232 75.9117 36.5161 76.8606 40.4088 78.3938C44.3076 79.924 46.6802 82.0375 46.6722 84.305C46.6812 86.5745 44.3086 88.687 40.4088 90.2202C36.5151 91.7514 31.1232 92.7013 25.1686 92.7013C19.211 92.7013 13.8202 91.7514 9.92641 90.2202C6.02766 88.687 3.65503 86.5745 3.66303 84.305H3.55809Z" fill="#7C4317"/>
<path d="M4.24271 84.143C4.24271 88.3839 13.5893 91.8219 25.1217 91.8219C36.65 91.8219 45.9976 88.3839 45.9976 84.143C45.9976 79.9012 36.65 76.4641 25.1217 76.4641C13.5883 76.4641 4.24271 79.9012 4.24271 84.143Z" fill="#C7883C"/>
<path d="M4.24271 84.143H4.13876C4.14976 86.3489 6.53239 88.2736 10.3212 89.6707C14.116 91.0668 19.344 91.9253 25.1217 91.9253C30.8963 91.9253 36.1263 91.0668 39.9181 89.6707C43.7069 88.2746 46.0916 86.3489 46.1006 84.143C46.0916 81.9371 43.7069 80.0124 39.9181 78.6164C36.1263 77.2213 30.8973 76.3618 25.1217 76.3618C19.345 76.3618 14.116 77.2213 10.3212 78.6164C6.53339 80.0114 4.14976 81.9371 4.13876 84.143H4.24271H4.34664C4.33664 82.1061 6.62433 80.1933 10.3932 78.8101C14.156 77.426 19.365 76.5675 25.1207 76.5675C30.8743 76.5675 36.0833 77.426 39.8452 78.8101C43.614 80.1943 45.9007 82.1061 45.8917 84.143C45.9017 86.179 43.614 88.0928 39.8452 89.4759C36.0823 90.8601 30.8733 91.7196 25.1207 91.7196C19.364 91.7196 14.155 90.8601 10.3932 89.4759C6.62433 88.0918 4.33664 86.179 4.34664 84.143H4.24271Z" fill="#7C4317"/>
<path d="M38.5409 83.0063C38.5409 83.0063 38.9297 82.0246 35.5626 80.8113C32.1956 79.6001 31.426 81.7374 31.426 81.7374C31.426 81.7374 31.533 80.8183 29.724 79.6637C27.9141 78.5111 25.2366 80.3751 25.2366 80.3751C22.2993 79.0377 20.0966 82.0375 20.0966 82.0375C17.4061 79.3715 12.8437 81.9898 12.8437 81.9898C8.2114 80.9972 7.07707 84.7541 7.07707 84.7541C5.94072 84.7114 5.0962 85.091 4.47156 85.6176C6.75024 88.9602 14.8306 91.5825 24.509 91.813C34.972 92.0654 43.702 89.4412 45.306 85.7846C44.1247 84.5962 41.9819 84.2335 41.9819 84.2335C40.9355 82.7231 38.5409 83.0063 38.5409 83.0063Z" fill="#584521"/>
<path d="M38.6429 83.0341C38.9737 81.8984 36.2163 81.019 35.5996 80.7795C34.3174 80.2837 32.2595 80.0492 31.45 81.4691C31.3321 81.6768 31.3661 81.6609 31.423 81.646C31.464 81.6341 31.519 81.6222 31.528 81.7096C31.493 81.3638 31.3341 81.1144 31.1502 80.8292C30.6335 80.0234 29.681 79.4958 28.7736 79.2762C27.961 79.0784 27.0356 79.4182 26.294 79.7144C25.9112 79.8664 25.5454 80.083 25.1966 80.3046C25.3415 80.2112 23.8984 80.0005 24.0633 80.0055C23.0199 79.9677 22.1774 80.2281 21.2939 80.7865C20.9041 81.0319 20.5703 81.3668 20.2565 81.6997C19.8367 82.1389 19.7907 81.5854 19.253 81.338C17.2932 80.4387 15.2284 80.8233 13.3095 81.6728C12.8138 81.8934 12.376 81.8497 11.9103 81.804C11.6254 81.7782 11.3296 81.7513 11.0028 81.7831C9.95341 81.8885 9.08192 82.1885 8.25739 82.8483C7.7217 83.2766 7.32592 83.9006 7.05407 84.5226C6.94914 84.7651 4.85135 85.2341 4.37762 85.5808L4.38162 85.6136C6.07964 87.9268 9.03994 89.0566 11.6804 89.9122C15.815 91.2546 20.2265 91.7256 24.554 91.8597C29.0734 92.0008 33.6587 91.5725 38.0282 90.3891C40.6677 89.6727 44.1137 88.4406 45.407 85.8104L45.385 85.7746C44.2636 84.8068 42.8035 84.6399 41.7121 83.8221C40.7696 83.1156 39.6573 82.8493 38.481 82.9606C38.375 82.9705 38.5569 83.059 38.6089 83.054C39.9571 82.9268 40.9805 84.0586 42.2578 84.3318C43.3761 84.5723 45.7248 85.1556 44.7194 86.5745C44.3616 87.0783 43.8598 87.4767 43.3731 87.8533C40.104 90.3712 35.3148 91.0608 31.3491 91.506C25.8782 92.1171 20.2395 91.7941 14.8606 90.6663C12.5379 90.1794 10.2592 89.4501 8.12847 88.4108C7.30894 88.0113 6.54437 87.5125 5.82679 86.9511C5.52996 86.7136 5.25411 86.4513 4.99926 86.1691C3.95986 85.0711 7.0191 84.8058 7.12104 84.8008L7.18001 84.78C7.96855 82.3435 10.5251 81.6311 12.8627 82.0365C13.0856 82.0743 13.5673 81.7175 13.7602 81.6331C15.787 80.7358 18.1957 80.4725 20.0216 82.0464L20.1955 82.0713C20.4743 81.7066 20.8102 81.3996 21.16 81.1005C22.5611 79.9041 23.3337 80.3761 25.2826 80.4208C25.6244 80.4298 26.1391 79.9498 26.4619 79.7978C28.002 79.0744 31.383 79.6339 31.3311 81.7086L31.532 81.7603C31.8358 81.0121 32.5854 80.6593 33.3399 80.5093C32.8002 80.6156 38.9737 81.18 38.446 82.9795L38.6429 83.0341Z" fill="#403215"/>
<path d="M13.1196 82.7102C13.1196 82.7102 9.38971 82.0653 8.67013 84.0308C7.95154 85.9952 5.53893 84.933 7.08704 86.6331C8.63715 88.3293 11.0378 88.4137 12.1201 87.4956C13.2015 86.5755 13.5873 85.2738 15.739 85.4557C17.8888 85.6375 16.5526 83.9284 15.2813 83.9085C14.0091 83.8897 16.3807 82.2968 17.4061 82.1826C18.4345 82.0663 15.2114 80.9356 13.1196 82.7102Z" fill="#6C562B"/>
<path d="M22.4352 84.6568C22.4352 84.6568 21.5877 83.6412 19.0702 83.5806C16.5506 83.518 17.9868 84.5316 17.8689 85.0125C17.7519 85.4924 19.424 86.4453 19.424 86.4453C19.424 86.4453 20.1355 84.777 22.4352 84.6568Z" fill="#6C562B"/>
<path d="M21.3268 82.3465C21.067 82.3286 22.8779 80.3811 24.7249 80.9882C25.5604 81.2615 26.344 81.0588 27.0875 80.8561C27.986 80.6086 28.8285 80.3632 29.6391 80.9604C31.1192 82.0554 30.4616 82.9586 30.4616 82.9586C30.4616 82.9586 25.7863 82.9109 25.3375 84.936C25.3375 84.936 23.9343 82.5145 21.3268 82.3465Z" fill="#6C562B"/>
<path d="M33.7067 84.6319C33.6607 84.6418 33.2839 84.5763 32.7283 84.5107C31.1972 84.3269 28.3098 84.146 27.2894 85.5719C27.2894 85.5719 26.7147 85.9902 27.8231 86.8935C28.9325 87.7977 29.738 88.064 29.711 89.1878C29.711 89.1878 31.2032 85.9356 37.0348 87.3505C42.8634 88.7665 43.527 86.2754 42.3407 85.5689C41.1574 84.8595 38.8028 85.8471 38.8028 85.8471C38.8028 85.8471 37.9013 83.6611 33.7067 84.6319Z" fill="#6C562B"/>
<path d="M37.1107 82.7947C37.1107 82.7947 35.8395 81.2893 34.0985 81.6341C32.3575 81.9799 37.5955 84.3547 37.1107 82.7947Z" fill="#775E30"/>
<path d="M26.7577 88.527C26.7577 88.527 24.8498 87.0246 22.3602 87.742C22.3602 87.742 22.1464 90.1785 21.5727 90.1417C20.997 90.1019 20.0795 86.5824 17.0573 86.8716C14.036 87.1597 12.6998 88.3919 13.9461 89.4074C15.1934 90.4189 21.1409 91.652 24.7508 91.352C28.3568 91.0519 27.6532 89.473 26.7577 88.527Z" fill="#6C562B"/>
<path d="M34.6732 88.4654C34.6732 88.4654 32.1736 88.1584 31.0423 89.6419C29.9099 91.1254 35.1139 90.8263 36.9708 89.9589C38.8288 89.0914 34.957 88.4833 34.6732 88.4654Z" fill="#6C562B"/>
<path d="M26.33 77.1209C16.9444 77.1209 10.0034 79.6756 10.0034 79.6756C8.66414 80.392 9.90342 81.4055 11.7843 81.4055C12.6179 81.4055 13.5793 81.2068 14.4978 80.6901C15.2603 80.2638 15.9629 80.1198 16.6066 80.1198C17.2562 80.1198 17.8459 80.2648 18.3725 80.4119C18.8982 80.557 19.362 80.702 19.7617 80.702C20.1185 80.702 20.4244 80.5868 20.6772 80.2499C21.1909 79.5633 22.1624 79.3795 23.0509 79.3795C24.0573 79.3795 24.9537 79.614 24.9537 79.614C24.9537 79.614 25.1606 78.7237 27.8941 78.7237C28.033 78.7237 28.1779 78.7247 28.3298 78.7296C31.473 78.83 31.8728 80.3274 31.8728 80.3274C32.1276 79.3755 34.3733 79.4292 34.7191 78.5816C35.0669 77.735 33.7607 77.6784 33.7607 77.6784C31.1772 77.2809 28.6776 77.1209 26.33 77.1209Z" fill="#D09C5D"/>
<path d="M13.1725 83.4395C13.0956 83.2905 12.0942 82.6635 10.2402 83.367C8.3863 84.0755 9.42271 85.0373 10.8419 84.8137C12.2601 84.5882 13.4424 83.9592 13.1725 83.4395Z" fill="#7C6232"/>
<path d="M20.368 84.0139C20.368 84.0139 19.09 83.7734 19.313 84.2851C19.535 84.7979 21.645 84.2543 20.368 84.0139Z" fill="#7C6232"/>
<path d="M30.0528 82.3167C30.0528 82.3167 29.5611 80.7766 27.965 81.0071C26.3699 81.2386 29.9828 83.2468 30.0528 82.3167Z" fill="#7C6232"/>
<path d="M38.2011 85.8322C38.2011 85.8322 35.1639 84.2752 35.1639 85.7617C35.1639 87.2462 39.3405 86.9034 38.2011 85.8322Z" fill="#7C6232"/>
<path d="M30.0519 90.3633C29.9859 90.3683 29.9189 90.3753 29.8539 90.3813C29.8839 90.3883 29.9199 90.3933 29.9549 90.3933C29.9749 90.3933 29.9939 90.3923 30.0159 90.3903C30.0249 90.3873 30.0369 90.3783 30.0519 90.3633Z" fill="#463618"/>
<path d="M45.9966 87.5125C44.9622 92.1936 36.2222 95.9893 36.2222 95.9893C36.2222 95.9893 41.2374 94.3498 43.1902 93.1803C45.1451 92.0088 45.7588 89.8436 45.7588 89.8436L45.9966 87.5125Z" fill="#DE9225"/>
<path d="M11.9792 84.0029C11.9792 84.0029 10.615 82.739 9.12988 84.1599C7.64673 85.5798 8.4043 86.8448 9.9654 86.6917C11.5265 86.5397 13.5433 85.248 11.9792 84.0029Z" fill="#584521"/>
<path d="M12.0692 83.9841C11.5145 83.4823 10.71 83.3402 10.0034 83.5419C9.02694 83.8191 7.65573 85.2967 8.48425 86.3032C9.14487 87.1041 10.6 86.6927 11.3746 86.3509C11.8733 86.1284 12.365 85.7786 12.5879 85.2669C12.8068 84.7571 12.435 84.2971 12.0692 83.9841L11.8883 84.0248C12.7238 84.7392 12.452 85.5252 11.6124 86.0816C10.8069 86.6123 9.19085 87.0862 8.55522 86.1045C7.96156 85.1884 9.2688 83.994 9.97939 83.6611C10.604 83.37 11.3906 83.5767 11.8883 84.0248L12.0692 83.9841Z" fill="#403215"/>
<path d="M12.2922 84.5167C12.2622 84.622 12.2052 84.7641 12.0972 84.9151C12.1982 84.9231 12.2992 84.9439 12.3952 84.9787C12.4012 84.8257 12.3692 84.6707 12.2922 84.5167Z" fill="#54401D"/>
<path d="M12.325 84.3497C12.325 84.3497 12.3211 84.4133 12.2921 84.5167C12.3691 84.6707 12.4011 84.8267 12.3951 84.9797C12.4441 84.9976 12.4931 85.0175 12.5401 85.0423C12.5631 84.8167 12.501 84.5832 12.325 84.3497Z" fill="#3D2E12"/>
<path d="M8.41029 85.4984C8.3893 85.7051 8.43028 85.9117 8.55521 86.1045C8.82405 86.5198 9.2698 86.6739 9.75252 86.6739C10.1623 86.6739 10.6 86.5646 10.9838 86.4056C10.8259 86.1532 10.8689 85.8571 11.0168 85.5967C10.9408 85.6176 10.8599 85.6355 10.7739 85.6524C10.7739 85.6524 10.0923 86.02 9.46867 86.02C9.31076 86.02 9.15586 85.9962 9.01794 85.9376C8.66314 85.7845 8.46426 85.6633 8.41029 85.4984Z" fill="#54401D"/>
<path d="M8.59018 84.8247C7.96154 85.875 8.5652 86.7057 9.71554 86.7057C9.79649 86.7057 9.87944 86.7007 9.96639 86.6917C10.3062 86.6599 10.668 86.5715 11.0098 86.4423C11.0008 86.4294 10.9928 86.4185 10.9848 86.4066C10.6 86.5646 10.1633 86.6749 9.75351 86.6749C9.27079 86.6749 8.82405 86.5208 8.5562 86.1055C8.43028 85.9127 8.3903 85.7061 8.41128 85.4994C8.36231 85.3503 8.43327 85.1635 8.61417 84.8843L8.59018 84.8247Z" fill="#3D2E12"/>
<path d="M10.7559 83.8161C9.87345 83.8161 9.17884 84.7054 9.17884 84.7054C9.04292 84.8893 8.98695 85.0194 8.98695 85.1109C8.98695 85.239 9.09988 85.2877 9.26179 85.2877C9.58061 85.2877 10.0903 85.0999 10.2852 84.9727C10.561 84.7949 11.5575 84.4878 11.5555 84.1818C11.5555 84.0834 11.4525 83.987 11.1917 83.8926C11.0428 83.84 10.8969 83.8161 10.7559 83.8161Z" fill="#654E21"/>
<path d="M12.6958 85.2291C12.6958 85.2291 12.0042 84.5624 11.3326 85.3285C10.66 86.0946 11.0598 86.7643 11.8053 86.6739C12.5489 86.5824 13.4814 85.8839 12.6958 85.2291Z" fill="#584521"/>
<path d="M12.7878 85.2122C12.5419 84.9856 12.1381 84.8505 11.8083 84.9429C11.2287 85.1069 10.5631 85.9435 11.0568 86.502C11.7294 87.2611 13.7972 86.1502 12.7878 85.2122L12.6049 85.245C13.5373 86.1115 11.6464 87.124 11.1567 86.3539C10.8929 85.9405 11.3476 85.3891 11.6444 85.1476C11.9423 84.9072 12.349 85.0065 12.6049 85.245L12.7878 85.2122Z" fill="#403215"/>
<path d="M39.9071 86.4215C39.9071 86.4215 38.5439 85.1595 37.0588 86.5795C35.5736 87.9994 36.3342 89.2633 37.8923 89.1123C39.4564 88.9573 41.4732 87.6655 39.9071 86.4215Z" fill="#584521"/>
<path d="M39.9871 86.4185C39.4694 85.9505 38.7288 85.7706 38.0532 85.9058C37.0248 86.1114 35.5716 87.6665 36.4231 88.7019C37.0947 89.5137 38.5189 89.1381 39.3085 88.7864C39.8092 88.5638 40.2939 88.217 40.5148 87.7073C40.7336 87.1985 40.3488 86.7275 39.9871 86.4185C39.9471 86.3837 39.7472 86.3549 39.8282 86.4254C41.823 88.1296 37.2596 90.1377 36.4341 88.4584C36.0004 87.5741 37.1117 86.5437 37.7773 86.1661C38.424 85.7994 39.2865 85.9356 39.8292 86.4254C39.8671 86.4602 40.068 86.491 39.9871 86.4185Z" fill="#403215"/>
<path d="M38.9397 88.0173C38.8657 88.0371 38.7878 88.055 38.7048 88.0699C38.7048 88.0699 38.0212 88.4386 37.3976 88.4386C37.3486 88.4386 37.3016 88.4376 37.2537 88.4326C37.0588 88.5012 36.8269 88.5648 36.5481 88.6403C36.7989 88.9563 37.2197 89.0904 37.6904 89.0904C38.0872 89.0904 38.5199 88.995 38.9177 88.8331C38.7208 88.5886 38.7768 88.2865 38.9397 88.0173ZM40.227 86.9143C40.199 87.0197 40.141 87.1717 40.0281 87.3317C40.128 87.3406 40.2289 87.3654 40.3249 87.4022C40.3379 87.2432 40.3079 87.0783 40.227 86.9143Z" fill="#54401D"/>
<path d="M36.5481 88.6403C36.5241 88.6482 36.4991 88.6542 36.4731 88.6612C36.705 88.9503 37.1158 89.1252 37.6425 89.1252C37.7244 89.1252 37.8073 89.1202 37.8933 89.1123C38.2361 89.0795 38.5989 88.991 38.9417 88.8609L38.9377 88.8579C38.9317 88.8509 38.9247 88.842 38.9177 88.8341C38.5209 88.996 38.0882 89.0914 37.6904 89.0914C37.2197 89.0904 36.7989 88.9563 36.5481 88.6403ZM40.2539 86.7683C40.2539 86.7683 40.2509 86.8249 40.227 86.9133C40.3079 87.0773 40.3379 87.2422 40.3249 87.4012C40.3739 87.4191 40.4218 87.441 40.4678 87.4648C40.4938 87.2422 40.4328 87.0067 40.2539 86.7683Z" fill="#3D2E12"/>
<path d="M38.6861 86.2357C38.5391 86.2357 38.3961 86.2595 38.2611 86.3022C38.6331 86.4751 38.8251 86.7235 38.6061 87.123C38.5851 87.1588 38.5671 87.1935 38.5481 87.2273C38.9431 87.0504 39.4851 86.8249 39.4861 86.6003C39.4881 86.501 39.3841 86.4036 39.1221 86.3102C38.9731 86.2595 38.8261 86.2357 38.6861 86.2357Z" fill="#654E21"/>
<path d="M40.6237 87.6466C40.6237 87.6466 39.9331 86.9799 39.2615 87.748C38.5879 88.5131 38.9886 89.1828 39.7342 89.0914C40.4768 89.002 41.4103 88.3005 40.6237 87.6466Z" fill="#584521"/>
<path d="M40.7157 87.6407C40.4768 87.4181 40.068 87.2621 39.7412 87.3545C39.2425 87.4966 38.466 88.3243 38.9367 88.8579C39.6593 89.6737 41.7341 88.5846 40.7157 87.6407L40.5298 87.6536C41.4722 88.529 39.5593 89.5306 39.0846 88.7834C38.8737 88.4515 39.1546 88.0232 39.3565 87.7728C39.6573 87.4042 40.18 87.3287 40.5298 87.6536L40.7157 87.6407Z" fill="#403215"/>
<path d="M4.49255 87.8036C4.49255 87.8036 4.50054 89.9946 4.71542 90.4915C4.92829 90.9853 5.53695 91.8219 5.53695 91.8219C11.0188 95.9873 19.6138 96.814 25.6683 96.814C29.5481 96.814 32.3875 96.4742 32.6903 96.4563C33.4668 96.4106 33.16 93.1316 33.16 93.1316C30.0358 93.4426 27.2374 93.5767 24.7309 93.5767C8.31235 93.5777 4.49255 87.8036 4.49255 87.8036Z" fill="#FAB64F"/>
<path d="M20.1797 81.7712C20.0777 81.7902 19.9757 81.8102 19.8737 81.8322L19.8757 81.8352C19.9107 81.8542 19.9437 81.8652 19.9807 81.8652C20.0377 81.8652 20.1017 81.8372 20.1797 81.7712Z" fill="#875723"/>
<path d="M16.1968 90.3444C16.2328 90.3593 16.2688 90.3772 16.3057 90.3931C17.0223 90.72 17.9318 90.874 18.8942 90.9505C17.9178 90.7786 16.9903 90.57 16.1968 90.3444ZM19.8737 81.8318H19.8717C19.8737 81.8328 19.8757 81.8348 19.8757 81.8348C19.8757 81.8348 19.8747 81.8328 19.8737 81.8318ZM19.4229 86.4463C19.4229 86.4463 17.7509 85.4934 17.8678 85.0135C17.9828 84.5455 16.6315 83.5787 18.8603 83.5787C18.9262 83.5787 18.9962 83.5796 19.0691 83.5816C21.5877 83.6422 22.4342 84.6578 22.4342 84.6578C20.1355 84.777 19.4229 86.4463 19.4229 86.4463ZM19.4269 86.657C19.7058 86.657 19.9746 86.4602 19.9746 86.4602C20.6842 85.4706 23.5006 85.9117 23.2787 84.8883C23.0548 83.8638 18.9532 82.5731 18.9532 82.5731C19.1171 82.5622 19.279 82.5572 19.4369 82.5572C23.4346 82.5572 25.4804 85.8531 25.4804 85.8531C26.268 84.314 28.5857 83.9095 29.639 83.9095C30.2727 83.9095 30.4486 84.0556 29.5611 84.1907C27.1964 84.5494 26.3469 86.503 26.3469 86.503C28.1729 87.0296 29.5441 89.2355 28.9414 89.2355C28.7556 89.2355 28.3848 89.0258 27.7831 88.4982C26.4859 87.3595 24.49 87.0365 22.9709 87.0365C21.4917 87.0365 20.4673 87.3436 20.988 87.5036C22.0454 87.8265 21.6706 89.7661 21.6706 89.7661C21.3608 87.8364 18.3336 86.6063 18.3336 86.6063C17.669 86.4602 17.0823 86.3976 16.5666 86.3976C15.3733 86.3976 14.5478 86.7305 13.9871 87.1349C13.6063 87.5055 13.2325 87.9775 12.8727 88.5707C12.8727 88.5707 13.1106 87.7659 13.9871 87.1349C14.9465 86.1989 15.9379 85.9137 16.7984 85.9137C18.0717 85.9137 19.0581 86.5397 19.229 86.6162C19.29 86.646 19.36 86.657 19.4269 86.657ZM22.0244 81.5765C21.5397 81.5784 21.024 81.6301 20.4963 81.7166C20.3894 81.8288 20.2864 81.9471 20.1905 82.0723L20.0166 82.0474C19.9386 81.9789 19.8577 81.9133 19.7767 81.8527C18.2076 82.1866 16.5926 82.7549 15.3613 83.1772C14.8836 83.5568 14.6917 83.9016 15.2813 83.9105C16.4886 83.9284 17.7559 85.4706 16.0379 85.4706C15.9459 85.4706 15.847 85.4656 15.7391 85.4566C15.6011 85.4437 15.4712 85.4388 15.3483 85.4388C13.5353 85.4388 13.1326 86.6341 12.1201 87.4956C11.9312 87.6556 11.7024 87.7848 11.4455 87.8811C11.6464 88.055 11.9063 88.2259 12.2241 88.3929C12.8657 88.7357 13.3005 88.9662 13.7062 89.1729C12.9107 88.211 14.2649 87.1369 17.0573 86.8716C17.1772 86.8607 17.2922 86.8547 17.4061 86.8547C20.1505 86.8547 21.019 90.1029 21.5727 90.1417C21.5767 90.1417 21.5817 90.1417 21.5867 90.1417C22.1504 90.1417 22.3602 87.742 22.3602 87.742C22.84 87.6039 23.2977 87.5483 23.7245 87.5483C25.5144 87.5483 26.7577 88.527 26.7577 88.527C27.4983 89.31 28.1089 90.5292 26.247 91.0936C26.6848 91.0091 27.1355 90.8998 27.6052 90.7895C28.3098 90.6236 29.0574 90.4587 29.8529 90.3802C29.1313 90.2073 30.0078 88.0978 33.13 87.4966C33.6597 87.3943 34.1604 87.3515 34.6322 87.3515C35.2268 87.3515 35.7675 87.4191 36.2482 87.5244C36.2852 87.4191 36.3342 87.3128 36.3932 87.2114C35.6166 87.0594 34.921 86.9948 34.3053 86.9948C30.7164 86.9948 29.709 89.1878 29.709 89.1878C29.736 88.064 28.9315 87.7987 27.8211 86.8935C26.7127 85.9902 27.2874 85.5719 27.2874 85.5719C27.965 84.625 29.4621 84.3865 30.8414 84.3865C31.5409 84.3865 32.2116 84.4491 32.7273 84.5107C33.245 84.5723 33.6058 84.6319 33.6917 84.6319C33.6977 84.6319 33.7037 84.6319 33.7067 84.6319C34.0025 84.5634 34.2814 84.5107 34.5452 84.4719C33.194 84.0407 31.0882 83.6631 30.8064 82.9447C30.7574 82.8175 30.6824 82.7132 30.5895 82.6287C30.5505 82.8374 30.4616 82.9596 30.4616 82.9596C30.4616 82.9596 30.4516 82.9596 30.4346 82.9596C30.0528 82.9596 25.7653 83.0033 25.3375 84.937C25.3375 84.937 23.9343 82.5145 21.3258 82.3475C21.2099 82.3376 21.5027 81.9521 22.0244 81.5765Z" fill="#3C2C13"/>
<path d="M20.4967 81.7156C20.3917 81.7334 20.2857 81.7513 20.1807 81.7712C20.1027 81.8368 20.0387 81.8646 19.9817 81.8646C19.9457 81.8646 19.9127 81.8527 19.8787 81.8358C19.8787 81.8358 19.8747 81.8328 19.8717 81.8318C19.8407 81.8388 19.8087 81.8457 19.7767 81.8527C19.8577 81.9143 19.9387 81.9789 20.0167 82.0474L20.1907 82.0723C20.2867 81.9471 20.3887 81.8288 20.4967 81.7156Z" fill="#2B200C"/>
<path d="M15.3613 83.1762C15.0125 83.2955 14.6957 83.4018 14.4188 83.4882C12.416 84.1142 14.4398 84.5256 12.9317 85.3752C13.4084 86.0508 12.462 86.7534 11.6964 86.7534C11.4805 86.7534 11.2796 86.6987 11.1287 86.5705C10.8279 87.0137 10.9518 87.4529 11.4465 87.8802C11.7034 87.7838 11.9323 87.6546 12.1212 87.4946C13.1346 86.6331 13.5363 85.4378 15.3493 85.4378C15.4722 85.4378 15.6022 85.4427 15.7401 85.4556C15.847 85.4646 15.947 85.4696 16.0389 85.4696C17.7569 85.4696 16.4896 83.9264 15.2823 83.9095C14.6917 83.9016 14.8836 83.5558 15.3613 83.1762Z" fill="#493719"/>
<path d="M19.8817 84.4978C19.6168 84.4978 19.379 84.4382 19.313 84.2851C19.1981 84.0208 19.4819 83.9572 19.7837 83.9572C20.0666 83.9572 20.3674 84.0139 20.3674 84.0139C21.2589 84.1828 20.4983 84.4978 19.8817 84.4978ZM18.8613 83.5777C16.6326 83.5777 17.9838 84.5455 17.8688 85.0125C17.7519 85.4924 19.4239 86.4453 19.4239 86.4453C19.4239 86.4453 20.1365 84.776 22.4362 84.6558C22.4362 84.6558 21.5887 83.6403 19.0711 83.5796C18.9972 83.5787 18.9272 83.5777 18.8613 83.5777Z" fill="#493719"/>
<path d="M22.0504 81.5765C22.0414 81.5765 22.0324 81.5765 22.0324 81.5765C21.5027 81.9521 21.2099 82.3386 21.3258 82.3465C23.9333 82.5145 25.3375 84.936 25.3375 84.936C25.7653 83.0023 30.0528 82.9586 30.4346 82.9586C30.4526 82.9586 30.4616 82.9586 30.4616 82.9586C30.4616 82.9586 30.5505 82.8364 30.5895 82.6277C30.4446 82.4956 30.2557 82.4101 30.0468 82.3594C30.0168 82.5015 29.8869 82.5612 29.702 82.5612C29.4711 82.5612 29.1553 82.4678 28.8355 82.3286C28.4307 82.3773 28.1259 82.4588 28.1259 82.4588C26.9676 82.0951 26.0541 82.6387 23.5556 81.7921C23.1098 81.641 22.5991 81.5765 22.0504 81.5765Z" fill="#493719"/>
<path d="M30.8424 84.3865C29.4631 84.3865 27.966 84.625 27.2884 85.5719C27.2884 85.5719 26.7137 85.9902 27.8221 86.8935C28.9315 87.7977 29.737 88.064 29.71 89.1878C29.71 89.1878 30.7174 86.9948 34.3064 86.9948C34.922 86.9948 35.6166 87.0584 36.3941 87.2114C36.4841 87.0495 36.597 86.8954 36.724 86.7514C35.9364 86.7007 35.1639 86.3996 35.1639 85.7617C35.1639 85.3712 35.3728 85.1923 35.6816 85.1387C35.6216 84.8783 35.1629 84.6687 34.5452 84.4719C34.2814 84.5107 34.0025 84.5634 33.7067 84.6319C33.7037 84.6319 33.6977 84.6319 33.6917 84.6319C33.6058 84.6319 33.245 84.5713 32.7273 84.5107C32.2126 84.4481 31.542 84.3865 30.8424 84.3865Z" fill="#493719"/>
<path d="M17.4061 86.8547C17.2932 86.8547 17.1772 86.8607 17.0573 86.8716C14.2649 87.1379 12.9117 88.212 13.7062 89.1729C14.3609 89.5048 14.9405 89.773 16.1958 90.3444C16.9893 90.5699 17.9178 90.7796 18.8932 90.9495C20.7961 91.0986 22.9109 90.9396 24.1642 91.18C24.4001 91.2258 24.6429 91.2456 24.8908 91.2456C25.3255 91.2456 25.7763 91.183 26.246 91.0926C28.1079 90.5282 27.4973 89.309 26.7567 88.526C26.7567 88.526 25.5134 87.5473 23.7234 87.5473C23.2957 87.5473 22.838 87.6039 22.3592 87.741C22.3592 87.741 22.1494 90.1407 21.5857 90.1407C21.5807 90.1407 21.5757 90.1407 21.5717 90.1407C21.019 90.1039 20.1505 86.8547 17.4061 86.8547Z" fill="#493719"/>
<path d="M19.784 83.9572C19.482 83.9572 19.198 84.0218 19.313 84.2851C19.379 84.4382 19.618 84.4978 19.882 84.4978C20.498 84.4978 21.26 84.1828 20.367 84.0139C20.367 84.0139 20.067 83.9572 19.784 83.9572Z" fill="#543F1C"/>
<path d="M29.4065 82.2909C29.2075 82.2909 29.0115 82.3058 28.8365 82.3286C29.1565 82.4687 29.4735 82.5612 29.7035 82.5612C29.8875 82.5612 30.0175 82.5005 30.0485 82.3594C29.8455 82.3108 29.6245 82.2909 29.4065 82.2909Z" fill="#543F1C"/>
<path d="M35.6816 85.1387C35.3727 85.1923 35.1639 85.3712 35.1639 85.7617C35.1639 86.4006 35.9354 86.7007 36.724 86.7514C36.9728 86.4721 37.2757 86.2347 37.5775 86.0787C36.678 85.8571 35.5806 85.7408 35.6816 85.245C35.6896 85.2072 35.6896 85.1715 35.6816 85.1387Z" fill="#543F1C"/>
<path d="M13.9851 87.1359C13.1086 87.7679 12.8707 88.5717 12.8707 88.5717C13.2305 87.9785 13.6043 87.5075 13.9851 87.1359ZM19.4369 82.5572C19.279 82.5572 19.1171 82.5621 18.9532 82.5731C18.9532 82.5731 23.0549 83.8638 23.2787 84.8883C23.5016 85.9117 20.6842 85.4706 19.9746 86.4602C19.9746 86.4602 19.7058 86.657 19.4269 86.657C19.36 86.657 19.29 86.646 19.2261 86.6172C19.0552 86.5407 18.0697 85.9147 16.7955 85.9147C15.936 85.9147 14.9445 86.1999 13.9841 87.1359C14.5458 86.7315 15.3703 86.3986 16.5636 86.3986C17.0803 86.3986 17.667 86.4612 18.3306 86.6073C18.3306 86.6073 21.3578 87.8364 21.6677 89.7671C21.6677 89.7671 22.0424 87.8275 20.9851 87.5045C20.4644 87.3446 21.4898 87.0375 22.9679 87.0375C24.487 87.0375 26.4839 87.3605 27.7801 88.4992C28.3828 89.0268 28.7536 89.2365 28.9385 89.2365C29.5421 89.2365 28.1709 87.0306 26.344 86.5039C26.344 86.5039 27.1935 84.5504 29.5581 84.1917C30.4456 84.0566 30.2697 83.9105 29.6361 83.9105C28.5827 83.9105 26.265 84.3149 25.4775 85.8541C25.4805 85.8531 23.4346 82.5572 19.4369 82.5572Z" fill="#2F230E"/>
<path d="M35.2258 88.0729C31.457 88.0729 30.3047 90.1089 30.0518 90.3633C30.2957 90.3424 30.5435 90.3335 30.7974 90.3335C30.8613 90.3335 30.9253 90.3335 30.9883 90.3354C31.0103 90.3354 31.0332 90.3354 31.0542 90.3354C30.8414 90.1715 30.8114 89.944 31.0412 89.6429C31.8418 88.5926 33.3279 88.4396 34.1284 88.4396C34.4583 88.4396 34.6721 88.4664 34.6721 88.4664C34.7851 88.4734 35.4777 88.5747 36.1433 88.7516C36.2333 88.7257 36.3212 88.7029 36.4041 88.68C36.2632 88.5032 36.1913 88.3114 36.1713 88.1147C35.8385 88.0868 35.5257 88.0729 35.2258 88.0729Z" fill="#3C2C13"/>
<path d="M34.1295 88.4386C33.3289 88.4386 31.8428 88.5916 31.0423 89.6419C30.8124 89.9439 30.8424 90.1705 31.0552 90.3345C31.1142 90.3364 31.1692 90.3364 31.2261 90.3364C33.7357 90.3364 33.8476 89.4084 35.6816 88.8788C35.8475 88.8311 36.0004 88.7883 36.1443 88.7506C35.4787 88.5737 34.7871 88.4724 34.6732 88.4654C34.6732 88.4654 34.4593 88.4386 34.1295 88.4386Z" fill="#493719"/>
<path d="M34.6332 87.3515C34.1614 87.3515 33.6607 87.3943 33.131 87.4966C30.0088 88.0978 29.1323 90.2073 29.8539 90.3802C29.9199 90.3742 29.9868 90.3672 30.0518 90.3623C30.3047 90.1079 31.456 88.0719 35.2258 88.0719C35.5257 88.0719 35.8385 88.0858 36.1713 88.1127C36.1513 87.9179 36.1813 87.7192 36.2492 87.5234C35.7685 87.4201 35.2278 87.3515 34.6332 87.3515Z" fill="#2F230E"/>
<path d="M12.7787 85.4566C12.7207 85.4865 12.6577 85.5183 12.5897 85.5481C11.9317 85.8471 11.4827 86.1462 11.2267 86.4423C11.3517 86.5715 11.5277 86.6272 11.7207 86.6272C12.3397 86.6282 13.1147 86.0459 12.7787 85.4566Z" fill="#3C2C13"/>
<path d="M12.9307 85.3762C12.8837 85.403 12.8327 85.4308 12.7778 85.4566C13.1136 86.0459 12.339 86.6281 11.7204 86.6281C11.5275 86.6281 11.3516 86.5715 11.2267 86.4433C11.1897 86.4861 11.1567 86.5298 11.1267 86.5725C11.2777 86.7007 11.4795 86.7553 11.6944 86.7553C12.462 86.7543 13.4074 86.0518 12.9307 85.3762Z" fill="#2B200C"/>
<path d="M37.8193 86.1423C37.8043 86.1492 37.7914 86.1582 37.7764 86.1651C37.2407 86.4682 36.4201 87.1925 36.3412 87.9249C36.4002 88.0838 36.597 88.2051 36.9488 88.3571C37.0438 88.3978 37.1467 88.4207 37.2537 88.4326C37.8343 88.2279 38.1251 87.9745 38.5479 87.2283C38.407 87.2899 38.2871 87.3446 38.2141 87.3923C38.0202 87.5175 37.5105 87.7063 37.1897 87.7063C37.0278 87.7063 36.9149 87.6576 36.9149 87.5294C36.9149 87.436 36.9728 87.3058 37.1077 87.123C37.1077 87.123 37.5904 86.5069 38.2601 86.3022C38.1331 86.2416 37.9822 86.189 37.8193 86.1423Z" fill="#3C2C13"/>
<path d="M37.5783 86.0787C37.2753 86.2347 36.9733 86.4722 36.7243 86.7514C36.5973 86.8945 36.4843 87.0495 36.3943 87.2114C36.3353 87.3138 36.2873 87.4191 36.2493 87.5244C36.1813 87.7192 36.1503 87.9179 36.1713 88.1137C36.1923 88.3104 36.2643 88.5032 36.4043 88.679C36.4273 88.6721 36.4503 88.6661 36.4723 88.6602C36.1983 88.3164 36.1763 87.8116 36.5173 87.2422L36.5413 87.3038C36.3553 87.586 36.2853 87.7728 36.3403 87.9249C36.4183 87.1935 37.2403 86.4682 37.7763 86.1651C37.7913 86.1572 37.8043 86.1482 37.8193 86.1423C37.7423 86.1204 37.6613 86.0995 37.5783 86.0787Z" fill="#2B200C"/>
<path d="M36.3412 87.9249C36.3232 88.1047 36.3492 88.2836 36.4332 88.4575C36.4662 88.523 36.5052 88.5846 36.5482 88.6403C36.8272 88.5648 37.0592 88.5012 37.2542 88.4326C37.1482 88.4207 37.0442 88.3978 36.9492 88.3571C36.5972 88.2061 36.4002 88.0848 36.3412 87.9249Z" fill="#392911"/>
<path d="M36.5183 87.2432C36.1773 87.8126 36.1992 88.3174 36.4732 88.6612C36.4992 88.6542 36.5243 88.6482 36.5483 88.6403C36.5053 88.5846 36.4662 88.524 36.4332 88.4575C36.3492 88.2836 36.3243 88.1047 36.3413 87.9249C36.2863 87.7728 36.3572 87.586 36.5422 87.3038L36.5183 87.2432Z" fill="#291D0A"/>
<path d="M38.2611 86.3032C37.5915 86.5079 37.1088 87.124 37.1088 87.124C36.9728 87.3068 36.9158 87.437 36.9158 87.5304C36.9158 87.6586 37.0288 87.7073 37.1907 87.7073C37.5105 87.7073 38.0202 87.5185 38.2151 87.3933C38.2881 87.3456 38.408 87.2909 38.5489 87.2293C38.5679 87.1955 38.5859 87.1608 38.6069 87.125C38.8248 86.7235 38.6329 86.4751 38.2611 86.3032Z" fill="#453213"/>
<path d="M25.5604 87.3853C25.5604 87.3853 22.1843 66.1312 21.4818 55.2229C20.7782 44.3147 21.6217 33.2673 26.263 20.962C30.9053 8.65566 30.3426 4.32038 29.3572 2.36091C28.3728 0.404418 25.7883 1.3146 25.2306 3.16179C24.6729 5.00997 26.0351 6.05628 26.9636 5.62504C27.8921 5.1938 27.4593 4.51613 26.9636 4.08687C26.4679 3.65364 26.5928 2.91536 27.4593 2.79215C28.3258 2.66993 29.9958 5.80986 27.5832 6.66936C25.1676 7.53086 23.4966 5.68565 24.3631 2.91536C25.2296 0.14607 28.2009 -1.26988 30.2447 1.5014C32.2885 4.26971 30.9043 14.6672 27.7391 21.5214C25.1396 27.1494 21.7616 42.2171 22.817 55.3611C23.8694 68.506 27.3883 86.4086 27.3164 87.2462C27.2464 88.0868 26.0521 88.9235 25.5604 87.3853Z" fill="#4CB748"/>
<path d="M27.9302 0.0129986C28.1372 0.0339986 28.3432 0.0780004 28.5482 0.152C28.3432 0.0780004 28.1352 0.0329986 27.9302 0.0129986Z" fill="#4CB748"/>
<path d="M27.6822 0L27.6042 0.0029812H27.6012L27.5642 0.0039743C27.1805 0.0228536 26.8037 0.124205 26.4499 0.299087C26.6708 0.240461 26.8976 0.210653 27.1255 0.210653C28.003 0.210653 28.9125 0.657794 29.687 1.70907C31.7289 4.47837 30.3456 14.8769 27.1815 21.7291C26.33 23.5723 25.3945 26.428 24.561 29.8959C24.7819 29.6097 25.0187 29.3335 25.2716 29.0662C26.0661 25.8776 26.9406 23.2523 27.7402 21.5224C29.8789 16.89 31.2042 10.64 31.2091 6.22023C31.2101 4.09979 30.9083 2.39966 30.2457 1.50339C29.729 0.801872 29.1533 0.368642 28.5667 0.159977L28.5507 0.152028H28.5477C28.3428 0.0794917 28.1369 0.0347776 27.93 0.013911L27.9081 0.012916L27.8891 0.0109298L27.6822 0Z" fill="#178314"/>
<path d="M22.717 40.1493C22.1024 45.1424 21.8495 50.4991 22.2563 55.5687C22.9059 63.653 24.485 73.5339 25.5894 80.1406C25.5624 79.0059 25.5694 77.8314 25.6054 76.637C24.577 70.2986 23.3647 62.1884 22.818 55.3601C22.6811 53.6659 22.6181 51.9399 22.6191 50.205C22.6191 47.1168 22.818 44.0057 23.1508 41.0068C22.9869 40.7366 22.842 40.4494 22.717 40.1493Z" fill="#178314"/>
<path d="M26.6068 1.53618C25.7543 1.74186 24.9528 2.43543 24.6709 3.37145C24.1972 4.93843 25.1067 5.92909 25.9612 5.92909C26.1121 5.92909 26.264 5.89829 26.4039 5.83271C26.4819 5.79594 26.5488 5.75719 26.6098 5.71745L26.5198 5.72043C26.0001 5.72043 25.4585 5.35278 25.2226 4.71187C25.0717 4.29951 25.0427 3.77487 25.2296 3.16079L25.2456 3.11111L25.2466 3.10713C25.3315 2.84779 25.4565 2.60832 25.6094 2.39171L25.6394 2.35097L25.6454 2.34401L25.6673 2.3152L25.6773 2.30327L25.7003 2.27247L25.7173 2.2516L25.7263 2.24167C25.9732 1.94556 26.278 1.7051 26.6068 1.53618Z" fill="#178314"/>
<path d="M28.2788 45.0142C28.2788 45.0142 29.3572 45.7137 28.6066 51.3984C27.8591 57.087 23.6355 78.2964 26.6368 88.0391C26.6368 88.0391 27.8591 89.0169 27.95 87.1528C28.046 85.2887 26.0291 76.5257 27.4833 68.041C28.9354 59.5582 30.1537 46.5534 32.3595 45.7137C32.3595 45.7137 28.7006 44.5492 28.2788 45.0142Z" fill="#005730"/>
<path d="M26.9536 74.7103C26.9526 76.6261 27.0606 78.4514 27.2086 80.0909L27.2126 80.0711C27.0656 78.4375 26.9546 76.6191 26.9536 74.7103Z" fill="#7FAB97"/>
<path d="M31.2941 45.8369C29.4821 48.6529 28.3648 59.9279 27.0595 67.5521C26.208 72.5194 26.5478 77.586 26.9556 81.3042C27.0316 80.9097 27.1145 80.5043 27.2075 80.0909C27.0605 78.4514 26.9516 76.6261 26.9526 74.7103C26.9516 72.5362 27.0925 70.2449 27.4823 67.9724C28.8685 59.8821 30.0388 47.6831 32.0567 45.8379C31.9407 45.8429 31.8258 45.8439 31.7119 45.8439H31.6869H31.6479C31.53 45.8429 31.41 45.8399 31.2941 45.8369Z" fill="#003A1C"/>
<path d="M44.7593 31.1697C44.7593 31.1697 45.323 41.2383 37.1637 44.6634C29.0054 48.0905 23.5206 43.1948 23.3097 40.819C23.0978 38.4412 44.5485 30.5388 44.7593 31.1697Z" fill="#007A3B"/>
<path d="M36.681 44.8592C35.0509 45.4882 33.5328 45.7823 32.1466 45.835C33.5318 45.7823 35.0499 45.4872 36.681 44.8592ZM40.8226 42.2181C40.7456 42.2956 40.6647 42.3741 40.5837 42.4516C40.6647 42.3751 40.7456 42.2966 40.8226 42.2181Z" fill="#7FBC9D"/>
<path d="M44.4535 34.8273C43.691 37.9444 41.843 41.8087 37.3756 43.6847C35.7485 44.3693 34.2274 44.7211 32.8342 44.8294C32.7902 44.9546 32.7552 45.0321 32.7343 45.043L32.7203 45.052L32.7043 45.0162C32.7013 44.9814 32.6843 44.9208 32.6603 44.8413C32.4004 44.8572 32.1466 44.8652 31.8967 44.8652C31.6139 44.8652 31.3361 44.8542 31.0662 44.8344C30.9173 45.0977 30.7674 45.2944 30.6625 45.3719L30.5695 45.4186L30.5175 45.3222C30.5175 45.1931 30.4965 44.9973 30.4636 44.7747C29.0394 44.5949 27.8011 44.1587 26.7807 43.5963C25.3605 43.2902 24.2631 42.542 23.4886 41.5116C24.2442 43.329 27.2154 45.827 31.6459 45.8409H31.6849H31.7099C31.8238 45.8409 31.9387 45.8399 32.0546 45.835L32.1436 45.833C33.5298 45.7793 35.0479 45.4852 36.678 44.8572L36.729 44.8364L36.8369 44.7936C36.9448 44.7509 37.0528 44.7072 37.1607 44.6615L37.2667 44.6177L37.3056 44.5979L37.3696 44.572L37.4186 44.5502L37.4725 44.5273L37.5255 44.5035L37.5745 44.4826L37.6294 44.4558L37.6674 44.4389L37.7834 44.3832L37.8163 44.3644L37.8823 44.3336L37.9133 44.3177L37.9772 44.2839L38.0062 44.271L38.0742 44.2342L38.0902 44.2262C38.1731 44.1825 38.2541 44.1378 38.333 44.0941L38.338 44.0921L38.416 44.0484L38.427 44.0404L38.5049 43.9947H38.5079C39.2905 43.5416 39.9751 43.0219 40.5747 42.4536L40.5797 42.4506C40.6607 42.3731 40.7416 42.2946 40.8186 42.2171L40.8326 42.2032L40.8776 42.1585L40.8986 42.1366L40.9415 42.0919L40.9675 42.0661L41.0055 42.0253L41.0405 41.9895L41.0774 41.9488L41.1334 41.8882L41.1564 41.8643L41.1994 41.8147L41.2214 41.7928L41.2703 41.7372L41.2843 41.7203C43.1972 39.5601 44.0627 36.9239 44.4535 34.8273Z" fill="#005A24"/>
<path d="M44.4075 32.3581C44.4075 32.3581 43.7739 38.7204 37.2337 42.4277C30.6935 46.134 26.8936 43.7562 25.9112 42.707C24.9268 41.6587 44.4075 32.3581 44.4075 32.3581Z" fill="#006730"/>
<path d="M30.2447 43.5486C29.9319 43.6022 29.6121 43.6469 29.2863 43.6847C29.1044 43.7066 28.9295 43.7225 28.7556 43.7334C29.2253 43.8367 29.747 43.9083 30.3186 43.9222C30.2927 43.7851 30.2677 43.6569 30.2447 43.5486ZM31.9347 43.1909C31.8088 43.2246 31.6849 43.2545 31.5579 43.2843C31.5499 43.48 31.514 43.6827 31.46 43.8824C31.7079 43.8596 31.9627 43.8248 32.2276 43.7801C32.1296 43.5684 32.0297 43.3618 31.9347 43.1909ZM33.5238 42.7089L33.3179 42.7785C33.2949 42.9882 33.241 43.2763 33.172 43.5774C33.3939 43.5217 33.6158 43.4572 33.8456 43.3836C33.7377 43.1263 33.6198 42.8759 33.5238 42.7089ZM34.938 42.236L34.924 42.2409L34.92 42.2499L34.905 42.3155L34.902 42.393C34.902 42.5639 34.851 42.8004 34.7771 43.0547C34.942 42.9911 35.1079 42.9226 35.2758 42.852C35.1499 42.5341 35.0099 42.236 34.938 42.236ZM36.2772 41.4907C36.1623 41.5533 36.0473 41.6139 35.9294 41.6736C35.8894 41.9498 35.8345 42.3025 35.7775 42.6275C36.0704 42.4903 36.3672 42.3413 36.671 42.1813C36.5461 41.9379 36.4022 41.6815 36.2772 41.4907ZM37.4825 40.7852L37.4346 40.815C37.4236 40.9611 37.4026 41.1181 37.3756 41.2751C37.3616 41.448 37.3376 41.6378 37.3046 41.8266C37.5185 41.7024 37.7264 41.5742 37.9263 41.444C37.7734 41.1837 37.6015 40.9283 37.4825 40.7852ZM38.6489 39.9844L38.487 40.1026C38.481 40.4335 38.456 40.8031 38.428 41.1072C38.6558 40.9452 38.8737 40.7833 39.0836 40.6173C38.9507 40.4037 38.7868 40.1612 38.6489 39.9844ZM39.7222 39.1288L39.6143 39.2222C39.6063 39.568 39.5653 39.9456 39.5223 40.2179L39.5173 40.2616C39.7442 40.0708 39.9571 39.8751 40.163 39.6783C40.0191 39.4925 39.8572 39.2878 39.7222 39.1288ZM40.7776 38.162L40.6177 38.317C40.6467 38.5992 40.6747 38.9043 40.6827 39.1507C40.8646 38.9589 41.0365 38.7642 41.1984 38.5714C41.0595 38.4263 40.9086 38.2743 40.7776 38.162ZM41.9869 36.8623L41.823 37.0531C41.824 37.3214 41.808 37.5897 41.786 37.8242C41.94 37.6165 42.0839 37.4088 42.2198 37.1992C42.1428 37.0829 42.0609 36.9627 41.9869 36.8623ZM43.4501 34.879C43.2432 35.2069 43.0123 35.5438 42.7605 35.8836C42.7875 35.9849 42.8045 36.0932 42.8155 36.2045C43.0663 35.7435 43.2752 35.2983 43.4501 34.879Z" fill="#004F20"/>
<path d="M30.1867 43.2088C30.1867 43.2088 30.5285 44.8045 30.5285 45.3133C30.5285 45.825 31.6549 44.2282 31.5539 43.0378C31.45 41.8494 32.6813 44.6704 32.7133 45.0073C32.7483 45.3481 33.3289 43.175 33.3289 42.5967C33.3289 42.0174 34.1834 44.0563 34.1834 44.3624C34.1834 44.6684 34.902 43.0368 34.902 42.392C34.902 41.7471 35.4137 43.1392 35.5137 43.5128C35.6186 43.8864 35.9594 41.4758 35.9934 41.2036C36.0284 40.9333 36.8479 42.392 36.9508 42.7994C37.0528 43.2078 37.4975 41.2721 37.3586 40.7614C37.2227 40.2507 38.2831 41.8822 38.2831 42.1873C38.2831 42.4943 38.5209 40.4236 38.385 39.8463C38.2491 39.267 39.2735 40.83 39.3425 41.0684C39.4104 41.3059 39.6832 39.4726 39.4784 38.9629C39.2735 38.4532 40.3319 39.9148 40.5398 40.1175C40.7426 40.3212 40.5398 38.5545 40.4708 38.0805C40.4028 37.6046 41.6311 39.0305 41.6311 39.0305C41.6311 39.0305 41.871 37.6731 41.6991 36.8216C41.5312 35.973 42.4847 37.6036 42.5536 37.7407C42.6196 37.8758 42.9973 36.5165 42.7245 35.7713C42.4517 35.0211 32.4414 40.4921 30.1867 43.2088Z" fill="#6ABD45"/>
<path d="M36.8879 42.6185L36.8779 42.6255L36.9409 42.8083L36.9799 42.864L36.9969 42.855L36.9889 42.857L36.9519 42.8004L36.8879 42.6185Z" fill="#005A10"/>
<path d="M36.68 42.1744L36.67 42.1803C36.753 42.3413 36.827 42.4973 36.878 42.6245L36.888 42.6175C36.837 42.4933 36.763 42.3383 36.68 42.1744Z" fill="#004C0D"/>
<path d="M36.2862 41.4858L36.2762 41.4907C36.4012 41.6815 36.5462 41.9379 36.6702 42.1803L36.6802 42.1744C36.5572 41.9329 36.4112 41.6785 36.2862 41.4858Z" fill="#003B09"/>
<path d="M36.5522 41.3407C36.4642 41.3894 36.3762 41.4391 36.2862 41.4858C36.4112 41.6785 36.5562 41.9329 36.6792 42.1744C36.7622 42.3373 36.8362 42.4923 36.8872 42.6175L36.9512 42.8004L36.9872 42.857L36.9962 42.855C37.1042 42.7666 37.2932 41.9935 37.3552 41.3864C37.2652 41.8971 37.1262 42.3741 37.0482 42.3741L37.0112 42.3174C36.9652 42.1277 36.7602 41.7054 36.5522 41.3407Z" fill="#2C8C13"/>
<path d="M39.3205 41.0118L39.3115 41.0188L39.3335 41.0768L39.3475 41.0968L39.3575 41.0898L39.3435 41.0688L39.3205 41.0118Z" fill="#005A10"/>
<path d="M39.0926 40.6094L39.0836 40.6173C39.1856 40.7833 39.2696 40.9303 39.3106 41.0187L39.3196 41.0108C39.2806 40.9224 39.1956 40.7743 39.0926 40.6094Z" fill="#004C0D"/>
<path d="M38.6579 39.9774L38.6478 39.9854C38.7868 40.1622 38.9508 40.4047 39.0838 40.6183L39.0928 40.6104C38.9588 40.3967 38.7959 40.1553 38.6579 39.9774Z" fill="#003B09"/>
<path d="M38.9238 39.7767C38.8378 39.8423 38.7489 39.9108 38.6579 39.9764C38.7959 40.1553 38.9588 40.3967 39.0928 40.6094C39.1958 40.7743 39.2808 40.9224 39.3208 41.0108L39.3439 41.0684L39.3579 41.0893C39.3989 41.0396 39.4608 40.7236 39.5008 40.3451C39.4708 40.503 39.4399 40.6074 39.4209 40.6074L39.4058 40.5865C39.3738 40.4782 39.1508 40.1036 38.9238 39.7767Z" fill="#2C8C13"/>
<path d="M34.0425 43.8556L34.0325 43.8596C34.1175 44.0951 34.1745 44.2908 34.1745 44.3723L34.1895 44.4081L34.2055 44.3991L34.1985 44.4031L34.1845 44.3644C34.1845 44.2859 34.1275 44.0921 34.0425 43.8556Z" fill="#005A10"/>
<path d="M33.8576 43.3797L33.8456 43.3826C33.9146 43.5456 33.9796 43.7095 34.0336 43.8586L34.0436 43.8546C33.9906 43.7066 33.9246 43.5426 33.8576 43.3797Z" fill="#004C0D"/>
<path d="M33.5348 42.706L33.5228 42.7089C33.6198 42.8759 33.7368 43.1273 33.8448 43.3836L33.8568 43.3807C33.7478 43.1233 33.6318 42.8729 33.5348 42.706Z" fill="#003B09"/>
<path d="M34.8948 42.3661C34.7358 43.0299 34.3398 43.9192 34.2598 43.9192L34.2448 43.8824C34.2448 43.7235 34.0148 43.0965 33.7938 42.6126C33.7078 42.6434 33.6218 42.6752 33.5348 42.707C33.6318 42.8739 33.7478 43.1243 33.8568 43.3816C33.9238 43.5446 33.9898 43.7086 34.0428 43.8576C34.1278 44.0941 34.1848 44.2888 34.1848 44.3663L34.1988 44.4051L34.2058 44.4011C34.3418 44.2918 34.8928 42.9683 34.8928 42.4019L34.8948 42.3661Z" fill="#2C8C13"/>
<path d="M38.1651 41.8544L38.1552 41.8624C38.2282 42.0104 38.2741 42.1316 38.2741 42.1962L38.2771 42.227L38.2841 42.2032V42.1873C38.2841 42.1267 38.2391 42.0044 38.1651 41.8544Z" fill="#005A10"/>
<path d="M37.9362 41.4361L37.9263 41.444C38.0143 41.5891 38.0943 41.7362 38.1553 41.8624L38.1653 41.8544C38.1063 41.7292 38.0242 41.5821 37.9362 41.4361Z" fill="#004C0D"/>
<path d="M37.4915 40.7773L37.4815 40.7852C37.6005 40.9283 37.7725 41.1837 37.9255 41.444L37.9355 41.4361C37.7825 41.1777 37.6105 40.9224 37.4915 40.7773Z" fill="#003B09"/>
<path d="M37.7735 40.5974C37.6805 40.659 37.5865 40.7187 37.4925 40.7783C37.6105 40.9234 37.7835 41.1777 37.9365 41.4371C38.0245 41.5831 38.1065 41.7302 38.1655 41.8554C38.2385 42.0044 38.2845 42.1267 38.2845 42.1893V42.2052C38.2975 42.1446 38.3225 41.9577 38.3455 41.7153L38.3445 41.7093C38.3455 41.5424 38.0355 40.9889 37.7735 40.5974Z" fill="#2C8C13"/>
<path d="M40.4408 40.0082L40.4328 40.0152L40.5298 40.1252L40.5588 40.1402L40.5748 40.1342L40.5698 40.1352L40.5398 40.1182L40.4408 40.0082Z" fill="#005A10"/>
<path d="M40.171 39.6704L40.162 39.6783C40.267 39.8105 40.362 39.9297 40.432 40.0152L40.44 40.0082C40.369 39.9218 40.273 39.8015 40.171 39.6704Z" fill="#004C0D"/>
<path d="M39.7323 39.1219L39.7222 39.1288C39.8572 39.2878 40.0192 39.4925 40.1622 39.6783L40.1712 39.6704C40.0252 39.4865 39.8643 39.2809 39.7323 39.1219Z" fill="#003B09"/>
<path d="M39.9972 38.8923C39.9102 38.9679 39.8212 39.0464 39.7312 39.1219C39.8642 39.2809 40.0242 39.4865 40.1712 39.6704C40.2732 39.8015 40.3692 39.9218 40.4412 40.0082L40.5412 40.1175L40.5712 40.1344L40.5762 40.1334C40.6172 40.0957 40.6252 39.8999 40.6142 39.6425L40.5992 39.6356C40.5082 39.5432 40.2432 39.1984 39.9972 38.8923Z" fill="#2C8C13"/>
<path d="M42.4317 37.5271L42.4257 37.537C42.4887 37.6423 42.5337 37.7208 42.5447 37.7467L42.5567 37.7566L42.5707 37.7496H42.5657L42.5547 37.7417C42.5417 37.7149 42.4957 37.6334 42.4317 37.5271Z" fill="#005A10"/>
<path d="M42.2248 37.1912L42.2188 37.2002C42.2958 37.3224 42.3668 37.4416 42.4258 37.537L42.4318 37.5271C42.3748 37.4307 42.3038 37.3124 42.2248 37.1912Z" fill="#004C0D"/>
<path d="M41.9929 36.8534L41.9859 36.8623C42.0599 36.9637 42.1419 37.0839 42.2179 37.2002L42.2239 37.1912C42.1509 37.074 42.0689 36.9557 41.9929 36.8534Z" fill="#003B09"/>
<path d="M42.2099 36.593C42.1419 36.6785 42.0679 36.7649 41.9929 36.8534C42.0689 36.9557 42.1499 37.074 42.2239 37.1912C42.3029 37.3124 42.3739 37.4307 42.4309 37.5271C42.4949 37.6334 42.5409 37.7149 42.5539 37.7417L42.5649 37.7497H42.5699C42.6309 37.691 42.7579 37.2518 42.8009 36.761C42.7399 37.0571 42.6629 37.2677 42.6259 37.2677L42.6139 37.2568C42.5879 37.2002 42.4039 36.8802 42.2099 36.593Z" fill="#2C8C13"/>
<path d="M30.4106 44.425C30.4306 44.5442 30.4506 44.6634 30.4666 44.7757L30.4766 44.7777C30.4596 44.6664 30.4416 44.5452 30.4206 44.426L30.4106 44.425Z" fill="#005A10"/>
<path d="M30.4656 44.7757C30.4976 44.9983 30.5196 45.1941 30.5196 45.3232L30.5716 45.4196L30.6646 45.3729L30.5816 45.4127L30.5286 45.3143C30.5286 45.1891 30.5076 44.9963 30.4756 44.7777L30.4656 44.7757Z" fill="#00430A"/>
<path d="M30.3186 43.9222C30.3486 44.0812 30.3817 44.2551 30.4107 44.425H30.4207C30.3927 44.2551 30.3597 44.0832 30.3307 43.9232L30.3186 43.9222Z" fill="#004C0D"/>
<path d="M30.2567 43.5456L30.2447 43.5486C30.2677 43.6559 30.2927 43.7841 30.3177 43.9222L30.3297 43.9232C30.3037 43.7851 30.2787 43.6569 30.2567 43.5456Z" fill="#003B09"/>
<path d="M31.5487 43.2902C31.3507 44.1279 30.8137 44.9287 30.6417 44.9287L30.5887 44.8314C30.5887 44.5651 30.4947 43.9967 30.4057 43.5208L30.2567 43.5446C30.2777 43.6549 30.3037 43.7831 30.3297 43.9222C30.3587 44.0822 30.3907 44.2541 30.4197 44.424C30.4397 44.5432 30.4587 44.6644 30.4757 44.7757C30.5067 44.9943 30.5287 45.1871 30.5287 45.3123L30.5817 45.4107L30.6647 45.3709C30.9397 45.1533 31.5127 44.1617 31.5487 43.2902Z" fill="#2C8C13"/>
<path d="M32.4514 44.26L32.4394 44.262C32.5354 44.4896 32.6144 44.6962 32.6624 44.8413L32.6724 44.8383C32.6244 44.6962 32.5464 44.4896 32.4514 44.26Z" fill="#005A10"/>
<path d="M32.6713 44.8383L32.6613 44.8413C32.6843 44.9208 32.7023 44.9814 32.7053 45.0162L32.7213 45.052L32.7353 45.043L32.7303 45.045L32.7133 45.0082L32.6713 44.8383Z" fill="#00430A"/>
<path d="M32.2386 43.7771L32.2276 43.7801C32.3016 43.9411 32.3756 44.107 32.4396 44.262L32.4516 44.26C32.3866 44.105 32.3146 43.9391 32.2386 43.7771Z" fill="#004C0D"/>
<path d="M31.9457 43.1889L31.9347 43.1909C32.0297 43.3618 32.1297 43.5684 32.2277 43.7801L32.2387 43.7771C32.1417 43.5675 32.0387 43.3598 31.9457 43.1889Z" fill="#003B09"/>
<path d="M33.3077 42.7825L33.2997 42.7864C33.1497 43.5456 32.8617 44.5631 32.7907 44.5631L32.7757 44.5273C32.7587 44.3723 32.4917 43.6897 32.2157 43.1153C32.1257 43.1402 32.0347 43.165 31.9447 43.1889C32.0387 43.3598 32.1407 43.5675 32.2377 43.7771C32.3137 43.9391 32.3857 44.105 32.4507 44.26C32.5467 44.4886 32.6247 44.6952 32.6717 44.8383L32.7137 45.0082L32.7307 45.045L32.7357 45.043C32.8457 44.9188 33.2367 43.4432 33.3077 42.7825Z" fill="#2C8C13"/>
<path d="M35.4567 43.32L35.4457 43.325C35.4727 43.4025 35.4937 43.4711 35.5077 43.5217L35.5327 43.5615L35.5487 43.5506L35.5407 43.5526L35.5147 43.5138L35.4567 43.32Z" fill="#005A10"/>
<path d="M35.2838 42.8461L35.2758 42.852C35.3388 43.016 35.4018 43.1859 35.4458 43.325L35.4568 43.32C35.4098 43.1819 35.3498 43.012 35.2838 42.8461Z" fill="#004C0D"/>
<path d="M34.948 42.226L34.924 42.2409L34.938 42.236C35.01 42.236 35.15 42.5341 35.277 42.852L35.285 42.8461C35.16 42.5271 35.019 42.226 34.948 42.226Z" fill="#003B09"/>
<path d="M35.919 41.6785L35.915 41.6805C35.811 42.3324 35.677 43.0716 35.602 43.0716L35.578 43.0309C35.523 42.8331 35.351 42.3413 35.203 42.0263C35.115 42.068 35.026 42.1058 34.937 42.1445L34.92 42.2429L34.923 42.2399L34.947 42.225C35.017 42.225 35.159 42.5261 35.283 42.8451C35.349 43.011 35.409 43.1809 35.456 43.319L35.514 43.5128L35.54 43.5516L35.548 43.5496C35.647 43.4363 35.823 42.3383 35.919 41.6785Z" fill="#2C8C13"/>
<path d="M41.4802 38.8566L41.4712 38.8675C41.5642 38.9689 41.6232 39.0384 41.6232 39.0384L41.6252 39.0245C41.6082 39.0036 41.5542 38.941 41.4802 38.8566Z" fill="#005A10"/>
<path d="M41.2074 38.5634L41.1984 38.5724C41.3024 38.6787 41.3954 38.784 41.4714 38.8675L41.4804 38.8566C41.4044 38.7751 41.3094 38.6708 41.2074 38.5634Z" fill="#004C0D"/>
<path d="M40.7876 38.1541L40.7776 38.163C40.9086 38.2743 41.0586 38.4273 41.1986 38.5724L41.2076 38.5634C41.0686 38.4164 40.9176 38.2664 40.7876 38.1541Z" fill="#003B09"/>
<path d="M41.0676 37.8729C40.9756 37.9673 40.8816 38.0597 40.7886 38.1531C40.9186 38.2654 41.0686 38.4164 41.2086 38.5625C41.3106 38.6698 41.4056 38.7741 41.4806 38.8556C41.5546 38.94 41.6086 39.0026 41.6256 39.0235C41.6346 38.9718 41.6626 38.792 41.6916 38.5446C41.6826 38.5346 41.3666 38.17 41.0676 37.8729Z" fill="#2C8C13"/>
<path d="M34.921 42.2439L34.894 42.3669L34.905 42.3159L34.92 42.2499L34.921 42.2439Z" fill="#2C8C13"/>
<path d="M41.7851 37.8252L41.7541 37.8679C41.7451 38.0646 41.7311 38.2564 41.7131 38.4243C41.7321 38.2942 41.7621 38.0805 41.7851 37.8252Z" fill="#004C0D"/>
<path d="M41.8221 37.0531L41.7441 37.1415C41.7661 37.376 41.7661 37.6264 41.7541 37.8669L41.7851 37.8242C41.8081 37.5897 41.8231 37.3214 41.8221 37.0531Z" fill="#003B09"/>
<path d="M41.7441 37.1415L41.7361 37.1515C41.7751 37.6225 41.7341 38.165 41.6911 38.5446L41.6921 38.5485C41.6921 38.5485 41.6991 38.5018 41.7131 38.4233C41.7311 38.2554 41.7451 38.0646 41.7541 37.8669C41.7661 37.6264 41.7661 37.376 41.7441 37.1415Z" fill="#2C8C13"/>
<path d="M40.6837 39.1507L40.5987 39.2411C40.6107 39.3842 40.6197 39.5233 40.6237 39.6445L40.6277 39.6465C40.6837 39.6465 40.6957 39.4389 40.6837 39.1507Z" fill="#004C0D"/>
<path d="M40.6178 38.318L40.5138 38.4184C40.5438 38.6569 40.5758 38.9589 40.5988 39.2421L40.6838 39.1517C40.6748 38.9043 40.6478 38.6002 40.6178 38.318Z" fill="#003B09"/>
<path d="M40.5138 38.4174L40.5048 38.4263C40.5478 38.7821 40.5988 39.2749 40.6128 39.6426L40.6238 39.6455C40.6198 39.5243 40.6098 39.3842 40.5988 39.2421C40.5748 38.9579 40.5438 38.6559 40.5138 38.4174Z" fill="#2C8C13"/>
<path d="M39.6143 39.2222L39.5433 39.2828C39.5653 39.5521 39.5523 39.8969 39.5223 40.2179C39.5653 39.9446 39.6063 39.567 39.6143 39.2222Z" fill="#003B09"/>
<path d="M39.5424 39.2819L39.5334 39.2898C39.5594 39.5909 39.5384 39.9933 39.4994 40.3451L39.5213 40.2179C39.5513 39.8959 39.5654 39.5511 39.5424 39.2819Z" fill="#2C8C13"/>
<path d="M37.4346 40.8151L37.3776 40.8508C37.3916 40.9621 37.3886 41.1102 37.3756 41.2751C37.4026 41.1181 37.4236 40.9611 37.4346 40.8151Z" fill="#003B09"/>
<path d="M37.3776 40.8508L37.3666 40.8548C37.3856 40.9909 37.3776 41.1787 37.3556 41.3864L37.3756 41.2751C37.3886 41.1102 37.3916 40.9631 37.3776 40.8508Z" fill="#2C8C13"/>
<path d="M38.428 41.1072L38.404 41.1231C38.389 41.3367 38.372 41.5444 38.355 41.7183C38.369 41.6567 38.399 41.4172 38.428 41.1072Z" fill="#004C0D"/>
<path d="M38.486 40.1026L38.422 40.1483C38.437 40.4196 38.425 40.7813 38.403 41.1221L38.427 41.1062C38.455 40.8041 38.481 40.4335 38.486 40.1026Z" fill="#003B09"/>
<path d="M38.422 40.1483L38.413 40.1573C38.434 40.5925 38.39 41.2562 38.346 41.7133L38.349 41.7322L38.355 41.7173C38.372 41.5434 38.389 41.3357 38.404 41.1221C38.425 40.7813 38.437 40.4206 38.422 40.1483Z" fill="#2C8C13"/>
<path d="M40.118 25.9958C40.118 25.9958 32.1006 22.9185 25.9812 28.3746C19.8617 33.8277 20.987 44.6634 29.2863 43.6847C37.5855 42.707 42.5796 36.9716 44.2666 33.4074C45.9546 29.8392 43.636 27.6025 40.118 25.9958Z" fill="#008C45"/>
<path d="M28.7246 26.5125C28.028 26.8593 27.3344 27.2856 26.6608 27.8092L26.6048 27.8519L26.5908 27.8639C26.4089 28.0059 26.229 28.157 26.0501 28.314L25.9822 28.3756C25.7323 28.5982 25.4964 28.8277 25.2716 29.0662C25.0187 29.3325 24.7819 29.6097 24.561 29.8959C22.9209 31.9984 22.1024 34.5432 22.1004 36.8723C22.0954 40.5796 24.1542 43.7483 28.2618 43.7483C28.5906 43.7483 28.9325 43.7274 29.2863 43.6857C37.5855 42.708 42.5796 36.9726 44.2666 33.4084L44.3376 33.2445C42.0219 36.0704 37.9762 39.1209 32.1976 39.7777C31.8698 39.8154 31.5529 39.8333 31.2491 39.8333C24.6179 39.8323 23.7614 31.2572 28.7246 26.5125Z" fill="#006C2C"/>
<path d="M19.1551 22.4067C19.1551 22.4067 20.3804 23.0874 20.2725 25.5944C20.1645 28.1053 16.2298 54.5681 16.3227 62.3543C16.4177 70.1396 19.1371 76.6639 20.3564 79.3219C21.5747 81.9789 22.3722 82.0256 22.3722 81.5129C22.3722 80.9991 18.1507 72.9357 18.2456 58.6739C18.3406 44.4081 21.1519 30.3321 21.6217 28.466C22.0894 26.6019 22.747 21.1011 21.8096 19.9842C20.8711 18.8634 19.1551 22.4067 19.1551 22.4067Z" fill="#005730"/>
<path d="M22.2853 22.7327C22.2723 24.7696 21.9105 27.3124 21.6217 28.466C21.1519 30.3321 18.3406 44.4081 18.2456 58.6739C18.2456 58.8627 18.2446 59.0515 18.2456 59.2422C18.2456 59.122 18.2456 59.0018 18.2456 58.8815C18.3406 44.6187 21.1519 30.5397 21.6217 28.6767C21.9205 27.4823 22.2973 24.8014 22.2853 22.7327Z" fill="#7FAB97"/>
<path d="M21.9975 20.5198C21.9385 20.6371 21.8635 20.7652 21.7666 20.9093L21.7626 20.9123L21.7586 20.9202C21.7106 20.9918 21.6547 21.0663 21.5947 21.1458C21.9755 23.1083 21.4548 27.1921 21.062 28.7452C20.5953 30.6103 17.7819 44.6863 17.6869 58.9511C17.636 66.7065 18.8623 72.6297 19.9906 76.5039C20.3044 77.1378 20.6422 77.7599 21.001 78.365C21.126 78.5756 21.2469 78.7793 21.3658 78.9801C20.1385 75.4904 18.2296 68.7723 18.2466 59.2422C18.2456 59.0515 18.2466 58.8627 18.2466 58.6739C18.3416 44.4081 21.153 30.3321 21.6227 28.466C21.9115 27.3134 22.2733 24.7696 22.2863 22.7327C22.2793 21.8135 22.1973 21.0146 21.9975 20.5198Z" fill="#003A1C"/>
<path d="M7.04008 18.1629C7.04008 18.1629 -0.180753 14.854 1.69417 9.72681C3.57108 4.59959 11.8693 7.1165 14.0261 8.09624C16.1838 9.07399 23.3097 14.4804 21.9975 19.9832L7.04008 18.1629Z" fill="#008C45"/>
<path d="M6.78823 6.81841C6.70828 6.82437 6.62932 6.83232 6.55236 6.83927C6.18657 7.16618 5.88975 7.68089 5.65688 8.14791C5.40303 8.65765 5.22714 9.10876 5.1262 9.19521L5.12219 9.20018L5.1172 9.20217L5.1132 9.20415L5.1122 9.20515L5.09321 9.21111C5.05923 9.21111 5.03823 9.14851 5.02724 9.00344C4.97727 8.32378 5.24612 7.43347 5.13619 7.13538C4.89932 7.21189 4.67346 7.29933 4.46458 7.39373C3.8979 8.08531 3.51411 9.57379 3.34721 9.57379L3.29725 9.50424C3.20131 9.17236 3.32623 8.44799 3.42218 7.99687C2.08595 8.95872 1.60322 10.1461 1.60322 10.1461C1.6372 9.95535 1.69017 9.75662 1.76212 9.5559L1.69617 9.72681L1.67418 9.78941C1.4703 10.4263 1.40834 11.0345 1.45131 11.6108C2.53569 10.0577 4.44358 9.55094 6.43643 9.55094C9.17685 9.55094 12.0792 10.5098 13.2325 11.0335C14.8806 11.7817 19.4349 15.1223 20.8991 19.1138C21.143 19.2112 21.3438 19.3115 21.5027 19.4129L21.5047 19.4139L21.5657 19.4536L21.5687 19.4566L21.5827 19.4665L21.5897 19.4715C21.7166 19.5629 21.8126 19.6543 21.8735 19.7477L21.9075 19.703L21.9325 19.6643C21.9455 18.7213 21.8096 17.831 21.5687 16.9973C21.2679 16.9953 20.7682 16.9735 20.7672 16.8493L20.7812 16.8165L20.8341 16.7141C20.9271 16.5154 21.061 16.1378 21.1559 15.8487C21.11 15.7404 21.063 15.635 21.014 15.5297C20.7122 15.6112 20.2465 15.7294 20.0726 15.7294L20.0026 15.7086L20.0246 15.6688L20.0306 15.6629L20.0316 15.6599L20.0366 15.6539L20.0376 15.6529L20.1285 15.478H20.1295C20.2385 15.2008 20.3394 14.7119 20.4004 14.387C20.3514 14.3055 20.3014 14.227 20.2505 14.1495C19.9067 14.3036 19.243 14.5967 19.1211 14.5967L19.1021 14.5877L19.1231 14.5559L19.1281 14.55L19.1791 14.4784L19.1801 14.4755L19.1831 14.4705L19.258 14.2956C19.378 13.9717 19.4899 13.453 19.5499 13.1619L19.4319 13.0138C19.0771 13.1628 18.2306 13.5076 17.9708 13.5076L17.8978 13.4848L17.8968 13.4828L17.8958 13.4798L17.8978 13.446L17.9348 13.3536L17.9698 13.2652C18.1007 12.9373 18.3526 12.3182 18.4715 11.9238L18.2616 11.7091C18.1157 11.7906 17.9198 11.888 17.7139 11.9844C17.2602 12.198 16.7605 12.4067 16.6465 12.4067L16.6286 12.4037L16.6366 12.3699C16.6735 12.3242 16.7415 12.2238 16.8175 12.0967L16.8195 12.0957C17.0223 11.7568 17.2942 11.2054 17.3212 10.8367C17.1762 10.7115 17.0353 10.5923 16.8974 10.482C16.6086 10.5376 16.2018 10.7224 15.834 10.9083C15.3943 11.1279 15.0095 11.3475 14.9465 11.3475L14.9385 11.3415L14.9425 11.3306C14.9665 11.2878 15.0535 11.1527 15.1624 10.9719L15.1644 10.9709C15.3953 10.5804 15.7251 9.97721 15.7471 9.6185C15.5882 9.5102 15.4482 9.41679 15.3323 9.34326C14.6477 9.47343 13.6873 10.2187 13.4484 10.2187L13.3914 10.166L13.3934 10.1491L13.4164 9.98814C13.4914 9.54498 13.7062 8.65665 13.7452 8.48972L13.7042 8.47084L13.5953 8.49171V8.49469C13.2695 8.56524 12.9467 8.71528 12.6638 8.8693L12.6519 8.87526L12.6349 8.88519C12.2081 9.12168 11.8803 9.36513 11.7724 9.36513L11.7344 9.33134V9.32439V9.31544V9.31346C11.7454 9.04418 12.1302 7.96209 12.1302 7.96209L11.9423 7.99687V7.99985C10.9838 8.22144 10.2223 9.02331 9.99738 9.02331L9.97939 9.02132L9.97339 9.02033H9.97139L9.94841 9.00145L9.94741 9.00046L9.94541 8.99847L9.92943 8.89314C9.95341 8.53145 10.5661 7.76436 10.743 7.31225C10.5231 7.24766 10.3082 7.18804 10.0983 7.13637C9.45269 7.51992 8.65216 8.37744 8.45828 8.37744L8.41429 8.31881L8.4173 8.24429V8.23733V8.23435L8.42729 8.12307C8.46227 7.7584 8.5722 7.16917 8.62917 6.86511C8.54621 6.85418 8.46227 6.84424 8.38032 6.83828C8.09148 7.0539 7.78266 7.40863 7.50382 7.75045L7.49582 7.7584L7.48982 7.76734C7.12304 8.21945 6.80822 8.64573 6.65931 8.6964L6.65231 8.69938H6.64632H6.64531L6.64032 8.70037H6.63831L6.63133 8.70137L6.57536 8.64274L6.57336 8.63281C6.49341 8.28602 6.69928 7.2417 6.78823 6.81841Z" fill="#007331"/>
<path d="M22.1744 19.7746C22.1744 19.7746 21.9965 19.5152 21.9035 19.702C21.9035 19.702 21.8256 19.8074 21.6736 19.9922C20.7812 21.0564 17.2252 24.8084 10.4161 26.0415C2.44374 27.4863 -1.53997 24.9237 1.64819 21.8463C4.83536 18.769 7.43386 18.0715 7.43386 18.0715L6.93814 18.1291C6.93814 18.1291 -0.27269 20.6828 0.00814794 24.1297C0.288986 27.5807 8.35233 29.2579 15.5242 25.4821C22.6991 21.7052 22.1744 19.7746 22.1744 19.7746Z" fill="#007A3B"/>
<path d="M19.6738 22.9354C18.7074 23.6627 17.3711 24.5103 15.5252 25.4831C17.3721 24.5103 18.7084 23.6627 19.6738 22.9354Z" fill="#007A3B"/>
<path d="M21.5937 21.1448C21.2249 21.6178 20.6302 22.216 19.6738 22.9354C20.6312 22.218 21.2249 21.6208 21.5937 21.1448Z" fill="#002A0B"/>
<path d="M21.7577 20.9202L21.5937 21.1458C21.6547 21.0663 21.7097 20.9918 21.7577 20.9202Z" fill="#001C06"/>
<path d="M22.1554 20.0846C21.7256 20.964 20.3024 22.6283 15.6801 25.0608C12.8098 26.5721 9.7955 27.209 7.196 27.209C3.29824 27.209 0.329955 25.7782 0.161053 23.7094C0.138066 23.4064 0.173048 23.1093 0.254001 22.8211C0.113083 23.1341 0.0251333 23.457 0.00414544 23.7879V23.7998L0.00313894 23.8207L0.00114119 23.8485V23.8525C-0.00185708 23.9469 0.0011368 24.0383 0.00913219 24.1307C0.177035 26.2005 3.14533 27.6313 7.04309 27.6313C9.64259 27.6313 12.6548 26.9944 15.5252 25.4831C17.3721 24.5103 18.7084 23.6627 19.6738 22.9354C20.6303 22.216 21.2249 21.6188 21.5937 21.1448L21.7576 20.9193L21.7616 20.9113L21.7656 20.9083C22.0094 20.5486 22.1144 20.2724 22.1554 20.0846Z" fill="#003A0E"/>
<path d="M5.29109 19.0711C5.29109 19.0711 4.93629 18.3964 4.95428 18.2145C4.97227 18.0327 4.29767 19.6474 4.32665 19.9336C4.35563 20.2177 4.15675 18.9399 4.12177 18.5852C4.08679 18.2275 3.51711 19.7954 3.55209 20.1522C3.58907 20.5089 3.04539 18.6905 3.08137 18.3258C3.11734 17.9612 2.54867 20.2505 2.61164 20.8934C2.6746 21.5353 1.55824 19.0512 1.60721 18.7948C1.65418 18.5395 0.941593 19.398 1.53825 22.1156C1.53825 22.1156 4.25869 20.4045 5.29109 19.0711Z" fill="#6ABD45"/>
<path d="M4.09505 18.5484C4.00705 18.5484 3.74005 19.2479 3.61505 19.7468C3.65205 19.8749 3.68806 19.9832 3.71706 20.0617L3.78105 20.0111C3.81605 19.7159 3.99606 19.1516 4.14606 18.8068C4.13406 18.7243 4.12505 18.6527 4.12105 18.6011L4.09505 18.5484Z" fill="#2C8C13"/>
<path d="M4.94957 18.2175C4.91957 18.2175 4.63456 18.8823 4.46156 19.397L4.47856 19.5113L4.68457 19.3721C4.78257 19.08 4.91657 18.7392 5.02057 18.4967C4.97857 18.3874 4.94956 18.2841 4.95456 18.2314L4.94957 18.2175Z" fill="#2C8C13"/>
<path d="M1.64819 21.8463C-1.53897 24.9237 2.44474 27.4863 10.4161 26.0415C17.2252 24.8084 21.053 20.9739 21.9445 19.9067C21.7376 19.1406 19.348 18.3447 14.181 18.0327C8.91501 17.7157 7.32293 18.0715 7.0281 18.1589C7.0281 18.1589 4.83635 18.77 1.64819 21.8463Z" fill="#008C45"/>
<path d="M10.3931 17.9045C8.79607 17.9045 7.89659 17.9969 7.42587 18.0754C7.21499 18.1092 7.09106 18.141 7.0281 18.1599C7.0281 18.1599 5.50897 18.5872 3.16532 20.4989C2.82252 22.1822 4.9323 23.4252 8.76909 23.4252C10.0064 23.4252 11.4226 23.2941 12.9957 23.0109C16.7735 22.3253 19.6368 20.8398 21.5867 19.4705L21.5797 19.4655L21.5657 19.4556L21.5627 19.4526L21.5017 19.4129L21.4997 19.4119C20.7562 18.9349 19.0881 18.4908 16.3477 18.2076L16.3397 18.2066C16.2068 18.1927 16.0719 18.1798 15.933 18.1669L15.917 18.1649L15.851 18.1589L15.819 18.1549L15.7561 18.149L15.6961 18.144L15.6681 18.141L15.5752 18.1341L15.5202 18.1291L15.4722 18.1251L15.4202 18.1202L15.3693 18.1162L15.3233 18.1122L15.2604 18.1072L15.2174 18.1043L15.1214 18.0953L15.0824 18.0933L15.0185 18.0884L14.9775 18.0854L14.9055 18.0794L14.8716 18.0764L14.7886 18.0705L14.7676 18.0695L14.6637 18.0615L14.6307 18.0605L14.5478 18.0546L14.5148 18.0526L14.4438 18.0476L14.4008 18.0436L14.3199 18.0387L14.2929 18.0377L14.181 18.0297C12.6149 17.9393 11.3736 17.9045 10.3931 17.9045Z" fill="#007331"/>
<path d="M7.66884 24.7617C7.53684 24.9157 7.59783 25.8875 7.47183 26.4101C7.82083 26.3883 8.18084 26.3555 8.55084 26.3138C8.32384 25.7285 7.84084 24.553 7.66884 24.7617Z" fill="#6ABD45"/>
<path d="M9.11507 24.6892C9.06807 24.9475 8.93206 25.8001 8.81206 26.285C9.29606 26.2253 9.79706 26.1508 10.3141 26.0594C9.82506 25.659 9.17807 24.3364 9.11507 24.6892Z" fill="#6ABD45"/>
<path d="M11.0179 24.5441C10.9949 24.7766 10.9849 25.5824 10.7989 25.966C11.2009 25.8875 11.5889 25.8001 11.9649 25.7017C11.5769 25.346 11.0499 24.2589 11.0179 24.5441Z" fill="#6ABD45"/>
<path d="M12.395 24.1844C12.395 24.3911 12.449 25.2178 12.332 25.6103C12.75 25.495 13.151 25.3728 13.541 25.2406C13.134 24.713 12.395 23.924 12.395 24.1844Z" fill="#6ABD45"/>
<path d="M4.17679 24.1118C4.03879 24.3076 4.19779 25.8169 4.06479 26.3058C4.33879 26.3476 4.63079 26.3813 4.93579 26.4062C4.34879 25.5834 4.32979 23.8932 4.17679 24.1118Z" fill="#6ABD45"/>
<path d="M6.82881 26.4419C6.18981 25.6172 6.20182 24.0264 5.90382 24.9028C5.73482 25.4046 5.80582 26.0465 5.77382 26.4529C6.11082 26.4588 6.46381 26.4539 6.82881 26.4419Z" fill="#6ABD45"/>
<path d="M3.73817 26.2532C3.32241 25.498 2.91164 22.9085 2.58983 23.4978C2.23703 24.1486 2.69477 26.3088 2.16507 25.6609C1.63638 25.0121 1.35355 22.7436 1.21263 23.0327C1.07171 23.3209 1.28259 24.6186 0.966772 24.2192C0.84884 24.0731 0.408093 22.3342 0.331137 21.8821C0.25618 24.0373 0.486044 25.806 3.73817 26.2532Z" fill="#6ABD45"/>
<path d="M18.0731 23.0327C17.9681 22.8509 17.6861 22.2378 17.6161 22.5985C17.5751 22.8072 17.5331 23.1798 17.5001 23.4312C17.6921 23.3179 17.8781 23.2027 18.0561 23.0884L18.0731 23.0327Z" fill="#6ABD45"/>
<path d="M15.2164 23.3209C15.1934 23.461 15.1994 24.2331 15.1684 24.6196C15.5414 24.4596 15.9004 24.2927 16.2414 24.1218C15.8274 23.8505 15.2474 23.1381 15.2164 23.3209Z" fill="#6ABD45"/>
<path d="M13.9461 23.5723C13.9691 23.7084 13.9891 24.5958 13.9171 25.1124C14.3081 24.9733 14.6821 24.8273 15.0441 24.6742C14.8191 24.1874 13.9121 23.3696 13.9461 23.5723Z" fill="#6ABD45"/>
<path d="M16.6635 23.1033C16.6425 23.1679 16.7095 23.5872 16.6815 23.8942C16.9045 23.776 17.1185 23.6558 17.3255 23.5335C17.1185 23.3259 16.6905 23.0178 16.6635 23.1033Z" fill="#6ABD45"/>
<path d="M7.71472 24.7359C7.91672 24.7359 8.34272 25.7742 8.55072 26.3148C8.34172 25.7742 7.91672 24.7359 7.71472 24.7359Z" fill="#006813"/>
<path d="M7.71475 24.7359L7.66875 24.7617L7.66374 24.7667L7.61975 24.8899C7.83375 25.1601 8.13776 25.9004 8.30576 26.3396L8.43375 26.3277L8.54974 26.3138C8.34174 25.7742 7.91675 24.7359 7.71475 24.7359Z" fill="#2C8C13"/>
<path d="M9.1149 24.6892L9.09189 24.8213V24.8223L9.1149 24.6892Z" fill="#006813"/>
<path d="M9.1579 24.6285L9.1149 24.6892L9.09189 24.8223C9.33389 25.1264 9.7399 25.8199 10.0719 26.0991C10.1519 26.0852 10.2319 26.0743 10.3139 26.0604C9.87989 25.7047 9.3249 24.6285 9.1579 24.6285Z" fill="#2C8C13"/>
<path d="M11.0469 24.4974L11.0179 24.5441L11.0099 24.6434L11.0059 24.715L11.0039 24.7498C11.1979 25.032 11.4899 25.5288 11.7309 25.7504C11.4289 25.8259 11.1169 25.8974 10.7999 25.963L10.7989 25.966C11.2009 25.8875 11.5889 25.8001 11.9649 25.7017C11.6199 25.3867 11.1679 24.4974 11.0469 24.4974Z" fill="#2C8C13"/>
<path d="M12.339 25.5854H12.338L12.332 25.6093L12.339 25.5854ZM12.395 24.1844L12.396 24.2977H12.397L12.395 24.1844Z" fill="#006813"/>
<path d="M12.431 24.1337L12.395 24.1844L12.397 24.2977C12.649 24.5063 13.045 24.9485 13.307 25.2873C12.993 25.3907 12.67 25.49 12.339 25.5854L12.332 25.6093C12.75 25.494 13.151 25.3718 13.541 25.2396C13.19 24.7845 12.588 24.1337 12.431 24.1337Z" fill="#2C8C13"/>
<path d="M4.20177 24.093L4.17476 24.1118C4.12876 24.1794 4.11677 24.404 4.11577 24.6872V24.6921C4.11677 24.406 4.12976 24.1794 4.17776 24.1118L4.20177 24.093Z" fill="#006813"/>
<path d="M4.20276 24.093L4.17776 24.1118C4.12976 24.1794 4.11677 24.406 4.11577 24.6921C4.20777 25.184 4.34877 25.9004 4.65477 26.3784L4.85277 26.3992L4.93376 26.4062C4.38476 25.6351 4.33476 24.0969 4.20276 24.093Z" fill="#2C8C13"/>
<path d="M6.05573 24.6554C6.01673 24.6554 5.97673 24.711 5.92673 24.8432C6.04773 25.1631 6.19073 25.9362 6.56473 26.4489C6.65173 26.4469 6.73772 26.4449 6.82672 26.4419C6.31972 25.7861 6.22273 24.6554 6.05573 24.6554Z" fill="#2C8C13"/>
<path d="M2.68866 23.4123L2.58867 23.4978L2.57466 23.5266L2.56467 23.5475C2.83267 23.937 3.14266 25.5437 3.45866 26.2104L3.60066 26.2333L3.73866 26.2532C3.36266 25.5735 2.99466 23.4153 2.68866 23.4123Z" fill="#2C8C13"/>
<path d="M17.688 22.4872C17.656 22.4872 17.629 22.52 17.614 22.5985L17.602 22.6681V22.6701L17.616 22.5985C17.63 22.521 17.656 22.4892 17.688 22.4872Z" fill="#006813"/>
<path d="M17.688 22.4872C17.656 22.4892 17.6301 22.521 17.6161 22.5985L17.6021 22.6701C17.6941 22.8002 17.7871 22.989 17.8381 23.0775L17.8191 23.1341C17.7221 23.1967 17.6171 23.2603 17.5131 23.3249L17.5011 23.4143L17.4981 23.4312C17.6901 23.3179 17.8761 23.2027 18.0541 23.0884L18.0721 23.0317L18.0151 22.9284C17.9221 22.7545 17.78 22.4892 17.688 22.4872Z" fill="#2C8C13"/>
<path d="M15.1724 24.558L15.1704 24.56L15.1684 24.6196L15.1724 24.558Z" fill="#006813"/>
<path d="M15.2454 23.2921L15.2174 23.3209L15.2154 23.3269L15.2064 23.465C15.4214 23.6528 15.7474 23.9976 16.0084 24.1695C15.7394 24.3016 15.4614 24.4318 15.1734 24.559L15.1694 24.6206C15.5424 24.4606 15.8994 24.2937 16.2424 24.1228C15.8734 23.8783 15.3734 23.2921 15.2454 23.2921Z" fill="#2C8C13"/>
<path d="M13.9221 25.0697H13.9201L13.9161 25.1124L13.9221 25.0697ZM13.9461 23.5723L13.9581 23.7283H13.9591L13.9461 23.5723Z" fill="#006813"/>
<path d="M13.9651 23.5415L13.9471 23.5494L13.9451 23.5723L13.9581 23.7283C14.2341 23.9548 14.6631 24.406 14.8071 24.721C14.5231 24.8402 14.2271 24.9574 13.9221 25.0697L13.9161 25.1124C14.3071 24.9733 14.6811 24.8273 15.0411 24.6742L15.0191 24.6295L14.9341 24.6673L14.9441 24.5023C14.7761 24.243 14.4941 23.9429 14.2721 23.7492C14.1291 23.624 14.0121 23.5415 13.9651 23.5415Z" fill="#2C8C13"/>
<path d="M16.6885 23.0894L16.6635 23.1033V23.2374C16.8055 23.3288 16.9815 23.469 17.0915 23.5822C16.9625 23.6558 16.8245 23.7303 16.6875 23.8068L16.6855 23.8495L16.6825 23.8952C16.9055 23.777 17.1195 23.6568 17.3265 23.5345L17.2695 23.4809H17.2665V23.4789C17.0855 23.313 16.8145 23.1162 16.7075 23.0924L16.6975 23.0904L16.6885 23.0894Z" fill="#2C8C13"/>
<path d="M17.2652 23.4779V23.4799H17.2682L17.2652 23.4779Z" fill="#2C8C13"/>
<path d="M14.9435 24.5014L14.9335 24.6663L15.0185 24.6285L14.9435 24.5014Z" fill="#2C8C13"/>
<path d="M3.51013 7.60538C3.51013 7.60538 3.15134 9.00344 3.29525 9.50424C3.43817 10.006 3.94288 7.64214 4.73542 7.13836C5.52796 6.63756 4.95329 8.03562 5.02425 9.00344C5.09821 9.97125 5.67388 7.28343 6.82721 6.63756C6.82721 6.63756 6.46642 8.21349 6.57435 8.64473C6.68129 9.07498 7.83562 6.99627 8.66514 6.67433C8.66514 6.67433 8.4123 7.92831 8.4123 8.3218C8.4123 8.71727 9.85347 6.99627 10.5751 6.96149C11.2956 6.92473 9.9624 8.35856 9.92643 8.89513C9.89244 9.43368 10.8639 8.14294 12.1262 7.96309C12.1262 7.96309 11.7304 9.07399 11.7304 9.32538C11.7304 9.57677 12.7388 8.60896 13.7482 8.46488C13.7482 8.46488 13.4254 9.7914 13.3894 10.1501C13.3524 10.5078 14.6867 9.36016 15.4792 9.32538C16.2718 9.28961 15.0465 11.1527 14.9385 11.3325C14.8846 11.419 15.3213 11.1646 15.83 10.9093C16.3737 10.634 17.0043 10.3598 17.2102 10.5088C17.606 10.794 16.8145 12.1573 16.6336 12.3719C16.4527 12.5865 18.1837 11.7986 18.4725 11.5829C18.7603 11.3683 18.0028 13.1609 17.8948 13.447C17.7879 13.7342 19.5898 12.9462 19.5898 12.9462C19.5898 12.9462 19.337 14.3433 19.1201 14.5569C18.9053 14.7735 20.4544 14.0561 20.4544 14.0561C20.4544 14.0561 20.2375 15.4522 20.0216 15.6688C19.8037 15.8844 21.2829 15.4532 21.2829 15.4532C21.2829 15.4532 20.9241 16.5999 20.7792 16.8155C20.6342 17.0281 21.7866 16.9943 21.7866 16.9943C21.7866 16.9943 21.2829 13.2324 17.8209 10.2942C14.3619 7.35398 6.93615 4.55985 3.51013 7.60538Z" fill="#6ABD45"/>
<path d="M13.5903 8.4937C13.2645 8.56723 12.9417 8.71627 12.6588 8.87128C12.9407 8.71727 13.2635 8.56723 13.5903 8.49668V8.4937Z" fill="#00550D"/>
<path d="M13.3375 8.30292C12.6578 8.50165 12.0302 8.98357 11.7684 9.1038C11.7464 9.19223 11.7324 9.26675 11.7304 9.31544V9.31743V9.32637V9.33333L11.7684 9.36711C11.8753 9.36711 12.2051 9.12367 12.6309 8.88718L12.6478 8.87724L12.6598 8.87128C12.9417 8.71627 13.2645 8.56723 13.5913 8.4937L13.6083 8.42812C13.5174 8.38638 13.4264 8.34366 13.3375 8.30292Z" fill="#2C8C13"/>
<path d="M13.4124 9.99013L13.3884 10.1511L13.3864 10.168L13.3884 10.1511L13.4124 9.99013Z" fill="#00550D"/>
<path d="M15.0345 9.16242C14.4288 9.35618 13.6982 9.88778 13.4154 9.97522L13.4124 9.99013L13.3894 10.1511L13.3874 10.168L13.4444 10.2207C13.6833 10.2207 14.6437 9.47542 15.3283 9.34525C15.1954 9.25881 15.0954 9.19919 15.0345 9.16242Z" fill="#2C8C13"/>
<path d="M15.1595 10.9728L15.1575 10.9738C15.0495 11.1557 14.9625 11.2898 14.9375 11.3325C14.9635 11.2898 15.0505 11.1557 15.1595 10.9728Z" fill="#00550D"/>
<path d="M16.6455 10.2872C16.1868 10.4204 15.5402 10.7731 15.1594 10.9738C15.0515 11.1567 14.9645 11.2908 14.9375 11.3335L14.9335 11.3445L14.9415 11.3504C15.0045 11.3504 15.3883 11.1298 15.829 10.9112C16.1968 10.7254 16.6036 10.5406 16.8924 10.485C16.8085 10.4154 16.7265 10.3498 16.6455 10.2872Z" fill="#2C8C13"/>
<path d="M11.9393 7.99886C10.9788 8.22044 10.2173 9.0253 9.99338 9.0253C10.2193 9.0253 10.9808 8.22243 11.9393 8.00184V7.99886Z" fill="#00550D"/>
<path d="M11.9922 7.73753C11.0248 7.89055 10.2372 8.68547 9.95041 8.78185L9.92741 8.89513L9.94341 9.00046L9.94541 9.00244L9.94642 9.00344L9.9694 9.02232H9.97139L9.97739 9.02331L9.99438 9.0253C10.2192 9.0253 10.9798 8.21945 11.9403 7.99886C11.9812 7.88062 12.0122 7.78821 12.0262 7.74846L11.9922 7.73753Z" fill="#2C8C13"/>
<path d="M16.8146 12.0977L16.8126 12.0986C16.7376 12.2258 16.6686 12.3262 16.6316 12.3719C16.6696 12.3262 16.7386 12.2268 16.8146 12.0977ZM17.7106 11.9874C17.2556 12.201 16.7556 12.4097 16.6426 12.4097C16.7556 12.4087 17.2556 12.2 17.7106 11.9874Z" fill="#00550D"/>
<path d="M18.0716 11.5283C17.7106 11.7171 17.1526 11.9725 16.8146 12.0977C16.7386 12.2268 16.6696 12.3272 16.6316 12.3719L16.6236 12.4057L16.6416 12.4087C16.7546 12.4087 17.2546 12.2 17.7096 11.9864C17.9156 11.889 18.1106 11.7916 18.2576 11.7111L18.0716 11.5283Z" fill="#2C8C13"/>
<path d="M6.55025 6.84126C6.42825 6.85418 6.30925 6.86908 6.19225 6.88697C5.57725 7.64612 5.19425 8.84346 5.02425 8.96866L5.02625 9.00443C5.03825 9.1505 5.05924 9.2121 5.09224 9.2121L5.11124 9.20614L5.11224 9.20515L5.11624 9.20316L5.12024 9.20117H5.12125L5.12524 9.1962C5.22724 9.10777 5.40225 8.65765 5.65625 8.1489C5.88725 7.68387 6.18525 7.16916 6.55025 6.84126Z" fill="#2C8C13"/>
<path d="M8.04451 6.81443C7.42287 7.40168 6.78023 8.41122 6.55736 8.46488L6.57435 8.63579L6.57634 8.64572L6.63231 8.70435L6.63931 8.70336H6.64131L6.64631 8.70236H6.65331L6.6603 8.69938C6.81021 8.6487 7.12404 8.22342 7.49083 7.77032L7.49682 7.76138L7.50481 7.75343C7.78265 7.41161 8.09247 7.05688 8.3813 6.84126C8.26537 6.83033 8.15444 6.8194 8.04451 6.81443Z" fill="#2C8C13"/>
<path d="M9.76529 7.06284C9.23029 7.44341 8.65629 8.02171 8.42529 8.12605L8.41528 8.23733V8.24032V8.24727L8.41229 8.3218L8.45628 8.38042C8.64928 8.38042 9.45029 7.5229 10.0973 7.13935C9.98529 7.11153 9.87529 7.08769 9.76529 7.06284Z" fill="#2C8C13"/>
<path d="M4.46425 7.39472C4.33525 7.45335 4.21225 7.51297 4.09425 7.57656C3.69325 8.29397 3.41126 9.26477 3.26926 9.3373L3.29625 9.50622L3.34625 9.57578C3.51225 9.57478 3.89625 8.0863 4.46425 7.39472Z" fill="#2C8C13"/>
<path d="M20.8302 16.7141L20.7782 16.8171L20.7642 16.8501L20.7782 16.8171L20.8322 16.7141H20.8302Z" fill="#00550D"/>
<path d="M20.8322 16.7141L20.7782 16.8165L20.7642 16.8493C20.7652 16.9735 21.2652 16.9944 21.5662 16.9973L21.4952 16.7638C21.3012 16.7628 21.0112 16.7549 20.8322 16.7141Z" fill="#2C8C13"/>
<path d="M20.9006 15.3002C20.6666 15.3638 20.3376 15.4472 20.1256 15.48L20.0336 15.6549L20.0326 15.6559L20.0276 15.6619L20.0266 15.6649L20.0206 15.6708L19.9986 15.7106L20.0666 15.7314C20.2426 15.7314 20.7096 15.6122 21.0106 15.5317L20.9006 15.3002Z" fill="#2C8C13"/>
<path d="M19.2618 12.8121C18.9158 12.9552 18.2698 13.2145 17.9648 13.2672L17.9298 13.3556L17.8928 13.448L17.8908 13.4818L17.8918 13.4848L17.8928 13.4868L17.9658 13.5096C18.2258 13.5096 19.0718 13.1638 19.4278 13.0138L19.2618 12.8121Z" fill="#2C8C13"/>
<path d="M20.1081 13.9379C19.8641 14.0462 19.4971 14.2072 19.2541 14.2966L19.1781 14.4715L19.1751 14.4764L19.1741 14.4794L19.1231 14.551L19.1181 14.5569L19.0971 14.5887L19.1161 14.5967C19.2361 14.5967 19.9021 14.3045 20.2451 14.1495L20.1081 13.9379Z" fill="#2C8C13"/>
<path d="M22.1843 19.7497C22.1843 19.7497 23.7325 12.6163 14.8696 8.09624C6.00967 3.57315 2.06995 7.53582 1.60222 10.1461C1.60222 10.1461 4.36862 3.34064 14.9645 9.12267C14.9645 9.12267 22.1134 13.1748 21.9275 19.7954C21.9275 19.7954 22.1743 20.2476 22.1843 19.7497Z" fill="#008C45"/>
<path d="M7.61675 6.0374C4.01483 6.0374 2.14292 8.07636 1.6452 9.77152C1.70517 9.61254 1.77612 9.45058 1.86107 9.28961C1.99799 8.97959 2.1599 8.69938 2.3448 8.44799C3.25427 7.17314 4.97127 6.04237 7.64673 6.0374H7.61675Z" fill="#008C45"/>
<path d="M22.0554 19.9624L22.0524 19.9834H22.0564L22.0794 19.9764L22.0554 19.9624Z" fill="#004310"/>
<path d="M7.64672 6.0374C4.97126 6.04237 3.25426 7.17314 2.34479 8.44799C2.16089 8.70435 2.01098 8.96767 1.89305 9.22999C2.68459 7.76237 4.49255 6.31662 7.5248 6.31662C9.4257 6.31662 11.8103 6.88498 14.7286 8.37545C23.1068 12.6501 22.1823 19.2489 22.0554 19.9614L22.0794 19.9753C22.1104 19.9574 22.1344 19.8948 22.1364 19.7497C22.1364 19.7497 23.6835 12.6163 14.8236 8.09624C11.9193 6.61471 9.54363 6.04336 7.64672 6.0374Z" fill="#004D13"/>
<path d="M21.6207 87.8762C21.6207 87.8762 10.2292 81.7245 9.10289 69.6964C7.97854 57.6713 11.2836 54.2442 12.6898 51.1669C14.097 48.0905 14.9395 44.733 14.3778 42.9852C13.8142 41.2383 17.541 44.8731 16.6265 53.6142C15.7141 62.3543 16.8384 71.3747 20.987 78.365C25.1376 85.3583 25.7003 87.1051 25.6294 87.7361C25.5604 88.366 22.0424 87.9447 21.6207 87.8762Z" fill="#0EA34A"/>
<path d="M21.5547 79.305L21.5747 79.3586C22.1783 80.388 22.6951 81.2903 23.1368 82.0802H23.1488C22.699 81.2764 22.1703 80.3543 21.5547 79.305ZM14.4178 42.5589H14.4118C14.9235 42.5837 17.3891 46.3218 16.6265 53.6142C16.3827 55.9592 16.2837 58.3231 16.3517 60.6661L16.3577 60.4793C16.3007 58.1989 16.4007 55.8966 16.6395 53.6142C17.4051 46.299 14.9175 42.5589 14.4178 42.5589Z" fill="#86D1A4"/>
<path d="M21.3648 78.9801L21.3818 79.0297C21.4468 79.141 21.5107 79.2493 21.5747 79.3576L21.5547 79.304C21.4917 79.1977 21.4278 79.0903 21.3648 78.9801ZM16.3587 60.4793L16.3527 60.6661C16.5146 66.317 17.643 71.8238 20.0046 76.5615L19.9886 76.5039C17.621 71.7254 16.5006 66.1719 16.3587 60.4793Z" fill="#00471F"/>
<path d="M19.9896 76.5039L20.0056 76.5615C20.3136 77.1756 20.6406 77.7787 20.9886 78.365C21.1246 78.5925 21.2546 78.8141 21.3826 79.0297L21.3656 78.98C21.2466 78.7793 21.1256 78.5756 21.0006 78.365C20.6416 77.7598 20.3036 77.1378 19.9896 76.5039Z" fill="#002F12"/>
<path d="M21.8635 86.4334C21.1669 86.4135 20.4503 86.3231 20.2944 86.2963C20.2944 86.2963 11.5565 80.8978 10.4741 70.0124C9.38972 59.126 11.8233 55.9662 12.8277 53.1561C13.2975 51.8416 13.8631 50.6353 14.2899 49.5621C13.7052 52.2917 12.6059 56.3338 12.6059 56.3338C9.14786 73.4643 20.0416 84.6975 21.8635 86.4334ZM23.2937 85.7269C22.1444 83.7982 18.3476 79.4699 15.5692 73.04C11.9013 64.5463 15.3893 52.2529 15.778 47.709C16.1958 49.1985 16.4606 51.6915 15.853 55.3124C14.5367 63.1592 16.3577 71.4104 19.6298 77.6843C22.3692 82.9278 23.1378 84.8913 23.2937 85.7269ZM14.4128 42.5589C14.3209 42.5659 14.3019 42.7079 14.3918 42.9852C14.9535 44.733 14.11 48.0915 12.7038 51.1669C11.2976 54.2442 7.99053 57.6713 9.11688 69.6964C10.0933 80.1357 18.8033 86.1482 21.089 87.5542L21.2259 87.5652C21.5197 87.5652 21.9065 87.4469 22.3692 87.3287C22.5971 87.271 22.84 87.2144 23.0998 87.1697C21.5967 85.5789 12.5429 75.4993 12.7158 63.6153C12.9037 50.6551 15.0605 53.3589 15.2453 46.1807C15.2453 46.1807 15.6221 48.4194 14.4958 52.5212C13.5543 55.9523 9.73452 74.8763 23.9333 87.0932H23.9713C24.3491 87.0932 24.7519 87.1389 25.1736 87.2631C25.3285 87.3068 25.4754 87.3525 25.6154 87.3962C25.5924 87.2522 25.5484 87.0763 25.4764 86.8537C25.3375 86.4334 25.0977 85.8501 24.6969 85.0294C24.419 84.457 24.0623 83.7704 23.6115 82.9417C23.5436 82.8185 23.4736 82.6913 23.4026 82.5602C23.3167 82.4061 23.2277 82.2452 23.1358 82.0812C22.695 81.2913 22.1773 80.389 21.5737 79.3596C21.5097 79.2513 21.4458 79.143 21.3808 79.0317C21.2529 78.8161 21.123 78.5935 20.987 78.367C20.6382 77.7797 20.3114 77.1776 20.0046 76.5635C17.643 71.8248 16.5146 66.318 16.3527 60.6681C16.2847 58.3261 16.3827 55.9622 16.6275 53.6162C17.3901 46.3218 14.9235 42.5847 14.4128 42.5589Z" fill="#07852F"/>
<path d="M15.2444 46.1798C15.0585 53.3579 12.9017 50.6541 12.7148 63.6143C12.5419 75.4983 21.5957 85.5779 23.0988 87.1687C23.3617 87.124 23.6405 87.0942 23.9334 87.0922C9.73454 74.8753 13.5533 55.9513 14.4958 52.5202C15.6212 48.4184 15.2444 46.1798 15.2444 46.1798Z" fill="#00400A"/>
<path d="M45.44 63.6143C45.44 63.6143 47.034 64.0793 48.0644 65.85C49.0968 67.6227 54.3468 70.0452 56.5046 67.6227C57.2621 66.7721 57.0682 66.944 56.4776 67.1179C55.3822 67.4388 52.9316 67.7588 52.5668 61.6578C52.5668 61.6578 51.6284 59.7907 48.5332 60.9096C45.44 62.0274 44.8763 63.2397 45.44 63.6143Z" fill="#069041"/>
<path d="M50.6739 61.2017C50.3261 61.2246 49.9683 61.2961 49.5975 61.4094C50.597 67.8095 54.7226 67.9019 54.7226 67.9019C54.5637 67.9188 54.4088 67.9237 54.2579 67.9237C50.1962 67.9237 49.1748 62.5809 49.0239 61.6171C48.2993 61.9171 47.5407 62.3653 46.7632 62.9307L46.9551 62.9168C47.5128 62.9168 48.4132 63.2635 49.6655 65.3601C50.9388 67.4925 53.2315 68.034 54.5597 68.034C55.6771 68.034 56.1098 67.6495 54.6676 67.5094C51.5175 67.2014 50.8978 61.9827 50.8978 61.9827C50.9088 61.631 50.8259 61.3766 50.6739 61.2017Z" fill="#037029"/>
<path d="M49.5975 61.4094C49.4086 61.467 49.2158 61.5386 49.0239 61.6181C49.1748 62.5819 50.1962 67.9247 54.2579 67.9247C54.4078 67.9247 54.5637 67.9188 54.7226 67.9029C54.7226 67.9029 50.5969 67.8095 49.5975 61.4094Z" fill="#003609"/>
<path d="M29.0754 88.2239C29.0754 88.2239 28.9355 85.5689 32.7353 79.8356C36.5311 74.1012 47.2199 58.2993 52.5668 61.6578C52.5668 61.6578 52.6378 59.6973 50.3851 59.278C48.1354 58.8567 47.7136 58.7881 46.7292 58.0191C45.7458 57.249 42.5076 55.0123 35.4047 62.9138C28.3038 70.8152 25.5604 85.1476 26.7557 88.0858C26.7557 88.0858 28.5837 89.5534 29.0754 88.2239Z" fill="#0EA34A"/>
<path d="M44.1787 57.1327C42.3467 57.1327 39.5114 58.2774 35.3438 62.9138C31.1232 67.6087 28.4437 74.5742 27.2115 80.0711L27.2295 80.2658C28.4388 74.7402 31.1332 67.6644 35.4037 62.9138C39.5463 58.3072 42.3717 57.1466 44.2046 57.1327H44.1787Z" fill="#86D1A4"/>
<path d="M27.2115 80.0711L27.2075 80.0909L27.2255 80.2887L27.2305 80.2658L27.2115 80.0711Z" fill="#438C61"/>
<path d="M27.2076 80.0909C27.1146 80.5043 27.0316 80.9087 26.9556 81.3042L26.9786 81.5089C27.0526 81.1134 27.1356 80.704 27.2256 80.2887L27.2076 80.0909Z" fill="#002F12"/>
<path d="M50.9208 61.1928H50.8908C51.4688 61.1967 52.0088 61.3448 52.5048 61.6578V61.6181C52.0168 61.3279 51.4848 61.1928 50.9208 61.1928Z" fill="#03762A"/>
<path d="M28.4877 86.5208C32.0047 66.4969 46.7012 59.9746 47.5867 59.3734C49.5256 59.7728 50.2831 60.694 50.2831 60.694C49.8574 60.4247 49.3937 60.3005 48.9079 60.3005C43.8329 60.3005 35.8165 73.7227 32.6643 78.4852C29.2103 83.7068 28.8505 86.0558 28.8505 86.0558C28.7556 86.3112 28.6276 86.4523 28.4877 86.5208ZM47.4088 58.9521C46.3974 59.3794 45.4369 59.8513 44.5235 60.3651C39.9261 63.0946 31.1132 70.4148 27.7162 87.5731C27.7162 87.5731 27.5742 87.7142 27.4653 87.7142C27.3953 87.7142 27.3414 87.6586 27.3414 87.4807C27.3414 87.4807 29.672 68.6998 44.5235 60.3651C46.2724 59.3257 47.4088 58.9521 47.4088 58.9521ZM27.2764 86.0518L27.2264 85.9982C26.255 83.5389 29.3662 70.8987 35.8295 63.7037C39.9621 59.1011 42.3577 58.0171 43.7809 58.0171C44.5834 58.0171 45.0781 58.3609 45.4 58.6143C45.8927 58.9998 45.8427 59.0654 46.0386 59.1121C31.8008 64.4718 27.8931 82.6307 27.2764 86.0518ZM44.2046 57.1327C42.3717 57.1476 39.5463 58.3082 35.4037 62.9138C31.1342 67.6644 28.4387 74.7402 27.2294 80.2658L27.2244 80.2877C27.1345 80.703 27.0515 81.1114 26.9776 81.5079C26.4549 84.3 26.3499 86.5745 26.6468 87.748C27.4423 88.0391 27.959 88.2577 28.3858 88.2577C28.5527 88.2577 28.7056 88.2239 28.8575 88.1504L29.0174 88.056C29.0554 87.3903 29.4222 84.7362 32.6703 79.8356C36.1093 74.6418 45.2001 61.1928 50.8558 61.1928H50.8888H50.9188C51.4835 61.1928 52.0141 61.3279 52.5019 61.6181C52.4979 61.3438 52.3869 59.6645 50.3211 59.279C48.0704 58.8577 47.6467 58.7891 46.6652 58.0201C46.2635 57.7031 45.4779 57.1407 44.2046 57.1327Z" fill="#07852F"/>
<path d="M44.5245 60.3651C29.673 68.6998 27.3424 87.4797 27.3424 87.4797C27.3424 87.6586 27.3964 87.7132 27.4663 87.7132C27.5753 87.7132 27.7172 87.5721 27.7172 87.5721C31.1142 70.4148 39.9271 63.0946 44.5245 60.3651ZM47.4088 58.9521C47.4088 58.9521 46.2715 59.3267 44.5235 60.3651C45.4379 59.8513 46.3984 59.3794 47.4088 58.9521Z" fill="#004009"/>
</svg>
