<svg width="59" height="107" viewBox="0 0 59 107" fill="none" xmlns="http://www.w3.org/2000/svg">
<path d="M53.2766 77.9619L50.1094 101.399C50.0607 104.568 43.0954 107.028 34.5455 106.898C25.9976 106.769 19.1058 104.099 19.1545 100.933L15.4816 75.9131L53.2766 77.9619Z" fill="#AA6B28"/>
<path d="M53.2766 77.9618L53.1792 77.9489L50.014 101.386L50.013 101.398C49.9981 102.865 48.3758 104.234 45.6944 105.218C43.0149 106.204 39.3053 106.807 35.1873 106.807C34.9757 106.807 34.7611 106.805 34.5485 106.802C30.2984 106.738 26.4586 106.042 23.6908 104.975C20.917 103.909 19.241 102.464 19.2509 100.967V100.937V100.919L15.5949 76.0175L53.2686 78.0593L53.2766 77.9618L53.2816 77.8634L15.4876 75.8166L15.4111 75.8465L15.3873 75.927L19.0592 100.947L19.1555 100.932L19.0582 100.929V100.965C19.0671 102.62 20.8295 104.076 23.6212 105.156C26.4189 106.234 30.2755 106.93 34.5455 106.997C34.7611 106.998 34.9757 107 35.1873 107C39.3261 107 43.0517 106.396 45.7609 105.401C48.4622 104.404 50.174 103.022 50.2077 101.401L50.1104 101.399L50.2067 101.411L53.3739 77.9738L53.3531 77.9002L53.2835 77.8644L53.2766 77.9618Z" fill="#2E1010"/>
<path d="M53.2766 77.9619L50.1094 101.399C50.0607 104.568 43.0954 107.028 34.5455 106.898C25.9976 106.769 19.1058 104.099 19.1545 100.933L15.4816 75.9131L53.2766 77.9619Z" fill="#F9A84C"/>
<path d="M53.2766 77.9618L53.1792 77.9489L50.014 101.386L50.013 101.398C49.9981 102.865 48.3758 104.234 45.6944 105.218C43.0149 106.204 39.3053 106.807 35.1873 106.807C34.9757 106.807 34.7611 106.805 34.5485 106.802C30.2984 106.738 26.4586 106.042 23.6908 104.975C20.917 103.909 19.241 102.464 19.2509 100.967V100.937V100.919L15.5949 76.0175L53.2686 78.0593L53.2766 77.9618L53.2816 77.8634L15.4876 75.8166L15.4111 75.8465L15.3873 75.927L19.0592 100.947L19.1555 100.932L19.0582 100.929V100.965C19.0671 102.62 20.8295 104.076 23.6212 105.156C26.4189 106.234 30.2755 106.93 34.5455 106.997C34.7611 106.998 34.9757 107 35.1873 107C39.3261 107 43.0517 106.396 45.7609 105.401C48.4622 104.404 50.174 103.022 50.2077 101.401L50.1104 101.399L50.2067 101.411L53.3739 77.9738L53.3531 77.9002L53.2835 77.8644L53.2766 77.9618Z" fill="#7C4317"/>
<path d="M19.697 82.5048L22.0098 98.9772C22.0098 98.9772 22.9983 104.15 29.3456 105.524C30.0699 105.68 30.7852 105.755 31.4866 105.755C36.9279 105.755 41.4502 101.265 41.8347 95.9986C42.2976 89.6465 42.2976 84.2512 42.2976 84.2512C42.2976 84.2512 38.4837 84.8698 33.5719 84.8698C29.1797 84.8718 23.9073 84.3785 19.697 82.5048Z" fill="#FAB76A"/>
<path d="M52.9676 79.5163C51.8887 80.475 50.3587 81.3273 48.493 82.0374C46.9322 82.6301 45.13 83.1254 43.156 83.4944C43.6776 83.5531 44.3422 83.5958 45.14 83.5958C46.1851 83.5958 47.4518 83.5173 48.9062 83.2806C48.9062 83.2806 49.0255 83.1742 49.1735 83.1742C49.408 83.1742 49.7139 83.4407 49.7328 84.8181C49.7646 87.0687 47.6495 100.696 47.6495 100.696C47.6495 100.696 47.2412 104.209 42.3523 105.524C40.715 105.964 38.0654 106.322 35.0939 106.322C29.2771 106.322 22.2323 104.956 19.1416 100.187L19.2499 100.918V100.936V100.966C19.24 102.463 20.916 103.908 23.6898 104.974C26.4576 106.041 30.2964 106.737 34.5475 106.801C34.7601 106.804 34.9747 106.806 35.1863 106.806C39.3043 106.806 43.0139 106.203 45.6933 105.217C48.3747 104.234 49.9971 102.864 50.012 101.397L50.013 101.385L52.9676 79.5163Z" fill="#DE9342"/>
<path d="M53.0799 79.4148C53.0431 79.4497 53.0074 79.4815 52.9686 79.5173L50.014 101.387L50.013 101.399C49.9981 102.866 48.3758 104.235 45.6944 105.219C43.015 106.205 39.3053 106.808 35.1873 106.808C34.9757 106.808 34.7611 106.806 34.5485 106.803C30.2984 106.739 26.4586 106.043 23.6908 104.976C20.917 103.91 19.241 102.465 19.2509 100.968V100.938V100.92L19.1426 100.189C19.0989 100.123 19.0572 100.053 19.0145 99.9846L19.1545 100.935C19.1059 104.102 25.9976 106.771 34.5455 106.9C34.7611 106.905 34.9747 106.906 35.1873 106.906C43.4411 106.906 50.0627 104.49 50.1094 101.401L53.0799 79.4148Z" fill="#6F3B14"/>
<path d="M14.6074 71.4994L18.2604 71.6396C21.8767 69.5869 27.8624 68.2423 34.6449 68.2423C42.2102 68.2423 48.792 69.9161 52.1897 72.3806C53.6004 71.937 55.033 71.4795 55.033 71.4795L54.6158 76.5834H54.6148C54.1071 80.7962 45.3615 84.1488 34.6449 84.1488C23.805 84.1488 14.9859 80.7177 14.666 76.4392L14.6074 76.3746V71.6993L14.6113 71.7142L14.6074 71.4994Z" fill="#F9A72B"/>
<path d="M14.6074 71.4994L14.6034 71.5969L18.2574 71.7361L18.3081 71.7242C21.9005 69.6844 27.8773 68.3408 34.6449 68.3408C42.1943 68.3388 48.7671 70.0156 52.1311 72.4591L52.2195 72.4741C53.6302 72.0295 55.0618 71.573 55.0618 71.573L55.033 71.4805L54.9357 71.4716L54.5174 76.5765L54.6158 76.5844V76.487H54.6148L54.5174 76.5715C54.278 78.6113 52.0019 80.4979 48.4234 81.8564C44.8479 83.2179 39.9918 84.0543 34.6439 84.0543C29.2344 84.0543 24.3286 83.197 20.7441 81.8097C17.1556 80.4243 14.9094 78.5029 14.7624 76.4313L14.7375 76.3736L14.7047 76.3378V71.7003H14.6074L14.514 71.7262L14.517 71.7401L14.6253 71.8117L14.7077 71.7122L14.7037 71.4984L14.6074 71.4994L14.51 71.5004L14.514 71.7142L14.6113 71.7132L14.7057 71.6874L14.7017 71.6725L14.5935 71.6028L14.511 71.6993V76.3746L14.5358 76.4402L14.5935 76.5039L14.666 76.4402L14.5686 76.4462C14.7415 78.656 17.0642 80.5914 20.6745 81.9907C24.2898 83.388 29.2135 84.2482 34.6449 84.2482C40.0136 84.2482 44.8896 83.4089 48.493 82.0384C52.0923 80.666 54.4429 78.7694 54.7122 76.5954L54.6148 76.5834V76.6809H54.6158L54.7122 76.5914L55.1304 71.4875L55.0946 71.402L55.0042 71.386C55.0042 71.386 53.5726 71.8425 52.1609 72.2871L52.1897 72.3806L52.2473 72.3C48.8188 69.8177 42.2251 68.1469 34.6449 68.1459C27.8504 68.1469 21.8518 69.4905 18.2137 71.5551L18.2604 71.6396L18.2654 71.5412L14.6113 71.401L14.5388 71.4298L14.511 71.4994H14.6074Z" fill="#7C4317"/>
<path d="M14.6074 71.4994C14.6074 75.9211 23.657 79.5024 34.8217 79.5024C45.9834 79.5024 55.034 75.9211 55.034 71.4994C55.034 67.0778 45.9844 63.4935 34.8217 63.4935C23.658 63.4945 14.6074 67.0778 14.6074 71.4994Z" fill="#F9A84C"/>
<path d="M14.6074 71.4994H14.51C14.517 73.7848 16.8238 75.7948 20.4917 77.2488C24.1646 78.7038 29.2274 79.5988 34.8207 79.5988C40.413 79.5988 45.4758 78.7038 49.1487 77.2488C52.8166 75.7948 55.1234 73.7848 55.1304 71.4994C55.1234 69.212 52.8176 67.2031 49.1487 65.7481C45.4758 64.2951 40.413 63.397 34.8207 63.397C29.2274 63.397 24.1646 64.2951 20.4917 65.7481C16.8238 67.2031 14.516 69.212 14.51 71.4994H14.6074H14.7047C14.6978 69.3652 16.9162 67.3721 20.5633 65.9281C24.2064 64.486 29.2493 63.5909 34.8217 63.5909C40.3911 63.5909 45.436 64.486 49.0791 65.9281C52.7262 67.3711 54.9436 69.3642 54.9367 71.4994C54.9436 73.6357 52.7252 75.6257 49.0791 77.0688C45.436 78.5098 40.3921 79.4059 34.8217 79.4059C29.2503 79.4059 24.2064 78.5108 20.5633 77.0688C16.9152 75.6267 14.6978 73.6367 14.7047 71.4994H14.6074Z" fill="#7C4317"/>
<path d="M15.2482 71.3443C15.2482 75.3403 23.9928 78.5765 34.777 78.5765C45.5632 78.5765 54.3038 75.3393 54.3038 71.3443C54.3038 67.3513 45.5632 64.1131 34.777 64.1131C23.9928 64.1141 15.2482 67.3522 15.2482 71.3443Z" fill="#C7883C"/>
<path d="M15.2482 71.3443H15.1508C15.1608 73.4208 17.3921 75.2359 20.9339 76.5496C24.4826 77.8654 29.3735 78.6759 34.777 78.6759C40.1796 78.6759 45.0705 77.8664 48.6192 76.5496C52.1619 75.2359 54.3923 73.4208 54.4022 71.3443C54.3913 69.2677 52.1619 67.4547 48.6192 66.1399C45.0715 64.8261 40.1805 64.0166 34.777 64.0166C29.3735 64.0166 24.4836 64.8261 20.9339 66.1399C17.3911 67.4547 15.1598 69.2677 15.1508 71.3443H15.2482H15.3455C15.3356 69.4278 17.4775 67.6257 21.0024 66.3229C24.5213 65.0191 29.3943 64.2105 34.777 64.2105C40.1597 64.2105 45.0337 65.0191 48.5506 66.3229C52.0765 67.6257 54.2174 69.4278 54.2065 71.3443C54.2174 73.2627 52.0755 75.0648 48.5506 76.3676C45.0337 77.6714 40.1597 78.48 34.777 78.48C29.3943 78.48 24.5213 77.6714 21.0024 76.3676C17.4775 75.0658 15.3356 73.2627 15.3455 71.3443H15.2482Z" fill="#7C4317"/>
<path d="M47.3316 70.2761C47.3316 70.2761 47.6943 69.3493 44.5449 68.2085C41.3956 67.0668 40.6744 69.0797 40.6744 69.0797C40.6744 69.0797 40.7757 68.2145 39.0828 67.1275C37.3909 66.0415 34.8844 67.7978 34.8844 67.7978C32.1384 66.5377 30.0779 69.3632 30.0779 69.3632C27.5594 66.853 23.2924 69.3194 23.2924 69.3194C18.9589 68.3846 17.8968 71.9211 17.8968 71.9211C16.8348 71.8823 16.045 72.2393 15.4598 72.7326C17.5918 75.8843 25.1512 78.3517 34.2048 78.5715C43.9916 78.8072 52.157 76.3358 53.6561 72.8898C52.5534 71.7719 50.5475 71.4298 50.5475 71.4298C49.571 70.0106 47.3316 70.2761 47.3316 70.2761Z" fill="#584521"/>
<path d="M47.425 70.3C47.7359 69.2339 45.1549 68.4034 44.5797 68.1807C43.3815 67.7132 41.4542 67.4905 40.6962 68.8281C40.5869 69.024 40.6197 69.0101 40.6713 68.9942C40.7101 68.9833 40.7617 68.9713 40.7707 69.0529C40.7369 68.7267 40.5889 68.493 40.418 68.2254C39.9362 67.4636 39.043 66.9683 38.1956 66.7615C37.4336 66.5755 36.5692 66.8967 35.8748 67.1732C35.5171 67.3204 35.1744 67.5213 34.8485 67.7292C34.9837 67.6456 33.6335 67.4447 33.7895 67.4517C32.8139 67.4149 32.0241 67.6576 31.1985 68.1847C30.8359 68.4154 30.5209 68.7326 30.2279 69.0449C29.8354 69.4586 29.7947 68.9395 29.29 68.7048C27.4561 67.8545 25.5257 68.2195 23.7295 69.0191C23.2656 69.2269 22.8562 69.1841 22.4201 69.1424C22.1548 69.1195 21.8777 69.0927 21.5717 69.1235C20.5901 69.2229 19.7745 69.5044 19.0025 70.127C18.5018 70.5297 18.1323 71.1175 17.8759 71.7043C17.7776 71.932 15.8164 72.3726 15.3734 72.6998L15.3763 72.7296C16.9659 74.9096 19.7357 75.9738 22.2045 76.7793C26.0711 78.0434 30.199 78.4889 34.2455 78.6152C38.4727 78.7485 42.7646 78.3437 46.8498 77.2279C49.3196 76.5546 52.5424 75.391 53.7525 72.9156L53.7306 72.8798C52.6825 71.9708 51.3155 71.8107 50.2951 71.0409C49.4119 70.3756 48.3728 70.126 47.272 70.2304C47.1716 70.2393 47.3425 70.3229 47.3912 70.3169C48.6529 70.1976 49.6097 71.2627 50.8058 71.5243C51.8539 71.75 54.0495 72.297 53.1067 73.6327C52.7719 74.11 52.304 74.485 51.8499 74.839C48.792 77.21 44.3124 77.8604 40.6008 78.2771C35.4844 78.8539 30.21 78.5506 25.178 77.4884C23.0063 77.03 20.8733 76.3437 18.8793 75.3641C18.1144 74.9862 17.3981 74.5178 16.7275 73.9917C16.4503 73.7639 16.192 73.5183 15.9535 73.2537C14.9809 72.2175 17.8441 71.9698 17.9385 71.9649L17.9942 71.9459C18.7313 69.6496 21.1236 68.9773 23.3103 69.3602C23.5179 69.394 23.9699 69.0608 24.1488 68.9803C26.0453 68.1339 28.2985 67.8883 30.0063 69.3691L30.1682 69.392C30.4295 69.0489 30.7425 68.7595 31.0683 68.478C32.3807 67.3512 33.103 67.7978 34.925 67.8386C35.2439 67.8465 35.7278 67.394 36.0278 67.2538C37.4693 66.5696 40.6316 67.0956 40.5829 69.0509L40.7707 69.1006C41.0538 68.3965 41.7562 68.0623 42.4616 67.9231C41.9539 68.0225 47.732 68.5546 47.2372 70.2473L47.425 70.3Z" fill="#403215"/>
<path d="M23.5517 69.9977C23.5517 69.9977 20.0616 69.389 19.389 71.2398C18.7164 73.0926 16.4592 72.0912 17.9097 73.6913C19.3582 75.2905 21.6034 75.3701 22.6158 74.5029C23.6291 73.6396 23.9898 72.4134 26.0016 72.5824C28.0124 72.7525 26.7626 71.1434 25.5724 71.1265C24.3832 71.1096 26.6006 69.6088 27.5613 69.4984C28.523 69.389 25.5088 68.3239 23.5517 69.9977Z" fill="#6C562B"/>
<path d="M32.2645 71.8296C32.2645 71.8296 31.4727 70.8729 29.1171 70.8152C26.7606 70.7585 28.1048 71.7123 27.9945 72.1638C27.8842 72.6173 29.4489 73.5173 29.4489 73.5173C29.4489 73.5173 30.1146 71.944 32.2645 71.8296Z" fill="#6C562B"/>
<path d="M31.2283 69.6546C30.9869 69.6386 32.6798 67.8038 34.4064 68.3746C35.1903 68.6332 35.9215 68.4422 36.6179 68.2503C37.4604 68.0196 38.2472 67.7858 39.0053 68.3517C40.3892 69.3801 39.7742 70.2304 39.7742 70.2304C39.7742 70.2304 35.4009 70.1856 34.9797 72.0951C34.9797 72.0951 33.6693 69.8117 31.2283 69.6546Z" fill="#6C562B"/>
<path d="M42.8093 71.8057C42.7646 71.8157 42.4129 71.754 41.8913 71.6904C40.4577 71.5183 37.7604 71.3472 36.8067 72.6918C36.8067 72.6918 36.2672 73.0847 37.3044 73.938C38.3426 74.7893 39.0967 75.0399 39.0698 76.0971C39.0698 76.0971 40.4657 73.036 45.9209 74.3676C51.3741 75.7003 51.994 73.3562 50.8853 72.6898C49.7765 72.0235 47.575 72.9504 47.575 72.9504C47.575 72.9504 46.7315 70.8937 42.8093 71.8057Z" fill="#6C562B"/>
<path d="M45.9924 70.0782C45.9924 70.0782 44.8032 68.6571 43.1769 68.9853C41.5466 69.3075 46.4454 71.5432 45.9924 70.0782Z" fill="#775E30"/>
<path d="M36.3079 75.4765C36.3079 75.4765 34.5246 74.0613 32.1949 74.7376C32.1949 74.7376 31.9962 77.03 31.4588 76.9952C30.9183 76.9594 30.0619 73.6436 27.2355 73.9151C24.408 74.1876 23.1582 75.3482 24.3246 76.304C25.4919 77.2557 31.0544 78.4183 34.4303 78.1359C37.8051 77.8524 37.1464 76.3666 36.3079 75.4765Z" fill="#6C562B"/>
<path d="M43.7144 75.4159C43.7144 75.4159 41.3747 75.1275 40.3166 76.5238C39.2586 77.9211 44.1256 77.6426 45.8622 76.8261C47.5998 76.0086 43.9776 75.4328 43.7144 75.4159Z" fill="#6C562B"/>
<path d="M35.9105 64.7327C27.1282 64.7327 20.6368 67.1394 20.6368 67.1394C19.384 67.8137 20.5434 68.7694 22.3038 68.7694C23.0837 68.7694 23.9818 68.5815 24.8422 68.0952C25.5555 67.6934 26.2102 67.5591 26.8132 67.5591C27.4203 67.5591 27.9726 67.6963 28.4644 67.8316C28.9572 67.9708 29.3923 68.1061 29.7659 68.1061C30.0987 68.1061 30.3848 67.9977 30.6212 67.6784C31.1001 67.033 32.0111 66.8609 32.8417 66.8609C33.7825 66.8609 34.622 67.0817 34.622 67.0817C34.622 67.0817 34.8147 66.2414 37.366 66.2414C37.4971 66.2414 37.6352 66.2443 37.7783 66.2503C40.72 66.3428 41.0955 67.755 41.0955 67.755C41.3329 66.857 43.4352 66.9077 43.758 66.1101C44.0819 65.3145 42.8599 65.2598 42.8599 65.2598C40.4428 64.8818 38.1041 64.7327 35.9105 64.7327Z" fill="#D09C5D"/>
<path d="M23.6013 70.6839C23.5298 70.5417 22.5929 69.9529 20.8593 70.6173C19.1247 71.2816 20.0943 72.1866 21.4216 71.9758C22.7489 71.7659 23.8537 71.1732 23.6013 70.6839Z" fill="#7C6232"/>
<path d="M30.3302 71.2229C30.3302 71.2229 29.136 70.9972 29.3436 71.4805C29.5523 71.9609 31.5253 71.4507 30.3302 71.2229Z" fill="#7C6232"/>
<path d="M39.3927 69.6267C39.3927 69.6267 38.9307 68.1767 37.4395 68.3935C35.9463 68.6083 39.3261 70.5039 39.3927 69.6267Z" fill="#7C6232"/>
<path d="M47.0137 72.9385C47.0137 72.9385 44.1733 71.4706 44.1733 72.8709C44.1714 74.2692 48.0787 73.9469 47.0137 72.9385Z" fill="#7C6232"/>
<path d="M39.3926 77.204C39.3281 77.208 39.2645 77.215 39.2019 77.222C39.2317 77.229 39.2655 77.233 39.3022 77.233C39.3191 77.233 39.339 77.233 39.3569 77.23C39.3648 77.228 39.3767 77.221 39.3926 77.204Z" fill="#463618"/>
<path d="M54.3038 74.5208C53.3361 78.9315 45.1638 82.5048 45.1638 82.5048C45.1638 82.5048 49.853 80.9593 51.68 79.8584C53.509 78.7555 54.0832 76.7157 54.0832 76.7157L54.3038 74.5208Z" fill="#DE9225"/>
<path d="M22.4837 71.216C22.4837 71.216 21.2101 70.0235 19.8202 71.3612C18.4313 72.7018 19.1416 73.8903 20.601 73.749C22.0615 73.6028 23.9481 72.3855 22.4837 71.216Z" fill="#584521"/>
<path d="M22.5681 71.1971C22.0505 70.7247 21.2974 70.5894 20.6368 70.7784C19.7228 71.0409 18.4402 72.4323 19.2161 73.3791C19.8341 74.1329 21.1961 73.749 21.9194 73.4248C22.3853 73.215 22.8473 72.8858 23.0539 72.4054C23.2586 71.9261 22.9109 71.4915 22.5681 71.1971L22.4002 71.2359C23.1811 71.9082 22.9277 72.6471 22.1419 73.1702C21.3888 73.6734 19.8768 74.118 19.2817 73.1931C18.7273 72.3299 19.9493 71.206 20.6139 70.8928C21.1991 70.6193 21.9353 70.8102 22.4002 71.2349L22.5681 71.1971Z" fill="#403215"/>
<path d="M22.7767 71.6973C22.7499 71.7978 22.6953 71.931 22.5939 72.0733C22.6893 72.0802 22.7817 72.1001 22.8731 72.1349C22.8791 71.9907 22.8483 71.8425 22.7767 71.6973Z" fill="#54401D"/>
<path d="M22.8086 71.5402C22.8086 71.5402 22.8056 71.6019 22.7768 71.6963C22.8483 71.8415 22.8801 71.9897 22.8741 72.1329C22.9208 72.1498 22.9655 72.1687 23.0093 72.1916C23.0311 71.9818 22.9735 71.761 22.8086 71.5402Z" fill="#3D2E12"/>
<path d="M19.1466 72.6222C19.1268 72.8172 19.1645 73.0121 19.2827 73.1931C19.5351 73.5839 19.9513 73.7291 20.4054 73.7291C20.7879 73.7291 21.1972 73.6257 21.5568 73.4785C21.4068 73.2398 21.4485 72.9604 21.5856 72.7147C21.5151 72.7346 21.4396 72.7515 21.3601 72.7684C21.3601 72.7684 20.7183 73.1145 20.1361 73.1145C19.9891 73.1145 19.846 73.0936 19.7169 73.0369C19.3831 72.8908 19.1963 72.7784 19.1466 72.6222Z" fill="#54401D"/>
<path d="M19.3145 71.9897C18.7244 72.9783 19.2927 73.761 20.3696 73.761C20.4431 73.761 20.5226 73.756 20.6011 73.749C20.919 73.7162 21.2568 73.6337 21.5777 73.5123C21.5687 73.5004 21.5618 73.4905 21.5558 73.4795C21.1962 73.6267 20.7859 73.7301 20.4044 73.7301C19.9504 73.7301 19.5341 73.5849 19.2817 73.1941C19.1645 73.0121 19.1268 72.8181 19.1456 72.6232C19.0989 72.482 19.1655 72.306 19.3344 72.0454L19.3145 71.9897Z" fill="#3D2E12"/>
<path d="M21.3402 71.038C20.5156 71.038 19.8669 71.8763 19.8669 71.8763C19.7397 72.0484 19.686 72.1727 19.686 72.2592C19.686 72.3806 19.7933 72.4243 19.9443 72.4243C20.2424 72.4243 20.7173 72.2463 20.9011 72.1279C21.1594 71.9589 22.0922 71.6695 22.0893 71.3831C22.0893 71.2896 21.9929 71.1981 21.7495 71.1116C21.6094 71.0608 21.4723 71.038 21.3402 71.038Z" fill="#654E21"/>
<path d="M23.1543 72.3686C23.1543 72.3686 22.5096 71.7411 21.8787 72.4621C21.2508 73.1832 21.6244 73.8137 22.3228 73.7282C23.0182 73.6456 23.8905 72.9842 23.1543 72.3686Z" fill="#584521"/>
<path d="M23.2407 72.3547C23.0112 72.1409 22.6347 72.0116 22.3267 72.0991C21.7833 72.2553 21.1603 73.0419 21.6223 73.569C22.2512 74.2831 24.1865 73.2379 23.2407 72.3547L23.0698 72.3835C23.9421 73.1991 22.1737 74.1528 21.7157 73.4288C21.4693 73.0399 21.8935 72.5198 22.1717 72.2921C22.4509 72.0643 22.8304 72.1608 23.0698 72.3835L23.2407 72.3547Z" fill="#403215"/>
<path d="M48.6103 73.4924C48.6103 73.4924 47.3346 72.301 45.9458 73.6396C44.5569 74.9783 45.2682 76.1687 46.7256 76.0245C48.1871 75.8823 50.0737 74.663 48.6103 73.4924Z" fill="#584521"/>
<path d="M48.6827 73.4895C48.1999 73.0499 47.5064 72.8788 46.8746 73.0061C45.9119 73.2001 44.5508 74.666 45.3496 75.6386C45.9775 76.4044 47.3107 76.0504 48.0489 75.7192C48.5158 75.5103 48.9698 75.1851 49.1774 74.7018C49.3821 74.2254 49.0235 73.7809 48.6827 73.4895C48.6459 73.4576 48.4592 73.4288 48.5357 73.4964C50.3994 75.1016 46.1314 76.9902 45.3615 75.4089C44.9542 74.5785 45.9933 73.6078 46.6153 73.2518C47.2213 72.9077 48.028 73.034 48.5367 73.4964C48.5724 73.5292 48.7592 73.5581 48.6827 73.4895Z" fill="#403215"/>
<path d="M47.7042 74.9952C47.6346 75.0151 47.5611 75.032 47.4846 75.0459C47.4846 75.0459 46.8448 75.393 46.2636 75.393C46.2169 75.393 46.1722 75.39 46.1285 75.386C45.9447 75.4497 45.7291 75.5103 45.4678 75.5809C45.7013 75.8783 46.0957 76.0056 46.5368 76.0056C46.9084 76.0056 47.3117 75.9161 47.6823 75.7639C47.5005 75.5322 47.5502 75.2488 47.7042 74.9952ZM48.9083 73.9569C48.8834 74.0563 48.8288 74.1976 48.7215 74.3497C48.8159 74.3587 48.9093 74.3815 48.9997 74.4154C49.0116 74.2662 48.9828 74.113 48.9083 73.9569Z" fill="#54401D"/>
<path d="M45.4678 75.5809C45.444 75.5879 45.4201 75.5949 45.3973 75.6018C45.6139 75.8733 46.0003 76.0374 46.4911 76.0374C46.5676 76.0374 46.6461 76.0325 46.7266 76.0255C47.0455 75.9947 47.3842 75.9111 47.7041 75.7898C47.7041 75.7898 47.7041 75.7888 47.7031 75.7868C47.6942 75.7798 47.6882 75.7709 47.6823 75.7639C47.3117 75.9161 46.9084 76.0056 46.5368 76.0056C46.0947 76.0056 45.7013 75.8783 45.4678 75.5809ZM48.9341 73.8187C48.9341 73.8187 48.9311 73.8724 48.9082 73.9579C48.9827 74.113 49.0115 74.2672 49.0006 74.4164C49.0453 74.4343 49.091 74.4522 49.1318 74.476C49.1576 74.2652 49.101 74.0424 48.9341 73.8187Z" fill="#3D2E12"/>
<path d="M47.4657 73.3184C47.3276 73.3184 47.1965 73.3393 47.0713 73.3801C47.418 73.5442 47.5958 73.7769 47.3912 74.1528C47.3733 74.1886 47.3544 74.2194 47.3365 74.2523C47.7061 74.0872 48.2158 73.8724 48.2148 73.6615C48.2138 73.569 48.1174 73.4765 47.873 73.39C47.7339 73.3383 47.5968 73.3184 47.4657 73.3184Z" fill="#654E21"/>
<path d="M49.2797 74.6481C49.2797 74.6481 48.635 74.0195 48.0041 74.7396C47.3752 75.4616 47.7498 76.0921 48.4462 76.0086C49.1426 75.9221 50.0149 75.2647 49.2797 74.6481Z" fill="#584521"/>
<path d="M49.3663 74.6421C49.1407 74.4313 48.7602 74.2841 48.4542 74.3726C47.9863 74.5069 47.2621 75.2866 47.7032 75.7878C48.3758 76.5566 50.318 75.5302 49.3663 74.6421L49.1944 74.655C50.0756 75.4795 48.2834 76.4203 47.8403 75.7172C47.6436 75.4049 47.9059 75.0001 48.0956 74.7644C48.3768 74.4164 48.8655 74.3467 49.1944 74.655L49.3663 74.6421Z" fill="#403215"/>
<path d="M15.4816 74.7923C15.4816 74.7923 15.4886 76.8569 15.6883 77.3263C15.8889 77.7928 16.4572 78.5774 16.4572 78.5774C21.5866 82.5018 29.6268 83.2816 35.2916 83.2816C38.9178 83.2816 41.5724 82.9613 41.8555 82.9444C42.5837 82.8997 42.2966 79.8117 42.2966 79.8117C39.3718 80.105 36.754 80.2323 34.4084 80.2323C19.0532 80.2323 15.4816 74.7923 15.4816 74.7923Z" fill="#FAB64F"/>
<path d="M29.4489 73.5183C29.4489 73.5183 27.8842 72.6183 27.9945 72.1647C28.1008 71.7262 26.8351 70.8142 28.9264 70.8142C28.987 70.8142 29.0516 70.8152 29.1171 70.8172C31.4727 70.8749 32.2645 71.8316 32.2645 71.8316C30.1146 71.944 29.4489 73.5183 29.4489 73.5183ZM29.4519 73.7142C29.7142 73.7142 29.9646 73.5273 29.9646 73.5273C30.6292 72.5964 33.2629 73.0111 33.0533 72.0464C32.8467 71.0827 29.0078 69.8674 29.0078 69.8674C29.1608 69.8565 29.3119 69.8505 29.4599 69.8505C33.2013 69.8505 35.1138 72.9564 35.1138 72.9564C35.8509 71.5064 38.0197 71.1255 39.0042 71.1255C39.5974 71.1255 39.7613 71.2647 38.9307 71.392C36.7202 71.7301 35.9264 73.57 35.9264 73.57C37.6342 74.0643 38.9168 76.1419 38.3515 76.1419C38.1787 76.1419 37.8309 75.9479 37.2676 75.4497C36.0546 74.3756 34.1839 74.0713 32.7642 74.0713C31.3813 74.0713 30.4245 74.3587 30.9114 74.5098C31.9009 74.8152 31.5502 76.6451 31.5502 76.6451C31.2611 74.8261 28.4277 73.6675 28.4277 73.6675C27.8067 73.5292 27.2593 73.4696 26.7765 73.4696C25.6578 73.4696 24.8849 73.7848 24.3574 74.1667C24.0027 74.5168 23.654 74.9574 23.3182 75.5183C23.3182 75.5183 23.5417 74.7595 24.3574 74.1667C25.2555 73.2846 26.1854 73.0141 26.9901 73.0141C28.1803 73.0141 29.1032 73.6058 29.2642 73.6764C29.3248 73.7033 29.3893 73.7142 29.4519 73.7142ZM31.883 68.9286C31.428 68.9306 30.9451 68.9803 30.4514 69.0618C30.351 69.1673 30.2567 69.2776 30.1672 69.396L30.0053 69.3731C29.9318 69.3095 29.8563 69.2478 29.7788 69.1891C28.3114 69.5024 26.8023 70.0385 25.6489 70.4353C25.2028 70.7933 25.023 71.1195 25.5734 71.1275C26.704 71.1444 27.8882 72.5964 26.2807 72.5964C26.1963 72.5964 26.1019 72.5904 26.0026 72.5834C25.8744 72.5725 25.7542 72.5665 25.6399 72.5665C23.9421 72.5665 23.5666 73.6953 22.6168 74.5029C22.4409 74.654 22.2264 74.7764 21.9869 74.8679C22.1737 75.03 22.4181 75.1911 22.7142 75.3492C23.3142 75.6725 23.7206 75.8893 24.1001 76.0822C23.3569 75.1772 24.6226 74.1657 27.2355 73.9141C27.3467 73.9032 27.456 73.8972 27.5594 73.8972C30.1285 73.8972 30.9402 76.9594 31.4588 76.9932C31.4617 76.9932 31.4657 76.9932 31.4707 76.9932C32.0002 76.9932 32.1959 74.7356 32.1959 74.7356C32.644 74.6053 33.0732 74.5526 33.4725 74.5526C35.1475 74.5526 36.3089 75.4745 36.3089 75.4745C37.0024 76.2105 37.5736 77.3572 35.8331 77.8902C36.2404 77.8107 36.6636 77.7072 37.1037 77.6038C37.7624 77.4497 38.4598 77.2945 39.201 77.2199C38.5333 77.0519 39.3549 75.0688 42.2708 74.5049C42.7665 74.4074 43.2384 74.3676 43.6786 74.3676C44.2329 74.3676 44.7386 74.4313 45.1887 74.5287C45.2234 74.4293 45.2691 74.3308 45.3238 74.2324C44.5975 74.0902 43.9488 74.0295 43.3726 74.0295C40.0126 74.0295 39.0708 76.0951 39.0708 76.0951C39.0966 75.0379 38.3436 74.7883 37.3054 73.936C36.2682 73.0827 36.8077 72.6899 36.8077 72.6899C37.4405 71.7988 38.8393 71.574 40.1299 71.574C40.7836 71.574 41.4094 71.6317 41.8923 71.6884C42.3751 71.7471 42.7139 71.8037 42.7954 71.8037C42.8023 71.8037 42.8073 71.8037 42.8073 71.8037C43.0874 71.7391 43.3477 71.6904 43.5941 71.6546C42.3294 71.2458 40.3604 70.8908 40.0971 70.2155C40.0504 70.0942 39.9808 69.9977 39.8944 69.9181C39.8576 70.113 39.7752 70.2284 39.7752 70.2284C39.7752 70.2284 39.7653 70.2284 39.7504 70.2284C39.3927 70.2284 35.381 70.2692 34.9807 72.0932C34.9807 72.0932 33.6703 69.8107 31.2293 69.6536C31.12 69.6476 31.3942 69.2826 31.883 68.9286Z" fill="#3C2C13"/>
<path d="M30.1563 69.1125C30.0619 69.1315 29.9666 69.1496 29.8692 69.1696C29.8712 69.1716 29.8732 69.1736 29.8732 69.1736C29.905 69.1926 29.9368 69.2005 29.9715 69.2005C30.0252 69.2005 30.0838 69.1735 30.1563 69.1125Z" fill="#875723"/>
<path d="M26.4278 77.1861C26.4616 77.201 26.4964 77.2159 26.5321 77.2338C27.2037 77.5421 28.0561 77.6874 28.9592 77.758C28.0422 77.5959 27.1719 77.398 26.4278 77.1861ZM29.8682 69.1692L29.8672 69.1712C29.8702 69.1712 29.8712 69.1732 29.8712 69.1732C29.8712 69.1732 29.8702 69.1712 29.8682 69.1692Z" fill="#3C2C13"/>
<path d="M30.4504 69.0608C30.353 69.0767 30.2557 69.0937 30.1553 69.1126C30.0838 69.1732 30.0242 69.2001 29.9695 69.2001C29.9358 69.2001 29.904 69.1911 29.8732 69.1732C29.8732 69.1732 29.8692 69.1712 29.8662 69.1712C29.8364 69.1772 29.8046 69.1832 29.7768 69.1891C29.8533 69.2478 29.9288 69.3085 30.0033 69.3731L30.1653 69.396C30.2557 69.2767 30.351 69.1673 30.4504 69.0608Z" fill="#2B200C"/>
<path d="M25.6479 70.4343C25.323 70.5467 25.025 70.6481 24.7647 70.7297C22.892 71.3204 24.7856 71.7063 23.3738 72.5089C23.8199 73.1434 22.9367 73.8047 22.2204 73.8047C22.0177 73.8047 21.829 73.752 21.6879 73.6337C21.4067 74.0504 21.521 74.4621 21.9859 74.8679C22.2254 74.7754 22.44 74.654 22.6158 74.5029C23.5656 73.6943 23.9411 72.5665 25.639 72.5665C25.7532 72.5665 25.8734 72.5725 26.0016 72.5835C26.1009 72.5904 26.1953 72.5964 26.2798 72.5964C27.8872 72.5964 26.703 71.1444 25.5724 71.1275C25.023 71.1195 25.2018 70.7933 25.6479 70.4343Z" fill="#493719"/>
<path d="M29.8761 71.6804C29.6278 71.6804 29.4062 71.6247 29.3436 71.4805C29.2373 71.2299 29.5026 71.1692 29.7847 71.1692C30.051 71.1692 30.3302 71.2229 30.3302 71.2229C31.1657 71.3821 30.4523 71.6804 29.8761 71.6804ZM28.9254 70.8132C26.8341 70.8132 28.1008 71.7262 27.9935 72.1638C27.8832 72.6173 29.4479 73.5173 29.4479 73.5173C29.4479 73.5173 30.1136 71.943 32.2635 71.8296C32.2635 71.8296 31.4717 70.8729 29.1161 70.8152C29.0506 70.8142 28.986 70.8132 28.9254 70.8132Z" fill="#493719"/>
<path d="M31.9068 68.9286C31.8989 68.9286 31.8899 68.9286 31.883 68.9286C31.3942 69.2826 31.12 69.6486 31.2283 69.6546C33.6692 69.8117 34.9796 72.0941 34.9796 72.0941C35.38 70.2702 39.3907 70.2294 39.7493 70.2294C39.7652 70.2294 39.7742 70.2294 39.7742 70.2294C39.7742 70.2294 39.8566 70.115 39.8934 69.9191C39.7573 69.7938 39.5824 69.7142 39.3857 69.6655C39.3569 69.8018 39.2367 69.8555 39.0628 69.8555C38.8473 69.8555 38.5492 69.7689 38.2512 69.6347C37.8727 69.6824 37.5885 69.758 37.5885 69.758C36.5046 69.4149 35.6502 69.9291 33.3126 69.1305C32.8963 68.9882 32.4214 68.9286 31.9068 68.9286Z" fill="#493719"/>
<path d="M40.1289 71.576C38.8383 71.576 37.4395 71.8008 36.8067 72.6918C36.8067 72.6918 36.2672 73.0847 37.3044 73.938C38.3426 74.7893 39.0967 75.0399 39.0698 76.0971C39.0698 76.0971 40.0116 74.0315 43.3716 74.0315C43.9478 74.0315 44.5955 74.0931 45.3228 74.2344C45.4072 74.0842 45.5125 73.938 45.6307 73.8027C44.8936 73.755 44.1723 73.4716 44.1723 72.8699C44.1723 72.5039 44.3661 72.3338 44.6532 72.2821C44.5985 72.0385 44.1693 71.8415 43.5921 71.6556C43.3457 71.6914 43.0855 71.7401 42.8083 71.8047C42.8083 71.8047 42.8003 71.8047 42.7934 71.8047C42.7119 71.8047 42.3731 71.7471 41.8903 71.6894C41.4085 71.6327 40.7826 71.576 40.1289 71.576Z" fill="#493719"/>
<path d="M27.5594 73.8992C27.4551 73.8992 27.3468 73.9052 27.2355 73.9161C24.6227 74.1677 23.357 75.1792 24.1001 76.0842C24.7131 76.3955 25.2545 76.6491 26.4278 77.1871C27.1719 77.3989 28.0422 77.5969 28.9602 77.759C30.7385 77.9002 32.7116 77.749 33.8839 77.9768C34.1054 78.0195 34.3309 78.0374 34.5614 78.0374C34.9707 78.0374 35.393 77.9797 35.8331 77.8922C37.5737 77.3602 37.0024 76.2135 36.309 75.4765C36.309 75.4765 35.1476 74.5546 33.4726 74.5546C33.0732 74.5546 32.644 74.6073 32.1959 74.7376C32.1959 74.7376 32.0012 76.9952 31.4707 76.9952C31.4657 76.9952 31.4618 76.9952 31.4588 76.9952C30.9412 76.9614 30.1285 73.8992 27.5594 73.8992Z" fill="#493719"/>
<path d="M29.7858 71.1702C29.5036 71.1702 29.2374 71.2299 29.3447 71.4815C29.4073 71.6257 29.6288 71.6814 29.8772 71.6814C30.4534 71.6814 31.1667 71.3831 30.3312 71.2239C30.3312 71.2239 30.051 71.1702 29.7858 71.1702Z" fill="#543F1C"/>
<path d="M38.7847 69.6019C38.5999 69.6019 38.4171 69.6168 38.2512 69.6357C38.5503 69.7699 38.8483 69.8565 39.0629 69.8565C39.2367 69.8565 39.357 69.8018 39.3858 69.6665C39.197 69.6198 38.9894 69.6019 38.7847 69.6019Z" fill="#543F1C"/>
<path d="M44.6542 72.2831C44.367 72.3348 44.1733 72.5049 44.1733 72.8709C44.1733 73.4716 44.8946 73.756 45.6318 73.8037C45.8652 73.5402 46.1504 73.3164 46.4325 73.1702C45.591 72.9614 44.5628 72.853 44.6562 72.3846C44.6621 72.3497 44.6621 72.3159 44.6542 72.2831Z" fill="#543F1C"/>
<path d="M24.3574 74.1667C23.5418 74.7605 23.3182 75.5183 23.3182 75.5183C23.654 74.9574 24.0027 74.5168 24.3574 74.1667ZM29.4589 69.8505C29.3109 69.8505 29.1599 69.8565 29.0069 69.8674C29.0069 69.8674 32.8457 71.0837 33.0524 72.0464C33.262 73.0121 30.6283 72.5974 29.9636 73.5273C29.9636 73.5273 29.7133 73.7142 29.451 73.7142C29.3884 73.7142 29.3238 73.7033 29.2632 73.6764C29.1023 73.6058 28.1793 73.0141 26.9891 73.0141C26.1834 73.0141 25.2555 73.2846 24.3574 74.1667C24.884 73.7848 25.6569 73.4696 26.7755 73.4696C27.2584 73.4696 27.8058 73.5292 28.4267 73.6675C28.4267 73.6675 31.2601 74.8261 31.5492 76.6451C31.5492 76.6451 31.9009 74.8142 30.9104 74.5098C30.4246 74.3597 31.3813 74.0713 32.7633 74.0713C34.1839 74.0713 36.0546 74.3756 37.2667 75.4497C37.829 75.9479 38.1777 76.1419 38.3506 76.1419C38.9149 76.1419 37.6323 74.0643 35.9255 73.57C35.9255 73.57 36.7203 71.7302 38.9298 71.392C39.7603 71.2647 39.5964 71.1255 39.0033 71.1255C38.0187 71.1255 35.85 71.5064 35.1128 72.9564C35.1138 72.9564 33.2004 69.8505 29.4589 69.8505Z" fill="#2F230E"/>
<path d="M44.2309 75.0469C40.71 75.0469 39.6291 76.9584 39.3927 77.204C39.6212 77.1861 39.8567 77.1762 40.0931 77.1762C40.1517 77.1762 40.2094 77.1762 40.269 77.1772C40.2888 77.1782 40.3087 77.1782 40.3295 77.1782C40.1308 77.024 40.102 76.8092 40.3166 76.5248C41.0647 75.5362 42.4536 75.392 43.2027 75.392C43.5117 75.392 43.7143 75.4159 43.7143 75.4159C43.8197 75.4238 44.4644 75.5203 45.0873 75.6854C45.1738 75.6625 45.2562 75.6396 45.3337 75.6187C45.2006 75.4517 45.133 75.2707 45.1132 75.0837C44.8032 75.0588 44.5101 75.0469 44.2309 75.0469Z" fill="#3C2C13"/>
<path d="M43.2027 75.392C42.4537 75.392 41.0648 75.5362 40.3167 76.5248C40.1021 76.8092 40.1299 77.024 40.3296 77.1782C40.3862 77.1792 40.4399 77.1792 40.4935 77.1792C42.8362 77.1792 42.9435 76.305 44.6552 75.8087C44.8092 75.7629 44.9533 75.7222 45.0874 75.6854C44.4645 75.5203 43.8207 75.4238 43.7144 75.4159C43.7144 75.4159 43.5127 75.392 43.2027 75.392Z" fill="#493719"/>
<path d="M43.6786 74.3686C43.2385 74.3686 42.7666 74.4084 42.2708 74.5059C39.355 75.0698 38.5334 77.0538 39.201 77.2209C39.2646 77.214 39.3281 77.207 39.3917 77.203C39.6282 76.9574 40.7091 75.0459 44.23 75.0459C44.5092 75.0459 44.8022 75.0578 45.1132 75.0817C45.0943 74.8997 45.1241 74.7137 45.1877 74.5287C44.7386 74.4333 44.232 74.3686 43.6786 74.3686Z" fill="#2F230E"/>
<path d="M23.2327 72.5854C23.1761 72.6123 23.1185 72.6411 23.0549 72.67C22.4399 72.9504 22.0187 73.2319 21.7803 73.5123C21.8975 73.6337 22.0614 73.6874 22.2413 73.6874C22.8205 73.6874 23.5447 73.1384 23.2327 72.5854Z" fill="#3C2C13"/>
<path d="M23.3738 72.5089C23.3301 72.5317 23.2824 72.5586 23.2317 72.5854C23.5437 73.1384 22.8194 73.6864 22.2402 73.6864C22.0604 73.6864 21.8965 73.6327 21.7793 73.5113C21.7445 73.5521 21.7157 73.5909 21.6869 73.6327C21.829 73.751 22.0167 73.8037 22.2194 73.8037C22.9367 73.8047 23.8209 73.1434 23.3738 72.5089Z" fill="#2B200C"/>
<path d="M46.6571 73.2289C46.6431 73.2369 46.6302 73.2448 46.6143 73.2518C46.1136 73.5382 45.3466 74.2204 45.2731 74.9086C45.3278 75.0578 45.5125 75.1722 45.8404 75.3144C45.9298 75.3522 46.0272 75.3751 46.1275 75.385C46.6699 75.1921 46.9412 74.9534 47.3366 74.2503C47.2064 74.3099 47.0922 74.3617 47.0256 74.4044C46.8418 74.5248 46.3669 74.7018 46.0679 74.7018C45.9149 74.7018 45.8096 74.656 45.8086 74.5347C45.8086 74.4492 45.8613 74.3249 45.9884 74.1518C45.9884 74.1518 46.4405 73.571 47.0703 73.3781C46.9501 73.3214 46.8081 73.2727 46.6571 73.2289Z" fill="#3C2C13"/>
<path d="M46.4314 73.1692C46.1493 73.3144 45.8651 73.5392 45.6307 73.8027C45.5125 73.938 45.4072 74.0832 45.3227 74.2344C45.2681 74.3328 45.2224 74.4313 45.1876 74.5307C45.124 74.7157 45.0942 74.9017 45.1131 75.0837C45.133 75.2706 45.2005 75.4517 45.3337 75.6187C45.3555 75.6138 45.3754 75.6068 45.3972 75.6018C45.1409 75.2786 45.1201 74.8032 45.441 74.2672L45.4628 74.3229C45.289 74.5914 45.2234 74.7664 45.274 74.9096C45.3466 74.2214 46.1145 73.5392 46.6152 73.2528C46.6311 73.2448 46.6441 73.2368 46.658 73.2299C46.5854 73.209 46.5099 73.1891 46.4314 73.1692Z" fill="#2B200C"/>
<path d="M45.2731 74.9086C45.2562 75.0767 45.28 75.2458 45.3605 75.4089C45.3893 75.4716 45.4261 75.5282 45.4668 75.5809C45.7281 75.5103 45.9427 75.4497 46.1274 75.386C46.0261 75.3751 45.9297 75.3532 45.8403 75.3154C45.5135 75.1722 45.3277 75.0588 45.2731 74.9086Z" fill="#392911"/>
<path d="M45.44 74.2672C45.1191 74.8032 45.14 75.2786 45.3963 75.6018C45.4191 75.5949 45.443 75.5879 45.4668 75.5809C45.4261 75.5282 45.3893 75.4725 45.3605 75.4089C45.2801 75.2458 45.2572 75.0767 45.2731 74.9086C45.2214 74.7664 45.288 74.5904 45.4619 74.3219L45.44 74.2672Z" fill="#291D0A"/>
<path d="M47.0713 73.3791C46.4414 73.572 45.9894 74.1528 45.9894 74.1528C45.8622 74.3259 45.8096 74.4502 45.8096 74.5357C45.8106 74.657 45.9159 74.7028 46.0689 74.7028C46.3679 74.7028 46.8418 74.5258 47.0266 74.4054C47.0931 74.3627 47.2074 74.3099 47.3375 74.2513C47.3554 74.2194 47.3733 74.1886 47.3922 74.1518C47.5958 73.7769 47.418 73.5432 47.0713 73.3791Z" fill="#453213"/>
<path d="M24.5511 69.0201C24.5511 69.0201 16.2546 72.0752 7.76727 61.0947C-0.721017 50.1171 3.09295 43.9123 0.232723 42.2892C-2.6285 40.6671 21.7853 48.687 24.5511 69.0201Z" fill="#03A24B"/>
<path d="M23.0778 69.3304C22.7102 69.3781 22.281 69.4089 21.7991 69.4099H21.8568C22.3217 69.4099 22.737 69.3841 23.0976 69.3443L23.0778 69.3304ZM20.4858 57.769C20.5066 57.8665 20.5275 57.958 20.5483 58.0524C20.9229 58.6531 21.2786 59.2717 21.6134 59.9082L21.7743 59.9977C21.3729 59.227 20.9418 58.4861 20.4858 57.769ZM0.175076 42.0853L0.130371 42.0923C1.34341 42.2673 10.8331 46.0823 17.6832 54.141L17.6623 53.9789C10.6612 45.8427 1.00165 42.0853 0.175076 42.0853Z" fill="#81D0A5"/>
<path d="M20.5483 58.0524C20.6686 58.5905 20.7848 59.0857 20.8911 59.5253C21.1295 59.6496 21.372 59.7769 21.6144 59.9092C21.2786 59.2717 20.9229 58.6521 20.5483 58.0524ZM10.9543 56.497C11.7104 57.7412 12.837 59.1882 14.9193 60.8252C15.5263 61.3016 16.1055 61.765 16.6529 62.2046C14.812 59.4776 12.9274 57.4408 10.9543 56.497ZM8.22921 52.143C8.11197 52.143 8.19443 52.2802 8.54314 52.5855C9.50582 53.4289 9.87441 54.5835 10.6861 56.0355C11.8306 56.2195 13.3029 56.5358 15.0157 57.0828C12.7326 54.5875 8.718 52.143 8.22921 52.143ZM0.130367 42.0923C0.0846673 42.1122 0.151224 42.1788 0.349919 42.2892C3.21015 43.9123 -0.604821 50.1171 7.88347 61.0947C13.3039 68.1061 18.6458 69.394 21.7991 69.4089C22.281 69.4079 22.7102 69.3771 23.0777 69.3294C22.4608 68.9564 21.8558 68.5447 21.2786 68.0872C18.768 67.8853 13.5344 66.9047 10.8609 62.3329C7.26752 56.1807 4.83648 54.5577 4.25629 49.7999C3.84399 46.4225 2.90714 44.8561 3.35222 44.8561C3.53502 44.8561 3.94631 45.1186 4.71924 45.6219C6.6744 46.8998 14.3043 53.229 18.4154 57.8446C18.1034 56.7029 17.863 55.4657 17.6841 54.14C10.8331 46.0823 1.34341 42.2673 0.130367 42.0923Z" fill="#018430"/>
<path d="M16.35 23.4837C16.35 23.4837 18.0667 25.9661 17.4945 37.2321C16.9232 48.497 17.0186 57.2777 20.3557 62.3379C20.3557 62.3379 21.8807 63.1971 21.5002 61.8605C21.1177 60.5258 17.9713 49.0669 18.638 38.5667C19.3056 28.0665 18.9251 24.6284 18.4482 23.8656C17.9723 23.1018 15.9695 21.9571 16.35 23.4837Z" fill="#20461F"/>
<path d="M18.9945 30.0884C18.9737 32.2037 18.8664 34.9715 18.6389 38.5667C18.5832 39.431 18.5544 40.3031 18.5475 41.1733C18.5564 40.336 18.5852 39.4986 18.6379 38.6691C18.8704 35.0143 18.9757 32.2167 18.9945 30.0884Z" fill="#8FA28F"/>
<path d="M18.1084 25.3713C18.3558 27.2619 18.4144 31.1595 17.9355 38.6691C17.4408 46.4682 19.0492 54.7954 20.0665 59.1116C20.3288 59.2389 20.5941 59.3732 20.8633 59.5114C19.9602 55.7601 18.476 48.4473 18.5485 41.1733C18.5554 40.3031 18.5843 39.431 18.6399 38.5667C18.8684 34.9715 18.9747 32.2037 18.9956 30.0884C19.0125 28.1212 18.9548 26.7249 18.8555 25.7572C18.5644 25.6349 18.318 25.5026 18.1084 25.3713Z" fill="#122C11"/>
<path d="M49.3463 18.3301C49.3801 18.0268 49.9176 15.5623 52.4937 13.8418C55.0688 12.1223 55.1651 11.264 55.1651 10.7876C55.1651 10.3102 57.7382 17.7563 52.3029 21.0989C46.8666 24.4385 49.1566 20.0476 49.3463 18.3301Z" fill="#813D8E"/>
<path d="M17.1129 24.4385C17.1129 24.4385 17.9723 25.9661 20.9299 26.2525C23.8845 26.5389 24.9346 27.3982 25.4114 27.7811C25.6121 27.9422 25.4214 26.8403 24.6008 25.7373C23.4781 24.2346 21.1842 22.7319 17.1129 24.4385Z" fill="#6ABD45"/>
<path d="M21.1156 24.0198C20.592 24.2097 20.0317 24.3171 19.4366 24.3171C19.1416 24.3171 18.8376 24.2903 18.5256 24.2366C18.4402 24.2843 18.3498 24.3321 18.2574 24.3788C18.1948 24.5548 18.0915 24.7498 17.9534 24.9517C18.5455 25.3425 19.4645 25.7413 20.8315 25.8726C23.6311 26.1421 24.713 26.9248 25.2246 27.3296C24.8193 26.2485 23.5983 24.346 21.1156 24.0198Z" fill="#4BA42C"/>
<path d="M16.8258 23.8656C16.8258 23.8656 11.4868 24.4385 9.86548 27.3027C9.86548 27.3027 13.2979 26.158 15.0157 26.7299C15.8214 26.9984 17.0503 26.1093 17.7597 25.2172C18.5574 24.2137 18.6955 23.2092 16.8258 23.8656Z" fill="#6ABD45"/>
<path d="M15.7707 24.3082C14.4017 24.5747 11.8972 25.2411 10.4417 26.7219C11.2285 26.5041 12.5717 26.1888 13.7252 26.1888C14.1653 26.1888 14.5776 26.2346 14.9203 26.348C15.0216 26.3828 15.1279 26.3977 15.2382 26.3977C16.1145 26.3977 17.2788 25.4241 17.857 24.5658L17.8401 24.5688L17.7805 24.5916L17.7636 24.5737C17.6762 24.5807 17.5699 24.5867 17.4497 24.5867H17.4398L17.3305 24.5847C16.9341 24.5757 16.3976 24.5111 15.7707 24.3082Z" fill="#4BA42C"/>
<path d="M39.7146 42.4812C39.8179 42.153 38.5701 33.4131 33.4199 32.0754C28.2697 30.7378 35.9006 33.4131 36.1858 38.4702C36.4719 43.5314 39.3331 43.7223 39.7146 42.4812Z" fill="#03A24B"/>
<path d="M39.7791 41.8526L39.6758 41.9262C39.7175 42.2385 39.7295 42.4384 39.7146 42.4812C39.5993 42.8541 39.2605 43.0988 38.8343 43.1186L38.8919 43.1196C39.2486 43.1196 39.5476 42.9675 39.7215 42.7149C39.7592 42.6194 39.798 42.5269 39.8348 42.4344C39.8387 42.3399 39.8179 42.1321 39.7791 41.8526ZM31.9157 31.7363L31.875 31.7373C32.1313 31.7582 32.6082 31.8656 33.3771 32.0635L33.3305 32.0237C32.5724 31.8288 32.1283 31.7363 31.9157 31.7363Z" fill="#81D0A5"/>
<path d="M31.875 31.7373C30.9471 31.8039 36.0685 34.342 36.3009 38.4702C36.4927 41.8745 37.8498 43.0739 38.8343 43.1186C39.2605 43.0988 39.5983 42.8541 39.7145 42.4811C39.7294 42.4384 39.7175 42.2385 39.6758 41.9262C39.5208 42.0197 39.3291 42.0734 39.1204 42.0734C38.1329 42.0734 36.7301 40.8929 36.5324 37.427C36.3993 35.063 34.6637 33.2211 33.3761 32.0635C32.6082 31.8656 32.1313 31.7592 31.875 31.7373Z" fill="#018430"/>
<path d="M40.0961 42.6721C40.0961 42.6721 43.8156 37.2301 47.8194 36.2773C51.8251 35.3206 53.6362 33.1256 53.7326 32.8382C53.7802 32.696 52.6348 35.2251 50.3468 37.7532C48.0598 40.2852 44.6263 42.8143 40.0961 42.6721Z" fill="#6ABD45"/>
<path d="M53.8111 32.9039C53.7614 32.9904 53.6491 33.1376 53.4713 33.3295C53.0173 34.1699 51.9701 35.962 50.3468 37.7542C48.2764 40.0446 45.2681 42.334 41.3588 42.6423L41.3538 42.6512C49.1497 42.1211 53.3908 33.7194 53.8111 32.9039Z" fill="#B4DEA2"/>
<path d="M53.4713 33.3295C53.3133 33.4976 53.1037 33.7025 52.8394 33.9243C51.0482 36.6562 47.3385 41.0928 41.8128 41.5821C41.6648 41.9352 41.5128 42.2862 41.3588 42.6423C45.2681 42.334 48.2764 40.0446 50.3468 37.7542C51.9711 35.962 53.0172 34.1689 53.4713 33.3295Z" fill="#4BA42C"/>
<path d="M46.2 25.3942C46.2 25.3942 46.2 14.9885 33.8978 16.8005C33.8978 16.8005 36.6626 16.3241 37.7117 19.4738C38.7599 22.6264 41.9082 26.6364 46.2 25.3942Z" fill="#944290"/>
<path d="M45.9139 25.4897C45.9139 25.4897 48.2029 19.1884 52.6844 19.5703C57.167 19.9522 58.9781 19.2838 58.9781 19.2838C58.9781 19.2838 57.2634 20.0486 56.7855 21.2898C56.3087 22.529 53.8279 26.2515 45.9139 25.4897Z" fill="#944290"/>
<path d="M15.873 14.7011C15.873 14.7011 13.0108 10.0238 15.5869 5.63101C18.163 1.24018 18.4461 0.668321 18.3527 0C18.3527 0 18.925 3.53057 20.452 6.39679C21.9779 9.26103 21.9789 13.9373 20.3556 15.3704C18.7332 16.8005 17.7805 19.6647 15.873 14.7011Z" fill="#702776"/>
<path d="M15.587 5.63101C14.7922 6.98754 14.515 8.36993 14.513 9.63298C14.515 8.36894 14.7922 6.98754 15.587 5.63101Z" fill="#B793BA"/>
<path d="M20.7659 7.07306C20.8007 8.51413 20.5255 9.83586 19.9254 10.4326C19.682 10.6752 19.4595 10.9716 19.2469 11.2461C19.6234 12.0119 19.995 12.8652 20.3209 13.7632C20.5046 13.5315 21.061 12.7976 21.5696 11.8488C21.6432 10.2894 21.372 8.52408 20.7659 7.07306ZM15.9833 4.95671C15.8701 5.14865 15.7548 5.34657 15.6316 5.55542L15.5869 5.63101C14.7921 6.98754 14.515 8.36993 14.513 9.63298C14.511 10.4216 14.6163 11.1635 14.7673 11.8249C15.419 12.3789 15.9257 12.7061 16.0399 12.7767C16.3847 11.5007 16.7006 10.721 16.9023 10.0915L16.8397 9.91442C16.8397 9.91442 15.5959 7.61209 15.9833 4.95671Z" fill="#501656"/>
<path d="M20.2603 13.8418C20.2603 13.8418 23.0242 10.5022 22.4539 7.92338C21.8827 5.34657 26.1735 16.9935 21.7853 19.9522C17.3991 22.9119 19.2102 15.5613 20.2603 13.8418Z" fill="#813D8E"/>
<path d="M22.4539 7.92338C22.4936 8.10339 22.5125 8.28539 22.5224 8.46838L22.5284 8.48828C22.5185 8.29733 22.4946 8.10836 22.4539 7.92338ZM22.4161 7.55342C22.5512 7.5763 23.6063 10.726 23.7633 13.9263C23.6063 10.726 22.5502 7.5763 22.4161 7.55342ZM22.4141 7.55342C22.3883 7.55342 22.3972 7.66878 22.4539 7.92338C22.3972 7.66878 22.3873 7.55342 22.4141 7.55342Z" fill="#C09EC6"/>
<path d="M22.4141 7.55342C22.3883 7.55342 22.3972 7.66878 22.4538 7.92338C22.4946 8.10936 22.5184 8.29733 22.5284 8.48828C23.1692 11.4679 23.5765 15.9591 21.3034 17.8368C21.3153 17.9512 21.3233 18.0675 21.3312 18.1839C21.5428 18.0656 21.7684 17.9532 22.0058 17.8527C22.5651 17.613 23.0648 17.3953 23.5159 17.1954C23.7583 16.2128 23.8169 15.1049 23.7682 14.0029L23.7672 13.9999L23.7633 13.9263C23.6063 10.726 22.5502 7.5763 22.4161 7.55342H22.4141Z" fill="#61266E"/>
<path d="M16.0638 12.7916C16.0638 12.7916 12.4406 10.5957 11.2961 6.87315C10.1516 3.14965 8.0524 18.0427 16.4463 22.8164C24.8372 27.5891 16.0638 12.7916 16.0638 12.7916Z" fill="#813D8E"/>
<path d="M10.2301 10.8493C10.3185 12.358 10.5907 14.0875 11.1441 15.7911V15.7931C10.5927 14.0885 10.3195 12.358 10.2301 10.8493Z" fill="#C09EC6"/>
<path d="M10.9017 6.29137C10.4706 6.29137 10.0772 8.23865 10.2302 10.8493C10.3196 12.358 10.5928 14.0885 11.1442 15.7931C11.6777 15.9502 12.231 16.17 12.7854 16.4674C10.9534 12.8781 10.707 8.61458 10.9902 6.32021L10.9017 6.29137Z" fill="#61266E"/>
<path d="M18.0657 24.5349C18.0657 24.5349 14.7306 25.2987 11.5822 21.0024C8.43588 16.707 8.81838 16.1332 7.19602 15.8468C5.57367 15.5614 15.6823 13.077 18.0657 24.5349Z" fill="#944290"/>
<path d="M18.0637 24.5362C18.0488 24.5382 17.9783 24.5532 17.8571 24.5662C17.9783 24.5522 18.0488 24.5382 18.0637 24.5362Z" fill="#547736"/>
<path d="M18.0527 24.4753L17.8401 24.5688L17.857 24.5658C17.9782 24.5519 18.0488 24.5379 18.0637 24.5359L18.0657 24.5349L18.0557 24.4852L18.0527 24.4753ZM8.64052 15.4281C7.62121 15.434 6.9675 15.6429 7.02313 15.7722L7.02512 15.7742L7.02612 15.7762L7.0271 15.7782L7.0291 15.7821L7.03009 15.7831L7.03307 15.7861L7.14832 15.8398L7.15824 15.8408H7.16023L7.16917 15.8438H7.17216L7.19501 15.8488C8.81736 16.1342 8.43486 16.708 11.5812 21.0044L11.6289 21.067L11.6627 21.1148H11.6637L11.7243 21.1943L11.7511 21.2291C11.8206 21.3206 11.8912 21.4092 11.9607 21.4967L11.9955 21.5404C14.1136 24.1312 16.2446 24.5618 17.3305 24.5877L17.4398 24.5896H17.4497C17.5699 24.5896 17.6772 24.5837 17.7636 24.5767C17.6842 24.4991 17.3513 24.1461 16.95 23.5484C15.6902 23.3654 13.7202 22.6185 11.8127 20.0168C9.78003 17.2401 9.21873 16.0218 8.64052 15.4281Z" fill="#752970"/>
<path d="M17.7805 24.0576C17.7805 24.0576 17.9752 19.5693 22.0058 17.8527C26.0363 16.1332 27.1172 15.4669 27.4113 14.6046C27.5534 14.1968 27.001 16.8194 25.6111 19.439C24.0832 22.3251 21.5379 25.2082 17.7805 24.0576Z" fill="#944290"/>
<path d="M27.4305 14.5638L27.4115 14.6058L27.3965 14.6448L27.3915 14.6618L27.4115 14.6058L27.4305 14.5638L27.4325 14.5658L27.4305 14.5638Z" fill="#C9A0C7"/>
<path d="M27.4302 14.5638L27.4113 14.6046L27.3915 14.6613C26.6295 17.1844 24.2382 23.2421 19.7546 23.3206C19.4108 23.6618 19.0085 23.9661 18.5356 24.2286C18.8446 24.2823 19.1416 24.3082 19.4327 24.3082C22.2959 24.3082 24.3157 21.8716 25.6082 19.436C26.8818 17.0372 27.4511 14.6404 27.4312 14.5668L27.4302 14.5638Z" fill="#752970"/>
<path d="M17.7816 24.5349C17.7816 24.5349 14.4445 21.2888 15.3982 15.7523C16.351 10.2138 17.4945 10.0238 17.0186 8.01886C16.5417 6.01389 26.4606 21.0024 17.7816 24.5349Z" fill="#9F489B"/>
<path d="M18.4456 24.2217L18.3816 24.2577L18.4866 24.2277L18.4456 24.2217Z" fill="#567937"/>
<path d="M18.486 24.2276L18.3816 24.2566L18.2783 24.3096L18.2574 24.3786C18.3498 24.3316 18.4403 24.2836 18.5257 24.2356L18.486 24.2276Z" fill="#3D6923"/>
<path d="M18.2783 24.3092C18.2008 24.3472 18.1223 24.3862 18.0419 24.4222L18.0538 24.4762L18.2575 24.3782L18.2783 24.3092Z" fill="#567937"/>
<path d="M17.8406 24.5688L17.7646 24.5748L17.7816 24.5928L17.8406 24.5688Z" fill="#3D6923"/>
<path d="M15.2254 17.7493C15.2244 17.98 15.2314 18.2058 15.2454 18.4276L15.2494 18.4325C15.2344 18.2088 15.2254 17.981 15.2254 17.7493Z" fill="#682772"/>
<path d="M18.0418 24.4226L18.0528 24.4763H18.0538L18.0418 24.4226ZM15.2452 18.4266C15.3872 20.7786 16.2665 22.524 16.951 23.5454L16.9957 23.5514C16.3112 22.5469 15.4051 20.7995 15.2491 18.4315L15.2452 18.4266Z" fill="#782A74"/>
<path d="M16.951 23.5464C17.3524 24.1451 17.6852 24.4972 17.7646 24.5747L17.8401 24.5688L18.0528 24.4753L18.0418 24.4216C17.9564 24.4594 17.8709 24.4972 17.7805 24.534C17.7805 24.534 17.4328 24.1958 16.9947 23.5514L16.951 23.5464Z" fill="#5F1A5A"/>
<path d="M18.4581 24.2167L18.4452 24.2227L18.4849 24.2286L18.5247 24.2376L18.5366 24.2296L18.4581 24.2167ZM21.3541 18.9885C21.3342 20.6533 20.8723 22.1869 19.695 23.3216L19.7556 23.3206C20.9021 22.1789 21.3452 20.6454 21.3541 18.9885Z" fill="#782A74"/>
<path d="M19.7556 23.3206L19.6949 23.3216C19.3462 23.6568 18.9369 23.9561 18.4581 24.2157L18.5365 24.2286C19.0094 23.9671 19.4118 23.6618 19.7556 23.3206Z" fill="#5F1A5A"/>
<path d="M20.4848 14.2884C20.9696 17.3435 20.5335 20.3649 17.6941 21.6906C17.6941 21.6906 15.434 19.1556 15.5919 14.7697C15.5273 15.0939 15.4608 15.438 15.3982 15.809C15.28 16.4902 15.2273 17.1377 15.2263 17.7483C15.2263 17.98 15.2353 18.2088 15.2492 18.4315C15.4051 20.8005 16.3102 22.5479 16.9957 23.5514C17.4338 24.1958 17.7816 24.534 17.7816 24.534C17.872 24.4972 17.9574 24.4594 18.0428 24.4216C18.1233 24.3858 18.2018 24.347 18.2793 24.3092L18.3826 24.2565L18.4462 24.2217L18.4591 24.2157C18.938 23.9551 19.3483 23.6558 19.696 23.3216C20.8733 22.1859 21.3342 20.6523 21.3551 18.9885C21.363 17.4589 21.0024 15.8219 20.4848 14.2884Z" fill="#812E7C"/>
<path d="M36.6022 72.9305C36.6552 72.1737 36.6812 71.4298 36.6782 70.6998C36.5762 71.752 36.5762 72.5367 36.6022 72.9305Z" fill="#6ABD45"/>
<path d="M32.9341 68.7814C34.3359 70.9912 35.6314 72.482 36.2235 73.1175C36.0079 72.5158 35.8052 72.0454 35.8052 72.0454C34.8525 70.8719 33.8938 69.7898 32.9341 68.7814Z" fill="#6ABD45"/>
<path d="M37.2419 69.3861L37.2809 69.2239C37.2379 69.394 37.2269 69.4626 37.2419 69.3861Z" fill="#539A37"/>
<path d="M35.0721 70.7466C35.1481 71.0111 35.1941 71.1722 35.1941 71.1722C35.2041 71.0797 35.1561 70.9296 35.0721 70.7466Z" fill="#539A37"/>
<path d="M36.1191 68.2602C36.0983 67.6954 35.6919 66.5288 35.1475 65.1921C35.8261 67.4756 36.141 68.849 36.1191 68.2602Z" fill="#539A37"/>
<path d="M43.9111 25.3942C43.9111 25.3942 44.3859 31.5046 42.099 37.1366C39.809 42.7686 33.1338 55.4657 36.0914 67.9708C36.0914 67.9708 37.7117 69.5949 37.4266 66.6362C37.1395 63.6765 37.1395 52.0276 41.0498 43.2449C44.9582 34.4623 46.7723 27.0163 46.1047 25.3942C45.4371 23.7711 43.8147 23.8656 43.9111 25.3942Z" fill="#20461F"/>
<path d="M41.3548 42.6512L41.3111 42.6542C41.2256 42.8501 41.1372 43.05 41.0498 43.2459C38.0515 49.9789 37.3521 58.3956 37.3183 63.2906C37.362 58.3836 38.0723 50.0326 41.0488 43.3464C41.1531 43.1127 41.2555 42.8819 41.3548 42.6512ZM46.2189 26.9079C46.045 29.3852 44.7734 34.1321 42.5192 39.7681L42.5847 39.7015C44.826 34.0645 46.0798 29.3365 46.2239 26.9119L46.2189 26.9079Z" fill="#8FA28F"/>
<path d="M42.5857 39.7005L42.5202 39.7671C42.2827 40.3648 42.0324 40.9705 41.7701 41.5851L41.8138 41.5811C42.082 40.9456 42.3393 40.3161 42.5857 39.7005Z" fill="#3B7826"/>
<path d="M41.3602 42.6423L41.3152 42.6473L41.3112 42.6543L41.3552 42.6513L41.3602 42.6423Z" fill="#658D5A"/>
<path d="M41.8138 41.5821L41.7701 41.5861C41.624 41.9381 41.47 42.2902 41.3151 42.6472L41.3598 42.6423C41.5138 42.2852 41.6658 41.9342 41.8138 41.5821Z" fill="#2A6818"/>
<path d="M36.5762 68.3229L36.5862 68.4263C36.6935 68.477 36.8087 68.5139 36.917 68.5139L36.9736 68.5109L36.9915 68.4094L36.917 68.4134C36.8047 68.4144 36.6875 68.3776 36.5762 68.3229Z" fill="#8FA28F"/>
<path d="M45.5374 26.4753C45.5334 29.1784 43.7213 35.7641 40.3465 43.3464C36.4371 52.1271 36.4351 63.7749 36.7223 66.7347C36.8057 67.5909 36.7272 68.0613 36.5762 68.297L36.5772 68.3229C36.6875 68.3776 36.8057 68.4144 36.917 68.4144L36.9915 68.4104C37.1008 67.8256 37.2389 67.2051 37.4098 66.5566C37.3491 65.8356 37.3054 64.7068 37.3194 63.2906C37.3531 58.3956 38.0525 49.9779 41.0509 43.2459C41.1383 43.05 41.2267 42.8511 41.3121 42.6542L41.3161 42.6472C41.4711 42.2902 41.6251 41.9372 41.7711 41.5861C42.0334 40.9715 42.2838 40.3648 42.5212 39.7681C44.7754 34.1321 46.0471 29.3862 46.2209 26.9079C45.9527 26.7706 45.7262 26.6205 45.5374 26.4753Z" fill="#122C11"/>
<path d="M44.8638 25.3922C44.8638 25.3922 38.6655 23.7702 36.3765 27.2072C34.0885 30.6433 34.9469 29.4022 36.9488 28.8283C38.9516 28.2565 40.0961 26.9188 42.0036 27.3007C43.008 27.5026 44.0402 26.9357 44.6373 26.3669C45.1738 25.8577 45.3586 25.3485 44.8638 25.3922Z" fill="#6ABD45"/>
<path d="M41.5406 25.2977C39.6709 25.2977 37.4594 25.7274 36.2811 27.4937C35.8072 28.2077 35.4754 28.709 35.2529 29.069C35.5877 28.9337 36.147 28.6523 36.8544 28.4484C38.6128 27.9462 39.7096 26.8552 41.2425 26.8552C41.4552 26.8552 41.6757 26.8761 41.9092 26.9218C42.0502 26.9497 42.1923 26.9626 42.3334 26.9626C43.3557 26.9626 44.3392 26.2773 44.7942 25.7174L44.7714 25.6806H44.7704C44.7704 25.6806 44.4594 25.5991 43.9538 25.5136C43.8475 25.4986 43.7422 25.4807 43.6388 25.4618C43.0706 25.3753 42.3354 25.2977 41.5406 25.2977Z" fill="#4BA42C"/>
<path d="M44.7694 25.6787C44.7694 25.6787 45.8185 27.3982 48.5844 27.4927C51.3502 27.5871 53.5418 29.4966 53.7346 30.4514C53.819 30.88 54.0952 29.3126 53.4484 27.7463C52.6497 25.8179 50.4501 23.8895 44.7694 25.6787Z" fill="#6ABD45"/>
<path d="M50.0667 25.3942C49.4279 25.4758 48.7314 25.5225 47.9774 25.5225C47.5442 25.5225 47.0912 25.5066 46.6173 25.4758C46.1534 25.5633 45.6626 25.6836 45.14 25.8318C45.6844 26.346 46.7435 27.0531 48.489 27.1128C51.2559 27.2072 53.4475 29.1157 53.6402 30.0705L53.674 30.1411C53.7038 30.1411 53.7386 30.0108 53.7584 29.793C53.6641 28.3957 52.9637 25.98 50.0667 25.3942Z" fill="#4BA42C"/>
<path d="M42.9811 13.8677C42.9811 13.8677 41.4551 9.95222 42.7894 7.3764C44.1256 4.79859 44.983 4.03678 44.8886 2.88909C44.7912 1.74439 48.7006 7.94825 46.8895 12.3401C45.0754 16.7319 43.0755 15.2998 42.9811 13.8677Z" fill="#702776"/>
<path d="M44.9085 2.76379L44.8847 2.8891C44.982 4.03578 44.1206 4.79859 42.7874 7.37441C42.1565 8.59072 42.1645 10.1044 42.3483 11.3644L42.3503 11.3664C42.1675 10.1064 42.1595 8.5937 42.7894 7.3764C44.1256 4.79859 44.983 4.03678 44.8886 2.8891L44.9085 2.76379Z" fill="#B793BA"/>
<path d="M44.9363 2.75583L44.9095 2.76478L44.8887 2.8901C44.983 4.03678 44.1247 4.79958 42.7894 7.37739C42.1586 8.59469 42.1675 10.1074 42.3503 11.3674C42.9702 11.9721 43.5514 12.711 43.9846 13.5922L44.0849 13.4052C43.9418 13.1725 43.8564 12.899 43.8375 12.6275C43.8375 12.6275 42.3126 8.71304 43.6468 6.13523C44.385 4.70908 44.9701 3.84484 45.3357 3.15961C45.1519 2.90103 45.0089 2.75583 44.9363 2.75583Z" fill="#501656"/>
<path d="M51.5628 15.5872C51.5628 15.5872 54.8056 11.7682 50.8952 5.75333C50.8952 5.75333 50.8952 8.1392 49.0831 9.66779C47.27 11.1954 48.4155 21.4101 51.5628 15.5872Z" fill="#71327C"/>
<path d="M51.5728 6.91096C53.1713 11.3495 50.8922 14.0596 50.8922 14.0596C50.4253 14.9229 50.0021 15.434 49.6265 15.6707C49.705 16.0884 49.7636 16.5111 49.7994 16.9378C50.2187 16.0178 51.0114 14.7926 52.4669 13.806C52.9517 12.3092 53.1623 9.93034 51.5728 6.91096Z" fill="#511E5C"/>
<path d="M49.3692 18.2575C49.403 17.9601 49.9405 15.4917 52.5156 13.7732C55.0907 12.0536 55.1861 11.1934 55.1861 10.717C55.1861 10.2406 57.7602 17.6866 52.3248 21.0282C46.8885 24.3698 49.1775 19.978 49.3692 18.2575Z" fill="#813D8E"/>
<path d="M55.1602 10.9169C55.1483 10.9816 55.1304 11.0531 55.1046 11.1297L55.1145 11.2004C55.1433 11.0949 55.1552 11.0005 55.1602 10.9169ZM55.192 10.6006L55.184 10.6215L55.1791 10.7687L55.185 10.7777L55.186 10.717L55.193 10.6961C55.2585 10.6961 55.7493 12.1292 55.7921 13.9999C55.7642 12.0835 55.2566 10.6006 55.192 10.6006Z" fill="#C09EC6"/>
<path d="M55.1795 10.7697L55.1605 10.9159C55.1545 10.9994 55.1435 11.0949 55.1145 11.1994L55.1155 11.2053C55.1695 11.0372 55.1835 10.898 55.1845 10.7777L55.1795 10.7697Z" fill="#61266E"/>
<path d="M55.193 10.6961L55.186 10.717L55.185 10.7777C55.184 10.897 55.1691 11.0372 55.1165 11.2053C55.4244 13.5524 55.2297 17.3624 51.7506 19.4997L51.7098 19.5245C51.9085 19.4987 52.1092 19.4838 52.3178 19.4838C52.445 19.4838 52.5752 19.4887 52.7063 19.4997C53.1444 19.5374 53.5547 19.5643 53.9432 19.5832C55.4393 17.8955 55.8189 15.7632 55.7921 13.9999C55.7483 12.1292 55.2585 10.6961 55.193 10.6961Z" fill="#61266E"/>
<path d="M41.9301 19.4997C41.9301 19.4997 38.8801 16.9218 39.2606 13.5802C39.6411 10.2416 38.8761 9.09592 38.591 9.00144C38.3058 8.90398 44.1237 10.718 44.6959 16.0646C45.2681 21.4082 43.9319 22.6503 41.9301 19.4997Z" fill="#813D8E"/>
<path d="M39.3619 11.629C39.3698 12.1531 39.34 12.7687 39.2585 13.4858C39.2317 13.7334 39.2218 13.9761 39.2287 14.2148C39.2258 14.0059 39.2377 13.7951 39.2615 13.5793C39.349 12.8214 39.3758 12.175 39.3619 11.629ZM38.58 8.901L38.5909 8.90399C38.6436 8.92189 38.7112 8.97559 38.7857 9.07205C39.043 9.17151 39.5208 9.3754 40.098 9.69762L40.0891 9.60115C39.2258 9.11682 38.583 8.901 38.58 8.901Z" fill="#C09EC6"/>
<path d="M38.7857 9.07205C39.0311 9.38533 39.3401 10.1551 39.3619 11.629C39.3758 12.175 39.348 12.8204 39.2606 13.5802C39.2367 13.7961 39.2248 14.0069 39.2278 14.2158C39.2566 15.2361 39.5845 16.17 40.0007 16.9517C41.0936 17.263 41.9927 17.7204 42.7348 18.2674C42.7239 18.1799 42.7149 18.0914 42.7099 18.0009L42.6921 17.9731C42.6921 17.9731 39.6411 15.3943 40.0216 12.0546C40.1319 11.087 40.1408 10.3232 40.0981 9.69762C39.5209 9.3754 39.043 9.17151 38.7857 9.07205Z" fill="#61266E"/>
<path d="M46.2228 25.3256C46.2228 25.3256 46.2229 14.9199 33.9206 16.7329C33.9206 16.7329 36.6874 16.2555 37.7356 19.4062C38.7837 22.5568 41.93 26.5658 46.2228 25.3256Z" fill="#944290"/>
<path d="M37.2557 18.3639C37.4375 18.6563 37.5995 19.0004 37.7336 19.4042C37.8846 19.8607 38.0793 20.3321 38.3168 20.8025C38.0803 20.3311 37.8866 19.8607 37.7346 19.4062C37.5995 19.0004 37.4375 18.6583 37.2557 18.3639Z" fill="#752970"/>
<path d="M36.6408 16.523C35.8371 16.523 34.9658 16.5867 34.022 16.719C34.0895 16.712 34.1899 16.706 34.314 16.706C34.9817 16.706 36.3527 16.9 37.2557 18.3629C37.4375 18.6573 37.5995 19.0004 37.7346 19.4052C37.8856 19.8597 38.0803 20.3311 38.3168 20.8015C39.505 23.1794 41.7363 25.5424 44.6353 25.5424C45.0585 25.5424 45.4967 25.4907 45.9457 25.3833L45.9845 25.2868C45.6556 25.1088 45.3635 24.6752 45.0814 24.0914C44.9304 24.1043 44.7814 24.1113 44.6353 24.1113C41.1601 24.1113 38.6476 20.7199 37.7336 17.9731C37.529 17.3644 37.2617 16.893 36.9637 16.526C36.8593 16.524 36.7501 16.523 36.6408 16.523Z" fill="#752970"/>
<path d="M45.9347 25.4191C45.9347 25.4191 48.2257 19.1188 52.7053 19.4997C57.1868 19.8825 58.9999 19.2152 58.9999 19.2152C58.9999 19.2152 57.2832 19.978 56.8064 21.2202C56.3305 22.4614 53.8507 26.1829 45.9347 25.4191Z" fill="#944290"/>
<path d="M58.999 19.2142C58.999 19.2142 58.3632 19.443 56.9276 19.5583V19.5603C58.2509 19.4569 58.8937 19.25 58.9871 19.2192L58.999 19.2142Z" fill="#C9A0C7"/>
<path d="M45.9397 25.3992H45.9387V25.4202H45.9397V25.3992Z" fill="#547736"/>
<path d="M45.9467 25.3833H45.9446V25.4003H45.9467V25.3833Z" fill="#752970"/>
<path d="M58.9871 19.2192C58.8927 19.25 58.2509 19.4569 56.9276 19.5603C56.8859 19.6349 56.8382 19.7075 56.8064 19.7871C56.3732 20.9169 54.274 24.0775 47.9644 24.0775H47.8025C47.2769 24.9208 46.8378 25.3087 46.4533 25.3644L46.3202 25.3773L46.1265 25.3495L45.9496 25.3843L45.9437 25.4012L45.9357 25.4201C46.66 25.4897 47.3395 25.5225 47.9773 25.5225C54.2889 25.5225 56.3742 22.347 56.8074 21.2202C57.2614 20.0367 58.838 19.2898 58.9871 19.2192Z" fill="#752970"/>
<path d="M44.1008 21.5275C44.1008 21.5275 41.6221 18.5688 43.3378 14.9408C45.0546 11.3137 46.5815 9.97709 45.7212 8.0666C44.8638 6.15811 52.0159 14.5618 49.1556 21.3395C46.2944 28.1142 45.4351 25.061 44.1008 21.5275Z" fill="#9F489B"/>
<path d="M44.2807 13.0392C44.2151 13.1566 44.1495 13.2789 44.0829 13.4042L44.1018 13.4321C44.1584 13.3256 44.2151 13.2192 44.2717 13.1188L44.2807 13.0392Z" fill="#5B195F"/>
<path d="M44.0835 13.4042L43.9835 13.5912L43.9995 13.623L44.1025 13.4331L44.0835 13.4042Z" fill="#410E45"/>
<path d="M43.9836 13.5912C43.763 14.0059 43.5335 14.4534 43.301 14.9467C42.7785 16.0467 42.6443 17.0869 42.7099 18.0009L42.7527 18.0676C42.6742 17.1347 42.8013 16.0695 43.3378 14.9388C43.5633 14.4624 43.7839 14.0258 43.9995 13.622L43.9836 13.5912Z" fill="#682772"/>
<path d="M42.7099 18.0009C42.7159 18.0914 42.7249 18.1799 42.7349 18.2674L42.7769 18.2983C42.7659 18.2227 42.7579 18.1461 42.7529 18.0685L42.7099 18.0009Z" fill="#4E1858"/>
<path d="M45.9934 25.2649L45.9854 25.2868L45.9943 25.2669L45.9934 25.2649ZM42.7357 18.2674C42.9612 20.2197 44.064 21.5335 44.064 21.5335C44.4207 22.4813 44.7455 23.3942 45.0823 24.0914L45.1191 24.0884C44.7823 23.3903 44.4584 22.4753 44.1008 21.5265C44.1008 21.5265 43.0119 20.2277 42.7775 18.2983L42.7357 18.2674Z" fill="#782A74"/>
<path d="M45.1191 24.0894L45.0823 24.0924C45.3645 24.6762 45.6566 25.1098 45.9854 25.2878L45.9934 25.2659C45.6775 25.0789 45.3953 24.6543 45.1191 24.0894Z" fill="#5F1A5A"/>
<path d="M45.9943 25.2669L45.9854 25.2879L46.1255 25.3489L46.1593 25.3399L45.9943 25.2669Z" fill="#782A74"/>
<path d="M46.1593 25.3395L46.1255 25.3485L46.3192 25.3775L46.4524 25.3645L46.356 25.3715L46.1593 25.3395Z" fill="#5F1A5A"/>
<path d="M44.2717 13.1188C44.2151 13.2202 44.1584 13.3256 44.1018 13.4321L43.9995 13.622C43.7839 14.0258 43.5623 14.4634 43.3378 14.9388C42.8013 16.0695 42.6742 17.1347 42.7527 18.0675C42.7586 18.1451 42.7666 18.2217 42.7765 18.2973C43.011 20.2267 44.0998 21.5255 44.0998 21.5255C44.4575 22.4743 44.7823 23.3892 45.1181 24.0874C45.3933 24.6523 45.6755 25.077 45.9924 25.2639L45.9934 25.2659L46.1583 25.3385L46.355 25.3694L46.4514 25.3624C47.12 25.2311 47.9525 24.0993 49.1169 21.3415C49.8997 19.4897 49.9305 17.5166 49.5838 15.6628C49.5004 16.2177 49.3702 16.7647 49.1795 17.3018C48.2188 19.99 47.5511 20.9835 47.0186 20.9835C46.3252 20.9835 45.8593 19.2998 45.2781 17.4758C45.2781 17.4758 43.9766 15.628 44.2717 13.1188Z" fill="#812E7C"/>
<path d="M36.6626 73.1265C36.5037 73.8366 35.8032 61.764 45.2463 54.2225C54.6873 46.681 56.9763 42.5766 57.0707 40.8571C57.0707 40.8571 57.0707 50.1191 49.3464 58.8053C41.6241 67.4925 37.522 69.3065 36.6626 73.1265Z" fill="#03A24B"/>
<path d="M37.1563 71.2647C36.9974 71.6764 36.9576 72.2712 36.7699 72.2244C36.6785 72.1996 37.0908 70.8759 37.1633 70.6978C37.206 70.5914 39.4741 62.1817 47.871 55.2379C48.02 55.1136 41.321 60.3538 37.1563 71.2647Z" fill="#019344"/>
<path d="M57.0707 40.9227L57.0687 40.9466C57.0449 41.9182 56.6266 50.6164 49.3464 58.8043C41.6241 67.4915 37.522 69.3055 36.6626 73.1255L36.6477 73.1553C36.6328 73.1553 36.6169 73.0797 36.605 72.9375L36.603 72.9663C36.6159 73.1304 36.6328 73.2189 36.6477 73.2189L36.6626 73.1901C37.521 69.3701 41.6231 67.5571 49.3464 58.8709C57.0707 50.1838 57.0707 40.9227 57.0707 40.9227Z" fill="#81D0A5"/>
<path d="M37.2349 69.4169L37.2448 69.3751L37.2428 69.387L37.2349 69.4169ZM37.2567 69.3194L37.2806 69.2239C39.2924 59.6148 44.9194 54.8928 47.0197 53.5791C49.1348 52.2544 53.363 48.3528 54.6178 46.6353C54.9645 46.1579 55.1741 45.9272 55.2636 45.9272C55.496 45.9272 54.889 47.5353 53.6919 50.6024C52.1768 54.4881 40.2998 68.4124 39.0301 68.4124C38.9178 68.4124 38.888 68.301 38.9606 68.0623C39.8179 65.1524 47.0862 56.4224 47.6803 55.4945L47.7539 55.3354L47.6018 55.4627C46.3203 56.5716 40.7786 61.773 37.1544 71.2647C37.0024 71.6595 36.9587 72.2264 36.7888 72.2264L36.7679 72.2244C36.6765 72.1996 37.0888 70.8759 37.1614 70.6978C37.2041 70.5924 39.4235 62.3607 47.6008 55.4637L47.7529 55.3334L47.7012 55.2817C47.2988 55.2817 44.6045 57.3722 41.5337 61.1186C38.5135 64.8023 37.4882 68.3806 37.2786 69.2239L37.2567 69.3194ZM57.0687 40.9476C56.9544 42.6811 54.6446 46.7825 45.2463 54.2892C38.7638 59.4657 37.063 66.7744 36.6835 70.6212C36.6885 71.3791 36.6636 72.1528 36.606 72.9395C36.6179 73.0817 36.6338 73.1573 36.6487 73.1573L36.6636 73.1275C37.522 69.3075 41.6241 67.4935 49.3474 58.8063C56.6266 50.6174 57.0449 41.9183 57.0687 40.9476Z" fill="#018430"/>
<path d="M47.6028 55.4627C39.4264 62.3607 37.206 70.5914 37.1633 70.6968C37.0908 70.8749 36.6785 72.1986 36.7699 72.2234L36.7907 72.2254C36.9606 72.2254 37.0043 71.6595 37.1563 71.2637C40.7796 61.773 46.3212 56.5726 47.6028 55.4627ZM47.7548 55.3334L47.6028 55.4627L47.7548 55.3364V55.3334Z" fill="#00782C"/>
<path d="M36.5692 73.4139C36.5692 73.4139 30.1772 67.207 28.366 57.1822C26.5529 47.1594 24.0742 45.6308 24.0742 45.6308C24.0742 45.6308 38.0942 56.2295 36.5692 73.4139Z" fill="#6ABD45"/>
<path d="M28.6304 52.496C28.4396 52.5189 33.2252 63.1225 33.2252 63.1225C34.9867 66.5616 35.853 72.5924 35.8609 72.6531C35.8867 72.842 36.0616 72.9763 36.2523 72.9494C36.4441 72.9246 36.5752 72.7476 36.5494 72.5586C36.5136 72.306 35.6602 66.3478 33.8442 62.8053L32.3877 60.0395C30.8717 57.1902 28.8221 52.4741 28.6304 52.496Z" fill="#539A37"/>
<path d="M36.2245 73.0549L36.2613 73.1603C36.452 73.3632 36.5693 73.4785 36.5693 73.4785C36.5762 73.382 36.5822 73.2896 36.5871 73.1971L36.5693 73.4139C36.5693 73.4139 36.4451 73.2906 36.2245 73.0549ZM24.1905 45.788C24.7001 46.2295 26.7845 48.507 28.3661 57.2479C29.2155 61.952 31.0733 65.8028 32.8069 68.5765L32.9083 68.6809C31.1468 65.8943 29.2334 61.9758 28.3671 57.1812C27.015 49.7064 25.2923 46.9565 24.5025 46.0426C24.3683 45.9302 24.262 45.8456 24.1905 45.788Z" fill="#B4DEA2"/>
<path d="M35.1932 71.1712C35.1932 71.1712 35.1475 71.0101 35.072 70.7456C35.1555 70.9295 35.2032 71.0797 35.1932 71.1712ZM36.1043 68.3965C36.0337 68.3965 35.7188 67.1175 35.1475 65.1911C35.692 66.5278 36.0973 67.6944 36.1192 68.2592C36.1231 68.3527 36.1172 68.3965 36.1043 68.3965ZM35.072 70.7466C34.5554 69.6227 32.5257 67.0539 31.9545 66.1459C31.2958 65.0867 28.7187 58.8699 28.4545 56.1569C28.1902 53.4458 27.0686 49.412 27.0686 49.412C31.1994 53.0261 33.8411 60.7943 35.1485 65.1921C34.0368 62.4691 32.334 59.0281 32.023 58.4055C31.577 57.5124 29.0297 52.1052 28.5627 52.1032L28.522 52.1231C28.1922 52.5189 29.7798 56.8859 31.4299 60.3259C32.8466 63.2767 34.6021 69.1434 35.072 70.7466ZM24.5014 46.0435C25.2912 46.9575 27.0129 49.7084 28.366 57.1822C29.2324 61.9758 31.1458 65.8953 32.9072 68.6819C33.854 69.6784 34.8018 70.7485 35.7416 71.9012C35.4495 70.1697 34.617 65.8366 33.2261 63.1225C33.2261 63.1225 28.4405 52.5199 28.6313 52.496H28.6323C28.831 52.496 30.8766 57.1981 32.3886 60.0385L33.8451 62.8043C35.6612 66.3468 36.5146 72.305 36.5503 72.5576C36.5762 72.7466 36.446 72.9236 36.2533 72.9484L36.2046 72.9524H36.1867L36.2245 73.0549C36.445 73.2906 36.5692 73.4139 36.5692 73.4139L36.5871 73.1971C36.5921 73.1076 36.596 73.0191 36.603 72.9305C36.5771 72.5367 36.5772 71.752 36.6785 70.6998C36.5921 56.869 26.6821 47.8546 24.5014 46.0435Z" fill="#4BA42C"/>
<path d="M28.6314 52.496C28.4406 52.5189 33.2252 63.1225 33.2252 63.1225C34.6161 65.8376 35.4486 70.1697 35.7407 71.9012L35.8033 71.9798C35.8033 71.9798 35.9841 72.3975 36.1858 72.9534H36.2037L36.2523 72.9494C36.4441 72.9246 36.5752 72.7476 36.5494 72.5586C36.5136 72.306 35.6602 66.3478 33.8442 62.8053L32.3877 60.0395C30.8756 57.1981 28.831 52.496 28.6314 52.496Z" fill="#3B8623"/>
<path d="M35.8043 71.9798C35.8043 71.9798 37.6154 76.1816 36.1858 75.6078C34.7561 75.035 33.9931 72.84 31.0356 72.2642C28.078 71.6943 21.214 69.6864 18.1621 64.5328C15.1111 59.3791 11.9627 55.8466 8.53027 55.8466C5.09581 55.8456 21.3074 54.1281 35.8043 71.9798Z" fill="#6ABD45"/>
<path d="M19.8947 60.4274C20.0039 60.497 30.8597 67.6377 35.9095 75.3154C36.0149 75.4745 36.2314 75.5193 36.3914 75.4139C36.5513 75.3084 36.596 75.0926 36.4917 74.9325C31.3604 67.1334 19.7337 60.3199 19.8947 60.4274Z" fill="#539A37"/>
<path d="M23.188 69.3333L23.0966 69.3443C26.0343 71.1145 29.2492 71.9857 31.0355 72.3308C33.9931 72.9047 34.7551 75.1006 36.1857 75.6734C36.2781 75.7102 36.3556 75.7281 36.4222 75.7281C36.6596 75.7281 36.7431 75.5054 36.7341 75.1732C36.7311 75.4686 36.6417 75.6615 36.4222 75.6615C36.3546 75.6615 36.2771 75.6436 36.1857 75.6078C34.7561 75.035 33.9931 72.84 31.0355 72.2642C29.2671 71.9231 26.1009 71.0678 23.188 69.3333Z" fill="#B4DEA2"/>
<path d="M16.6539 62.2036C17.1596 62.9515 17.6623 63.7541 18.163 64.5974C18.9797 65.9758 20.0646 67.1275 21.2796 68.0882L21.373 68.0952C20.1212 67.1215 18.9986 65.946 18.164 64.5328C17.6951 63.7431 17.2252 62.9873 16.7503 62.2802L16.6539 62.2036ZM8.31071 55.8655C7.93319 55.8655 7.9769 55.9102 8.53026 55.9102C9.35485 55.9102 10.1626 56.1151 10.9554 56.497L10.9007 56.4045C10.4457 56.1907 9.98373 56.0355 9.51779 55.945C8.96144 55.8854 8.55113 55.8655 8.31071 55.8655Z" fill="#028D2F"/>
<path d="M23.1678 69.3214L23.0778 69.3304L23.0968 69.3434L23.1888 69.3334L23.1678 69.3214Z" fill="#5AB568"/>
<path d="M21.2786 68.0882C21.8548 68.5457 22.4598 68.9574 23.0778 69.3304L23.1682 69.3214C22.5522 68.9534 21.9472 68.5457 21.372 68.0952L21.2786 68.0882ZM10.9007 56.4045L10.9553 56.497C12.9274 57.4408 14.813 59.4776 16.6539 62.2036L16.7493 62.2802C14.8607 59.4577 12.9274 57.3533 10.9007 56.4045Z" fill="#00731E"/>
<path d="M36.2017 75.4716C36.0904 75.4716 35.9782 75.4159 35.9106 75.3154C30.8608 67.6377 20.005 60.498 19.8957 60.4274L19.8927 60.4244C19.9136 60.4244 31.4002 67.1941 36.4928 74.9315C36.5971 75.0916 36.5534 75.3075 36.3924 75.4129L36.2017 75.4716ZM32.7841 72.3686C32.1523 71.8594 30.2845 71.9052 27.1332 70.7734C23.6332 69.5173 19.3384 66.0783 17.5541 62.5726C15.7688 59.0669 14.9104 58.8033 13.1937 57.415C12.7903 57.0887 12.7297 56.9346 12.9632 56.9346C13.7342 56.9346 17.6703 58.5825 23.2338 61.3165C29.5305 64.4085 34.7363 72.0235 34.5972 72.0235C34.5764 72.0235 34.4263 71.8415 34.1353 71.4368C31.9566 68.3925 21.4515 60.9197 20.3944 60.3249C20.0735 60.1439 19.8023 60.0664 19.6046 60.0664C19.1496 60.0664 19.086 60.4761 19.7308 60.9843C20.6567 61.7123 24.0256 63.8963 27.0666 66.5407C29.6745 68.8112 32.1374 71.6168 32.7841 72.3686ZM9.51782 55.945C9.98376 56.0355 10.4457 56.1907 10.9007 56.4045C12.9274 57.3533 14.8608 59.4577 16.7494 62.2802C17.2233 62.9873 17.6942 63.7431 18.1631 64.5328C18.9986 65.946 20.1212 67.1215 21.372 68.0952C21.9473 68.5457 22.5523 68.9534 23.1682 69.3214L23.1881 69.3333C26.101 71.0678 29.2672 71.9241 31.0356 72.2642C33.9932 72.84 34.7552 75.035 36.1858 75.6078C36.2782 75.6436 36.3547 75.6615 36.4222 75.6615C36.6428 75.6615 36.7312 75.4686 36.7342 75.1732C36.7203 74.6322 36.463 73.7918 36.2216 73.1185C35.6294 72.482 34.3349 70.9912 32.9322 68.7824C23.1196 58.4672 13.1659 56.3299 9.51782 55.945Z" fill="#4BA42C"/>
<path d="M19.8927 60.4244L19.8957 60.4274C20.005 60.497 30.8607 67.6377 35.9106 75.3154C35.9781 75.4168 36.0904 75.4716 36.2017 75.4716L36.3924 75.4129C36.5524 75.3075 36.5971 75.0916 36.4927 74.9315C31.4002 67.1931 19.9126 60.4244 19.8927 60.4244Z" fill="#3B8623"/>
</svg>
