<svg width="69" height="111" viewBox="0 0 69 111" fill="none" xmlns="http://www.w3.org/2000/svg">
<path d="M45.3453 85.302L42.534 106.045C42.4921 108.847 36.304 111.027 28.7101 110.911C21.1183 110.799 14.9979 108.435 15.0408 105.631L11.7786 83.4919L45.3453 85.302Z" fill="#AA6B28"/>
<path d="M45.3454 85.302L45.2596 85.29L42.4483 106.034V106.042C42.4363 107.341 40.9958 108.552 38.6105 109.424C36.2322 110.294 32.936 110.829 29.2808 110.829C29.0922 110.829 28.9017 110.828 28.7111 110.825C24.9372 110.768 21.5294 110.153 19.0692 109.208C16.6051 108.265 15.1177 106.985 15.1267 105.659V105.632V105.619L11.8804 83.5825L45.3404 85.3865L45.3454 85.302L45.3514 85.2144L11.7847 83.4033L11.7168 83.4332L11.6949 83.5038L14.9571 105.643L15.0429 105.63H14.9561L14.9551 105.658C14.965 107.123 16.5293 108.413 19.0094 109.369C21.4924 110.322 24.9192 110.938 28.7111 110.997C28.9017 110.999 29.0932 111 29.2828 111C32.957 111 36.2671 110.465 38.6703 109.584C41.0706 108.701 42.5929 107.479 42.6219 106.044L42.5351 106.043L42.6209 106.054L45.4322 85.3109L45.4122 85.2462L45.3514 85.2134L45.3454 85.302Z" fill="#2E1010"/>
<path d="M45.3453 85.302L42.534 106.045C42.4921 108.847 36.304 111.027 28.7101 110.911C21.1183 110.799 14.9979 108.435 15.0408 105.631L11.7786 83.4919L45.3453 85.302Z" fill="#F9A84C"/>
<path d="M45.3454 85.302L45.2596 85.29L42.4483 106.034V106.042C42.4363 107.341 40.9958 108.552 38.6105 109.424C36.2322 110.294 32.936 110.829 29.2808 110.829C29.0922 110.829 28.9017 110.828 28.7111 110.825C24.9372 110.768 21.5294 110.153 19.0692 109.208C16.6051 108.265 15.1177 106.985 15.1267 105.659V105.632V105.619L11.8804 83.5825L45.3404 85.3865L45.3454 85.302L45.3514 85.2144L11.7847 83.4033L11.7168 83.4332L11.6949 83.5038L14.9571 105.643L15.0429 105.63H14.9561L14.9551 105.658C14.965 107.123 16.5293 108.413 19.0094 109.369C21.4924 110.322 24.9192 110.938 28.7111 110.997C28.9017 110.999 29.0932 111 29.2828 111C32.957 111 36.2671 110.465 38.6703 109.584C41.0706 108.701 42.5929 107.479 42.6219 106.044L42.5351 106.043L42.6209 106.054L45.4322 85.3109L45.4122 85.2462L45.3514 85.2134L45.3454 85.302Z" fill="#7C4317"/>
<path d="M15.5226 89.3221L17.5768 103.899C17.5768 103.899 18.4536 108.479 24.0902 109.693C24.7346 109.835 25.3691 109.898 25.9906 109.898C30.824 109.898 34.8414 105.924 35.1826 101.266C35.5936 95.6439 35.5936 90.8704 35.5936 90.8704C35.5936 90.8704 32.2067 91.4187 27.8432 91.4187C23.9445 91.4187 19.2627 90.9809 15.5226 89.3221Z" fill="#FAB76A"/>
<path d="M45.07 86.6782C44.1133 87.527 42.7546 88.2793 41.0985 88.9091C39.7098 89.4336 38.1096 89.8724 36.3529 90.1998C36.8157 90.2505 37.4103 90.2913 38.1196 90.2913C39.0464 90.2913 40.1747 90.2217 41.4636 90.0107C41.4636 90.0107 41.5704 89.9172 41.7021 89.9172C41.9106 89.9172 42.1809 90.152 42.1989 91.372C42.2268 93.3621 40.3483 105.422 40.3483 105.422C40.3483 105.422 39.9842 108.531 35.6425 109.694C34.188 110.086 31.8367 110.401 29.197 110.401C24.0313 110.401 17.7733 109.192 15.0309 104.972L15.1257 105.619V105.632V105.659C15.1167 106.985 16.6041 108.265 19.0682 109.208C21.5283 110.153 24.9362 110.768 28.7102 110.825C28.9007 110.828 29.0912 110.829 29.2798 110.829C32.935 110.829 36.2311 110.294 38.6094 109.424C40.9947 108.552 42.4353 107.34 42.4473 106.043V106.034L45.07 86.6782Z" fill="#DE9342"/>
<path d="M45.1707 86.5876C45.1388 86.6175 45.1059 86.6493 45.0699 86.6782L42.4472 106.034V106.042C42.4352 107.341 40.9947 108.552 38.6094 109.424C36.2311 110.294 32.935 110.829 29.2797 110.829C29.0912 110.829 28.9006 110.828 28.7101 110.825C24.9361 110.768 21.5283 110.153 19.0682 109.208C16.6041 108.265 15.1166 106.985 15.1256 105.659V105.632V105.619L15.0308 104.972C14.9909 104.913 14.953 104.852 14.9161 104.791L15.0398 105.631C14.9969 108.434 21.1173 110.798 28.7091 110.911C28.9006 110.914 29.0902 110.916 29.2797 110.916C36.6092 110.916 42.4901 108.778 42.532 106.045L45.1707 86.5876Z" fill="#6F3B14"/>
<path d="M11.0035 79.5852L14.2477 79.7096C17.459 77.8936 22.7763 76.7034 28.7999 76.7034C35.5178 76.7034 41.3638 78.1821 44.3806 80.3634C45.6336 79.9723 46.9056 79.5663 46.9056 79.5663L46.5355 84.083H46.5335C46.0846 87.8106 38.3171 90.7779 28.7999 90.7779C19.172 90.7779 11.3387 87.7419 11.0544 83.9536L11.0035 83.8989V79.7613L11.0055 79.7733L11.0035 79.5852Z" fill="#F9A72B"/>
<path d="M11.0035 79.5852L10.9995 79.6708L14.2448 79.7962L14.2906 79.7832C17.479 77.9781 22.7883 76.789 28.7999 76.789C35.5049 76.789 41.3399 78.2707 44.3297 80.434L44.4056 80.445C45.6586 80.0519 46.9325 79.6479 46.9325 79.6479L46.9056 79.5663L46.8208 79.5593L46.4477 84.076L46.5355 84.083V83.9974H46.5335L46.4477 84.071C46.2372 85.8761 44.215 87.5449 41.0356 88.7459C37.8602 89.95 33.5485 90.6913 28.7989 90.6913C23.9944 90.6913 19.6368 89.9331 16.4545 88.7061C13.2651 87.4792 11.2719 85.7796 11.1392 83.9467L11.1182 83.8939L11.0893 83.8651V79.7603H11.0035L10.9207 79.7862L10.9237 79.7972L11.0204 79.8579L11.0923 79.7703L11.0893 79.5832L11.0035 79.5852L10.9157 79.5862L10.9197 79.7733L11.0055 79.7723L11.0893 79.7474L11.0853 79.7365L10.9905 79.6748L10.9157 79.7603V83.8979L10.9386 83.9566L10.9905 84.0123L11.0534 83.9526L10.9676 83.9606C11.1212 85.9159 13.1843 87.6305 16.3916 88.8683C19.6029 90.1042 23.9755 90.8645 28.7999 90.8645C33.5665 90.8645 37.8982 90.1221 41.0985 88.9091C44.2938 87.6951 46.3818 86.0164 46.6213 84.0939L46.5335 84.083V84.1696H46.5355L46.6213 84.0909L46.9934 79.5733L46.9604 79.4986L46.8806 79.4837C46.8787 79.4857 45.6077 79.8887 44.3537 80.2808L44.3806 80.3634L44.4305 80.2947C41.3868 78.0966 35.5308 76.6199 28.7999 76.6169C22.7644 76.6199 17.4351 77.808 14.2048 79.635L14.2477 79.7096L14.2517 79.624L11.0055 79.4986L10.9427 79.5225L10.9157 79.5852H11.0035Z" fill="#7C4317"/>
<path d="M11.0035 79.5852C11.0035 83.4979 19.0403 86.6662 28.9545 86.6662C38.8698 86.6662 46.9056 83.4969 46.9056 79.5852C46.9056 75.6715 38.8688 72.5002 28.9545 72.5002C19.0403 72.5002 11.0035 75.6715 11.0035 79.5852Z" fill="#F9A84C"/>
<path d="M11.0035 79.5852H10.9157C10.9237 81.6072 12.9718 83.3844 16.229 84.6741C19.4912 85.9607 23.9874 86.7538 28.9545 86.7538C33.9227 86.7538 38.4179 85.9607 41.6801 84.6741C44.9383 83.3844 46.9854 81.6072 46.9934 79.5852C46.9854 77.5622 44.9373 75.783 41.6801 74.4954C38.4179 73.2097 33.9227 72.4146 28.9545 72.4146C23.9884 72.4146 19.4912 73.2097 16.229 74.4954C12.9708 75.783 10.9237 77.5622 10.9157 79.5852H11.0035H11.0893C11.0823 77.6945 13.0536 75.9323 16.2938 74.6566C19.5281 73.3789 24.0064 72.5878 28.9545 72.5878C33.9027 72.5878 38.381 73.3789 41.6162 74.6566C44.8575 75.9323 46.8268 77.6945 46.8218 79.5852C46.8268 81.4749 44.8575 83.2362 41.6162 84.5129C38.382 85.7896 33.9027 86.5816 28.9545 86.5816C24.0074 86.5816 19.5281 85.7896 16.2938 84.5129C13.0536 83.2362 11.0823 81.4749 11.0893 79.5852H11.0035Z" fill="#7C4317"/>
<path d="M11.5721 79.4479C11.5721 82.9834 19.3366 85.8493 28.9167 85.8493C38.4937 85.8493 46.2591 82.9834 46.2591 79.4479C46.2591 75.9133 38.4947 73.0475 28.9167 73.0475C19.3366 73.0475 11.5721 75.9133 11.5721 79.4479Z" fill="#C7883C"/>
<path d="M11.5721 79.4479H11.4844C11.4953 81.2868 13.4756 82.8919 16.6211 84.0541C19.7725 85.2184 24.1171 85.9358 28.9157 85.9358C33.7142 85.9358 38.0578 85.2184 41.2082 84.0541C44.3537 82.8919 46.335 81.2868 46.343 79.4479C46.334 77.609 44.3537 76.0059 41.2082 74.8426C38.0578 73.6784 33.7132 72.9609 28.9157 72.9609C24.1161 72.9609 19.7725 73.6784 16.6211 74.8426C13.4756 76.0059 11.4944 77.609 11.4844 79.4479H11.5721H11.6579C11.649 77.7503 13.5514 76.1541 16.6819 75.0028C19.8075 73.8495 24.1361 73.1351 28.9167 73.1351C33.6962 73.1351 38.0249 73.8495 41.1494 75.0028C44.2799 76.1541 46.1813 77.7503 46.1724 79.4479C46.1813 81.1445 44.2799 82.7416 41.1494 83.8929C38.0249 85.0462 33.6962 85.7637 28.9167 85.7637C24.1361 85.7637 19.8075 85.0462 16.6819 83.8929C13.5514 82.7416 11.649 81.1445 11.6579 79.4479H11.5721Z" fill="#7C4317"/>
<path d="M40.0659 78.5035C40.0659 78.5035 40.3882 77.6816 37.5908 76.6716C34.7945 75.6606 34.1551 77.4418 34.1551 77.4418C34.1551 77.4418 34.2449 76.6766 32.7405 75.7163C31.239 74.7541 29.0134 76.3094 29.0134 76.3094C26.5752 75.1949 24.7436 77.6925 24.7436 77.6925C22.5089 75.4725 18.718 77.6567 18.718 77.6567C14.8702 76.8268 13.9265 79.9594 13.9265 79.9594C12.9827 79.9225 12.2814 80.239 11.7617 80.6778C13.6541 83.465 20.3671 85.6492 28.4078 85.8433C37.1 86.0532 44.3537 83.8661 45.6835 80.8161C44.7048 79.827 42.9231 79.5235 42.9231 79.5235C42.0542 78.2667 40.0659 78.5035 40.0659 78.5035Z" fill="#584521"/>
<path d="M40.1487 78.5235C40.4251 77.5791 38.1336 76.8438 37.6218 76.6467C36.5563 76.2328 34.8474 76.0347 34.1731 77.2209C34.0753 77.393 34.1052 77.3811 34.1511 77.3662C34.187 77.3562 34.2319 77.3473 34.2399 77.4189C34.21 77.1313 34.0773 76.9234 33.9247 76.6865C33.4957 76.0148 32.7046 75.575 31.9514 75.3909C31.275 75.2267 30.5068 75.5093 29.8903 75.7561C29.5721 75.8845 29.2678 76.0636 28.9785 76.2477C29.0972 76.1731 27.8991 75.9949 28.0377 76.0009C27.1708 75.9681 26.4705 76.184 25.7362 76.6517C25.413 76.8547 25.1357 77.1343 24.8743 77.41C24.5261 77.7781 24.4872 77.3164 24.0423 77.1104C22.4122 76.3591 20.6973 76.6816 19.1031 77.3891C18.6921 77.5722 18.328 77.5363 17.9389 77.4985C17.7025 77.4776 17.458 77.4537 17.1867 77.4806C16.3158 77.5672 15.5905 77.8169 14.9052 78.3672C14.4612 78.7254 14.132 79.2459 13.9046 79.7633C13.8178 79.9653 12.0759 80.3554 11.6819 80.646L11.6839 80.6738C13.0955 82.6023 15.5566 83.5427 17.7494 84.2551C21.1822 85.3736 24.8494 85.7706 28.4438 85.8821C32.1988 85.9985 36.0087 85.6413 39.637 84.6532C41.8307 84.0581 44.6939 83.0292 45.7683 80.838L45.7483 80.8062C44.8166 80.0031 43.6035 79.8628 42.6967 79.1802C41.9125 78.5911 40.9887 78.3712 40.0121 78.4618C39.9233 78.4697 40.0759 78.5434 40.1188 78.5394C41.2391 78.4329 42.0881 79.3762 43.1496 79.6051C44.0814 79.8061 46.0307 80.2897 45.1957 81.4719C44.8974 81.8938 44.4824 82.2272 44.0784 82.5376C41.3619 84.6363 37.3844 85.2124 34.0873 85.5836C29.5431 86.093 24.8583 85.8244 20.39 84.884C18.4606 84.477 16.5682 83.872 14.7964 83.0033C14.116 82.669 13.4816 82.254 12.886 81.7903C12.6386 81.5893 12.4101 81.3714 12.1996 81.1356C11.3347 80.2221 13.8776 79.9982 13.9624 79.9952L14.0123 79.9773C14.6657 77.9483 16.7907 77.3532 18.733 77.6916C18.9176 77.7224 19.3176 77.4269 19.4752 77.3552C21.1612 76.6059 23.1604 76.389 24.6788 77.6985L24.8224 77.7194C25.0549 77.4159 25.3332 77.1592 25.6225 76.9114C26.7887 75.9133 27.4282 76.3074 29.0493 76.3462C29.3316 76.3532 29.7606 75.9532 30.029 75.8268C31.3079 75.2228 34.1172 75.6875 34.0733 77.4199L34.2419 77.4637C34.4933 76.8398 35.1168 76.5442 35.7423 76.4208C35.2964 76.5084 40.4221 76.9771 39.9861 78.4777L40.1487 78.5235Z" fill="#403215"/>
<path d="M18.9455 78.2558C18.9455 78.2558 15.8469 77.7164 15.2483 79.3544C14.6527 80.9913 12.6485 80.1066 13.9355 81.5236C15.2224 82.9387 17.2166 83.0083 18.1154 82.2431C19.0153 81.4769 19.3355 80.3942 21.1223 80.5425C22.909 80.6937 21.7987 79.2708 20.7422 79.2558C19.6857 79.2389 21.655 77.9105 22.5079 77.8159C23.3629 77.7174 20.6843 76.7741 18.9455 78.2558Z" fill="#6C562B"/>
<path d="M26.6859 79.8778C26.6859 79.8778 25.9816 79.0309 23.8896 78.9802C21.7956 78.9304 22.9898 79.7743 22.891 80.1743C22.7932 80.5743 24.1839 81.3684 24.1839 81.3684C24.1839 81.3684 24.7745 79.9763 26.6859 79.8778Z" fill="#6C562B"/>
<path d="M25.7632 77.9503C25.5497 77.9383 27.0531 76.3134 28.5884 76.8179C29.2828 77.0467 29.9352 76.8796 30.5517 76.7084C31.2989 76.5034 31.9983 76.2994 32.6707 76.796C33.8997 77.7095 33.354 78.4627 33.354 78.4627C33.354 78.4627 29.4683 78.4219 29.0972 80.1096C29.0972 80.1096 27.933 78.0916 25.7632 77.9503Z" fill="#6C562B"/>
<path d="M36.0486 79.8549C36.0107 79.8638 35.6974 79.8091 35.2365 79.7534C33.9646 79.6011 31.5643 79.4479 30.7173 80.639C30.7173 80.639 30.2395 80.9873 31.1593 81.7415C32.0811 82.4968 32.7515 82.7157 32.7275 83.6531C32.7275 83.6531 33.9676 80.9415 38.812 82.1217C43.6564 83.3018 44.2051 81.2271 43.2214 80.636C42.2368 80.0459 40.2815 80.8679 40.2815 80.8679C40.2815 80.8679 39.5323 79.0479 36.0486 79.8549Z" fill="#6C562B"/>
<path d="M38.8748 78.3254C38.8748 78.3254 37.8183 77.0706 36.3738 77.3572C34.9273 77.6458 39.2799 79.624 38.8748 78.3254Z" fill="#775E30"/>
<path d="M30.2754 83.1028C30.2754 83.1028 28.6921 81.851 26.6221 82.4471C26.6221 82.4471 26.4455 84.479 25.9686 84.4482C25.4878 84.4183 24.7266 81.4818 22.2176 81.7246C19.7066 81.9634 18.5963 82.9914 19.6318 83.8362C20.6673 84.681 25.6105 85.7089 28.6064 85.4582C31.6042 85.2064 31.0196 83.8899 30.2754 83.1028Z" fill="#6C562B"/>
<path d="M36.8527 83.0501C36.8527 83.0501 34.7756 82.7953 33.8359 84.0312C32.8961 85.2671 37.2188 85.0203 38.7601 84.2969C40.3054 83.5745 37.0871 83.066 36.8527 83.0501Z" fill="#6C562B"/>
<path d="M29.9213 73.5948C22.1239 73.5948 16.3577 75.7253 16.3577 75.7253C15.2454 76.3223 16.2759 77.1672 17.8372 77.1672C18.5275 77.1672 19.3276 77.002 20.0908 76.5711C20.7233 76.2159 21.3079 76.0944 21.8426 76.0944C22.3823 76.0944 22.8721 76.2178 23.3111 76.3383C23.748 76.4597 24.1331 76.5801 24.4653 76.5801C24.7616 76.5801 25.015 76.4845 25.2245 76.2039C25.6505 75.6317 26.4585 75.4795 27.1978 75.4795C28.0328 75.4795 28.779 75.6725 28.779 75.6725C28.779 75.6725 28.9506 74.9292 31.2212 74.9292C31.3359 74.9292 31.4566 74.9312 31.5823 74.9372C34.1941 75.0198 34.5273 76.2696 34.5273 76.2696C34.7377 75.4725 36.6053 75.5183 36.8916 74.8128C37.1789 74.1083 36.0935 74.0595 36.0935 74.0595C33.9476 73.7291 31.8716 73.5948 29.9213 73.5948Z" fill="#D09C5D"/>
<path d="M18.9904 78.8618C18.9266 78.7384 18.0946 78.215 16.5562 78.8031C15.0149 79.3921 15.8749 80.1922 17.055 80.0071C18.2332 79.82 19.2139 79.2966 18.9904 78.8618Z" fill="#7C6232"/>
<path d="M24.9681 79.3404C24.9681 79.3404 23.9056 79.1404 24.0912 79.5673C24.2747 79.9942 26.0265 79.5414 24.9681 79.3404Z" fill="#7C6232"/>
<path d="M33.0139 77.9284C33.0139 77.9284 32.6048 76.6417 31.28 76.8358C29.9552 77.0268 32.955 78.7006 33.0139 77.9284Z" fill="#7C6232"/>
<path d="M39.7817 80.8569C39.7817 80.8569 37.2607 79.5573 37.2607 80.7972C37.2597 82.0341 40.7284 81.7485 39.7817 80.8569Z" fill="#7C6232"/>
<path d="M33.0132 84.6323C32.9572 84.6373 32.9022 84.6413 32.8472 84.6483C32.8732 84.6543 32.9022 84.6573 32.9322 84.6573C32.9472 84.6573 32.9632 84.6553 32.9822 84.6543C32.9912 84.6533 33.0002 84.6453 33.0132 84.6323Z" fill="#463618"/>
<path d="M46.2591 82.256C45.4002 86.1607 38.1406 89.3211 38.1406 89.3211C38.1406 89.3211 42.3056 87.9558 43.9277 86.9807C45.5518 86.0045 46.0626 84.2004 46.0626 84.2004L46.2591 82.256Z" fill="#DE9225"/>
<path d="M17.9978 79.3324C17.9978 79.3324 16.8645 78.2777 15.6314 79.4618C14.3994 80.648 15.0289 81.6988 16.3258 81.5744C17.6227 81.447 19.2976 80.3703 17.9978 79.3324Z" fill="#584521"/>
<path d="M18.0736 79.3145C17.6127 78.8986 16.9443 78.7792 16.3577 78.9464C15.5446 79.1772 14.4063 80.4101 15.0947 81.248C15.6444 81.9147 16.8545 81.5734 17.496 81.2868C17.91 81.1037 18.319 80.8121 18.5045 80.3852C18.6871 79.9603 18.3758 79.5772 18.0736 79.3145L17.9229 79.3484C18.6183 79.9464 18.3918 80.5982 17.6945 81.0629C17.0251 81.5077 15.6813 81.9018 15.1546 81.0838C14.6617 80.3216 15.7481 79.3245 16.3377 79.0498C16.8575 78.806 17.5109 78.9742 17.9229 79.3484L18.0736 79.3145Z" fill="#403215"/>
<path d="M18.2585 79.7603C18.2345 79.8469 18.1855 79.9663 18.0945 80.0927C18.1795 80.0977 18.2636 80.1156 18.3436 80.1454C18.3496 80.0181 18.3225 79.8887 18.2585 79.7603Z" fill="#54401D"/>
<path d="M18.2862 79.619C18.2862 79.619 18.2832 79.6758 18.2592 79.7613C18.3222 79.8897 18.3501 80.0191 18.3441 80.1464C18.3861 80.1624 18.4252 80.1803 18.4632 80.1992C18.4842 80.0111 18.4332 79.8161 18.2862 79.619Z" fill="#3D2E12"/>
<path d="M15.0329 80.5793C15.0159 80.7514 15.0499 80.9246 15.1546 81.0838C15.3781 81.4311 15.7482 81.5604 16.1512 81.5604C16.4904 81.5604 16.8545 81.4669 17.1738 81.3366C17.0391 81.1256 17.076 80.8788 17.1997 80.6609C17.1369 80.6778 17.0691 80.6927 16.9972 80.7077C16.9972 80.7077 16.4315 81.0141 15.9138 81.0141C15.7831 81.0141 15.6534 80.9932 15.5397 80.9435C15.2444 80.8161 15.0778 80.7146 15.0329 80.5793Z" fill="#54401D"/>
<path d="M15.1835 80.0181C14.6607 80.8937 15.1625 81.5843 16.1202 81.5843C16.1861 81.5843 16.2569 81.5813 16.3268 81.5734C16.6091 81.5455 16.9094 81.4729 17.1927 81.3654C17.1857 81.3545 17.1797 81.3455 17.1747 81.3355C16.8555 81.4659 16.4904 81.5594 16.1522 81.5594C15.7491 81.5594 15.379 81.4301 15.1556 81.0828C15.0508 80.9236 15.0169 80.7504 15.0339 80.5783C14.994 80.4529 15.0508 80.2987 15.2044 80.0648L15.1835 80.0181Z" fill="#3D2E12"/>
<path d="M16.9812 79.1772C16.2499 79.1772 15.6713 79.9176 15.6713 79.9176C15.5596 80.0708 15.5127 80.1813 15.5127 80.2559C15.5127 80.3624 15.6075 80.4032 15.7401 80.4032C16.0055 80.4032 16.4285 80.2439 16.5911 80.1395C16.8206 79.9902 17.6496 79.7345 17.6466 79.4787C17.6456 79.3991 17.5618 79.3175 17.3443 79.2409C17.2216 79.1951 17.0989 79.1772 16.9812 79.1772Z" fill="#654E21"/>
<path d="M18.5924 80.3544C18.5924 80.3544 18.0198 79.7981 17.4611 80.435C16.9014 81.0728 17.2336 81.6321 17.8541 81.5564C18.4717 81.4818 19.2468 80.8977 18.5924 80.3544Z" fill="#584521"/>
<path d="M18.6692 80.3405C18.4657 80.1534 18.1315 80.036 17.8561 80.1146C17.3743 80.2529 16.8216 80.9485 17.2326 81.4142C17.7913 82.047 19.5092 81.1226 18.6692 80.3405L18.5176 80.3663C19.2927 81.0878 17.7215 81.9326 17.3155 81.2908C17.098 80.9475 17.473 80.4858 17.7205 80.2838C17.9689 80.0857 18.3051 80.1693 18.5176 80.3663L18.6692 80.3405Z" fill="#403215"/>
<path d="M41.1992 81.3465C41.1992 81.3465 40.0659 80.2947 38.8339 81.4808C37.6018 82.663 38.2323 83.7158 39.5272 83.5894C40.8251 83.462 42.5001 82.3844 41.1992 81.3465Z" fill="#584521"/>
<path d="M41.2661 81.3435C40.8362 80.9554 40.2206 80.8052 39.66 80.9176C38.805 81.0898 37.5969 82.3854 38.3072 83.2471C38.8639 83.9257 40.047 83.6113 40.7035 83.3197C41.1175 83.1347 41.5205 82.8451 41.7051 82.4202C41.8876 81.9953 41.5664 81.6052 41.2661 81.3435C41.2332 81.3157 41.0656 81.2918 41.1334 81.3495C42.7905 82.7724 39.0005 84.4422 38.3142 83.0451C37.953 82.3097 38.8758 81.449 39.4295 81.1355C39.9662 80.8291 40.6835 80.9425 41.1334 81.3495C41.1654 81.3793 41.333 81.4052 41.2661 81.3435Z" fill="#403215"/>
<path d="M41.4656 81.7595C41.4017 82.0023 41.1523 82.5416 40.2006 82.7217C40.2006 82.7217 39.634 83.0292 39.1142 83.0292C39.0753 83.0292 39.0354 83.0272 38.9955 83.0232C38.8329 83.0819 38.6424 83.1337 38.4099 83.1964C38.6184 83.4601 38.9676 83.5735 39.3596 83.5735C40.467 83.5735 41.9125 82.6789 41.4656 81.7595Z" fill="#54401D"/>
<path d="M41.4886 81.6361C41.4886 81.6361 41.4846 81.6838 41.4657 81.7595C41.9126 82.6789 40.4671 83.5725 39.3607 83.5725C38.9676 83.5725 38.6195 83.4591 38.411 83.1954C38.391 83.2013 38.3691 83.2083 38.3471 83.2143C38.5396 83.4551 38.8828 83.6004 39.3208 83.6004C39.3876 83.6004 39.4575 83.5964 39.5293 83.5894C40.7055 83.475 42.1929 82.5784 41.4886 81.6361Z" fill="#3D2E12"/>
<path d="M40.1836 81.1943C40.0629 81.1943 39.9462 81.2142 39.8335 81.249C40.1428 81.3943 40.3004 81.6002 40.1178 81.9336C40.1019 81.9625 40.0859 81.9913 40.0699 82.0182C40.3991 81.8729 40.8511 81.6838 40.8481 81.4968C40.8481 81.4152 40.7633 81.3346 40.5458 81.2569C40.4221 81.2122 40.3014 81.1943 40.1836 81.1943Z" fill="#654E21"/>
<path d="M41.7958 82.3704C41.7958 82.3704 41.2212 81.8142 40.6625 82.453C40.1029 83.0909 40.4361 83.6491 41.0566 83.5745C41.6741 83.4979 42.4472 82.9138 41.7958 82.3704Z" fill="#584521"/>
<path d="M41.8727 82.3655C41.6731 82.1784 41.3329 82.049 41.0616 82.1257C40.6466 82.2451 40.0011 82.9327 40.3942 83.3785C40.9947 84.0601 42.7176 83.1526 41.8727 82.3655L41.72 82.3774C42.5001 83.1058 40.912 83.9397 40.5169 83.3158C40.3423 83.0391 40.5757 82.6829 40.7433 82.4749C40.9957 82.1655 41.4267 82.1038 41.72 82.3774L41.8727 82.3655Z" fill="#403215"/>
<path d="M11.7786 82.4978C11.7786 82.4978 11.7846 84.3268 11.9642 84.7397C12.1408 85.1527 12.6475 85.8483 12.6475 85.8483C17.2026 89.3201 24.3466 90.0107 29.3755 90.0107C32.5968 90.0107 34.9512 89.7291 35.2046 89.7132C35.85 89.6724 35.5956 86.9419 35.5956 86.9419C32.9988 87.1996 30.6734 87.312 28.5904 87.312C14.952 87.312 11.7786 82.4978 11.7786 82.4978Z" fill="#FAB64F"/>
<path d="M24.811 77.4716C24.727 77.4886 24.643 77.5056 24.558 77.5236C24.56 77.5256 24.563 77.5266 24.566 77.5286C24.59 77.5446 24.6181 77.5506 24.6461 77.5506C24.6931 77.5506 24.746 77.5276 24.811 77.4716Z" fill="#875723"/>
<path d="M21.4954 84.6154C21.5273 84.6283 21.5592 84.6442 21.5921 84.6591C22.1887 84.9288 22.9429 85.0582 23.741 85.1219C22.9279 84.9786 22.1548 84.8044 21.4954 84.6154ZM24.558 77.5224H24.5551C24.5581 77.5244 24.563 77.5254 24.566 77.5274C24.563 77.5254 24.56 77.5244 24.558 77.5224ZM24.1839 81.3684C24.1839 81.3684 22.7943 80.5743 22.891 80.1743C22.9858 79.7852 21.8625 78.9782 23.719 78.9782C23.7739 78.9782 23.8288 78.9782 23.8897 78.9802C25.9817 79.0319 26.6859 79.8778 26.6859 79.8778C24.7745 79.9763 24.1839 81.3684 24.1839 81.3684ZM24.1869 81.5445C24.4194 81.5445 24.6409 81.3793 24.6409 81.3793C25.2304 80.5534 27.5698 80.9236 27.3853 80.0678C27.1997 79.215 23.7909 78.1413 23.7909 78.1413C23.9286 78.1304 24.0612 78.1264 24.1919 78.1264C27.515 78.1264 29.2149 80.8748 29.2149 80.8748C29.8673 79.5922 31.7937 79.2538 32.6696 79.2538C33.1934 79.2538 33.34 79.3762 32.6048 79.4887C30.6405 79.7882 29.9352 81.4171 29.9352 81.4171C31.4526 81.855 32.5908 83.6929 32.09 83.6929C31.9354 83.6929 31.6271 83.5208 31.1273 83.0809C30.0499 82.1306 28.3879 81.861 27.1259 81.861C25.8978 81.861 25.0489 82.1157 25.4818 82.25C26.3587 82.5187 26.0475 84.1357 26.0475 84.1357C25.7921 82.5267 23.2761 81.5027 23.2761 81.5027C22.7244 81.3823 22.2386 81.3296 21.8086 81.3296C20.815 81.3296 20.1266 81.6072 19.6608 81.9455C19.3465 82.253 19.0363 82.6451 18.738 83.1406C18.738 83.1406 18.9365 82.47 19.6608 81.9455C20.4599 81.1644 21.2849 80.9256 22.0012 80.9256C23.0586 80.9256 23.8767 81.447 24.0193 81.5117C24.0732 81.5356 24.1301 81.5445 24.1869 81.5445ZM26.3448 77.3114C25.9407 77.3124 25.5127 77.3552 25.0728 77.4279C24.985 77.5214 24.9002 77.6179 24.8204 77.7224L24.6768 77.7015C24.6119 77.6448 24.5451 77.5921 24.4772 77.5413C23.1734 77.8169 21.8326 78.2936 20.807 78.6429C20.411 78.9593 20.2524 79.2479 20.7412 79.2558C21.7448 79.2698 22.7973 80.5544 21.3687 80.5544C21.2939 80.5544 21.21 80.5504 21.1213 80.5425C21.0085 80.5345 20.9008 80.5295 20.8 80.5295C19.2916 80.5295 18.9574 81.5256 18.1154 82.2431C17.9588 82.3774 17.7693 82.4849 17.5548 82.5655C17.7204 82.7098 17.9369 82.8521 18.2012 82.9934C18.735 83.277 19.0961 83.47 19.4333 83.6422C18.7719 82.8401 19.8952 81.9445 22.2167 81.7236C22.3164 81.7137 22.4112 81.7077 22.5059 81.7077C24.7855 81.7077 25.5068 84.4183 25.9677 84.4472H25.9787C26.4485 84.4472 26.6221 82.4461 26.6221 82.4461C27.0202 82.3326 27.4013 82.2849 27.7554 82.2849C29.2438 82.2849 30.2754 83.1018 30.2754 83.1018C30.8919 83.7546 31.3997 84.7716 29.8474 85.2423C30.2105 85.1716 30.5866 85.0791 30.9787 84.9855C31.5653 84.8492 32.1868 84.7119 32.8472 84.6462C32.2497 84.5019 32.9779 82.7426 35.5707 82.2431C36.0106 82.1575 36.4276 82.1217 36.8207 82.1217C37.3115 82.1217 37.7625 82.1784 38.1615 82.267C38.1914 82.1774 38.2323 82.0898 38.2812 82.0042C37.6348 81.8769 37.0581 81.8221 36.5474 81.8221C33.5645 81.8221 32.7285 83.6521 32.7285 83.6521C32.7514 82.7157 32.082 82.4958 31.1603 81.7405C30.2395 80.9853 30.7183 80.638 30.7183 80.638C31.281 79.8479 32.525 79.6509 33.6702 79.6509C34.2518 79.6509 34.8095 79.7016 35.2375 79.7524C35.6655 79.8041 35.9658 79.8559 36.0366 79.8559C36.0416 79.8559 36.0466 79.8559 36.0496 79.8539C36.296 79.7972 36.5274 79.7534 36.7469 79.7215C35.6236 79.3593 33.8738 79.0459 33.6403 78.4478C33.5994 78.3413 33.5376 78.2558 33.4597 78.1851C33.4278 78.3593 33.353 78.4608 33.353 78.4608C33.353 78.4608 33.346 78.4608 33.3311 78.4608C33.0148 78.4608 29.4523 78.4956 29.0972 80.1076C29.0972 80.1076 27.933 78.0896 25.7632 77.9483C25.6684 77.9453 25.9108 77.6219 26.3448 77.3114Z" fill="#3C2C13"/>
<path d="M25.0718 77.4279C24.985 77.4418 24.8972 77.4557 24.8094 77.4716C24.7456 77.5284 24.6927 77.5503 24.6448 77.5503C24.6169 77.5503 24.5889 77.5433 24.565 77.5284C24.562 77.5264 24.557 77.5254 24.554 77.5234C24.5291 77.5284 24.5021 77.5343 24.4762 77.5413C24.544 77.5921 24.6109 77.6458 24.6757 77.7015L24.8194 77.7224C24.8992 77.6179 24.985 77.5204 25.0718 77.4279Z" fill="#2B200C"/>
<path d="M20.807 78.6419C20.5177 78.7434 20.2553 78.8309 20.0239 78.9026C18.3609 79.425 20.0438 79.7673 18.7908 80.4778C19.1849 81.038 18.4008 81.6241 17.7653 81.6241C17.5857 81.6241 17.4171 81.5774 17.2914 81.4719C17.042 81.8421 17.1438 82.2073 17.5558 82.5655C17.7703 82.4849 17.9588 82.3774 18.1164 82.2431C18.9594 81.5256 19.2936 80.5295 20.801 80.5295C20.9028 80.5295 21.0095 80.5345 21.1222 80.5425C21.211 80.5504 21.2948 80.5544 21.3697 80.5544C22.7982 80.5544 21.7458 79.2698 20.7422 79.2558C20.2523 79.2479 20.412 78.9593 20.807 78.6419Z" fill="#493719"/>
<path d="M24.5641 79.7444C24.3446 79.7444 24.1461 79.6937 24.0912 79.5663C23.9954 79.3464 24.2318 79.2926 24.4812 79.2926C24.7167 79.2926 24.9681 79.3404 24.9681 79.3404C25.7083 79.4807 25.0748 79.7444 24.5641 79.7444ZM23.7191 78.9772C21.8625 78.9772 22.9858 79.7852 22.8911 80.1733C22.7933 80.5733 24.1839 81.3674 24.1839 81.3674C24.1839 81.3674 24.7755 79.9763 26.686 79.8768C26.686 79.8768 25.9817 79.0299 23.8897 78.9792C23.8288 78.9772 23.7739 78.9772 23.7191 78.9772Z" fill="#493719"/>
<path d="M26.3668 77.3114C26.3588 77.3114 26.3508 77.3114 26.3448 77.3114C25.9109 77.6229 25.6684 77.9463 25.7632 77.9513C27.933 78.0926 29.0972 80.1106 29.0972 80.1106C29.4534 78.4986 33.0148 78.4637 33.3311 78.4637C33.3471 78.4637 33.353 78.4637 33.353 78.4637C33.353 78.4637 33.4269 78.3612 33.4598 78.1881C33.3401 78.0777 33.1835 78.008 33.0099 77.9632C32.9849 78.0816 32.8762 78.1314 32.7235 78.1314C32.532 78.1314 32.2686 78.0548 32.0033 77.9373C31.6661 77.9791 31.4137 78.0458 31.4137 78.0458C30.45 77.7413 29.6918 78.1971 27.6168 77.4896C27.2457 77.3642 26.8227 77.3114 26.3668 77.3114Z" fill="#493719"/>
<path d="M33.6703 79.6519C32.525 79.6519 31.28 79.8489 30.7184 80.639C30.7184 80.639 30.2405 80.9873 31.1603 81.7415C32.0821 82.4968 32.7525 82.7157 32.7286 83.6531C32.7286 83.6531 33.5646 81.8231 36.5474 81.8231C37.0592 81.8231 37.6348 81.8779 38.2813 82.0052C38.3571 81.8699 38.4509 81.7416 38.5556 81.6221C37.9002 81.5784 37.2587 81.3286 37.2597 80.7962C37.2597 80.4718 37.4323 80.3216 37.6887 80.2778C37.6388 80.0609 37.2567 79.8857 36.746 79.7225C36.5265 79.7544 36.295 79.7982 36.0486 79.8549C36.0456 79.8569 36.0406 79.8569 36.0356 79.8569C35.9658 79.8569 35.6645 79.8051 35.2366 79.7534C34.8086 79.7026 34.2509 79.6519 33.6703 79.6519Z" fill="#493719"/>
<path d="M22.5069 81.7087C22.4121 81.7087 22.3174 81.7147 22.2176 81.7246C19.8961 81.9455 18.7729 82.8411 19.4343 83.6432C19.977 83.9178 20.4578 84.1427 21.4953 84.6173C22.1547 84.8054 22.9269 84.9796 23.741 85.1238C25.3242 85.2492 27.082 85.1159 28.1225 85.3169C28.318 85.3557 28.5185 85.3716 28.724 85.3716C29.0852 85.3716 29.4583 85.3199 29.8484 85.2452C31.4006 84.7736 30.8928 83.7576 30.2763 83.1048C30.2763 83.1048 29.2448 82.2878 27.7563 82.2878C27.4032 82.2878 27.0221 82.3356 26.6231 82.4491C26.6231 82.4491 26.4495 84.4502 25.9796 84.4502H25.9686C25.5077 84.4183 24.7865 81.7087 22.5069 81.7087Z" fill="#493719"/>
<path d="M24.4812 79.2926C24.2318 79.2926 23.9964 79.3474 24.0912 79.5663C24.146 79.6937 24.3445 79.7444 24.564 79.7444C25.0758 79.7444 25.7083 79.4807 24.968 79.3404C24.968 79.3404 24.7166 79.2926 24.4812 79.2926Z" fill="#543F1C"/>
<path d="M32.4751 77.9045C32.3115 77.9045 32.1489 77.9184 32.0023 77.9354C32.2676 78.0528 32.53 78.1294 32.7226 78.1294C32.8752 78.1294 32.9839 78.0796 33.0089 77.9612C32.8413 77.9204 32.6567 77.9045 32.4751 77.9045Z" fill="#543F1C"/>
<path d="M37.6896 80.2778C37.4333 80.3226 37.2607 80.4718 37.2607 80.7962C37.2597 81.3286 37.9012 81.5784 38.5566 81.6221C38.7631 81.3873 39.0165 81.1903 39.2669 81.0609C38.5197 80.8778 37.6068 80.7793 37.6896 80.3663C37.6956 80.3355 37.6956 80.3056 37.6896 80.2778Z" fill="#543F1C"/>
<path d="M19.6608 81.9455C18.9365 82.4699 18.738 83.1406 18.738 83.1406C19.0373 82.6451 19.3465 82.253 19.6608 81.9455ZM24.1929 78.1264C24.0612 78.1264 23.9285 78.1304 23.7919 78.1413C23.7919 78.1413 27.2007 79.215 27.3863 80.0678C27.5708 80.9236 25.2314 80.5534 24.6418 81.3793C24.6418 81.3793 24.4204 81.5445 24.1879 81.5445C24.1311 81.5445 24.0752 81.5346 24.0213 81.5107C23.8777 81.447 23.0596 80.9246 22.0031 80.9246C21.2869 80.9246 20.4619 81.1634 19.6628 81.9445C20.1296 81.6062 20.817 81.3286 21.8106 81.3286C22.2406 81.3286 22.7264 81.3813 23.2781 81.5017C23.2781 81.5017 25.7941 82.5257 26.0495 84.1347C26.0495 84.1347 26.3607 82.5177 25.4838 82.249C25.0509 82.1147 25.9008 81.86 27.1279 81.86C28.3899 81.86 30.0519 82.1296 31.1293 83.0799C31.6291 83.5198 31.9374 83.6919 32.092 83.6919C32.5928 83.6919 31.4535 81.854 29.9372 81.4162C29.9372 81.4162 30.6425 79.7872 32.6068 79.4877C33.342 79.3752 33.1964 79.2528 32.6716 79.2528C31.7957 79.2528 29.8693 79.5912 29.2169 80.8738C29.2169 80.8738 27.516 78.1264 24.1929 78.1264Z" fill="#2F230E"/>
<path d="M37.3105 82.7247C34.178 82.7247 33.2213 84.4203 33.0128 84.6323C33.2153 84.6154 33.4218 84.6064 33.6323 84.6064C33.6852 84.6064 33.7371 84.6064 33.791 84.6094C33.8089 84.6104 33.8279 84.6104 33.8468 84.6104C33.6692 84.4731 33.6443 84.284 33.8349 84.0322C34.5003 83.1576 35.7343 83.0292 36.3977 83.0292C36.6741 83.0292 36.8516 83.0501 36.8516 83.0501C36.9454 83.0561 37.519 83.1416 38.0717 83.2879C38.1475 83.267 38.2194 83.2471 38.2892 83.2282C38.1745 83.0809 38.1136 82.9197 38.0957 82.7565C37.8203 82.7356 37.559 82.7247 37.3105 82.7247Z" fill="#3C2C13"/>
<path d="M36.3988 83.0292C35.7354 83.0292 34.5013 83.1576 33.8359 84.0322C33.6454 84.284 33.6703 84.473 33.8479 84.6104C33.8967 84.6104 33.9456 84.6104 33.9925 84.6104C36.0735 84.6104 36.1683 83.8382 37.6897 83.3974C37.8273 83.3546 37.955 83.3217 38.0727 83.2889C37.5201 83.1426 36.9464 83.057 36.8527 83.0511C36.8527 83.0511 36.6751 83.0292 36.3988 83.0292Z" fill="#493719"/>
<path d="M36.8217 82.1227C36.4286 82.1227 36.0126 82.1585 35.5717 82.2441C32.9779 82.7436 32.2506 84.5029 32.8482 84.6472C32.9031 84.6402 32.9579 84.6363 33.0138 84.6313C33.2223 84.4193 34.179 82.7237 37.3115 82.7237C37.5599 82.7237 37.8213 82.7347 38.0966 82.7565C38.0797 82.5943 38.1056 82.4282 38.1625 82.267C37.7634 82.1794 37.3125 82.1227 36.8217 82.1227Z" fill="#2F230E"/>
<path d="M18.6632 80.5455C18.6143 80.5684 18.5614 80.5952 18.5066 80.6201C17.9599 80.8689 17.5858 81.1176 17.3743 81.3654C17.478 81.4719 17.6247 81.5177 17.7833 81.5177C18.2981 81.5186 18.9415 81.0331 18.6632 80.5455Z" fill="#3C2C13"/>
<path d="M18.7908 80.4778C18.7509 80.4987 18.7091 80.5236 18.6632 80.5455C18.9415 81.0321 18.299 81.5187 17.7833 81.5187C17.6247 81.5187 17.477 81.4719 17.3743 81.3664C17.3423 81.4002 17.3164 81.4371 17.2914 81.4729C17.4171 81.5784 17.5857 81.6251 17.7653 81.6251C18.4008 81.6251 19.1839 81.039 18.7908 80.4778Z" fill="#2B200C"/>
<path d="M39.4664 81.1156C39.4534 81.1216 39.4415 81.1286 39.4295 81.1356C38.9856 81.3873 38.3022 81.9913 38.2383 82.6013C38.2872 82.7356 38.4518 82.8351 38.7421 82.9595C38.822 82.9924 38.9087 83.0153 38.9965 83.0222C39.4784 82.8531 39.7218 82.6411 40.071 82.0172C39.9552 82.0699 39.8545 82.1177 39.7936 82.1545C39.631 82.26 39.209 82.4182 38.9437 82.4182C38.809 82.4182 38.7142 82.3784 38.7142 82.2709C38.7142 82.1963 38.7621 82.0848 38.8748 81.9336C38.8748 81.9336 39.2759 81.4182 39.8335 81.249C39.7258 81.1972 39.6011 81.1535 39.4664 81.1156Z" fill="#3C2C13"/>
<path d="M39.2669 81.0609C39.0165 81.1913 38.7631 81.3873 38.5566 81.6221C38.4519 81.7416 38.3581 81.8699 38.2823 82.0052C38.2334 82.0908 38.1925 82.1784 38.1625 82.268C38.1047 82.4292 38.0798 82.5953 38.0967 82.7575C38.1157 82.9207 38.1755 83.0809 38.2903 83.2292C38.3102 83.2242 38.3291 83.2182 38.3471 83.2143C38.1186 82.9287 38.1027 82.5068 38.386 82.0321L38.404 82.0819C38.2513 82.3177 38.1925 82.4759 38.2384 82.6003C38.3022 81.9913 38.9856 81.3863 39.4295 81.1345C39.4415 81.1266 39.4545 81.1196 39.4664 81.1146C39.4026 81.0957 39.3348 81.0788 39.2669 81.0609Z" fill="#2B200C"/>
<path d="M38.2383 82.6013C38.2223 82.7496 38.2443 82.8998 38.3141 83.0451C38.342 83.1008 38.374 83.1496 38.4109 83.1954C38.6423 83.1327 38.8338 83.0809 38.9965 83.0222C38.9087 83.0143 38.8219 82.9924 38.7421 82.9595C38.4518 82.8351 38.2862 82.7356 38.2383 82.6013Z" fill="#392911"/>
<path d="M38.3856 82.0331C38.1016 82.5078 38.1176 82.9287 38.3466 83.2153C38.3686 83.2093 38.3906 83.2023 38.4106 83.1964C38.3736 83.1506 38.3425 83.1008 38.3135 83.0461C38.2435 82.9008 38.2215 82.7506 38.2375 82.6023C38.1915 82.4769 38.2505 82.3197 38.4035 82.0838L38.3856 82.0331Z" fill="#291D0A"/>
<path d="M39.8335 81.249C39.2758 81.4181 38.8748 81.9336 38.8748 81.9336C38.7621 82.0848 38.7142 82.1963 38.7142 82.2709C38.7142 82.3784 38.809 82.4182 38.9436 82.4182C39.209 82.4182 39.63 82.261 39.7936 82.1545C39.8544 82.1177 39.9552 82.0699 40.0709 82.0172C40.0869 81.9903 40.1028 81.9615 40.1188 81.9326C40.3004 81.5993 40.1428 81.3943 39.8335 81.249Z" fill="#453213"/>
<path d="M29.8464 81.7873C29.8464 81.7873 26.4425 58.2427 33.2503 40.1311C40.06 22.0196 51.4088 15.7924 58.3332 22.5838C58.3332 22.5838 30.0719 31.0739 31.5483 81.7873H29.8464Z" fill="#9FD198"/>
<path d="M31.5484 82.1276H29.8464C29.6778 82.1276 29.5332 82.0033 29.5102 81.8361C29.4763 81.5993 26.1692 57.9949 32.933 40.0107C37.6727 27.399 45.0131 19.5667 52.0912 19.5667C54.4805 19.5667 56.7201 20.526 58.5707 22.342C58.6565 22.4256 58.6914 22.548 58.6635 22.6644C58.6345 22.7808 58.5467 22.8734 58.431 22.9082C58.3612 22.9291 51.3539 25.1183 44.6181 33.4203C38.393 41.0964 31.1303 55.7161 31.8885 81.7774C31.8915 81.8679 31.8566 81.9565 31.7918 82.0241C31.7269 82.0898 31.6391 82.1276 31.5484 82.1276ZM30.1447 81.448H31.1992C30.5088 55.3659 37.8363 40.6834 44.1222 32.9536C49.9722 25.7591 55.8831 23.1251 57.6888 22.4475C56.0387 20.9867 54.1572 20.2454 52.0912 20.2454C45.3054 20.2454 38.2094 27.9095 33.5695 40.2485C27.2756 56.9888 29.7886 78.6876 30.1447 81.448Z" fill="#6EB778"/>
<path d="M31.3009 71.2544C31.1712 72.2206 31.0186 73.2047 30.843 74.2028C30.6984 76.0606 30.5647 77.6368 30.456 78.8687C30.44 79.9982 30.3502 80.8698 30.2674 81.449H31.1563C31.0894 80.9415 31.0356 80.3713 30.9967 79.7444L30.9807 79.6529C30.9807 79.6369 30.9747 79.5126 30.9737 79.2887C30.8839 77.41 30.9358 75.0994 31.2122 72.5997C31.2411 72.146 31.27 71.7002 31.3009 71.2544ZM52.0902 20.2454C45.3044 20.2454 38.2084 27.9095 33.5685 40.2485C33.1236 41.4347 32.7205 42.6477 32.3584 43.8756C32.2726 49.1207 32.0721 54.3141 31.8257 59.0994C31.9384 61.204 31.9464 63.4071 31.8237 65.7157C33.2902 52.8642 36.9564 43.8219 40.8142 37.6106C36.0316 42.1044 33.76 52.0273 33.1705 52.0273C33.0338 52.0273 32.9879 51.486 33.0228 50.2044C33.2503 42.0546 37.6757 29.3743 47.7775 24.0535C50.7993 22.4614 53.2624 21.9042 55.2307 21.9042C55.9998 21.9042 56.6892 21.9888 57.3097 22.131C55.7524 20.8792 54.0026 20.2454 52.0902 20.2454Z" fill="#63AB5B"/>
<path d="M31.1563 81.448H30.2674C30.2485 81.5754 30.2315 81.6888 30.2136 81.7873H31.2022C31.1872 81.6789 31.1723 81.5634 31.1563 81.448ZM41.6752 36.8842C41.3799 37.1061 41.0925 37.3479 40.8152 37.6106C36.9574 43.8219 33.2912 52.8642 31.8247 65.7157L31.8157 65.866C32.6507 59.0039 34.0643 53.4026 35.866 48.8451C37.532 44.0716 39.5452 40.1291 41.6752 36.8842ZM52.0842 19.913C45.7304 19.913 38.2623 26.8 33.2493 40.1301C32.939 40.959 32.6477 41.7999 32.3774 42.6497C32.3734 43.0567 32.3654 43.4676 32.3584 43.8746C32.7206 42.6477 33.1236 41.4347 33.5685 40.2475C38.2074 27.9085 45.3044 20.2444 52.0902 20.2444C54.0026 20.2444 55.7525 20.8782 57.3097 22.13C57.5731 22.1898 57.8205 22.2584 58.0579 22.337C56.2912 20.716 54.252 19.913 52.0842 19.913Z" fill="#459648"/>
<path d="M28.767 81.844C28.767 81.844 35.5757 30.5644 20.0848 0.33872C20.0848 0.33872 31.4895 9.67858 32.0013 32.4302C32.5121 55.1848 29.8455 81.7873 29.8455 81.7873L28.767 81.844Z" fill="#A8D38C"/>
<path d="M28.767 82.1834C28.6722 82.1834 28.5824 82.1446 28.5166 82.0739C28.4488 82.0013 28.4158 81.8998 28.4298 81.8013C28.4976 81.2878 35.047 30.2778 19.7815 0.493941C19.7087 0.350649 19.7446 0.176511 19.8713 0.0760075C19.997 -0.0274813 20.1765 -0.0234939 20.3012 0.0770096C20.416 0.171543 31.8346 9.77808 32.3424 32.4252C32.8472 54.94 30.2105 81.5575 30.1846 81.8221C30.1666 81.9903 30.032 82.1197 29.8644 82.1266L28.7849 82.1844L28.767 82.1834ZM21.2939 2.02837C34.8035 30.7515 29.7327 76.6855 29.1551 81.4838L29.5352 81.4639C29.8195 78.5055 32.1379 53.6454 31.6611 32.4391C31.269 14.9873 24.3466 5.41563 21.2939 2.02837Z" fill="#92C374"/>
<path d="M26.8964 81.5604C26.8964 81.5604 29.9581 42.1103 9.53101 20.3757C9.53101 20.3757 41.0246 37.3558 28.768 81.844L26.8964 81.5604Z" fill="#8CCA88"/>
<path d="M28.767 82.1834L28.7161 82.1794L26.8436 81.8958C26.667 81.8689 26.5403 81.7117 26.5543 81.5356C26.5842 81.1415 29.3705 41.982 9.28161 20.6076C9.16788 20.4852 9.15891 20.2991 9.26066 20.1677C9.36242 20.0364 9.54497 19.9966 9.69261 20.0772C9.77143 20.119 17.7154 24.4765 24.0303 34.2432C29.8554 43.2477 35.46 58.8307 29.0962 81.9336C29.0553 82.0839 28.9186 82.1834 28.767 82.1834ZM27.2556 81.2709L28.5196 81.4619C34.6908 58.7631 29.184 43.4617 23.4597 34.6094C19.1869 28.0001 14.1719 23.9162 11.4255 21.9907C29.0174 42.8387 27.4741 77.5911 27.2556 81.2709Z" fill="#5AA969"/>
<path d="M32.4561 82.0152C32.4561 82.0152 32.5689 61.8628 47.3226 58.0148C62.0773 54.1678 67.5242 69.9001 67.5242 69.9001C67.5242 69.9001 70.5879 50.2044 51.6342 49.6391C32.6826 49.0739 30.2973 73.6366 31.5473 81.7873L32.4561 82.0152Z" fill="#37B34A"/>
<path d="M32.4561 82.3555L32.3743 82.3436L31.4645 82.1177C31.3318 82.0839 31.2321 81.9724 31.2111 81.8381C30.41 76.6029 30.9817 63.2091 37.8642 55.2146C41.3848 51.1258 45.9948 49.1366 51.6452 49.2988C57.165 49.465 61.3869 51.2542 64.1892 54.6166C69.2352 60.6726 67.9183 69.5767 67.8614 69.9528C67.8365 70.107 67.7098 70.2254 67.5542 70.2404C67.3896 70.2553 67.2529 70.1588 67.202 70.0125C67.1601 69.8901 62.8205 57.7481 51.8198 57.7481C50.4072 57.7481 48.9227 57.9491 47.4094 58.3441C33.0737 62.0837 32.7973 81.8182 32.7973 82.0192C32.7973 82.1227 32.7485 82.2202 32.6647 82.2839C32.6048 82.3296 32.531 82.3555 32.4561 82.3555ZM31.8516 81.5137L32.1289 81.5833C32.2596 78.616 33.6094 61.2418 47.2378 57.6854C48.807 57.2764 50.3483 57.0684 51.8198 57.0684C61.1086 57.0684 65.8253 65.2988 67.3137 68.5209C67.4773 65.8093 67.3925 59.5173 63.6625 55.0474C60.9909 51.8403 56.9406 50.1367 51.6263 49.9775C51.4128 49.9715 51.2033 49.9685 50.9968 49.9685C45.876 49.9685 41.6312 51.8811 38.381 55.6564C31.8147 63.2857 31.1473 76.4129 31.8516 81.5137Z" fill="#38884B"/>
<path d="M31.3199 79.636C31.3199 79.636 29.7317 39.7908 68.6595 30.9604C68.6595 30.9604 31.8307 18.5089 31.3199 79.636Z" fill="#8CCA88"/>
<path d="M31.3199 79.9763C31.1383 79.9763 30.9887 79.832 30.9807 79.6519C30.9787 79.6091 30.9408 78.618 31.0296 76.9074C32.1409 35.7289 50.3942 29.5773 61.1764 29.5773C65.5799 29.5773 68.6416 30.5942 68.7683 30.637C68.9119 30.6858 69.0057 30.8251 68.9997 30.9773C68.9907 31.1286 68.883 31.256 68.7353 31.2908C36.1653 38.6783 32.1608 68.088 31.7089 76.9323C31.686 77.8189 31.669 78.7215 31.661 79.6389C31.659 79.824 31.5124 79.9733 31.3258 79.9763H31.3199ZM61.1764 30.2569C51.5135 30.2569 35.7124 35.3527 32.3135 67.5238C35.019 55.2126 43.1286 36.9867 67.2808 30.9405C65.9909 30.641 63.8151 30.2569 61.1764 30.2569Z" fill="#5AA969"/>
<path d="M32.5709 74.6566L32.522 74.6526C32.3345 74.6257 32.2048 74.4546 32.2318 74.2685C32.3175 73.6615 34.4355 59.3263 43.0479 54.0931C46.5944 51.9388 50.7434 51.6661 55.3803 53.2812C55.5579 53.3419 55.6507 53.5369 55.5889 53.715C55.528 53.8912 55.3335 53.9847 55.1559 53.923C50.7205 52.3776 46.766 52.6284 43.403 54.6733C35.063 59.7422 32.9261 74.2197 32.9061 74.365C32.8822 74.5322 32.7355 74.6566 32.5709 74.6566Z" fill="#38884B"/>
<path d="M49.9404 53.7847C45.076 53.7847 41.7909 57.4774 41.7909 57.4774C41.0866 58.4128 39.6161 60.0736 39.9912 60.0736C40.1638 60.0736 40.7095 59.7333 41.8747 58.8357C44.7468 56.6217 48.7712 55.7062 51.6044 55.7062C52.4653 55.7062 53.2165 55.7908 53.7912 55.95C54.9444 56.2664 55.8732 56.4734 56.3301 56.4734C56.8498 56.4734 56.7521 56.2037 55.6657 55.5241C53.6076 54.2534 51.6742 53.7847 49.9404 53.7847Z" fill="#5FC26E"/>
<path d="M51.2372 50.8542C49.9942 50.8542 48.5696 51.0999 47.0472 51.7776C47.0472 51.7776 48.1626 51.5786 49.7278 51.5786C51.1714 51.5786 53.002 51.7477 54.691 52.3995C55.1399 52.5717 55.4551 52.6443 55.6497 52.6443C56.1325 52.6443 55.8671 52.1965 55.0631 51.7497C54.255 51.3009 52.9122 50.8542 51.2372 50.8542Z" fill="#5FC26E"/>
<path d="M50.9969 49.9695C45.8761 49.9695 41.6313 51.8821 38.3811 55.6574C36.6711 57.6436 35.3623 60.001 34.3726 62.4936C32.4243 68.5676 31.8616 73.9321 31.708 76.9333C31.687 77.7194 31.6731 78.5195 31.6641 79.3275C31.701 80.1584 31.7669 80.8967 31.8517 81.5137L32.129 81.5833C32.2078 79.7663 32.7455 72.551 36.2751 66.4123C34.8944 68.5736 33.9447 70.5419 33.4429 71.6743C33.0648 73.2813 32.9111 74.3252 32.9051 74.363C32.8812 74.5322 32.7346 74.6556 32.5699 74.6556L32.5211 74.6516C32.3335 74.6247 32.2038 74.4536 32.2308 74.2675C32.2677 74.0058 32.6767 71.2265 33.812 67.7218C36.8517 53.4702 45.0082 50.3914 51.2084 50.3914C54.5135 50.3914 57.2609 51.2641 58.3882 51.7865C62.211 53.5638 62.8176 55.95 61.4738 55.95C61.0827 55.95 60.525 55.748 59.8347 55.2693C56.4358 52.8483 53.3871 52.0194 50.8093 52.0194C49.8207 52.0194 48.8989 52.1428 48.0539 52.3408C48.5936 52.2751 49.1433 52.2403 49.701 52.2403C51.4987 52.2403 53.3931 52.5876 55.3784 53.2782C55.556 53.3389 55.6487 53.5339 55.5869 53.712C55.537 53.8503 55.4063 53.9389 55.2666 53.9389L55.1549 53.92C53.2465 53.2553 51.4278 52.9229 49.7069 52.9229C47.4264 52.9229 45.3194 53.506 43.402 54.6703C43.0499 54.8832 42.7117 55.1141 42.3825 55.3589C42.0483 55.6644 41.8737 55.8634 41.8737 55.8634C44.6849 53.9588 47.3725 53.2115 49.8546 53.2115C54.3658 53.2115 58.1986 55.6793 60.8652 58.1461C63.5299 60.6139 65.0273 63.0817 64.8677 63.0817C64.8457 63.0817 64.7849 63.026 64.6861 62.9086C59.5574 58.0277 55.0143 56.1967 51.0837 56.1967C46.345 56.1967 42.4962 58.8606 39.5892 62.0439C41.5674 60.0816 44.0714 58.5103 47.2368 57.6844C48.8061 57.2754 50.3474 57.0674 51.8189 57.0674C61.1077 57.0674 65.8244 65.2978 67.3128 68.5199C67.4764 65.8083 67.3916 59.5164 63.6615 55.0464C60.9899 51.8393 56.9396 50.1357 51.6254 49.9765C51.4129 49.9725 51.2034 49.9695 50.9969 49.9695Z" fill="#0A6E15"/>
<path d="M50.9969 49.6292C43.414 49.6292 38.5676 53.7359 35.5767 59.1263C35.1268 60.2646 34.7258 61.3921 34.3736 62.4936C35.3623 60.001 36.6721 57.6436 38.382 55.6574C41.6322 51.8821 45.8771 49.9695 50.9978 49.9695C51.2043 49.9695 51.4138 49.9725 51.6273 49.9785C56.9416 50.1377 60.9929 51.8413 63.6635 55.0484C67.3936 59.5183 67.4784 65.8103 67.3148 68.5219C65.8264 65.3008 61.1096 57.0694 51.8209 57.0694C50.3494 57.0694 48.8081 57.2774 47.2388 57.6864C44.0734 58.5123 41.5694 60.0835 39.5911 62.0459C38.3002 63.4609 37.1939 64.9784 36.2771 66.4133C32.7475 72.5519 32.2098 79.7673 32.131 81.5843L31.8537 81.5147C31.7689 80.8977 31.704 80.1594 31.6661 79.3285C31.6641 79.4329 31.6641 79.5364 31.6621 79.6409C31.6601 79.818 31.5264 79.9613 31.3528 79.9763C31.3997 80.645 31.4666 81.254 31.5484 81.7883L32.4562 82.0172C32.4562 82.0172 32.5689 61.8648 47.3226 58.0168C48.9308 57.5978 50.4282 57.4127 51.8199 57.4127C63.2016 57.4127 67.5243 69.903 67.5243 69.903C67.5243 69.903 70.588 50.2073 51.6343 49.6421C51.4208 49.6322 51.2083 49.6292 50.9969 49.6292Z" fill="#0B5415"/>
<path d="M35.5767 59.1263C34.9801 60.199 34.4593 61.3224 34.0034 62.4757C32.09 68.5 31.5273 73.8396 31.3697 76.9044C31.4086 75.4795 31.4685 74.0943 31.5463 72.751C31.244 75.4765 31.2121 77.9881 31.3528 79.9743C31.5263 79.9594 31.66 79.8161 31.662 79.6389C31.664 79.5344 31.664 79.432 31.666 79.3265C31.675 78.5175 31.688 77.7184 31.7099 76.9323C31.8635 73.9311 32.4262 68.5666 34.3745 62.4927C34.7257 61.3931 35.1267 60.2647 35.5767 59.1263Z" fill="#11681E"/>
<path d="M33.813 67.7228C32.6777 71.2275 32.2687 74.0068 32.2318 74.2685C32.2048 74.4546 32.3345 74.6247 32.522 74.6526L32.5709 74.6566C32.7355 74.6566 32.8832 74.5332 32.9061 74.364C32.9121 74.3262 33.0658 73.2823 33.4438 71.6753C33.1645 72.3062 33.0238 72.6753 33.0238 72.6753C33.2224 70.8902 33.4887 69.2423 33.813 67.7228ZM49.7029 52.2423C49.1443 52.2423 48.5956 52.2761 48.0559 52.3428C45.2346 53.0135 43.2594 54.5588 42.3845 55.3609C42.7137 55.1161 43.0528 54.8842 43.404 54.6723C45.3214 53.508 47.4284 52.9249 49.7089 52.9249C51.4298 52.9249 53.2484 53.2573 55.1569 53.922L55.2686 53.9409C55.4093 53.9409 55.54 53.8523 55.5889 53.714C55.6517 53.5359 55.5579 53.3418 55.3803 53.2802C53.3951 52.5896 51.5006 52.2423 49.7029 52.2423Z" fill="#0B5415"/>
<path d="M19.1231 32.2242C18.9655 32.2242 19.1041 32.7486 19.6608 33.875C23.9166 42.1939 28.0867 56.8834 28.0867 56.8834C26.5553 42.8487 19.8344 32.2242 19.1231 32.2242Z" fill="#A3D5A0"/>
<path d="M11.4255 21.9917C12.1218 22.8177 12.7872 23.6635 13.4237 24.5262C18.4657 27.4936 24.6389 34.7388 27.6616 46.2708C30.2025 55.9649 29.8514 65.4699 28.8388 65.4699C28.4937 65.4699 28.0716 64.3714 27.6616 61.806C26.8296 56.6027 25.3861 52.0094 24.1829 48.7734C25.4559 53.923 26.239 58.9492 26.7099 63.4589C27.1638 64.3544 27.5978 65.3276 28.0088 66.3824C28.779 68.3776 29.3197 70.2284 29.6938 71.9111C30.0619 66.5844 30.3642 59.4935 30.2225 51.5945C28.8249 44.4239 26.1662 38.7967 23.4607 34.6104C19.1859 28.0011 14.1719 23.9162 11.4255 21.9917Z" fill="#4DA049"/>
<path d="M23.2552 46.4191C24.8314 52.106 25.7752 57.7182 26.3258 62.7325C26.4565 62.9693 26.5832 63.2101 26.7089 63.4589C26.2371 58.9492 25.4549 53.923 24.182 48.7734C23.8488 47.8788 23.5335 47.0888 23.2552 46.4191ZM9.53003 20.3757C10.6573 21.5738 11.7068 22.8276 12.6945 24.1232C12.9349 24.2486 13.1773 24.3839 13.4227 24.5262C12.7862 23.6635 12.1208 22.8177 11.4245 21.9917C14.1709 23.9162 19.1849 28.0011 23.4587 34.6104C26.1652 38.7967 28.8229 44.4239 30.2205 51.5945C30.2085 50.9357 30.1946 50.271 30.1756 49.6023C25.2963 28.8737 9.53003 20.3757 9.53003 20.3757Z" fill="#318638"/>
<path d="M31.2059 64.2082C31.1079 65.7923 31.0089 67.3089 30.9109 68.7368C31.0649 67.1815 31.1619 65.6739 31.2059 64.2082Z" fill="#4DA049"/>
<path d="M31.5044 58.8596C31.4096 60.7105 31.3099 62.4996 31.2051 64.2082C31.1612 65.6749 31.0645 67.1815 30.9108 68.7368C30.7722 70.7379 30.6365 72.5699 30.5088 74.1879C31.4994 68.5935 31.7688 63.4897 31.5044 58.8596Z" fill="#318638"/>
<path d="M62.3047 31.5256C47.3226 31.8659 40.4011 46.018 40.4011 46.018C52.2039 32.66 64.687 31.6391 62.3047 31.5256Z" fill="#A3D5A0"/>
<path d="M61.1765 30.2569C51.5136 30.2569 35.7124 35.3527 32.3135 67.5238C33.8918 60.3433 37.3096 51.1477 44.676 43.5323C41.7041 45.8777 38.6394 49.0759 36.8836 53.1468C36.3818 54.3091 36.0306 54.8176 35.8501 54.8176C35.2285 54.8176 36.6671 48.7635 41.1474 42.7114C45.6277 36.6613 53.1546 30.6082 64.703 30.6082C65.0173 30.6082 65.3335 30.6121 65.6537 30.6211C64.4406 30.4221 62.9073 30.2569 61.1765 30.2569Z" fill="#4DA049"/>
<path d="M61.1754 29.9176C50.9808 29.9176 33.7331 35.5209 31.5463 72.752C31.9124 69.4543 32.6746 65.8431 34.0035 62.4767C36.1194 55.8146 39.8874 48.3177 46.5823 42.1293C45.9598 42.5571 45.3204 43.0248 44.6759 43.5333C37.3095 51.1487 33.8917 60.3453 32.3135 67.5248C35.7114 35.3537 51.5135 30.2579 61.1764 30.2579C62.9073 30.2579 64.4406 30.4231 65.6537 30.6211C66.4149 30.641 67.191 30.6898 67.9861 30.7654C66.8519 30.4629 64.3558 29.9176 61.1754 29.9176Z" fill="#318638"/>
<path d="M34.0025 62.4757C32.6737 65.8421 31.9115 69.4543 31.5454 72.751C31.4675 74.0943 31.4077 75.4795 31.3688 76.9044C31.5264 73.8396 32.0891 68.5 34.0025 62.4757Z" fill="#095210"/>
<path d="M52.992 23.0823C52.6898 23.0823 51.735 23.4038 49.9344 24.0535C40.5149 27.4508 36.5414 40.0167 36.5414 40.0167C43.8838 28.8459 54.271 23.0823 52.992 23.0823Z" fill="#B2DAAD"/>
<path d="M24.999 9.24173C24.8843 9.24372 25.0169 9.83679 25.5327 11.1493C28.0287 17.489 29.6179 28.4687 29.6179 28.4687C29.5271 17.9666 25.4419 9.24173 24.999 9.24173Z" fill="#B9DCA3"/>
<path d="M22.1578 3.03738C32.6676 17.2711 30.9996 36.2035 30.4031 36.2035C30.3632 36.2035 30.3272 36.119 30.3003 35.9408C29.9033 32.1744 29.0613 28.2289 28.0687 24.5242C29.576 32.9526 30.2584 41.6009 30.4799 49.5376C30.836 51.0581 31.1373 52.6513 31.3718 54.323C31.6651 47.2738 31.8267 39.6455 31.663 32.4401C31.3029 16.483 25.4838 7.11424 22.1578 3.03738Z" fill="#6FAF4D"/>
<path d="M27.0601 21.0026C28.9675 30.044 29.8355 39.4803 30.1318 48.1485C30.2525 48.6023 30.3682 49.067 30.4789 49.5376C30.2574 41.6009 29.5751 32.9526 28.0677 24.5242C27.7445 23.3202 27.4043 22.141 27.0601 21.0026ZM20.0848 0.33872C20.1386 0.443203 20.1895 0.552662 20.2444 0.658141C20.9228 1.43232 21.5593 2.22638 22.1568 3.03738C25.4839 7.11424 31.303 16.483 31.6601 32.4401C31.8237 39.6455 31.6621 47.2738 31.3688 54.323C31.4636 55.0106 31.5494 55.7131 31.6202 56.4276C31.9704 48.8272 32.1798 40.3938 32.0013 32.4302C31.4895 9.67858 20.0848 0.33872 20.0848 0.33872Z" fill="#60A140"/>
<path d="M30.5089 74.1869C30.437 74.5929 30.3592 74.9999 30.2804 75.4108C30.3073 75.6536 30.3333 75.8905 30.3513 76.1233C30.4011 75.5163 30.453 74.8715 30.5089 74.1869ZM30.1318 48.1485C30.1487 48.6351 30.1647 49.1207 30.1767 49.6023C30.8491 52.4532 31.315 55.535 31.5045 58.8596C31.5444 58.0586 31.5833 57.2486 31.6212 56.4286C31.5504 55.7141 31.4646 55.0116 31.3698 54.324C31.1364 52.6523 30.8351 51.0601 30.478 49.5386C30.3682 49.067 30.2525 48.6023 30.1318 48.1485Z" fill="#3B8C3A"/>
<path d="M30.2215 51.5945C30.3631 59.4945 30.0609 66.5844 29.6927 71.9111C29.8813 72.751 30.025 73.548 30.1377 74.2983C30.4769 72.3838 30.7333 70.5299 30.9108 68.7358C31.0086 67.3088 31.1074 65.7913 31.2051 64.2072C31.3448 59.5681 30.9567 55.3659 30.2215 51.5945Z" fill="#338428"/>
<path d="M30.9108 68.7358C30.7323 70.5299 30.4759 72.3838 30.1377 74.2983C30.1926 74.6804 30.2414 75.0516 30.2803 75.4098C30.3601 74.9998 30.437 74.5929 30.5088 74.1859C30.6355 72.5689 30.7722 70.7369 30.9108 68.7358ZM30.1766 49.6023C30.1956 50.271 30.2095 50.9357 30.2215 51.5945C30.9567 55.3659 31.3448 59.5681 31.2051 64.2082C31.3089 62.4996 31.4096 60.7105 31.5044 58.8596C31.3139 55.535 30.848 52.4532 30.1766 49.6023Z" fill="#206F1F"/>
<path d="M29.7896 82.1834C29.7896 82.1834 29.1651 76.1273 26.5553 74.0894C23.9446 72.0524 18.0427 67.07 13.2751 56.9958C8.51051 46.9216 0.338074 48.2789 0.338074 48.2789C0.338074 48.2789 7.60169 42.2795 15.3192 51.1089C18.2702 54.5051 24.0583 57.1082 27.6886 66.5058C31.3199 75.9004 29.7896 82.1834 29.7896 82.1834Z" fill="#37B34A"/>
<path d="M29.7896 82.5247L29.7646 82.5227C29.6 82.5108 29.4663 82.3834 29.4504 82.2182C29.4444 82.1585 28.8099 76.2805 26.3458 74.357C20.842 70.0632 16.3407 64.2699 12.9688 57.1401C9.30356 49.3944 3.61019 48.5585 1.33364 48.5585C0.749039 48.5585 0.397891 48.6142 0.397891 48.6142C0.242263 48.6391 0.0936074 48.5595 0.0307578 48.4202C-0.0330895 48.2809 0.00483031 48.1157 0.122549 48.0182C0.225303 47.9336 2.66746 45.9494 6.26785 45.9494C9.58092 45.9494 12.7124 47.6112 15.5756 50.888C16.3617 51.7925 17.3393 52.6284 18.4726 53.5956C21.5283 56.2087 25.3292 59.4606 28.0088 66.3844C31.6371 75.773 30.1836 82.0052 30.1208 82.266C30.0829 82.4162 29.9442 82.5247 29.7896 82.5247ZM1.57007 47.8808C4.11598 47.9395 9.8732 49.0063 13.5833 56.8505C16.9114 63.8828 21.3458 69.5936 26.7638 73.8217C28.4069 75.1043 29.2868 77.8229 29.7297 79.8091C29.8684 77.193 29.6479 72.5141 27.3713 66.6292C24.7586 59.8616 21.0265 56.6734 18.0287 54.1101C16.9244 53.1657 15.8808 52.2741 15.0618 51.3348C12.3353 48.2112 9.37641 46.63 6.26785 46.63C4.22673 46.629 2.56469 47.3276 1.57007 47.8808Z" fill="#38884B"/>
<path d="M28.5964 75.787C28.4917 75.787 28.3849 75.7382 28.3181 75.6437C28.0368 75.2456 21.3577 65.8341 19.5471 61.7742C18.335 59.0556 13.9056 50.1267 7.7892 49.4083C7.60164 49.3874 7.46895 49.2182 7.4909 49.0312C7.51185 48.8441 7.68047 48.7127 7.86802 48.7326C14.3425 49.4939 18.9206 58.6954 20.1706 61.4976C21.9513 65.4958 28.8049 75.1511 28.8747 75.2476C28.9835 75.4019 28.9486 75.6138 28.7939 75.7233C28.7331 75.7671 28.6672 75.787 28.5964 75.787Z" fill="#38884B"/>
<path d="M20.7432 58.2377L20.6824 58.2426C18.6403 58.582 28.0876 73.2704 28.0876 73.2704C28.1764 73.358 28.2423 73.4008 28.2892 73.4008C28.7301 73.4008 27.3484 69.6105 25.6026 65.8182C23.8558 62.0269 21.7488 58.2377 20.7432 58.2377Z" fill="#5FC26E"/>
<path d="M13.9474 54.4653C13.8227 54.4653 13.9754 55.0803 14.552 56.6266C16.6978 62.3842 22.3803 69.103 23.8318 70.7608C24.0233 70.927 24.2179 71.0872 24.4104 71.2414H24.4164C25.1317 71.2414 20.813 65.6938 19.15 63.1643C17.7793 61.0836 14.3605 54.4653 13.9474 54.4653Z" fill="#5FC26E"/>
<path d="M6.26684 46.629C4.22672 46.629 2.56469 47.3266 1.57007 47.8808C3.7299 47.9316 8.20221 48.7068 11.7757 53.7339C10.9756 52.1517 10.6643 51.0173 11.6659 51.0173H11.7008C10.4967 50.1665 9.18685 49.5745 7.7892 49.4103C7.60165 49.3894 7.46895 49.2202 7.4909 49.0331C7.51185 48.86 7.6585 48.7326 7.8271 48.7326L7.86802 48.7346C14.3425 49.4959 18.9206 58.6974 20.1706 61.4996C20.2614 61.7055 20.3651 61.9244 20.4828 62.1563C20.2643 61.6 19.998 60.9234 19.7616 60.2487C19.1989 58.6347 18.8108 57.0197 19.6807 57.0197C19.8144 57.0197 19.975 57.0575 20.1706 57.1371C23.2343 58.4118 26.3847 65.0341 28.5126 71.1459C29.3526 73.5659 29.196 74.2963 28.6982 74.2963C28.5096 74.2963 28.2702 74.1899 28.0168 74.0296C28.5336 74.773 28.8608 75.2307 28.8738 75.2486C28.9825 75.4029 28.9476 75.6148 28.7929 75.7243C28.7321 75.7661 28.6662 75.787 28.5964 75.787C28.4917 75.787 28.3849 75.7382 28.3181 75.6437C28.2183 75.5014 27.2955 74.2018 26.0704 72.4087C25.5277 72.0813 24.9711 71.6862 24.4104 71.2414C24.3586 71.2374 24.2787 71.2086 24.171 71.1449C24.171 71.1449 24.0483 71.0106 23.8318 70.7598C20.2623 67.7109 16.657 62.7763 15.1476 59.7691C14.7755 59.0218 14.3196 58.2158 13.8497 57.4048C17.1468 64.1823 21.4874 69.703 26.7628 73.8197C28.4058 75.1024 29.2858 77.8209 29.7287 79.8071C29.8674 77.191 29.6469 72.5122 27.3703 66.6272C24.7576 59.8597 21.0255 56.6714 18.0277 54.1081C16.9233 53.1637 15.8798 52.2721 15.0608 51.3328C12.3343 48.2102 9.3754 46.629 6.26684 46.629Z" fill="#0A6E15"/>
<path d="M11.7757 53.7339C8.20226 48.7068 3.72995 47.9316 1.57011 47.8808C2.56473 47.3266 4.22676 46.629 6.26688 46.629C9.37545 46.629 12.3344 48.2102 15.0608 51.3338C15.8789 52.2731 16.9224 53.1647 18.0277 54.1091C21.0256 56.6724 24.7576 59.8606 27.3704 66.6282C29.6469 72.5131 29.8674 77.192 29.7288 79.8081C29.2868 77.8219 28.4069 75.1043 26.7628 73.8207C21.4874 69.704 17.1458 64.1833 13.8497 57.4058C13.1055 56.1191 12.3254 54.8225 11.7757 53.7339ZM6.26688 46.2897C2.7503 46.2897 0.33905 48.2799 0.33905 48.2799C0.33905 48.2799 0.708176 48.2192 1.33368 48.2192C3.65513 48.2192 9.5221 49.062 13.2761 56.9968C18.0427 67.071 23.9446 72.0534 26.5563 74.0904C29.1661 76.1283 29.7906 82.1844 29.7906 82.1844C29.7906 82.1844 31.3209 75.9014 27.6906 66.5068C24.0593 57.1102 18.2721 54.5061 15.3212 51.1099C12.048 47.3674 8.85569 46.2897 6.26688 46.2897Z" fill="#0B5415"/>
<path d="M15.812 55.2524C16.9363 56.9928 18.0546 58.9651 18.9754 60.5552C18.2811 59.1382 17.2047 57.154 15.812 55.2524Z" fill="#0A6E15"/>
<path d="M26.0704 72.4096C27.2955 74.2028 28.2173 75.5024 28.3181 75.6447C28.3849 75.7392 28.4917 75.788 28.5964 75.788C28.6662 75.788 28.7331 75.7681 28.7929 75.7253C28.9476 75.6168 28.9825 75.4049 28.8738 75.2496C28.8598 75.2317 28.5336 74.773 28.0168 74.0306C27.2606 73.55 26.3837 72.5908 26.3837 72.5908C26.281 72.5311 26.1772 72.4713 26.0704 72.4096ZM7.8271 48.7326C7.6585 48.7326 7.51185 48.86 7.4909 49.0331C7.46895 49.2202 7.60164 49.3884 7.7892 49.4103C9.18685 49.5745 10.4967 50.1675 11.7008 51.0173L11.8295 51.0263C12.889 51.1348 14.3565 52.9956 15.812 55.2524C17.2047 57.154 18.2811 59.1382 18.9754 60.5552C19.6448 61.7065 20.2085 62.6568 20.5965 63.1653C20.7611 63.3832 20.8559 63.4798 20.8958 63.4798C20.9936 63.4798 20.7861 62.9315 20.4828 62.1563C20.3661 61.9244 20.2614 61.7055 20.1706 61.4996C18.9206 58.6974 14.3425 49.4959 7.86802 48.7346L7.8271 48.7326Z" fill="#0B5415"/>
<path d="M23.8318 70.7618C24.0483 71.0126 24.171 71.1469 24.171 71.1469C24.2787 71.2096 24.3595 71.2394 24.4104 71.2434C24.2179 71.0882 24.0243 70.928 23.8318 70.7618Z" fill="#12771F"/>
</svg>
