<svg width="71" height="113" viewBox="0 0 71 113" fill="none" xmlns="http://www.w3.org/2000/svg">
<path d="M61.0451 80.3215L57.4868 106.695C57.434 110.261 49.605 113.032 39.9948 112.887C30.3866 112.741 22.6423 109.736 22.6951 106.172L18.5679 78.0192L61.0451 80.3215Z" fill="#AA6B28"/>
<path d="M61.0451 80.3215L60.9365 80.3085L57.3802 106.682L57.3782 106.694C57.3632 108.345 55.5392 109.888 52.5238 110.995C49.5143 112.102 45.3443 112.782 40.715 112.782C40.4779 112.782 40.2378 112.781 39.9958 112.778C35.2191 112.705 30.9046 111.925 27.7925 110.723C24.6745 109.522 22.7937 107.893 22.8036 106.21V106.176L22.8026 106.156L18.6954 78.136L61.0392 80.4323L61.0451 80.3215L61.0511 80.2127L18.5728 77.9104L18.4862 77.9463L18.4603 78.0361L22.5865 106.188L22.695 106.172L22.5865 106.169L22.5855 106.209C22.5974 108.07 24.5778 109.71 27.7148 110.926C30.8588 112.141 35.1952 112.922 39.9928 112.996C40.2359 112.999 40.4759 113 40.715 113C45.3652 113 49.5541 112.319 52.5985 111.199C55.6359 110.08 57.5585 108.522 57.5963 106.697L57.4878 106.694L57.5963 106.709L61.1547 80.3355L61.1298 80.2516L61.0521 80.2117L61.0451 80.3215Z" fill="#2E1010"/>
<path d="M61.0451 80.3215L57.4868 106.695C57.434 110.261 49.605 113.032 39.9948 112.887C30.3866 112.741 22.6423 109.736 22.6951 106.172L18.5679 78.0192L61.0451 80.3215Z" fill="#F9A84C"/>
<path d="M61.0451 80.3215L60.9365 80.3085L57.3802 106.682L57.3782 106.694C57.3632 108.345 55.5392 109.888 52.5238 110.995C49.5143 112.102 45.3443 112.782 40.715 112.782C40.4779 112.782 40.2378 112.781 39.9958 112.778C35.2191 112.705 30.9046 111.925 27.7925 110.723C24.6745 109.522 22.7937 107.893 22.8036 106.21V106.176L22.8026 106.156L18.6954 78.136L61.0392 80.4323L61.0451 80.3215L61.0511 80.2127L18.5728 77.9104L18.4862 77.9463L18.4603 78.0361L22.5865 106.188L22.695 106.172L22.5865 106.169L22.5855 106.209C22.5974 108.07 24.5778 109.71 27.7148 110.926C30.8588 112.141 35.1952 112.922 39.9928 112.996C40.2359 112.999 40.4759 113 40.715 113C45.3652 113 49.5541 112.319 52.5985 111.199C55.6359 110.08 57.5585 108.522 57.5963 106.697L57.4878 106.694L57.5963 106.709L61.1547 80.3355L61.1298 80.2516L61.0521 80.2117L61.0451 80.3215Z" fill="#7C4317"/>
<path d="M23.3047 85.4353L25.9047 103.97C25.9047 103.97 27.0165 109.791 34.1481 111.34C34.963 111.516 35.7679 111.6 36.5549 111.6C42.6715 111.6 47.754 106.548 48.1864 100.622C48.7054 93.4744 48.7054 87.4051 48.7054 87.4051C48.7054 87.4051 44.4218 88.1 38.9019 88.1C33.9658 88.1 28.0405 87.5439 23.3047 85.4353Z" fill="#FAB76A"/>
<path d="M60.6995 82.0727C59.4871 83.1509 57.7677 84.1104 55.6697 84.9091C53.9164 85.577 51.8932 86.1351 49.6727 86.5495C50.2565 86.6144 51.0046 86.6653 51.9021 86.6653C53.0747 86.6653 54.4992 86.5764 56.1339 86.3089C56.1339 86.3089 56.2674 86.1901 56.4338 86.1901C56.6978 86.1901 57.0425 86.4896 57.0634 88.0401C57.1002 90.573 54.7223 105.907 54.7223 105.907C54.7223 105.907 54.2621 109.861 48.7672 111.341C46.9282 111.837 43.9496 112.237 40.6104 112.237C34.0744 112.237 26.1538 110.701 22.6811 105.333L22.8016 106.156L22.8026 106.176V106.21C22.7927 107.893 24.6735 109.522 27.7915 110.723C30.9036 111.924 35.2181 112.704 39.9948 112.778C40.2368 112.781 40.4759 112.782 40.714 112.782C45.3423 112.782 49.5123 112.102 52.5228 110.995C55.5382 109.889 57.3622 108.346 57.3772 106.694L57.3792 106.682L60.6995 82.0727Z" fill="#DE9342"/>
<path d="M60.8249 81.9589C60.7831 81.9978 60.7403 82.0357 60.6994 82.0727L57.3801 106.682L57.3782 106.694C57.3632 108.345 55.5392 109.888 52.5238 110.995C49.5143 112.102 45.3443 112.782 40.715 112.782C40.4779 112.782 40.2378 112.781 39.9957 112.778C35.219 112.705 30.9046 111.925 27.7925 110.723C24.6744 109.522 22.7936 107.893 22.8036 106.21V106.176L22.8026 106.156L22.6821 105.333C22.6333 105.258 22.5844 105.18 22.5366 105.104L22.694 106.173C22.6412 109.736 30.3866 112.741 39.9937 112.888C40.2368 112.891 40.4749 112.892 40.714 112.892C49.9915 112.892 57.4339 110.173 57.4857 106.696L60.8249 81.9589Z" fill="#6F3B14"/>
<path d="M17.5846 73.0512L21.6909 73.2109C25.7543 70.9016 32.4835 69.389 40.1043 69.389C48.6087 69.389 56.0064 71.27 59.8238 74.0446C61.4107 73.5454 63.0195 73.0292 63.0195 73.0292L62.5493 78.773C61.9795 83.5123 52.1512 87.2853 40.1043 87.2853C27.921 87.2853 18.01 83.4255 17.6483 78.6082L17.5846 78.5373V73.2768L17.5886 73.2918L17.5846 73.0512Z" fill="#F9A72B"/>
<path d="M17.5846 73.0512L17.5796 73.161L21.6869 73.3197L21.7447 73.3067C25.7812 71.0104 32.4985 69.4968 40.1053 69.4978C48.5928 69.4968 55.9775 71.3808 59.76 74.1334L59.8587 74.1494C61.4436 73.6502 63.0554 73.134 63.0554 73.134L63.0206 73.0292L62.912 73.0212L62.4418 78.764L62.5504 78.773V78.6641L62.4418 78.761C62.1728 81.0553 59.6156 83.1769 55.593 84.7044C51.5764 86.235 46.1163 87.1775 40.1053 87.1775C34.0256 87.1775 28.5128 86.214 24.4832 84.6535C20.4486 83.093 17.9263 80.9315 17.7599 78.6022L17.7311 78.5373L17.6942 78.4964V73.2788H17.5856L17.481 73.3117L17.486 73.3267L17.6075 73.4016L17.7012 73.2908L17.6952 73.0521L17.5846 73.0512L17.476 73.0531L17.48 73.2938L17.5886 73.2918L17.6932 73.2598L17.6882 73.2449L17.5677 73.17L17.475 73.2768V78.5373L17.5039 78.6112L17.5677 78.6831L17.6474 78.6082L17.5388 78.6172C17.733 81.1042 20.345 83.2827 24.4035 84.8562C28.4669 86.4297 33.9997 87.3961 40.1044 87.3961C46.1402 87.3961 51.6192 86.4516 55.6687 84.9091C59.7152 83.3666 62.3571 81.232 62.6589 78.7869L62.5504 78.773V78.8818L62.6589 78.7809L63.1311 73.0372L63.0883 72.9423L62.9877 72.9254C62.9837 72.9264 61.3769 73.4395 59.7899 73.9387L59.8238 74.0436L59.8876 73.9547C56.0363 71.1572 48.6257 69.2792 40.1053 69.2782C32.4676 69.2792 25.7264 70.7918 21.6371 73.1151L21.6919 73.2099L21.6969 73.1011L17.5896 72.9413L17.5099 72.9723L17.477 73.0521L17.5846 73.0512Z" fill="#7C4317"/>
<path d="M17.5846 73.0512C17.5846 78.0272 27.7576 82.0587 40.3046 82.0587C52.8495 82.0587 63.0205 78.0272 63.0205 73.0512C63.0205 68.0762 52.8495 64.0446 40.3046 64.0446C27.7576 64.0456 17.5846 68.0772 17.5846 73.0512Z" fill="#F9A84C"/>
<path d="M17.5847 73.0512H17.4761C17.485 75.624 20.0751 77.8874 24.1993 79.5228C28.3285 81.1591 34.0177 82.1675 40.3046 82.1675C46.5895 82.1675 52.2788 81.1581 56.4079 79.5228C60.5302 77.8864 63.1222 75.624 63.1312 73.0512C63.1222 70.4813 60.5302 68.2189 56.4079 66.5796C52.2788 64.9442 46.5905 63.9358 40.3046 63.9358C34.0177 63.9358 28.3275 64.9452 24.1993 66.5796C20.0751 68.2189 17.485 70.4803 17.4761 73.0512H17.5847H17.6932C17.6853 70.65 20.1787 68.4086 24.278 66.7862C28.3723 65.1638 34.0406 64.1544 40.3036 64.1544C46.5637 64.1544 52.2329 65.1638 56.3263 66.7862C60.4265 68.4086 62.918 70.65 62.91 73.0512C62.918 75.4553 60.4265 77.6967 56.3263 79.3181C52.2329 80.9425 46.5637 81.9499 40.3036 81.9499C34.0406 81.9499 28.3723 80.9425 24.278 79.3181C20.1787 77.6967 17.6853 75.4553 17.6932 73.0512H17.5847Z" fill="#7C4317"/>
<path d="M18.3058 72.8804C18.3058 77.3742 28.1322 81.0194 40.2538 81.0194C52.3773 81.0194 62.2027 77.3742 62.2027 72.8804C62.2027 68.3846 52.3773 64.7425 40.2538 64.7425C28.1322 64.7425 18.3058 68.3846 18.3058 72.8804Z" fill="#C7883C"/>
<path d="M18.3059 72.8804H18.1963C18.2072 75.2157 20.7146 77.2584 24.6974 78.738C28.6851 80.2166 34.182 81.1292 40.2538 81.1292C46.3265 81.1292 51.8225 80.2176 55.8122 78.738C59.7939 77.2584 62.3013 75.2157 62.3113 72.8804C62.3003 70.5422 59.7939 68.5025 55.8122 67.0218C51.8225 65.5442 46.3255 64.6327 40.2538 64.6327C34.1811 64.6327 28.6851 65.5442 24.6974 67.0218C20.7146 68.5025 18.2063 70.5422 18.1963 72.8804H18.3059H18.4144C18.4035 70.7219 20.8093 68.6932 24.7721 67.2275C28.7279 65.7599 34.204 64.8513 40.2538 64.8513C46.3036 64.8513 51.7816 65.7599 55.7375 67.2275C59.6973 68.6932 62.1041 70.7219 62.0941 72.8804C62.1041 75.037 59.6983 77.0657 55.7375 78.5313C51.7816 79.998 46.3036 80.9095 40.2538 80.9095C34.204 80.9095 28.7279 79.998 24.7721 78.5313C20.8093 77.0657 18.4035 75.037 18.4144 72.8804H18.3059Z" fill="#7C4317"/>
<path d="M54.3647 71.6744C54.3647 71.6744 54.7722 70.634 51.2318 69.3511C47.6913 68.0651 46.8824 70.3295 46.8824 70.3295C46.8824 70.3295 46.995 69.3581 45.0933 68.134C43.1916 66.912 40.3743 68.8878 40.3743 68.8878C37.2892 67.4711 34.972 70.648 34.972 70.648C32.1429 67.8245 27.3463 70.6001 27.3463 70.6001C22.4759 69.5468 21.2845 73.5304 21.2845 73.5304C20.089 73.4844 19.2014 73.8858 18.543 74.4429C20.9408 77.9882 29.4353 80.7648 39.6123 81.0114C50.6121 81.2779 59.79 78.4964 61.4735 74.6216C60.2333 73.3606 57.9789 72.9773 57.9789 72.9773C56.8811 71.3778 54.3647 71.6744 54.3647 71.6744Z" fill="#584521"/>
<path d="M54.4693 71.7033C54.821 70.5033 51.9191 69.5687 51.2706 69.3142C49.9228 68.79 47.759 68.5404 46.9073 70.045C46.7848 70.2646 46.8196 70.2486 46.8774 70.2337C46.9232 70.2197 46.981 70.2077 46.99 70.2996C46.9531 69.9352 46.7858 69.6696 46.5935 69.3671C46.0496 68.5134 45.0464 67.9543 44.0951 67.7217C43.2404 67.512 42.2661 67.8715 41.4871 68.186C41.0846 68.3477 40.6981 68.5793 40.3325 68.811C40.4839 68.7141 38.9677 68.4905 39.144 68.4945C38.0453 68.4536 37.1596 68.7291 36.2302 69.3231C35.8228 69.5837 35.4701 69.9391 35.1394 70.2896C34.6991 70.7588 34.6503 70.1718 34.0844 69.9102C32.0243 68.9528 29.8526 69.3621 27.8364 70.2636C27.3154 70.4932 26.8571 70.4493 26.365 70.4034C26.0641 70.3735 25.7553 70.3445 25.4097 70.3814C24.3079 70.4913 23.3904 70.8098 22.5237 71.5096C21.9599 71.9639 21.5445 72.6258 21.2586 73.2838C21.147 73.5394 18.9414 74.0376 18.4443 74.405L18.4473 74.4389C20.2325 76.892 23.3476 78.0881 26.1219 78.9966C30.4673 80.4183 35.1075 80.9195 39.6561 81.0603C44.4079 81.2071 49.2304 80.7538 53.8228 79.4998C56.5972 78.74 60.2223 77.4341 61.5801 74.6466L61.5562 74.6087C60.3787 73.5853 58.8406 73.4076 57.696 72.54C56.7038 71.7912 55.5343 71.5106 54.298 71.6275C54.1864 71.6374 54.3777 71.7313 54.4335 71.7263C55.852 71.5915 56.9269 72.7916 58.2698 73.0821C59.4463 73.3367 61.9138 73.9527 60.8569 75.4563C60.4813 75.9894 59.9543 76.4138 59.4433 76.8121C56.0064 79.4808 50.9717 80.2107 46.7997 80.6839C41.0507 81.3299 35.1215 80.9884 29.4661 79.7923C27.0255 79.2761 24.6296 78.5054 22.3882 77.4012C21.5275 76.9789 20.7226 76.4517 19.9685 75.8586C19.6557 75.603 19.3658 75.3255 19.0978 75.025C18.003 73.8629 21.2237 73.5823 21.3293 73.5773L21.392 73.5544C22.2199 70.9735 24.9076 70.2187 27.3662 70.646C27.5993 70.687 28.1063 70.3086 28.3076 70.2187C30.4414 69.2682 32.9717 68.9917 34.8913 70.657L35.0746 70.683C35.3675 70.2966 35.7202 69.9711 36.0858 69.6576C37.5611 68.3866 38.373 68.8858 40.4222 68.9348C40.7798 68.9437 41.3227 68.4376 41.6614 68.2748C43.2782 67.5081 46.8346 68.1001 46.7818 70.2986L46.993 70.3555C47.3108 69.5618 48.0997 69.1863 48.8927 69.0286C48.3259 69.1414 54.815 69.7395 54.2621 71.6464L54.4693 71.7033Z" fill="#403215"/>
<path d="M27.6361 71.3629C27.6361 71.3629 23.7151 70.677 22.959 72.7616C22.2049 74.8423 19.6676 73.7181 21.2964 75.5192C22.9241 77.3173 25.4475 77.4082 26.5861 76.4347C27.7267 75.4593 28.1302 74.0825 30.3896 74.2722C32.6519 74.4639 31.2473 72.6548 29.9104 72.6338C28.5735 72.6139 31.066 70.9256 32.1448 70.8028C33.2257 70.68 29.8377 69.4809 27.6361 71.3629Z" fill="#6C562B"/>
<path d="M37.4306 73.4255C37.4306 73.4255 36.54 72.3483 33.8912 72.2824C31.2453 72.2185 32.7545 73.2917 32.629 73.8009C32.5064 74.3111 34.2657 75.3205 34.2657 75.3205C34.2657 75.3205 35.0158 73.5523 37.4306 73.4255Z" fill="#6C562B"/>
<path d="M36.2651 70.9755C35.9951 70.9575 37.8968 68.8938 39.8384 69.5378C40.719 69.8273 41.5409 69.6127 42.3239 69.397C43.2683 69.1345 44.1549 68.8759 45.0046 69.5089C46.5596 70.668 45.8683 71.6255 45.8683 71.6255C45.8683 71.6255 40.9531 71.5735 40.4819 73.7211C40.4819 73.7211 39.0086 71.1552 36.2651 70.9755Z" fill="#6C562B"/>
<path d="M49.2822 73.3976C49.2334 73.4096 48.8389 73.3397 48.2532 73.2688C46.6443 73.0761 43.609 72.8834 42.5351 74.393C42.5351 74.393 41.9314 74.8373 43.0969 75.7947C44.2615 76.7542 45.1092 77.0348 45.0793 78.2278C45.0793 78.2278 46.6493 74.7804 52.7798 76.28C58.9074 77.7795 59.6057 75.1408 58.3595 74.392C57.1142 73.6402 54.6377 74.6875 54.6377 74.6875C54.6377 74.6875 53.6913 72.3702 49.2822 73.3976Z" fill="#6C562B"/>
<path d="M52.8585 71.4517C52.8585 71.4517 51.5226 69.8563 49.6936 70.2237C47.8636 70.5881 53.3695 73.1041 52.8585 71.4517Z" fill="#775E30"/>
<path d="M41.9762 77.526C41.9762 77.526 39.9709 75.9345 37.3509 76.6943C37.3509 76.6943 37.1288 79.2751 36.5241 79.2342C35.9174 79.1963 34.9541 75.4653 31.7773 75.7708C28.6004 76.0773 27.1938 77.3842 28.5068 78.4565C29.8178 79.5307 36.0708 80.8367 39.8623 80.5182C43.6567 80.2027 42.9176 78.5284 41.9762 77.526Z" fill="#6C562B"/>
<path d="M50.2993 77.4591C50.2993 77.4591 47.6684 77.1356 46.4789 78.7071C45.2895 80.2785 50.7615 79.9631 52.714 79.0455C54.6656 78.125 50.5952 77.481 50.2993 77.4591Z" fill="#6C562B"/>
<path d="M41.5279 65.4384C31.6587 65.4384 24.3627 68.145 24.3627 68.145C22.9541 68.9048 24.2581 69.9801 26.2345 69.9801C27.1121 69.9801 28.1222 69.7684 29.0866 69.2223C29.8875 68.77 30.6287 68.6183 31.3031 68.6183C31.9874 68.6183 32.6071 68.773 33.159 68.9278C33.7118 69.0805 34.201 69.2353 34.6194 69.2353C34.9959 69.2353 35.3167 69.1125 35.5807 68.755C36.1226 68.0282 37.1417 67.8345 38.0751 67.8345C39.1341 67.8345 40.0804 68.0841 40.0804 68.0841C40.0804 68.0841 40.2996 67.1396 43.1726 67.1396C43.317 67.1396 43.4705 67.1406 43.6299 67.1466C46.9342 67.2515 47.3556 68.8409 47.3556 68.8409C47.6235 67.8285 49.9865 67.8864 50.3491 66.9909C50.7107 66.0943 49.339 66.0334 49.339 66.0334C46.6224 65.6071 43.9935 65.4384 41.5279 65.4384Z" fill="#D09C5D"/>
<path d="M27.6949 72.1336C27.6122 71.9779 26.5603 71.3109 24.6117 72.0587C22.6612 72.8075 23.751 73.8279 25.2433 73.5913C26.7346 73.3537 27.9778 72.6867 27.6949 72.1336Z" fill="#7C6232"/>
<path d="M35.257 72.7437C35.257 72.7437 33.9141 72.4887 34.1492 73.0307C34.3813 73.5747 36.5998 72.9987 35.257 72.7437Z" fill="#7C6232"/>
<path d="M45.4399 70.9455C45.4399 70.9455 44.9239 69.3121 43.2463 69.5577C41.5697 69.8023 45.3652 71.9299 45.4399 70.9455Z" fill="#7C6232"/>
<path d="M54.0081 74.6705C54.0081 74.6705 50.8153 73.0192 50.8134 74.5957C50.8134 76.1691 55.2045 75.8057 54.0081 74.6705Z" fill="#7C6232"/>
<path d="M45.4407 79.4708C45.3697 79.4778 45.2997 79.4838 45.2307 79.4918C45.2627 79.4978 45.2987 79.5018 45.3367 79.5018C45.3577 79.5018 45.3777 79.5018 45.4007 79.4988C45.4117 79.4978 45.4237 79.4888 45.4407 79.4708Z" fill="#463618"/>
<path d="M62.2027 76.4527C61.1139 81.4157 51.928 85.4353 51.928 85.4353C51.928 85.4353 57.1998 83.6981 59.254 82.4581C61.3051 81.216 61.9526 78.9217 61.9526 78.9217L62.2027 76.4527Z" fill="#DE9225"/>
<path d="M26.4387 72.7327C26.4387 72.7327 25.0042 71.3928 23.4432 72.8964C21.8832 74.404 22.6801 75.7439 24.3219 75.5821C25.9646 75.4204 28.0834 74.0516 26.4387 72.7327Z" fill="#584521"/>
<path d="M26.5334 72.7097C25.9496 72.1796 25.1038 72.0288 24.3617 72.2415C23.3336 72.536 21.8921 74.1015 22.7638 75.1688C23.4581 76.0184 24.9893 75.5821 25.8032 75.2187C26.3262 74.9841 26.8452 74.6127 27.0773 74.0715C27.3094 73.5304 26.9169 73.0422 26.5334 72.7097L26.3431 72.7526C27.2217 73.5114 26.9378 74.3441 26.0532 74.9341C25.2074 75.4962 23.507 75.9974 22.8385 74.9591C22.2149 73.9876 23.5896 72.7227 24.3368 72.3703C24.9923 72.0608 25.8211 72.2784 26.3431 72.7526L26.5334 72.7097Z" fill="#403215"/>
<path d="M26.7665 73.2768C26.7366 73.3868 26.6748 73.5398 26.5602 73.6998C26.6678 73.7078 26.7724 73.7308 26.876 73.7678C26.882 73.6048 26.8461 73.4408 26.7665 73.2768Z" fill="#54401D"/>
<path d="M26.8023 73.0991C26.8023 73.0991 26.7974 73.167 26.7665 73.2768C26.8462 73.4405 26.882 73.6043 26.8761 73.767C26.9279 73.785 26.9777 73.8069 27.0255 73.8319C27.0524 73.5953 26.9886 73.3487 26.8023 73.0991Z" fill="#3D2E12"/>
<path d="M22.6861 74.3171C22.6652 74.5368 22.707 74.7564 22.8375 74.9601C23.1204 75.3994 23.5896 75.5631 24.0987 75.5631C24.529 75.5631 24.9903 75.4473 25.3947 75.2806C25.2263 75.012 25.2742 74.6975 25.4266 74.424C25.3469 74.4449 25.2632 74.4639 25.1726 74.4818C25.1726 74.4818 24.4543 74.8722 23.8008 74.8722C23.6334 74.8722 23.4721 74.8463 23.3256 74.7834C22.9521 74.6186 22.7429 74.4909 22.6861 74.3171Z" fill="#54401D"/>
<path d="M22.8753 73.6033C22.2139 74.7155 22.8494 75.5961 24.0578 75.5961C24.1435 75.5961 24.2321 75.5911 24.3228 75.5821C24.6804 75.5472 25.061 75.4533 25.4196 75.3175C25.4106 75.3035 25.4027 75.2916 25.3967 75.2796C24.9922 75.4463 24.531 75.5621 24.1007 75.5621C23.5916 75.5621 23.1234 75.3984 22.8395 74.9591C22.708 74.7554 22.6661 74.5358 22.6881 74.3161C22.6363 74.1574 22.712 73.9597 22.9022 73.6642L22.8753 73.6033Z" fill="#3D2E12"/>
<path d="M25.1516 72.534C24.2251 72.534 23.4939 73.4745 23.4939 73.4745C23.3515 73.6682 23.2927 73.8069 23.2927 73.9048C23.2927 74.0416 23.4123 74.0925 23.5816 74.0925C23.9193 74.0925 24.4513 73.8918 24.6575 73.758C24.9494 73.5693 25.9964 73.2418 25.9934 72.9194C25.9934 72.8155 25.8858 72.7117 25.6108 72.6138C25.4554 72.5599 25.301 72.534 25.1516 72.534Z" fill="#654E21"/>
<path d="M27.1919 74.0306C27.1919 74.0306 26.4646 73.3247 25.7573 74.1364C25.0521 74.9481 25.4715 75.658 26.2564 75.5601C27.0384 75.4673 28.0187 74.7245 27.1919 74.0306Z" fill="#584521"/>
<path d="M27.2885 74.0136C27.0314 73.773 26.6061 73.6292 26.2594 73.728C25.6487 73.9028 24.9514 74.7894 25.4704 75.3814C26.1757 76.1851 28.3504 75.009 27.2885 74.0136L27.0962 74.0475C28.0764 74.9661 26.0901 76.0384 25.574 75.2237C25.2991 74.7854 25.7763 74.2003 26.0871 73.9457C26.4009 73.6891 26.8262 73.7969 27.0962 74.0475L27.2885 74.0136Z" fill="#403215"/>
<path d="M55.8002 75.2946C55.8002 75.2946 54.3677 73.9557 52.8067 75.4613C51.2456 76.9669 52.0456 78.3067 53.6853 78.146C55.326 77.9842 57.4469 76.6134 55.8002 75.2946Z" fill="#584521"/>
<path d="M55.8849 75.2916C55.339 74.7964 54.561 74.6037 53.8517 74.7474C52.7688 74.9661 51.2397 76.6144 52.1362 77.7117C52.8415 78.5723 54.3398 78.1739 55.1716 77.8015C55.6956 77.5689 56.2057 77.1985 56.4398 76.6574C56.6709 76.1182 56.2654 75.619 55.8849 75.2916C55.842 75.2556 55.6329 75.2237 55.7185 75.2985C57.8135 77.1076 53.0179 79.2322 52.1482 77.4531C51.691 76.5156 52.8585 75.4243 53.5588 75.023C54.2402 74.6346 55.1467 74.7804 55.7185 75.2985C55.7594 75.3365 55.9686 75.3674 55.8849 75.2916Z" fill="#403215"/>
<path d="M56.137 75.8177C56.0543 76.1272 55.7395 76.8151 54.5361 77.0427C54.5361 77.0427 53.8178 77.4351 53.1624 77.4351C53.1106 77.4351 53.0607 77.4321 53.0129 77.4271C52.8047 77.5 52.5636 77.5679 52.2698 77.6478C52.5338 77.9822 52.9771 78.124 53.4722 78.124C54.8738 78.123 56.7028 76.9878 56.137 75.8177Z" fill="#54401D"/>
<path d="M56.1648 75.662C56.1648 75.662 56.1618 75.7229 56.1369 75.8167C56.7028 76.9868 54.8738 78.122 53.4711 78.122C52.976 78.122 52.5327 77.9802 52.2687 77.6458C52.2438 77.6538 52.2169 77.6598 52.191 77.6677C52.4351 77.9742 52.8675 78.1579 53.4193 78.1579C53.505 78.1579 53.5937 78.1529 53.6853 78.144C55.1726 77.9982 57.0564 76.858 56.1648 75.662Z" fill="#3D2E12"/>
<path d="M54.5151 75.0979C54.3607 75.0979 54.2113 75.1238 54.0718 75.1688C54.4613 75.3535 54.6636 75.615 54.4325 76.0384C54.4125 76.0773 54.3916 76.1142 54.3717 76.1492C54.7871 75.9635 55.3589 75.7219 55.3569 75.4833C55.3569 75.3784 55.2483 75.2756 54.9734 75.1767C54.817 75.1228 54.6636 75.0979 54.5151 75.0979Z" fill="#654E21"/>
<path d="M56.5544 76.5965C56.5544 76.5965 55.8281 75.8866 55.1219 76.6993C54.4146 77.511 54.8339 78.2209 55.6189 78.125C56.3999 78.0292 57.3812 77.2853 56.5544 76.5965Z" fill="#584521"/>
<path d="M56.649 76.5885C56.3989 76.3529 55.9696 76.1871 55.6269 76.282C55.1009 76.4337 54.285 77.3103 54.7801 77.8774C55.5412 78.741 57.7199 77.5889 56.649 76.5885L56.4577 76.6034C57.4499 77.5289 55.4366 78.5893 54.9375 77.7985C54.7144 77.4461 55.0102 76.9918 55.2224 76.7282C55.5382 76.3349 56.0881 76.256 56.4577 76.6034L56.649 76.5885Z" fill="#403215"/>
<path d="M18.5679 76.7582C18.5679 76.7582 18.5758 79.0825 18.801 79.6086C19.0251 80.1348 19.6647 81.0204 19.6647 81.0204C25.4296 85.4343 34.466 86.3109 40.8306 86.3109C44.9109 86.3109 47.8915 85.9524 48.2113 85.9305C49.0292 85.8815 48.7044 82.4091 48.7044 82.4091C45.42 82.7366 42.4793 82.8804 39.8434 82.8804C22.5835 82.8794 18.5679 76.7582 18.5679 76.7582Z" fill="#FAB64F"/>
<path d="M35.0607 70.3675C34.9531 70.3875 34.8445 70.4074 34.7379 70.4314C34.7409 70.4344 34.7439 70.4365 34.7479 70.4395C34.7808 70.4575 34.8146 70.4675 34.8505 70.4675C34.9123 70.4665 34.978 70.4365 35.0607 70.3675Z" fill="#875723"/>
<path d="M30.8727 79.4519C30.9106 79.4698 30.9495 79.4858 30.9873 79.5048C31.7404 79.8492 32.6978 80.015 33.7079 80.0948C32.6818 79.9131 31.7066 79.6905 30.8727 79.4519ZM34.7379 70.4304H34.733C34.7379 70.4334 34.7439 70.4354 34.7479 70.4384C34.7439 70.4354 34.7409 70.4334 34.7379 70.4304ZM34.2668 75.3215C34.2668 75.3215 32.5075 74.3121 32.63 73.8019C32.7506 73.3077 31.331 72.2824 33.672 72.2824C33.7418 72.2824 33.8175 72.2824 33.8922 72.2834C36.541 72.3483 37.4316 73.4265 37.4316 73.4265C35.0159 73.5523 34.2668 75.3215 34.2668 75.3215ZM34.2688 75.5451C34.5606 75.5451 34.8445 75.3355 34.8445 75.3355C35.5907 74.2862 38.5533 74.7554 38.3162 73.6692C38.0821 72.5829 33.7677 71.2161 33.7677 71.2161C33.942 71.2041 34.1114 71.1981 34.2777 71.1981C38.4816 71.1981 40.6324 74.6945 40.6324 74.6945C41.4592 73.0611 43.8969 72.6338 45.0046 72.6338C45.6691 72.6338 45.8554 72.7866 44.9239 72.9323C42.4385 73.3137 41.5449 75.3834 41.5449 75.3834C43.4635 75.9405 44.904 78.2767 44.2714 78.2767C44.0752 78.2767 43.6857 78.0561 43.0521 77.495C41.6883 76.2899 39.5904 75.9465 37.9945 75.9465C36.4364 75.9465 35.3596 76.27 35.9065 76.4407C37.0192 76.7832 36.6237 78.8389 36.6237 78.8389C36.299 76.7941 33.1162 75.4922 33.1162 75.4922C32.4198 75.3375 31.8032 75.2696 31.2593 75.2696C30.0051 75.2696 29.1364 75.623 28.5457 76.0513C28.1462 76.4447 27.7517 76.9439 27.3742 77.5739C27.3742 77.5739 27.6252 76.7203 28.5457 76.0513C29.5558 75.0599 30.5958 74.7574 31.5014 74.7574C32.8402 74.7574 33.8763 75.4203 34.0566 75.5012C34.1263 75.5332 34.197 75.5451 34.2688 75.5451ZM36.9993 70.1608C36.4912 70.1618 35.9483 70.2177 35.3934 70.3086C35.2819 70.4274 35.1713 70.5532 35.0737 70.685L34.8904 70.659C34.8077 70.5861 34.722 70.5182 34.6353 70.4523C32.9877 70.8058 31.2922 71.4088 29.9961 71.8551C29.493 72.2584 29.2918 72.6258 29.9104 72.6338C31.1796 72.6528 32.5125 74.2862 30.7054 74.2862C30.6098 74.2862 30.5052 74.2822 30.3906 74.2712C30.2481 74.2592 30.1137 74.2532 29.9842 74.2532C28.0765 74.2532 27.6541 75.5212 26.5872 76.4337C26.3899 76.6025 26.1498 76.7402 25.8799 76.8421C26.0911 77.0258 26.364 77.2055 26.6977 77.3842C27.3712 77.7456 27.8284 77.9912 28.2548 78.2079C27.42 77.1915 28.8425 76.0533 31.7793 75.7708C31.9048 75.7588 32.0273 75.7528 32.1459 75.7528C35.0308 75.7528 35.9443 79.1963 36.5251 79.2332C36.5281 79.2332 36.5351 79.2352 36.539 79.2352C37.1338 79.2352 37.3519 76.6933 37.3519 76.6933C37.857 76.5465 38.3372 76.4886 38.7874 76.4886C40.6702 76.4886 41.9772 77.525 41.9772 77.525C42.7572 78.3536 43.3988 79.6456 41.4403 80.2456C41.8995 80.1567 42.3757 80.0389 42.8698 79.9221C43.611 79.7474 44.3969 79.5737 45.2327 79.4908C44.4737 79.3051 45.3981 77.0707 48.6775 76.4347C49.2354 76.3259 49.7654 76.28 50.2605 76.28C50.8831 76.28 51.4519 76.3539 51.958 76.4637C51.9958 76.3519 52.0476 76.238 52.1074 76.1292C51.2895 75.9704 50.5623 75.9006 49.9138 75.9006C46.1393 75.9006 45.0803 78.2258 45.0803 78.2258C45.1092 77.0337 44.2625 76.7522 43.0979 75.7928C41.9314 74.8353 42.5361 74.391 42.5361 74.391C43.2483 73.3896 44.8213 73.137 46.2718 73.137C47.0089 73.137 47.7113 73.2019 48.2542 73.2668C48.7981 73.3317 49.1786 73.3976 49.2683 73.3976C49.2683 73.3976 49.2802 73.3976 49.2832 73.3956C49.595 73.3237 49.8869 73.2688 50.1649 73.2269C48.7433 72.7676 46.5288 72.3692 46.2339 71.6065C46.1821 71.4737 46.1034 71.3629 46.0058 71.273C45.9649 71.4947 45.8703 71.6244 45.8703 71.6244C45.8703 71.6244 45.8613 71.6244 45.8424 71.6244C45.4419 71.6244 40.9352 71.6704 40.4839 73.7201C40.4839 73.7201 39.0106 71.1542 36.2671 70.9745C36.1446 70.9665 36.4524 70.5581 36.9993 70.1608Z" fill="#3C2C13"/>
<path d="M35.3924 70.3086C35.2818 70.3266 35.1692 70.3445 35.0607 70.3675C34.978 70.4365 34.9122 70.4676 34.8495 70.4676C34.8146 70.4676 34.7807 70.4566 34.7469 70.4396C34.7429 70.4366 34.7369 70.4345 34.7319 70.4315C34.702 70.4395 34.6682 70.4466 34.6333 70.4526C34.72 70.5186 34.8056 70.5866 34.8883 70.6596L35.0716 70.6856C35.1712 70.5536 35.2808 70.4276 35.3924 70.3086Z" fill="#2B200C"/>
<path d="M29.9951 71.8551C29.6285 71.9809 29.2938 72.0947 29.0019 72.1875C26.897 72.8495 29.0268 73.2868 27.4399 74.1863C27.941 74.9052 26.9468 75.648 26.1399 75.648C25.9147 75.648 25.7025 75.5901 25.5431 75.4543C25.2264 75.9245 25.3549 76.3908 25.8779 76.8441C26.1478 76.7422 26.3879 76.6044 26.5852 76.4357C27.6521 75.5232 28.0744 74.2552 29.9821 74.2552C30.1116 74.2552 30.2461 74.2612 30.3886 74.2732C30.5031 74.2842 30.6087 74.2882 30.7034 74.2882C32.5104 74.2882 31.1786 72.6538 29.9084 72.6358C29.2908 72.6248 29.493 72.2584 29.9951 71.8551Z" fill="#493719"/>
<path d="M34.7479 73.2568C34.4679 73.2568 34.2189 73.1939 34.1481 73.0292C34.0276 72.7516 34.3255 72.6827 34.6413 72.6827C34.9411 72.6827 35.2559 72.7426 35.2559 72.7426C36.1953 72.9204 35.3934 73.2568 34.7479 73.2568ZM33.672 72.2824C31.3309 72.2824 32.7505 73.3077 32.63 73.8019C32.5074 74.3121 34.2667 75.3215 34.2667 75.3215C34.2667 75.3215 35.0158 73.5523 37.4316 73.4265C37.4316 73.4265 36.541 72.3493 33.8921 72.2834C33.8164 72.2824 33.7417 72.2824 33.672 72.2824Z" fill="#493719"/>
<path d="M37.0271 70.1608C37.0162 70.1608 37.0092 70.1608 36.9992 70.1608C36.4523 70.5581 36.1455 70.9675 36.266 70.9755C39.0095 71.1552 40.4829 73.7211 40.4829 73.7211C40.9342 71.6714 45.4409 71.6254 45.8414 71.6254C45.8613 71.6254 45.8693 71.6254 45.8693 71.6254C45.8693 71.6254 45.9639 71.4957 46.0047 71.274C45.8523 71.1342 45.6541 71.0454 45.4349 70.9905C45.403 71.1402 45.2656 71.2031 45.0723 71.2031C44.8312 71.2031 44.4975 71.1053 44.1628 70.9565C43.7354 71.0084 43.4157 71.0953 43.4157 71.0953C42.1973 70.7099 41.236 71.287 38.6101 70.3894C38.1399 70.2287 37.6039 70.1608 37.0271 70.1608Z" fill="#493719"/>
<path d="M46.2697 73.139C44.8193 73.139 43.2463 73.3916 42.534 74.393C42.534 74.393 41.9303 74.8373 43.0959 75.7947C44.2604 76.7542 45.1082 77.0348 45.0783 78.2278C45.0783 78.2278 46.1372 75.9026 49.9118 75.9026C50.5603 75.9026 51.2875 75.9715 52.1054 76.1312C52.2 75.9615 52.3195 75.7977 52.454 75.646C51.6242 75.5911 50.8123 75.2736 50.8123 74.5967C50.8123 74.1833 51.0325 73.9926 51.3552 73.9347C51.2945 73.6602 50.8113 73.4385 50.1628 73.2299C49.8859 73.2718 49.593 73.3267 49.2812 73.3986C49.2782 73.4006 49.2722 73.4006 49.2722 73.4006C49.1756 73.4006 48.7951 73.3357 48.2521 73.2698C47.7102 73.2039 47.0079 73.139 46.2697 73.139Z" fill="#493719"/>
<path d="M32.1448 75.7538C32.0263 75.7538 31.9038 75.7598 31.7782 75.7718C28.8415 76.0543 27.4189 77.1935 28.2537 78.2089C28.9431 78.5633 29.5538 78.8478 30.8737 79.4519C31.7075 79.6905 32.6818 79.9131 33.7098 80.0948C35.7102 80.2526 37.9337 80.0838 39.2526 80.3384C39.5017 80.3874 39.7547 80.4093 40.0167 80.4093C40.4729 80.4093 40.9481 80.3444 41.4402 80.2466C43.3987 79.6466 42.7572 78.3546 41.9772 77.526C41.9772 77.526 40.6692 76.4896 38.7874 76.4896C38.3381 76.4896 37.857 76.5485 37.3519 76.6943C37.3519 76.6943 37.1327 79.2362 36.539 79.2362C36.535 79.2362 36.5281 79.2342 36.5251 79.2342C35.9423 79.1973 35.0298 75.7538 32.1448 75.7538Z" fill="#493719"/>
<path d="M34.6423 72.6837C34.3265 72.6837 34.0286 72.7518 34.1492 73.0308C34.2189 73.1958 34.4679 73.2588 34.7489 73.2588C35.3944 73.2588 36.1963 72.9217 35.2579 72.7437C35.2579 72.7437 34.9411 72.6837 34.6423 72.6837Z" fill="#543F1C"/>
<path d="M44.7595 70.9176C44.5513 70.9176 44.3481 70.9346 44.1618 70.9566C44.4965 71.1056 44.8302 71.2036 45.0713 71.2036C45.2646 71.2036 45.402 71.1406 45.4339 70.9906C45.2227 70.9396 44.9876 70.9176 44.7595 70.9176Z" fill="#543F1C"/>
<path d="M51.3563 73.9337C51.0335 73.9917 50.8134 74.1823 50.8134 74.5957C50.8134 75.2726 51.6242 75.5901 52.4551 75.645C52.7161 75.3475 53.0338 75.0969 53.3506 74.9311C52.4062 74.6975 51.2537 74.5737 51.3563 74.0475C51.3652 74.0086 51.3642 73.9707 51.3563 73.9337Z" fill="#543F1C"/>
<path d="M28.5466 76.0523C27.6262 76.7213 27.3751 77.5749 27.3751 77.5749C27.7537 76.9449 28.1472 76.4457 28.5466 76.0523ZM34.2787 71.1991C34.1123 71.1991 33.943 71.2051 33.7686 71.2171C33.7686 71.2171 38.0821 72.5839 38.3172 73.6702C38.5533 74.7564 35.5916 74.2872 34.8455 75.3365C34.8455 75.3365 34.5616 75.5461 34.2697 75.5461C34.198 75.5461 34.1263 75.5342 34.0585 75.5032C33.8772 75.4223 32.8412 74.7594 31.5033 74.7594C30.5978 74.7594 29.5577 75.0619 28.5476 76.0533C29.1384 75.625 30.007 75.2716 31.2612 75.2716C31.8052 75.2716 32.4218 75.3385 33.1181 75.4942C33.1181 75.4942 36.3009 76.7971 36.6257 78.8408C36.6257 78.8408 37.0222 76.7852 35.9084 76.4427C35.3615 76.272 36.4384 75.9485 37.9964 75.9485C39.5923 75.9485 41.6903 76.292 43.0541 77.497C43.6876 78.0591 44.0761 78.2788 44.2734 78.2788C44.906 78.2788 43.4645 75.9415 41.5468 75.3854C41.5468 75.3854 42.4394 73.3157 44.9259 72.9343C45.8573 72.7886 45.671 72.6358 45.0066 72.6358C43.8998 72.6358 41.4612 73.0641 40.6343 74.6965C40.6343 74.6965 38.4826 71.1991 34.2787 71.1991Z" fill="#2F230E"/>
<path d="M50.8781 77.0447C46.9143 77.0447 45.7039 79.2023 45.4399 79.4708C45.697 79.4509 45.956 79.4389 46.223 79.4389C46.2887 79.4389 46.3574 79.4409 46.4242 79.4419C46.4481 79.4439 46.472 79.4439 46.4929 79.4439C46.2708 79.2692 46.2369 79.0265 46.478 78.7081C47.3217 77.5948 48.8887 77.4321 49.7305 77.4321C50.0762 77.4321 50.2983 77.4601 50.2983 77.4601C50.4159 77.4691 51.1431 77.5779 51.8434 77.7646C51.9391 77.7366 52.0307 77.7127 52.1164 77.6897C51.9689 77.501 51.8922 77.2973 51.8703 77.0887C51.5246 77.0587 51.1929 77.0447 50.8781 77.0447Z" fill="#3C2C13"/>
<path d="M49.7315 77.4311C48.8897 77.4311 47.3227 77.5938 46.479 78.7071C46.2379 79.0255 46.2718 79.2692 46.4939 79.4429C46.5537 79.4429 46.6135 79.4439 46.6732 79.4439C49.3131 79.4439 49.4307 78.4605 51.3563 77.9004C51.5316 77.8485 51.694 77.8035 51.8444 77.7626C51.1441 77.5769 50.4169 77.4671 50.2993 77.4581C50.2993 77.4581 50.0772 77.4311 49.7315 77.4311Z" fill="#493719"/>
<path d="M50.2584 76.281C49.7633 76.281 49.2343 76.3269 48.6755 76.4357C45.396 77.0717 44.4716 79.3061 45.2307 79.4918C45.2994 79.4828 45.3691 79.4768 45.4399 79.4708C45.7039 79.2023 46.9142 77.0447 50.878 77.0447C51.1928 77.0447 51.5236 77.0587 51.8712 77.0877C51.8513 76.883 51.8832 76.6713 51.9559 76.4647C51.4508 76.3558 50.881 76.281 50.2584 76.281Z" fill="#2F230E"/>
<path d="M27.2785 74.2742C27.2177 74.3041 27.1499 74.3371 27.0812 74.37C26.3909 74.6875 25.9167 75.004 25.6477 75.3185C25.7792 75.4543 25.9645 75.5132 26.1657 75.5132C26.8172 75.5132 27.6301 74.8962 27.2785 74.2742Z" fill="#3C2C13"/>
<path d="M27.4399 74.1863C27.3891 74.2163 27.3363 74.2442 27.2785 74.2742C27.6311 74.8962 26.8173 75.5132 26.1658 75.5132C25.9645 75.5132 25.7782 75.4533 25.6477 75.3185C25.6099 75.3624 25.574 75.4084 25.5441 75.4543C25.7025 75.5911 25.9157 75.648 26.1408 75.648C26.9468 75.648 27.9409 74.9042 27.4399 74.1863Z" fill="#2B200C"/>
<path d="M53.6046 74.999C53.5897 75.006 53.5747 75.015 53.5588 75.023C52.997 75.3435 52.1323 76.1122 52.0516 76.888C52.1123 77.0577 52.3205 77.1845 52.6891 77.3443C52.7897 77.3882 52.8983 77.4131 53.0119 77.4251C53.6216 77.2085 53.9274 76.9409 54.3707 76.1492C54.2253 76.2141 54.0967 76.273 54.021 76.3219C53.8148 76.4567 53.2809 76.6564 52.9452 76.6564C52.7738 76.6564 52.6543 76.6055 52.6543 76.4677C52.6543 76.3698 52.714 76.2331 52.8555 76.0374C52.8555 76.0374 53.3645 75.3854 54.0708 75.1678C53.9344 75.1039 53.776 75.0479 53.6046 74.999Z" fill="#3C2C13"/>
<path d="M53.3506 74.9311C53.0338 75.0969 52.7151 75.3475 52.4551 75.645C52.3206 75.7967 52.201 75.9605 52.1064 76.1302C52.0456 76.239 51.9948 76.3528 51.957 76.4647C51.8842 76.6713 51.8524 76.883 51.8723 77.0877C51.8952 77.2963 51.9719 77.5 52.1183 77.6887C52.1423 77.6807 52.1672 77.6747 52.1911 77.6687C51.9012 77.3053 51.8793 76.7692 52.2399 76.1641L52.2608 76.229C52.0685 76.5306 51.9938 76.7282 52.0516 76.888C52.1323 76.1122 52.996 75.3435 53.5588 75.023C53.5748 75.014 53.5897 75.005 53.6046 74.999C53.5249 74.9751 53.4383 74.9531 53.3506 74.9311Z" fill="#2B200C"/>
<path d="M52.0516 76.889C52.0317 77.0797 52.0596 77.2704 52.1482 77.4541C52.1811 77.526 52.2229 77.5899 52.2688 77.6468C52.5626 77.5669 52.8037 77.499 53.0119 77.4261C52.8983 77.4141 52.7888 77.3892 52.6891 77.3453C52.3206 77.1855 52.1124 77.0587 52.0516 76.889Z" fill="#392911"/>
<path d="M52.2389 76.1641C51.8793 76.7682 51.9002 77.3053 52.1901 77.6687C52.216 77.6598 52.2429 77.6538 52.2678 77.6468C52.222 77.5889 52.1801 77.526 52.1473 77.4541C52.0586 77.2704 52.0307 77.0797 52.0506 76.889C51.9928 76.7292 52.0676 76.5316 52.2598 76.23L52.2389 76.1641Z" fill="#291D0A"/>
<path d="M54.0709 75.1688C53.3646 75.3864 52.8555 76.0384 52.8555 76.0384C52.7131 76.2331 52.6543 76.3708 52.6543 76.4687C52.6543 76.6065 52.7738 76.6574 52.9452 76.6574C53.2809 76.6574 53.8149 76.4577 54.0211 76.3229C54.0958 76.274 54.2243 76.2161 54.3707 76.1502C54.3907 76.1152 54.4116 76.0783 54.4315 76.0393C54.6626 75.615 54.4604 75.3535 54.0709 75.1688Z" fill="#453213"/>
<path d="M41.4811 75.8806C41.4811 75.8806 42.0768 66.2321 49.5293 55.0361C56.9827 43.8411 59.6863 43.7323 60.6098 36.8254C61.5343 29.9184 58.724 71.0274 41.4811 75.8806Z" fill="#03A24B"/>
<path d="M60.5042 37.5362C59.4721 43.6514 56.6938 44.1935 49.5472 54.9273C44.0412 63.2 42.278 70.63 41.7301 73.9447C42.2959 70.5771 44.0811 63.2189 49.5282 55.0361C56.7177 44.2374 59.4891 43.7522 60.5042 37.5362ZM60.7702 35.9368C60.7552 35.9338 60.7283 36.0496 60.6885 36.2942C60.7184 36.1225 60.7403 36.0426 60.7522 36.0456C60.819 36.0566 60.6317 38.3658 60.0509 41.8742C60.6446 38.3049 60.8359 35.9477 60.7702 35.9368Z" fill="#81D0A5"/>
<path d="M43.2055 69.5767L43.2005 69.5558C43.2732 69.1205 45.684 63.3577 46.9183 60.6511C48.1516 57.9434 58.1961 42.5871 59.3397 42.4423H59.3865C60.3777 42.606 56.901 52.9914 55.1149 58.4326C53.3845 63.7102 44.7217 73.2468 44.0094 73.129L43.9626 73.0481C44.0343 71.9389 49.0392 64.7046 51.9052 60.9236C54.7692 57.1447 57.69 50.3466 58.6135 46.8023C58.997 45.3317 58.993 44.6847 58.7509 44.6458C58.4093 44.5868 57.5914 45.737 56.7108 47.4932C55.2055 50.4934 53.5001 53.3458 49.6927 59.435C46.0167 65.3126 43.334 69.5957 43.2055 69.5767ZM60.7523 36.0466C60.7403 36.0436 60.7194 36.1235 60.6885 36.2952C60.6706 36.409 60.6487 36.5478 60.6278 36.7175C60.5909 37.0011 60.5491 37.2736 60.5052 37.5362C59.4891 43.7532 56.7177 44.2374 49.5293 55.0361C44.0822 63.2179 42.297 70.5761 41.7312 73.9447C41.6784 74.2742 41.6355 74.5637 41.6036 74.8073C42.6596 72.5669 45.5983 66.6943 49.7544 61.301C54.9615 54.5409 57.7936 46.1024 57.9769 46.1344H57.9789C58.1572 46.1833 55.5711 54.8484 50.2844 61.7124C45.7667 67.5799 42.6984 74.0196 41.9623 75.633C53.4333 71.921 58.3634 52.0099 60.051 41.8742C60.6308 38.3668 60.819 36.0566 60.7523 36.0466Z" fill="#018430"/>
<path d="M41.9035 75.7538L41.6972 75.8187C41.7072 75.9775 41.6673 76.1053 41.5867 76.2011C41.6733 76.1702 41.747 76.1053 41.7869 76.0164C41.7899 76.0084 41.8317 75.9176 41.9035 75.7538ZM41.5966 74.8173C41.5468 74.9241 41.501 75.023 41.4601 75.1118L41.5398 75.2746C41.5558 75.1428 41.5727 74.991 41.5966 74.8173Z" fill="#019344"/>
<path d="M41.9612 75.633C41.8696 75.662 41.777 75.6919 41.6863 75.7189L41.6982 75.8197L41.9045 75.7548L41.9612 75.633ZM41.6036 74.8073L41.5966 74.8173C41.5737 74.991 41.5558 75.1428 41.5399 75.2746L41.5438 75.2846C41.5588 75.1518 41.5777 74.991 41.6036 74.8073Z" fill="#005D14"/>
<path d="M57.9759 46.1334C57.7926 46.1024 54.9604 54.5399 49.7534 61.3C45.5973 66.6933 42.6586 72.5659 41.6026 74.8063C41.5777 74.991 41.5578 75.1508 41.5428 75.2836C41.6166 75.4473 41.6634 75.5931 41.6853 75.7189C41.7769 75.6919 41.8696 75.662 41.9602 75.633C42.6964 74.0196 45.7647 67.5799 50.2824 61.7124C55.5691 54.8484 58.1542 46.1823 57.9769 46.1344L57.9759 46.1334Z" fill="#004C0D"/>
<path d="M56.4388 18.8692C56.4388 18.8692 55.0949 24.9214 51.0504 31.7525C47.0099 38.5885 34.6413 61.1782 39.7009 75.1358C39.7009 75.1358 40.8445 75.663 40.9541 75.008C41.0627 74.3551 37.4525 58.3957 47.6255 39.5849C57.7976 20.7741 57.4878 19.9394 58.5228 19.7767C59.5568 19.615 56.4388 18.8692 56.4388 18.8692Z" fill="#20461F"/>
<path d="M58.5706 19.7687L58.5228 19.7787C57.4887 19.9415 57.7975 20.7761 47.6255 39.5869C43.9695 46.35 42.0927 52.7408 41.1852 58.186C42.0927 52.7408 43.9695 46.35 47.6255 39.5899C57.7975 20.7791 57.4877 19.9415 58.5228 19.7787L58.5736 19.7697L58.5706 19.7687Z" fill="#8FA28F"/>
<path d="M58.2668 19.6539C58.2329 19.6749 58.1752 19.6918 58.0875 19.7068L58.0586 19.7118L58.0357 19.7158C57.0624 19.9045 57.185 21.0347 47.1902 39.516C38.5752 55.4494 39.8454 69.3301 40.3704 73.6053C40.5238 73.763 40.6901 73.9607 40.8714 74.2063C40.6025 72.1077 39.8563 66.1612 41.1852 58.186C42.0928 52.7408 43.9696 46.35 47.6256 39.5869C57.7976 20.7761 57.4878 19.9415 58.5228 19.7787L58.5706 19.7687C58.467 19.7318 58.3654 19.6939 58.2668 19.6539Z" fill="#122C11"/>
<path d="M55.6956 18.6336C55.6956 18.6336 48.6038 18.9051 49.6189 12.7989C50.633 6.69275 53.7531 3.40301 52.6463 0.639452C51.5415 -2.12411 57.0176 4.62106 55.6209 10.3269C54.2262 16.0337 56.8373 17.143 55.6956 18.6336Z" fill="#E887B7"/>
<path d="M55.2165 18.6276C54.9246 18.6136 54.5201 18.5817 54.0549 18.5068C54.5201 18.5817 54.9246 18.6146 55.2165 18.6276ZM53.6504 1.26246C53.779 1.46614 53.9115 1.6908 54.0439 1.93341V1.93241C53.9105 1.6908 53.779 1.46614 53.6504 1.26246ZM52.5277 0.0154724C52.469 0.0663906 52.4989 0.266077 52.6473 0.640476C52.4979 0.267075 52.469 0.0663906 52.5277 0.0154724Z" fill="#F3C3DB"/>
<path d="M52.5806 0.003479L52.5268 0.0154532C52.468 0.0663714 52.4979 0.267056 52.6463 0.640456C52.9063 1.28742 52.9342 1.96432 52.8107 2.70014C52.4062 5.10028 50.3959 8.12442 49.6189 12.7999C48.9495 16.8225 51.7986 18.0755 53.8228 18.4658L54.042 18.5048L54.0549 18.5078C54.5202 18.5826 54.9246 18.6146 55.2165 18.6286C55.084 18.4389 54.9615 18.2162 54.8588 17.9587C52.8495 17.5383 50.1658 16.2484 50.8163 12.3287C51.6272 7.45751 53.768 4.38146 54.043 1.93339C53.9105 1.69078 53.778 1.46612 53.6495 1.26244L53.6435 1.25147L53.6296 1.2335C53.1584 0.485699 52.7519 0.0314341 52.5806 0.003479Z" fill="#DD679D"/>
<path d="M59.1942 11.0368C59.1942 11.0368 60.6606 6.23848 62.0762 4.45734C63.4918 2.6772 64.49 -0.632477 64.9253 0.112327C65.3596 0.858129 67.0103 8.41797 64.8874 12.4355C62.7676 16.4531 56.3103 22.9936 59.1942 11.0368Z" fill="#E887B7"/>
<path d="M65.9145 8.13242C65.8856 8.62862 65.8368 9.11882 65.7621 9.59805C65.8368 9.11882 65.8866 8.62762 65.9145 8.13242ZM62.6201 3.67857C62.4617 3.93116 62.2973 4.17379 62.125 4.39443C62.2963 4.17379 62.4607 3.93116 62.6201 3.67857Z" fill="#F3C3DB"/>
<path d="M60.5371 14.7927C60.3588 15.4407 60.1426 16.0767 59.8826 16.6937C60.2153 16.523 60.545 16.3203 60.8648 16.0787C60.6546 15.9788 60.5311 15.5844 60.5371 14.7927ZM65.4562 2.08713C65.4652 4.67198 65.248 8.12243 64.3873 10.4856C64.2269 10.9289 64.0337 11.4032 63.8215 11.8844C64.3893 11.0867 65.0597 10.3139 65.7621 9.59707C65.8368 9.11884 65.8856 8.62761 65.9145 8.13141L65.9165 8.11145L65.9195 8.04555L65.9234 7.97968V7.97367C66.028 5.82512 65.7571 3.62167 65.4562 2.08713ZM64.4122 0.345911C63.9889 0.985883 63.3961 2.41362 62.6589 3.61169L62.649 3.62866L62.637 3.64862L62.6201 3.67458L62.6181 3.67958C62.4597 3.93217 62.2953 4.17476 62.123 4.39541L62.119 4.40241L62.0991 4.42636L62.0742 4.45832C61.7544 4.85868 61.4316 5.41778 61.1248 6.03678C61.2384 7.16397 61.2982 8.42594 61.2553 9.74082L61.2992 9.53416C61.2992 9.53416 62.4517 4.80477 63.3662 2.98669C63.7508 2.22791 64.1104 1.21751 64.4122 0.345911Z" fill="#DD679D"/>
<path d="M55.876 18.2142C55.876 18.2142 60.7363 22.6132 65.5768 18.378C70.4193 14.1418 68.7526 6.69273 70.999 5.27501C70.999 5.27501 64.7241 9.38143 62.7845 13.6516C60.8449 17.9227 56.0204 17.3426 55.876 18.2142Z" fill="#EA9DC4"/>
<path d="M70.9432 5.31096C70.7689 5.42777 70.214 5.80617 69.4619 6.37425C68.8323 9.30455 68.7247 14.0319 65.2331 17.087C63.2318 18.8362 61.2314 19.1128 59.5698 18.8362C59.3197 18.7933 59.0767 18.7384 58.8426 18.6755L58.7948 18.7474L58.7858 18.7613L58.73 18.8422L58.726 18.8472L58.6085 19.0199L58.5985 19.0369L58.5497 19.1028L58.5308 19.1278L58.4879 19.1857L58.469 19.2146L58.4272 19.2685L58.4062 19.2985L58.3674 19.3504L58.3425 19.3813L58.3046 19.4323L58.2817 19.4632L58.2399 19.5151L58.219 19.5441L58.1712 19.602L58.1652 19.61C58.6852 19.8286 59.2749 20.0183 59.9155 20.1272C61.5771 20.4027 63.5784 20.1271 65.5778 18.378C68.2814 16.0108 68.9568 12.6442 69.4151 9.8826C69.4629 9.59306 69.5107 9.31052 69.5555 9.03596C69.8444 7.28378 70.1253 5.88204 70.9432 5.31096Z" fill="#E07FAD"/>
<path d="M58.0884 19.7048C58.0884 19.7048 54.1346 20.6144 54.5151 14.9604C54.8957 9.30951 60.1007 6.25542 59.9005 2.07713C59.7013 -2.10315 64.1094 12.4155 58.0884 19.7048Z" fill="#EA9DC4"/>
<path d="M57.9241 7.21689C57.0465 8.54975 56.0622 9.93951 55.3729 11.5359C56.0612 9.93851 57.0465 8.54975 57.9241 7.21689Z" fill="#F4CEE1"/>
<path d="M54.5151 14.9614C54.5062 15.0992 54.5002 15.234 54.4962 15.3628C54.5002 15.234 54.5062 15.0982 54.5151 14.9614ZM55.3719 11.5359C54.9784 12.4475 54.6835 13.4249 54.558 14.4972C54.6835 13.4239 54.9784 12.4475 55.3719 11.5359Z" fill="#DE6DA2"/>
<path d="M58.0357 19.7148C57.8932 19.7398 57.4748 19.7978 56.9767 19.7168C57.4748 19.7998 57.8922 19.7408 58.0357 19.7148Z" fill="#1E381B"/>
<path d="M58.0586 19.7108L58.0356 19.7148L58.0586 19.7108Z" fill="#11230F"/>
<path d="M61.2026 6.9623C61.085 10.5545 60.3986 14.7857 58.3903 17.8548C58.3903 17.8548 58.0138 17.9856 57.5476 17.9087C56.6998 17.7669 55.5652 16.9343 55.8879 13.364C56.1061 10.9589 56.9917 8.99804 57.9241 7.2179C57.0465 8.54976 56.0622 9.93951 55.3729 11.5359C54.9794 12.4475 54.6845 13.4249 54.559 14.4972L54.558 14.5062L54.553 14.5571L54.552 14.5751L54.5461 14.621L54.5421 14.6459L54.5401 14.6869L54.5361 14.7148L54.5341 14.7548L54.5291 14.7887L54.5271 14.8227L54.5231 14.8636L54.5212 14.8915L54.5152 14.9604C54.5062 15.0982 54.5002 15.233 54.4962 15.3618C54.3916 18.5697 55.7783 19.4722 56.8582 19.6938L56.9658 19.7148L56.9767 19.7168C57.4748 19.7977 57.8932 19.7398 58.0357 19.7148L58.0586 19.7108L58.0755 19.7078L58.0885 19.7048L58.1532 19.6249L58.1652 19.61L58.1712 19.602L58.219 19.5441L58.2399 19.5151L58.2817 19.4632L58.3047 19.4323L58.3425 19.3813L58.3674 19.3504L58.4063 19.2985L58.4272 19.2685L58.469 19.2146L58.488 19.1857L58.5308 19.1278L58.5497 19.1028L58.5985 19.0369L58.6085 19.0199L58.726 18.8472L58.73 18.8422L58.7858 18.7613L58.7948 18.7474L58.8426 18.6755L58.8556 18.6545L58.8984 18.5866L58.9123 18.5666L58.9552 18.4978L58.9671 18.4788L59.0129 18.4059L59.0199 18.3919L59.0687 18.3111L59.0747 18.3031C61.1119 14.8826 61.4377 10.4427 61.2026 6.9623Z" fill="#E07FAD"/>
<path d="M31.6129 25.5954C31.6129 25.5954 32.2843 29.6309 28.7489 38.7902C25.2124 47.9495 23.219 66.6684 41.499 75.7718L41.4612 75.3185C41.4612 75.3185 22.3314 65.2886 28.441 43.3339C33.4887 25.195 33.4867 25.4925 33.2745 25.7541C33.2287 25.808 33.1719 25.8619 33.155 25.7411C33.0454 25.0502 31.8858 24.6339 31.6129 25.5954Z" fill="#20461F"/>
<path d="M30.2332 36.9032C30.1933 37.049 30.1535 37.1898 30.1126 37.3365C30.1535 37.1898 30.1933 37.048 30.2332 36.9032ZM30.7651 35.0043C30.7402 35.0911 30.7143 35.18 30.6914 35.2688C30.7143 35.18 30.7392 35.0911 30.7651 35.0043ZM30.8667 34.6408C30.8398 34.7357 30.8129 34.8296 30.787 34.9274C30.8139 34.8305 30.8398 34.7357 30.8667 34.6408ZM31.2164 33.3928C31.1875 33.4987 31.1576 33.6015 31.1277 33.7073C31.1566 33.6015 31.1875 33.4997 31.2164 33.3928Z" fill="#8FA28F"/>
<path d="M33.0086 27.0021L32.9498 27.0341L32.9448 27.036L32.9189 27.051L32.9109 27.054L32.888 27.066L32.8801 27.069L32.8571 27.081L32.8482 27.086L32.8263 27.095L32.8163 27.099L32.7964 27.1099L32.7834 27.1159L32.7625 27.1229L32.7495 27.1279L32.7316 27.1369L32.7177 27.1429L32.6967 27.1489L32.6828 27.1549L32.6629 27.1629L32.6499 27.1658L32.63 27.1729L32.6131 27.1778L32.5951 27.1858L32.5782 27.1898L32.5603 27.1958L32.5443 27.2008L32.5264 27.2048L32.5085 27.2108L32.4935 27.2158H32.4895C31.9307 29.2256 30.6735 33.6604 27.9997 43.263C25.7962 51.1813 26.8741 57.5471 29.1523 62.4512C29.3665 62.567 29.505 62.6489 29.5548 62.6778L29.5588 62.6808L29.5777 62.6918C29.7062 62.8925 29.8337 63.0881 29.9582 63.2838C27.8732 59.1585 26.615 53.9378 27.5375 47.5601L27.5385 47.5481C27.5614 47.3934 27.5863 47.2356 27.6102 47.0808L27.6132 47.0629L27.6292 46.966L27.6351 46.9381L27.6501 46.8482L27.6531 46.8233L27.669 46.7314L27.674 46.7055L27.6939 46.5916L27.6999 46.5707L27.7148 46.4808L27.7228 46.4359L27.7358 46.365L27.7447 46.3221L27.7587 46.2522L27.7676 46.2063L27.7806 46.1324L27.7885 46.0924L27.8055 46.0056L27.8184 45.9407L27.8344 45.8698L27.8443 45.8199L27.8583 45.754L27.8682 45.7001L27.8822 45.6392L27.8931 45.5853L27.9061 45.5214L27.9171 45.4705L27.937 45.3876L27.943 45.3586L27.9679 45.2468L27.9808 45.1929L27.9928 45.134L28.0057 45.0721L28.0177 45.0222L28.0336 44.9573L28.0466 44.9014L28.0605 44.8434L28.0774 44.7766L28.0894 44.7267L28.1143 44.6178L28.1263 44.5699L28.1422 44.499L28.1561 44.4491L28.1721 44.3832L28.185 44.3293L28.201 44.2684L28.2159 44.2085L28.2328 44.1486L28.2468 44.0927L28.2757 43.9808L28.2847 43.9469L28.3056 43.861L28.3185 43.8151L28.3365 43.7462L28.3514 43.6943L28.3713 43.6204L28.3833 43.5755L28.4042 43.4976L28.4162 43.4547L28.449 43.3369C28.5885 42.8407 28.722 42.3565 28.8535 41.8862L28.8913 41.7454L28.9142 41.6616L28.9342 41.5987L28.971 41.4579L28.975 41.4459C29.3057 40.2618 29.6106 39.1676 29.8945 38.1522L29.9184 38.0633L29.9702 37.8786L29.9732 37.8667C30.024 37.687 30.0728 37.5102 30.1206 37.3375C30.1615 37.1908 30.2013 37.05 30.2412 36.9042C30.3338 36.5717 30.4254 36.2493 30.5121 35.9338L30.5799 35.6972L30.6008 35.6163L30.6456 35.4595L30.6984 35.2688C30.7213 35.18 30.7472 35.0911 30.7721 35.0043L30.795 34.9284C30.8209 34.8305 30.8478 34.7367 30.8747 34.6418L30.9036 34.536C30.9833 34.2525 31.06 33.9779 31.1327 33.7123L31.1347 33.7093C31.1636 33.6035 31.1935 33.5007 31.2234 33.3949L31.2413 33.33L31.2573 33.274C32.1787 29.9594 32.7127 28.0664 33.0086 27.0021Z" fill="#122C11"/>
<path d="M34.2607 21.7785C34.2607 21.7785 35.4771 21.1974 35.8925 18.0165C36.3099 14.8356 36.6357 14.2177 37.7255 13.0535C38.8133 11.8924 37.4894 13.8003 38.1429 15.9269C38.7934 18.0535 39.41 25.1032 34.0246 25.213C28.6393 25.3218 34.2607 21.7785 34.2607 21.7785Z" fill="#E887B7"/>
<path d="M38.0423 15.5295C38.0682 15.6613 38.1001 15.7951 38.1429 15.9269C38.0991 15.7941 38.0682 15.6613 38.0423 15.5295Z" fill="#F3C3DB"/>
<path d="M38.1369 12.7021H38.1219L38.114 12.7041L38.096 12.7111L38.0871 12.7161L38.0681 12.728L37.9994 12.7799L37.9825 12.7949L37.9536 12.8209C37.8908 12.8778 37.8151 12.9557 37.7244 13.0545L37.6736 13.1074L37.5332 13.2612C37.4216 13.8662 37.2861 14.8237 37.5959 15.836C38.2106 17.8378 38.7924 24.2056 34.3633 25.0363L34.3115 25.202C36.9634 25.0183 38.0651 23.0634 38.4198 20.9398C38.7435 19.002 38.4457 16.9233 38.1419 15.9279C38.099 15.7951 38.0681 15.6613 38.0412 15.5305L37.9994 15.2989C37.9715 15.1062 37.9556 14.9165 37.9526 14.7338L37.9506 14.6929L37.9496 14.59V14.587V14.586C37.9526 13.5457 38.2614 12.761 38.1438 12.7061L38.1369 12.7021Z" fill="#DD679D"/>
<path d="M25.593 18.7603C25.593 18.7603 21.8015 16.6717 20.2972 16.9802C18.792 17.2917 21.6769 16.7635 22.2019 20.9957C22.7269 25.2309 28.4938 27.5392 28.7658 24.557C29.0388 21.5778 25.593 18.7603 25.593 18.7603Z" fill="#EA9DC4"/>
<path d="M22.2019 20.9958C22.3892 22.4973 23.23 23.7543 24.254 24.6199C23.23 23.7513 22.3892 22.4954 22.2019 20.9958Z" fill="#F4CEE1"/>
<path d="M21.1699 16.9992C20.869 16.9493 20.5971 16.9343 20.3659 16.9682L20.2972 16.9802C19.9974 17.0421 19.8728 17.0711 19.8659 17.111C19.8469 17.2688 21.7795 17.6072 22.2019 20.9968C22.3892 22.4964 23.23 23.7524 24.254 24.621L24.269 24.6329L24.2919 24.6509C25.0749 25.3039 25.9575 25.7262 26.7316 25.857C27.1689 25.9288 27.5713 25.9089 27.9021 25.7831C27.4369 25.5165 26.9956 25.1381 26.5981 24.6968C24.9952 24.0189 23.2947 22.3396 23.0188 20.1282C22.8305 18.6096 22.3384 17.7101 21.8562 17.1589C21.6191 17.0901 21.388 17.0371 21.1699 16.9992Z" fill="#E07FAD"/>
<path d="M30.1615 18.8512C30.1615 18.8512 28.6931 16.2534 27.135 15.5435C25.573 14.8367 24.2511 12.7091 24.4493 14.1997C24.6496 15.6883 25.3947 17.9427 24.9036 20.213C24.4145 22.4864 27.3701 26.9013 29.9632 26.1036C32.5563 25.3048 30.1615 18.8512 30.1615 18.8512Z" fill="#E887B7"/>
<path d="M24.4314 13.974C24.4324 14.038 24.4384 14.113 24.4504 14.201C24.4374 14.113 24.4314 14.038 24.4314 13.974Z" fill="#F3C3DB"/>
<path d="M29.1304 17.3337C29.1911 17.5583 29.3924 18.3211 29.5488 19.2526C29.6623 18.981 29.7779 18.6995 29.8955 18.4129C29.7122 18.1294 29.4492 17.74 29.1304 17.3337ZM24.5948 13.6855C24.4842 13.6675 24.4264 13.7484 24.4314 13.9741C24.4324 14.038 24.4384 14.1128 24.4503 14.2007C24.6406 15.6204 25.326 17.736 24.9653 19.8955C24.9474 20.0014 24.9295 20.1082 24.9046 20.214L24.8866 20.3089C24.5469 22.3027 26.6927 25.7921 28.9381 26.1675C29.1802 26.2064 29.4233 26.2114 29.6653 26.1735C29.2051 25.5495 28.9102 24.7148 28.7877 23.7963L28.7797 23.7992C28.5227 23.9031 28.2617 23.926 28.0057 23.8811C26.2982 23.5966 24.7502 20.4137 25.1217 18.6246C25.4764 16.9103 25.1875 15.234 25.0152 13.9481C24.8378 13.8023 24.6944 13.7025 24.5948 13.6855Z" fill="#DD679D"/>
<path d="M32.2474 10.3468C32.2474 10.3468 32.3012 12.7091 33.6809 16.5249C35.0587 20.3408 35.4402 26.7925 32.2305 27.2667C29.0218 27.7399 27.8961 23.0664 29.3466 19.7228C30.796 16.3802 32.5373 11.2923 32.2474 10.3468Z" fill="#EA9DC4"/>
<path d="M32.2744 10.7562C32.3013 11.0547 32.356 11.516 32.4666 12.118V12.117C32.358 11.514 32.3042 11.0537 32.2744 10.7562ZM32.2724 10.7153C32.2245 11.9263 31.2154 15.0493 30.1355 17.8079C31.2005 15.0833 32.2046 11.9992 32.2744 10.7562V10.7472L32.2724 10.7153Z" fill="#F4CEE1"/>
<path d="M29.3698 19.6709L29.3467 19.7239L29.2968 19.8429L29.3467 19.7239L29.3698 19.6709Z" fill="#DE6DA2"/>
<path d="M31.6408 27.2957C31.5431 27.2917 31.4465 27.2807 31.3519 27.2647C31.4455 27.2807 31.5431 27.2917 31.6408 27.2957Z" fill="#F4CEE1"/>
<path d="M32.2305 27.2677C32.0263 27.2957 31.83 27.3067 31.6407 27.2957C31.829 27.3067 32.0253 27.2957 32.2305 27.2677Z" fill="#1E381B"/>
<path d="M32.2743 10.7562C32.2046 11.9992 31.2005 15.0843 30.1355 17.8079L30.1296 17.8228L30.1116 17.8678C29.8636 18.4988 29.6125 19.1078 29.3695 19.6719L29.3465 19.7248L29.2968 19.8436C28.0675 22.8258 28.8475 26.7855 31.2921 27.2557L31.3519 27.2657C31.4465 27.2827 31.5431 27.2927 31.6408 27.2966C31.829 27.3076 32.0263 27.2966 32.2305 27.2687L32.2664 27.2627L32.2823 27.2597L32.3022 27.2567L32.3232 27.2507L32.3391 27.2497L32.361 27.2447L32.373 27.2417L32.3949 27.2377L32.4098 27.2328L32.4307 27.2288L32.4447 27.2257L32.4646 27.2207L32.4806 27.2158L32.5005 27.2118L32.5154 27.2068L32.5333 27.2008L32.5513 27.1968L32.5672 27.1918L32.5851 27.1858L32.6021 27.1818L32.62 27.1738L32.637 27.1688L32.6569 27.1619L32.6698 27.1589L32.6897 27.1509L32.7037 27.1449L32.7246 27.1389L32.7386 27.1329L32.7565 27.1239L32.7694 27.1189L32.7904 27.1119L32.8033 27.1059L32.8232 27.095L32.8332 27.091L32.8551 27.082L32.8641 27.077L32.887 27.065L32.895 27.062L32.9179 27.05L32.9258 27.047L32.9517 27.0321L32.9567 27.0301L33.0155 26.9981C33.3801 26.7894 33.676 26.4789 33.915 26.0896L33.933 26.0566L33.937 26.0526L33.9529 26.0267L33.9579 26.0177L33.9708 25.9927L33.9788 25.9817L33.9908 25.9608L34.0007 25.9428L34.0077 25.9288L34.0206 25.9039L34.0256 25.8979L34.0406 25.8709L34.0426 25.8659L34.0605 25.834C35.1274 23.7214 34.7469 19.7527 33.8274 16.9403C34.4819 20.3967 34.3494 25.225 32.2106 25.7002C31.9795 25.7521 31.7653 25.7581 31.567 25.7252C29.7241 25.4157 29.2699 21.7106 30.3228 18.9261C31.1158 16.8235 32.0333 13.981 32.4776 12.113C32.357 11.515 32.3022 11.0537 32.2743 10.7562Z" fill="#E07FAD"/>
<path d="M36.1117 72.521C36.1117 72.521 29.4751 66.0324 33.5166 51.8023C37.5611 37.5711 38.122 38.897 38.0134 34.1736C37.9058 29.4482 41.4243 48.6374 38.6141 58.1451C35.8038 67.6498 39.5395 74.1025 40.4281 74.8083C41.3157 75.5182 36.6366 72.7197 36.1117 72.521Z" fill="#6ABD45"/>
<path d="M38.094 33.4368C38.0353 33.4268 38.0024 33.6444 38.0113 34.1286C38.0024 33.6444 38.0363 33.4278 38.094 33.4368C38.5124 33.5067 40.3165 44.6378 39.4897 53.2639C40.3175 44.6398 38.5124 33.5077 38.094 33.4368Z" fill="#B4DEA2"/>
<path d="M37.2174 71.92C36.275 71.5366 33.9001 69.6836 33.0474 62.7058C32.1957 55.728 37.1069 40.9687 38.105 39.0068C38.3172 38.5915 38.4527 38.4138 38.5414 38.4288C38.8721 38.4837 38.5384 41.1843 38.9388 44.0767C39.4479 47.7488 38.6141 54.7825 37.6169 58.0882C36.6177 61.3979 36.5829 62.9613 36.7462 66.0134C36.8219 67.4372 36.796 68.162 36.6635 68.141C36.5131 68.1141 36.2212 67.1137 35.7849 65.066C34.97 61.2321 35.5857 58.198 36.6367 55.9087C37.6896 53.6164 38.4487 48.3668 38.6111 44.6947C38.6828 43.0673 38.5394 42.2197 38.3073 42.1787C38.0164 42.1318 37.591 43.3598 37.2892 45.9317C36.7452 50.5473 36.036 50.091 34.2239 58.3068C32.4118 66.5226 37.2174 71.92 37.2174 71.92ZM38.0941 33.4368C38.0353 33.4268 38.0024 33.6444 38.0114 34.1286L38.0134 34.1726C38.0443 35.5204 38.0204 36.3741 37.8779 37.2377C37.5193 39.4052 36.4075 41.6286 33.5166 51.8013C33.1231 53.1921 32.8302 54.5059 32.622 55.7499C31.6249 61.7413 32.6161 66.0464 33.7945 68.792C36.1037 71.7712 37.337 72.5419 38.2026 72.7895C36.4723 70.2087 32.636 63.3337 35.3257 56.4039C38.0074 49.5 38.0592 42.5072 38.2455 42.5042H38.2465C38.4328 42.5352 38.6778 49.6327 35.9543 56.6475C33.1909 63.764 37.6537 70.8766 39.0873 72.8864L39.1191 72.9443L39.1948 72.9583L39.2367 72.9643C39.1301 72.7357 39.0205 72.491 38.9129 72.2285C37.9596 69.8772 37.1029 66.0703 37.8968 61.2531C38.0622 60.2597 38.2943 59.2213 38.6141 58.1461C38.6699 57.9524 38.7257 57.7537 38.7775 57.553C39.0494 56.5007 39.2526 55.3476 39.3961 54.1315L39.413 54.0047C39.424 53.9159 39.4339 53.828 39.4419 53.7382C39.4539 53.6274 39.4658 53.5125 39.4778 53.3997L39.4907 53.2649C40.3175 44.6378 38.5125 33.5077 38.0941 33.4368Z" fill="#4BA42C"/>
<path d="M38.2465 42.5042C38.0592 42.5072 38.0084 49.5 35.3256 56.4039C32.6359 63.3338 36.4713 70.2087 38.2026 72.7896C38.3311 72.8255 38.4517 72.8495 38.5662 72.8714C38.6798 72.8894 38.7874 72.9014 38.892 72.9154L39.1181 72.9433L39.0862 72.8854C37.6527 70.8756 33.1898 63.7631 35.9532 56.6465C38.6768 49.6328 38.4318 42.5362 38.2465 42.5042Z" fill="#186309"/>
<path d="M29.5826 62.6878C29.5826 62.6878 17.1981 55.1279 10.181 64.3791C3.16186 73.6292 4.54058 75.4273 0.895541 75.8277C-2.7475 76.2271 5.3953 79.0455 13.2831 71.9569C21.1699 64.8673 22.4022 67.54 27.1709 70.4663C31.9406 73.3916 44.2525 79.37 41.2251 74.7185C40.1442 73.0591 39.5943 72.9992 38.891 72.9154C37.6248 72.7646 35.8566 72.531 29.5826 62.6878Z" fill="#03A24B"/>
<path d="M22.198 60.0091C18.2859 59.3571 13.5979 59.8733 10.181 64.3781C3.16187 73.6282 4.54059 75.4273 0.895553 75.8287C4.54059 75.4283 3.16187 73.6302 10.181 64.3801C13.5979 59.8733 18.2869 59.3571 22.199 60.0091C24.7562 60.4364 26.9816 61.3649 28.3036 62.0089C26.9826 61.3639 24.7581 60.4354 22.198 60.0091Z" fill="#81D0A5"/>
<path d="M28.3046 62.0079C28.6572 62.1789 28.9451 62.3299 29.1573 62.4479C28.9461 62.3309 28.6572 62.1789 28.3046 62.0079Z" fill="#103914"/>
<path d="M29.9692 63.2888C31.5053 65.673 32.7595 67.4571 33.7965 68.796L33.7945 68.793C32.7565 67.4551 31.5053 65.672 29.9692 63.2888Z" fill="#81D0A5"/>
<path d="M29.5837 62.6878C29.7122 62.8888 29.8397 63.0848 29.9642 63.2808C29.8397 63.0858 29.7122 62.8888 29.5837 62.6878Z" fill="#09240B"/>
<path d="M33.7946 68.792L33.7965 68.795C36.1037 71.7732 37.339 72.545 38.2027 72.7916V72.7896C37.337 72.542 36.1037 71.7722 33.7946 68.792Z" fill="#26861C"/>
<path d="M40.8714 74.2053L40.9174 74.2663L40.8714 74.2053Z" fill="#81D0A5"/>
<path d="M40.3704 73.6043V73.6063C40.5238 73.7623 40.6901 73.9603 40.8714 74.2073C40.6911 73.9603 40.5248 73.7623 40.3704 73.6043Z" fill="#09240B"/>
<path d="M39.1951 72.9573L39.1191 72.9443L39.1211 72.9473L39.1961 72.9573L39.2391 72.9633H39.2371L39.1951 72.9573Z" fill="#26861C"/>
<path d="M41.2261 74.7185C41.3187 74.8602 41.3954 74.991 41.4602 75.1108C41.3954 74.99 41.3177 74.8592 41.2261 74.7185ZM40.9232 74.2742C40.992 74.373 41.0657 74.4779 41.1404 74.5877C41.0657 74.4779 40.993 74.372 40.9232 74.2742Z" fill="#81D0A5"/>
<path d="M38.2026 72.7896V72.7916C38.3321 72.8266 38.4517 72.8526 38.5662 72.8726C38.6798 72.8906 38.7864 72.9016 38.892 72.9156L39.1201 72.9466L39.1181 72.9436L38.892 72.9156C38.7874 72.9016 38.6798 72.8906 38.5662 72.8716C38.4517 72.8506 38.3311 72.8266 38.2026 72.7896Z" fill="#0C5106"/>
<path d="M9.50954 71.7523H9.50755C9.35215 71.6584 15.0075 64.1674 20.4456 63.0213C21.3771 62.8236 22.2647 62.7966 23.1005 62.9374C24.1544 63.1131 25.1317 63.5524 26.0213 64.2593L31.5461 68.8419C34.8365 71.6464 37.2134 73.6722 39.1121 74.1374C39.2925 74.1803 39.402 74.3641 39.3582 74.5438C39.3164 74.7165 39.149 74.8243 38.9747 74.7984L38.9528 74.7924C36.9006 74.2892 34.5964 72.3253 31.1108 69.3581L25.6039 64.7874C24.8089 64.1544 23.9323 63.7611 22.9849 63.6033C22.3215 63.4925 21.6231 63.4985 20.8909 63.6223C15.7835 64.4889 9.70977 71.7862 9.50954 71.7523ZM3.39396 75.7288C3.07618 75.6769 3.10806 75.5452 3.65397 75.3924C5.64733 74.8263 8.13082 68.6323 12.6455 63.6692C15.2904 60.7659 19.4126 60.4873 22.711 61.0395C25.046 61.4308 26.9677 62.2335 27.661 62.8146C29.3286 64.2113 34.6223 70.029 35.0407 70.8827C35.0836 70.9685 35.0636 71.0025 34.9949 70.9905C34.3623 70.8837 29.5129 67.0797 25.9376 63.7581C24.9932 62.8805 23.9343 62.3983 22.8225 62.2116C19.2612 61.6155 15.1788 64.0995 12.7173 66.5935C9.48862 69.8673 7.04299 72.4821 8.67474 72.7556C10.3065 73.0272 12.9354 68.6472 19.7892 65.086C21.7178 64.0846 22.8893 63.7461 23.756 63.8899C25.9685 64.2593 26.1857 67.7866 31.9207 71.4837C35.9084 74.0535 37.9257 74.8672 38.9458 75.037C39.9669 75.2087 39.9888 74.7335 39.9888 74.7335C40.1133 75.2826 39.6411 75.4234 38.7834 75.2796C35.6195 74.7524 27.2157 70.3355 24.3218 68.0821C23.5119 67.4531 22.694 67.1017 21.8762 66.9629C17.6982 66.266 13.5262 71.2011 10.3404 73.4825C7.57694 75.4623 4.24371 75.8706 3.39396 75.7288ZM22.1999 60.0091C18.2869 59.3571 13.5979 59.8733 10.182 64.3801C3.16286 73.6302 4.54158 75.4283 0.89654 75.8287C-0.106617 75.9385 -0.215208 76.2311 0.313766 76.4507C0.47714 76.5166 0.700295 76.5795 0.974245 76.6244C3.07121 76.9758 8.23044 76.4996 13.2841 71.9579C17.487 68.178 19.8011 67.1736 21.7676 67.5031C23.491 67.7896 24.9464 69.0995 27.1729 70.4673C30.4224 72.4581 37.1626 75.8636 40.182 76.3688C40.5038 76.4227 40.7817 76.4447 41.0089 76.4258C41.2768 76.4058 41.4751 76.3359 41.5886 76.2021C41.6693 76.1063 41.7092 75.9784 41.6992 75.8197L41.6873 75.7189C41.6663 75.5931 41.6195 75.4483 41.5448 75.2836L41.5408 75.2736L41.4611 75.1108C41.3964 74.99 41.3187 74.8592 41.227 74.7185L41.1533 74.6067L41.1414 74.5877C41.0667 74.4779 40.9939 74.372 40.9242 74.2742L40.9182 74.2662L40.8724 74.2053C40.6911 73.9597 40.5247 73.762 40.3713 73.6053C39.937 73.162 39.5933 73.0272 39.2387 72.9633L39.1958 72.9573L39.1211 72.9463L38.893 72.9154C38.7874 72.9014 38.6808 72.8904 38.5672 72.8724C38.4527 72.8525 38.3331 72.8265 38.2036 72.7916C37.3399 72.545 36.1057 71.7732 33.7975 68.795C32.7605 67.4562 31.5063 65.672 29.9702 63.2878L29.9642 63.2789C29.8397 63.0842 29.7122 62.8875 29.5836 62.6868L29.5647 62.6758L29.5607 62.6728C29.5099 62.6439 29.3724 62.562 29.1583 62.4462C28.9461 62.3294 28.6572 62.1776 28.3055 62.0069C26.9826 61.3649 24.7581 60.4354 22.1999 60.0091Z" fill="#018430"/>
<path d="M23.1005 62.9374C22.2647 62.7966 21.3771 62.8236 20.4457 63.0213C15.0075 64.1674 9.35116 71.6584 9.50757 71.7523H9.50956C9.70979 71.7862 15.7835 64.4889 20.891 63.6203C21.6222 63.4965 22.3215 63.4905 22.9849 63.6014C23.9323 63.7591 24.809 64.1534 25.6039 64.7854L31.1108 69.3561C34.5965 72.3243 36.9016 74.2872 38.9528 74.7904L38.9747 74.7964C39.149 74.8223 39.3164 74.7145 39.3582 74.5418C39.402 74.361 39.2925 74.1784 39.1122 74.1354C37.2134 73.6702 34.8365 71.6444 31.5461 68.8399L26.0213 64.2573C25.1327 63.5524 24.1545 63.1131 23.1005 62.9374Z" fill="#00440B"/>
</svg>
